<?xml version="1.0" encoding="UTF-8"?>
<svg width="32px" height="32px" viewBox="0 0 32 32" version="1.1" xmlns="http://www.w3.org/2000/svg" xmlns:xlink="http://www.w3.org/1999/xlink">
    <title>icon/account/addresses</title>
    <g id="icon/account/addresses" stroke="none" stroke-width="1" fill="none" fill-rule="evenodd">
        <path d="M15.71875,4 C20.5114375,4 24.4106406,7.89915625 24.4106406,12.6918437 C24.4106406,18.6397187 16.63225,27.3715469 16.3010781,27.7403594 C15.9905781,28.0862031 15.4474844,28.0868125 15.1364219,27.7403594 C14.80525,27.3715469 7.02685937,18.6397187 7.02685937,12.6918437 C7.02685937,7.89915625 10.9260156,4 15.71875,4 Z M15.71875,5.56525 C11.7890781,5.56525 8.59210937,8.76221875 8.59210937,12.6919375 C8.59210937,16.774 13.1009219,22.9089531 15.71875,26.0185469 C18.3372344,22.9079687 22.8453906,16.7741406 22.8453906,12.6918906 C22.8453906,8.76221875 19.6484219,5.56525 15.71875,5.56525 Z M15.71875,8.31878125 C18.1300469,8.31878125 20.0917656,10.2805469 20.0917656,12.6918906 C20.0917656,15.1032344 18.1300469,17.065 15.71875,17.065 C13.3074531,17.065 11.3456875,15.1032344 11.3456875,12.6918906 C11.3456875,10.2805469 13.3074062,8.31878125 15.71875,8.31878125 Z M15.71875,9.88403125 C14.1705156,9.88403125 12.9109375,11.1436094 12.9109375,12.6918906 C12.9109375,14.2401719 14.1704687,15.49975 15.71875,15.49975 C17.2669844,15.49975 18.5265625,14.2401719 18.5265625,12.6918906 C18.5265625,11.1436094 17.2669844,9.88403125 15.71875,9.88403125 Z" id="Combined-Shape" fill="#5F6062"></path>
    </g>
</svg>