<?xml version="1.0" encoding="UTF-8"?>
<svg width="32px" height="32px" viewBox="0 0 32 32" version="1.1" xmlns="http://www.w3.org/2000/svg" xmlns:xlink="http://www.w3.org/1999/xlink">
    <title>icon/account/messages</title>
    <g id="icon/account/messages" stroke="none" stroke-width="1" fill="none" fill-rule="evenodd">
        <path d="M24.283103,8 L6.99481907,8 C5.89480818,8 5,8.89480818 5,9.99481907 L5,21.9636447 C5,23.0636556 5.89480818,23.9584638 6.99481907,23.9584638 L24.283103,23.9584638 C25.3831139,23.9584638 26.2779221,23.0636556 26.2779221,21.9636447 L26.2779221,9.99481907 C26.2779221,8.89480818 25.3831139,8 24.283103,8 Z M24.283103,9.32986458 C24.3734455,9.32986458 24.4593908,9.3486082 24.537963,9.38134292 L15.638961,17.0941666 L6.73991467,9.38134292 C6.81848688,9.34865262 6.90443217,9.32986458 6.99477466,9.32986458 L24.283103,9.32986458 Z M24.283103,22.6285548 L6.99481907,22.6285548 C6.6279415,22.6285548 6.32986458,22.3305223 6.32986458,21.9636003 L6.32986458,10.7863597 L15.2032384,18.4766199 C15.3285808,18.5850398 15.4837709,18.638961 15.638961,18.638961 C15.7941511,18.638961 15.9493412,18.5850842 16.0746837,18.4766199 L24.9480575,10.7863597 L24.9480575,21.9636447 C24.9480575,22.3305223 24.6499806,22.6285548 24.283103,22.6285548 L24.283103,22.6285548 Z" id="Shape" fill="#FFFFFF"></path>
    </g>
</svg>
