<?xml version="1.0" encoding="UTF-8"?>
<svg width="32px" height="32px" viewBox="0 0 32 32" version="1.1" xmlns="http://www.w3.org/2000/svg" xmlns:xlink="http://www.w3.org/1999/xlink">
    <title>icon/account/rewards</title>
    <g id="icon/account/rewards" stroke="none" stroke-width="1" fill="none" fill-rule="evenodd">
        <path d="M25.4140625,7.44348145 L22.8475342,7.44348145 C22.856842,7.1592102 22.86203,6.87326051 22.86203,6.5859375 C22.86203,6.26229859 22.5995789,6 22.2760925,6 L9.72390746,6 C9.40042113,6 9.13796996,6.26229859 9.13796996,6.5859375 C9.13796996,6.87326051 9.14315797,7.1592102 9.15246582,7.44348145 L6.5859375,7.44348145 C6.26229859,7.44348145 6,7.70578004 6,8.02941895 C6,10.6548462 6.68618773,13.1318054 7.93206789,15.0042114 C9.16360473,16.8552551 10.8040771,17.9169617 12.5762329,18.0202637 C12.9779968,18.457428 13.4026489,18.8138733 13.8450012,19.0857849 L13.8450012,21.6900024 L12.86203,21.6900024 C11.6736755,21.6900024 10.7070312,22.6567993 10.7070312,23.8450012 L10.7070312,24.8279724 L10.6653748,24.8279724 C10.3417359,24.8279724 10.0794373,25.0904236 10.0794373,25.4139099 C10.0794373,25.7375488 10.3417359,25.9998474 10.6653748,25.9998474 L21.3346252,25.9998474 C21.6582641,25.9998474 21.9205627,25.7375488 21.9205627,25.4139099 C21.9205627,25.0904236 21.6582641,24.8279724 21.3346252,24.8279724 L21.2929688,24.8279724 L21.2929688,23.8450012 C21.2929688,22.6567993 20.3263245,21.6900024 19.13797,21.6900024 L18.1549988,21.6900024 L18.1549988,19.0857849 C18.5973511,18.8140259 19.0221558,18.457428 19.4239197,18.0202637 C21.1959229,17.9169617 22.8363953,16.8552551 24.0680847,15.0042114 C25.3139648,13.1318054 26,10.6548462 26,8.02941895 C26,7.70578004 25.7377014,7.44348145 25.4140625,7.44348145 Z M8.90771484,14.3551025 C7.88003539,12.8107605 7.27624512,10.790802 7.18423461,8.61535645 L9.21792602,8.61535645 C9.42926023,11.2896118 10.0570068,13.7615356 11.038147,15.7236633 C11.194397,16.0361633 11.3578186,16.3314209 11.5273438,16.609436 C10.5527649,16.2413941 9.65081789,15.4720459 8.90771484,14.3551025 Z M20.1210938,23.8450012 L20.1210938,24.828125 L11.8789062,24.828125 L11.8789062,23.8450012 C11.8789062,23.303009 12.3198852,22.8618774 12.86203,22.8618774 L19.13797,22.8618774 C19.6801148,22.8618774 20.1210938,23.303009 20.1210938,23.8450012 Z M16.9831238,21.6900024 L15.0168762,21.6900024 L15.0168762,19.5949707 C15.3389893,19.6798096 15.6672058,19.7239075 16,19.7239075 C16.3327942,19.7239075 16.6610107,19.6798096 16.9831238,19.5949707 L16.9831238,21.6900024 Z M17.3459778,18.2009277 C17.3195801,18.2117615 17.2942505,18.224884 17.269989,18.2393799 C16.8558655,18.4453735 16.4302979,18.5520325 16,18.5520325 C15.5698547,18.5520325 15.1444397,18.4453735 14.7304688,18.2396851 C14.7059021,18.224884 14.6804199,18.2117615 14.653717,18.2006226 C14.1942749,17.9577027 13.7497864,17.5908813 13.3294067,17.1088562 C13.3072815,17.0772705 13.2824097,17.0481262 13.2547913,17.0215759 C12.8374634,16.526123 12.4448547,15.916687 12.0862732,15.1995239 C11.0094605,13.046051 10.3875122,10.2144775 10.3167114,7.171875 L21.6832886,7.171875 C21.6123352,10.2144775 20.990387,13.0462036 19.9137268,15.1995239 C19.5551453,15.916687 19.1625366,16.526123 18.7453613,17.0215759 C18.7175903,17.0481262 18.6924133,17.0774231 18.6704407,17.1090088 C18.250061,17.5911865 17.8054199,17.9578552 17.3459778,18.2009277 Z M23.0922852,14.3551025 C22.3491821,15.4720459 21.4472351,16.2413941 20.4726562,16.609436 C20.6421814,16.3314209 20.805603,16.0361633 20.961853,15.7236633 C21.9429932,13.7615356 22.5705871,11.2896118 22.782074,8.61535645 L24.8157654,8.61535645 C24.7237549,10.790802 24.1199646,12.8107605 23.0922852,14.3551025 Z" id="Shape" fill="#FFFFFF"></path>
    </g>
</svg>
