<?xml version="1.0" encoding="UTF-8"?>
<svg width="32px" height="32px" viewBox="0 0 32 32" version="1.1" xmlns="http://www.w3.org/2000/svg" xmlns:xlink="http://www.w3.org/1999/xlink">
    <title>icon/account-price</title>
    <g id="icon/account-price" stroke="none" stroke-width="1" fill="none" fill-rule="evenodd">
        <g id="np_tags_2812870_000000" transform="translate(4.000000, 4.000000)" fill="#404041" fill-rule="nonzero" stroke="#404041" stroke-width="0.5">
            <path d="M23.7623762,2.22308911 L23.7642326,10.7618614 C23.7642326,11.2937347 23.5581676,11.7884673 23.1822444,12.1653149 L11.9295712,23.4179881 C11.1554405,24.1921188 9.89677117,24.1921188 9.12275929,23.4179881 L0.582323644,14.8775525 C-0.19180705,14.1034218 -0.19180705,12.8447525 0.582323644,12.0707406 L11.8349969,0.818067327 C12.209991,0.443073267 12.7084543,0.236079208 13.2384504,0.236079208 L21.778886,0.236079208 C22.8704821,0.239792079 23.7606207,1.12902178 23.7624979,2.22154455 L23.7623762,2.22308911 Z M22.4378875,10.7618614 L22.4378875,2.22308911 C22.4433833,1.8675802 22.1324198,1.55755248 21.7806416,1.56031412 L13.2373545,1.56218923 C13.0424293,1.56218923 12.9078416,1.61788349 12.7704713,1.75711438 L1.51779802,13.0097876 C1.26161584,13.2678233 1.26161584,13.6883223 1.51779802,13.9445045 L10.0582337,22.4849401 C10.3144158,22.7411223 10.7367683,22.7411223 10.9929505,22.4849401 L22.2456238,11.2322669 C22.384857,11.0930336 22.4378875,10.9621599 22.4378875,10.7653837 L22.4378875,10.7618614 Z" id="Shape"></path>
            <path d="M19.5733069,4.42669307 C20.3697267,5.22311287 20.3697267,6.52353267 19.5733069,7.31714851 C18.7750337,8.11542178 17.481101,8.11542178 16.6828515,7.31714851 C15.884602,6.51887525 15.8845782,5.22494257 16.6828515,4.42669307 C17.4792713,3.63027327 18.7796911,3.63027327 19.5733069,4.42669307 Z M18.8352958,5.16470424 C18.4412267,4.77063522 17.8127537,4.77063522 17.422542,5.16470424 C17.033616,5.55620174 17.033616,6.18981777 17.422542,6.57745799 C17.811468,6.96638397 18.4476555,6.96638397 18.8352958,6.57745799 C19.2293648,6.18338897 19.2293648,5.55880623 18.8352958,5.16470424 Z" id="Shape"></path>
        </g>
    </g>
</svg>
