<?xml version="1.0" encoding="UTF-8"?>
<svg width="18px" height="24px" viewBox="0 0 18 24" version="1.1" xmlns="http://www.w3.org/2000/svg" xmlns:xlink="http://www.w3.org/1999/xlink">
    <title>ABFA9D53-648B-4E4F-99E0-81CCA83B1C93</title>
    <g id="Navigation-M" stroke="none" stroke-width="1" fill="none" fill-rule="evenodd">
        <g id="NavBar-Open-Account" transform="translate(-27.000000, -736.000000)" fill="#FFFFFF">
            <g id="Secondary" transform="translate(0.000000, 474.000000)">
                <g id="L3" transform="translate(0.000000, 69.000000)">
                    <g id="header/mobile/nav-item/L3-Copy-4" transform="translate(27.000000, 193.000000)">
                        <g id="icon/account/dashboard">
                            <path d="M8.71875,-9.96536187e-13 C13.5114375,-9.96536187e-13 17.4106406,3.89915625 17.4106406,8.69184375 C17.4106406,14.6397187 9.63225,23.3715469 9.30107812,23.7403594 C8.99057812,24.0862031 8.44748437,24.0868125 8.13642187,23.7403594 C7.80525,23.3715469 0.026859375,14.6397187 0.026859375,8.69184375 C0.026859375,3.89915625 3.92601562,-9.96536187e-13 8.71875,-9.96536187e-13 Z M8.71875,1.56525 C4.78907812,1.56525 1.59210937,4.76221875 1.59210937,8.6919375 C1.59210937,12.774 6.10092187,18.9089531 8.71875,22.0185469 C11.3372344,18.9079687 15.8453906,12.7741406 15.8453906,8.69189062 C15.8453906,4.76221875 12.6484219,1.56525 8.71875,1.56525 Z M8.71875,4.31878125 C11.1300469,4.31878125 13.0917656,6.28054687 13.0917656,8.69189062 C13.0917656,11.1032344 11.1300469,13.065 8.71875,13.065 C6.30745312,13.065 4.3456875,11.1032344 4.3456875,8.69189062 C4.3456875,6.28054687 6.30740625,4.31878125 8.71875,4.31878125 Z M8.71875,5.88403125 C7.17051562,5.88403125 5.9109375,7.14360937 5.9109375,8.69189062 C5.9109375,10.2401719 7.17046875,11.49975 8.71875,11.49975 C10.2669844,11.49975 11.5265625,10.2401719 11.5265625,8.69189062 C11.5265625,7.14360937 10.2669844,5.88403125 8.71875,5.88403125 Z" id="Combined-Shape"></path>
                        </g>
                    </g>
                </g>
            </g>
        </g>
    </g>
</svg>