<?xml version="1.0" encoding="UTF-8"?>
<svg width="21px" height="21px" viewBox="0 0 21 21" version="1.1" xmlns="http://www.w3.org/2000/svg" xmlns:xlink="http://www.w3.org/1999/xlink">
    <title>99BAE4A2-92CA-461C-9523-1B76647CC09C</title>
    <g id="Page-1" stroke="none" stroke-width="1" fill="none" fill-rule="evenodd">
        <g id="Iconography" transform="translate(-673.000000, -1040.000000)">
            <g id="Group-9" transform="translate(662.000000, 412.000000)">
                <g id="Group-7" transform="translate(11.200000, 628.300000)">
                    <polygon id="Fill-1" fill="#016FD0" points="9.9475983e-14 19.8896133 19.8896133 19.8896133 19.8896133 9.9475983e-14 9.9475983e-14 9.9475983e-14"></polygon>
                    <polyline id="Fill-2" fill="#FFFFFE" points="7.20508287 16.7423204 7.20508287 9.61558011 19.8895028 9.62696133 19.8895028 11.5955801 18.4234254 13.1623204 19.8895028 14.7434254 19.8895028 16.7538122 17.5487293 16.7538122 16.3047514 15.381105 15.0696133 16.7590055 7.20508287 16.7423204"></polyline>
                    <polyline id="Fill-3" fill="#016FD0" points="8.05226519 15.9609945 8.05226519 10.3998895 12.7676243 10.3998895 12.7676243 11.6809945 9.57900552 11.6809945 9.57900552 12.5506077 12.6916022 12.5506077 12.6916022 13.8103867 9.57900552 13.8103867 9.57900552 14.6645304 12.7676243 14.6645304 12.7676243 15.9609945 8.05226519 15.9609945"></polyline>
                    <polyline id="Fill-4" fill="#016FD0" points="12.7440884 15.9609945 15.3532597 13.1772376 12.7439779 10.4 14.7635359 10.4 16.3579006 12.1625414 17.9567956 10.4 19.8895028 10.4 19.8895028 10.4437569 17.3359116 13.1772376 19.8895028 15.8820994 19.8895028 15.9609945 17.9373481 15.9609945 16.3146961 14.1807735 14.7087293 15.9609945 12.7440884 15.9609945"></polyline>
                    <polyline id="Fill-5" fill="#FFFFFE" points="7.79668508 3.28994475 10.8542541 3.28994475 11.9281768 5.72850829 11.9281768 3.28994475 15.7029834 3.28994475 16.3539227 5.11690608 17.0070718 3.28994475 19.8895028 3.28994475 19.8895028 10.4166851 4.65635359 10.4166851 7.79668508 3.28994475"></polyline>
                    <path d="M8.37558011,4.0641989 L5.9080663,9.62066298 L7.60044199,9.62066298 L8.06596685,8.5079558 L10.5883978,8.5079558 L11.0535912,9.62066298 L12.7880663,9.62066298 L10.3308287,4.0641989 L8.37558011,4.0641989 Z M8.58762431,7.26099448 L9.32762431,5.4921547 L10.0670718,7.26099448 L8.58762431,7.26099448 L8.58762431,7.26099448 Z" id="Fill-6" fill="#016FD0"></path>
                    <polyline id="Fill-7" fill="#016FD0" points="12.7649724 9.61966851 12.7649724 4.06331492 15.1438674 4.07149171 16.3679558 7.48740331 17.6 4.06331492 19.8895028 4.06331492 19.8895028 9.61966851 18.4162431 9.63270718 18.4162431 5.8160221 17.0255249 9.61966851 15.6807735 9.61966851 14.2612155 5.80298343 14.2612155 9.61966851 12.7649724 9.61966851"></polyline>
                </g>
            </g>
        </g>
    </g>
</svg>