<?xml version="1.0" encoding="UTF-8"?>
<svg width="8px" height="14px" viewBox="0 0 8 14" version="1.1" xmlns="http://www.w3.org/2000/svg" xmlns:xlink="http://www.w3.org/1999/xlink">
    <title>5FCBF35A-B703-4934-8147-59747B96DFA2</title>
    <g id="Navigation-M" stroke="none" stroke-width="1" fill="none" fill-rule="evenodd" opacity="0.3">
        <g id="NavBar-Open-Countries-L2-M-Copy-4" transform="translate(-344.000000, -647.000000)" fill="#FFFFFF">
            <g id="Secondary" transform="translate(0.000000, 474.000000)">
                <g id="icon/arrow-(1)-copy" transform="translate(348.000000, 180.000000) rotate(-270.000000) translate(-348.000000, -180.000000) translate(341.000000, 176.000000)">
                    <path d="M6.29289322,0.292893219 C6.65337718,-0.0675907428 7.22060824,-0.0953202783 7.61289944,0.209704612 L7.70710678,0.292893219 L13.7071068,6.29289322 C14.0976311,6.68341751 14.0976311,7.31658249 13.7071068,7.70710678 C13.3466228,8.06759074 12.7793918,8.09532028 12.3871006,7.79029539 L12.2928932,7.70710678 L7,2.415 L1.70710678,7.70710678 C1.34662282,8.06759074 0.779391764,8.09532028 0.387100557,7.79029539 L0.292893219,7.70710678 C-0.0675907428,7.34662282 -0.0953202783,6.77939176 0.209704612,6.38710056 L0.292893219,6.29289322 L6.29289322,0.292893219 Z" id="Path-2-Copy"></path>
                </g>
            </g>
        </g>
    </g>
</svg>