<?xml version="1.0" encoding="UTF-8"?>
<svg width="8px" height="12px" viewBox="0 0 8 12" version="1.1" xmlns="http://www.w3.org/2000/svg" xmlns:xlink="http://www.w3.org/1999/xlink">
    <title>6C756D1A-695F-486F-824E-2C78D768BC88</title>
    <g id="Product-Comparison---D" stroke="none" stroke-width="1" fill="none" fill-rule="evenodd">
        <g id="Product-Comparison---4-product-table" transform="translate(-141.000000, -204.000000)" fill="#004593">
            <g id="Group-2" transform="translate(135.000000, 200.000000)">
                <g id="icon/arrow/left" transform="translate(6.000000, 4.000000)">
                    <path d="M3.41074435,2.91074435 C3.71114765,2.61034105 4.1838402,2.5872331 4.51074954,2.84142051 L4.58925565,2.91074435 L9.58925565,7.91074435 C9.91469256,8.23618126 9.91469256,8.76381874 9.58925565,9.08925565 C9.28885235,9.38965895 8.8161598,9.4127669 8.48925046,9.15857949 L8.41074435,9.08925565 L4,4.67916667 L-0.410744349,9.08925565 C-0.71114765,9.38965895 -1.1838402,9.4127669 -1.51074954,9.15857949 L-1.58925565,9.08925565 C-1.88965895,8.78885235 -1.9127669,8.3161598 -1.65857949,7.98925046 L-1.58925565,7.91074435 L3.41074435,2.91074435 Z" id="Path-2-Copy" transform="translate(4.000000, 6.000000) scale(-1, 1) rotate(90.000000) translate(-4.000000, -6.000000) "></path>
                </g>
            </g>
        </g>
    </g>
</svg>