<?xml version="1.0" encoding="UTF-8"?>
<svg width="64px" height="64px" viewBox="0 0 64 64" version="1.1" xmlns="http://www.w3.org/2000/svg" xmlns:xlink="http://www.w3.org/1999/xlink">
    <title>0D98678C-D838-4BD7-9B63-131E0B91EBC1</title>
    <g id="Mobile" stroke="none" stroke-width="1" fill="none" fill-rule="evenodd">
        <g id="Product-information-page---Instruments-L4-M_1" transform="translate(-144.000000, -2217.000000)" fill="#A3A3A3" fill-rule="nonzero">
            <g id="Group-2" transform="translate(21.000000, 2082.000000)">
                <g id="1518636-copy" transform="translate(123.000000, 135.000000)">
                    <path d="M48.7841584,7.05801264 L32.7445545,0.0886139628 C32.4718272,-0.0295379876 32.1618362,-0.0295379876 31.8891089,0.0886139628 L15.849505,7.05801264 C15.4600041,7.22675364 15.2079208,7.6084368 15.2079208,8.03028939 L15.2079208,24.6948583 C15.2137177,28.4399521 17.0267132,31.9555898 20.0839604,34.1501436 L31.1694653,42.0865118 C31.8541125,42.5784235 32.7795508,42.5784235 33.464198,42.0865118 L44.549703,34.151205 C47.6069502,31.9566512 49.4199456,28.4410135 49.4257426,24.6959197 L49.4257426,8.03028939 C49.4257426,7.6084368 49.1736592,7.22675364 48.7841584,7.05801264 Z M47.2871287,24.6959197 C47.2822309,27.7591315 45.7992446,30.634606 43.2986139,32.4295534 L32.3168317,40.291621 L21.3350495,32.4295534 C18.8344188,30.634606 17.3514325,27.7591315 17.3465347,24.6959197 L17.3465347,8.72446952 L32.3168317,2.21998048 L47.2871287,8.72446952 L47.2871287,24.6959197 Z" id="Shape"></path>
                    <path d="M31.8943894,5.15834488 L20.2772277,10.2946862 C19.8925356,10.4642346 19.6435644,10.8477439 19.6435644,11.2716149 L19.6435644,25.2269774 C19.6468235,27.6198696 20.7857177,29.8661742 22.7062706,31.2677244 L31.6990099,37.818266 C32.0679146,38.0869807 32.5657488,38.0869807 32.9346535,37.818266 L41.9273927,31.2677244 C43.8479457,29.8661742 44.9868399,27.6198696 44.990099,25.2269774 L44.990099,11.2716149 C44.990099,10.8477439 44.7411278,10.4642346 44.3564356,10.2946862 L32.7392739,5.15834488 C32.4699137,5.03962762 32.1637497,5.03962762 31.8943894,5.15834488 Z M42.8778878,11.9680499 L42.8778878,25.2269774 C42.8746542,26.9345142 42.061884,28.53722 40.6917492,29.5378353 L32.3168317,35.6383071 L23.9419142,29.5378353 C22.5717794,28.53722 21.7590092,26.9345142 21.7557756,25.2269774 L21.7557756,11.9680499 L32.3168317,7.29990911 L42.8778878,11.9680499 Z" id="Shape"></path>
                    <path d="M8.73706369,35.3228864 L6.45123121,29.9148963 C5.96513046,28.7999504 4.92850564,28.0322818 3.73184329,27.901064 C2.53518093,27.7698463 1.36028254,28.2950144 0.649720971,29.2787425 C-0.0608405955,30.2624708 -0.199114123,31.5553074 0.286986688,32.6702533 L4.42853894,41.8950816 C4.98727534,43.1438864 5.7645577,44.2800235 6.72282573,45.2485918 L13.2358103,51.8443279 C12.8690092,52.2379768 12.6641801,52.7583849 12.6630312,53.2995845 L12.6630312,61.8599169 C12.6630312,63.0418522 13.6093114,64 14.7766072,64 L26.4012754,64 C27.5685713,64 28.5148515,63.0418522 28.5148515,61.8599169 L28.5148515,53.2995845 C28.5148515,52.1176492 27.5685713,51.1595014 26.4012754,51.1595014 L26.4012754,49.168154 C26.4336553,46.6339454 25.6171082,44.1633891 24.0847961,42.1593818 C23.1864194,40.9629855 21.9620626,40.0587732 20.5625216,39.5581108 C18.3367551,38.6112246 16.2897934,37.281119 14.5124102,35.6267782 C12.8626017,34.2509556 10.5188288,34.1276292 8.73706369,35.3228864 Z M26.4012754,61.8599169 L14.7766072,61.8599169 L14.7766072,53.2995845 L26.4012754,53.2995845 L26.4012754,61.8599169 Z M22.43515,43.4958637 C23.6669553,45.1208778 24.319836,47.1199222 24.2876994,49.168154 L24.2876994,51.1595014 L15.5491193,51.1595014 L8.21712399,43.7355531 C7.43841205,42.9481918 6.80652874,42.0249108 6.35189313,41.0101572 L2.21034088,31.785329 C2.03359654,31.3916037 2.06649077,30.9339294 2.29767082,30.5702627 C2.52885089,30.206596 2.92665346,29.9865887 3.35378552,29.9865887 C3.85644309,29.9861778 4.31071908,30.2898781 4.50779804,30.7580891 L6.87183284,36.3404959 C7.49958782,37.8298897 8.40443361,39.1831101 9.53705223,40.3264007 L14.3644599,45.2154205 C14.6297924,45.4935849 15.0227098,45.6051431 15.392194,45.5072179 C15.7616782,45.4092925 16.0502288,45.1171231 16.1469413,44.743005 C16.2436537,44.368887 16.1334772,43.9710419 15.8587582,43.7023818 L11.0313505,38.8133619 C10.5459289,38.3230391 10.1094746,37.7854138 9.72833086,37.2082996 C10.7432026,36.4175612 12.1629918,36.4415286 13.1512673,37.2660818 C15.126766,39.101797 17.4100071,40.5657436 19.8935748,41.5890497 C20.9054699,41.961633 21.7885167,42.624138 22.43515,43.4958637 Z" id="Shape"></path>
                    <path d="M23.4455446,57.029703 L22.1782178,57.029703 C21.4782927,57.029703 20.9108911,57.4552541 20.9108911,57.980198 C20.9108911,58.5051419 21.4782927,58.9306931 22.1782178,58.9306931 L23.4455446,58.9306931 C24.1454697,58.9306931 24.7128713,58.5051419 24.7128713,57.980198 C24.7128713,57.4552541 24.1454697,57.029703 23.4455446,57.029703 Z" id="Shape"></path>
                    <path d="M59.4537436,41.9257459 L63.6840108,32.7137145 C64.2041472,31.5965499 64.0754682,30.2885658 63.3473587,29.2917428 C62.6192492,28.2949197 61.404819,27.7641118 60.1701446,27.9030332 C58.9354701,28.0419547 57.8723548,28.8290246 57.3888032,29.9621797 L55.0594037,35.3423651 C53.2331507,34.1546391 50.8379847,34.2846548 49.1538686,35.6629323 C47.3384127,37.3149782 45.2476036,38.6432387 42.9741595,39.5888113 C41.5446394,40.0887792 40.294056,40.9917372 39.3764355,42.1864738 C37.8106051,44.1885649 36.9765275,46.656941 37.0103355,49.188729 L37.0103355,51.1773139 C35.8180354,51.1773139 34.8514851,52.1341326 34.8514851,53.3144283 L34.8514851,61.8628857 C34.8514851,63.0431813 35.8180354,64 37.0103355,64 L48.8840123,64 C50.0763125,64 51.0428627,63.0431813 51.0428627,61.8628857 L51.0428627,53.3144283 C51.0416891,52.7739795 50.8324724,52.2542932 50.4578142,51.8611905 L57.1103115,45.2746041 C58.0891063,44.3073793 58.8830386,43.1728184 59.4537436,41.9257459 Z M48.8840123,61.8628857 L37.0103355,61.8628857 L37.0103355,53.3144283 L48.8840123,53.3144283 L48.8840123,61.8628857 Z M48.0949525,51.1773139 L39.1691858,51.1773139 L39.1691858,49.188729 C39.1366053,47.1437031 39.8034582,45.1478472 41.0614181,43.525376 C41.7204357,42.6554253 42.6203925,41.9935641 43.6520385,41.6201385 C46.189284,40.5985482 48.521839,39.1366076 50.5398505,37.3031675 C51.5481932,36.4734971 53.0024718,36.4455473 54.0425852,37.2358484 C53.6521395,37.8164107 53.2041149,38.3569319 52.7051774,38.8493698 L47.7743633,43.7316075 C47.3652911,44.1508868 47.3711414,44.8173522 47.7875122,45.2295308 C48.2038829,45.6417094 48.8771268,45.6475008 49.3006704,45.2425474 L54.2314846,40.3603096 C55.3883647,39.218605 56.3125929,37.8672619 56.9537949,36.3799341 L59.368469,30.8042028 C59.5703294,30.3372492 60.0341212,30.0345312 60.5472013,30.0348414 C60.9834828,30.0348414 61.3898066,30.2545433 61.6259387,30.6177055 C61.8620708,30.9808678 61.8956696,31.4379071 61.7151393,31.8310862 L57.4848721,41.0431177 C57.0204979,42.0564635 56.3750791,42.9784637 55.5796867,43.7647328 L48.0949525,51.1773139 Z" id="Shape"></path>
                    <path d="M41.8217822,57.029703 L40.5544554,57.029703 C39.8545303,57.029703 39.2871287,57.4552541 39.2871287,57.980198 C39.2871287,58.5051419 39.8545303,58.9306931 40.5544554,58.9306931 L41.8217822,58.9306931 C42.5217073,58.9306931 43.0891089,58.5051419 43.0891089,57.980198 C43.0891089,57.4552541 42.5217073,57.029703 41.8217822,57.029703 Z" id="Shape"></path>
                    <path d="M26.4509602,22.6670926 C25.9710179,22.3071345 25.2901451,22.4044023 24.9301883,22.8843466 C24.5702316,23.3642908 24.6674991,24.0451662 25.1474414,24.4051244 L29.492504,27.6639341 C29.6805325,27.804956 29.9092279,27.8811881 30.1442634,27.8811881 C30.2057623,27.8809836 30.2671481,27.8758983 30.3278423,27.8659803 C30.6220358,27.8154989 30.8824935,27.6461812 31.0480364,27.397798 L39.7381616,14.3625592 C39.9535489,14.0396709 39.9803169,13.6264016 39.8083822,13.2784259 C39.6364476,12.9304501 39.2919312,12.7006336 38.9046092,12.6755461 C38.5172872,12.6504586 38.1460029,12.8339114 37.9306155,13.1567996 L29.8770421,25.2372072 L26.4509602,22.6670926 Z" id="Shape"></path>
                </g>
            </g>
        </g>
    </g>
</svg>