<?xml version="1.0" encoding="UTF-8"?>
<svg width="27px" height="24px" viewBox="0 0 27 24" version="1.1" xmlns="http://www.w3.org/2000/svg" xmlns:xlink="http://www.w3.org/1999/xlink">
    <title>icon/Billing icon</title>
    <g id="icon/Billing-icon" stroke="none" stroke-width="1" fill="none" fill-rule="evenodd">
        <g id="Billing-icon" transform="translate(4.000000, 2.000000)" fill="#424242" fill-rule="nonzero">
            <path d="M12.749706,0.432950192 L3.78076225,0.432950192 C3.5820125,0.432950192 3.42075418,0.611915306 3.41939907,0.810529542 L3.33398185,13.487195 L0.777382537,13.487195 C0.577819722,13.487195 0.406533575,13.6317403 0.406533575,13.8314838 L0.406533575,15.4402275 C0.411063175,16.9547003 1.60382185,18.198847 3.11675741,18.2672168 L3.11675741,18.2752571 L14.2738455,18.2752571 L14.2738455,18.2646421 C14.3641863,18.2679847 14.4014519,18.2752571 14.4585021,18.2752571 L14.4664069,18.2752571 C16.032194,18.2727155 17.3001895,17.0027192 17.3002621,15.43693 L17.3002621,7.30336761 C17.3906029,7.30833636 17.2068498,0.432950192 17.3002621,0.432950192 L12.749706,0.432950192 Z M3.25421093,17.5525308 C2.0829003,17.5509527 1.1345505,16.6056099 1.12925993,15.4365687 L1.12925993,14.2099214 L11.6087921,14.2099214 L11.6087921,15.4314192 C11.6093204,16.1856208 11.9104363,16.9085069 12.4454834,17.4400565 C12.4834265,17.4780448 12.5305844,17.5073604 12.570244,17.5525308 L3.25421093,17.5525308 Z M16.5775358,1.15567655 L16.5775358,15.4365687 C16.5775358,16.6034968 15.6329262,17.5501889 14.4660004,17.5525308 L14.4590442,17.5525308 C13.2875752,17.5503856 12.3374003,16.6032367 12.3315185,15.4317806 L12.3315185,13.8314838 C12.3345661,13.7391455 12.2991718,13.6496805 12.2337747,13.5844204 C12.1683777,13.5191604 12.0788387,13.4839537 11.986507,13.487195 L4.05670821,13.487195 L4.13968623,1.15567655 L16.5775358,1.15567655 Z" id="Shape" stroke="#424242" stroke-width="0.3"></path>
            <path d="M7.1535003,6.63213551 C6.51569429,6.63213551 5.99682194,7.13452067 5.99682194,7.75204517 C5.99682194,8.36956967 6.51569429,8.872 7.1535003,8.872 C7.79130631,8.872 8.31022384,8.36961484 8.31022384,7.75204517 C8.31022384,7.1344755 7.79130631,6.63213551 7.1535003,6.63213551 Z M7.1535003,8.14927364 C6.9140972,8.14927364 6.7195483,7.97107643 6.7195483,7.75204517 C6.7195483,7.53301391 6.91418754,7.35486187 7.1535003,7.35486187 C7.39281307,7.35486187 7.58749748,7.53305908 7.58749748,7.75204517 C7.58749748,7.97103126 7.39281307,8.14927364 7.1535003,8.14927364 Z" id="Shape"></path>
            <path d="M9.11163702,7.75055455 C9.11163702,7.95012992 9.27342483,8.11191773 9.4730002,8.11191773 L14.2907844,8.11191773 C14.4903598,8.11191773 14.6521476,7.95012992 14.6521476,7.75055455 C14.6521476,7.55097917 14.4903598,7.38919137 14.2907844,7.38919137 L9.4730002,7.38919137 C9.27342483,7.38919137 9.11163702,7.55097917 9.11163702,7.75055455 Z" id="Path" stroke="#424242" stroke-width="0.3"></path>
            <path d="M9.11163702,4.75055455 C9.11163702,4.95012992 9.27342483,5.11191773 9.4730002,5.11191773 L14.2907844,5.11191773 C14.4903598,5.11191773 14.6521476,4.95012992 14.6521476,4.75055455 C14.6521476,4.55097917 14.4903598,4.38919137 14.2907844,4.38919137 L9.4730002,4.38919137 C9.27342483,4.38919137 9.11163702,4.55097917 9.11163702,4.75055455 Z" id="Path" stroke="#424242" stroke-width="0.3"></path>
            <path d="M7.1535003,3.49098609 C6.51569429,3.49098609 5.99682194,3.99337124 5.99682194,4.61094092 C5.99682194,5.22851059 6.51569429,5.73085057 7.1535003,5.73085057 C7.79130631,5.73085057 8.31022384,5.22846542 8.31022384,4.61094092 C8.31022384,3.99341641 7.79130631,3.49098609 7.1535003,3.49098609 Z M7.1535003,5.00812422 C6.9140972,5.00812422 6.7195483,4.829927 6.7195483,4.61094092 C6.7195483,4.39195483 6.91418754,4.21371244 7.1535003,4.21371244 C7.39281307,4.21371244 7.58749748,4.39190966 7.58749748,4.61094092 C7.58749748,4.82997217 7.39281307,5.00825973 7.1535003,5.00825973 L7.1535003,5.00812422 Z" id="Shape"></path>
            <path d="M7.1535003,9.77314943 C6.51569429,9.77314943 5.99682194,10.2755346 5.99682194,10.8930591 C5.99682194,11.5105836 6.51569429,12.0130139 7.1535003,12.0130139 C7.79130631,12.0130139 8.31022384,11.5106288 8.31022384,10.8930591 C8.31022384,10.2754894 7.79130631,9.77314943 7.1535003,9.77314943 Z M7.1535003,11.2902876 C6.9140972,11.2902876 6.7195483,11.1120903 6.7195483,10.8930591 C6.7195483,10.6740278 6.91418754,10.4958758 7.1535003,10.4958758 C7.39281307,10.4958758 7.58749748,10.674073 7.58749748,10.8930591 C7.58749748,11.1120452 7.39281307,11.2902876 7.1535003,11.2902876 Z" id="Shape"></path>
            <path d="M14.2907844,10.5511192 L9.4730002,10.5511192 C9.27342483,10.5511192 9.11163702,10.712907 9.11163702,10.9124824 C9.11163702,11.1120577 9.27342483,11.2738455 9.4730002,11.2738455 L14.2907844,11.2738455 C14.4903598,11.2738455 14.6521476,11.1120577 14.6521476,10.9124824 C14.6521476,10.712907 14.4903598,10.5511192 14.2907844,10.5511192 Z" id="Path" stroke="#424242" stroke-width="0.3"></path>
        </g>
    </g>
</svg>