<?xml version="1.0" encoding="UTF-8"?>
<svg width="23px" height="23px" viewBox="0 0 23 23" version="1.1" xmlns="http://www.w3.org/2000/svg" xmlns:xlink="http://www.w3.org/1999/xlink">
    <title>00F52183-EE9E-4B3A-84B9-E796658067E9</title>
    <g id="Navigation-M" stroke="none" stroke-width="1" fill="none" fill-rule="evenodd">
        <g id="NavBar-Open-Account" transform="translate(-25.000000, -833.000000)" fill="#FFFFFF">
            <g id="Secondary" transform="translate(0.000000, 474.000000)">
                <g id="L3" transform="translate(0.000000, 69.000000)">
                    <g id="header/mobile/nav-item/L3-Copy-6" transform="translate(25.000000, 290.000000)">
                        <g id="icon/account/dashboard">
                            <path d="M19.6308594,0 C21.4886035,0 23,1.51139648 23,3.36914062 L23,3.36914062 L23,4.71679688 C23,5.08892969 22.6983047,5.390625 22.3261719,5.390625 L22.3261719,5.390625 L20.3046875,5.390625 L20.3046875,20.3046875 C20.3046875,21.7908828 19.0955703,23 17.609375,23 L17.609375,23 L2.6953125,23 C1.20911719,23 0,21.7908828 0,20.3046875 L0,20.3046875 L0,19.6308594 C0,19.2587266 0.301695312,18.9570312 0.673828125,18.9570312 L0.673828125,18.9570312 L1.34765625,18.9570312 L1.34765625,2.02148438 C1.34765625,0.906837891 2.25449414,0 3.36914062,0 L3.36914062,0 Z M14.9140625,20.3046875 L1.34765625,20.3046875 C1.34765625,21.0477852 1.95221484,21.6523438 2.6953125,21.6523438 L2.6953125,21.6523438 L15.2757734,21.6523438 C15.0458633,21.2556836 14.9140625,20.7952344 14.9140625,20.3046875 L14.9140625,20.3046875 Z M18.9570312,1.34765625 L3.36914062,1.34765625 C2.9975918,1.34765625 2.6953125,1.64993555 2.6953125,2.02148438 L2.6953125,2.02148438 L2.6953125,18.9570312 L15.5878906,18.9570312 C15.9600234,18.9570312 16.2617188,19.2587266 16.2617188,19.6308594 L16.2617188,19.6308594 L16.2617188,20.3046875 C16.2617188,21.0477852 16.8662773,21.6523438 17.609375,21.6523438 C18.3524727,21.6523438 18.9570312,21.0477852 18.9570312,20.3046875 L18.9570312,20.3046875 L18.9570312,1.34765625 Z M13.5664062,3.74076705 C15.7956992,3.74076705 17.609375,5.55444283 17.609375,7.7837358 C17.609375,8.97843306 17.0883262,10.0535932 16.2617188,10.7943999 L16.2617188,10.7943999 L16.2617188,15.2856889 C16.2617188,15.5341967 16.1249316,15.7625346 15.9058477,15.8797807 C15.8062109,15.933103 15.6969609,15.959517 15.5879355,15.959517 C15.4572129,15.959517 15.3268945,15.9215131 15.2141406,15.8463588 L15.2141406,15.8463588 L13.5664062,14.7478842 L11.9186719,15.8463588 C11.7119414,15.9841792 11.4460488,15.9970268 11.2269648,15.8797807 C11.0078809,15.7625346 10.8710938,15.5341967 10.8710938,15.2856889 L10.8710938,15.2856889 L10.8710938,10.7943999 C10.0444863,10.0535932 9.5234375,8.97843306 9.5234375,7.7837358 C9.5234375,5.55444283 11.3371133,3.74076705 13.5664062,3.74076705 Z M8.84960938,13.2642045 C9.22174219,13.2642045 9.5234375,13.5658999 9.5234375,13.9380327 C9.5234375,14.3101655 9.22174219,14.6118608 8.84960938,14.6118608 L8.84960938,14.6118608 L4.71679688,14.6118608 C4.34466406,14.6118608 4.04296875,14.3101655 4.04296875,13.9380327 C4.04296875,13.5658999 4.34466406,13.2642045 4.71679688,13.2642045 L4.71679688,13.2642045 Z M14.9140625,11.5954467 C14.4923359,11.7449917 14.0387598,11.8267045 13.5664062,11.8267045 C13.0940527,11.8267045 12.6404766,11.7449917 12.21875,11.5954467 L12.21875,11.5954467 L12.21875,14.0266186 L13.1926113,13.3773627 C13.4189727,13.2265151 13.7137949,13.2265151 13.9401562,13.3773627 L13.9401562,13.3773627 L14.9140625,14.0266186 Z M7.41210938,9.13139205 C7.78424219,9.13139205 8.0859375,9.43308736 8.0859375,9.80522017 C8.0859375,10.177353 7.78424219,10.4790483 7.41210938,10.4790483 L7.41210938,10.4790483 L4.71679688,10.4790483 C4.34466406,10.4790483 4.04296875,10.177353 4.04296875,9.80522017 C4.04296875,9.43308736 4.34466406,9.13139205 4.71679688,9.13139205 L4.71679688,9.13139205 Z M13.5664062,5.0884233 C12.0802109,5.0884233 10.8710938,6.29754048 10.8710938,7.7837358 C10.8710938,9.26993111 12.0802109,10.4790483 13.5664062,10.4790483 C15.0526016,10.4790483 16.2617188,9.26993111 16.2617188,7.7837358 C16.2617188,6.29754048 15.0526016,5.0884233 13.5664062,5.0884233 Z M7.41210938,5.0884233 C7.78424219,5.0884233 8.0859375,5.39011861 8.0859375,5.76225142 C8.0859375,6.13438423 7.78424219,6.43607955 7.41210938,6.43607955 L7.41210938,6.43607955 L4.71679688,6.43607955 C4.34466406,6.43607955 4.04296875,6.13438423 4.04296875,5.76225142 C4.04296875,5.39011861 4.34466406,5.0884233 4.71679688,5.0884233 L4.71679688,5.0884233 Z M20.3046875,1.46310547 L20.3046875,4.04296875 L21.6523438,4.04296875 L21.6523438,3.36914062 C21.6523438,2.49064844 21.0890684,1.7412168 20.3046875,1.46310547 L20.3046875,1.46310547 Z" id="Combined-Shape"></path>
                        </g>
                    </g>
                </g>
            </g>
        </g>
    </g>
</svg>