<?xml version="1.0" encoding="UTF-8"?>
<svg width="180px" height="180px" viewBox="0 0 180 180" version="1.1" xmlns="http://www.w3.org/2000/svg" xmlns:xlink="http://www.w3.org/1999/xlink">
    <title>icon/circle/purchasing-account</title>
    <g id="icon/circle/purchasing-account" stroke="none" stroke-width="1" fill="none" fill-rule="evenodd">
        <g id="Group-5" transform="translate(2.000000, 0.000000)">
            <circle id="Oval" fill="#E7EBF1" cx="90" cy="90" r="90"></circle>
            <g id="Group" transform="translate(39.000000, 46.000000)">
                <rect id="Rectangle" stroke="#999A9C" stroke-width="2" fill="#E6E7E9" x="6" y="5.8575355" width="93.9917545" height="81.1424645" rx="6"></rect>
                <rect id="Rectangle" stroke="#999A9C" stroke-width="2" fill="#FFFFFF" x="1" y="1" width="93.9917545" height="81.1424645" rx="6"></rect>
                <circle id="Oval" fill="#979797" cx="20.548328" cy="7.55840586" r="2.26752176"></circle>
                <circle id="Oval-Copy" fill="#979797" cx="13.7457627" cy="7.55840586" r="2.26752176"></circle>
                <g id="Group-3" transform="translate(8.000000, 21.000000)" stroke="#999A9C" stroke-width="2">
                    <rect id="Rectangle" fill="#E6E7E9" x="1" y="1" width="14" height="14" rx="4"></rect>
                    <g id="Group-2" transform="translate(19.000000, 3.000000)" stroke-linecap="round">
                        <line x1="9.50601447e-15" y1="5.37792029" x2="25" y2="5.37792029" id="Line-4-Copy"></line>
                        <line x1="9.50601447e-15" y1="9.37792029" x2="15.72721" y2="9.37792029" id="Line-4-Copy"></line>
                        <line x1="9.50601447e-15" y1="1" x2="19.6709425" y2="1" id="Line-4-Copy"></line>
                    </g>
                </g>
                <g id="Group-3-Copy" transform="translate(8.000000, 41.000000)" stroke="#999A9C" stroke-width="2">
                    <rect id="Rectangle" fill="#E6E7E9" x="1" y="1" width="14" height="14" rx="4"></rect>
                    <g id="Group-2" transform="translate(19.000000, 3.000000)" stroke-linecap="round">
                        <line x1="9.88625505e-15" y1="5.37792029" x2="15" y2="5.37792029" id="Line-4-Copy"></line>
                        <line x1="9.88625505e-15" y1="9.37792029" x2="20.356298" y2="9.37792029" id="Line-4-Copy"></line>
                        <line x1="9.88625505e-15" y1="1" x2="25" y2="1" id="Line-4-Copy"></line>
                    </g>
                </g>
                <g id="Group-3-Copy-2" transform="translate(8.000000, 61.000000)" stroke="#999A9C" stroke-width="2">
                    <rect id="Rectangle" fill="#E6E7E9" x="1" y="1" width="14" height="14" rx="4"></rect>
                    <g id="Group-2" transform="translate(19.000000, 3.000000)" stroke-linecap="round">
                        <line x1="1.02664956e-14" y1="5.37792029" x2="27" y2="5.37792029" id="Line-4-Copy"></line>
                        <line x1="1.02664956e-14" y1="9.37792029" x2="16.9853868" y2="9.37792029" id="Line-4-Copy"></line>
                        <line x1="1.02664956e-14" y1="1" x2="21.2446179" y2="1" id="Line-4-Copy"></line>
                    </g>
                </g>
                <circle id="Oval-Copy-2" fill="#979797" cx="6.94319743" cy="7.55840586" r="2.26752176"></circle>
                <line x1="1.26752176" y1="14.3609711" x2="93.4800733" y2="14.3609711" id="Line" stroke="#999A9C" stroke-width="2" stroke-linecap="square"></line>
            </g>
        </g>
        <rect id="Rectangle-Copy-2" stroke="#999A9C" stroke-width="2" fill="#E6E7E9" x="103" y="68" width="26" height="40" rx="4"></rect>
        <line x1="108" y1="79.5" x2="124" y2="79.5" id="Line-4-Copy" stroke="#999A9C" stroke-width="2" stroke-linecap="round"></line>
        <line x1="108" y1="75.5" x2="116" y2="75.5" id="Line-4-Copy" stroke="#999A9C" stroke-width="2" stroke-linecap="round"></line>
        <line x1="108" y1="83.5" x2="118" y2="83.5" id="Line-4-Copy" stroke="#999A9C" stroke-width="2" stroke-linecap="round"></line>
    </g>
</svg>