<?xml version="1.0" encoding="UTF-8"?>
<svg width="20px" height="12px" viewBox="0 0 20 12" version="1.1" xmlns="http://www.w3.org/2000/svg" xmlns:xlink="http://www.w3.org/1999/xlink">
    <title>9D8C5D26-7EAF-4BC6-8A4F-A2BD892281AC</title>
    <g id="Instrument-Overview---D" stroke="none" stroke-width="1" fill="none" fill-rule="evenodd">
        <g id="Instrument-Overview" transform="translate(-944.000000, -5834.000000)" fill="#004593">
            <g id="Training-Resources" transform="translate(135.000000, 5685.000000)">
                <g id="Group-27" transform="translate(0.000000, 139.000000)">
                    <g id="Tech-Specs" transform="translate(2.000000, 0.000000)">
                        <g id="icon/arrow-(1)-copy" transform="translate(807.000000, 10.000000)">
                            <path d="M9.05719096,1.05719096 C9.53783624,0.576545676 10.2941443,0.539572962 10.8171993,0.946272816 L10.942809,1.05719096 L18.942809,9.05719096 C19.4635081,9.57789001 19.4635081,10.42211 18.942809,10.942809 C18.4621638,11.4234543 17.7058557,11.460427 17.1828007,11.0537272 L17.057191,10.942809 L10,3.88666667 L2.94280904,10.942809 C2.46216376,11.4234543 1.70585568,11.460427 1.18280074,11.0537272 L1.05719096,10.942809 C0.576545676,10.4621638 0.539572962,9.70585568 0.946272816,9.18280074 L1.05719096,9.05719096 L9.05719096,1.05719096 Z" id="Path-2-Copy" transform="translate(10.000000, 6.000000) scale(1, -1) translate(-10.000000, -6.000000) "></path>
                        </g>
                    </g>
                </g>
            </g>
        </g>
    </g>
</svg>