<svg version="1.1" xmlns="http://www.w3.org/2000/svg" xmlns:xlink="http://www.w3.org/1999/xlink" width="18px" height="25px" viewBox="0,0,184.3125,256"><g fill="none" fill-rule="evenodd" stroke="#004593" stroke-width="1.7" stroke-linecap="round" stroke-linejoin="none" stroke-miterlimit="10" stroke-dasharray="" stroke-dashoffset="0" font-family="none" font-weight="none" font-size="none" text-anchor="none" style="mix-blend-mode: normal"><g transform="translate(0.97183,-2.40867) scale(10.24,10.24)"><g id="Page-1"><g transform="translate(-1097,-257)" id="Laser-and-peak-emission-max"><g transform="translate(1098.2963,258.55556)" id="Export-Icon"><path d="M7.58519,2.21118v9.36296" id="d" stroke-linejoin="miter"></path><path d="M11.97037,6.95192h2.96296c0.23704,0 0.35556,0.23704 0.23704,0.35556l-0.11852,13.98519c0,0.59259 -0.35556,1.06667 -0.94815,1.06667h-13.15556c-0.47407,0 -0.94815,-0.47407 -0.94815,-1.06667v-13.86667c0,-0.23704 0.11852,-0.35556 0.23704,-0.35556h3.08148" id="Path" stroke-linejoin="round"></path><g transform="translate(4.38519,0)" id="e" stroke-linejoin="round"><g id="g"><path d="M6.51852,3.04081v0l-2.96296,-2.84444c-0.23704,-0.23704 -0.47407,-0.23704 -0.71111,-0.11852v0l-2.84444,2.96296" id="h"></path></g></g></g></g></g></g></g></svg>