<?xml version="1.0" encoding="UTF-8"?>
<svg width="26px" height="27px" viewBox="0 0 26 27" version="1.1" xmlns="http://www.w3.org/2000/svg" xmlns:xlink="http://www.w3.org/1999/xlink">
    <title>0AEA6D5E-5D73-4A75-AE80-3B8A8731CE66</title>
    <g id="Desktop" stroke="none" stroke-width="1" fill="none" fill-rule="evenodd">
        <g id="My-Cart---price-confirmation-pdf" transform="translate(-1279.000000, -16.000000)" fill="#FFFFFF">
            <g id="icon/download" transform="translate(1279.000000, 16.000000)">
                <path d="M12.9843943,0.666704331 C12.9821338,0.666704331 12.9787427,0.667880529 12.9753516,0.667880529 C12.4768584,0.67805353 12.0801067,1.08948885 12.0891639,1.5879821 L12.0891639,17.500875 L8.170261,13.8172278 C7.99618913,13.6465473 7.76106653,13.5527286 7.51692724,13.5572486 C7.14731824,13.5674216 6.82065137,13.8014023 6.69289565,14.1484262 C6.56516598,14.4954356 6.66124754,14.8854161 6.93591798,15.132941 L12.3682125,20.2532974 C12.7163504,20.5822213 13.2611714,20.5822213 13.6093383,20.2532974 L19.0508925,15.132941 C19.4148589,14.7904457 19.4318158,14.2173535 19.0881949,13.8545157 C18.7456996,13.4905494 18.1726074,13.474721 17.8097696,13.8172134 L13.8975222,17.49652 L13.8975222,1.58796763 C13.9020435,1.34381388 13.8082263,1.10755985 13.6364144,0.934633881 C13.463471,0.760562019 13.2283484,0.664483356 12.9842092,0.666704331 L12.9843943,0.666704331 Z M1.22768561,16.1003993 C1.19716603,16.1015807 1.16551792,16.1038416 1.13499834,16.1083629 C0.672676018,16.1603594 0.325666613,16.5559854 0.33346211,17.0216644 L0.33346211,25.1002239 L0.33346211,25.0990936 C0.335855818,25.5964583 0.738246674,25.9988526 1.23448286,25.9999906 L24.7455854,25.9999906 C25.2452072,26.0022417 25.6509871,25.5987154 25.6532442,25.0990936 L25.6532442,17.0205341 L25.6532442,17.0216644 C25.6532442,16.520914 25.2485928,16.1162626 24.7478425,16.1162626 C24.2482207,16.1162626 23.8424407,16.520914 23.8424407,17.0216644 L23.8424407,24.1924783 L2.1421995,24.191348 L2.1421995,17.0205341 C2.14672087,16.7763803 2.05177218,16.5412838 1.87882885,16.3672003 C1.70701695,16.194257 1.47192039,16.0981783 1.22775217,16.1003993 L1.22768561,16.1003993 Z" id="Shape"></path>
            </g>
        </g>
    </g>
</svg>