<?xml version="1.0" encoding="UTF-8"?>
<svg width="19px" height="19px" viewBox="0 0 19 19" version="1.1" xmlns="http://www.w3.org/2000/svg" xmlns:xlink="http://www.w3.org/1999/xlink">
    <title>FF6413DB-A1C4-48DF-9F6F-823BE50F1E05</title>
    <g id="Page-1" stroke="none" stroke-width="1" fill="none" fill-rule="evenodd">
        <g id="FACSelect-Fixation-dropdown" transform="translate(-774.000000, -429.000000)" fill="#004593" fill-rule="nonzero">
            <g id="Mini-Cart" transform="translate(750.000000, 384.000000)">
                <g id="noun_External-Link_1247020" transform="translate(24.000000, 45.000000)">
                    <path d="M10.522,9.081 C10.7009608,9.08084245 10.8725344,9.00962324 10.999,8.883 L17.353,2.529 L17.353,5.814 C17.353,6.18679221 17.6552078,6.489 18.028,6.489 C18.4007922,6.489 18.703,6.18679221 18.703,5.814 L18.703,0.9 C18.703,0.527207794 18.4007922,0.225 18.028,0.225 L13.114,0.225 C12.7412078,0.225 12.439,0.527207794 12.439,0.9 C12.439,1.27279221 12.7412078,1.575 13.114,1.575 L16.399,1.575 L10,7.929 C9.80720173,8.12203814 9.74956762,8.41215787 9.85394172,8.66423116 C9.95831582,8.91630445 10.2041725,9.08076003 10.477,9.081 L10.522,9.081 Z" id="Path"></path>
                    <path d="M17.1,10.729 C16.7272078,10.729 16.425,11.0312078 16.425,11.404 L16.425,16.984 C16.425,17.2275576 16.2275576,17.425 15.984,17.425 L2.016,17.425 C1.77244243,17.425 1.575,17.2275576 1.575,16.984 L1.575,3.016 C1.575,2.77244243 1.77244243,2.575 2.016,2.575 L7.299,2.575 C7.6717922,2.57499999 7.97399999,2.2727922 7.97399999,1.9 C7.97399999,1.5272078 7.6717922,1.225 7.299,1.225 L2.016,1.225 C1.02188745,1.225 0.216,2.03088745 0.216,3.025 L0.216,16.984 C0.216,17.9781125 1.02188745,18.784 2.016,18.784 L15.984,18.784 C16.9781125,18.784 17.784,17.9781125 17.784,16.984 L17.784,11.404 C17.784,11.2234086 17.7116661,11.0503415 17.5831258,10.9234925 C17.4545855,10.7966436 17.2805754,10.7265921 17.1,10.729 Z" id="Path"></path>
                </g>
            </g>
        </g>
    </g>
</svg>