<?xml version="1.0" encoding="UTF-8"?>
<svg width="10px" height="19px" viewBox="0 0 10 19" version="1.1" xmlns="http://www.w3.org/2000/svg" xmlns:xlink="http://www.w3.org/1999/xlink">
    <title>755A188E-6DB2-403E-B6E9-8D8F23E75D4F</title>
    <g id="Page-1" stroke="none" stroke-width="1" fill="none" fill-rule="evenodd">
        <g id="Iconography" transform="translate(-1026.000000, -733.000000)" fill="#FFFFFF">
            <g id="Group-10" transform="translate(1007.000000, 316.000000)">
                <g id="Group-5" transform="translate(0.000000, 405.900000)">
                    <g id="icon/Social/facebook" transform="translate(19.000000, 12.000000)">
                        <path d="M6.07031094,18 L6.07031094,9.79687698 L8.83593962,9.79687698 L9.23437585,6.58593962 L6.07031094,6.58593962 L6.07031094,4.54687698 C6.07031094,4.07812075 6.1679683,3.69921962 6.36328302,3.41015547 C6.55859321,3.12109132 6.98437132,2.97656151 7.64062642,2.97656151 L9.32812528,2.97656151 L9.32812528,0.117187925 C8.92187321,0.0859381132 8.51172226,0.0585916981 8.09765434,0.0351577358 C7.68359094,0.0117192453 7.27344,0 6.86718792,0 C5.6484317,0 4.65625358,0.363278491 3.89062506,1.08984453 C3.12499608,1.81641057 2.74218747,2.86718038 2.74218747,4.24218566 L2.74218747,6.58593962 L0,6.58593962 L0,9.79687698 L2.74218747,9.79687698 L2.74218747,18 L6.07031094,18 Z" id="Fill-1"></path>
                    </g>
                </g>
            </g>
        </g>
    </g>
</svg>