<?xml version="1.0" encoding="UTF-8"?>
<svg width="27px" height="24px" viewBox="0 0 27 24" version="1.1" xmlns="http://www.w3.org/2000/svg" xmlns:xlink="http://www.w3.org/1999/xlink">
    <title>icon/Favorite - unfilled</title>
    <g id="icon/Favorite---unfilled" stroke="none" stroke-width="1" fill="none" fill-rule="evenodd">
        <path d="M12.9998789,19.6552012 C13.132468,19.787938 13.3123862,19.8625211 13.5,19.8625211 C13.6876138,19.8625211 13.867532,19.787938 14.0001211,19.6552012 L20.6041943,13.051128 C21.8033587,11.8643463 22.2754788,10.126444 21.8416343,8.49603758 C21.4077898,6.86563118 20.1343688,5.59221024 18.5039624,5.15836574 C16.873556,4.72452124 15.1356537,5.19664134 13.948872,6.39580569 L13.5,6.84467766 L13.051128,6.39580569 C11.8643463,5.19664134 10.126444,4.72452124 8.49603758,5.15836574 C6.86563118,5.59221024 5.59221024,6.86563118 5.15836574,8.49603758 C4.72452124,10.126444 5.19664134,11.8643463 6.39580569,13.051128 L12.9998789,19.6552012 Z M9.72346685,6.43114994 C10.5969876,6.42912207 11.4350331,6.7765578 12.0508857,7.39604797 L12.9998789,8.34504109 C13.132468,8.47777787 13.3123862,8.55236103 13.5,8.55236103 C13.6876138,8.55236103 13.867532,8.47777787 14.0001211,8.34504109 L14.9491143,7.39604797 C15.7740473,6.53275497 17.00174,6.18378408 18.1574247,6.48408768 C19.3131094,6.78439128 20.2156087,7.68689058 20.5159123,8.84257528 C20.8162159,9.99825999 20.467245,11.2259527 19.603952,12.0508857 L13.5,18.1548378 L7.39604797,12.0508857 C6.4549586,11.1093108 6.17351683,9.69365108 6.6828964,8.46371408 C7.19227597,7.23377707 8.39222219,6.4316356 9.72346685,6.43114994 Z" id="Shape" fill="#004593" fill-rule="nonzero"></path>
    </g>
</svg>