<?xml version="1.0" encoding="UTF-8"?>
<svg width="18px" height="24px" viewBox="0 0 18 24" version="1.1" xmlns="http://www.w3.org/2000/svg" xmlns:xlink="http://www.w3.org/1999/xlink">
    <title>0FFF20C3-AEC8-4658-A425-27ABF2985BF2</title>
    <g id="SignUp---D" stroke="none" stroke-width="1" fill="none" fill-rule="evenodd">
        <g id="SignUp-08a-No-Existing-Account--Yes-Tax-Exempt--EU" transform="translate(-151.000000, -920.000000)" fill="#616161" fill-rule="nonzero">
            <g id="Files" transform="translate(136.000000, 549.000000)">
                <g id="Group-12" transform="translate(15.000000, 366.000000)">
                    <g id="Group-10" transform="translate(0.000000, 5.000000)">
                        <g id="1086563">
                            <path d="M0.00511695906,0.485745591 L0.00511695906,23.5562865 C0.00511695906,23.8013523 0.203764632,24 0.448830409,24 L17.3081141,24 C17.5529971,24 17.7516447,23.8013523 17.7516447,23.5562865 L17.7516447,4.92251462 C17.7516447,4.91264618 17.7468933,4.90423977 17.7459795,4.89455411 C17.7437866,4.85562863 17.7361111,4.81725146 17.7233187,4.78051902 C17.7183845,4.76626461 17.7149123,4.7525585 17.7086989,4.73866957 C17.6871345,4.69042395 17.6571637,4.64638157 17.619883,4.60873539 L13.1832968,0.172149146 C13.1456506,0.134685661 13.1014255,0.104714901 13.0528143,0.0833333333 C13.0394737,0.077668117 13.0259503,0.0729166784 13.0120614,0.0687134503 C12.9749635,0.0559210292 12.9364035,0.048245614 12.8971126,0.0456871111 C12.8896199,0.0469663626 12.880848,0.042214924 12.8715278,0.042214924 L0.448830409,0.042214924 C0.203764632,0.042214924 0.00511695906,0.240679813 0.00511695906,0.485745591 Z M16.2370248,4.47880117 L13.3150585,4.47880117 L13.3150585,1.55683481 L16.2370248,4.47880117 Z M0.892361123,0.929459088 L12.4278143,0.929459088 L12.4278143,4.92251462 C12.4278143,5.16739766 12.626462,5.36604533 12.871345,5.36604533 L16.8644006,5.36604533 L16.8644006,23.1127558 L0.892361123,23.1127558 L0.892361123,0.929459088 Z" id="Shape"></path>
                            <polygon id="Path" points="3.55445904 6.25347223 14.2023026 6.25347223 14.2023026 7.14071635 3.55445904 7.14071635"></polygon>
                            <polygon id="Path" points="3.55445904 3.59137427 7.10380117 3.59137427 7.10380117 4.47880117 3.55445904 4.47880117"></polygon>
                            <polygon id="Path" points="3.55445904 8.91538742 10.6531433 8.91538742 10.6531433 9.80281432 3.55445904 9.80281432"></polygon>
                            <polygon id="Path" points="3.55445904 11.5773026 14.2023026 11.5773026 14.2023026 12.4647295 3.55445904 12.4647295"></polygon>
                            <polygon id="Path" points="3.55445904 16.9013158 14.2023026 16.9013158 14.2023026 17.7887427 3.55445904 17.7887427"></polygon>
                            <polygon id="Path" points="3.55555556 14.2394006 10.2105263 14.2394006 10.2105263 15.1266447 3.55555556 15.1266447"></polygon>
                            <polygon id="Path" points="3.55555556 19.5634138 11.5414839 19.5634138 11.5414839 20.4506579 3.55555556 20.4506579"></polygon>
                        </g>
                    </g>
                </g>
            </g>
        </g>
    </g>
</svg>