<?xml version="1.0" encoding="UTF-8"?>
<svg width="296px" height="235px" viewBox="0 0 296 235" version="1.1" xmlns="http://www.w3.org/2000/svg" xmlns:xlink="http://www.w3.org/1999/xlink">
    <title>44B94279-E2A5-422B-9287-60629B6EAE07</title>
    <g id="Page-1" stroke="none" stroke-width="1" fill="none" fill-rule="evenodd">
        <g id="ICM-intro" transform="translate(-996.000000, -471.000000)">
            <g id="Group-4" transform="translate(997.000000, 420.000000)">
                <g id="Step-3" transform="translate(0.000000, 52.000000)">
                    <g id="desktop_white" fill="#F3F3F3" fill-rule="nonzero" stroke="#434343" stroke-width="0.5">
                        <rect id="Rectangle" x="0.0929725552" y="0.0929725552" width="294.149737" height="233.600318" rx="3.8844"></rect>
                    </g>
                    <path d="M7.74898013,10.2402681 C7.74898013,10.946102 7.32382248,11.5824432 6.6717213,11.8525645 C6.01962012,12.1226858 5.26901178,11.9733908 4.76990659,11.4742962 C4.2708014,10.9752015 4.12149056,10.2245963 4.39159804,9.57248946 C4.66170552,8.92038256 5.29803774,8.49519653 6.00387161,8.49519653 C6.96765402,8.49519653 7.74898013,9.27648573 7.74898013,10.2402681 L7.74898013,10.2402681 Z" id="Path" fill="#EE3C43" fill-rule="nonzero"></path>
                    <path d="M14.7675407,10.2402681 C14.7675407,10.946102 14.342383,11.5824432 13.6902819,11.8525645 C13.0381807,12.1226858 12.2875724,11.9733908 11.7884672,11.4742962 C11.289362,10.9752015 11.1400511,10.2245963 11.4101586,9.57248946 C11.6802661,8.92038256 12.3165983,8.49519653 13.0224322,8.49519653 C13.9862146,8.49519653 14.7675407,9.27648573 14.7675407,10.2402681 L14.7675407,10.2402681 Z" id="Path" fill="#F9A124" fill-rule="nonzero"></path>
                    <path d="M21.7860274,10.2402681 C21.7860274,10.9461087 21.3608618,11.5824546 20.7087516,11.8525716 C20.0566413,12.1226885 19.3060272,11.97338 18.8069278,11.4742701 C18.3078284,10.9751601 18.1585358,10.2245428 18.4286665,9.5724383 C18.6987973,8.92033378 19.3351522,8.49519653 20.0409927,8.49519653 C21.0047463,8.4952373 21.7860274,9.27651456 21.7860274,10.2402681 L21.7860274,10.2402681 Z" id="Path" fill="#4CB748" fill-rule="nonzero"></path>
                    <rect id="Rectangle" fill="#CCCCCC" fill-rule="nonzero" x="0.376983596" y="16.6901423" width="294.149737" height="1"></rect>
                    <path d="M43.8380915,10.029705 L48.1697858,10.029705 C48.2655907,10.029705 48.3432558,10.1073702 48.3432558,10.2031751 L48.3432558,10.2207435 C48.3432558,10.3165484 48.2655907,10.3942136 48.1697858,10.3942136 L43.8381284,10.3942136 C43.7423235,10.3942136 43.6646584,10.3165484 43.6646584,10.2207435 L43.6646584,10.203212 C43.6646584,10.1572049 43.6829154,10.1130782 43.7154405,10.0805393 C43.7479655,10.0480005 43.7920844,10.0297148 43.8380915,10.029705 L43.8380915,10.029705 Z" id="Path" fill="#CCCCCC" fill-rule="nonzero" transform="translate(46.003957, 10.211959) rotate(90.000000) translate(-46.003957, -10.211959) "></path>
                    <rect id="Rectangle" fill="#CCCCCC" fill-rule="nonzero" transform="translate(35.049454, 10.320120) rotate(90.000000) translate(-35.049454, -10.320120) " x="31.2263035" y="6.4969694" width="7.64630063" height="7.64630063" rx="0.904812303"></rect>
                    <rect id="Rectangle" fill="#F3F3F3" fill-rule="nonzero" x="31.3344454" y="6.4969694" width="7.43001672" height="7.43001672" rx="0.796707256"></rect>
                    <path d="M37.4247937,9.95053628 L34.0164028,9.95053628 L35.0229719,8.94393028 C35.1672398,8.79966244 35.1672398,8.56575806 35.0229719,8.42149022 C34.8787041,8.27722238 34.6447997,8.27722238 34.5005319,8.42149022 L32.9714858,9.95053628 L32.9714858,9.95053628 L32.785836,10.1361861 C32.7370922,10.1849288 32.7097082,10.2510387 32.7097082,10.3199721 C32.7097082,10.3889054 32.7370922,10.4550153 32.785836,10.503758 L34.5005319,12.2184539 C34.6456575,12.3570304 34.874866,12.3544176 35.0167949,12.2125688 C35.1587239,12.0707201 35.1614663,11.8415131 35.0229719,11.6963091 L34.0164028,10.6897032 L37.4247937,10.6897032 C37.6288173,10.6897032 37.794211,10.5243094 37.794211,10.3202858 C37.794211,10.1162622 37.6288173,9.95086845 37.4247937,9.95086845 L37.4247937,9.95053628 Z" id="Path" fill="#4E4E4E" fill-rule="nonzero"></path>
                    <path d="M53.5046905,9.95053628 L56.9129338,9.95053628 L55.9063278,8.94393028 C55.7620599,8.79965225 55.7620682,8.56573961 55.9063462,8.42147177 C56.0506242,8.27720393 56.2845369,8.27721219 56.4288047,8.42149022 L57.9578508,9.95053628 L57.9578508,9.95053628 L58.1435006,10.1361861 C58.1922444,10.1849288 58.2196284,10.2510387 58.2196284,10.3199721 C58.2196284,10.3889054 58.1922444,10.4550153 58.1435006,10.503758 L56.4288047,12.2184539 C56.2842656,12.3611935 56.0516013,12.3604647 55.9079591,12.2168226 C55.764317,12.0731804 55.7635882,11.8405161 55.9063278,11.695977 L56.9129338,10.6895186 L53.5045429,10.6895186 C53.3005193,10.6895186 53.1351256,10.5241248 53.1351256,10.3201013 C53.1351256,10.1160777 53.3005193,9.95068391 53.5045429,9.95068391 L53.5046905,9.95053628 Z" id="Path" fill="#B4B4B4" fill-rule="nonzero"></path>
                    <path d="M285.404744,8.91861104 L280.71917,8.91861104 C280.506064,8.91859066 280.333292,8.74583889 280.333292,8.53273249 L280.333292,8.53273249 C280.333292,8.3196261 280.506064,8.14687432 280.71917,8.14685394 L285.404744,8.14685394 C285.617844,8.14687433 285.790585,8.31963207 285.790585,8.53273249 L285.790585,8.53273249 C285.790585,8.63507045 285.749948,8.73322027 285.677588,8.80558759 C285.605227,8.87795492 285.507081,8.91861104 285.404744,8.91861104 Z" id="Path" fill="#B4B4B4" fill-rule="nonzero"></path>
                    <path d="M285.404744,10.7059429 L280.71917,10.7059429 C280.50607,10.7059429 280.333292,10.5332017 280.333292,10.3201013 L280.333292,10.3201013 C280.333292,10.1070008 280.50607,9.93425962 280.71917,9.93425962 L285.404744,9.93425962 C285.507078,9.93425962 285.605224,9.97489774 285.677586,10.0472592 C285.749947,10.1196207 285.790585,10.2177667 285.790585,10.3201013 L285.790585,10.3201013 C285.790585,10.4224358 285.749947,10.5205818 285.677586,10.5929433 C285.605224,10.6653048 285.507078,10.7059527 285.404744,10.7059429 Z" id="Path" fill="#B4B4B4" fill-rule="nonzero"></path>
                    <path d="M285.404744,12.4935331 L280.71917,12.4935331 C280.506064,12.4935127 280.333292,12.320761 280.333292,12.1076546 L280.333292,12.1076546 C280.333292,11.8945626 280.506078,11.7218333 280.71917,11.7218129 L285.404744,11.7218129 C285.617838,11.7218129 285.790585,11.8945601 285.790585,12.1076546 L285.790585,12.1076546 C285.790585,12.2099925 285.749948,12.3081423 285.677588,12.3805097 C285.605227,12.452877 285.507081,12.4935331 285.404744,12.4935331 Z" id="Path" fill="#B4B4B4" fill-rule="nonzero"></path>
                    <path d="M69.5990555,6.69775174 L268.954064,6.69775174 C270.02488,6.69775174 270.893053,7.56577668 270.893053,8.63659306 L270.893053,12.0033511 C270.893053,12.5176029 270.688767,13.0107924 270.325136,13.3744233 C269.961505,13.7380543 269.468316,13.9423401 268.954064,13.9423401 L69.5990555,13.9423401 C68.5281611,13.9423401 67.6600297,13.0742086 67.6600297,12.0033142 L67.6600297,8.63659306 C67.6600297,7.56577071 68.5282332,6.69775174 69.5990555,6.69775174 Z" id="Path" stroke="#434343" stroke-width="0.5" fill="#FFFFFF" fill-rule="nonzero"></path>
                    <polygon id="Path" fill="#F9A124" fill-rule="nonzero" points="265.195817 8.00176656 265.771221 9.77300631 267.633256 9.77300631 266.12665 10.8673438 266.702054 12.6382145 265.195817 11.543877 263.689211 12.6382145 264.264615 10.8673438 262.758379 9.77300631 264.620413 9.77300631"></polygon>
                    <rect id="Rectangle" stroke="#434343" stroke-width="0.5" fill="#EEEEEE" fill-rule="nonzero" x="45.315724" y="69.1977861" width="184.41588" height="71.3247502"></rect>
                    <rect id="Rectangle" fill="#F2C8DE" fill-rule="nonzero" x="45.315724" y="140.490278" width="184.41588" height="71.3247502"></rect>
                    <rect id="Rectangle" fill="#194890" fill-rule="nonzero" x="45.315724" y="50.1711502" width="184.41588" height="18.9840066"></rect>
                    <line x1="230.131249" y1="85.3773729" x2="92.3543744" y2="85.3773729" id="Path" stroke="#194890" stroke-width="1.78212776" stroke-linecap="round" stroke-linejoin="round"></line>
                    <line x1="230.131249" y1="98.3658861" x2="92.3543744" y2="98.3658861" id="Path" stroke="#194890" stroke-width="1.78212776" stroke-linecap="round" stroke-linejoin="round"></line>
                    <line x1="229.023994" y1="111.354399" x2="92.3543744" y2="111.354399" id="Path" stroke="#194890" stroke-width="1.78212776" stroke-linecap="round" stroke-linejoin="round"></line>
                    <line x1="229.023994" y1="124.34295" x2="92.3543744" y2="124.34295" id="Path" stroke="#194890" stroke-width="1.78212776" stroke-linecap="round" stroke-linejoin="round"></line>
                    <line x1="229.023994" y1="156.669865" x2="92.3543744" y2="156.669865" id="Path" stroke="#194890" stroke-width="1.78212776" stroke-linecap="round" stroke-linejoin="round"></line>
                    <line x1="229.023994" y1="169.658378" x2="92.3543744" y2="169.658378" id="Path" stroke="#194890" stroke-width="1.78212776" stroke-linecap="round" stroke-linejoin="round"></line>
                    <line x1="229.023994" y1="182.646928" x2="92.3543744" y2="182.646928" id="Path" stroke="#194890" stroke-width="1.78212776" stroke-linecap="round" stroke-linejoin="round"></line>
                    <line x1="229.023994" y1="195.635442" x2="92.3543744" y2="195.635442" id="Path" stroke="#194890" stroke-width="1.78212776" stroke-linecap="round" stroke-linejoin="round"></line>
                    <line x1="54.9768237" y1="98.4980186" x2="81.175006" y2="98.4980186" id="Path" stroke="#434343" stroke-width="1.78212776" stroke-linecap="round" stroke-linejoin="round"></line>
                    <line x1="59.3808218" y1="103.466643" x2="76.7710079" y2="103.466643" id="Path" stroke="#434343" stroke-width="1.78212776" stroke-linecap="round" stroke-linejoin="round"></line>
                    <line x1="62.7685069" y1="108.435268" x2="73.3832858" y2="108.435268" id="Path" stroke="#434343" stroke-width="1.78212776" stroke-linecap="round" stroke-linejoin="round"></line>
                    <line x1="123.295338" y1="78.6235202" x2="133.910117" y2="78.6235202" id="Path" stroke="#434343" stroke-width="1.78212776" stroke-linecap="round" stroke-linejoin="round"></line>
                    <line x1="123.295338" y1="91.2709249" x2="133.910117" y2="91.2709249" id="Path" stroke="#434343" stroke-width="1.78212776" stroke-linecap="round" stroke-linejoin="round"></line>
                    <line x1="123.295338" y1="104.370016" x2="133.910117" y2="104.370016" id="Path" stroke="#434343" stroke-width="1.78212776" stroke-linecap="round" stroke-linejoin="round"></line>
                    <line x1="123.295338" y1="118.37248" x2="133.910117" y2="118.37248" id="Path" stroke="#434343" stroke-width="1.78212776" stroke-linecap="round" stroke-linejoin="round"></line>
                    <line x1="123.295338" y1="163.090065" x2="133.910117" y2="163.090065" id="Path" stroke="#434343" stroke-width="1.78212776" stroke-linecap="round" stroke-linejoin="round"></line>
                    <line x1="123.295338" y1="175.737469" x2="133.910117" y2="175.737469" id="Path" stroke="#434343" stroke-width="1.78212776" stroke-linecap="round" stroke-linejoin="round"></line>
                    <line x1="123.295338" y1="189.739933" x2="133.910117" y2="189.739933" id="Path" stroke="#434343" stroke-width="1.78212776" stroke-linecap="round" stroke-linejoin="round"></line>
                    <line x1="81.175006" y1="179.576841" x2="54.9768237" y2="179.576841" id="Path" stroke="#434343" stroke-width="1.78212776" stroke-linecap="round" stroke-linejoin="round"></line>
                    <line x1="76.7710079" y1="174.608253" x2="59.3808218" y2="174.608253" id="Path" stroke="#434343" stroke-width="1.78212776" stroke-linecap="round" stroke-linejoin="round"></line>
                    <line x1="73.3832858" y1="169.639629" x2="62.7685069" y2="169.639629" id="Path" stroke="#434343" stroke-width="1.78212776" stroke-linecap="round" stroke-linejoin="round"></line>
                    <line x1="49.895259" y1="59.6567129" x2="77.900224" y2="59.6567129" id="Path" stroke="#FFFFFF" stroke-width="1.78212776" stroke-linecap="round" stroke-linejoin="round"></line>
                    <line x1="110.42209" y1="59.6567129" x2="147.460895" y2="59.6567129" id="Path" stroke="#FFFFFF" stroke-width="1.78212776" stroke-linecap="round" stroke-linejoin="round"></line>
                    <line x1="172.755704" y1="59.6567129" x2="220.635131" y2="59.6567129" id="Path" stroke="#FFFFFF" stroke-width="1.78212776"></line>
                    <rect id="Rectangle" stroke="#434343" stroke-width="0.5" x="165.713633" y="21.9712713" width="83.5903732" height="80.4690199"></rect>
                </g>
            </g>
        </g>
    </g>
</svg>