<?xml version="1.0" encoding="UTF-8"?>
<svg width="60px" height="54px" viewBox="0 0 60 54" version="1.1" xmlns="http://www.w3.org/2000/svg" xmlns:xlink="http://www.w3.org/1999/xlink">
    <title>5E6B7D13-63BF-4849-95EE-AAF531E85B2A</title>
    <g id="PDP---Single-Format-Antibody---D" stroke="none" stroke-width="1" fill="none" fill-rule="evenodd">
        <g id="PDP-SFA-antibody" transform="translate(-1060.000000, -268.000000)" stroke="#00B8B0" stroke-width="2">
            <g id="PDP/header-content" transform="translate(0.000000, 256.000000)">
                <g id="PDP/tools" transform="translate(893.000000, 13.000000)">
                    <g id="PDP/Tool-Copy" transform="translate(143.000000, 0.000000)">
                        <g id="PDP/tools/icon-spectrum" transform="translate(25.000000, 0.000000)">
                            <g id="Group-2">
                                <rect id="Rectangle" x="0" y="0" width="58" height="52" rx="2"></rect>
                                <g id="Group" transform="translate(9.000000, 8.000000)">
                                    <rect id="Rectangle" x="0" y="0" width="6" height="6" rx="1"></rect>
                                    <rect id="Rectangle-Copy" x="0" y="14" width="6" height="6" rx="1"></rect>
                                    <rect id="Rectangle-Copy-2" x="0" y="27" width="6" height="6" rx="1"></rect>
                                    <line x1="12" y1="32" x2="34" y2="32" id="Line-12-Copy-8" stroke-linecap="round"></line>
                                    <line x1="29" y1="27" x2="36" y2="27" id="Line-12-Copy-6" stroke-linecap="round"></line>
                                    <line x1="12" y1="27" x2="26" y2="27" id="Line-12-Copy-5" stroke-linecap="round"></line>
                                    <line x1="12" y1="14.5" x2="40" y2="14.5" id="Line-12-Copy-3" stroke-linecap="round"></line>
                                    <line x1="12" y1="18.5" x2="32" y2="18.5" id="Line-12-Copy-4" stroke-linecap="round"></line>
                                    <line x1="12" y1="1" x2="35" y2="1" id="Line-12" stroke-linecap="round"></line>
                                    <line x1="12" y1="5" x2="20" y2="5" id="Line-12-Copy" stroke-linecap="round"></line>
                                    <line x1="23" y1="5" x2="26" y2="5" id="Line-12-Copy-2" stroke-linecap="round"></line>
                                </g>
                            </g>
                        </g>
                    </g>
                </g>
            </g>
        </g>
    </g>
</svg>