<?xml version="1.0" encoding="UTF-8"?>
<svg width="99px" height="99px" viewBox="0 0 99 99" version="1.1" xmlns="http://www.w3.org/2000/svg" xmlns:xlink="http://www.w3.org/1999/xlink">
    <title>23BD21D6-D3E3-4FFB-9E07-5F33202B2965</title>
    <g id="Page-1" stroke="none" stroke-width="1" fill="none" fill-rule="evenodd">
        <g id="Integrated-Solution-Template" transform="translate(-546.000000, -1059.000000)" fill="#9E9E9E" fill-rule="nonzero">
            <g id="Content-with-icons-(optional-carousel)" transform="translate(247.000000, 801.000000)">
                <g id="Group-27" transform="translate(251.000000, 258.000000)">
                    <g id="Innovation" transform="translate(48.000000, 0.000000)">
                        <path d="M0.641975309,61.082716 L3.27777778,62.5259259 C5.69876543,63.8481481 7.67901235,65.8296296 9.00617284,68.2530864 L10.4469136,70.8888889 C10.662963,71.2851852 11.0790123,71.5320988 11.5296296,71.5320988 C11.9802469,71.5320988 12.3962963,71.2864198 12.6123457,70.8888889 L14.0530864,68.2530864 C15.3790123,65.8296296 17.3592593,63.8493827 19.7814815,62.5246914 L22.417284,61.082716 C22.8135802,60.8666667 23.0592593,60.4506173 23.0592593,60 C23.0592593,59.5493827 22.8123457,59.1333333 22.4160494,58.9160494 L19.7814815,57.4765432 C17.3592593,56.1506173 15.3777778,54.1691358 14.0530864,51.7469136 L12.6123457,49.1111111 C12.1790123,48.317284 10.8790123,48.317284 10.445679,49.1111111 L9.00493827,51.7469136 C7.68024691,54.1691358 5.69876543,56.1493827 3.27654321,57.4753086 L0.640740741,58.9160494 C0.24691358,59.1333333 0,59.5493827 0,60 C0,60.4506173 0.245679012,60.8666667 0.641975309,61.082716 Z M4.46296296,59.6419753 C7.3,58.0901235 9.62098765,55.7691358 11.1728395,52.9308642 L11.5308642,52.2765432 L11.8888889,52.9308642 C13.4407407,55.7691358 15.7617284,58.0901235 18.6,59.6432099 L19.254321,60 L18.6,60.3580247 C15.762963,61.908642 13.4432099,64.2296296 11.8888889,67.0691358 L11.5308642,67.7234568 L11.1728395,67.0691358 C9.61975309,64.2296296 7.29876543,61.908642 4.46296296,60.3592593 L3.80740741,60 L4.46296296,59.6419753 Z" id="Shape"></path>
                        <path d="M98.1234568,55.8135802 L95.4876543,54.3716049 C93.0654321,53.0469136 91.0839506,51.0654321 89.7592593,48.6432099 L88.3185185,46.0074074 C87.8851852,45.2135802 86.5851852,45.2135802 86.1518519,46.0074074 L84.7111111,48.6432099 C83.3864198,51.0654321 81.4049383,53.045679 78.982716,54.3716049 L76.3469136,55.8135802 C75.9506173,56.0296296 75.7049383,56.445679 75.7049383,56.8962963 C75.7049383,57.3469136 75.9518519,57.762963 76.3481481,57.9802469 L78.982716,59.4197531 C81.4049383,60.7444444 83.3864198,62.7259259 84.7111111,65.1481481 L86.1518519,67.7851852 C86.3679012,68.1814815 86.7839506,68.4283951 87.2345679,68.4283951 C87.6851852,68.4283951 88.1012346,68.182716 88.317284,67.7851852 L89.7580247,65.1481481 C91.082716,62.7259259 93.0641975,60.745679 95.4864198,59.4209877 L98.1222222,57.9802469 C98.5185185,57.762963 98.7654321,57.3469136 98.7654321,56.8962963 C98.7654321,56.445679 98.5197531,56.0283951 98.1234568,55.8135802 Z M94.3024691,57.254321 C91.4654321,58.8061728 89.1444444,61.1259259 87.5925926,63.9641975 L87.2345679,64.6185185 L86.8765432,63.9641975 C85.3246914,61.1259259 83.0037037,58.8061728 80.1654321,57.2530864 L79.5111111,56.8962963 L80.1666667,56.537037 C83.0037037,54.9851852 85.3246914,52.6654321 86.8765432,49.8271605 L87.2345679,49.1728395 L87.5925926,49.8271605 C89.1444444,52.6654321 91.4654321,54.9851852 94.3024691,56.537037 L94.9580247,56.8962963 L94.3024691,57.254321 Z" id="Shape"></path>
                        <path d="M86.737037,17.108642 C88.3567901,17.108642 89.9012346,16.5234568 91.1259259,15.437037 C93.8740741,13.0024691 94.1407407,8.77407407 91.7197531,6.00864198 C90.5444444,4.66790123 88.9197531,3.86790123 87.145679,3.75555556 C85.362963,3.63580247 83.6617284,4.2308642 82.3283951,5.41234568 C79.5802469,7.84691358 79.3148148,12.0753086 81.7345679,14.8407407 C82.9098765,16.182716 84.5345679,16.982716 86.3098765,17.0950617 C86.4518519,17.1049383 86.5950617,17.108642 86.737037,17.108642 Z M83.9654321,7.26049383 C84.7358025,6.57777778 85.7049383,6.20987654 86.7209877,6.20987654 C86.8098765,6.20987654 86.9,6.21358025 86.9888889,6.21851852 C88.1024691,6.29012346 89.1234568,6.79259259 89.8617284,7.63580247 C91.3901235,9.38024691 91.2222222,12.0506173 89.4876543,13.5888889 C88.6506173,14.3296296 87.5691358,14.7012346 86.4641975,14.6296296 C85.3493827,14.5592593 84.3296296,14.0555556 83.5901235,13.2123457 C82.062963,11.4691358 82.2308642,8.79753086 83.9654321,7.26049383 Z" id="Shape"></path>
                        <path d="M5.65308642,7.75432099 C2.90493827,10.1888889 2.6382716,14.417284 5.05802469,17.1814815 C6.23333333,18.5234568 7.85802469,19.3234568 9.63333333,19.4358025 C9.77654321,19.445679 9.91851852,19.4493827 10.0617284,19.4493827 C11.6814815,19.4493827 13.2259259,18.8641975 14.4518519,17.7777778 C17.2,15.3444444 17.4666667,11.1160494 15.0469136,8.35061728 C13.8716049,7.00864198 12.2469136,6.20864198 10.4716049,6.0962963 C8.69012346,5.97283951 6.98518519,6.57160494 5.65308642,7.75432099 Z M12.8123457,15.9296296 L12.8123457,15.9296296 C11.9753086,16.6728395 10.9049383,17.0518519 9.78765432,16.9716049 C8.67407407,16.9012346 7.65308642,16.3975309 6.91481481,15.554321 C5.38641975,13.8098765 5.55432099,11.1395062 7.28888889,9.60246914 C8.05925926,8.92098765 9.02839506,8.55308642 10.0444444,8.55308642 C10.1333333,8.55308642 10.2234568,8.55555556 10.3123457,8.5617284 C11.4259259,8.63209877 12.4469136,9.13580247 13.1851852,9.97901235 C14.7160494,11.7234568 14.5481481,14.3938272 12.8123457,15.9296296 Z" id="Shape"></path>
                        <path d="M79.017284,29.8209877 C79.017284,21.6753086 75.6123457,13.8024691 69.6740741,8.22222222 C63.6530864,2.56296296 55.7765432,-0.272839506 47.4938272,0.244444444 C32.5259259,1.17283951 20.3481481,13.6493827 19.7703704,28.6493827 C19.4617284,36.6481481 22.2987654,44.2604938 27.7580247,50.082716 C31.9074074,54.5098765 34.2777778,60.4419753 34.5506173,66.8851852 L34.1580247,66.8851852 C31.4345679,66.8851852 29.2185185,69.1012346 29.2185185,71.8246914 C29.2185185,74.0617284 30.7234568,75.9358025 32.7679012,76.5407407 L32.7679012,87.1037037 C32.7679012,89.5740741 34.7777778,91.5839506 37.2481481,91.5839506 L37.4950617,91.5839506 L37.4950617,93.2358025 C37.4950617,96.4098765 40.0777778,98.9938272 43.254321,98.9938272 L55.5123457,98.9938272 C58.6876543,98.9938272 61.2716049,96.4098765 61.2716049,93.2358025 L61.2716049,91.5839506 L61.5185185,91.5839506 C63.9888889,91.5839506 65.9987654,89.5740741 65.9987654,87.1037037 L65.9987654,76.5407407 C68.0432099,75.9358025 69.5481481,74.062963 69.5481481,71.8246914 C69.5481481,69.1012346 67.3320988,66.8851852 64.608642,66.8851852 L64.217284,66.8851852 C64.4938272,60.4703704 66.8888889,54.5098765 71.082716,50.0037037 C76.1987654,44.5037037 79.017284,37.337037 79.017284,29.8209877 Z M58.8012346,93.2358025 C58.8012346,95.0493827 57.3259259,96.5246914 55.5111111,96.5246914 L43.2530864,96.5246914 C41.4395062,96.5246914 39.962963,95.0493827 39.962963,93.2358025 L39.962963,91.5839506 L58.8,91.5839506 L58.8,93.2358025 L58.8012346,93.2358025 Z M61.517284,89.1148148 L37.2469136,89.1148148 C36.1382716,89.1148148 35.2358025,88.2135802 35.2358025,87.1037037 L35.2358025,76.7641975 L63.5283951,76.7641975 L63.5283951,87.1037037 C63.5283951,88.2135802 62.6259259,89.1148148 61.517284,89.1148148 Z M67.0777778,71.8246914 C67.0777778,73.1876543 65.9691358,74.2950617 64.6074074,74.2950617 L34.1567901,74.2950617 C32.7938272,74.2950617 31.6864198,73.1876543 31.6864198,71.8246914 C31.6864198,70.4617284 32.7938272,69.354321 34.1567901,69.354321 L64.6061728,69.354321 C65.9691358,69.354321 67.0777778,70.462963 67.0777778,71.8246914 Z M43.5802469,35.1098765 L39.182716,35.1098765 C36.7580247,35.1098765 34.7851852,33.137037 34.7851852,30.7123457 C34.7851852,28.2876543 36.7580247,26.3135802 39.182716,26.3135802 C41.6074074,26.3135802 43.5802469,28.2876543 43.5802469,30.7123457 L43.5802469,35.1098765 Z M52.7160494,66.8851852 L46.0493827,66.8851852 L46.0493827,37.5790123 L52.7160494,37.5790123 L52.7160494,66.8851852 Z M61.7469136,66.8851852 L55.1851852,66.8851852 L55.1851852,37.5790123 L59.582716,37.5790123 C63.3691358,37.5790123 66.4493827,34.4987654 66.4493827,30.7123457 C66.4493827,26.9259259 63.3691358,23.8444444 59.582716,23.8444444 C55.7962963,23.8444444 52.7160494,26.9246914 52.7160494,30.7123457 L52.7160494,35.1098765 L46.0493827,35.1098765 L46.0493827,30.7123457 C46.0493827,26.9259259 42.9691358,23.8444444 39.182716,23.8444444 C35.3962963,23.8444444 32.3160494,26.9259259 32.3160494,30.7123457 C32.3160494,34.4987654 35.3962963,37.5790123 39.182716,37.5790123 L43.5802469,37.5790123 L43.5802469,66.8851852 L37.0185185,66.8851852 C36.7419753,59.8098765 34.1382716,53.2790123 29.5580247,48.3938272 C24.554321,43.0555556 21.954321,36.0753086 22.2358025,28.7419753 C22.7666667,14.9938272 33.9283951,3.55925926 47.645679,2.70740741 C55.2395062,2.23950617 62.462963,4.83333333 67.9814815,10.0197531 C73.5049383,15.2111111 76.5469136,22.2419753 76.5469136,29.8197531 C76.5469136,36.7098765 73.962963,43.2790123 69.2728395,48.3197531 C64.654321,53.2851852 62.0259259,59.8419753 61.7469136,66.8851852 Z M55.1851852,35.1098765 L55.1851852,30.7123457 C55.1851852,28.2864198 57.1580247,26.3135802 59.582716,26.3135802 C62.0074074,26.3135802 63.9802469,28.2876543 63.9802469,30.7123457 C63.9802469,33.137037 62.0074074,35.1098765 59.582716,35.1098765 L55.1851852,35.1098765 Z" id="Shape"></path>
                    </g>
                </g>
            </g>
        </g>
    </g>
</svg>