<?xml version="1.0" encoding="UTF-8"?>
<svg width="30px" height="30px" viewBox="0 0 30 30" version="1.1" xmlns="http://www.w3.org/2000/svg" xmlns:xlink="http://www.w3.org/1999/xlink">
    <title>660AFA5B-3D8E-4739-9972-46E8326AFD29</title>
    <defs>
        <filter id="filter-1">
            <feColorMatrix in="SourceGraphic" type="matrix" values="0 0 0 0 1.000000 0 0 0 0 1.000000 0 0 0 0 1.000000 0 0 0 1.000000 0"></feColorMatrix>
        </filter>
    </defs>
    <g id="Page-1" stroke="none" stroke-width="1" fill="none" fill-rule="evenodd">
        <g id="Integrated-Solution-Template" transform="translate(-787.000000, -1854.000000)">
            <g id="Group-12" transform="translate(368.000000, 1436.000000)">
                <g id="Group-21" transform="translate(50.000000, 161.000000)">
                    <g id="Group-15" transform="translate(0.000000, 238.000000)">
                        <g id="Innovation" transform="translate(330.000000, 11.000000)" filter="url(#filter-1)">
                            <g transform="translate(39.000000, 8.000000)">
                                <path d="M0.194537972,18.509914 L0.993265993,18.9472503 C1.72689862,19.3479237 2.32697344,19.9483726 2.72914328,20.6827535 L3.16573139,21.4814815 C3.2312009,21.6015713 3.35727647,21.6763936 3.49382716,21.6763936 C3.63037785,21.6763936 3.75645342,21.6019454 3.82192293,21.4814815 L4.25851104,20.6827535 C4.66030677,19.9483726 5.26038159,19.3482978 5.99438833,18.9468762 L6.79311635,18.509914 C6.91320614,18.4444444 6.98765432,18.3183689 6.98765432,18.1818182 C6.98765432,18.0452675 6.91283202,17.9191919 6.79274224,17.8533483 L5.99438833,17.4171343 C5.26038159,17.0153386 4.65993266,16.4148896 4.25851104,15.6808829 L3.82192293,14.8821549 C3.6906098,14.6416012 3.29667041,14.6416012 3.16535728,14.8821549 L2.72876917,15.6808829 C2.32734755,16.4148896 1.72689862,17.0149645 0.992891882,17.4167602 L0.194163861,17.8533483 C0.074822297,17.9191919 0,18.0452675 0,18.1818182 C0,18.3183689 0.0744481856,18.4444444 0.194537972,18.509914 Z M1.35241302,18.0733259 C2.21212121,17.6030677 2.9154508,16.8997381 3.38570894,16.0396558 L3.49420127,15.8413767 L3.6026936,16.0396558 C4.07295174,16.8997381 4.77628133,17.6030677 5.63636364,18.0737 L5.83464272,18.1818182 L5.63636364,18.2903105 C4.77665544,18.7601945 4.07369996,19.4635241 3.6026936,20.3239805 L3.49420127,20.5222596 L3.38570894,20.3239805 C2.91507669,19.4635241 2.2117471,18.7601945 1.35241302,18.2906846 L1.15375982,18.1818182 L1.35241302,18.0733259 Z" id="Shape" fill="#9E9E9E" fill-rule="nonzero"></path>
                                <path d="M29.7343808,16.9132061 L28.9356528,16.4762439 C28.2016461,16.0748223 27.6011972,15.4743734 27.1997755,14.7403666 L26.7631874,13.9416386 C26.6318743,13.7010849 26.2379349,13.7010849 26.1066218,13.9416386 L25.6700337,14.7403666 C25.268612,15.4743734 24.6681631,16.0744482 23.9341564,16.4762439 L23.1354284,16.9132061 C23.0153386,16.9786756 22.9408904,17.1047512 22.9408904,17.2413019 C22.9408904,17.3778526 23.0157127,17.5039282 23.1358025,17.5697718 L23.9341564,18.0059858 C24.6681631,18.4074074 25.268612,19.0078563 25.6700337,19.7418631 L26.1066218,20.5409652 C26.1720913,20.661055 26.2981669,20.7358773 26.4347175,20.7358773 C26.5712682,20.7358773 26.6973438,20.6614291 26.7628133,20.5409652 L27.1994014,19.7418631 C27.600823,19.0078563 28.201272,18.4077815 28.9352787,18.0063599 L29.7340067,17.5697718 C29.8540965,17.5039282 29.9289188,17.3778526 29.9289188,17.2413019 C29.9289188,17.1047512 29.8544706,16.9783015 29.7343808,16.9132061 Z M28.5765058,17.3497942 C27.7167976,17.8200524 27.013468,18.5230079 26.5432099,19.3830902 L26.4347175,19.5813692 L26.3262252,19.3830902 C25.8559671,18.5230079 25.1526375,17.8200524 24.2925552,17.3494201 L24.0942761,17.2413019 L24.2929293,17.1324355 C25.1526375,16.6621773 25.8559671,15.9592218 26.3262252,15.0991395 L26.4347175,14.9008605 L26.5432099,15.0991395 C27.013468,15.9592218 27.7167976,16.6621773 28.5765058,17.1324355 L28.775159,17.2413019 L28.5765058,17.3497942 Z" id="Shape" fill="#9E9E9E" fill-rule="nonzero"></path>
                                <path d="M26.2839506,5.18443696 C26.7747849,5.18443696 27.2427984,5.00710812 27.6139169,4.67789001 C28.4466891,3.94014216 28.5274972,2.65881033 27.7938646,1.8208006 C27.4377104,1.41451553 26.9453797,1.17209128 26.4077815,1.13804714 C25.8675645,1.10175832 25.3520389,1.28208006 24.9479985,1.64010475 C24.1152263,2.3778526 24.0347924,3.65918444 24.7680509,4.49719416 C25.124205,4.90385335 25.6165357,5.14627759 26.154508,5.18032174 C26.1975309,5.18331463 26.2409278,5.18443696 26.2839506,5.18443696 Z M25.4440703,2.20014964 C25.6775159,1.99326599 25.9711934,1.88178077 26.2790872,1.88178077 C26.3060232,1.88178077 26.3333333,1.88290311 26.3602694,1.88439955 C26.6977179,1.90609802 27.0071081,2.05836139 27.2308268,2.31387954 C27.6939768,2.84249906 27.6430976,3.65170221 27.117471,4.11784512 C26.8638234,4.34231201 26.5361018,4.45491957 26.201272,4.4332211 C25.8634493,4.41189675 25.5544332,4.25925926 25.3303404,4.00374111 C24.8675645,3.4754957 24.9184437,2.66591844 25.4440703,2.20014964 Z" id="Shape" fill="#9E9E9E" fill-rule="nonzero"></path>
                                <path d="M1.71305649,2.34979424 C0.880284325,3.08754209 0.799476244,4.36887392 1.53273475,5.20650954 C1.88888889,5.61316872 2.3812196,5.85559297 2.91919192,5.88963711 C2.96258885,5.89263 3.00561167,5.89375234 3.0490086,5.89375234 C3.53984287,5.89375234 4.00785634,5.71642349 4.37934905,5.38720539 C5.21212121,4.64983165 5.29292929,3.36849981 4.55967078,2.53049009 C4.20351665,2.1238309 3.71118593,1.88140666 3.17321362,1.84736251 C2.63337074,1.80995137 2.11672278,1.99139544 1.71305649,2.34979424 Z M3.88252899,4.82716049 L3.88252899,4.82716049 C3.62888141,5.05237561 3.30452675,5.16722783 2.96595585,5.14291059 C2.6285073,5.12158623 2.3191171,4.96894875 2.09539843,4.7134306 C1.63224841,4.18481107 1.68312757,3.37560793 2.20875421,2.90983913 C2.44219978,2.70332959 2.73587729,2.59184437 3.04377104,2.59184437 C3.07070707,2.59184437 3.09801721,2.59259259 3.12495324,2.59446315 C3.4624018,2.6157875 3.77179199,2.76842499 3.99551066,3.02394314 C4.4594089,3.55256266 4.40852974,4.36176581 3.88252899,4.82716049 Z" id="Shape" fill="#9E9E9E" fill-rule="nonzero"></path>
                                <path d="M23.9446315,9.03666293 C23.9446315,6.56827535 22.912832,4.1825664 21.1133558,2.49158249 C19.2888141,0.776655443 16.9019828,-0.0826786382 14.3920688,0.0740740741 C9.85634119,0.355405911 6.1661055,4.13617658 5.99102132,8.68163113 C5.89749345,11.1054994 6.75720165,13.4122709 8.41152263,15.1765806 C9.66891134,16.5181444 10.3872054,18.3157501 10.469884,20.2682379 L10.3509166,20.2682379 C9.52562664,20.2682379 8.85409652,20.9397681 8.85409652,21.765058 C8.85409652,22.442948 9.31013842,23.0108492 9.92966704,23.1941639 L9.92966704,26.3950617 C9.92966704,27.1436588 10.5387205,27.7527123 11.2873176,27.7527123 L11.3621399,27.7527123 L11.3621399,28.2532735 C11.3621399,29.2151141 12.1447811,29.9981294 13.10737,29.9981294 L16.8219229,29.9981294 C17.7841377,29.9981294 18.567153,29.2151141 18.567153,28.2532735 L18.567153,27.7527123 L18.6419753,27.7527123 C19.3905724,27.7527123 19.9996259,27.1436588 19.9996259,26.3950617 L19.9996259,23.1941639 C20.6191545,23.0108492 21.0751964,22.4433221 21.0751964,21.765058 C21.0751964,20.9397681 20.4036663,20.2682379 19.5783764,20.2682379 L19.459783,20.2682379 C19.543584,18.3243547 20.2693603,16.5181444 21.540217,15.1526375 C23.090535,13.4859708 23.9446315,11.3142536 23.9446315,9.03666293 Z M17.8185559,28.2532735 C17.8185559,28.8028432 17.3714927,29.2499065 16.8215488,29.2499065 L13.1069959,29.2499065 C12.5574261,29.2499065 12.1099888,28.8028432 12.1099888,28.2532735 L12.1099888,27.7527123 L17.8181818,27.7527123 L17.8181818,28.2532735 L17.8185559,28.2532735 Z M18.6416012,27.0044893 L11.2869435,27.0044893 C10.9509914,27.0044893 10.6775159,26.731388 10.6775159,26.3950617 L10.6775159,23.261878 L19.2510288,23.261878 L19.2510288,26.3950617 C19.2510288,26.731388 18.9775533,27.0044893 18.6416012,27.0044893 Z M20.3265993,21.765058 C20.3265993,22.1780771 19.9906472,22.5136551 19.5780022,22.5136551 L10.3505425,22.5136551 C9.93752338,22.5136551 9.60194538,22.1780771 9.60194538,21.765058 C9.60194538,21.3520389 9.93752338,21.0164609 10.3505425,21.0164609 L19.5776281,21.0164609 C19.9906472,21.0164609 20.3265993,21.352413 20.3265993,21.765058 Z M13.2061354,10.6393565 L11.8735503,10.6393565 C11.1387954,10.6393565 10.5409652,10.0415264 10.5409652,9.30677142 C10.5409652,8.57201646 11.1387954,7.9738122 11.8735503,7.9738122 C12.6083053,7.9738122 13.2061354,8.57201646 13.2061354,9.30677142 L13.2061354,10.6393565 Z M15.9745604,20.2682379 L13.9543584,20.2682379 L13.9543584,11.3875795 L15.9745604,11.3875795 L15.9745604,20.2682379 Z M18.7111859,20.2682379 L16.7227834,20.2682379 L16.7227834,11.3875795 L18.0553685,11.3875795 C19.2027684,11.3875795 20.1361766,10.4541713 20.1361766,9.30677142 C20.1361766,8.15937149 19.2027684,7.22558923 18.0553685,7.22558923 C16.9079686,7.22558923 15.9745604,8.15899738 15.9745604,9.30677142 L15.9745604,10.6393565 L13.9543584,10.6393565 L13.9543584,9.30677142 C13.9543584,8.15937149 13.0209502,7.22558923 11.8735503,7.22558923 C10.7261504,7.22558923 9.79274224,8.15937149 9.79274224,9.30677142 C9.79274224,10.4541713 10.7261504,11.3875795 11.8735503,11.3875795 L13.2061354,11.3875795 L13.2061354,20.2682379 L11.2177329,20.2682379 C11.1339319,18.124205 10.3449308,16.1451553 8.95697718,14.6647961 C7.44070333,13.047138 6.65282454,10.9319117 6.73812196,8.70968949 C6.8989899,4.54358399 10.2813318,1.07856341 14.4380845,0.820426487 C16.7392443,0.678638234 18.9281706,1.46464646 20.6004489,3.03628881 C22.2742237,4.60942761 23.1960344,6.73999252 23.1960344,9.03628881 C23.1960344,11.124205 22.4130191,13.1148522 20.9917695,14.6423494 C19.5922185,16.1470258 18.7957351,18.1339319 18.7111859,20.2682379 Z M16.7227834,10.6393565 L16.7227834,9.30677142 C16.7227834,8.57164235 17.3206135,7.9738122 18.0553685,7.9738122 C18.7901235,7.9738122 19.3879536,8.57201646 19.3879536,9.30677142 C19.3879536,10.0415264 18.7901235,10.6393565 18.0553685,10.6393565 L16.7227834,10.6393565 Z" id="Shape" fill="#9E9E9E" fill-rule="nonzero"></path>
                            </g>
                        </g>
                    </g>
                </g>
            </g>
        </g>
    </g>
</svg>