<?xml version="1.0" encoding="UTF-8"?>
<svg width="23px" height="15px" viewBox="0 0 23 15" version="1.1" xmlns="http://www.w3.org/2000/svg" xmlns:xlink="http://www.w3.org/1999/xlink">
    <title>B32F443B-740A-473A-8209-BFC6494205A9</title>
    <g id="Page-1" stroke="none" stroke-width="1" fill="none" fill-rule="evenodd">
        <g id="Iconography" transform="translate(-670.000000, -938.000000)">
            <g id="Group-9" transform="translate(662.000000, 412.000000)">
                <g id="Group-9" transform="translate(8.000000, 526.800000)">
                    <polygon id="Fill-1" fill="#FF5F00" points="8.44122222 12.5033611 14.5662222 12.5033611 14.5662222 1.49663889 8.44122222 1.49663889"></polygon>
                    <g id="Group-8">
                        <path d="M8.83011111,7 C8.83011111,4.767 9.87563889,2.77841667 11.5037222,1.49663889 C10.3129444,0.559222222 8.81066667,0 7.17772222,0 C3.31197222,0 0.178111111,3.13405556 0.178111111,7 C0.178111111,10.8659444 3.31197222,14 7.17772222,14 C8.81066667,14 10.3129444,13.4407778 11.5037222,12.5033611 C9.87563889,11.2215833 8.83011111,9.23280556 8.83011111,7" id="Fill-2" fill="#EB001B"></path>
                        <path d="M22.8290611,7 C22.8290611,10.8659444 19.6953944,14 15.8296444,14 C14.1967,14 12.6944222,13.4407778 11.5036444,12.5033611 C13.1317278,11.2215833 14.1772556,9.23280556 14.1772556,7 C14.1772556,4.767 13.1317278,2.77841667 11.5036444,1.49663889 C12.6944222,0.559222222 14.1967,0 15.8296444,0 C19.6953944,0 22.8290611,3.13405556 22.8290611,7" id="Fill-4" fill="#F79E1B"></path>
                        <polygon id="Path" fill="#F79E1B" points="22.6105056 11.3375889 22.6105056 11.06595 22.5397278 11.06595 22.4580611 11.2526167 22.3763944 11.06595 22.3056167 11.06595 22.3056167 11.3375889 22.3553944 11.3375889 22.3553944 11.1326444 22.4320056 11.3092 22.4841167 11.3092 22.5605333 11.1320611 22.5605333 11.3375889"></polygon>
                        <polygon id="Path" fill="#F79E1B" points="22.1611444 11.3375889 22.1611444 11.1122278 22.2521444 11.1122278 22.2521444 11.0663389 22.0207556 11.0663389 22.0207556 11.1122278 22.1117556 11.1122278 22.1117556 11.3375889"></polygon>
                    </g>
                </g>
            </g>
        </g>
    </g>
</svg>