<?xml version="1.0" encoding="UTF-8"?>
<svg width="95px" height="100px" viewBox="0 0 95 100" version="1.1" xmlns="http://www.w3.org/2000/svg" xmlns:xlink="http://www.w3.org/1999/xlink">
    <title>A3E8733F-F146-4EF1-9CED-2C63950F1032</title>
    <g id="Page-1" stroke="none" stroke-width="1" fill="none" fill-rule="evenodd">
        <g id="Integrated-Solution-Template" transform="translate(-795.000000, -1058.000000)" fill="#9E9E9E" fill-rule="nonzero">
            <g id="Content-with-icons-(optional-carousel)" transform="translate(247.000000, 801.000000)">
                <g id="Group-28" transform="translate(502.000000, 257.000000)">
                    <g id="Molecule" transform="translate(46.000000, 0.000000)">
                        <path d="M7.375,74.125 C11.375,74.125 14.625,70.875 14.625,66.875 C14.625,66.375 14.625,66 14.5,65.625 L23.75,62.375 C25.375,65.625 27.5,68.5 30.25,70.75 L25.875,75.625 C25.125,75.25 24.25,75 23.375,75 C20.5,75 18.125,77.375 18.125,80.25 C18.125,83.125 20.5,85.5 23.375,85.5 C26.25,85.5 28.625,83.125 28.625,80.25 C28.625,79.25 28.25,78.25 27.75,77.375 L32.25,72.375 C35.25,74.5 38.625,76 42.375,76.75 L41.375,85 C37.625,85.375 34.75,88.5 34.75,92.25 C34.75,96.25 38,99.5 42,99.5 C46,99.5 49.25,96.25 49.25,92.25 C49.25,88.875 47,86 43.875,85.25 L44.75,77.125 C45.625,77.25 46.5,77.25 47.375,77.25 C50.875,77.25 54.25,76.5 57.25,75.25 L59.75,80.375 C58.375,81.25 57.375,82.875 57.375,84.75 C57.375,87.625 59.75,90 62.625,90 C65.5,90 67.875,87.625 67.875,84.75 C67.875,81.875 65.5,79.5 62.625,79.5 C62.5,79.5 62.375,79.5 62.25,79.5 L59.625,74.125 C61.875,73 63.875,71.5 65.75,69.75 L77.875,81.25 C76.75,82.5 76,84.25 76,86.125 C76,90.125 79.25,93.375 83.25,93.375 C87.25,93.375 90.5,90.125 90.5,86.125 C90.5,82.125 87.25,78.875 83.25,78.875 C82,78.875 80.75,79.25 79.75,79.75 L67.5,68 C69.625,65.5 71.25,62.75 72.375,59.625 L78.125,60.875 C78.125,63.75 80.5,66.125 83.375,66.125 C86.25,66.125 88.625,63.75 88.625,60.875 C88.625,58 86.25,55.625 83.375,55.625 C81.375,55.625 79.625,56.75 78.75,58.375 L73,57.125 C73.5,55.125 73.875,52.875 73.875,50.75 C73.875,48.125 73.5,45.625 72.75,43.25 L81,40.5 C82.25,42.625 84.625,44.125 87.25,44.125 C91.25,44.125 94.5,40.875 94.5,36.875 C94.5,32.875 91.25,29.625 87.25,29.625 C83.25,29.625 80,32.875 80,37 C80,37.5 80,37.875 80.125,38.25 L71.875,41 C70.5,37.75 68.625,34.875 66.25,32.375 L75.625,21.875 C76.125,22 76.75,22.125 77.25,22.125 C80.125,22.125 82.5,19.75 82.5,16.875 C82.5,14 80.125,11.625 77.25,11.625 C74.375,11.625 72,14 72,16.875 C72,18.25 72.5,19.5 73.375,20.375 L64.25,30.5 C61.75,28.375 58.75,26.75 55.625,25.625 L58.375,15.125 C58.375,15.125 58.5,15.125 58.5,15.125 C62.5,15.125 65.75,11.875 65.75,7.875 C65.75,3.875 62.5,0.625 58.5,0.625 C54.5,0.625 51.25,3.875 51.25,7.875 C51.25,11 53.25,13.625 56,14.625 L53.25,24.875 C51.375,24.5 49.375,24.25 47.375,24.25 C44.875,24.25 42.5,24.625 40.25,25.25 L38.375,18.5 C40,17.625 41.125,15.875 41.125,14 C41.125,11.125 38.75,8.75 35.875,8.75 C33,8.75 30.625,11.125 30.625,14 C30.625,16.875 33,19.25 35.875,19.25 C35.875,19.25 35.875,19.25 35.875,19.25 L37.75,26.25 C34.625,27.5 31.75,29.375 29.25,31.625 L18.125,19.375 C19.5,18 20.375,16.125 20.375,14.125 C20.375,10.125 17.125,6.875 13.125,6.875 C9.125,6.875 5.875,10.125 5.875,14.125 C5.875,18.125 9.125,21.375 13.125,21.375 C14.125,21.375 15.125,21.125 16,20.75 L27.5,33.375 C25.125,36.125 23.25,39.25 22.125,42.75 L15.25,40.75 C15.25,40.75 15.25,40.75 15.25,40.625 C15.25,37.75 12.875,35.375 10,35.375 C7.125,35.375 5,37.875 5,40.75 C5,43.625 7.375,46 10.25,46 C12.25,46 13.875,44.875 14.75,43.25 L21.75,45.25 C21.375,47 21.125,48.875 21.125,50.875 C21.125,54.125 21.75,57.25 22.875,60.125 L13.75,63.25 C12.5,61.125 10.125,59.625 7.5,59.625 C3.5,59.625 0.25,62.875 0.25,66.875 C0.25,70.875 3.375,74.125 7.375,74.125 Z M23.5,82.875 C22,82.875 20.75,81.625 20.75,80.125 C20.75,78.625 22,77.375 23.5,77.375 C25,77.375 26.25,78.625 26.25,80.125 C26.125,81.625 25,82.875 23.5,82.875 Z M46.875,92.25 C46.875,94.875 44.75,97 42.125,97 C39.5,97 37.375,94.875 37.375,92.25 C37.375,89.625 39.5,87.5 42.125,87.5 C44.625,87.5 46.875,89.625 46.875,92.25 Z M65.375,84.75 C65.375,86.25 64.125,87.5 62.625,87.5 C61.125,87.5 59.875,86.25 59.875,84.75 C59.875,83.25 61.125,82 62.625,82 C64.125,82 65.375,83.25 65.375,84.75 Z M83.375,58.125 C84.875,58.125 86.125,59.375 86.125,60.875 C86.125,62.375 84.875,63.625 83.375,63.625 C81.875,63.625 80.625,62.375 80.625,60.875 C80.625,59.375 81.875,58.125 83.375,58.125 Z M87.25,32.125 C89.875,32.125 92,34.25 92,36.875 C92,39.5 89.875,41.625 87.25,41.625 C84.625,41.625 82.5,39.5 82.5,36.875 C82.5,34.25 84.625,32.125 87.25,32.125 Z M53.875,8.125 C53.875,5.5 56,3.375 58.625,3.375 C61.25,3.375 63.375,5.5 63.375,8.125 C63.375,10.75 61.25,12.875 58.625,12.875 C56,12.875 53.875,10.75 53.875,8.125 Z M33.375,14.125 C33.375,12.625 34.625,11.375 36.125,11.375 C37.625,11.375 38.875,12.625 38.875,14.125 C38.875,15.625 37.625,16.875 36.125,16.875 C34.5,16.875 33.375,15.625 33.375,14.125 Z M8.625,14.125 C8.625,11.5 10.75,9.375 13.375,9.375 C16,9.375 18.125,11.5 18.125,14.125 C18.125,16.75 16,18.875 13.375,18.875 C10.75,18.875 8.625,16.75 8.625,14.125 Z M10.25,43.5 C8.75,43.5 7.5,42.25 7.5,40.75 C7.5,39.25 8.75,38 10.25,38 C11.75,38 13,39.25 13,40.75 C13,42.25 11.75,43.5 10.25,43.5 Z M88.125,86.25 C88.125,88.875 86,91 83.375,91 C80.75,91 78.625,88.875 78.625,86.25 C78.625,83.625 80.75,81.5 83.375,81.5 C86,81.5 88.125,83.625 88.125,86.25 Z M77.25,14.25 C78.75,14.25 80,15.5 80,17 C80,18.5 78.75,19.75 77.25,19.75 C75.75,19.75 74.5,18.5 74.5,17 C74.625,15.5 75.75,14.25 77.25,14.25 Z M47.5,27 C60.625,27 71.375,37.75 71.375,50.875 C71.375,64 60.625,74.75 47.5,74.75 C34.375,74.75 23.625,64 23.625,50.875 C23.625,37.75 34.375,27 47.5,27 Z M7.375,62.125 C10,62.125 12.125,64.25 12.125,66.875 C12.125,69.5 10,71.625 7.375,71.625 C4.75,71.625 2.625,69.5 2.625,66.875 C2.625,64.25 4.75,62.125 7.375,62.125 Z" id="Shape"></path>
                    </g>
                </g>
            </g>
        </g>
    </g>
</svg>