<?xml version="1.0" encoding="UTF-8"?>
<svg width="29px" height="30px" viewBox="0 0 29 30" version="1.1" xmlns="http://www.w3.org/2000/svg" xmlns:xlink="http://www.w3.org/1999/xlink">
    <title>9F27CE67-0125-424F-956D-32B09BEC12C5</title>
    <defs>
        <filter id="filter-1">
            <feColorMatrix in="SourceGraphic" type="matrix" values="0 0 0 0 1.000000 0 0 0 0 1.000000 0 0 0 0 1.000000 0 0 0 1.000000 0"></feColorMatrix>
        </filter>
    </defs>
    <g id="Page-1" stroke="none" stroke-width="1" fill="none" fill-rule="evenodd">
        <g id="Integrated-Solution-Template" transform="translate(-960.000000, -1853.000000)">
            <g id="Group-12" transform="translate(368.000000, 1436.000000)">
                <g id="Group-21" transform="translate(50.000000, 161.000000)">
                    <g id="Group-15" transform="translate(0.000000, 238.000000)">
                        <g id="Molecule" transform="translate(495.000000, 11.000000)" filter="url(#filter-1)">
                            <g transform="translate(47.000000, 7.000000)">
                                <path d="M2.2125,22.2375 C3.4125,22.2375 4.3875,21.2625 4.3875,20.0625 C4.3875,19.9125 4.3875,19.8 4.35,19.6875 L7.125,18.7125 C7.6125,19.6875 8.25,20.55 9.075,21.225 L7.7625,22.6875 C7.5375,22.575 7.275,22.5 7.0125,22.5 C6.15,22.5 5.4375,23.2125 5.4375,24.075 C5.4375,24.9375 6.15,25.65 7.0125,25.65 C7.875,25.65 8.5875,24.9375 8.5875,24.075 C8.5875,23.775 8.475,23.475 8.325,23.2125 L9.675,21.7125 C10.575,22.35 11.5875,22.8 12.7125,23.025 L12.4125,25.5 C11.2875,25.6125 10.425,26.55 10.425,27.675 C10.425,28.875 11.4,29.85 12.6,29.85 C13.8,29.85 14.775,28.875 14.775,27.675 C14.775,26.6625 14.1,25.8 13.1625,25.575 L13.425,23.1375 C13.6875,23.175 13.95,23.175 14.2125,23.175 C15.2625,23.175 16.275,22.95 17.175,22.575 L17.925,24.1125 C17.5125,24.375 17.2125,24.8625 17.2125,25.425 C17.2125,26.2875 17.925,27 18.7875,27 C19.65,27 20.3625,26.2875 20.3625,25.425 C20.3625,24.5625 19.65,23.85 18.7875,23.85 C18.75,23.85 18.7125,23.85 18.675,23.85 L17.8875,22.2375 C18.5625,21.9 19.1625,21.45 19.725,20.925 L23.3625,24.375 C23.025,24.75 22.8,25.275 22.8,25.8375 C22.8,27.0375 23.775,28.0125 24.975,28.0125 C26.175,28.0125 27.15,27.0375 27.15,25.8375 C27.15,24.6375 26.175,23.6625 24.975,23.6625 C24.6,23.6625 24.225,23.775 23.925,23.925 L20.25,20.4 C20.8875,19.65 21.375,18.825 21.7125,17.8875 L23.4375,18.2625 C23.4375,19.125 24.15,19.8375 25.0125,19.8375 C25.875,19.8375 26.5875,19.125 26.5875,18.2625 C26.5875,17.4 25.875,16.6875 25.0125,16.6875 C24.4125,16.6875 23.8875,17.025 23.625,17.5125 L21.9,17.1375 C22.05,16.5375 22.1625,15.8625 22.1625,15.225 C22.1625,14.4375 22.05,13.6875 21.825,12.975 L24.3,12.15 C24.675,12.7875 25.3875,13.2375 26.175,13.2375 C27.375,13.2375 28.35,12.2625 28.35,11.0625 C28.35,9.8625 27.375,8.8875 26.175,8.8875 C24.975,8.8875 24,9.8625 24,11.1 C24,11.25 24,11.3625 24.0375,11.475 L21.5625,12.3 C21.15,11.325 20.5875,10.4625 19.875,9.7125 L22.6875,6.5625 C22.8375,6.6 23.025,6.6375 23.175,6.6375 C24.0375,6.6375 24.75,5.925 24.75,5.0625 C24.75,4.2 24.0375,3.4875 23.175,3.4875 C22.3125,3.4875 21.6,4.2 21.6,5.0625 C21.6,5.475 21.75,5.85 22.0125,6.1125 L19.275,9.15 C18.525,8.5125 17.625,8.025 16.6875,7.6875 L17.5125,4.5375 C17.5125,4.5375 17.55,4.5375 17.55,4.5375 C18.75,4.5375 19.725,3.5625 19.725,2.3625 C19.725,1.1625 18.75,0.1875 17.55,0.1875 C16.35,0.1875 15.375,1.1625 15.375,2.3625 C15.375,3.3 15.975,4.0875 16.8,4.3875 L15.975,7.4625 C15.4125,7.35 14.8125,7.275 14.2125,7.275 C13.4625,7.275 12.75,7.3875 12.075,7.575 L11.5125,5.55 C12,5.2875 12.3375,4.7625 12.3375,4.2 C12.3375,3.3375 11.625,2.625 10.7625,2.625 C9.9,2.625 9.1875,3.3375 9.1875,4.2 C9.1875,5.0625 9.9,5.775 10.7625,5.775 C10.7625,5.775 10.7625,5.775 10.7625,5.775 L11.325,7.875 C10.3875,8.25 9.525,8.8125 8.775,9.4875 L5.4375,5.8125 C5.85,5.4 6.1125,4.8375 6.1125,4.2375 C6.1125,3.0375 5.1375,2.0625 3.9375,2.0625 C2.7375,2.0625 1.7625,3.0375 1.7625,4.2375 C1.7625,5.4375 2.7375,6.4125 3.9375,6.4125 C4.2375,6.4125 4.5375,6.3375 4.8,6.225 L8.25,10.0125 C7.5375,10.8375 6.975,11.775 6.6375,12.825 L4.575,12.225 C4.575,12.225 4.575,12.225 4.575,12.1875 C4.575,11.325 3.8625,10.6125 3,10.6125 C2.1375,10.6125 1.5,11.3625 1.5,12.225 C1.5,13.0875 2.2125,13.8 3.075,13.8 C3.675,13.8 4.1625,13.4625 4.425,12.975 L6.525,13.575 C6.4125,14.1 6.3375,14.6625 6.3375,15.2625 C6.3375,16.2375 6.525,17.175 6.8625,18.0375 L4.125,18.975 C3.75,18.3375 3.0375,17.8875 2.25,17.8875 C1.05,17.8875 0.075,18.8625 0.075,20.0625 C0.075,21.2625 1.0125,22.2375 2.2125,22.2375 Z M7.05,24.8625 C6.6,24.8625 6.225,24.4875 6.225,24.0375 C6.225,23.5875 6.6,23.2125 7.05,23.2125 C7.5,23.2125 7.875,23.5875 7.875,24.0375 C7.8375,24.4875 7.5,24.8625 7.05,24.8625 Z M14.0625,27.675 C14.0625,28.4625 13.425,29.1 12.6375,29.1 C11.85,29.1 11.2125,28.4625 11.2125,27.675 C11.2125,26.8875 11.85,26.25 12.6375,26.25 C13.3875,26.25 14.0625,26.8875 14.0625,27.675 Z M19.6125,25.425 C19.6125,25.875 19.2375,26.25 18.7875,26.25 C18.3375,26.25 17.9625,25.875 17.9625,25.425 C17.9625,24.975 18.3375,24.6 18.7875,24.6 C19.2375,24.6 19.6125,24.975 19.6125,25.425 Z M25.0125,17.4375 C25.4625,17.4375 25.8375,17.8125 25.8375,18.2625 C25.8375,18.7125 25.4625,19.0875 25.0125,19.0875 C24.5625,19.0875 24.1875,18.7125 24.1875,18.2625 C24.1875,17.8125 24.5625,17.4375 25.0125,17.4375 Z M26.175,9.6375 C26.9625,9.6375 27.6,10.275 27.6,11.0625 C27.6,11.85 26.9625,12.4875 26.175,12.4875 C25.3875,12.4875 24.75,11.85 24.75,11.0625 C24.75,10.275 25.3875,9.6375 26.175,9.6375 Z M16.1625,2.4375 C16.1625,1.65 16.8,1.0125 17.5875,1.0125 C18.375,1.0125 19.0125,1.65 19.0125,2.4375 C19.0125,3.225 18.375,3.8625 17.5875,3.8625 C16.8,3.8625 16.1625,3.225 16.1625,2.4375 Z M10.0125,4.2375 C10.0125,3.7875 10.3875,3.4125 10.8375,3.4125 C11.2875,3.4125 11.6625,3.7875 11.6625,4.2375 C11.6625,4.6875 11.2875,5.0625 10.8375,5.0625 C10.35,5.0625 10.0125,4.6875 10.0125,4.2375 Z M2.5875,4.2375 C2.5875,3.45 3.225,2.8125 4.0125,2.8125 C4.8,2.8125 5.4375,3.45 5.4375,4.2375 C5.4375,5.025 4.8,5.6625 4.0125,5.6625 C3.225,5.6625 2.5875,5.025 2.5875,4.2375 Z M3.075,13.05 C2.625,13.05 2.25,12.675 2.25,12.225 C2.25,11.775 2.625,11.4 3.075,11.4 C3.525,11.4 3.9,11.775 3.9,12.225 C3.9,12.675 3.525,13.05 3.075,13.05 Z M26.4375,25.875 C26.4375,26.6625 25.8,27.3 25.0125,27.3 C24.225,27.3 23.5875,26.6625 23.5875,25.875 C23.5875,25.0875 24.225,24.45 25.0125,24.45 C25.8,24.45 26.4375,25.0875 26.4375,25.875 Z M23.175,4.275 C23.625,4.275 24,4.65 24,5.1 C24,5.55 23.625,5.925 23.175,5.925 C22.725,5.925 22.35,5.55 22.35,5.1 C22.3875,4.65 22.725,4.275 23.175,4.275 Z M14.25,8.1 C18.1875,8.1 21.4125,11.325 21.4125,15.2625 C21.4125,19.2 18.1875,22.425 14.25,22.425 C10.3125,22.425 7.0875,19.2 7.0875,15.2625 C7.0875,11.325 10.3125,8.1 14.25,8.1 Z M2.2125,18.6375 C3,18.6375 3.6375,19.275 3.6375,20.0625 C3.6375,20.85 3,21.4875 2.2125,21.4875 C1.425,21.4875 0.7875,20.85 0.7875,20.0625 C0.7875,19.275 1.425,18.6375 2.2125,18.6375 Z" id="Shape" fill="#9E9E9E" fill-rule="nonzero"></path>
                            </g>
                        </g>
                    </g>
                </g>
            </g>
        </g>
    </g>
</svg>