<?xml version="1.0" encoding="UTF-8"?>
<svg width="5px" height="9px" viewBox="0 0 5 9" version="1.1" xmlns="http://www.w3.org/2000/svg" xmlns:xlink="http://www.w3.org/1999/xlink">
    <title>39799D0A-B70B-437E-8D9D-4AF900D34836</title>
    <g id="Product-Comparison---D" stroke="none" stroke-width="1" fill="none" fill-rule="evenodd">
        <g id="Product-Comparison---4-product-table" transform="translate(-408.000000, -2203.000000)" fill="#004593">
            <g id="Group-10" transform="translate(135.000000, 370.000000)">
                <g id="Link" transform="translate(194.000000, 1830.000000)">
                    <path d="M77.2196699,5.20920944 C77.4900329,4.9517209 77.9154562,4.93191409 78.2096746,5.14978901 L78.2803301,5.20920944 L81.5,8.275 L84.7196699,5.20920944 C84.9900329,4.9517209 85.4154562,4.93191409 85.7096746,5.14978901 L85.7803301,5.20920944 C86.0506931,5.46669799 86.0714902,5.87186303 85.8427215,6.15207103 L85.7803301,6.21936199 L82.0303301,9.79079056 C81.7599671,10.0482791 81.3345438,10.0680859 81.0403254,9.85021099 L80.9696699,9.79079056 L77.2196699,6.21936199 C76.9267767,5.94041606 76.9267767,5.48815536 77.2196699,5.20920944 Z" id="Line-Copy" transform="translate(81.500000, 7.500000) scale(-1, 1) rotate(-270.000000) translate(-81.500000, -7.500000) "></path>
                </g>
            </g>
        </g>
    </g>
</svg>