<?xml version="1.0" encoding="UTF-8"?>
<svg width="26px" height="26px" viewBox="0 0 26 26" version="1.1" xmlns="http://www.w3.org/2000/svg" xmlns:xlink="http://www.w3.org/1999/xlink">
    <title>C4B46400-4C58-4143-A4CF-E63225E3EFFC</title>
    <g id="Events-D" stroke="none" stroke-width="1" fill="none" fill-rule="evenodd">
        <g id="Events-Detail" transform="translate(-934.000000, -821.000000)" fill="#424242" fill-rule="nonzero" stroke="#424242" stroke-width="0.5">
            <g id="Group-3" transform="translate(905.000000, 569.000000)">
                <g id="noun_Time_3325569" transform="translate(30.000000, 253.000000)">
                    <path d="M12,0.231724138 C5.50056071,0.231724138 0.231724138,5.50056071 0.231724138,12 C0.231724138,18.4994393 5.50056071,23.7682759 12,23.7682759 C18.4994393,23.7682759 23.7682759,18.4994393 23.7682759,12 C23.7614337,5.50339693 18.4966031,0.238566274 12,0.231724138 Z M12,22.5268966 C6.18615557,22.5268966 1.47310345,17.8138444 1.47310345,12 C1.47310345,6.18615557 6.18615557,1.47310345 12,1.47310345 C17.8138444,1.47310345 22.5268966,6.18615557 22.5268966,12 C22.520056,17.8110086 17.8110086,22.520056 12,22.5268966 Z M18.3351724,12 C18.3351724,12.3427974 18.0572802,12.6206897 17.7144828,12.6206897 L12,12.6206897 C11.6572026,12.6206897 11.3793103,12.3427974 11.3793103,12 L11.3793103,5.10206897 C11.3793103,4.75927153 11.6572026,4.48137931 12,4.48137931 C12.3427974,4.48137931 12.6206897,4.75927153 12.6206897,5.10206897 L12.6206897,11.3793103 L17.7144828,11.3793103 C18.0572802,11.3793103 18.3351724,11.6572026 18.3351724,12 Z" id="Shape"></path>
                </g>
            </g>
        </g>
    </g>
</svg>