<?xml version="1.0" encoding="UTF-8"?>
<svg width="29px" height="21px" viewBox="0 0 29 21" version="1.1" xmlns="http://www.w3.org/2000/svg" xmlns:xlink="http://www.w3.org/1999/xlink">
    <title>7AABD0DD-4206-4F6E-B434-076AE2471952</title>
    <g id="Navigation-M" stroke="none" stroke-width="1" fill="none" fill-rule="evenodd">
        <g id="NavBar-Open-Account" transform="translate(-22.000000, -592.000000)" fill="#FFFFFF">
            <g id="Secondary" transform="translate(0.000000, 474.000000)">
                <g id="L3" transform="translate(0.000000, 69.000000)">
                    <g id="header/mobile/nav-item/L3-Copy" transform="translate(22.000000, 49.000000)">
                        <g id="icon/account/dashboard">
                            <path d="M14.0171951,0.00302756112 C13.9936953,0.00506849539 13.9703263,0.00840692174 13.9471951,0.0130275611 L4.11719507,1.99302756 C3.96568186,2.02446361 3.83068656,2.1097238 3.73719507,2.23302756 L0.127195068,6.97302756 C0.00429909318,7.13762377 -0.0321318182,7.35120298 0.0292510816,7.54723224 C0.0906339814,7.7432615 0.242371436,7.89791931 0.437195068,7.96302756 L3.51719507,8.95302756 L3.51719507,16.6430276 C3.52061761,16.9164897 3.69740736,17.1575666 3.95719507,17.2430276 L13.8771951,20.4430276 C14.0071046,20.4857599 14.1472856,20.4857599 14.2771951,20.4430276 L24.1971951,17.2430276 C24.4569828,17.1575666 24.6337725,16.9164897 24.6371951,16.6430276 L24.6371951,8.95302756 L27.7171951,7.96302756 C27.9120187,7.89791931 28.0637562,7.7432615 28.1251391,7.54723224 C28.186522,7.35120298 28.150091,7.13762377 28.0271951,6.97302756 L24.4171951,2.23302756 C24.3237036,2.1097238 24.1887083,2.02446361 24.0371951,1.99302756 L14.2071951,0.0130275611 C14.1447136,4.36185678e-05 14.0806729,-0.00312339985 14.0171951,0.00302756112 Z M14.0771951,1.29302756 L21.3871951,2.76302756 L14.0771951,4.46302756 L6.76719507,2.76302756 L14.0771951,1.29302756 Z M4.36719507,3.51302756 L13.2071951,5.57302756 L10.2971951,9.80302756 L1.68719507,7.03302756 L4.36719507,3.51302756 Z M23.7871951,3.51302756 L26.4671951,7.03302756 L17.8571951,9.80302756 L14.9471951,5.57302756 L23.7871951,3.51302756 Z M13.4371951,7.50302756 L13.4371951,18.9630276 L4.79719507,16.1730276 L4.79719507,9.37302756 L10.3571951,11.1630276 C10.6268243,11.2542451 10.9242956,11.1564463 11.0871951,10.9230276 L13.4371951,7.50302756 Z M14.7171951,7.50302756 L17.0671951,10.9230276 C17.2300945,11.1564463 17.5275659,11.2542451 17.7971951,11.1630276 L23.3571951,9.37302756 L23.3571951,16.1730276 L14.7171951,18.9630276 L14.7171951,7.50302756 Z" id="Shape"></path>
                        </g>
                    </g>
                </g>
            </g>
        </g>
    </g>
</svg>