<?xml version="1.0" encoding="UTF-8"?>
<svg width="32px" height="32px" viewBox="0 0 32 32" version="1.1" xmlns="http://www.w3.org/2000/svg" xmlns:xlink="http://www.w3.org/1999/xlink">
    <title>icon/order-history</title>
    <g id="icon/order-history" stroke="none" stroke-width="1" fill="none" fill-rule="evenodd">
        <g id="np_history_3051105_000000" transform="translate(3.000000, 3.000000)" fill="#000000" fill-rule="nonzero">
            <path d="M13,0.171052632 C9.74066053,0.177734289 6.60673684,1.42322632 4.23355263,3.65642105 L4.23355263,1.51826316 C4.23355263,0.927584211 3.75515263,0.449184211 3.16447368,0.449184211 C2.57379474,0.449184211 2.09539474,0.927584211 2.09539474,1.51826316 L2.09539474,6.31834211 C2.09539474,6.60164632 2.20764632,6.87426316 2.40809947,7.07470263 C2.60855263,7.27515579 2.88116263,7.38740737 3.16446,7.38740737 L7.96453895,7.38740737 C8.55521789,7.38740737 9.03361789,6.90900737 9.03361789,6.31832842 C9.03361789,5.72764947 8.55521789,5.24924947 7.96453895,5.24924947 L5.65532842,5.24924947 C8.05807053,2.97746526 11.3777232,1.94581263 14.6448284,2.45493368 C17.9135416,2.96408895 20.7613284,4.95657842 22.3596442,7.85096 C23.9579258,10.7468126 24.12631,14.2185653 22.8153284,17.2547495 C21.5043811,20.2909337 18.8623021,22.5495126 15.6591705,23.3726179 C12.4559363,24.1944574 9.05243368,23.4888789 6.44114421,21.4589495 C3.82858895,19.4303679 2.30372316,16.3071863 2.30919684,12.9997126 C2.30919684,12.4090337 1.83079684,11.9306337 1.24011789,11.9306337 C0.649438947,11.9306337 0.171038947,12.4090337 0.171038947,12.9997126 C0.171038947,16.4020521 1.52208105,19.6652916 3.92872316,22.0709758 C6.33413368,24.4777547 9.59740737,25.82866 12.9999863,25.82866 C16.4025653,25.82866 19.6655653,24.4776179 22.0712495,22.0709758 C24.4780284,19.6655653 25.8289337,16.4022916 25.8289337,12.9997126 C25.8289337,9.59713368 24.4778916,6.33413368 22.0712495,3.92844947 C19.6658389,1.52167053 16.4025653,0.170765263 12.9999863,0.170765263 L13,0.171052632 Z" id="Path"></path>
            <path d="M13,7.65460526 C12.4093211,7.65460526 11.9309211,8.13300526 11.9309211,8.72368421 L11.9309211,14.2079737 C11.9202303,14.7238 12.2810316,15.1741474 12.7861842,15.2770526 L18.4842895,16.4209842 L18.6981053,16.4209842 C19.2887842,16.4797853 19.8152842,16.0494921 19.8740921,15.4588132 C19.9329,14.8681342 19.5026,14.3416342 18.9119211,14.2828263 L14.0690789,13.3313632 L14.0690789,8.72354737 C14.0690789,8.44024316 13.9568274,8.16762632 13.7563742,7.96718684 C13.5559211,7.76673368 13.2833111,7.65448211 13.0000137,7.65448211 L13,7.65460526 Z" id="Path"></path>
        </g>
    </g>
</svg>
