<?xml version="1.0" encoding="UTF-8"?>
<svg width="25px" height="17px" viewBox="0 0 25 17" version="1.1" xmlns="http://www.w3.org/2000/svg" xmlns:xlink="http://www.w3.org/1999/xlink">
    <title>3B510650-E6F0-4348-A15C-533B085A0F35</title>
    <g id="Navigation-M" stroke="none" stroke-width="1" fill="none" fill-rule="evenodd">
        <g id="NavBar-Open-Account" transform="translate(-24.000000, -788.000000)" fill="#FFFFFF">
            <g id="Secondary" transform="translate(0.000000, 474.000000)">
                <g id="L3" transform="translate(0.000000, 69.000000)">
                    <g id="header/mobile/nav-item/L3-Copy-5" transform="translate(24.000000, 244.000000)">
                        <g id="icon/account/dashboard" transform="translate(0.000000, 1.000000)">
                            <path d="M22.1142458,0.0403631285 C23.2206704,0.0403631285 24.122905,0.942597765 24.1181751,2.04902235 L24.1181751,2.04902235 L24.1181751,14.9462291 C24.1181751,16.0526536 23.2159218,16.9548883 22.1094972,16.9548883 L22.1094972,16.9548883 L2.00865922,16.9548883 C0.902234637,16.9548883 1.51700874e-12,16.0526536 1.51700874e-12,14.9462291 L1.51700874e-12,14.9462291 L1.51700874e-12,2.04902235 C1.51700874e-12,0.942597765 0.902234637,0.0403631285 2.00865922,0.0403631285 L2.00865922,0.0403631285 Z M22.7837989,5.97611732 L1.33910615,5.97611732 L1.33910615,14.9462291 C1.33910615,15.3166201 1.63826816,15.6157821 2.00865922,15.6157821 L2.00865922,15.6157821 L22.1142458,15.6157821 C22.4846369,15.6157821 22.7837989,15.3166201 22.7837989,14.9462291 L22.7837989,14.9462291 L22.7837989,5.97611732 Z M18.9089385,8.54036313 C20.2195531,8.54036313 21.2879888,9.60879888 21.2879888,10.9194134 C21.2879888,12.2300279 20.2195531,13.2984637 18.9089385,13.2984637 C18.3960894,13.2984637 17.9069832,13.1322626 17.503352,12.8378492 C17.0997207,13.1322626 16.6106145,13.2984637 16.0977654,13.2984637 C14.7824022,13.2984637 13.7187151,12.2347765 13.7187151,10.9194134 C13.7187151,9.60879888 14.7871508,8.54036313 16.0977654,8.54036313 C16.6106145,8.54036313 17.0997207,8.70656425 17.503352,9.00097765 C17.9069832,8.70656425 18.3960894,8.54036313 18.9089385,8.54036313 Z M8.28631285,11.9593575 C8.65670391,11.9593575 8.95586592,12.2585196 8.95586592,12.6289106 C8.95586592,12.9993017 8.65670391,13.2984637 8.28631285,13.2984637 L8.28631285,13.2984637 L4.01256983,13.2984637 C3.64217877,13.2984637 3.34301676,12.9993017 3.34301676,12.6289106 C3.34301676,12.2585196 3.64217877,11.9593575 4.01256983,11.9593575 L4.01256983,11.9593575 Z M18.9089385,9.88421788 C18.5670391,9.88421788 18.2488827,10.0551676 18.0541899,10.3353352 C17.9307263,10.5157821 17.7217877,10.625 17.503352,10.625 C17.2849162,10.625 17.0759777,10.5157821 16.952514,10.3353352 C16.7578212,10.050419 16.4396648,9.88421788 16.0977654,9.88421788 C15.5231844,9.88421788 15.0578212,10.349581 15.0578212,10.924162 C15.0578212,11.498743 15.5231844,11.9641061 16.0977654,11.9641061 C16.4396648,11.9641061 16.7578212,11.7931564 16.952514,11.5129888 C17.0759777,11.3325419 17.2849162,11.223324 17.503352,11.223324 C17.7217877,11.223324 17.9307263,11.3325419 18.0541899,11.5129888 C18.2488827,11.797905 18.5670391,11.9641061 18.9089385,11.9641061 C19.4835196,11.9641061 19.9488827,11.498743 19.9488827,10.924162 C19.9488827,10.349581 19.4835196,9.88421788 18.9089385,9.88421788 Z M8.28631285,8.54511173 C8.65670391,8.54511173 8.95586592,8.84427374 8.95586592,9.2146648 C8.95586592,9.58505587 8.65670391,9.88421788 8.28631285,9.88421788 L8.28631285,9.88421788 L4.01256983,9.88421788 C3.64217877,9.88421788 3.34301676,9.58505587 3.34301676,9.2146648 C3.34301676,8.84427374 3.64217877,8.54511173 4.01256983,8.54511173 L4.01256983,8.54511173 Z M22.1094972,1.37946927 L2.00865922,1.37946927 C1.63826816,1.37946927 1.33910615,1.67863128 1.33910615,2.04902235 L1.33910615,2.04902235 L1.33910615,4.63701117 L22.7790503,4.63701117 L22.7790503,2.04902235 C22.7790503,1.67863128 22.4798883,1.37946927 22.1094972,1.37946927 L22.1094972,1.37946927 Z" id="Combined-Shape"></path>
                        </g>
                    </g>
                </g>
            </g>
        </g>
    </g>
</svg>