<?xml version="1.0" encoding="UTF-8"?>
<svg width="20px" height="23px" viewBox="0 0 20 23" version="1.1" xmlns="http://www.w3.org/2000/svg" xmlns:xlink="http://www.w3.org/1999/xlink">
    <title>9F6C0C22-67B1-425A-A165-F75F96B67D59</title>
    <g id="Page-1" stroke="none" stroke-width="1" fill="none" fill-rule="evenodd">
        <g id="FACSelect-Protocols-dropdown" transform="translate(-1073.000000, -471.000000)" fill-rule="nonzero">
            <g id="Mini-Cart" transform="translate(1049.000000, 384.000000)">
                <g id="337946" transform="translate(24.000000, 87.000000)">
                    <path d="M4.2525,0 C3.472875,0 2.835,0.637875 2.835,1.4175 L2.835,21.2625 C2.835,22.042125 3.472875,22.68 4.2525,22.68 L18.4275,22.68 C19.207125,22.68 19.845,22.042125 19.845,21.2625 L19.845,5.67 L14.175,0 L4.2525,0 Z" id="Path" fill="#E2E5E7"></path>
                    <path d="M15.5925,5.67 L19.845,5.67 L14.175,0 L14.175,4.2525 C14.175,5.032125 14.812875,5.67 15.5925,5.67 Z" id="Path" fill="#B0B7BD"></path>
                    <path d="M17.01,18.4275 C17.01,18.8173125 16.6910625,19.13625 16.30125,19.13625 L0.70875,19.13625 C0.3189375,19.13625 0,18.8173125 0,18.4275 L0,11.34 C0,10.9501875 0.3189375,10.63125 0.70875,10.63125 L16.30125,10.63125 C16.6910625,10.63125 17.01,10.9501875 17.01,11.34 L17.01,18.4275 Z" id="Path" fill="#DB6453"></path>
                    <g id="Group" transform="translate(3.056484, 13.023281)" fill="#FFFFFF">
                        <path d="M0.032956875,0.405405 C0.032956875,0.218295 0.180376875,0.014175 0.417808125,0.014175 L1.72686938,0.014175 C2.46396938,0.014175 3.12735938,0.507465 3.12735938,1.4529375 C3.12735938,2.3487975 2.46396938,2.8477575 1.72686938,2.8477575 L0.780688125,2.8477575 L0.780688125,3.5961975 C0.780688125,3.8456775 0.621928125,3.98671875 0.417808125,3.98671875 C0.230698125,3.98671875 0.032956875,3.8456775 0.032956875,3.5961975 L0.032956875,0.405405 L0.032956875,0.405405 Z M0.780688125,0.72788625 L0.780688125,2.13971625 L1.72686937,2.13971625 C2.10675937,2.13971625 2.40726938,1.8044775 2.40726938,1.4529375 C2.40726938,1.05674625 2.10675938,0.72788625 1.72686937,0.72788625 L0.780688125,0.72788625 Z" id="Shape"></path>
                        <path d="M4.23726188,3.98671875 C4.05015188,3.98671875 3.84603188,3.88465875 3.84603188,3.6358875 L3.84603188,0.416745 C3.84603188,0.21333375 4.05015188,0.065205 4.23726188,0.065205 L5.53498313,0.065205 C8.12475563,0.065205 8.06805562,3.98671875 5.58601313,3.98671875 L4.23726188,3.98671875 L4.23726188,3.98671875 Z M4.59447187,0.756945 L4.59447187,3.2956875 L5.53498313,3.2956875 C7.06517438,3.2956875 7.13321438,0.756945 5.53498313,0.756945 L4.59447187,0.756945 L4.59447187,0.756945 Z" id="Shape"></path>
                        <path d="M8.98659562,0.802305 L8.98659562,1.70312625 L10.4317369,1.70312625 C10.6358569,1.70312625 10.8399769,1.90724625 10.8399769,2.1049875 C10.8399769,2.2920975 10.6358569,2.4451875 10.4317369,2.4451875 L8.98659562,2.4451875 L8.98659562,3.63517875 C8.98659562,3.83362875 8.84555437,3.98601 8.64710437,3.98601 C8.39762437,3.98601 8.24524313,3.83362875 8.24524313,3.63517875 L8.24524313,0.41603625 C8.24524313,0.212625 8.39833313,0.06449625 8.64710437,0.06449625 L10.6365656,0.06449625 C10.8860456,0.06449625 11.0334656,0.212625 11.0334656,0.41603625 C11.0334656,0.59747625 10.8860456,0.80159625 10.6365656,0.80159625 L8.98659562,0.80159625 L8.98659562,0.802305 Z" id="Path"></path>
                    </g>
                </g>
            </g>
        </g>
    </g>
</svg>