<?xml version="1.0" encoding="UTF-8"?>
<svg width="14px" height="14px" viewBox="0 0 14 14" version="1.1" xmlns="http://www.w3.org/2000/svg" xmlns:xlink="http://www.w3.org/1999/xlink">
    <title>B15539F5-7839-4A29-87CF-FB8E0DE9F251</title>
    <g id="Page-1" stroke="none" stroke-width="1" fill="none" fill-rule="evenodd">
        <g id="My-account---grants-expanded-state" transform="translate(-535.000000, -744.000000)" fill="#004593">
            <g id="Right-Content" transform="translate(506.000000, 192.000000)">
                <g id="Card-2" transform="translate(0.000000, 446.000000)">
                    <g id="icon/plus" transform="translate(29.000000, 106.000000)">
                        <path d="M7,0 C7.51283584,0 7.93550716,0.38604019 7.99327227,0.883378875 L8,1 L8,13 C8,13.5522847 7.55228475,14 7,14 C6.48716416,14 6.06449284,13.6139598 6.00672773,13.1166211 L6,13 L6,1 C6,0.44771525 6.44771525,0 7,0 Z" id="Line"></path>
                        <path d="M13,6 C13.5522847,6 14,6.44771525 14,7 C14,7.51283584 13.6139598,7.93550716 13.1166211,7.99327227 L13,8 L1,8 C0.44771525,8 0,7.55228475 0,7 C0,6.48716416 0.38604019,6.06449284 0.883378875,6.00672773 L1,6 L13,6 Z" id="Line-9"></path>
                    </g>
                </g>
            </g>
        </g>
    </g>
</svg>