<?xml version="1.0" encoding="UTF-8"?>
<svg width="18px" height="18px" viewBox="0 0 18 18" version="1.1" xmlns="http://www.w3.org/2000/svg" xmlns:xlink="http://www.w3.org/1999/xlink">
    <title>Reload Inactive</title>
    <g id="Page-1" stroke="none" stroke-width="1" fill="none" fill-rule="evenodd">
        <g id="Laser-and-peak-emission-max" transform="translate(-929.000000, -330.000000)" fill="#BDBDBD" fill-rule="nonzero" stroke="#FFFFFF" stroke-width="0.5">
            <g id="Reload-Inactive" transform="translate(929.981899, 330.981728)">
                <path d="M8.01810066,0.000179605263 C5.98101349,0.00435564145 4.02231118,0.782788158 2.53907105,2.17853487 L2.53907105,0.842186184 C2.53907105,0.473011842 2.24007105,0.174011842 1.87089671,0.174011842 C1.50172237,0.174011842 1.20272237,0.473011842 1.20272237,0.842186184 L1.20272237,3.84223553 C1.20272237,4.01930066 1.27287961,4.18968618 1.39816283,4.31496086 C1.52344605,4.44024408 1.6938273,4.51040132 1.87088816,4.51040132 L4.8709375,4.51040132 C5.24011184,4.51040132 5.53911184,4.21140132 5.53911184,3.84222697 C5.53911184,3.47305263 5.24011184,3.17405263 4.8709375,3.17405263 L3.42768092,3.17405263 C4.92939474,1.7541875 7.00417763,1.10940461 9.04611842,1.42760526 C11.0890641,1.7458273 12.8689309,2.99113322 13.8678783,4.80012171 C14.8668043,6.61002961 14.9720444,8.779875 14.1526809,10.6774901 C13.3333388,12.5751053 11.6820395,13.9867171 9.68008224,14.5011579 C7.67806086,15.0148076 5.55087171,14.5738211 3.91881579,13.3051151 C2.28596875,12.0372516 1.33292763,10.0852632 1.33634868,8.01809211 C1.33634868,7.64891776 1.03734868,7.34991776 0.668174342,7.34991776 C0.299,7.34991776 0,7.64891776 0,8.01809211 C0,10.1445543 0.844401316,12.1840789 2.34855263,13.6876316 C3.85193421,15.1918684 5.89148026,16.0361842 8.01809211,16.0361842 C10.1447039,16.0361842 12.1840789,15.1917829 13.6876316,13.6876316 C15.1918684,12.18425 16.0361842,10.1447039 16.0361842,8.01809211 C16.0361842,5.89148026 15.1917829,3.85210526 13.6876316,2.34855263 C12.18425,0.844315789 10.1447039,0 8.01809211,0 L8.01810066,0.000179605263 Z" id="Path"></path>
            </g>
        </g>
    </g>
</svg>