<?xml version="1.0" encoding="UTF-8"?>
<svg width="20px" height="20px" viewBox="0 0 20 20" version="1.1" xmlns="http://www.w3.org/2000/svg" xmlns:xlink="http://www.w3.org/1999/xlink">
    <title>FFF507DB-E761-4A5B-B8EE-97053F1AD114</title>
    <g id="Navigation-M" stroke="none" stroke-width="1" fill="none" fill-rule="evenodd">
        <g id="NavBar-Open-Account" transform="translate(-26.000000, -690.000000)" fill="#FFFFFF">
            <g id="Secondary" transform="translate(0.000000, 474.000000)">
                <g id="L3" transform="translate(0.000000, 69.000000)">
                    <g id="header/mobile/nav-item/L3-Copy-3" transform="translate(26.000000, 147.000000)">
                        <g id="icon/account/dashboard">
                            <path d="M19.4140625,1.44348145 L16.8475342,1.44348145 C16.856842,1.1592102 16.86203,0.873260508 16.86203,0.5859375 C16.86203,0.262298594 16.5995789,0 16.2760925,0 L3.72390746,0 C3.40042113,0 3.13796996,0.262298594 3.13796996,0.5859375 C3.13796996,0.873260508 3.14315797,1.1592102 3.15246582,1.44348145 L0.5859375,1.44348145 C0.262298594,1.44348145 0,1.70578004 0,2.02941895 C0,4.65484617 0.686187734,7.13180543 1.93206789,9.00421141 C3.16360473,10.8552551 4.80407715,11.9169617 6.57623289,12.0202637 C6.97799684,12.457428 7.40264891,12.8138733 7.84500121,13.0857849 L7.84500121,15.6900024 L6.86203004,15.6900024 C5.67367555,15.6900024 4.70703125,16.6567993 4.70703125,17.8450012 L4.70703125,18.8279724 L4.66537477,18.8279724 C4.34173586,18.8279724 4.07943727,19.0904236 4.07943727,19.4139099 C4.07943727,19.7375488 4.34173586,19.9998474 4.66537477,19.9998474 L15.3346252,19.9998474 C15.6582641,19.9998474 15.9205627,19.7375488 15.9205627,19.4139099 C15.9205627,19.0904236 15.6582641,18.8279724 15.3346252,18.8279724 L15.2929688,18.8279724 L15.2929688,17.8450012 C15.2929688,16.6567993 14.3263245,15.6900024 13.13797,15.6900024 L12.1549988,15.6900024 L12.1549988,13.0857849 C12.5973511,12.8140259 13.0221558,12.457428 13.4239197,12.0202637 C15.1959229,11.9169617 16.8363953,10.8552551 18.0680847,9.00421141 C19.3139648,7.13180543 20,4.65484617 20,2.02941895 C20,1.70578004 19.7377014,1.44348145 19.4140625,1.44348145 Z M2.90771484,8.35510254 C1.88003539,6.81076051 1.27624512,4.79080199 1.18423461,2.61535645 L3.21792602,2.61535645 C3.42926023,5.2896118 4.05700684,7.76153563 5.03814695,9.72366332 C5.19439695,10.0361633 5.35781859,10.3314209 5.52734375,10.609436 C4.55276488,10.2413941 3.65081789,9.4720459 2.90771484,8.35510254 Z M14.1210938,17.8450012 L14.1210938,18.828125 L5.87890625,18.828125 L5.87890625,17.8450012 C5.87890625,17.303009 6.31988523,16.8618774 6.86203004,16.8618774 L13.13797,16.8618774 C13.6801148,16.8618774 14.1210938,17.303009 14.1210938,17.8450012 Z M10.9831238,15.6900024 L9.01687621,15.6900024 L9.01687621,13.5949707 C9.33898926,13.6798096 9.66720582,13.7239075 10,13.7239075 C10.3327942,13.7239075 10.6610107,13.6798096 10.9831238,13.5949707 L10.9831238,15.6900024 Z M11.3459778,12.2009277 C11.3195801,12.2117615 11.2942505,12.224884 11.269989,12.2393799 C10.8558655,12.4453735 10.4302979,12.5520325 10,12.5520325 C9.56985473,12.5520325 9.14443969,12.4453735 8.73046875,12.2396851 C8.70590211,12.224884 8.68041992,12.2117615 8.65371703,12.2006226 C8.19427492,11.9577027 7.74978637,11.5908813 7.32940672,11.1088562 C7.30728148,11.0772705 7.28240969,11.0481262 7.25479125,11.0215759 C6.83746336,10.526123 6.44485473,9.91668703 6.0862732,9.19952391 C5.00946047,7.04605102 4.38751219,4.21447754 4.31671141,1.171875 L15.6832886,1.171875 C15.6123352,4.21447754 14.990387,7.04620359 13.9137268,9.19952391 C13.5551453,9.91668703 13.1625366,10.526123 12.7453613,11.0215759 C12.7175903,11.0481262 12.6924133,11.0774231 12.6704407,11.1090088 C12.250061,11.5911865 11.8054199,11.9578552 11.3459778,12.2009277 Z M17.0922852,8.35510254 C16.3491821,9.4720459 15.4472351,10.2413941 14.4726563,10.609436 C14.6421814,10.3314209 14.805603,10.0361633 14.961853,9.72366332 C15.9429932,7.76153563 16.5705871,5.2896118 16.782074,2.61535645 L18.8157654,2.61535645 C18.7237549,4.79080199 18.1199646,6.81076051 17.0922852,8.35510254 Z" id="Shape"></path>
                        </g>
                    </g>
                </g>
            </g>
        </g>
    </g>
</svg>