<?xml version="1.0" encoding="UTF-8"?>
<svg width="27px" height="24px" viewBox="0 0 27 24" version="1.1" xmlns="http://www.w3.org/2000/svg" xmlns:xlink="http://www.w3.org/1999/xlink">
    <title>icon/Search</title>
    <g id="icon/Search" stroke="none" stroke-width="1" fill="none" fill-rule="evenodd">
        <g id="Search-icon" transform="translate(4.000000, 2.000000)" fill="#003595" fill-rule="nonzero">
            <g transform="translate(0.584795, 0.350877)">
                <path d="M7.23391813,14.4385965 C11.2129521,14.4385965 14.4385965,11.2129521 14.4385965,7.23391813 C14.4385965,3.25488414 11.2129521,0.0292397661 7.23391813,0.0292397661 C3.25488414,0.0292397661 0.0292397661,3.25488414 0.0292397661,7.23391813 C0.0292397661,11.2129521 3.25488414,14.4385965 7.23391813,14.4385965 Z M7.23391813,12.8947368 C4.10753428,12.8947368 1.57309942,10.360302 1.57309942,7.23391813 C1.57309942,4.10753428 4.10753428,1.57309942 7.23391813,1.57309942 C10.360302,1.57309942 12.8947368,4.10753428 12.8947368,7.23391813 C12.8947368,10.360302 10.360302,12.8947368 7.23391813,12.8947368 Z" id="Oval"></path>
                <path d="M11.1022877,12.8627186 L15.5857475,17.5417631 C15.8807027,17.8495853 16.3693503,17.8600161 16.6771725,17.5650609 C16.9849947,17.2701057 16.9954255,16.7814581 16.7004703,16.4736359 L12.2170105,11.7945914 C11.9220553,11.4867692 11.4334077,11.4763384 11.1255855,11.7712936 C10.8177633,12.0662488 10.8073325,12.5548964 11.1022877,12.8627186 Z" id="Path-3"></path>
            </g>
        </g>
    </g>
</svg>