<?xml version="1.0" encoding="UTF-8"?>
<svg width="20px" height="20px" viewBox="0 0 20 20" version="1.1" xmlns="http://www.w3.org/2000/svg" xmlns:xlink="http://www.w3.org/1999/xlink">
    <title>BE4DF51B-84B4-47CD-B50A-3E391B171A6D</title>
    <g id="Page-1" stroke="none" stroke-width="1" fill="none" fill-rule="evenodd">
        <g id="Header-Navigation-&amp;-Breadcrumbs" transform="translate(-346.000000, -1584.000000)" fill="#FFFFFF">
            <g id="header/mobile/bar" transform="translate(64.000000, 1561.000000)">
                <g id="icon/search" transform="translate(282.000000, 23.000000)">
                    <path d="M19.6671586,18.107492 L14.7625257,13.1962547 C17.2288178,9.98674937 16.982627,5.34957793 14.0228573,2.41441273 C12.4065042,0.796244832 10.3234191,0 8.21364327,0 C6.1038674,0 4.02067268,0.795147472 2.40442926,2.41441273 C-0.801476422,5.62391807 -0.801476422,10.8363808 2.40442926,14.0458861 C4.0207823,15.664054 6.1038674,16.4602989 8.21364327,16.4602989 C9.96701253,16.4602989 11.7215327,15.9116186 13.1741788,14.786385 L18.1056668,19.6710113 C18.3251065,19.8906974 18.5991445,20 18.8999225,20 C19.1739549,20 19.4758291,19.8906919 19.6941782,19.6710113 C20.1062956,19.2595011 20.1062956,18.5457778 19.6674172,18.107492 L19.6671586,18.107492 Z M8.330215,14.1666667 C6.75814917,14.1666667 5.31822599,13.5537756 4.19909123,12.4622499 C1.93363626,10.1980053 1.93363626,6.49583227 4.19909123,4.20441676 C5.29226654,3.11182552 6.75814917,2.5 8.330215,2.5 C9.90228084,2.5 11.342204,3.11289105 12.4613388,4.20441676 C13.5805268,5.297008 14.1666667,6.76210743 14.1666667,8.33333333 C14.1666667,9.90455924 13.553448,11.3437131 12.4613388,12.4622499 C11.3681635,13.58084 9.87626808,14.1666667 8.330215,14.1666667 Z" id="Shape"></path>
                </g>
            </g>
        </g>
    </g>
</svg>