<?xml version="1.0" encoding="UTF-8"?>
<svg width="101px" height="101px" viewBox="0 0 101 101" version="1.1" xmlns="http://www.w3.org/2000/svg" xmlns:xlink="http://www.w3.org/1999/xlink">
    <title>BBFAF205-8DC5-4FAF-B480-66D7EFDC52F7</title>
    <g id="Page-1" stroke="none" stroke-width="1" fill="none" fill-rule="evenodd">
        <g id="Integrated-Solution-Template" transform="translate(-658.000000, -1597.000000)" fill="#A3A3A3" fill-rule="nonzero">
            <g id="Group-12" transform="translate(368.000000, 1436.000000)">
                <g id="Group-21" transform="translate(50.000000, 161.000000)">
                    <g id="secure" transform="translate(240.000000, 0.000000)">
                        <path d="M76.9875,11.1384262 L51.675,0.13984391 C51.2446023,-0.0466146367 50.7553977,-0.0466146367 50.325,0.13984391 L25.0125,11.1384262 C24.397819,11.4047206 24,12.0070643 24,12.6728004 L24,38.9715732 C24.0091483,44.8817994 26.8702817,50.4299151 31.695,53.8931953 L49.1893125,66.4177765 C50.2697713,67.1940745 51.7302287,67.1940745 52.8106875,66.4177765 L70.305,53.8948704 C75.1297183,50.4315902 77.9908517,44.8834745 78,38.9732483 L78,12.6728004 C78,12.0070643 77.602181,11.4047206 76.9875,11.1384262 Z M74.625,38.9732483 C74.6172706,43.8073795 72.2769328,48.3452375 68.330625,51.1778889 L51,63.5852144 L33.669375,51.1778889 C29.7230671,48.3452375 27.3827294,43.8073795 27.375,38.9732483 L27.375,13.7683035 L51,3.50340669 L74.625,13.7683035 L74.625,38.9732483 Z" id="Shape"></path>
                        <path d="M50.3333333,8.14051301 L32,16.2463016 C31.3929077,16.5138702 31,17.1190958 31,17.7880173 L31,39.8113238 C31.0051433,43.5876067 32.8024607,47.1325562 35.8333333,49.3443775 L50.025,59.681951 C50.6071777,60.1060163 51.3928223,60.1060163 51.975,59.681951 L66.1666667,49.3443775 C69.1975393,47.1325562 70.9948567,43.5876067 71,39.8113238 L71,17.7880173 C71,17.1190958 70.6070923,16.5138702 70,16.2463016 L51.6666667,8.14051301 C51.2415825,7.95316233 50.7584175,7.95316233 50.3333333,8.14051301 Z M67.6666667,18.8870787 L67.6666667,39.8113238 C67.6615637,42.5060303 66.3789107,45.0353004 64.2166667,46.6143964 L51,56.2417035 L37.7833333,46.6143964 C35.6210893,45.0353004 34.3384363,42.5060303 34.3333333,39.8113238 L34.3333333,18.8870787 L51,11.5201691 L67.6666667,18.8870787 Z" id="Shape"></path>
                        <path d="M13.7881786,55.74393 L10.1808492,47.2094458 C9.4137215,45.4499217 7.77779796,44.2384448 5.88931519,44.0313667 C4.0008324,43.8242887 2.14669588,44.6530696 1.02534091,46.2055155 C-0.0960140647,47.7579617 -0.314226976,49.7982195 0.452900867,51.5577436 L6.98878801,66.1156756 C7.8705439,68.0864458 9.09719262,69.879412 10.6094594,71.407934 L20.8877631,81.81683 C20.3089052,82.4380571 19.9856593,83.2593262 19.9838461,84.1134067 L19.9838461,97.6226813 C19.9838461,99.4879229 21.4771946,101 23.3193333,101 L41.6645128,101 C43.5066515,101 45,99.4879229 45,97.6226813 L45,84.1134067 C45,82.2481651 43.5066515,80.7360881 41.6645128,80.7360881 L41.6645128,77.5934931 C41.7156123,73.5941951 40.4269989,69.6953484 38.0088189,66.5327745 C36.5910682,64.6447115 34.65888,63.2177515 32.4502295,62.4276437 C28.9376916,60.9333389 25.7073301,58.8342659 22.9023974,56.2235093 C20.2987933,54.0522894 16.6000267,53.8576648 13.7881786,55.74393 Z M41.6645128,97.6226813 L23.3193333,97.6226813 L23.3193333,84.1134067 L41.6645128,84.1134067 L41.6645128,97.6226813 Z M35.4054711,68.64191 C37.3494139,71.2063852 38.3797412,74.3611272 38.3290256,77.5934931 L38.3290256,80.7360881 L24.5384538,80.7360881 L12.9676488,69.0201697 C11.738744,67.7776151 10.7415532,66.3205623 10.0240814,64.7191544 L3.48819421,50.1612223 C3.20926955,49.5398745 3.26118075,48.8176074 3.62601177,48.2436958 C3.9908428,47.6697843 4.61862499,47.3225853 5.29269278,47.3225853 C6.08594925,47.3219369 6.80285355,47.8012138 7.11386878,48.5401093 L10.8446112,57.3498451 C11.835287,59.7002947 13.2632468,61.8358456 15.0506605,63.6401011 L22.6689133,71.3555855 C23.0876412,71.7945637 23.7077139,71.9706165 24.2908061,71.8160782 C24.8738985,71.6615397 25.3292673,71.2004599 25.4818917,70.6100547 C25.634516,70.0196498 25.4606437,69.3918005 25.0271027,68.9678212 L17.40885,61.2523368 C16.6427941,60.4785461 15.9540145,59.6301061 15.3525221,58.7193478 C16.9541167,57.4714638 19.1947214,57.5092873 20.7543436,58.8105354 C23.8719276,61.7075233 27.4751675,64.0178141 31.3945478,65.6327191 C32.9914446,66.2207021 34.385003,67.2662178 35.4054711,68.64191 Z" id="Shape"></path>
                        <path d="M37,90 L35,90 C33.8954306,90 33,90.6715729 33,91.5 C33,92.3284271 33.8954306,93 35,93 L37,93 C38.1045694,93 39,92.3284271 39,91.5 C39,90.6715729 38.1045694,90 37,90 Z" id="Shape"></path>
                        <path d="M93.8254391,66.1640677 L100.50133,51.6263307 C101.32217,49.8633053 101.119098,47.799143 99.9700505,46.2260317 C98.8210026,44.6529202 96.90448,43.8152389 94.9560094,44.0344743 C93.0075388,44.2537098 91.32981,45.4958044 90.5667051,47.2840649 L86.8906215,55.77467 C84.008566,53.9002899 80.2286947,54.1054708 77.5709489,56.280565 C74.7059325,58.8877 71.4063744,60.983861 67.8185955,62.4760929 C65.5626341,63.2651047 63.5890571,64.6900852 62.1409372,66.575529 C59.6698612,69.7350789 58.3535824,73.6304851 58.4069357,77.6259629 L58.4069357,80.7641985 C56.5253371,80.7641985 55,82.274178 55,84.1368321 L55,97.6273664 C55,99.4900205 56.5253371,101 58.4069357,101 L77.145082,101 C79.0266806,101 80.5520176,99.4900205 80.5520176,97.6273664 L80.5520176,84.1368321 C80.5501656,83.2839364 80.2199956,82.4638065 79.6287381,81.8434412 L90.1272104,71.4489845 C91.6718709,69.922583 92.9247954,68.132104 93.8254391,66.1640677 Z M77.145082,97.6273664 L58.4069357,97.6273664 L58.4069357,84.1368321 L77.145082,84.1368321 L77.145082,97.6273664 Z M75.899847,80.7641985 L61.8138714,80.7641985 L61.8138714,77.6259629 C61.7624553,74.3986565 62.8148325,71.2489464 64.8000505,68.688484 C65.8400626,67.3155931 67.2603069,66.2710934 68.8883733,65.6817811 C72.8924638,64.0695838 76.5735271,61.7624588 79.7582016,58.8690613 C81.3494924,57.5597376 83.6445259,57.5156293 85.2859548,58.7628233 C84.6697827,59.6790232 83.9627439,60.5320332 83.1753581,61.3091617 L75.393917,69.0139431 C74.7483501,69.6756182 74.7575825,70.727384 75.4146676,71.3778533 C76.0717528,72.0283227 77.1342157,72.0374622 77.8026206,71.398395 L85.5840617,63.6936136 C87.409763,61.891861 88.8683107,59.7592726 89.8802076,57.4120836 L93.6908651,48.6128825 C94.009426,47.8759714 94.7413476,47.3982446 95.551052,47.3987341 C96.2395588,47.3987341 96.8807885,47.7454511 97.2534346,48.3185665 C97.6260804,48.891682 97.6791036,49.6129472 97.3942042,50.233433 L90.7183137,64.77117 C89.9854732,66.3703565 88.9669217,67.8253881 87.711693,69.0662189 L75.899847,80.7641985 Z" id="Shape"></path>
                        <path d="M66,90 L64,90 C62.8954306,90 62,90.6715729 62,91.5 C62,92.3284271 62.8954306,93 64,93 L66,93 C67.1045694,93 68,92.3284271 68,91.5 C68,90.6715729 67.1045694,90 66,90 Z" id="Shape"></path>
                        <path d="M41.7429216,35.7715055 C40.9855126,35.2034466 39.9110103,35.3569475 39.3429534,36.1143595 C38.7748968,36.8717715 38.928397,37.9462779 39.685806,38.514337 L46.5428579,43.6571461 C46.8395903,43.8796962 47.2005003,44 47.5714157,44 C47.6684687,43.9996772 47.7653431,43.991652 47.8611261,43.9760002 C48.3254003,43.8963342 48.736435,43.6291298 48.9976825,43.23715 L62.7117862,22.6659138 C63.0516944,22.1563557 63.0939376,21.5041651 62.8226032,20.9550159 C62.5512688,20.4058666 62.007579,20.0431875 61.3963364,20.0035962 C60.7850939,19.964005 60.1991608,20.2535164 59.8592526,20.7630744 L47.149707,39.8274676 L41.7429216,35.7715055 Z" id="Shape"></path>
                    </g>
                </g>
            </g>
        </g>
    </g>
</svg>