<?xml version="1.0" encoding="UTF-8"?>
<svg width="7px" height="11px" viewBox="0 0 7 11" version="1.1" xmlns="http://www.w3.org/2000/svg" xmlns:xlink="http://www.w3.org/1999/xlink">
    <title>51B7D7CC-8C3C-4C0B-9940-1B2DF76ED6E7</title>
    <g id="Home" stroke="none" stroke-width="1" fill="none" fill-rule="evenodd">
        <g id="Home-M" transform="translate(-292.000000, -170.000000)" fill="#004593">
            <g id="Spotlight-Caro" transform="translate(-0.000000, 67.000000)">
                <g id="COVID" transform="translate(0.000000, 72.000000)">
                    <g id="Link" transform="translate(217.000000, 28.000000)">
                        <path d="M73.249705,5.5115118 C73.5570342,5.18965112 74.0406248,5.16489261 74.3750711,5.43723626 L74.4553872,5.5115118 L78.1152767,9.34375 L81.7751661,5.5115118 C82.0824953,5.18965112 82.5660859,5.16489261 82.9005323,5.43723626 L82.9808484,5.5115118 C83.2881776,5.83337248 83.3118183,6.33982878 83.0517705,6.69008879 L82.9808484,6.77420248 L78.7181178,11.2384882 C78.4107886,11.5603489 77.927198,11.5851074 77.5927516,11.3127637 L77.5124355,11.2384882 L73.249705,6.77420248 C72.916765,6.42552008 72.916765,5.86019421 73.249705,5.5115118 Z" id="Line-Copy" transform="translate(78.115277, 8.375000) scale(-1, 1) rotate(-270.000000) translate(-78.115277, -8.375000) "></path>
                    </g>
                </g>
            </g>
        </g>
    </g>
</svg>