<?xml version="1.0" encoding="UTF-8"?>
<svg width="22px" height="22px" viewBox="0 0 22 22" version="1.1" xmlns="http://www.w3.org/2000/svg" xmlns:xlink="http://www.w3.org/1999/xlink">
    <title>32C06417-D349-4125-B718-BF1D6F6813F4</title>
    <g id="Navigation-M" stroke="none" stroke-width="1" fill="none" fill-rule="evenodd">
        <g id="NavBar-Open-Account" transform="translate(-25.000000, -881.000000)" fill="#FFFFFF">
            <g id="Secondary" transform="translate(0.000000, 474.000000)">
                <g id="L3" transform="translate(0.000000, 69.000000)">
                    <g id="header/mobile/nav-item/L3-Copy-7" transform="translate(25.000000, 338.000000)">
                        <g id="icon/account/dashboard">
                            <path d="M12.3849688,-5.71986902e-13 C12.7749102,-5.71986902e-13 13.1081328,0.28153125 13.1728438,0.665886719 L13.1728438,0.665886719 L13.4314727,2.19789453 C14.148707,2.39499219 14.8457461,2.68021875 15.4884297,3.03952344 L15.4884297,3.03952344 L16.7663633,2.12115234 C17.0838594,1.89290234 17.5209375,1.92809375 17.7976563,2.20507031 L17.7976563,2.20507031 L19.768332,4.17600391 C20.0429453,4.45061719 20.0805,4.88288281 19.8570195,5.20063672 L19.8570195,5.20063672 L18.9546328,6.48415625 C19.3232188,7.14892578 19.6066406,7.83797266 19.8015898,8.5421875 L19.8015898,8.5421875 L21.3338555,8.80081641 C21.7184688,8.86552734 21.999957,9.19844922 21.999957,9.58847656 L21.999957,9.58847656 L21.999957,12.358457 C21.999957,12.7491719 21.7173516,13.0823516 21.3322227,13.1465469 L21.3322227,13.1465469 L19.7749063,13.40625 C19.5775078,14.124043 19.2917227,14.8218555 18.9316445,15.4653555 L18.9316445,15.4653555 L19.8556016,16.7709609 C20.0804141,17.0884141 20.043375,17.5220547 19.7682461,17.7974414 L19.7682461,17.7974414 L17.7975703,19.7681172 C17.5232148,20.0429883 17.0909492,20.0799844 16.7729375,19.8568047 L16.7729375,19.8568047 L15.4896758,18.954418 C14.8246055,19.3230039 14.1358594,19.6064258 13.4316445,19.801375 L13.4316445,19.801375 L13.1727578,21.3336406 C13.1080469,21.7185117 12.7748672,22.000043 12.3849258,22.000043 L12.3849258,22.000043 L9.61494531,22.000043 C9.22504688,22.000043 8.89208203,21.7185117 8.82711328,21.3341992 L8.82711328,21.3341992 L8.56848438,19.8021914 C7.84910156,19.6045352 7.15047266,19.3182344 6.50645703,18.9575977 L6.50645703,18.9575977 L5.22719141,19.8570195 C4.9094375,20.0801992 4.47717188,20.0429453 4.20255859,19.768332 L4.20255859,19.768332 L2.231625,17.7976562 C1.95701172,17.5233008 1.91945703,17.0910352 2.1429375,16.7730234 L2.1429375,16.7730234 L3.04532422,15.4897617 C2.67673828,14.8246914 2.39305859,14.1356875 2.19836719,13.4317305 L2.19836719,13.4317305 L0.66584375,13.1728437 C0.28153125,13.1081328 5.86197757e-13,12.7749531 5.86197757e-13,12.3850117 L5.86197757e-13,12.3850117 L5.86197757e-13,9.61503125 C5.86197757e-13,9.22508984 0.28153125,8.89216797 0.66584375,8.82719922 L0.66584375,8.82719922 L2.19785156,8.56857031 C2.39550781,7.84944531 2.68155078,7.15055859 3.04244531,6.50654297 L3.04244531,6.50654297 L2.14302344,5.22727734 C1.91954297,4.90952344 1.95709766,4.47725781 2.23171094,4.20264453 L2.23171094,4.20264453 L4.20260156,2.231625 C4.47695703,1.95701172 4.90973828,1.92001562 5.22723438,2.1429375 L5.22723438,2.1429375 L6.51049609,3.04532422 C7.17556641,2.67673828 7.8643125,2.39305859 8.56852734,2.19836719 L8.56852734,2.19836719 L8.82715625,0.66584375 C8.892125,0.28153125 9.22504688,-5.71986902e-13 9.61498828,-5.71986902e-13 L9.61498828,-5.71986902e-13 Z M11.7095859,1.59805078 L10.2905,1.59805078 L10.0566641,2.98301953 C10.0020508,3.30691797 9.75489453,3.56421484 9.43340234,3.63184766 C8.56083594,3.815625 7.70696094,4.16560547 6.89566797,4.67272266 C6.62346094,4.84292187 6.27537109,4.83359766 6.01274609,4.64874609 L6.01274609,4.64874609 L4.857875,3.83667969 L3.83698047,4.85757422 L4.64904688,6.01244531 C4.83626172,6.27880859 4.84317969,6.63171094 4.66687891,6.90525 C4.17866797,7.66162891 3.82099609,8.53604297 3.63214844,9.43310156 C3.56447266,9.75459375 3.30717578,10.00175 2.98332031,10.0563633 L2.98332031,10.0563633 L1.59805078,10.290457 L1.59805078,11.709543 L2.98301953,11.9433789 C3.30691797,11.9979922 3.56421484,12.2454492 3.63184766,12.5666406 C3.815625,13.439207 4.16560547,14.293082 4.67272266,15.104375 C4.84292188,15.376582 4.83359766,15.7246719 4.64874609,15.9872969 L4.64874609,15.9872969 L3.83667969,17.1424258 L4.85753125,18.1630625 L6.01240234,17.3509961 C6.27876563,17.1640391 6.63192578,17.1568203 6.90520703,17.3334219 C7.66162891,17.821375 8.53578516,18.1793477 9.43335938,18.3684531 C9.75455078,18.4361289 10.001707,18.6936836 10.0563203,19.0172812 L10.0563203,19.0172812 L10.2904141,20.4019922 L11.7095,20.4019922 L11.9433359,19.0175391 C11.9979492,18.6936406 12.2451055,18.4360859 12.5665977,18.3684531 C13.4391641,18.1846758 14.2930391,17.8341797 15.104332,17.3273203 C15.3765391,17.1566055 15.7243711,17.1664453 15.9872539,17.3512969 L15.9872539,17.3512969 L17.1423828,18.1633633 L18.1616875,17.1443164 L17.3256445,15.9628047 C17.1373555,15.6966992 17.1298789,15.3424648 17.3064805,15.0684102 C17.7946914,14.3114297 18.1526641,13.4373164 18.3415117,12.5402578 C18.4091875,12.21825 18.6675156,11.970793 18.9919297,11.9167383 L18.9919297,11.9167383 L20.4016914,11.6818281 L20.4016914,10.2640312 L19.0172383,10.0301953 C18.6933398,9.975625 18.4357852,9.72842578 18.3681523,9.40723437 C18.184375,8.53415234 17.8338789,7.68053516 17.3270195,6.8695 C17.1565625,6.59703516 17.1661445,6.24920312 17.3509961,5.98632031 L17.3509961,5.98632031 L18.1633633,4.83119141 L17.1475391,3.81536719 L15.9942578,4.64423437 C15.7273789,4.83548828 15.3704805,4.84507031 15.0945352,4.66687891 C14.3384141,4.17866797 13.4642578,3.82099609 12.5666836,3.63214844 C12.2454492,3.56447266 11.9980352,3.30717578 11.9434219,2.98332031 L11.9434219,2.98332031 L11.7095859,1.59805078 Z M11,6.5786875 C13.4231797,6.5786875 15.3946719,8.55017969 15.3946719,10.9733594 C15.3946719,13.3965391 13.4229219,15.3680312 11,15.3680312 C8.57682031,15.3680312 6.60532813,13.3965391 6.60532813,10.9733594 C6.60532813,8.55017969 8.57682031,6.5786875 11,6.5786875 Z M11,8.17673828 C9.45785156,8.17673828 8.20337891,9.43121094 8.20337891,10.9733594 C8.20337891,12.5155078 9.45785156,13.7699805 11,13.7699805 C12.5421484,13.7699805 13.7966211,12.5155078 13.7966211,10.9733594 C13.7966211,9.43146875 12.5421484,8.17673828 11,8.17673828 Z" id="Combined-Shape"></path>
                        </g>
                    </g>
                </g>
            </g>
        </g>
    </g>
</svg>