<?xml version="1.0" encoding="UTF-8"?>
<svg width="27px" height="24px" viewBox="0 0 27 24" version="1.1" xmlns="http://www.w3.org/2000/svg" xmlns:xlink="http://www.w3.org/1999/xlink">
    <title>icon/Shipping icon</title>
    <g id="icon/Shipping-icon" stroke="none" stroke-width="1" fill="none" fill-rule="evenodd" stroke-linejoin="round">
        <g id="Shipping-icon" transform="translate(13.000000, 12.000000) scale(-1, 1) translate(-13.000000, -12.000000) translate(1.000000, 4.000000)" fill="#424242" fill-rule="nonzero" stroke="#424242">
            <path d="M8.72506667,0.1792 L8.72506667,2.79482667 L2.74373333,2.79482667 L0.220826667,7.13856 L0.220826667,13.38656 L2.29896,13.38656 C2.50104267,14.77824 3.69272,15.8094667 5.09896,15.8094667 C6.50416,15.8094667 7.69688,14.7782133 7.89896,13.38656 L15.81576,13.38656 C16.0178427,14.77824 17.21056,15.8094667 18.61576,15.8094667 C20.022,15.8094667 21.21472,14.7782133 21.41576,13.38656 L23.77304,13.38656 L23.77304,0.17936 L8.72506667,0.1792 Z M3.2,3.59493333 L8.72506667,3.59493333 L8.72506667,6.87733333 L1.296,6.87733333 L3.2,3.59493333 Z M1.02082667,7.67733333 L8.72509333,7.67733333 L8.72509333,12.5866667 L7.90426667,12.5866667 C7.702184,11.1960533 6.50946667,10.16376 5.10426667,10.16376 C3.69802667,10.16376 2.50634667,11.1960533 2.30426667,12.5866667 L1.02093333,12.5866667 L1.02082667,7.67733333 Z M5.10109333,15.0189333 C4.27818667,15.0189333 3.53650667,14.5230933 3.22088,13.7626933 C2.90629333,13.0012267 3.081296,12.12624 3.6636,11.5449867 C4.24589333,10.9626933 5.12194667,10.7897867 5.88234667,11.1054133 C6.64173333,11.42104 7.13754667,12.16376 7.1365083,12.9866667 C7.1365083,13.52624 6.92192267,14.0439467 6.53962667,14.4252 C6.15837333,14.8074933 5.64066667,15.02104 5.10109333,15.02104 L5.10109333,15.0189333 Z M18.6186933,15.0189333 C17.7957867,15.0189333 17.0530667,14.5230933 16.73848,13.7626933 C16.4238933,13.0012267 16.597856,12.12624 17.1812,11.5449867 C17.7634933,10.9626933 18.63848,10.7897867 19.3989067,11.1054133 C20.1593333,11.42104 20.6541067,12.16376 20.6530683,12.9866667 C20.6530683,13.52624 20.4384827,14.0439467 20.0572267,14.4252 C19.6759733,14.8074933 19.1582667,15.02104 18.6186933,15.02104 L18.6186933,15.0189333 Z M21.4208267,12.58664 C21.219784,11.1960267 20.0270667,10.1637333 18.6208267,10.1637333 C17.2156267,10.1637333 16.0229067,11.1960267 15.8208267,12.58664 L9.52509333,12.58664 L9.52509333,0.97944 L22.9792267,0.97944 L22.9792267,12.58664 L21.4208267,12.58664 Z" id="Shape" stroke-width="0.3"></path>
            <polygon id="Path" stroke-width="0.5" points="11.6989333 6.13333333 20.0530667 6.13333333 20.0530667 6.93333333 11.6989333 6.93333333"></polygon>
            <polygon id="Path" stroke-width="0.5" points="11.6989333 8.8 14.4530667 8.8 14.4530667 9.6 11.6989333 9.6"></polygon>
            <polygon id="Path" stroke-width="0.5" points="11.6989333 3.46666667 17.3864 3.46666667 17.3864 4.26666667 11.6989333 4.26666667"></polygon>
        </g>
    </g>
</svg>