<?xml version="1.0" encoding="UTF-8"?>
<svg width="22px" height="20px" viewBox="0 0 22 20" version="1.1" xmlns="http://www.w3.org/2000/svg" xmlns:xlink="http://www.w3.org/1999/xlink">
    <title>5331AF1D-320C-4837-AF41-EBA453D20DE6</title>
    <g id="Navigation-M" stroke="none" stroke-width="1" fill="none" fill-rule="evenodd">
        <g id="NavBar-Open-Account" transform="translate(-27.000000, -978.000000)" fill="#FFFFFF">
            <g id="Secondary" transform="translate(0.000000, 474.000000)">
                <g id="L3" transform="translate(0.000000, 69.000000)">
                    <g id="header/mobile/nav-item/L3-Copy-9" transform="translate(27.000000, 435.000000)">
                        <g id="icon/account/dashboard">
                            <g id="Group">
                                <path d="M13,0.3 C13.3543827,0.3 13.6472582,0.563343623 13.6936098,0.905014146 L13.7,1 L13.7,5.08393019 C13.7,5.47052952 13.3865993,5.78393019 13,5.78393019 C12.6456173,5.78393019 12.3527418,5.52058657 12.3063902,5.17891605 L12.3,5.08393019 L12.3,1.7 L1.7,1.7 L1.7,18.3 L12.3,18.3 L12.3,13.9758141 C12.3,13.6214313 12.5633436,13.3285558 12.9050141,13.2822042 L13,13.2758141 C13.3543827,13.2758141 13.6472582,13.5391577 13.6936098,13.8808282 L13.7,13.9758141 L13.7,19 C13.7,19.3543827 13.4366564,19.6472582 13.0949859,19.6936098 L13,19.7 L1,19.7 C0.645617286,19.7 0.35274177,19.4366564 0.306390175,19.0949859 L0.3,19 L0.3,1 C0.3,0.645617286 0.563343623,0.35274177 0.905014146,0.306390175 L1,0.3 L13,0.3 Z M17.3291594,5.37380909 L17.424078,5.43121616 L17.5108439,5.50502525 L21.0168253,9.0110067 C21.2628556,9.257037 21.2874587,9.64064458 21.0906344,9.91419033 L21.0168253,10.0009562 L17.5108439,13.5069376 C17.2374769,13.7803046 16.7942614,13.7803046 16.5208944,13.5069376 C16.2748641,13.2609073 16.2502611,12.8772998 16.4470853,12.603754 L16.5208944,12.5169881 L18.832,10.204 L7.49966867,10.1999999 C7.11306939,10.1998169 6.79981709,9.88626795 6.8,9.49966867 C6.80018307,9.11306939 7.11373205,8.79981709 7.50033133,8.8 L18.83,8.804 L16.5208944,6.49497475 C16.2748641,6.24894444 16.2502611,5.86533687 16.4470853,5.59179111 L16.5208944,5.50502525 C16.739588,5.28633165 17.0669846,5.24259293 17.3291594,5.37380909 Z" id="Combined-Shape"></path>
                            </g>
                        </g>
                    </g>
                </g>
            </g>
        </g>
    </g>
</svg>