<?xml version="1.0" encoding="UTF-8"?>
<svg width="16px" height="16px" viewBox="0 0 16 16" version="1.1" xmlns="http://www.w3.org/2000/svg" xmlns:xlink="http://www.w3.org/1999/xlink">
    <title>star/full</title>
    <g id="star/full" stroke="none" stroke-width="1" fill="none" fill-rule="evenodd">
        <path d="M15.9694398,6.07121839 C15.9047511,5.8640605 15.7338278,5.71333704 15.5281989,5.68261447 L10.6690065,4.93969523 L8.48999642,0.32216636 C8.39874993,0.125011593 8.20876466,0 7.99971915,0 C7.79067364,0 7.60068139,0.125009765 7.50944188,0.32216636 L5.33043182,4.93969523 L0.47123936,5.68261447 C0.264233404,5.71190332 0.0919521514,5.86263044 0.0272617005,6.07121839 C-0.0381086016,6.27908948 0.0163666501,6.50768002 0.166174464,6.65984817 L3.68536289,10.2543887 L2.86823411,15.3347676 C2.83691041,15.5454915 2.92066632,15.7569469 3.08409556,15.8826717 C3.24820291,16.0091116 3.46474248,16.0291123 3.64723893,15.9348196 L8.00525907,13.540288 L12.3632792,15.9348196 C12.5464555,16.0355421 12.7677558,16.0183978 12.9352606,15.8912448 C13.1027725,15.7640918 13.1872065,15.548359 13.1531616,15.334764 L12.3251378,10.254385 L15.8443262,6.65984451 C15.9893664,6.50483087 16.0377177,6.27623301 15.9696193,6.07121473 L15.9694398,6.07121839 Z" id="Path" fill="#F27707" fill-rule="nonzero"></path>
    </g>
</svg>