<?xml version="1.0" encoding="UTF-8"?>
<svg width="24px" height="26px" viewBox="0 0 24 26" version="1.1" xmlns="http://www.w3.org/2000/svg" xmlns:xlink="http://www.w3.org/1999/xlink">
    <title>icon/user guide</title>
    <defs>
        <polygon id="path-1" points="0.000215951351 0.0001 7.0186 0.0001 7.0186 12.9958 0.000215951351 12.9958"></polygon>
    </defs>
    <g id="Page-1" stroke="none" stroke-width="1" fill="none" fill-rule="evenodd">
        <g id="Laser-and-peak-emission-max" transform="translate(-1142.000000, -256.000000)">
            <g id="icon/user-guide" transform="translate(1142.000000, 256.000000)">
                <line x1="1.5" y1="18.5" x2="16.5" y2="3.5" id="Line" stroke="#FFFFFF" stroke-width="1.4" stroke-linecap="round"></line>
                <rect id="Rectangle" stroke="#004593" stroke-width="1.5" x="4.75" y="3.75" width="18.5" height="21.5" rx="2"></rect>
                <rect id="Rectangle-Copy" stroke="#004593" stroke-width="1.5" fill="#FFFFFF" x="0.75" y="0.75" width="18.5" height="21.5" rx="2"></rect>
                <g id="Group-3" transform="translate(6.000000, 6.000000)">
                    <mask id="mask-2" fill="white">
                        <use xlink:href="#path-1"></use>
                    </mask>
                    <g id="Clip-2"></g>
                    <path d="M4.0306,11.7178 C4.0306,11.9218 3.9886,12.1028 3.9046,12.2578 C3.8206,12.4138 3.7156,12.5458 3.5896,12.6548 C3.4636,12.7618 3.3196,12.8458 3.1576,12.9058 C2.9956,12.9658 2.8366,12.9958 2.6796,12.9958 C2.3566,12.9958 2.0476,12.8878 1.7536,12.6718 C1.4596,12.4558 1.3126,12.1448 1.3126,11.7368 C1.3126,11.3168 1.4536,10.9918 1.7356,10.7638 C2.0166,10.5358 2.3326,10.4218 2.6796,10.4218 C3.0286,10.4218 3.3406,10.5358 3.6166,10.7638 C3.8916,10.9918 4.0306,11.3108 4.0306,11.7178 M7.0186,3.2038 C7.0186,3.7198 6.8986,4.1948 6.6586,4.6258 C6.4186,5.0578 6.1186,5.4538 5.7586,5.8138 L4.4266,7.1458 C4.2826,7.2898 4.1656,7.4158 4.0756,7.5248 C3.9856,7.6328 3.9106,7.7428 3.8506,7.8578 C3.7906,7.9708 3.7486,8.0998 3.7246,8.2438 C3.7006,8.3878 3.6886,8.5558 3.6886,8.7478 C3.6886,8.8328 3.6946,8.9368 3.7066,9.0628 C3.7186,9.1888 3.7246,9.3128 3.7246,9.4318 C3.7246,9.5888 3.6456,9.6658 3.4906,9.6658 L2.0146,9.6658 C1.7746,9.6658 1.6186,9.5578 1.5466,9.3428 C1.5096,9.2348 1.4746,9.0668 1.4386,8.8388 C1.4026,8.6108 1.3846,8.3828 1.3846,8.1548 C1.3846,7.6978 1.4566,7.3178 1.6006,7.0108 C1.7446,6.7048 1.9846,6.3968 2.3206,6.0838 L3.6526,4.8238 C3.8686,4.6198 4.0576,4.4018 4.2186,4.1668 C4.3816,3.9328 4.4626,3.6838 4.4626,3.4208 C4.4626,2.9768 4.3116,2.6528 4.0116,2.4478 C3.7126,2.2438 3.3526,2.1418 2.9326,2.1418 C2.6566,2.1418 2.3326,2.1968 1.9606,2.3038 C1.5886,2.4118 1.2586,2.5558 0.9696,2.7368 C0.7426,2.8808 0.5866,2.8438 0.5026,2.6288 L0.0516,1.4228 C0.0046,1.2908 -0.0104,1.1818 0.0076,1.0978 C0.0256,1.0138 0.1006,0.9358 0.2316,0.8638 C0.7126,0.5888 1.2316,0.3758 1.7896,0.2248 C2.3466,0.0748 2.9026,-0.0002 3.4546,-0.0002 C3.9226,-0.0002 4.3726,0.0718 4.8036,0.2168 C5.2366,0.3608 5.6176,0.5708 5.9476,0.8458 C6.2776,1.1228 6.5386,1.4578 6.7306,1.8538 C6.9226,2.2498 7.0186,2.6998 7.0186,3.2038" id="Fill-1" fill="#004593" mask="url(#mask-2)"></path>
                </g>
            </g>
        </g>
    </g>
</svg>