<?xml version="1.0" encoding="UTF-8"?>
<svg width="28px" height="32px" viewBox="0 0 28 32" version="1.1" xmlns="http://www.w3.org/2000/svg" xmlns:xlink="http://www.w3.org/1999/xlink">
    <title>24458552-5FC2-4BC6-9177-A29311928A3A</title>
    <g id="Page-1" stroke="none" stroke-width="1" fill="none" fill-rule="evenodd">
        <g id="Scientific-Resources" transform="translate(-537.000000, -1171.000000)">
            <g id="Results" transform="translate(535.000000, 449.000000)">
                <g id="search-results/item/product-copy-5" transform="translate(2.000000, 688.000000)">
                    <g id="337946" transform="translate(0.000000, 34.000000)">
                        <path d="M5.86956522,0 C4.79347826,0 3.91304348,0.880434783 3.91304348,1.95652174 L3.91304348,29.3478261 C3.91304348,30.423913 4.79347826,31.3043478 5.86956522,31.3043478 L25.4347826,31.3043478 C26.5108696,31.3043478 27.3913043,30.423913 27.3913043,29.3478261 L27.3913043,7.82608696 L19.5652174,0 L5.86956522,0 Z" id="Path" fill="#E2E5E7" fill-rule="nonzero"></path>
                        <path d="M21.5217391,7.82608696 L27.3913043,7.82608696 L19.5652174,0 L19.5652174,5.86956522 C19.5652174,6.94565217 20.4456522,7.82608696 21.5217391,7.82608696 Z" id="Path" fill="#B0B7BD" fill-rule="nonzero"></path>
                        <path d="M23.4782609,25.4347826 C23.4782609,25.9728261 23.0380435,26.4130435 22.5,26.4130435 L0.97826087,26.4130435 C0.440217391,26.4130435 0,25.9728261 0,25.4347826 L0,15.6521739 C0,15.1141304 0.440217391,14.673913 0.97826087,14.673913 L22.5,14.673913 C23.0380435,14.673913 23.4782609,15.1141304 23.4782609,15.6521739 L23.4782609,25.4347826 Z" id="Path" fill="#84BD59" fill-rule="nonzero"></path>
                        <text id="MP4" font-family="FSAlbertPro-Bold, FS Albert Pro" font-size="7.82608696" font-weight="bold" letter-spacing="0.391304348" fill="#FFFFFF">
                            <tspan x="3.13043478" y="23.2173913">MP4</tspan>
                        </text>
                    </g>
                </g>
            </g>
        </g>
    </g>
</svg>