<?xml version="1.0" encoding="UTF-8"?>
<svg width="26px" height="17px" viewBox="0 0 26 17" version="1.1" xmlns="http://www.w3.org/2000/svg" xmlns:xlink="http://www.w3.org/1999/xlink">
    <title>07E59816-4E58-47E4-B983-54CDF555B2AE</title>
    <g id="SignUp---D" stroke="none" stroke-width="1" fill="none" fill-rule="evenodd">
        <g id="SignUp-01g-Form-Filled" transform="translate(-368.000000, -726.000000)" fill="#5F6062" stroke="#5F6062" stroke-width="0.25">
            <g id="Forms-/-InputField-Copy-6" transform="translate(135.000000, 700.000000)">
                <g id="Icons-/-Password-Show" transform="translate(234.000000, 27.000000)">
                    <path d="M12,6.21724894e-15 C5.70574498,6.21724894e-15 0,5.3622469 0,7.44827586 C0,9.53430482 5.70574498,14.8965517 12,14.8965517 C18.294255,14.8965517 24,9.53430482 24,7.44827586 C24,5.3622469 18.294255,6.21724894e-15 12,6.21724894e-15 Z M12,13.7835654 C6.0078468,13.7835654 1.12097151,8.6885242 1.12097151,7.44771965 C1.12097151,6.20691509 6.0077347,1.1118739 12,1.1118739 C17.9922653,1.1118739 22.8790285,6.20691509 22.8790285,7.44771965 C22.8790285,8.6885242 17.9922653,13.7835654 12,13.7835654 Z M12,2.80276768 C9.42086875,2.80276768 7.31904717,4.88857416 7.31904717,7.44805338 C7.31904717,10.0075326 9.42086875,12.0933391 12,12.0933391 C14.5791312,12.0933391 16.6809528,10.0075326 16.6809528,7.44805338 C16.6809528,4.88857416 14.5791312,2.80276768 12,2.80276768 Z M12,10.9807977 C10.0382999,10.9807977 8.44001868,9.39469484 8.44001868,7.44794213 C8.44001868,5.50118942 10.0382999,3.91508656 12,3.91508656 C13.9617001,3.91508656 15.5599813,5.50118942 15.5599813,7.44794213 C15.5599813,9.39469484 13.9617001,10.9807977 12,10.9807977 Z" id="Shape-Copy"></path>
                </g>
            </g>
        </g>
    </g>
</svg>