<?xml version="1.0" standalone="no"?>
<!DOCTYPE svg PUBLIC "-//W3C//DTD SVG 1.1//EN" "http://www.w3.org/Graphics/SVG/1.1/DTD/svg11.dtd" >
<svg xmlns="http://www.w3.org/2000/svg">
<metadata>
Copyright (c) 2014 by Jason Smith, Fontsmith Ltd. All rights reserved.
</metadata>
<defs>
<font id="FSAlbertArabicWeb-ExtraBold" horiz-adv-x="0" >
  <font-face 
    font-family="FS Albert Arabic Web ExtraBold"
    font-weight="800"
    font-stretch="normal"
    units-per-em="1000"
    panose-1="2 11 9 3 4 5 2 2 8 4"
    ascent="800"
    descent="-200"
    x-height="487"
    cap-height="694"
    bbox="-197 -598.45 1458 1127.29"
    underline-thickness="50"
    underline-position="-50"
    unicode-range="U+0008-FEFC"
  />
<missing-glyph horiz-adv-x="535" 
d="M20 693h495v-693h-495v693zM436 644h-337l169 -253zM466 94v505l-169 -252zM436 50l-168 252l-169 -252h337zM70 94l168 253l-168 252v-505z" />
    <glyph glyph-name="fi" unicode="fi" horiz-adv-x="624" 
d="M244 32q0 -16 -6 -24t-23 -8h-93q-28 0 -28 30v355h-50q-18 0 -23 6.5t-5 26.5v43q0 11 6 18.5t17 7.5h55v33q0 106 61 160t172 54q22 0 44.5 -1.5t43.5 -4.5t39 -7t30 -8q19 -7 21 -16t0 -23l-10 -61q-5 -26 -30 -20q-8 2 -22 4.5t-30.5 5t-33 4.5t-29.5 2
q-49 0 -77.5 -20t-28.5 -73v-29h291q14 0 21.5 -5t7.5 -21v-432q0 -29 -29 -29h-90q-16 0 -23.5 6t-7.5 23v356h-170v-353z" />
    <glyph glyph-name="fl" unicode="fl" horiz-adv-x="640" 
d="M244 32q0 -16 -6 -24t-23 -8h-93q-28 0 -28 30v355h-50q-18 0 -23 6.5t-5 26.5v43q0 11 6 18.5t17 7.5h55v33q0 48 14 87.5t41 67.5t67 43.5t92 15.5q36 0 75 -7t77 -22l89 11q14 2 22.5 -2.5t8.5 -21.5v-664q0 -28 -26 -28h-97q-11 0 -19 6.5t-8 20.5v566q-17 6 -42 11
t-52 5q-53 0 -72.5 -24t-19.5 -55v-43h87q11 0 17.5 -5t6.5 -16v-58q0 -11 -6.5 -17t-17.5 -6h-87v-353z" />
    <glyph glyph-name="uniFEFB" unicode="&#xfedf;&#xfe8e;" horiz-adv-x="674" arabic-form="isolated" 
d="M440 133q20 0 26 7t6 28v509q0 15 6 20t17 7l96 12q11 2 17 -5t6 -18v-560q0 -66 -39 -99.5t-125 -33.5h-384q-16 0 -21 7.5t-5 21.5v73q0 14 5.5 22.5t20.5 8.5h194l-132 466q-10 34 21 44l68 23q34 11 44 -24l144 -509h35z" />
    <glyph glyph-name="uniFEFC" unicode="&#xfee0;&#xfe8e;" horiz-adv-x="724" arabic-form="final" 
d="M440 133q20 0 26 7t6 28v509q0 15 6 20t17 7l96 12q11 2 17 -5t6 -18v-538q15 -13 39.5 -17.5t67.5 -4.5h3v-133h-3q-48 0 -80 13t-51 36q-37 -49 -140 -49h-384q-16 0 -21 7.5t-5 21.5v73q0 14 5.5 22.5t20.5 8.5h194l-132 466q-10 34 21 44l68 23q34 11 44 -24
l144 -509h35z" />
    <glyph glyph-name="uniFEF5" unicode="&#xfedf;&#xfe82;" horiz-adv-x="674" arabic-form="isolated" 
d="M440 133q20 0 26 7t6 28v509q0 15 6 20t17 7l96 12q11 2 17 -5t6 -18v-560q0 -66 -39 -99.5t-125 -33.5h-384q-16 0 -21 7.5t-5 21.5v73q0 14 5.5 22.5t20.5 8.5h194l-104 368q-10 34 21 44l68 23q34 11 44 -24l116 -411h35zM122 772q21 0 37 -6t32 -14t32.5 -14.5
t36.5 -6.5q15 0 25 6.5t21 21.5q9 12 19 1l26 -31q8 -9 0 -22q-37 -62 -92 -62q-20 0 -36.5 5.5t-31.5 13.5q-17 8 -33.5 15t-36.5 7q-15 0 -25 -6.5t-21 -21.5q-9 -12 -19 -1l-26 31q-8 9 0 22q37 62 92 62z" />
    <glyph glyph-name="uniFEF6" unicode="&#xfee0;&#xfe82;" horiz-adv-x="724" arabic-form="final" 
d="M440 133q20 0 26 7t6 28v509q0 15 6 20t17 7l96 12q11 2 17 -5t6 -18v-538q15 -13 39.5 -17.5t67.5 -4.5h3v-133h-3q-48 0 -80 13t-51 36q-37 -49 -140 -49h-384q-16 0 -21 7.5t-5 21.5v73q0 14 5.5 22.5t20.5 8.5h194l-104 368q-10 34 21 44l68 23q34 11 44 -24
l116 -411h35zM122 772q21 0 37 -6t32 -14t32.5 -14.5t36.5 -6.5q15 0 25 6.5t21 21.5q9 12 19 1l26 -31q8 -9 0 -22q-37 -62 -92 -62q-20 0 -36.5 5.5t-31.5 13.5q-17 8 -33.5 15t-36.5 7q-15 0 -25 -6.5t-21 -21.5q-9 -12 -19 -1l-26 31q-8 9 0 22q37 62 92 62z" />
    <glyph glyph-name="uniFEF7" unicode="&#xfedf;&#xfe84;" horiz-adv-x="674" arabic-form="isolated" 
d="M440 133q20 0 26 7t6 28v509q0 15 6 20t17 7l96 12q11 2 17 -5t6 -18v-560q0 -66 -39 -99.5t-125 -33.5h-384q-16 0 -21 7.5t-5 21.5v73q0 14 5.5 22.5t20.5 8.5h194l-104 368q-10 34 21 44l68 23q34 11 44 -24l116 -411h35zM112 721q-8 11 -12.5 26t-4.5 31
q0 45 31.5 72.5t78.5 27.5q21 0 43 -6.5t42 -20.5q7 -5 10 -11.5t-1 -14.5l-14 -30q-3 -8 -7 -11t-14 2q-29 15 -50 15q-19 0 -29.5 -11.5t-10.5 -30.5q0 -18 14 -38h102q11 0 14.5 -4t3.5 -13v-42q0 -9 -3.5 -13t-14.5 -4h-200q-11 0 -14.5 4.5t-3.5 13.5v42q0 9 3.5 12.5
t14.5 3.5h22z" />
    <glyph glyph-name="uniFEF8" unicode="&#xfee0;&#xfe84;" horiz-adv-x="724" arabic-form="final" 
d="M440 133q20 0 26 7t6 28v509q0 15 6 20t17 7l96 12q11 2 17 -5t6 -18v-538q15 -13 39.5 -17.5t67.5 -4.5h3v-133h-3q-48 0 -80 13t-51 36q-37 -49 -140 -49h-384q-16 0 -21 7.5t-5 21.5v73q0 14 5.5 22.5t20.5 8.5h194l-104 368q-10 34 21 44l68 23q34 11 44 -24
l116 -411h35zM112 721q-8 11 -12.5 26t-4.5 31q0 45 31.5 72.5t78.5 27.5q21 0 43 -6.5t42 -20.5q7 -5 10 -11.5t-1 -14.5l-14 -30q-3 -8 -7 -11t-14 2q-29 15 -50 15q-19 0 -29.5 -11.5t-10.5 -30.5q0 -18 14 -38h102q11 0 14.5 -4t3.5 -13v-42q0 -9 -3.5 -13t-14.5 -4
h-200q-11 0 -14.5 4.5t-3.5 13.5v42q0 9 3.5 12.5t14.5 3.5h22z" />
    <glyph glyph-name="uniFEF9" unicode="&#xfedf;&#xfe88;" horiz-adv-x="674" arabic-form="isolated" 
d="M440 133q20 0 26 7t6 28v509q0 15 6 20t17 7l96 12q11 2 17 -5t6 -18v-560q0 -66 -39 -99.5t-125 -33.5h-384q-16 0 -21 7.5t-5 21.5v73q0 14 5.5 22.5t20.5 8.5h194l-132 466q-10 34 21 44l68 23q34 11 44 -24l144 -509h35zM157 -267q-8 12 -12.5 27t-4.5 30
q0 45 31.5 72.5t78.5 27.5q21 0 43 -6.5t42 -20.5q7 -5 10 -11.5t-1 -14.5l-14 -30q-3 -8 -7 -11t-14 2q-29 15 -50 15q-19 0 -29.5 -11.5t-10.5 -30.5q0 -16 14 -38h102q11 0 14.5 -4t3.5 -13v-42q0 -9 -3.5 -13t-14.5 -4h-200q-11 0 -14.5 4.5t-3.5 13.5v42q0 9 3.5 12.5
t14.5 3.5h22z" />
    <glyph glyph-name="uniFEFA" unicode="&#xfee0;&#xfe88;" horiz-adv-x="724" arabic-form="final" 
d="M440 133q20 0 26 7t6 28v509q0 15 6 20t17 7l96 12q11 2 17 -5t6 -18v-538q15 -13 39.5 -17.5t67.5 -4.5h3v-133h-3q-48 0 -80 13t-51 36q-37 -49 -140 -49h-384q-16 0 -21 7.5t-5 21.5v73q0 14 5.5 22.5t20.5 8.5h194l-132 466q-10 34 21 44l68 23q34 11 44 -24
l144 -509h35zM157 -267q-8 12 -12.5 27t-4.5 30q0 45 31.5 72.5t78.5 27.5q21 0 43 -6.5t42 -20.5q7 -5 10 -11.5t-1 -14.5l-14 -30q-3 -8 -7 -11t-14 2q-29 15 -50 15q-19 0 -29.5 -11.5t-10.5 -30.5q0 -16 14 -38h102q11 0 14.5 -4t3.5 -13v-42q0 -9 -3.5 -13t-14.5 -4
h-200q-11 0 -14.5 4.5t-3.5 13.5v42q0 9 3.5 12.5t14.5 3.5h22z" />
    <glyph glyph-name="uni06440671" unicode="&#xfedf;&#xfb51;" horiz-adv-x="674" 
d="M440 133q20 0 26 7t6 28v509q0 15 6 20t17 7l96 12q11 2 17 -5t6 -18v-560q0 -66 -39 -99.5t-125 -33.5h-384q-16 0 -21 7.5t-5 21.5v73q0 14 5.5 22.5t20.5 8.5h194l-104 368q-10 34 21 44l68 23q34 11 44 -24l116 -411h35zM225 717q11 0 17 5t6 19q0 13 -7.5 17
t-18.5 4q-9 0 -24.5 -5t-27.5 -18v-22h55zM56 704q0 13 13 13h18v93q0 16 16 19l45 9q14 3 18 -3t4 -16v-16q17 12 33.5 19.5t36.5 7.5q13 0 28 -3.5t27.5 -13t20.5 -28t8 -48.5q0 -26 -5.5 -44t-18.5 -28.5t-35 -15t-54 -4.5h-142q-13 0 -13 13v46z" />
    <glyph glyph-name="uni06440671.fina" unicode="&#xfee0;&#xfb51;" horiz-adv-x="724" 
d="M440 133q20 0 26 7t6 28v509q0 15 6 20t17 7l96 12q11 2 17 -5t6 -18v-538q15 -13 39.5 -17.5t67.5 -4.5h3v-133h-3q-48 0 -80 13t-51 36q-37 -49 -140 -49h-384q-16 0 -21 7.5t-5 21.5v73q0 14 5.5 22.5t20.5 8.5h194l-104 368q-10 34 21 44l68 23q34 11 44 -24
l116 -411h35zM225 717q11 0 17 5t6 19q0 13 -7.5 17t-18.5 4q-9 0 -24.5 -5t-27.5 -18v-22h55zM56 704q0 13 13 13h18v93q0 16 16 19l45 9q14 3 18 -3t4 -16v-16q17 12 33.5 19.5t36.5 7.5q13 0 28 -3.5t27.5 -13t20.5 -28t8 -48.5q0 -26 -5.5 -44t-18.5 -28.5t-35 -15
t-54 -4.5h-142q-13 0 -13 13v46z" />
    <glyph glyph-name="uniFE88" unicode="&#x625;" horiz-adv-x="298" arabic-form="final" 
d="M200 168q0 -21 6 -28t26 -7h66v-133h-76q-86 0 -125 33.5t-39 99.5v544q0 15 6 20t17 7l96 12q11 2 17 -5t6 -18v-525zM50 -267q-8 12 -12.5 27t-4.5 30q0 45 31.5 72.5t78.5 27.5q21 0 43 -6.5t42 -20.5q7 -5 10 -11.5t-1 -14.5l-14 -30q-3 -8 -7 -11t-14 2
q-29 15 -50 15q-19 0 -29.5 -11.5t-10.5 -30.5q0 -16 14 -38h102q11 0 14.5 -4t3.5 -13v-42q0 -9 -3.5 -13t-14.5 -4h-200q-11 0 -14.5 4.5t-3.5 13.5v42q0 9 3.5 12.5t14.5 3.5h22z" />
    <glyph glyph-name="uniFE87" unicode="&#x625;" horiz-adv-x="258" arabic-form="isolated" 
d="M58 677q0 15 6 20t17 7l96 12q11 2 17 -5t6 -18v-665q0 -28 -26 -28h-89q-11 0 -19 6.5t-8 20.5v650zM50 -267q-8 12 -12.5 27t-4.5 30q0 45 31.5 72.5t78.5 27.5q21 0 43 -6.5t42 -20.5q7 -5 10 -11.5t-1 -14.5l-14 -30q-3 -8 -7 -11t-14 2q-29 15 -50 15
q-19 0 -29.5 -11.5t-10.5 -30.5q0 -16 14 -38h102q11 0 14.5 -4t3.5 -13v-42q0 -9 -3.5 -13t-14.5 -4h-200q-11 0 -14.5 4.5t-3.5 13.5v42q0 9 3.5 12.5t14.5 3.5h22z" />
    <glyph glyph-name="uniFE86" unicode="&#x624;" horiz-adv-x="559" arabic-form="final" 
d="M167 -105q52 31 83.5 54t48.5 51h-35q-103 0 -159.5 51t-56.5 160q0 46 14.5 84t42 65t66.5 42t88 15q46 0 84 -12t65.5 -36t42.5 -61t15 -88v-87h93v-133h-104q-8 -34 -24 -62t-43.5 -54.5t-67.5 -53t-97 -56.5q-26 -14 -41 13l-36 66q-8 14 -2.5 22.5t23.5 19.5z
M324 219q0 31 -14 48.5t-47 17.5q-35 0 -53 -20t-18 -54q0 -47 21.5 -62.5t67.5 -15.5h43v86zM178 599q-8 11 -12.5 26t-4.5 31q0 45 31.5 72.5t78.5 27.5q21 0 43 -6.5t42 -20.5q7 -5 10 -11.5t-1 -14.5l-14 -30q-3 -8 -7 -11t-14 2q-29 15 -50 15q-19 0 -29.5 -11.5
t-10.5 -30.5q0 -18 14 -38h102q11 0 14.5 -4t3.5 -13v-42q0 -9 -3.5 -13t-14.5 -4h-200q-11 0 -14.5 4.5t-3.5 13.5v42q0 9 3.5 12.5t14.5 3.5h22z" />
    <glyph glyph-name="uniFE85" unicode="&#x624;" horiz-adv-x="522" arabic-form="isolated" 
d="M167 -105q57 33 89 58t48 57q-17 -5 -35 -7.5t-33 -2.5q-41 0 -75 14t-59.5 41t-39.5 66.5t-14 89.5q0 46 14.5 84t42 65t66.5 42t88 15q46 0 84 -12t65.5 -36t42.5 -61t15 -88v-100q0 -65 -8.5 -111.5t-35 -84.5t-74 -73t-125.5 -77q-26 -14 -41 13l-36 66
q-8 14 -2.5 22.5t23.5 19.5zM324 220q0 29 -14 47t-47 18q-35 0 -53 -19.5t-18 -53.5q0 -80 72 -80q14 0 30 3t30 10v75zM178 599q-8 11 -12.5 26t-4.5 31q0 45 31.5 72.5t78.5 27.5q21 0 43 -6.5t42 -20.5q7 -5 10 -11.5t-1 -14.5l-14 -30q-3 -8 -7 -11t-14 2
q-29 15 -50 15q-19 0 -29.5 -11.5t-10.5 -30.5q0 -18 14 -38h102q11 0 14.5 -4t3.5 -13v-42q0 -9 -3.5 -13t-14.5 -4h-200q-11 0 -14.5 4.5t-3.5 13.5v42q0 9 3.5 12.5t14.5 3.5h22z" />
    <glyph glyph-name="uniFE84" unicode="&#x623;" horiz-adv-x="298" arabic-form="final" 
d="M200 168q0 -21 6 -28t26 -7h66v-133h-76q-86 0 -125 33.5t-39 99.5v544q0 15 6 20t17 7l96 12q11 2 17 -5t6 -18v-525zM52 874q-8 11 -12.5 26t-4.5 31q0 45 31.5 72.5t78.5 27.5q21 0 43 -6.5t42 -20.5q7 -5 10 -11.5t-1 -14.5l-14 -30q-3 -8 -7 -11t-14 2
q-29 15 -50 15q-19 0 -29.5 -11.5t-10.5 -30.5q0 -18 14 -38h102q11 0 14.5 -4t3.5 -13v-42q0 -9 -3.5 -13t-14.5 -4h-200q-11 0 -14.5 4.5t-3.5 13.5v42q0 9 3.5 12.5t14.5 3.5h22z" />
    <glyph glyph-name="uniFE83" unicode="&#x623;" horiz-adv-x="258" arabic-form="isolated" 
d="M58 677q0 15 6 20t17 7l96 12q11 2 17 -5t6 -18v-665q0 -28 -26 -28h-89q-11 0 -19 6.5t-8 20.5v650zM52 874q-8 11 -12.5 26t-4.5 31q0 45 31.5 72.5t78.5 27.5q21 0 43 -6.5t42 -20.5q7 -5 10 -11.5t-1 -14.5l-14 -30q-3 -8 -7 -11t-14 2q-29 15 -50 15
q-19 0 -29.5 -11.5t-10.5 -30.5q0 -18 14 -38h102q11 0 14.5 -4t3.5 -13v-42q0 -9 -3.5 -13t-14.5 -4h-200q-11 0 -14.5 4.5t-3.5 13.5v42q0 9 3.5 12.5t14.5 3.5h22z" />
    <glyph glyph-name="uniFE82" unicode="&#x622;" horiz-adv-x="298" arabic-form="final" 
d="M200 168q0 -21 6 -28t26 -7h66v-133h-76q-86 0 -125 33.5t-39 99.5v544q0 15 6 20t17 7l96 12q11 2 17 -5t6 -18v-525zM62 925q21 0 37 -6t32 -14t32.5 -14.5t36.5 -6.5q15 0 25 6.5t21 21.5q9 12 19 1l26 -31q8 -9 0 -22q-37 -62 -92 -62q-20 0 -36.5 5.5t-31.5 13.5
q-17 8 -33.5 15t-36.5 7q-15 0 -25 -6.5t-21 -21.5q-9 -12 -19 -1l-26 31q-8 9 0 22q37 62 92 62z" />
    <glyph glyph-name="uniFE81" unicode="&#x622;" horiz-adv-x="258" arabic-form="isolated" 
d="M58 677q0 15 6 20t17 7l96 12q11 2 17 -5t6 -18v-665q0 -28 -26 -28h-89q-11 0 -19 6.5t-8 20.5v650zM62 925q21 0 37 -6t32 -14t32.5 -14.5t36.5 -6.5q15 0 25 6.5t21 21.5q9 12 19 1l26 -31q8 -9 0 -22q-37 -62 -92 -62q-20 0 -36.5 5.5t-31.5 13.5q-17 8 -33.5 15
t-36.5 7q-15 0 -25 -6.5t-21 -21.5q-9 -12 -19 -1l-26 31q-8 9 0 22q37 62 92 62z" />
    <glyph glyph-name="uniFE80" unicode="&#x621;" horiz-adv-x="500" arabic-form="isolated" 
d="M307 218q-28 0 -40 -14t-12 -34q0 -24 12 -45h166q13 0 18 -8t5 -21v-68q0 -14 -5 -21t-19 -7h-366q-14 0 -18.5 7t-4.5 21v68q0 13 5 21t18 8h65q-18 37 -18 75q0 34 13.5 60t36 44t51 27.5t58.5 9.5q38 0 69.5 -8t58.5 -27q9 -6 10.5 -14.5t-1.5 -17.5l-26 -64
q-4 -10 -8.5 -11.5t-13.5 3.5q-29 16 -54 16z" />
    <glyph glyph-name="uniFE8A" unicode="&#x626;" horiz-adv-x="792" arabic-form="final" 
d="M638 -26q0 6 -3 12t-11 13t-23 14.5t-40 16.5l-102 35q-17 5 -21.5 14.5t0.5 24.5l20 63q6 18 16 23.5t29 -0.5l47 -16q35 -12 63 -20t53.5 -12.5t51.5 -6.5t59 -2h15v-133h-13q2 -6 2.5 -13.5t0.5 -10.5q0 -39 -22.5 -74.5t-68.5 -62.5t-116 -43t-166 -16
q-100 0 -170.5 19.5t-115 53.5t-65 81t-20.5 102q0 44 12.5 90.5t37.5 93.5q11 20 21 26t30 -3l61 -26q17 -8 20.5 -17.5t-5.5 -29.5q-15 -33 -24 -66t-9 -59q0 -31 12 -56t39.5 -43t71.5 -27.5t109 -9.5q108 0 166 17.5t58 47.5zM65 441q-8 11 -12.5 26t-4.5 31
q0 45 31.5 72.5t78.5 27.5q21 0 43 -6.5t42 -20.5q7 -5 10 -11.5t-1 -14.5l-14 -30q-3 -8 -7 -11t-14 2q-29 15 -50 15q-19 0 -29.5 -11.5t-10.5 -30.5q0 -18 14 -38h102q11 0 14.5 -4t3.5 -13v-42q0 -9 -3.5 -13t-14.5 -4h-200q-11 0 -14.5 4.5t-3.5 13.5v42q0 9 3.5 12.5
t14.5 3.5h22z" />
    <glyph glyph-name="uniFE8C" unicode="&#x626;" horiz-adv-x="388" arabic-form="medial" 
d="M388 0h-3q-48 0 -80 13t-51 36q-37 -49 -140 -49h-124q-4 0 -10 2t-11.5 9t-9.5 20t-4 35t4 35.5t9.5 20.5t11.5 9t10 2h114q20 0 26 7t6 28v223q0 15 8.5 20.5t22.5 5.5h82q14 0 21.5 -5t7.5 -21v-236q15 -13 39.5 -17.5t67.5 -4.5h3v-133zM125 599q-8 11 -12.5 26
t-4.5 31q0 45 31.5 72.5t78.5 27.5q21 0 43 -6.5t42 -20.5q7 -5 10 -11.5t-1 -14.5l-14 -30q-3 -8 -7 -11t-14 2q-29 15 -50 15q-19 0 -29.5 -11.5t-10.5 -30.5q0 -18 14 -38h102q11 0 14.5 -4t3.5 -13v-42q0 -9 -3.5 -13t-14.5 -4h-200q-11 0 -14.5 4.5t-3.5 13.5v42
q0 9 3.5 12.5t14.5 3.5h22z" />
    <glyph glyph-name="uniFE8B" unicode="&#x626;" horiz-adv-x="326" arabic-form="initial" 
d="M94 133q20 0 26 7t6 28v223q0 15 8.5 20.5t22.5 5.5h82q14 0 21.5 -5t7.5 -21v-258q0 -66 -39 -99.5t-125 -33.5h-114q-4 0 -10 2t-11.5 9t-9.5 20t-4 35t4 35.5t9.5 20.5t11.5 9t10 2h104zM115 599q-8 11 -12.5 26t-4.5 31q0 45 31.5 72.5t78.5 27.5q21 0 43 -6.5
t42 -20.5q7 -5 10 -11.5t-1 -14.5l-14 -30q-3 -8 -7 -11t-14 2q-29 15 -50 15q-19 0 -29.5 -11.5t-10.5 -30.5q0 -18 14 -38h102q11 0 14.5 -4t3.5 -13v-42q0 -9 -3.5 -13t-14.5 -4h-200q-11 0 -14.5 4.5t-3.5 13.5v42q0 9 3.5 12.5t14.5 3.5h22z" />
    <glyph glyph-name="uniFE89" unicode="&#x626;" horiz-adv-x="873" arabic-form="isolated" 
d="M521 245q0 -12 5 -22.5t16.5 -20t30.5 -20.5t48 -25q41 -20 71.5 -37.5t50.5 -37t29.5 -42t9.5 -51.5q0 -46 -27 -84.5t-75.5 -66t-117.5 -43t-153 -15.5q-100 0 -170.5 19.5t-115 53.5t-65 81t-20.5 102q0 44 12.5 90.5t37.5 93.5q11 20 21 26t30 -3l61 -26
q17 -8 20.5 -17.5t-5.5 -29.5q-15 -33 -24 -66t-9 -59q0 -31 12 -56t39.5 -43t71.5 -27.5t109 -9.5q108 0 166 24t58 54q0 7 -4.5 14t-16 15t-30.5 18t-49 24q-83 39 -122 82.5t-39 107.5q0 38 14.5 73.5t43.5 63t73.5 44t103.5 16.5q51 0 101.5 -14t93.5 -41
q12 -8 15.5 -16t-1.5 -19l-29 -65q-7 -15 -15.5 -17t-24.5 6q-42 20 -76.5 28.5t-60.5 8.5q-48 0 -71 -19.5t-23 -51.5zM65 441q-8 11 -12.5 26t-4.5 31q0 45 31.5 72.5t78.5 27.5q21 0 43 -6.5t42 -20.5q7 -5 10 -11.5t-1 -14.5l-14 -30q-3 -8 -7 -11t-14 2q-29 15 -50 15
q-19 0 -29.5 -11.5t-10.5 -30.5q0 -18 14 -38h102q11 0 14.5 -4t3.5 -13v-42q0 -9 -3.5 -13t-14.5 -4h-200q-11 0 -14.5 4.5t-3.5 13.5v42q0 9 3.5 12.5t14.5 3.5h22z" />
    <glyph glyph-name="uniFE9E" unicode="&#x62c;" horiz-adv-x="607" arabic-form="final" 
d="M483 -248q-29 0 -48.5 17.5t-19.5 46.5t19.5 46.5t48.5 17.5t48.5 -17.5t19.5 -46.5t-19.5 -46.5t-48.5 -17.5zM285 0q-33 0 -54.5 -5.5t-34 -15.5t-18 -24t-5.5 -30q0 -40 35.5 -63t102.5 -23h14q21 0 29.5 -8t8.5 -27v-46q0 -26 -5.5 -33.5t-21.5 -10.5q-20 -4 -51 -4
q-53 0 -99.5 12.5t-81 39t-55 67.5t-20.5 98q0 97 62.5 151.5t199.5 54.5h90q-14 14 -21.5 31.5t-15.5 52.5q-10 45 -30.5 67t-59.5 22q-47 0 -114 -38q-16 -9 -23.5 -6.5t-12.5 16.5l-28 65q-9 20 12 34q48 31 92 44.5t87 13.5q87 0 139.5 -42.5t73.5 -139.5
q9 -45 24 -71.5t44 -48.5h59v-133h-322z" />
    <glyph glyph-name="uniFEA0" unicode="&#x62c;" horiz-adv-x="581" arabic-form="medial" 
d="M-10 0q-4 0 -10 2t-11.5 9t-9.5 20t-4 35t4 35.5t9.5 20.5t11.5 9t10 2h369q-14 14 -21 31.5t-15 52.5q-11 45 -33.5 67t-61.5 22q-47 0 -114 -38q-16 -9 -23.5 -6.5t-12.5 16.5l-28 65q-9 20 12 34q48 31 92 44.5t87 13.5q87 0 139.5 -42.5t73.5 -139.5q10 -44 24.5 -71
t43.5 -49h59v-133h-591zM235 -242q-28 0 -46 16t-18 45t18 45t46 16t46 -16t18 -45t-18 -45t-46 -16z" />
    <glyph glyph-name="uniFE9F" unicode="&#x62c;" horiz-adv-x="561" arabic-form="initial" 
d="M-10 0q-4 0 -10 2t-11.5 9t-9.5 20t-4 35t4 35.5t9.5 20.5t11.5 9t10 2h368q-14 14 -21.5 31.5t-15.5 52.5q-10 45 -30.5 67t-59.5 22q-47 0 -114 -38q-16 -9 -23.5 -6.5t-12.5 16.5l-28 65q-9 20 12 34q48 31 92 44.5t87 13.5q87 0 139 -42.5t74 -139.5q9 -39 19.5 -63
t34.5 -45q14 -13 17.5 -21t3.5 -20v-73q0 -14 -5.5 -22.5t-19.5 -8.5h-517zM235 -242q-28 0 -46 16t-18 45t18 45t46 16t46 -16t18 -45t-18 -45t-46 -16z" />
    <glyph glyph-name="uniFE9D" unicode="&#x62c;" horiz-adv-x="584" arabic-form="isolated" 
d="M473 -248q-29 0 -48.5 17.5t-19.5 46.5t19.5 46.5t48.5 17.5t48.5 -17.5t19.5 -46.5t-19.5 -46.5t-48.5 -17.5zM285 0q-33 0 -54.5 -5.5t-34 -15.5t-18 -24t-5.5 -30q0 -40 35.5 -63t102.5 -23h14q21 0 29.5 -8t8.5 -27v-46q0 -26 -5.5 -33.5t-21.5 -10.5q-20 -4 -51 -4
q-52 0 -98.5 12.5t-81.5 39t-55.5 67.5t-20.5 98q0 97 62.5 151.5t199.5 54.5h90q-14 14 -21.5 31.5t-15.5 52.5q-10 45 -30.5 67t-59.5 22q-47 0 -114 -38q-16 -9 -23.5 -6.5t-12.5 16.5l-28 65q-9 20 12 34q48 31 92 44.5t87 13.5q87 0 139 -42.5t74 -139.5
q9 -39 19.5 -63t34.5 -45q14 -13 17.5 -21t3.5 -20v-73q0 -14 -5.5 -22.5t-19.5 -8.5h-245z" />
    <glyph glyph-name="uniFE9A" unicode="&#x62b;" horiz-adv-x="974" arabic-form="final" 
d="M840 49q-37 -49 -137 -49h-403q-125 0 -188.5 57t-63.5 158v118q0 15 8.5 20.5t22.5 5.5h83q14 0 21 -5t7 -21v-71q0 -36 7 -60.5t22.5 -39.5t41.5 -22t64 -7h366q20 0 25.5 7t5.5 28v223q0 15 8.5 20.5t22.5 5.5h82q14 0 21.5 -5t7.5 -21v-236q15 -13 39.5 -17.5
t67.5 -4.5h3v-133h-3q-48 0 -80 13t-51 36zM387 479q-28 0 -46 16t-18 45t18 45t46 16t46 -16t18 -45t-18 -45t-46 -16zM547 479q-28 0 -46 16t-18 45t18 45t46 16t46 -16t18 -45t-18 -45t-46 -16zM467 616q-28 0 -46 16t-18 45t18 45t46 16t46 -16t18 -45t-18 -45t-46 -16z
" />
    <glyph glyph-name="uniFE9C" unicode="&#x62b;" horiz-adv-x="388" arabic-form="medial" 
d="M388 0h-3q-48 0 -80 13t-51 36q-37 -49 -140 -49h-124q-4 0 -10 2t-11.5 9t-9.5 20t-4 35t4 35.5t9.5 20.5t11.5 9t10 2h114q20 0 26 7t6 28v223q0 15 8.5 20.5t22.5 5.5h82q14 0 21.5 -5t7.5 -21v-236q15 -13 39.5 -17.5t67.5 -4.5h3v-133zM126 537q-28 0 -46 16t-18 45
t18 45t46 16t46 -16t18 -45t-18 -45t-46 -16zM286 537q-28 0 -46 16t-18 45t18 45t46 16t46 -16t18 -45t-18 -45t-46 -16zM206 674q-28 0 -46 16t-18 45t18 45t46 16t46 -16t18 -45t-18 -45t-46 -16z" />
    <glyph glyph-name="uniFE9B" unicode="&#x62b;" horiz-adv-x="326" arabic-form="initial" 
d="M94 133q20 0 26 7t6 28v223q0 15 8.5 20.5t22.5 5.5h82q14 0 21.5 -5t7.5 -21v-258q0 -66 -39 -99.5t-125 -33.5h-114q-4 0 -10 2t-11.5 9t-9.5 20t-4 35t4 35.5t9.5 20.5t11.5 9t10 2h104zM111 537q-28 0 -46 16t-18 45t18 45t46 16t46 -16t18 -45t-18 -45t-46 -16z
M271 537q-28 0 -46 16t-18 45t18 45t46 16t46 -16t18 -45t-18 -45t-46 -16zM191 674q-28 0 -46 16t-18 45t18 45t46 16t46 -16t18 -45t-18 -45t-46 -16z" />
    <glyph glyph-name="uniFE99" unicode="&#x62b;" horiz-adv-x="922" arabic-form="isolated" 
d="M48 333q0 15 8.5 20.5t22.5 5.5h83q14 0 21 -5t7 -21v-71q0 -36 7 -60.5t22.5 -39.5t41.5 -22t64 -7h366q20 0 25.5 7t5.5 28v223q0 15 8.5 20.5t22.5 5.5h82q14 0 21.5 -5t7.5 -21v-258q0 -66 -38 -99.5t-123 -33.5h-403q-125 0 -188.5 57t-63.5 158v118zM387 479
q-28 0 -46 16t-18 45t18 45t46 16t46 -16t18 -45t-18 -45t-46 -16zM547 479q-28 0 -46 16t-18 45t18 45t46 16t46 -16t18 -45t-18 -45t-46 -16zM467 616q-28 0 -46 16t-18 45t18 45t46 16t46 -16t18 -45t-18 -45t-46 -16z" />
    <glyph glyph-name="uniFE96" unicode="&#x62a;" horiz-adv-x="974" arabic-form="final" 
d="M840 49q-37 -49 -137 -49h-403q-125 0 -188.5 57t-63.5 158v118q0 15 8.5 20.5t22.5 5.5h83q14 0 21 -5t7 -21v-71q0 -36 7 -60.5t22.5 -39.5t41.5 -22t64 -7h366q20 0 25.5 7t5.5 28v223q0 15 8.5 20.5t22.5 5.5h82q14 0 21.5 -5t7.5 -21v-236q15 -13 39.5 -17.5
t67.5 -4.5h3v-133h-3q-48 0 -80 13t-51 36zM373 479q-28 0 -46 16t-18 45t18 45t46 16t46 -16t18 -45t-18 -45t-46 -16zM533 479q-28 0 -46 16t-18 45t18 45t46 16t46 -16t18 -45t-18 -45t-46 -16z" />
    <glyph glyph-name="uniFE98" unicode="&#x62a;" horiz-adv-x="388" arabic-form="medial" 
d="M388 0h-3q-48 0 -80 13t-51 36q-37 -49 -140 -49h-124q-4 0 -10 2t-11.5 9t-9.5 20t-4 35t4 35.5t9.5 20.5t11.5 9t10 2h114q20 0 26 7t6 28v223q0 15 8.5 20.5t22.5 5.5h82q14 0 21.5 -5t7.5 -21v-236q15 -13 39.5 -17.5t67.5 -4.5h3v-133zM125 537q-28 0 -46 16t-18 45
t18 45t46 16t46 -16t18 -45t-18 -45t-46 -16zM285 537q-28 0 -46 16t-18 45t18 45t46 16t46 -16t18 -45t-18 -45t-46 -16z" />
    <glyph glyph-name="uniFE97" unicode="&#x62a;" horiz-adv-x="326" arabic-form="initial" 
d="M94 133q20 0 26 7t6 28v223q0 15 8.5 20.5t22.5 5.5h82q14 0 21.5 -5t7.5 -21v-258q0 -66 -39 -99.5t-125 -33.5h-114q-4 0 -10 2t-11.5 9t-9.5 20t-4 35t4 35.5t9.5 20.5t11.5 9t10 2h104zM109 537q-28 0 -46 16t-18 45t18 45t46 16t46 -16t18 -45t-18 -45t-46 -16z
M269 537q-28 0 -46 16t-18 45t18 45t46 16t46 -16t18 -45t-18 -45t-46 -16z" />
    <glyph glyph-name="uniFE95" unicode="&#x62a;" horiz-adv-x="922" arabic-form="isolated" 
d="M48 333q0 15 8.5 20.5t22.5 5.5h83q14 0 21 -5t7 -21v-71q0 -36 7 -60.5t22.5 -39.5t41.5 -22t64 -7h366q20 0 25.5 7t5.5 28v223q0 15 8.5 20.5t22.5 5.5h82q14 0 21.5 -5t7.5 -21v-258q0 -66 -38 -99.5t-123 -33.5h-403q-125 0 -188.5 57t-63.5 158v118zM386 479
q-28 0 -46 16t-18 45t18 45t46 16t46 -16t18 -45t-18 -45t-46 -16zM546 479q-28 0 -46 16t-18 45t18 45t46 16t46 -16t18 -45t-18 -45t-46 -16z" />
    <glyph glyph-name="uniFE90" unicode="&#x628;" horiz-adv-x="974" arabic-form="final" 
d="M840 49q-37 -49 -137 -49h-403q-125 0 -188.5 57t-63.5 158v118q0 15 8.5 20.5t22.5 5.5h83q14 0 21 -5t7 -21v-71q0 -36 7 -60.5t22.5 -39.5t41.5 -22t64 -7h366q20 0 25.5 7t5.5 28v223q0 15 8.5 20.5t22.5 5.5h82q14 0 21.5 -5t7.5 -21v-236q15 -13 39.5 -17.5
t67.5 -4.5h3v-133h-3q-48 0 -80 13t-51 36zM449 -242q-28 0 -46 16t-18 45t18 45t46 16t46 -16t18 -45t-18 -45t-46 -16z" />
    <glyph glyph-name="uniFE92" unicode="&#x628;" horiz-adv-x="388" arabic-form="medial" 
d="M388 0h-3q-48 0 -80 13t-51 36q-37 -49 -140 -49h-124q-4 0 -10 2t-11.5 9t-9.5 20t-4 35t4 35.5t9.5 20.5t11.5 9t10 2h114q20 0 26 7t6 28v223q0 15 8.5 20.5t22.5 5.5h82q14 0 21.5 -5t7.5 -21v-236q15 -13 39.5 -17.5t67.5 -4.5h3v-133zM76 -242q-28 0 -46 16t-18 45
t18 45t46 16t46 -16t18 -45t-18 -45t-46 -16z" />
    <glyph glyph-name="uniFE91" unicode="&#x628;" horiz-adv-x="326" arabic-form="initial" 
d="M94 133q20 0 26 7t6 28v223q0 15 8.5 20.5t22.5 5.5h82q14 0 21.5 -5t7.5 -21v-258q0 -66 -39 -99.5t-125 -33.5h-114q-4 0 -10 2t-11.5 9t-9.5 20t-4 35t4 35.5t9.5 20.5t11.5 9t10 2h104zM66 -242q-28 0 -46 16t-18 45t18 45t46 16t46 -16t18 -45t-18 -45t-46 -16z" />
    <glyph glyph-name="uniFE8F" unicode="&#x628;" horiz-adv-x="922" arabic-form="isolated" 
d="M48 333q0 15 8.5 20.5t22.5 5.5h83q14 0 21 -5t7 -21v-71q0 -36 7 -60.5t22.5 -39.5t41.5 -22t64 -7h366q20 0 25.5 7t5.5 28v223q0 15 8.5 20.5t22.5 5.5h82q14 0 21.5 -5t7.5 -21v-258q0 -66 -38 -99.5t-123 -33.5h-403q-125 0 -188.5 57t-63.5 158v118zM471 -242
q-28 0 -46 16t-18 45t18 45t46 16t46 -16t18 -45t-18 -45t-46 -16z" />
    <glyph glyph-name="uniFE8E" unicode="&#x627;" horiz-adv-x="298" arabic-form="final" 
d="M200 168q0 -21 6 -28t26 -7h66v-133h-76q-86 0 -125 33.5t-39 99.5v544q0 15 6 20t17 7l96 12q11 2 17 -5t6 -18v-525z" />
    <glyph glyph-name="uniFE8D" unicode="&#x627;" horiz-adv-x="258" arabic-form="isolated" 
d="M58 677q0 15 6 20t17 7l96 12q11 2 17 -5t6 -18v-665q0 -28 -26 -28h-89q-11 0 -19 6.5t-8 20.5v650z" />
    <glyph glyph-name="uniFEAE" unicode="&#x631;" horiz-adv-x="366" arabic-form="final" 
d="M262 0q-8 -33 -22.5 -61t-39.5 -53.5t-61.5 -50t-86.5 -51.5q-26 -14 -41 14l-36 66q-8 14 -2 23t23 19q40 23 66.5 44t41.5 46t21 57.5t6 77.5v260q0 15 8.5 20.5t22.5 5.5h82q14 0 21.5 -5t7.5 -21v-258h93v-133h-104z" />
    <glyph glyph-name="uniFEAD" unicode="&#x631;" horiz-adv-x="329" arabic-form="isolated" 
d="M273 118q0 -62 -8.5 -108.5t-32.5 -84t-67 -71t-113 -70.5q-26 -14 -41 14l-36 66q-8 14 -2 23t23 19q40 23 66.5 44t41.5 46t21 57.5t6 77.5v260q0 15 8.5 20.5t22.5 5.5h82q14 0 21.5 -5t7.5 -21v-273z" />
    <glyph glyph-name="uniFEAC" unicode="&#x630;" horiz-adv-x="606" arabic-form="final" 
d="M500 133h106v-133h-552q-15 0 -20 7.5t-5 21.5v73q0 14 5.5 22.5t19.5 8.5h304v81q0 54 -27 73t-86 19q-44 0 -79 -6t-52 -6q-11 0 -17.5 6.5t-6.5 20.5v60q0 14 4.5 20t14.5 10q29 11 70 17.5t85 6.5q123 0 179.5 -53t56.5 -166v-83zM273 545q-28 0 -46 16t-18 45t18 45
t46 16t46 -16t18 -45t-18 -45t-46 -16z" />
    <glyph glyph-name="uniFEAB" unicode="&#x630;" horiz-adv-x="548" arabic-form="isolated" 
d="M54 0q-15 0 -20 7.5t-5 21.5v73q0 14 5.5 22.5t19.5 8.5h258q29 0 37.5 9.5t8.5 36.5v35q0 54 -27 73t-87 19q-44 0 -78.5 -6t-51.5 -6q-11 0 -17.5 6.5t-6.5 20.5v60q0 14 4.5 20t14.5 10q29 11 70 17.5t85 6.5q123 0 179.5 -53t56.5 -166v-83q0 -133 -163 -133h-283z
M264 545q-28 0 -46 16t-18 45t18 45t46 16t46 -16t18 -45t-18 -45t-46 -16z" />
    <glyph glyph-name="uniFEAA" unicode="&#x62f;" horiz-adv-x="606" arabic-form="final" 
d="M500 133h106v-133h-552q-15 0 -20 7.5t-5 21.5v73q0 14 5.5 22.5t19.5 8.5h304v81q0 54 -27 73t-86 19q-44 0 -79 -6t-52 -6q-11 0 -17.5 6.5t-6.5 20.5v60q0 14 4.5 20t14.5 10q29 11 70 17.5t85 6.5q123 0 179.5 -53t56.5 -166v-83z" />
    <glyph glyph-name="uniFEA9" unicode="&#x62f;" horiz-adv-x="548" arabic-form="isolated" 
d="M54 0q-15 0 -20 7.5t-5 21.5v73q0 14 5.5 22.5t19.5 8.5h258q29 0 37.5 9.5t8.5 36.5v35q0 54 -27 73t-87 19q-44 0 -78.5 -6t-51.5 -6q-11 0 -17.5 6.5t-6.5 20.5v60q0 14 4.5 20t14.5 10q29 11 70 17.5t85 6.5q123 0 179.5 -53t56.5 -166v-83q0 -133 -163 -133h-283z
" />
    <glyph glyph-name="uniFEA6" unicode="&#x62e;" horiz-adv-x="607" arabic-form="final" 
d="M300 -161q32 0 70 7t87 21q19 5 26 2t12 -18l22 -59q7 -18 1 -27.5t-24 -17.5q-42 -17 -94 -27t-102 -10q-134 0 -201.5 57t-67.5 160q0 97 63 151.5t199 54.5h90q-14 14 -21.5 31.5t-15.5 52.5q-10 45 -30.5 67t-59.5 22q-47 0 -114 -38q-16 -9 -23.5 -6.5t-12.5 16.5
l-28 65q-9 20 12 34q48 31 92 44.5t87 13.5q87 0 139.5 -42.5t73.5 -139.5q9 -45 24 -71.5t44 -48.5h59v-133h-322q-63 0 -87.5 -21.5t-24.5 -53.5q0 -40 33 -63t94 -23zM297 545q-28 0 -46 16t-18 45t18 45t46 16t46 -16t18 -45t-18 -45t-46 -16z" />
    <glyph glyph-name="uniFEA8" unicode="&#x62e;" horiz-adv-x="581" arabic-form="medial" 
d="M-10 0q-4 0 -10 2t-11.5 9t-9.5 20t-4 35t4 35.5t9.5 20.5t11.5 9t10 2h369q-14 14 -21 31.5t-15 52.5q-11 45 -33.5 67t-61.5 22q-47 0 -114 -38q-16 -9 -23.5 -6.5t-12.5 16.5l-28 65q-9 20 12 34q48 31 92 44.5t87 13.5q87 0 139.5 -42.5t73.5 -139.5q10 -44 24.5 -71
t43.5 -49h59v-133h-591zM273 545q-28 0 -46 16t-18 45t18 45t46 16t46 -16t18 -45t-18 -45t-46 -16z" />
    <glyph glyph-name="uniFEA7" unicode="&#x62e;" horiz-adv-x="561" arabic-form="initial" 
d="M-10 0q-4 0 -10 2t-11.5 9t-9.5 20t-4 35t4 35.5t9.5 20.5t11.5 9t10 2h368q-14 14 -21.5 31.5t-15.5 52.5q-10 45 -30.5 67t-59.5 22q-47 0 -114 -38q-16 -9 -23.5 -6.5t-12.5 16.5l-28 65q-9 20 12 34q48 31 92 44.5t87 13.5q87 0 139 -42.5t74 -139.5q9 -39 19.5 -63
t34.5 -45q14 -13 17.5 -21t3.5 -20v-73q0 -14 -5.5 -22.5t-19.5 -8.5h-517zM244 545q-28 0 -46 16t-18 45t18 45t46 16t46 -16t18 -45t-18 -45t-46 -16z" />
    <glyph glyph-name="uniFEA5" unicode="&#x62e;" horiz-adv-x="584" arabic-form="isolated" 
d="M285 0q-63 0 -87.5 -21.5t-24.5 -53.5q0 -40 33 -63t94 -23t157 28q19 5 26 2t12 -18l22 -59q7 -18 1 -27.5t-24 -17.5q-42 -17 -94 -27t-102 -10q-134 0 -201.5 57t-67.5 160q0 97 63 151.5t199 54.5h90q-14 14 -21.5 31.5t-15.5 52.5q-10 45 -30.5 67t-59.5 22
q-47 0 -114 -38q-16 -9 -23.5 -6.5t-12.5 16.5l-28 65q-9 20 12 34q48 31 92 44.5t87 13.5q87 0 139 -42.5t74 -139.5q9 -39 19.5 -63t34.5 -45q14 -13 17.5 -21t3.5 -20v-73q0 -14 -5.5 -22.5t-19.5 -8.5h-245zM290 545q-28 0 -46 16t-18 45t18 45t46 16t46 -16t18 -45
t-18 -45t-46 -16z" />
    <glyph glyph-name="uniFEA2" unicode="&#x62d;" horiz-adv-x="607" arabic-form="final" 
d="M300 -161q32 0 70 7t87 21q19 5 26 2t12 -18l22 -59q7 -18 1 -27.5t-24 -17.5q-42 -17 -94 -27t-102 -10q-134 0 -201.5 57t-67.5 160q0 97 63 151.5t199 54.5h90q-14 14 -21.5 31.5t-15.5 52.5q-10 45 -30.5 67t-59.5 22q-47 0 -114 -38q-16 -9 -23.5 -6.5t-12.5 16.5
l-28 65q-9 20 12 34q48 31 92 44.5t87 13.5q87 0 139.5 -42.5t73.5 -139.5q9 -45 24 -71.5t44 -48.5h59v-133h-322q-63 0 -87.5 -21.5t-24.5 -53.5q0 -40 33 -63t94 -23z" />
    <glyph glyph-name="uniFEA4" unicode="&#x62d;" horiz-adv-x="581" arabic-form="medial" 
d="M-10 0q-4 0 -10 2t-11.5 9t-9.5 20t-4 35t4 35.5t9.5 20.5t11.5 9t10 2h369q-14 14 -21 31.5t-15 52.5q-11 45 -33.5 67t-61.5 22q-47 0 -114 -38q-16 -9 -23.5 -6.5t-12.5 16.5l-28 65q-9 20 12 34q48 31 92 44.5t87 13.5q87 0 139.5 -42.5t73.5 -139.5q10 -44 24.5 -71
t43.5 -49h59v-133h-591z" />
    <glyph glyph-name="uniFEA3" unicode="&#x62d;" horiz-adv-x="561" arabic-form="initial" 
d="M-10 0q-4 0 -10 2t-11.5 9t-9.5 20t-4 35t4 35.5t9.5 20.5t11.5 9t10 2h368q-14 14 -21.5 31.5t-15.5 52.5q-10 45 -30.5 67t-59.5 22q-47 0 -114 -38q-16 -9 -23.5 -6.5t-12.5 16.5l-28 65q-9 20 12 34q48 31 92 44.5t87 13.5q87 0 139 -42.5t74 -139.5q9 -39 19.5 -63
t34.5 -45q14 -13 17.5 -21t3.5 -20v-73q0 -14 -5.5 -22.5t-19.5 -8.5h-517z" />
    <glyph glyph-name="uniFEA1" unicode="&#x62d;" horiz-adv-x="584" arabic-form="isolated" 
d="M285 0q-63 0 -87.5 -21.5t-24.5 -53.5q0 -40 33 -63t94 -23t157 28q19 5 26 2t12 -18l22 -59q7 -18 1 -27.5t-24 -17.5q-42 -17 -94 -27t-102 -10q-134 0 -201.5 57t-67.5 160q0 97 63 151.5t199 54.5h90q-14 14 -21.5 31.5t-15.5 52.5q-10 45 -30.5 67t-59.5 22
q-47 0 -114 -38q-16 -9 -23.5 -6.5t-12.5 16.5l-28 65q-9 20 12 34q48 31 92 44.5t87 13.5q87 0 139 -42.5t74 -139.5q9 -39 19.5 -63t34.5 -45q14 -13 17.5 -21t3.5 -20v-73q0 -14 -5.5 -22.5t-19.5 -8.5h-245z" />
    <glyph glyph-name="uniFEBE" unicode="&#x636;" horiz-adv-x="1167" arabic-form="final" 
d="M947 197q0 58 -26 85.5t-67 27.5q-52 0 -116.5 -44t-124.5 -133h334v64zM610 0q-14 -111 -87.5 -165.5t-198.5 -54.5q-63 0 -115.5 14.5t-90.5 45t-59 78t-21 114.5q0 42 11.5 84.5t32.5 83.5q10 20 19.5 26t29.5 -3l56 -26q17 -8 21.5 -17.5t-3.5 -29.5
q-14 -34 -18.5 -63.5t-4.5 -51.5q0 -66 38.5 -96t107.5 -30q78 0 110.5 37t32.5 107v338q0 15 8 20.5t20 5.5h87q14 0 20.5 -5t6.5 -21v-79q59 68 122.5 97.5t129.5 29.5q53 0 95 -18t71 -50t44.5 -77.5t15.5 -99.5v-61h76v-133h-557zM865 549q-28 0 -46 16t-18 45t18 45
t46 16t46 -16t18 -45t-18 -45t-46 -16z" />
    <glyph glyph-name="uniFEC0" unicode="&#x636;" horiz-adv-x="783" arabic-form="medial" 
d="M88 133v258q0 15 8.5 20.5t22.5 5.5h82q14 0 21.5 -5t7.5 -21v-79q58 68 121.5 97.5t129.5 29.5q53 0 95 -18t71 -50t44.5 -77.5t15.5 -99.5v-61h76v-133h-793q-4 0 -10 2t-11.5 9t-9.5 20t-4 35t4 35.5t9.5 20.5t11.5 9t10 2h98zM470 310q-27 0 -57.5 -12t-62 -34.5
t-62 -55.5t-58.5 -75h333v64q0 58 -26 85.5t-67 27.5zM473 549q-28 0 -46 16t-18 45t18 45t46 16t46 -16t18 -45t-18 -45t-46 -16z" />
    <glyph glyph-name="uniFEBF" unicode="&#x636;" horiz-adv-x="747" arabic-form="initial" 
d="M-10 0q-4 0 -10 2t-11.5 9t-9.5 20t-4 35t4 35.5t9.5 20.5t11.5 9t10 2h98v258q0 15 8.5 20.5t22.5 5.5h82q14 0 21.5 -5t7.5 -21v-79q59 68 122.5 97.5t129.5 29.5q54 0 95.5 -18t70.5 -50t44 -77.5t15 -99.5t-11.5 -91t-38 -60t-71 -33t-110.5 -10h-486zM494 133
q39 0 54 12.5t15 49.5q0 57 -26 86t-66 29q-52 0 -116.5 -44t-124.5 -133h264zM475 549q-28 0 -46 16t-18 45t18 45t46 16t46 -16t18 -45t-18 -45t-46 -16z" />
    <glyph glyph-name="uniFEBD" unicode="&#x636;" horiz-adv-x="1130" arabic-form="isolated" 
d="M610 0q-14 -111 -87.5 -165.5t-198.5 -54.5q-63 0 -115.5 14.5t-90.5 45t-59 78t-21 114.5q0 42 11.5 84.5t32.5 83.5q10 20 19.5 26t29.5 -3l56 -26q17 -8 21.5 -17.5t-3.5 -29.5q-14 -34 -18.5 -63.5t-4.5 -51.5q0 -66 38.5 -96t107.5 -30q78 0 110.5 37t32.5 107v338
q0 15 8 20.5t20 5.5h87q14 0 20.5 -5t6.5 -21v-79q59 68 122.5 97.5t129.5 29.5q54 0 95.5 -18t70.5 -50t44 -77.5t15 -99.5t-11.5 -91t-38 -60t-71 -33t-110.5 -10h-249zM877 133q39 0 54 12.5t15 49.5q0 57 -26 86t-66 29q-52 0 -116.5 -44t-124.5 -133h264zM854 549
q-28 0 -46 16t-18 45t18 45t46 16t46 -16t18 -45t-18 -45t-46 -16z" />
    <glyph glyph-name="uniFEBA" unicode="&#x635;" horiz-adv-x="1167" arabic-form="final" 
d="M947 197q0 58 -26 85.5t-67 27.5q-52 0 -116.5 -44t-124.5 -133h334v64zM610 0q-14 -111 -87.5 -165.5t-198.5 -54.5q-63 0 -115.5 14.5t-90.5 45t-59 78t-21 114.5q0 42 11.5 84.5t32.5 83.5q10 20 19.5 26t29.5 -3l56 -26q17 -8 21.5 -17.5t-3.5 -29.5
q-14 -34 -18.5 -63.5t-4.5 -51.5q0 -66 38.5 -96t107.5 -30q78 0 110.5 37t32.5 107v338q0 15 8 20.5t20 5.5h87q14 0 20.5 -5t6.5 -21v-79q59 68 122.5 97.5t129.5 29.5q53 0 95 -18t71 -50t44.5 -77.5t15.5 -99.5v-61h76v-133h-557z" />
    <glyph glyph-name="uniFEBC" unicode="&#x635;" horiz-adv-x="783" arabic-form="medial" 
d="M88 133v258q0 15 8.5 20.5t22.5 5.5h82q14 0 21.5 -5t7.5 -21v-79q58 68 121.5 97.5t129.5 29.5q53 0 95 -18t71 -50t44.5 -77.5t15.5 -99.5v-61h76v-133h-793q-4 0 -10 2t-11.5 9t-9.5 20t-4 35t4 35.5t9.5 20.5t11.5 9t10 2h98zM470 310q-27 0 -57.5 -12t-62 -34.5
t-62 -55.5t-58.5 -75h333v64q0 58 -26 85.5t-67 27.5z" />
    <glyph glyph-name="uniFEBB" unicode="&#x635;" horiz-adv-x="747" arabic-form="initial" 
d="M-10 0q-4 0 -10 2t-11.5 9t-9.5 20t-4 35t4 35.5t9.5 20.5t11.5 9t10 2h98v258q0 15 8.5 20.5t22.5 5.5h82q14 0 21.5 -5t7.5 -21v-79q59 68 122.5 97.5t129.5 29.5q54 0 95.5 -18t70.5 -50t44 -77.5t15 -99.5t-11.5 -91t-38 -60t-71 -33t-110.5 -10h-486zM494 133
q39 0 54 12.5t15 49.5q0 57 -26 86t-66 29q-52 0 -116.5 -44t-124.5 -133h264z" />
    <glyph glyph-name="uniFEB9" unicode="&#x635;" horiz-adv-x="1130" arabic-form="isolated" 
d="M610 0q-14 -111 -87.5 -165.5t-198.5 -54.5q-63 0 -115.5 14.5t-90.5 45t-59 78t-21 114.5q0 42 11.5 84.5t32.5 83.5q10 20 19.5 26t29.5 -3l56 -26q17 -8 21.5 -17.5t-3.5 -29.5q-14 -34 -18.5 -63.5t-4.5 -51.5q0 -66 38.5 -96t107.5 -30q78 0 110.5 37t32.5 107v338
q0 15 8 20.5t20 5.5h87q14 0 20.5 -5t6.5 -21v-79q59 68 122.5 97.5t129.5 29.5q54 0 95.5 -18t70.5 -50t44 -77.5t15 -99.5t-11.5 -91t-38 -60t-71 -33t-110.5 -10h-249zM877 133q39 0 54 12.5t15 49.5q0 57 -26 86t-66 29q-52 0 -116.5 -44t-124.5 -133h264z" />
    <glyph glyph-name="uniFEB6" unicode="&#x634;" horiz-adv-x="1215" arabic-form="final" 
d="M1074 57q-20 -27 -50.5 -42t-69.5 -15q-36 0 -69 13t-60 42q-20 -26 -50 -40.5t-68 -14.5q-26 0 -49.5 5.5t-45.5 19.5q-7 -124 -81.5 -184.5t-206.5 -60.5q-63 0 -115.5 14.5t-90.5 45t-59 78t-21 114.5q0 42 11.5 84.5t32.5 83.5q10 20 19.5 26t29.5 -3l56 -26
q17 -8 21.5 -17.5t-3.5 -29.5q-14 -34 -18.5 -63.5t-4.5 -51.5q0 -66 38.5 -96t107.5 -30q78 0 110.5 37t32.5 107v248q0 15 8 20.5t20 5.5h87q14 0 20.5 -5t6.5 -21v-149q33 -23 63 -23q27 0 34 17t7 37v118q0 15 8 20.5t22 5.5h84q14 0 21 -5t7 -21v-146q17 -14 32 -20
t30 -6q26 0 34 17t8 37v208q0 15 7.5 20.5t19.5 5.5h87q14 0 21 -5t7 -21v-236q15 -13 39.5 -17.5t67.5 -4.5h3v-133h-3q-53 0 -86.5 15t-51.5 42zM709 537q-28 0 -46 16t-18 45t18 45t46 16t46 -16t18 -45t-18 -45t-46 -16zM869 537q-28 0 -46 16t-18 45t18 45t46 16
t46 -16t18 -45t-18 -45t-46 -16zM789 674q-28 0 -46 16t-18 45t18 45t46 16t46 -16t18 -45t-18 -45t-46 -16z" />
    <glyph glyph-name="uniFEB8" unicode="&#x634;" horiz-adv-x="862" arabic-form="medial" 
d="M235 48q-38 -48 -138 -48h-107q-4 0 -10 2t-11.5 9t-9.5 20t-4 35t4 35.5t9.5 20.5t11.5 9t10 2h96q20 0 26 7t6 28v133q0 15 8 20.5t20 5.5h87q14 0 20.5 -5t6.5 -21v-149q33 -23 63 -23q27 0 34 17t7 37v118q0 15 8 20.5t22 5.5h84q14 0 21 -5t7 -21v-146
q17 -14 32 -20t30 -6q26 0 34 17t8 37v208q0 15 7.5 20.5t19.5 5.5h87q14 0 21 -5t7 -21v-236q15 -13 39.5 -17.5t67.5 -4.5h3v-133h-3q-53 0 -86.5 15t-51.5 42q-20 -26 -50.5 -41.5t-69.5 -15.5q-36 0 -69 13t-60 42q-20 -26 -50 -40.5t-68 -14.5q-12 0 -28 2.5t-32 8.5
t-31.5 15t-27.5 22zM356 537q-28 0 -46 16t-18 45t18 45t46 16t46 -16t18 -45t-18 -45t-46 -16zM516 537q-28 0 -46 16t-18 45t18 45t46 16t46 -16t18 -45t-18 -45t-46 -16zM436 674q-28 0 -46 16t-18 45t18 45t46 16t46 -16t18 -45t-18 -45t-46 -16z" />
    <glyph glyph-name="uniFEB7" unicode="&#x634;" horiz-adv-x="808" arabic-form="initial" 
d="M235 48q-38 -48 -138 -48h-107q-4 0 -10 2t-11.5 9t-9.5 20t-4 35t4 35.5t9.5 20.5t11.5 9t10 2h96q20 0 26 7t6 28v133q0 15 8 20.5t20 5.5h87q14 0 20.5 -5t6.5 -21v-149q33 -23 63 -23q27 0 34 17t7 37v118q0 15 8 20.5t22 5.5h84q14 0 21 -5t7 -21v-146
q17 -14 32 -20t30 -6q26 0 34 17t8 37v208q0 15 7.5 20.5t19.5 5.5h87q14 0 21 -5t7 -21v-233q0 -34 -10.5 -63t-30.5 -50t-48 -33t-62 -12q-36 0 -69 13t-60 42q-20 -26 -50 -40.5t-68 -14.5q-12 0 -28 2.5t-32 8.5t-31.5 15t-27.5 22zM356 537q-28 0 -46 16t-18 45t18 45
t46 16t46 -16t18 -45t-18 -45t-46 -16zM516 537q-28 0 -46 16t-18 45t18 45t46 16t46 -16t18 -45t-18 -45t-46 -16zM436 674q-28 0 -46 16t-18 45t18 45t46 16t46 -16t18 -45t-18 -45t-46 -16z" />
    <glyph glyph-name="uniFEB5" unicode="&#x634;" horiz-adv-x="1161" arabic-form="isolated" 
d="M963 391q0 15 7.5 20.5t19.5 5.5h87q14 0 21 -5t7 -21v-233q0 -34 -10.5 -63t-30.5 -50t-48 -33t-62 -12q-36 0 -69 13t-60 42q-20 -26 -50 -40.5t-68 -14.5q-26 0 -49.5 5.5t-45.5 19.5q-7 -124 -81.5 -184.5t-206.5 -60.5q-63 0 -115.5 14.5t-90.5 45t-59 78t-21 114.5
q0 42 11.5 84.5t32.5 83.5q10 20 19.5 26t29.5 -3l56 -26q17 -8 21.5 -17.5t-3.5 -29.5q-14 -34 -18.5 -63.5t-4.5 -51.5q0 -66 38.5 -96t107.5 -30q78 0 110.5 37t32.5 107v248q0 15 8 20.5t20 5.5h87q14 0 20.5 -5t6.5 -21v-149q33 -23 63 -23q27 0 34 17t7 37v118
q0 15 8 20.5t22 5.5h84q14 0 21 -5t7 -21v-146q17 -14 32 -20t30 -6q26 0 34 17t8 37v208zM711 537q-28 0 -46 16t-18 45t18 45t46 16t46 -16t18 -45t-18 -45t-46 -16zM871 537q-28 0 -46 16t-18 45t18 45t46 16t46 -16t18 -45t-18 -45t-46 -16zM791 674q-28 0 -46 16
t-18 45t18 45t46 16t46 -16t18 -45t-18 -45t-46 -16z" />
    <glyph glyph-name="uniFEB2" unicode="&#x633;" horiz-adv-x="1215" arabic-form="final" 
d="M1074 57q-20 -27 -50.5 -42t-69.5 -15q-36 0 -69 13t-60 42q-20 -26 -50 -40.5t-68 -14.5q-26 0 -49.5 5.5t-45.5 19.5q-7 -124 -81.5 -184.5t-206.5 -60.5q-63 0 -115.5 14.5t-90.5 45t-59 78t-21 114.5q0 42 11.5 84.5t32.5 83.5q10 20 19.5 26t29.5 -3l56 -26
q17 -8 21.5 -17.5t-3.5 -29.5q-14 -34 -18.5 -63.5t-4.5 -51.5q0 -66 38.5 -96t107.5 -30q78 0 110.5 37t32.5 107v248q0 15 8 20.5t20 5.5h87q14 0 20.5 -5t6.5 -21v-149q33 -23 63 -23q27 0 34 17t7 37v118q0 15 8 20.5t22 5.5h84q14 0 21 -5t7 -21v-146q17 -14 32 -20
t30 -6q26 0 34 17t8 37v208q0 15 7.5 20.5t19.5 5.5h87q14 0 21 -5t7 -21v-236q15 -13 39.5 -17.5t67.5 -4.5h3v-133h-3q-53 0 -86.5 15t-51.5 42z" />
    <glyph glyph-name="uniFEB4" unicode="&#x633;" horiz-adv-x="862" arabic-form="medial" 
d="M235 48q-38 -48 -138 -48h-107q-4 0 -10 2t-11.5 9t-9.5 20t-4 35t4 35.5t9.5 20.5t11.5 9t10 2h96q20 0 26 7t6 28v133q0 15 8 20.5t20 5.5h87q14 0 20.5 -5t6.5 -21v-149q33 -23 63 -23q27 0 34 17t7 37v118q0 15 8 20.5t22 5.5h84q14 0 21 -5t7 -21v-146
q17 -14 32 -20t30 -6q26 0 34 17t8 37v208q0 15 7.5 20.5t19.5 5.5h87q14 0 21 -5t7 -21v-236q15 -13 39.5 -17.5t67.5 -4.5h3v-133h-3q-53 0 -86.5 15t-51.5 42q-20 -26 -50.5 -41.5t-69.5 -15.5q-36 0 -69 13t-60 42q-20 -26 -50 -40.5t-68 -14.5q-12 0 -28 2.5t-32 8.5
t-31.5 15t-27.5 22z" />
    <glyph glyph-name="uniFEB3" unicode="&#x633;" horiz-adv-x="808" arabic-form="initial" 
d="M235 48q-38 -48 -138 -48h-107q-4 0 -10 2t-11.5 9t-9.5 20t-4 35t4 35.5t9.5 20.5t11.5 9t10 2h96q20 0 26 7t6 28v133q0 15 8 20.5t20 5.5h87q14 0 20.5 -5t6.5 -21v-149q33 -23 63 -23q27 0 34 17t7 37v118q0 15 8 20.5t22 5.5h84q14 0 21 -5t7 -21v-146
q17 -14 32 -20t30 -6q26 0 34 17t8 37v208q0 15 7.5 20.5t19.5 5.5h87q14 0 21 -5t7 -21v-233q0 -34 -10.5 -63t-30.5 -50t-48 -33t-62 -12q-36 0 -69 13t-60 42q-20 -26 -50 -40.5t-68 -14.5q-12 0 -28 2.5t-32 8.5t-31.5 15t-27.5 22z" />
    <glyph glyph-name="uniFEB1" unicode="&#x633;" horiz-adv-x="1161" arabic-form="isolated" 
d="M963 391q0 15 7.5 20.5t19.5 5.5h87q14 0 21 -5t7 -21v-233q0 -34 -10.5 -63t-30.5 -50t-48 -33t-62 -12q-36 0 -69 13t-60 42q-20 -26 -50 -40.5t-68 -14.5q-26 0 -49.5 5.5t-45.5 19.5q-7 -124 -81.5 -184.5t-206.5 -60.5q-63 0 -115.5 14.5t-90.5 45t-59 78t-21 114.5
q0 42 11.5 84.5t32.5 83.5q10 20 19.5 26t29.5 -3l56 -26q17 -8 21.5 -17.5t-3.5 -29.5q-14 -34 -18.5 -63.5t-4.5 -51.5q0 -66 38.5 -96t107.5 -30q78 0 110.5 37t32.5 107v248q0 15 8 20.5t20 5.5h87q14 0 20.5 -5t6.5 -21v-149q33 -23 63 -23q27 0 34 17t7 37v118
q0 15 8 20.5t22 5.5h84q14 0 21 -5t7 -21v-146q17 -14 32 -20t30 -6q26 0 34 17t8 37v208z" />
    <glyph glyph-name="uniFEB0" unicode="&#x632;" horiz-adv-x="366" arabic-form="final" 
d="M262 0q-8 -33 -22.5 -61t-39.5 -53.5t-61.5 -50t-86.5 -51.5q-26 -14 -41 14l-36 66q-8 14 -2 23t23 19q40 23 66.5 44t41.5 46t21 57.5t6 77.5v260q0 15 8.5 20.5t22.5 5.5h82q14 0 21.5 -5t7.5 -21v-258h93v-133h-104zM201 537q-28 0 -46 16t-18 45t18 45t46 16t46 -16
t18 -45t-18 -45t-46 -16z" />
    <glyph glyph-name="uniFEAF" unicode="&#x632;" horiz-adv-x="329" arabic-form="isolated" 
d="M273 118q0 -62 -8.5 -108.5t-32.5 -84t-67 -71t-113 -70.5q-26 -14 -41 14l-36 66q-8 14 -2 23t23 19q40 23 66.5 44t41.5 46t21 57.5t6 77.5v260q0 15 8.5 20.5t22.5 5.5h82q14 0 21.5 -5t7.5 -21v-273zM201 537q-28 0 -46 16t-18 45t18 45t46 16t46 -16t18 -45t-18 -45
t-46 -16z" />
    <glyph glyph-name="uniFED2" unicode="&#x641;" horiz-adv-x="1035" arabic-form="final" 
d="M623 133q-38 32 -53.5 68.5t-15.5 69.5q0 34 14.5 64.5t42.5 53.5t67.5 36.5t89.5 13.5q49 0 88.5 -13.5t67.5 -36.5t42.5 -53.5t14.5 -64.5q0 -33 -15 -69.5t-54 -68.5h123v-133h-94q-90 0 -173 34q-85 -34 -174 -34h-294q-125 0 -188.5 57t-63.5 158v118q0 15 8.5 20.5
t22.5 5.5h83q14 0 21 -5t7 -21v-71q0 -36 7 -60.5t22.5 -39.5t41.5 -22t64 -7h298zM699 251q0 -20 17 -45t52 -45q35 20 52 45t17 45q0 24 -17 40t-52 16q-34 0 -51.5 -16t-17.5 -40zM763 545q-28 0 -46 16t-18 45t18 45t46 16t46 -16t18 -45t-18 -45t-46 -16z" />
    <glyph glyph-name="uniFED4" unicode="&#x641;" horiz-adv-x="535" arabic-form="medial" 
d="M-10 0q-4 0 -10 2t-11.5 9t-9.5 20t-4 35t4 35.5t9.5 20.5t11.5 9t10 2h133q-38 32 -53.5 68.5t-15.5 69.5q0 34 14.5 64.5t42.5 53.5t67.5 36.5t89.5 13.5q49 0 88.5 -13.5t67.5 -36.5t42.5 -53.5t14.5 -64.5q0 -33 -15 -69.5t-54 -68.5h123v-133h-94q-90 0 -173 34
q-85 -34 -174 -34h-104zM198 251q0 -20 17 -45t52 -45q35 20 52.5 45t17.5 45q0 24 -17.5 40t-52.5 16t-52 -16t-17 -40zM273 545q-28 0 -46 16t-18 45t18 45t46 16t46 -16t18 -45t-18 -45t-46 -16z" />
    <glyph glyph-name="uniFED3" unicode="&#x641;" horiz-adv-x="543" arabic-form="initial" 
d="M98 133q-11 23 -17 49.5t-6 48.5q0 37 13.5 71t39.5 59.5t65.5 40.5t91.5 15q98 0 154 -53t56 -153q0 -106 -60.5 -158.5t-169.5 -52.5h-275q-4 0 -10 2t-11.5 9t-9.5 20t-4 35t4 35.5t9.5 20.5t11.5 9t10 2h108zM351 209q0 30 -15 53t-51 23t-51 -23t-15 -53
q0 -44 26 -76h31q32 0 53.5 17t21.5 59zM284 528q-28 0 -46 16t-18 45t18 45t46 16t46 -16t18 -45t-18 -45t-46 -16z" />
    <glyph glyph-name="uniFED1" unicode="&#x641;" horiz-adv-x="1029" arabic-form="isolated" 
d="M837 209q0 30 -14.5 53t-47.5 23t-47 -23t-14 -53q0 -22 6 -41t17 -35h31q29 0 49 17t20 59zM592 133q-11 23 -16.5 49.5t-5.5 48.5q0 37 13 71t38.5 59.5t64 40.5t89.5 15q97 0 151.5 -53t54.5 -153q0 -106 -59.5 -158.5t-165.5 -52.5h-456q-125 0 -188.5 57t-63.5 158
v118q0 15 8.5 20.5t22.5 5.5h83q14 0 21 -5t7 -21v-71q0 -36 7 -60.5t22.5 -39.5t41.5 -22t64 -7h267zM770 528q-28 0 -46 16t-18 45t18 45t46 16t46 -16t18 -45t-18 -45t-46 -16z" />
    <glyph glyph-name="uniFECE" unicode="&#x63a;" horiz-adv-x="588" arabic-form="final" 
d="M588 133v-133h-45q-88 0 -143.5 13.5t-93.5 43.5q-66 -42 -99.5 -76.5t-33.5 -71.5q0 -36 32 -53t84 -17q62 0 159 28q19 5 26.5 2t12.5 -18l22 -59q7 -18 1 -27.5t-24 -17.5q-43 -17 -95.5 -27t-103.5 -10q-48 0 -94 10t-82.5 33t-59 60.5t-22.5 92.5q0 43 17.5 78.5
t45 65t62.5 54t70 45.5l-22 37q-29 47 -57.5 72.5t-58.5 39.5q-7 4 -10 10.5t-1 18.5l14 75q3 18 20 22q131 35 228 35q98 0 151 -35t53 -103q0 -47 -23.5 -90.5t-85.5 -91.5q21 -4 47 -5t63 -1h46zM397 291q0 20 -16.5 29.5t-43.5 9.5q-17 0 -41 -3.5t-44 -10.5
q22 -23 38 -45t27 -40l11 -17q38 26 53.5 42.5t15.5 34.5zM310 565q-28 0 -46 16t-18 45t18 45t46 16t46 -16t18 -45t-18 -45t-46 -16z" />
    <glyph glyph-name="uniFED0" unicode="&#x63a;" horiz-adv-x="593" arabic-form="medial" 
d="M-10 0q-4 0 -10 2t-11.5 9t-9.5 20t-4 35t4 35.5t9.5 20.5t11.5 9t10 2h46q57 0 104 6t85 17l-18 30q-29 47 -57.5 72.5t-58.5 39.5q-8 4 -10.5 10.5t-0.5 18.5l14 75q3 18 19 22q132 35 228 35q99 0 152.5 -35t53.5 -103q0 -49 -25.5 -95.5t-71.5 -88.5q19 -2 42 -3
t55 -1h46v-133h-45q-86 0 -140.5 12.5t-93.5 41.5q-58 -26 -126.5 -40t-145.5 -14h-52zM403 291q0 20 -16 29.5t-45 9.5q-17 0 -41 -3.5t-44 -10.5q22 -23 38 -45t28 -40l16 -25q32 23 48 45.5t16 39.5zM319 565q-28 0 -46 16t-18 45t18 45t46 16t46 -16t18 -45t-18 -45
t-46 -16z" />
    <glyph glyph-name="uniFECF" unicode="&#x63a;" horiz-adv-x="541" arabic-form="initial" 
d="M-10 0q-4 0 -10 2t-11.5 9t-9.5 20t-4 35t4 35.5t9.5 20.5t11.5 9t10 2h123q-17 26 -25.5 55.5t-8.5 58.5q0 42 16 77t44.5 59.5t68 38t87.5 13.5q42 0 82.5 -11.5t72.5 -32.5q12 -8 15 -15.5t-2 -18.5l-28 -63q-7 -14 -15 -16.5t-23 5.5q-24 11 -48 17t-42 6
q-41 0 -62.5 -20t-21.5 -57q0 -23 10 -47.5t32 -48.5h232q14 0 19.5 -8.5t5.5 -22.5v-73q0 -14 -5 -21.5t-20 -7.5h-507zM295 545q-28 0 -46 16t-18 45t18 45t46 16t46 -16t18 -45t-18 -45t-46 -16z" />
    <glyph glyph-name="uniFECD" unicode="&#x63a;" horiz-adv-x="566" arabic-form="isolated" 
d="M301 -290q-135 0 -203.5 57t-68.5 160q0 65 28 111.5t88 70.5q-52 64 -52 138q0 42 16 77t44.5 59.5t68 38t87.5 13.5q43 0 83.5 -11.5t72.5 -32.5q11 -8 14 -15.5t-2 -18.5l-28 -63q-7 -14 -14.5 -16.5t-23.5 5.5q-24 11 -48 17t-41 6q-41 0 -63 -20t-22 -57
q0 -23 9.5 -47.5t31.5 -48.5h228q15 0 20 -8.5t5 -22.5v-73q0 -14 -4.5 -21.5t-20.5 -7.5h-214q-67 0 -93 -21.5t-26 -53.5q0 -40 33.5 -63t96.5 -23q62 0 159 28q19 5 26.5 2t12.5 -18l22 -59q7 -18 1 -27.5t-24 -17.5q-44 -17 -96 -27t-103 -10zM301 545q-28 0 -46 16
t-18 45t18 45t46 16t46 -16t18 -45t-18 -45t-46 -16z" />
    <glyph glyph-name="uniFECA" unicode="&#x639;" horiz-adv-x="588" arabic-form="final" 
d="M588 133v-133h-45q-88 0 -143.5 13.5t-93.5 43.5q-66 -42 -99.5 -76.5t-33.5 -71.5q0 -36 32 -53t84 -17q62 0 159 28q19 5 26.5 2t12.5 -18l22 -59q7 -18 1 -27.5t-24 -17.5q-43 -17 -95.5 -27t-103.5 -10q-48 0 -94 10t-82.5 33t-59 60.5t-22.5 92.5q0 43 17.5 78.5
t45 65t62.5 54t70 45.5l-22 37q-29 47 -57.5 72.5t-58.5 39.5q-7 4 -10 10.5t-1 18.5l14 75q3 18 20 22q131 35 228 35q98 0 151 -35t53 -103q0 -47 -23.5 -90.5t-85.5 -91.5q21 -4 47 -5t63 -1h46zM397 291q0 20 -16.5 29.5t-43.5 9.5q-17 0 -41 -3.5t-44 -10.5
q22 -23 38 -45t27 -40l11 -17q38 26 53.5 42.5t15.5 34.5z" />
    <glyph glyph-name="uniFECC" unicode="&#x639;" horiz-adv-x="593" arabic-form="medial" 
d="M-10 0q-4 0 -10 2t-11.5 9t-9.5 20t-4 35t4 35.5t9.5 20.5t11.5 9t10 2h46q57 0 104 6t85 17l-18 30q-29 47 -57.5 72.5t-58.5 39.5q-8 4 -10.5 10.5t-0.5 18.5l14 75q3 18 19 22q132 35 228 35q99 0 152.5 -35t53.5 -103q0 -49 -25.5 -95.5t-71.5 -88.5q19 -2 42 -3
t55 -1h46v-133h-45q-86 0 -140.5 12.5t-93.5 41.5q-58 -26 -126.5 -40t-145.5 -14h-52zM403 291q0 20 -16 29.5t-45 9.5q-17 0 -41 -3.5t-44 -10.5q22 -23 38 -45t28 -40l16 -25q32 23 48 45.5t16 39.5z" />
    <glyph glyph-name="uniFECB" unicode="&#x639;" horiz-adv-x="541" arabic-form="initial" 
d="M-10 0q-4 0 -10 2t-11.5 9t-9.5 20t-4 35t4 35.5t9.5 20.5t11.5 9t10 2h123q-17 26 -25.5 55.5t-8.5 58.5q0 42 16 77t44.5 59.5t68 38t87.5 13.5q42 0 82.5 -11.5t72.5 -32.5q12 -8 15 -15.5t-2 -18.5l-28 -63q-7 -14 -15 -16.5t-23 5.5q-24 11 -48 17t-42 6
q-41 0 -62.5 -20t-21.5 -57q0 -23 10 -47.5t32 -48.5h232q14 0 19.5 -8.5t5.5 -22.5v-73q0 -14 -5 -21.5t-20 -7.5h-507z" />
    <glyph glyph-name="uniFEC9" unicode="&#x639;" horiz-adv-x="566" arabic-form="isolated" 
d="M301 -290q-135 0 -203.5 57t-68.5 160q0 65 28 111.5t88 70.5q-52 64 -52 138q0 42 16 77t44.5 59.5t68 38t87.5 13.5q43 0 83.5 -11.5t72.5 -32.5q11 -8 14 -15.5t-2 -18.5l-28 -63q-7 -14 -14.5 -16.5t-23.5 5.5q-24 11 -48 17t-41 6q-41 0 -63 -20t-22 -57
q0 -23 9.5 -47.5t31.5 -48.5h228q15 0 20 -8.5t5 -22.5v-73q0 -14 -4.5 -21.5t-20.5 -7.5h-214q-67 0 -93 -21.5t-26 -53.5q0 -40 33.5 -63t96.5 -23q62 0 159 28q19 5 26.5 2t12.5 -18l22 -59q7 -18 1 -27.5t-24 -17.5q-44 -17 -96 -27t-103 -10z" />
    <glyph glyph-name="uniFEC6" unicode="&#x638;" horiz-adv-x="858" arabic-form="final" 
d="M56 0q-16 0 -21 7.5t-5 21.5v73q0 14 5.5 22.5t20.5 8.5h107v544q0 15 6 20t17 7l96 12q11 2 17 -5t6 -18v-381q58 68 121.5 97.5t129.5 29.5q53 0 95 -18t71 -50t44.5 -77.5t15.5 -99.5v-61h76v-133h-802zM545 310q-27 0 -57.5 -12t-62 -34.5t-62 -55.5t-58.5 -75h333
v64q0 58 -26 85.5t-67 27.5zM549 549q-28 0 -46 16t-18 45t18 45t46 16t46 -16t18 -45t-18 -45t-46 -16z" />
    <glyph glyph-name="uniFEC8" unicode="&#x638;" horiz-adv-x="783" arabic-form="medial" 
d="M230 312q58 68 121.5 97.5t129.5 29.5q53 0 95 -18t71 -50t44.5 -77.5t15.5 -99.5v-61h76v-133h-793q-4 0 -10 2t-11.5 9t-9.5 20t-4 35t4 35.5t9.5 20.5t11.5 9t10 2h98v544q0 15 6 20t17 7l96 12q11 2 17 -5t6 -18v-381zM470 310q-27 0 -57.5 -12t-62 -34.5t-62 -55.5
t-58.5 -75h333v64q0 58 -26 85.5t-67 27.5zM474 549q-28 0 -46 16t-18 45t18 45t46 16t46 -16t18 -45t-18 -45t-46 -16z" />
    <glyph glyph-name="uniFEC7" unicode="&#x638;" horiz-adv-x="747" arabic-form="initial" 
d="M-10 0q-4 0 -10 2t-11.5 9t-9.5 20t-4 35t4 35.5t9.5 20.5t11.5 9t10 2h98v544q0 15 6 20t17 7l96 12q11 2 17 -5t6 -18v-381q59 68 122.5 97.5t129.5 29.5q54 0 95.5 -18t70.5 -50t44 -77.5t15 -99.5t-11.5 -91t-38 -60t-71 -33t-110.5 -10h-486zM494 133q39 0 54 12.5
t15 49.5q0 57 -26 86t-66 29q-52 0 -116.5 -44t-124.5 -133h264zM474 549q-28 0 -46 16t-18 45t18 45t46 16t46 -16t18 -45t-18 -45t-46 -16z" />
    <glyph glyph-name="uniFEC5" unicode="&#x638;" horiz-adv-x="822" arabic-form="isolated" 
d="M56 0q-16 0 -21 7.5t-5 21.5v73q0 14 5.5 22.5t20.5 8.5h107v544q0 15 6 20t17 7l96 12q11 2 17 -5t6 -18v-381q59 68 122.5 97.5t129.5 29.5q54 0 95.5 -18t70.5 -50t44 -77.5t15 -99.5t-11.5 -91t-38 -60t-71 -33t-110.5 -10h-495zM569 133q39 0 54 12.5t15 49.5
q0 57 -26 86t-66 29q-52 0 -116.5 -44t-124.5 -133h264zM549 549q-28 0 -46 16t-18 45t18 45t46 16t46 -16t18 -45t-18 -45t-46 -16z" />
    <glyph glyph-name="uniFEC2" unicode="&#x637;" horiz-adv-x="858" arabic-form="final" 
d="M56 0q-16 0 -21 7.5t-5 21.5v73q0 14 5.5 22.5t20.5 8.5h107v544q0 15 6 20t17 7l96 12q11 2 17 -5t6 -18v-381q58 68 121.5 97.5t129.5 29.5q53 0 95 -18t71 -50t44.5 -77.5t15.5 -99.5v-61h76v-133h-802zM545 310q-27 0 -57.5 -12t-62 -34.5t-62 -55.5t-58.5 -75h333
v64q0 58 -26 85.5t-67 27.5z" />
    <glyph glyph-name="uniFEC4" unicode="&#x637;" horiz-adv-x="783" arabic-form="medial" 
d="M230 312q58 68 121.5 97.5t129.5 29.5q53 0 95 -18t71 -50t44.5 -77.5t15.5 -99.5v-61h76v-133h-793q-4 0 -10 2t-11.5 9t-9.5 20t-4 35t4 35.5t9.5 20.5t11.5 9t10 2h98v544q0 15 6 20t17 7l96 12q11 2 17 -5t6 -18v-381zM470 310q-27 0 -57.5 -12t-62 -34.5t-62 -55.5
t-58.5 -75h333v64q0 58 -26 85.5t-67 27.5z" />
    <glyph glyph-name="uniFEC3" unicode="&#x637;" horiz-adv-x="747" arabic-form="initial" 
d="M-10 0q-4 0 -10 2t-11.5 9t-9.5 20t-4 35t4 35.5t9.5 20.5t11.5 9t10 2h98v544q0 15 6 20t17 7l96 12q11 2 17 -5t6 -18v-381q59 68 122.5 97.5t129.5 29.5q54 0 95.5 -18t70.5 -50t44 -77.5t15 -99.5t-11.5 -91t-38 -60t-71 -33t-110.5 -10h-486zM494 133q39 0 54 12.5
t15 49.5q0 57 -26 86t-66 29q-52 0 -116.5 -44t-124.5 -133h264z" />
    <glyph glyph-name="uniFEC1" unicode="&#x637;" horiz-adv-x="822" arabic-form="isolated" 
d="M56 0q-16 0 -21 7.5t-5 21.5v73q0 14 5.5 22.5t20.5 8.5h107v544q0 15 6 20t17 7l96 12q11 2 17 -5t6 -18v-381q59 68 122.5 97.5t129.5 29.5q54 0 95.5 -18t70.5 -50t44 -77.5t15 -99.5t-11.5 -91t-38 -60t-71 -33t-110.5 -10h-495zM569 133q39 0 54 12.5t15 49.5
q0 57 -26 86t-66 29q-52 0 -116.5 -44t-124.5 -133h264z" />
    <glyph glyph-name="uniFEE6" unicode="&#x646;" horiz-adv-x="696" arabic-form="final" 
d="M613 133h83v-133h-86q-14 -106 -85 -163t-201 -57q-63 0 -115.5 14.5t-90.5 45t-59 78t-21 114.5q0 42 11.5 84.5t32.5 83.5q10 20 19.5 26t29.5 -3l56 -26q17 -8 21.5 -17.5t-3.5 -29.5q-14 -34 -18.5 -63.5t-4.5 -51.5q0 -66 38.5 -96t107.5 -30q78 0 110.5 37
t32.5 107v248q0 15 8 20.5t20 5.5h87q14 0 20.5 -5t6.5 -21v-168zM353 407q-28 0 -46 16t-18 45t18 45t46 16t46 -16t18 -45t-18 -45t-46 -16z" />
    <glyph glyph-name="uniFEE8" unicode="&#x646;" horiz-adv-x="388" arabic-form="medial" 
d="M388 0h-3q-48 0 -80 13t-51 36q-37 -49 -140 -49h-124q-4 0 -10 2t-11.5 9t-9.5 20t-4 35t4 35.5t9.5 20.5t11.5 9t10 2h114q20 0 26 7t6 28v223q0 15 8.5 20.5t22.5 5.5h82q14 0 21.5 -5t7.5 -21v-236q15 -13 39.5 -17.5t67.5 -4.5h3v-133zM192 537q-28 0 -46 16t-18 45
t18 45t46 16t46 -16t18 -45t-18 -45t-46 -16z" />
    <glyph glyph-name="uniFEE7" unicode="&#x646;" horiz-adv-x="326" arabic-form="initial" 
d="M94 133q20 0 26 7t6 28v223q0 15 8.5 20.5t22.5 5.5h82q14 0 21.5 -5t7.5 -21v-258q0 -66 -39 -99.5t-125 -33.5h-114q-4 0 -10 2t-11.5 9t-9.5 20t-4 35t4 35.5t9.5 20.5t11.5 9t10 2h104zM188 537q-28 0 -46 16t-18 45t18 45t46 16t46 -16t18 -45t-18 -45t-46 -16z" />
    <glyph glyph-name="uniFEE5" unicode="&#x646;" horiz-adv-x="671" arabic-form="isolated" 
d="M613 50q0 -129 -72 -199.5t-217 -70.5q-63 0 -115.5 14.5t-90.5 45t-59 78t-21 114.5q0 42 11.5 84.5t32.5 83.5q10 20 19.5 26t29.5 -3l56 -26q17 -8 21.5 -17.5t-3.5 -29.5q-14 -34 -18.5 -63.5t-4.5 -51.5q0 -66 38.5 -96t107.5 -30q78 0 110.5 37t32.5 107v248
q0 15 8 20.5t20 5.5h87q14 0 20.5 -5t6.5 -21v-251zM353 407q-28 0 -46 16t-18 45t18 45t46 16t46 -16t18 -45t-18 -45t-46 -16z" />
    <glyph glyph-name="uniFEE2" unicode="&#x645;" horiz-adv-x="666" arabic-form="final" 
d="M591 211q0 -15 -3.5 -36.5t-14.5 -41.5h93v-133h-410q-48 0 -65 -12.5t-17 -45.5q0 -27 6.5 -72t20.5 -114q5 -22 -3.5 -30.5t-25.5 -10.5l-70 -9q-22 -3 -30.5 3t-13.5 31q-14 62 -21 112.5t-7 97.5q0 85 41 133t123 50q-12 24 -17.5 50.5t-5.5 47.5q0 37 13.5 71
t39.5 59.5t65.5 40.5t91.5 15q98 0 154 -53t56 -153zM447 209q0 30 -15 53t-51 23t-51 -23t-15 -53q0 -44 26 -76h31q32 0 53.5 17t21.5 59z" />
    <glyph glyph-name="uniFEE4" unicode="&#x645;" horiz-adv-x="580" arabic-form="medial" 
d="M80 133v7q0 37 13.5 71t39.5 59.5t65.5 40.5t91.5 15q94 0 150 -49.5t60 -143.5h80v-133h-110q-27 -45 -78 -68t-122 -23h-67q-24 0 -35 5.5t-23 24.5q-20 31 -33 61h-122q-4 0 -10 2t-11.5 9t-9.5 20t-4 35t4 35.5t9.5 20.5t11.5 9t10 2h90zM281 42q32 0 53.5 17
t21.5 59q0 30 -15 53t-51 23t-51 -23t-15 -53q0 -20 6 -39.5t17 -36.5h34z" />
    <glyph glyph-name="uniFEE3" unicode="&#x645;" horiz-adv-x="543" arabic-form="initial" 
d="M98 133q-11 23 -17 49.5t-6 48.5q0 37 13.5 71t39.5 59.5t65.5 40.5t91.5 15q98 0 154 -53t56 -153q0 -106 -60.5 -158.5t-169.5 -52.5h-275q-4 0 -10 2t-11.5 9t-9.5 20t-4 35t4 35.5t9.5 20.5t11.5 9t10 2h108zM351 209q0 30 -15 53t-51 23t-51 -23t-15 -53
q0 -44 26 -76h31q32 0 53.5 17t21.5 59z" />
    <glyph glyph-name="uniFEE1" unicode="&#x645;" horiz-adv-x="639" arabic-form="isolated" 
d="M30 -50q0 85 41 133t123 50q-12 24 -17.5 50.5t-5.5 47.5q0 37 13.5 71t39.5 59.5t65.5 40.5t91.5 15q98 0 154 -53t56 -153q0 -106 -60.5 -158.5t-169.5 -52.5h-105q-48 0 -65 -12.5t-17 -45.5q0 -27 6.5 -72t20.5 -114q5 -22 -3.5 -30.5t-25.5 -10.5l-70 -9
q-22 -3 -30.5 3t-13.5 31q-14 62 -21 112.5t-7 97.5zM447 209q0 30 -15 53t-51 23t-51 -23t-15 -53q0 -44 26 -76h31q32 0 53.5 17t21.5 59z" />
    <glyph glyph-name="uniFEDE" unicode="&#x644;" horiz-adv-x="716" arabic-form="final" 
d="M613 133h103v-133h-107q-15 -105 -87.5 -162.5t-197.5 -57.5q-63 0 -115.5 14.5t-90.5 45t-59 78t-21 114.5q0 42 11.5 84.5t32.5 83.5q10 20 19.5 26t29.5 -3l56 -26q17 -8 21.5 -17.5t-3.5 -29.5q-14 -34 -18.5 -63.5t-4.5 -51.5q0 -66 38.5 -96t107.5 -30
q78 0 110.5 37t32.5 107v624q0 15 5.5 20t16.5 7l98 12q11 2 16.5 -5t5.5 -18v-560z" />
    <glyph glyph-name="uniFEE0" unicode="&#x644;" horiz-adv-x="388" arabic-form="medial" 
d="M104 133q20 0 26 7t6 28v509q0 15 6 20t17 7l96 12q11 2 17 -5t6 -18v-538q15 -13 39.5 -17.5t67.5 -4.5h3v-133h-3q-48 0 -80 13t-51 36q-37 -49 -140 -49h-124q-4 0 -10 2t-11.5 9t-9.5 20t-4 35t4 35.5t9.5 20.5t11.5 9t10 2h114z" />
    <glyph glyph-name="uniFEDF" unicode="&#x644;" horiz-adv-x="326" arabic-form="initial" 
d="M94 133q20 0 26 7t6 28v509q0 15 6 20t17 7l96 12q11 2 17 -5t6 -18v-560q0 -66 -39 -99.5t-125 -33.5h-114q-4 0 -10 2t-11.5 9t-9.5 20t-4 35t4 35.5t9.5 20.5t11.5 9t10 2h104z" />
    <glyph glyph-name="uniFEDD" unicode="&#x644;" horiz-adv-x="671" arabic-form="isolated" 
d="M613 54q0 -130 -74 -202t-215 -72q-63 0 -115.5 14.5t-90.5 45t-59 78t-21 114.5q0 42 11.5 84.5t32.5 83.5q10 20 19.5 26t29.5 -3l56 -26q17 -8 21.5 -17.5t-3.5 -29.5q-14 -34 -18.5 -63.5t-4.5 -51.5q0 -66 38.5 -96t107.5 -30q78 0 110.5 37t32.5 107v624
q0 15 5.5 20t16.5 7l98 12q11 2 16.5 -5t5.5 -18v-639z" />
    <glyph glyph-name="uniFEDA" unicode="&#x643;" horiz-adv-x="962" arabic-form="final" 
d="M831 49q-37 -49 -135 -49h-399q-123 0 -186 57t-63 158v118q0 15 8 20.5t22 5.5h83q14 0 21.5 -5t7.5 -21v-71q0 -71 29 -100t103 -29h360q19 0 25 7t6 28v509q0 15 5.5 20t16.5 7l98 12q11 2 16.5 -5t5.5 -18v-538q14 -13 38 -17.5t66 -4.5h3v-133h-3q-47 0 -78.5 13
t-49.5 36zM376 395q-8 11 -12.5 26t-4.5 31q0 45 31.5 72.5t78.5 27.5q21 0 43 -6.5t42 -20.5q7 -5 10 -11.5t-1 -14.5l-14 -30q-3 -8 -7 -11t-14 2q-29 15 -50 15q-19 0 -29.5 -11.5t-10.5 -30.5q0 -18 14 -38h102q11 0 14.5 -4t3.5 -13v-42q0 -9 -3.5 -13t-14.5 -4h-200
q-11 0 -14.5 4.5t-3.5 13.5v42q0 9 3.5 12.5t14.5 3.5h22z" />
    <glyph glyph-name="uniFEDC" unicode="&#x643;" horiz-adv-x="542" arabic-form="medial" 
d="M-10 0q-4 0 -10 2t-11.5 9t-9.5 20t-4 35t4 35.5t9.5 20.5t11.5 9t10 2h229q32 0 50.5 8t18.5 31q0 19 -15.5 41.5t-50 46t-89.5 47.5t-133 45q-14 4 -19.5 9.5t-5.5 18.5v52q0 9 3 15.5t12 14.5l293 248q27 22 44 2l44 -49q11 -13 11.5 -23t-12.5 -21l-218 -185
q142 -57 211 -122.5t69 -150.5q0 -9 -1 -14q15 -8 38 -11t60 -3h13v-133h-13q-52 0 -85.5 14.5t-51.5 40.5q-33 -33 -83 -44t-99 -11h-220z" />
    <glyph glyph-name="uniFEDB" unicode="&#x643;" horiz-adv-x="480" arabic-form="initial" 
d="M-10 0q-4 0 -10 2t-11.5 9t-9.5 20t-4 35t4 35.5t9.5 20.5t11.5 9t10 2h229q32 0 50.5 8t18.5 31q0 19 -15.5 41.5t-50 46t-89.5 47.5t-133 45q-14 4 -19.5 9.5t-5.5 18.5v52q0 9 3 15.5t12 14.5l293 248q27 22 44 2l44 -49q11 -13 11.5 -23t-12.5 -21l-218 -185
q142 -57 211 -122.5t69 -150.5q0 -50 -20.5 -81.5t-52.5 -49t-71.5 -24t-77.5 -6.5h-220z" />
    <glyph glyph-name="uniFED6" unicode="&#x642;" horiz-adv-x="887" arabic-form="final" 
d="M791 0q-16 -112 -114.5 -166t-265.5 -54q-100 0 -170.5 19.5t-115 53.5t-65 81t-20.5 102q0 44 12.5 90.5t37.5 93.5q11 20 21 26t30 -3l61 -26q17 -8 20.5 -17.5t-5.5 -29.5q-15 -33 -24 -66t-9 -59q0 -31 12 -56t39.5 -43t71.5 -27.5t108 -9.5q41 0 79 5.5t68.5 16.5
t52.5 28t31 41h-54q-103 0 -159.5 51t-56.5 160q0 46 14.5 84t42 65t66.5 42t88 15q46 0 84 -12t65.5 -36t42.5 -61t15 -88v-87h93v-133h-96zM652 133v86q0 31 -14 48.5t-47 17.5q-35 0 -53 -20t-18 -54q0 -47 21.5 -62.5t67.5 -15.5h43zM516 528q-28 0 -46 16t-18 45t18 45
t46 16t46 -16t18 -45t-18 -45t-46 -16zM676 528q-28 0 -46 16t-18 45t18 45t46 16t46 -16t18 -45t-18 -45t-46 -16z" />
    <glyph glyph-name="uniFED8" unicode="&#x642;" horiz-adv-x="535" arabic-form="medial" 
d="M-10 0q-4 0 -10 2t-11.5 9t-9.5 20t-4 35t4 35.5t9.5 20.5t11.5 9t10 2h133q-38 32 -53.5 68.5t-15.5 69.5q0 34 14.5 64.5t42.5 53.5t67.5 36.5t89.5 13.5q49 0 88.5 -13.5t67.5 -36.5t42.5 -53.5t14.5 -64.5q0 -33 -15 -69.5t-54 -68.5h123v-133h-94q-90 0 -173 34
q-85 -34 -174 -34h-104zM198 251q0 -20 17 -45t52 -45q35 20 52.5 45t17.5 45q0 24 -17.5 40t-52.5 16t-52 -16t-17 -40zM193 545q-28 0 -46 16t-18 45t18 45t46 16t46 -16t18 -45t-18 -45t-46 -16zM353 545q-28 0 -46 16t-18 45t18 45t46 16t46 -16t18 -45t-18 -45t-46 -16
z" />
    <glyph glyph-name="uniFED7" unicode="&#x642;" horiz-adv-x="543" arabic-form="initial" 
d="M98 133q-11 23 -17 49.5t-6 48.5q0 37 13.5 71t39.5 59.5t65.5 40.5t91.5 15q98 0 154 -53t56 -153q0 -106 -60.5 -158.5t-169.5 -52.5h-275q-4 0 -10 2t-11.5 9t-9.5 20t-4 35t4 35.5t9.5 20.5t11.5 9t10 2h108zM351 209q0 30 -15 53t-51 23t-51 -23t-15 -53
q0 -44 26 -76h31q32 0 53.5 17t21.5 59zM204 528q-28 0 -46 16t-18 45t18 45t46 16t46 -16t18 -45t-18 -45t-46 -16zM364 528q-28 0 -46 16t-18 45t18 45t46 16t46 -16t18 -45t-18 -45t-46 -16z" />
    <glyph glyph-name="uniFED5" unicode="&#x642;" horiz-adv-x="844" arabic-form="isolated" 
d="M184 45q0 -31 12 -56t39.5 -43t71.5 -27.5t108 -9.5q45 0 85.5 6.5t72 19.5t52.5 33.5t26 48.5q-20 -9 -43.5 -13t-43.5 -4q-41 0 -75 14t-59.5 41t-39.5 66.5t-14 89.5q0 46 14.5 84t42 65t66.5 42t88 15q46 0 84 -12t65.5 -36t42.5 -61t15 -88v-178q0 -67 -26 -116
t-75 -81.5t-120.5 -48.5t-161.5 -16q-100 0 -170.5 19.5t-115 53.5t-65 81t-20.5 102q0 44 12.5 90.5t37.5 93.5q11 20 21 26t30 -3l61 -26q17 -8 20.5 -17.5t-5.5 -29.5q-15 -33 -24 -66t-9 -59zM591 285q-35 0 -53 -19.5t-18 -53.5q0 -80 72 -80q14 0 30 3t30 10v76
q0 29 -14 46.5t-47 17.5zM516 528q-28 0 -46 16t-18 45t18 45t46 16t46 -16t18 -45t-18 -45t-46 -16zM676 528q-28 0 -46 16t-18 45t18 45t46 16t46 -16t18 -45t-18 -45t-46 -16z" />
    <glyph glyph-name="uniFE94" unicode="&#x629;" horiz-adv-x="545" arabic-form="final" 
d="M446 181q0 -26 11 -37t41 -11h47v-133h-50q-128 0 -170 66q-23 -8 -49.5 -12t-54.5 -4q-34 0 -66 7.5t-57 24t-40.5 43t-15.5 65.5q0 27 10.5 58.5t39.5 64t80 65t132 61.5v32q0 15 5.5 20t16.5 7l97 12q11 2 17 -5t6 -18v-306zM184 215q0 -21 15.5 -28.5t38.5 -7.5
q18 0 35 4t31 9v123q-55 -21 -87.5 -47t-32.5 -53zM273 620q-28 0 -46 16t-18 45t18 45t46 16t46 -16t18 -45t-18 -45t-46 -16zM433 620q-28 0 -46 16t-18 45t18 45t46 16t46 -16t18 -45t-18 -45t-46 -16z" />
    <glyph glyph-name="uniFE93" unicode="&#x629;" horiz-adv-x="532" arabic-form="isolated" 
d="M266 -13q-50 0 -90 14t-68.5 41t-44 66.5t-15.5 90.5q0 43 13.5 85t40.5 75.5t68 54.5t96 21q54 0 95 -21t68.5 -54.5t41 -75.5t13.5 -85q0 -51 -15.5 -90.5t-44 -66.5t-69 -41t-89.5 -14zM266 301q-20 0 -34 -9t-23 -24t-13 -33t-4 -36q0 -32 17 -55t57 -23t57 23t17 55
q0 18 -4 36t-13 33t-23 24t-34 9zM194 545q-28 0 -46 16t-18 45t18 45t46 16t46 -16t18 -45t-18 -45t-46 -16zM354 545q-28 0 -46 16t-18 45t18 45t46 16t46 -16t18 -45t-18 -45t-46 -16z" />
    <glyph glyph-name="uniFEF2" unicode="&#x64a;" horiz-adv-x="792" arabic-form="final" 
d="M638 -26q0 6 -3 12t-11 13t-23 14.5t-40 16.5l-102 35q-17 5 -21.5 14.5t0.5 24.5l20 63q6 18 16 23.5t29 -0.5l47 -16q35 -12 63 -20t53.5 -12.5t51.5 -6.5t59 -2h15v-133h-13q2 -6 2.5 -13.5t0.5 -10.5q0 -39 -22.5 -74.5t-68.5 -62.5t-116 -43t-166 -16
q-100 0 -170.5 19.5t-115 53.5t-65 81t-20.5 102q0 44 12.5 90.5t37.5 93.5q11 20 21 26t30 -3l61 -26q17 -8 20.5 -17.5t-5.5 -29.5q-15 -33 -24 -66t-9 -59q0 -31 12 -56t39.5 -43t71.5 -27.5t109 -9.5q108 0 166 17.5t58 47.5zM347 -451q-28 0 -46 16t-18 45t18 45t46 16
t46 -16t18 -45t-18 -45t-46 -16zM507 -451q-28 0 -46 16t-18 45t18 45t46 16t46 -16t18 -45t-18 -45t-46 -16z" />
    <glyph glyph-name="uniFEF4" unicode="&#x64a;" horiz-adv-x="388" arabic-form="medial" 
d="M388 0h-3q-48 0 -80 13t-51 36q-37 -49 -140 -49h-124q-4 0 -10 2t-11.5 9t-9.5 20t-4 35t4 35.5t9.5 20.5t11.5 9t10 2h114q20 0 26 7t6 28v223q0 15 8.5 20.5t22.5 5.5h82q14 0 21.5 -5t7.5 -21v-236q15 -13 39.5 -17.5t67.5 -4.5h3v-133zM23 -242q-28 0 -46 16t-18 45
t18 45t46 16t46 -16t18 -45t-18 -45t-46 -16zM183 -242q-28 0 -46 16t-18 45t18 45t46 16t46 -16t18 -45t-18 -45t-46 -16z" />
    <glyph glyph-name="uniFEF3" unicode="&#x64a;" horiz-adv-x="326" arabic-form="initial" 
d="M94 133q20 0 26 7t6 28v223q0 15 8.5 20.5t22.5 5.5h82q14 0 21.5 -5t7.5 -21v-258q0 -66 -39 -99.5t-125 -33.5h-114q-4 0 -10 2t-11.5 9t-9.5 20t-4 35t4 35.5t9.5 20.5t11.5 9t10 2h104zM13 -242q-28 0 -46 16t-18 45t18 45t46 16t46 -16t18 -45t-18 -45t-46 -16z
M173 -242q-28 0 -46 16t-18 45t18 45t46 16t46 -16t18 -45t-18 -45t-46 -16z" />
    <glyph glyph-name="uniFEF1" unicode="&#x64a;" horiz-adv-x="873" arabic-form="isolated" 
d="M521 245q0 -12 5 -22.5t16.5 -20t30.5 -20.5t48 -25q41 -20 71.5 -37.5t50.5 -37t29.5 -42t9.5 -51.5q0 -46 -27 -84.5t-75.5 -66t-117.5 -43t-153 -15.5q-100 0 -170.5 19.5t-115 53.5t-65 81t-20.5 102q0 44 12.5 90.5t37.5 93.5q11 20 21 26t30 -3l61 -26
q17 -8 20.5 -17.5t-5.5 -29.5q-15 -33 -24 -66t-9 -59q0 -31 12 -56t39.5 -43t71.5 -27.5t109 -9.5q108 0 166 24t58 54q0 7 -4.5 14t-16 15t-30.5 18t-49 24q-83 39 -122 82.5t-39 107.5q0 38 14.5 73.5t43.5 63t73.5 44t103.5 16.5q51 0 101.5 -14t93.5 -41
q12 -8 15.5 -16t-1.5 -19l-29 -65q-7 -15 -15.5 -17t-24.5 6q-42 20 -76.5 28.5t-60.5 8.5q-48 0 -71 -19.5t-23 -51.5zM347 -451q-28 0 -46 16t-18 45t18 45t46 16t46 -16t18 -45t-18 -45t-46 -16zM507 -451q-28 0 -46 16t-18 45t18 45t46 16t46 -16t18 -45t-18 -45
t-46 -16z" />
    <glyph glyph-name="uniFEEE" unicode="&#x648;" horiz-adv-x="559" arabic-form="final" 
d="M167 -105q52 31 83.5 54t48.5 51h-35q-103 0 -159.5 51t-56.5 160q0 46 14.5 84t42 65t66.5 42t88 15q46 0 84 -12t65.5 -36t42.5 -61t15 -88v-87h93v-133h-104q-8 -34 -24 -62t-43.5 -54.5t-67.5 -53t-97 -56.5q-26 -14 -41 13l-36 66q-8 14 -2.5 22.5t23.5 19.5z
M324 219q0 31 -14 48.5t-47 17.5q-35 0 -53 -20t-18 -54q0 -47 21.5 -62.5t67.5 -15.5h43v86z" />
    <glyph glyph-name="uniFEED" unicode="&#x648;" horiz-adv-x="522" arabic-form="isolated" 
d="M167 -105q57 33 89 58t48 57q-17 -5 -35 -7.5t-33 -2.5q-41 0 -75 14t-59.5 41t-39.5 66.5t-14 89.5q0 46 14.5 84t42 65t66.5 42t88 15q46 0 84 -12t65.5 -36t42.5 -61t15 -88v-100q0 -65 -8.5 -111.5t-35 -84.5t-74 -73t-125.5 -77q-26 -14 -41 13l-36 66
q-8 14 -2.5 22.5t23.5 19.5zM324 220q0 29 -14 47t-47 18q-35 0 -53 -19.5t-18 -53.5q0 -80 72 -80q14 0 30 3t30 10v75z" />
    <glyph glyph-name="uniFEEA" unicode="&#x647;" horiz-adv-x="545" arabic-form="final" 
d="M446 181q0 -26 11 -37t41 -11h47v-133h-50q-128 0 -170 66q-23 -8 -49.5 -12t-54.5 -4q-34 0 -66 7.5t-57 24t-40.5 43t-15.5 65.5q0 27 10.5 58.5t39.5 64t80 65t132 61.5v32q0 15 5.5 20t16.5 7l97 12q11 2 17 -5t6 -18v-306zM184 215q0 -21 15.5 -28.5t38.5 -7.5
q18 0 35 4t31 9v123q-55 -21 -87.5 -47t-32.5 -53z" />
    <glyph glyph-name="uniFEEC" unicode="&#x647;" horiz-adv-x="635" arabic-form="medial" 
d="M115 133q9 72 32.5 128.5t58.5 95t78 58.5t91 20q41 0 73 -13t54.5 -35t34.5 -50.5t12 -58.5q0 -38 -20.5 -77t-65.5 -68h172v-133h-129q28 -32 40.5 -63.5t12.5 -61.5q0 -38 -15 -68t-40.5 -52t-59 -33.5t-70.5 -11.5q-41 0 -82.5 16t-77 51t-62.5 90t-37 133h-125
q-4 0 -10 2t-11.5 9t-9.5 20t-4 35t4 35.5t9.5 20.5t11.5 9t10 2h125zM381 -161q20 0 32 12t12 30q0 14 -9 30t-29 32.5t-52 31t-79 25.5q3 -22 12 -50t24.5 -52.5t37.5 -41.5t51 -17zM258 138q41 12 69 27t45.5 32t25.5 34.5t8 34.5q0 20 -11 30t-27 10q-27 0 -46.5 -16.5
t-32.5 -41.5t-20.5 -54.5t-10.5 -55.5z" />
    <glyph glyph-name="uniFEEB" unicode="&#x647;" horiz-adv-x="738" arabic-form="initial" 
d="M57 133q72 0 126 9q-29 32 -46 68.5t-17 75.5q0 67 57 117l-28 14q-20 10 -21 18t4 17l30 56q7 12 13.5 16t22.5 -1q141 -40 235 -90.5t150.5 -103.5t80.5 -104t24 -92q0 -29 -10.5 -54.5t-31.5 -44t-52 -29t-72 -10.5q-49 0 -102 13.5t-104 38.5q-55 -22 -122.5 -34.5
t-148.5 -12.5h-55q-4 0 -10 2t-11.5 9t-9.5 20t-4 35t4 35.5t9.5 20.5t11.5 9t10 2h67zM252 286q0 -28 18 -53.5t47 -46.5q35 21 51.5 45.5t16.5 47.5q0 14 -7 25.5t-18.5 19.5t-25 12t-26.5 4q-23 0 -39.5 -13t-16.5 -41zM508 236q-15 -58 -70 -111q14 -3 27.5 -5.5
t30.5 -2.5q25 0 37.5 11.5t12.5 29.5q0 16 -10 36t-28 42z" />
    <glyph glyph-name="uniFEE9" unicode="&#x647;" horiz-adv-x="815" arabic-form="isolated" 
d="M275 523q141 -40 235 -90.5t150.5 -103.5t80.5 -104t24 -92q0 -29 -10.5 -54.5t-31.5 -44t-52 -29t-72 -10.5q-49 0 -102 13.5t-104 38.5q-55 -22 -122.5 -34.5t-148.5 -12.5h-56q-16 0 -21 7.5t-5 21.5v73q0 14 5.5 22.5t20.5 8.5h68q72 0 126 9q-29 32 -46 68.5
t-17 75.5q0 67 57 117l-28 14q-20 10 -21 18t4 17l30 56q7 12 13.5 16t22.5 -1zM329 286q0 -28 18 -53.5t47 -46.5q35 21 51.5 45.5t16.5 47.5q0 14 -7 25.5t-18.5 19.5t-25 12t-26.5 4q-23 0 -39.5 -13t-16.5 -41zM585 236q-15 -58 -70 -111q14 -3 27.5 -5.5t30.5 -2.5
q25 0 37.5 11.5t12.5 29.5q0 16 -10 36t-28 42z" />
    <glyph glyph-name="uniFEF0" unicode="&#x649;" horiz-adv-x="792" arabic-form="final" 
d="M638 -26q0 6 -3 12t-11 13t-23 14.5t-40 16.5l-102 35q-17 5 -21.5 14.5t0.5 24.5l20 63q6 18 16 23.5t29 -0.5l47 -16q35 -12 63 -20t53.5 -12.5t51.5 -6.5t59 -2h15v-133h-13q2 -6 2.5 -13.5t0.5 -10.5q0 -39 -22.5 -74.5t-68.5 -62.5t-116 -43t-166 -16
q-100 0 -170.5 19.5t-115 53.5t-65 81t-20.5 102q0 44 12.5 90.5t37.5 93.5q11 20 21 26t30 -3l61 -26q17 -8 20.5 -17.5t-5.5 -29.5q-15 -33 -24 -66t-9 -59q0 -31 12 -56t39.5 -43t71.5 -27.5t109 -9.5q108 0 166 17.5t58 47.5z" />
    <glyph glyph-name="uniFBE9" unicode="&#x649;" horiz-adv-x="388" arabic-form="medial" 
d="M388 0h-3q-48 0 -80 13t-51 36q-37 -49 -140 -49h-124q-4 0 -10 2t-11.5 9t-9.5 20t-4 35t4 35.5t9.5 20.5t11.5 9t10 2h114q20 0 26 7t6 28v223q0 15 8.5 20.5t22.5 5.5h82q14 0 21.5 -5t7.5 -21v-236q15 -13 39.5 -17.5t67.5 -4.5h3v-133z" />
    <glyph glyph-name="uniFBE8" unicode="&#x649;" horiz-adv-x="326" arabic-form="initial" 
d="M94 133q20 0 26 7t6 28v223q0 15 8.5 20.5t22.5 5.5h82q14 0 21.5 -5t7.5 -21v-258q0 -66 -39 -99.5t-125 -33.5h-114q-4 0 -10 2t-11.5 9t-9.5 20t-4 35t4 35.5t9.5 20.5t11.5 9t10 2h104z" />
    <glyph glyph-name="uniFEEF" unicode="&#x649;" horiz-adv-x="873" arabic-form="isolated" 
d="M521 245q0 -12 5 -22.5t16.5 -20t30.5 -20.5t48 -25q41 -20 71.5 -37.5t50.5 -37t29.5 -42t9.5 -51.5q0 -46 -27 -84.5t-75.5 -66t-117.5 -43t-153 -15.5q-100 0 -170.5 19.5t-115 53.5t-65 81t-20.5 102q0 44 12.5 90.5t37.5 93.5q11 20 21 26t30 -3l61 -26
q17 -8 20.5 -17.5t-5.5 -29.5q-15 -33 -24 -66t-9 -59q0 -31 12 -56t39.5 -43t71.5 -27.5t109 -9.5q108 0 166 24t58 54q0 7 -4.5 14t-16 15t-30.5 18t-49 24q-83 39 -122 82.5t-39 107.5q0 38 14.5 73.5t43.5 63t73.5 44t103.5 16.5q51 0 101.5 -14t93.5 -41
q12 -8 15.5 -16t-1.5 -19l-29 -65q-7 -15 -15.5 -17t-24.5 6q-42 20 -76.5 28.5t-60.5 8.5q-48 0 -71 -19.5t-23 -51.5z" />
    <glyph glyph-name="uniFB51" unicode="&#x671;" horiz-adv-x="298" arabic-form="final" 
d="M200 168q0 -21 6 -28t26 -7h66v-133h-76q-86 0 -125 33.5t-39 99.5v544q0 15 6 20t17 7l96 12q11 2 17 -5t6 -18v-525zM165 870q11 0 17 5t6 19q0 13 -7.5 17t-18.5 4q-9 0 -24.5 -5t-27.5 -18v-22h55zM-4 857q0 13 13 13h18v93q0 16 16 19l45 9q14 3 18 -3t4 -16v-16
q17 12 33.5 19.5t36.5 7.5q13 0 28 -3.5t27.5 -13t20.5 -28t8 -48.5q0 -26 -5.5 -44t-18.5 -28.5t-35 -15t-54 -4.5h-142q-13 0 -13 13v46z" />
    <glyph glyph-name="uniFB50" unicode="&#x671;" horiz-adv-x="258" arabic-form="isolated" 
d="M58 677q0 15 6 20t17 7l96 12q11 2 17 -5t6 -18v-665q0 -28 -26 -28h-89q-11 0 -19 6.5t-8 20.5v650zM165 870q11 0 17 5t6 19q0 13 -7.5 17t-18.5 4q-9 0 -24.5 -5t-27.5 -18v-22h55zM-4 857q0 13 13 13h18v93q0 16 16 19l45 9q14 3 18 -3t4 -16v-16q17 12 33.5 19.5
t36.5 7.5q13 0 28 -3.5t27.5 -13t20.5 -28t8 -48.5q0 -26 -5.5 -44t-18.5 -28.5t-35 -15t-54 -4.5h-142q-13 0 -13 13v46z" />
    <glyph glyph-name="uniFB67" unicode="&#x679;" horiz-adv-x="974" arabic-form="final" 
d="M840 49q-37 -49 -137 -49h-403q-125 0 -188.5 57t-63.5 158v118q0 15 8.5 20.5t22.5 5.5h83q14 0 21 -5t7 -21v-71q0 -36 7 -60.5t22.5 -39.5t41.5 -22t64 -7h366q20 0 25.5 7t5.5 28v223q0 15 8.5 20.5t22.5 5.5h82q14 0 21.5 -5t7.5 -21v-236q15 -13 39.5 -17.5
t67.5 -4.5h3v-133h-3q-48 0 -80 13t-51 36zM487 595q11 0 17 5t6 19q0 13 -7.5 17t-18.5 4q-9 0 -24.5 -5t-27.5 -18v-22h55zM318 582q0 13 13 13h18v175q0 16 16 19l45 9q14 3 18 -3t4 -16v-98q17 12 33.5 19.5t36.5 7.5q13 0 28 -3.5t27.5 -13t20.5 -28t8 -48.5
q0 -26 -5.5 -44t-18.5 -28.5t-35 -15t-54 -4.5h-142q-13 0 -13 13v46z" />
    <glyph glyph-name="uniFB69" unicode="&#x679;" horiz-adv-x="388" arabic-form="medial" 
d="M388 0h-3q-48 0 -80 13t-51 36q-37 -49 -140 -49h-124q-4 0 -10 2t-11.5 9t-9.5 20t-4 35t4 35.5t9.5 20.5t11.5 9t10 2h114q20 0 26 7t6 28v223q0 15 8.5 20.5t22.5 5.5h82q14 0 21.5 -5t7.5 -21v-236q15 -13 39.5 -17.5t67.5 -4.5h3v-133zM239 595q11 0 17 5t6 19
q0 13 -7.5 17t-18.5 4q-9 0 -24.5 -5t-27.5 -18v-22h55zM70 582q0 13 13 13h18v175q0 16 16 19l45 9q14 3 18 -3t4 -16v-98q17 12 33.5 19.5t36.5 7.5q13 0 28 -3.5t27.5 -13t20.5 -28t8 -48.5q0 -26 -5.5 -44t-18.5 -28.5t-35 -15t-54 -4.5h-142q-13 0 -13 13v46z" />
    <glyph glyph-name="uniFB68" unicode="&#x679;" horiz-adv-x="326" arabic-form="initial" 
d="M94 133q20 0 26 7t6 28v223q0 15 8.5 20.5t22.5 5.5h82q14 0 21.5 -5t7.5 -21v-258q0 -66 -39 -99.5t-125 -33.5h-114q-4 0 -10 2t-11.5 9t-9.5 20t-4 35t4 35.5t9.5 20.5t11.5 9t10 2h104zM222 595q11 0 17 5t6 19q0 13 -7.5 17t-18.5 4q-9 0 -24.5 -5t-27.5 -18v-22h55
zM53 582q0 13 13 13h18v175q0 16 16 19l45 9q14 3 18 -3t4 -16v-98q17 12 33.5 19.5t36.5 7.5q13 0 28 -3.5t27.5 -13t20.5 -28t8 -48.5q0 -26 -5.5 -44t-18.5 -28.5t-35 -15t-54 -4.5h-142q-13 0 -13 13v46z" />
    <glyph glyph-name="uniFB66" unicode="&#x679;" horiz-adv-x="922" arabic-form="isolated" 
d="M48 333q0 15 8.5 20.5t22.5 5.5h83q14 0 21 -5t7 -21v-71q0 -36 7 -60.5t22.5 -39.5t41.5 -22t64 -7h366q20 0 25.5 7t5.5 28v223q0 15 8.5 20.5t22.5 5.5h82q14 0 21.5 -5t7.5 -21v-258q0 -66 -38 -99.5t-123 -33.5h-403q-125 0 -188.5 57t-63.5 158v118zM487 595
q11 0 17 5t6 19q0 13 -7.5 17t-18.5 4q-9 0 -24.5 -5t-27.5 -18v-22h55zM318 582q0 13 13 13h18v175q0 16 16 19l45 9q14 3 18 -3t4 -16v-98q17 12 33.5 19.5t36.5 7.5q13 0 28 -3.5t27.5 -13t20.5 -28t8 -48.5q0 -26 -5.5 -44t-18.5 -28.5t-35 -15t-54 -4.5h-142
q-13 0 -13 13v46z" />
    <glyph glyph-name="uniFB57" unicode="&#x67e;" horiz-adv-x="974" arabic-form="final" 
d="M840 49q-37 -49 -137 -49h-403q-125 0 -188.5 57t-63.5 158v118q0 15 8.5 20.5t22.5 5.5h83q14 0 21 -5t7 -21v-71q0 -36 7 -60.5t22.5 -39.5t41.5 -22t64 -7h366q20 0 25.5 7t5.5 28v223q0 15 8.5 20.5t22.5 5.5h82q14 0 21.5 -5t7.5 -21v-236q15 -13 39.5 -17.5
t67.5 -4.5h3v-133h-3q-48 0 -80 13t-51 36zM545 -242q-28 0 -46 16t-18 45t18 45t46 16t46 -16t18 -45t-18 -45t-46 -16zM385 -242q-28 0 -46 16t-18 45t18 45t46 16t46 -16t18 -45t-18 -45t-46 -16zM465 -379q-28 0 -46 16t-18 45t18 45t46 16t46 -16t18 -45t-18 -45
t-46 -16z" />
    <glyph glyph-name="uniFB59" unicode="&#x67e;" horiz-adv-x="388" arabic-form="medial" 
d="M388 0h-3q-48 0 -80 13t-51 36q-37 -49 -140 -49h-124q-4 0 -10 2t-11.5 9t-9.5 20t-4 35t4 35.5t9.5 20.5t11.5 9t10 2h114q20 0 26 7t6 28v223q0 15 8.5 20.5t22.5 5.5h82q14 0 21.5 -5t7.5 -21v-236q15 -13 39.5 -17.5t67.5 -4.5h3v-133zM182 -242q-28 0 -46 16
t-18 45t18 45t46 16t46 -16t18 -45t-18 -45t-46 -16zM22 -242q-28 0 -46 16t-18 45t18 45t46 16t46 -16t18 -45t-18 -45t-46 -16zM102 -379q-28 0 -46 16t-18 45t18 45t46 16t46 -16t18 -45t-18 -45t-46 -16z" />
    <glyph glyph-name="uniFB58" unicode="&#x67e;" horiz-adv-x="326" arabic-form="initial" 
d="M94 133q20 0 26 7t6 28v223q0 15 8.5 20.5t22.5 5.5h82q14 0 21.5 -5t7.5 -21v-258q0 -66 -39 -99.5t-125 -33.5h-114q-4 0 -10 2t-11.5 9t-9.5 20t-4 35t4 35.5t9.5 20.5t11.5 9t10 2h104zM173 -242q-28 0 -46 16t-18 45t18 45t46 16t46 -16t18 -45t-18 -45t-46 -16z
M13 -242q-28 0 -46 16t-18 45t18 45t46 16t46 -16t18 -45t-18 -45t-46 -16zM93 -379q-28 0 -46 16t-18 45t18 45t46 16t46 -16t18 -45t-18 -45t-46 -16z" />
    <glyph glyph-name="uniFB56" unicode="&#x67e;" horiz-adv-x="922" arabic-form="isolated" 
d="M48 333q0 15 8.5 20.5t22.5 5.5h83q14 0 21 -5t7 -21v-71q0 -36 7 -60.5t22.5 -39.5t41.5 -22t64 -7h366q20 0 25.5 7t5.5 28v223q0 15 8.5 20.5t22.5 5.5h82q14 0 21.5 -5t7.5 -21v-258q0 -66 -38 -99.5t-123 -33.5h-403q-125 0 -188.5 57t-63.5 158v118zM539 -242
q-28 0 -46 16t-18 45t18 45t46 16t46 -16t18 -45t-18 -45t-46 -16zM379 -242q-28 0 -46 16t-18 45t18 45t46 16t46 -16t18 -45t-18 -45t-46 -16zM459 -379q-28 0 -46 16t-18 45t18 45t46 16t46 -16t18 -45t-18 -45t-46 -16z" />
    <glyph glyph-name="uniFB7B" unicode="&#x686;" horiz-adv-x="607" arabic-form="final" 
d="M451 -92q0 -24 -16 -38t-39 -14t-39 14t-16 38t16 38t39 14t39 -14t16 -38zM591 -92q0 -24 -16 -38t-39 -14t-39 14t-16 38t16 38t39 14t39 -14t16 -38zM521 -209q0 -24 -16 -38t-39 -14t-39 14t-16 38t16 38t39 14t39 -14t16 -38zM285 0q-33 0 -54.5 -5.5t-34 -15.5
t-18 -24t-5.5 -30q0 -40 35.5 -63t102.5 -23h14q21 0 29.5 -8t8.5 -27v-46q0 -26 -5.5 -33.5t-21.5 -10.5q-20 -4 -51 -4q-53 0 -99.5 12.5t-81 39t-55 67.5t-20.5 98q0 97 62.5 151.5t199.5 54.5h90q-14 14 -21.5 31.5t-15.5 52.5q-10 45 -30.5 67t-59.5 22q-47 0 -114 -38
q-16 -9 -23.5 -6.5t-12.5 16.5l-28 65q-9 20 12 34q48 31 92 44.5t87 13.5q87 0 139.5 -42.5t73.5 -139.5q9 -45 24 -71.5t44 -48.5h59v-133h-322z" />
    <glyph glyph-name="uniFB7D" unicode="&#x686;" horiz-adv-x="581" arabic-form="medial" 
d="M-10 0q-4 0 -10 2t-11.5 9t-9.5 20t-4 35t4 35.5t9.5 20.5t11.5 9t10 2h369q-14 14 -21 31.5t-15 52.5q-11 45 -33.5 67t-61.5 22q-47 0 -114 -38q-16 -9 -23.5 -6.5t-12.5 16.5l-28 65q-9 20 12 34q48 31 92 44.5t87 13.5q87 0 139.5 -42.5t73.5 -139.5q10 -44 24.5 -71
t43.5 -49h59v-133h-591zM324 -242q-28 0 -46 16t-18 45t18 45t46 16t46 -16t18 -45t-18 -45t-46 -16zM164 -242q-28 0 -46 16t-18 45t18 45t46 16t46 -16t18 -45t-18 -45t-46 -16zM244 -379q-28 0 -46 16t-18 45t18 45t46 16t46 -16t18 -45t-18 -45t-46 -16z" />
    <glyph glyph-name="uniFB7C" unicode="&#x686;" horiz-adv-x="561" arabic-form="initial" 
d="M-10 0q-4 0 -10 2t-11.5 9t-9.5 20t-4 35t4 35.5t9.5 20.5t11.5 9t10 2h368q-14 14 -21.5 31.5t-15.5 52.5q-10 45 -30.5 67t-59.5 22q-47 0 -114 -38q-16 -9 -23.5 -6.5t-12.5 16.5l-28 65q-9 20 12 34q48 31 92 44.5t87 13.5q87 0 139 -42.5t74 -139.5q9 -39 19.5 -63
t34.5 -45q14 -13 17.5 -21t3.5 -20v-73q0 -14 -5.5 -22.5t-19.5 -8.5h-517zM323 -242q-28 0 -46 16t-18 45t18 45t46 16t46 -16t18 -45t-18 -45t-46 -16zM163 -242q-28 0 -46 16t-18 45t18 45t46 16t46 -16t18 -45t-18 -45t-46 -16zM243 -379q-28 0 -46 16t-18 45t18 45
t46 16t46 -16t18 -45t-18 -45t-46 -16z" />
    <glyph glyph-name="uniFB7A" unicode="&#x686;" horiz-adv-x="584" arabic-form="isolated" 
d="M441 -92q0 -24 -16 -38t-39 -14t-39 14t-16 38t16 38t39 14t39 -14t16 -38zM581 -92q0 -24 -16 -38t-39 -14t-39 14t-16 38t16 38t39 14t39 -14t16 -38zM511 -209q0 -24 -16 -38t-39 -14t-39 14t-16 38t16 38t39 14t39 -14t16 -38zM285 0q-33 0 -54.5 -5.5t-34 -15.5
t-18 -24t-5.5 -30q0 -40 35.5 -63t102.5 -23h14q21 0 29.5 -8t8.5 -27v-46q0 -26 -5.5 -33.5t-21.5 -10.5q-20 -4 -51 -4q-52 0 -98.5 12.5t-81.5 39t-55.5 67.5t-20.5 98q0 97 62.5 151.5t199.5 54.5h90q-14 14 -21.5 31.5t-15.5 52.5q-10 45 -30.5 67t-59.5 22
q-47 0 -114 -38q-16 -9 -23.5 -6.5t-12.5 16.5l-28 65q-9 20 12 34q48 31 92 44.5t87 13.5q87 0 139 -42.5t74 -139.5q9 -39 19.5 -63t34.5 -45q14 -13 17.5 -21t3.5 -20v-73q0 -14 -5.5 -22.5t-19.5 -8.5h-245z" />
    <glyph glyph-name="uniFB89" unicode="&#x688;" horiz-adv-x="606" arabic-form="final" 
d="M500 133h106v-133h-552q-15 0 -20 7.5t-5 21.5v73q0 14 5.5 22.5t19.5 8.5h304v81q0 54 -27 73t-86 19q-44 0 -79 -6t-52 -6q-11 0 -17.5 6.5t-6.5 20.5v60q0 14 4.5 20t14.5 10q29 11 70 17.5t85 6.5q123 0 179.5 -53t56.5 -166v-83zM307 595q11 0 17 5t6 19
q0 13 -7.5 17t-18.5 4q-9 0 -24.5 -5t-27.5 -18v-22h55zM138 582q0 13 13 13h18v175q0 16 16 19l45 9q14 3 18 -3t4 -16v-98q17 12 33.5 19.5t36.5 7.5q13 0 28 -3.5t27.5 -13t20.5 -28t8 -48.5q0 -26 -5.5 -44t-18.5 -28.5t-35 -15t-54 -4.5h-142q-13 0 -13 13v46z" />
    <glyph glyph-name="uniFB88" unicode="&#x688;" horiz-adv-x="548" arabic-form="isolated" 
d="M54 0q-15 0 -20 7.5t-5 21.5v73q0 14 5.5 22.5t19.5 8.5h258q29 0 37.5 9.5t8.5 36.5v35q0 54 -27 73t-87 19q-44 0 -78.5 -6t-51.5 -6q-11 0 -17.5 6.5t-6.5 20.5v60q0 14 4.5 20t14.5 10q29 11 70 17.5t85 6.5q123 0 179.5 -53t56.5 -166v-83q0 -133 -163 -133h-283z
M307 595q11 0 17 5t6 19q0 13 -7.5 17t-18.5 4q-9 0 -24.5 -5t-27.5 -18v-22h55zM138 582q0 13 13 13h18v175q0 16 16 19l45 9q14 3 18 -3t4 -16v-98q17 12 33.5 19.5t36.5 7.5q13 0 28 -3.5t27.5 -13t20.5 -28t8 -48.5q0 -26 -5.5 -44t-18.5 -28.5t-35 -15t-54 -4.5h-142
q-13 0 -13 13v46z" />
    <glyph glyph-name="uniFB8D" unicode="&#x691;" horiz-adv-x="366" arabic-form="final" 
d="M262 0q-8 -33 -22.5 -61t-39.5 -53.5t-61.5 -50t-86.5 -51.5q-26 -14 -41 14l-36 66q-8 14 -2 23t23 19q40 23 66.5 44t41.5 46t21 57.5t6 77.5v260q0 15 8.5 20.5t22.5 5.5h82q14 0 21.5 -5t7.5 -21v-258h93v-133h-104zM226 595q11 0 17 5t6 19q0 13 -7.5 17t-18.5 4
q-9 0 -24.5 -5t-27.5 -18v-22h55zM57 582q0 13 13 13h18v175q0 16 16 19l45 9q14 3 18 -3t4 -16v-98q17 12 33.5 19.5t36.5 7.5q13 0 28 -3.5t27.5 -13t20.5 -28t8 -48.5q0 -26 -5.5 -44t-18.5 -28.5t-35 -15t-54 -4.5h-142q-13 0 -13 13v46z" />
    <glyph glyph-name="uniFB8C" unicode="&#x691;" horiz-adv-x="329" arabic-form="isolated" 
d="M273 118q0 -62 -8.5 -108.5t-32.5 -84t-67 -71t-113 -70.5q-26 -14 -41 14l-36 66q-8 14 -2 23t23 19q40 23 66.5 44t41.5 46t21 57.5t6 77.5v260q0 15 8.5 20.5t22.5 5.5h82q14 0 21.5 -5t7.5 -21v-273zM226 595q11 0 17 5t6 19q0 13 -7.5 17t-18.5 4q-9 0 -24.5 -5
t-27.5 -18v-22h55zM57 582q0 13 13 13h18v175q0 16 16 19l45 9q14 3 18 -3t4 -16v-98q17 12 33.5 19.5t36.5 7.5q13 0 28 -3.5t27.5 -13t20.5 -28t8 -48.5q0 -26 -5.5 -44t-18.5 -28.5t-35 -15t-54 -4.5h-142q-13 0 -13 13v46z" />
    <glyph glyph-name="uniFB8B" unicode="&#x698;" horiz-adv-x="366" arabic-form="final" 
d="M262 0q-8 -33 -22.5 -61t-39.5 -53.5t-61.5 -50t-86.5 -51.5q-26 -14 -41 14l-36 66q-8 14 -2 23t23 19q40 23 66.5 44t41.5 46t21 57.5t6 77.5v260q0 15 8.5 20.5t22.5 5.5h82q14 0 21.5 -5t7.5 -21v-258h93v-133h-104zM120 537q-28 0 -46 16t-18 45t18 45t46 16t46 -16
t18 -45t-18 -45t-46 -16zM280 537q-28 0 -46 16t-18 45t18 45t46 16t46 -16t18 -45t-18 -45t-46 -16zM200 674q-28 0 -46 16t-18 45t18 45t46 16t46 -16t18 -45t-18 -45t-46 -16z" />
    <glyph glyph-name="uniFB8A" unicode="&#x698;" horiz-adv-x="329" arabic-form="isolated" 
d="M273 118q0 -62 -8.5 -108.5t-32.5 -84t-67 -71t-113 -70.5q-26 -14 -41 14l-36 66q-8 14 -2 23t23 19q40 23 66.5 44t41.5 46t21 57.5t6 77.5v260q0 15 8.5 20.5t22.5 5.5h82q14 0 21.5 -5t7.5 -21v-273zM120 537q-28 0 -46 16t-18 45t18 45t46 16t46 -16t18 -45t-18 -45
t-46 -16zM280 537q-28 0 -46 16t-18 45t18 45t46 16t46 -16t18 -45t-18 -45t-46 -16zM200 674q-28 0 -46 16t-18 45t18 45t46 16t46 -16t18 -45t-18 -45t-46 -16z" />
    <glyph glyph-name="uniFB6B" unicode="&#x6a4;" horiz-adv-x="1035" arabic-form="final" 
d="M623 133q-38 32 -53.5 68.5t-15.5 69.5q0 34 14.5 64.5t42.5 53.5t67.5 36.5t89.5 13.5q49 0 88.5 -13.5t67.5 -36.5t42.5 -53.5t14.5 -64.5q0 -33 -15 -69.5t-54 -68.5h123v-133h-94q-90 0 -173 34q-85 -34 -174 -34h-294q-125 0 -188.5 57t-63.5 158v118q0 15 8.5 20.5
t22.5 5.5h83q14 0 21 -5t7 -21v-71q0 -36 7 -60.5t22.5 -39.5t41.5 -22t64 -7h298zM699 251q0 -20 17 -45t52 -45q35 20 52 45t17 45q0 24 -17 40t-52 16q-34 0 -51.5 -16t-17.5 -40zM703 545q-28 0 -46 16t-18 45t18 45t46 16t46 -16t18 -45t-18 -45t-46 -16zM863 545
q-28 0 -46 16t-18 45t18 45t46 16t46 -16t18 -45t-18 -45t-46 -16zM783 682q-28 0 -46 16t-18 45t18 45t46 16t46 -16t18 -45t-18 -45t-46 -16z" />
    <glyph glyph-name="uniFB6D" unicode="&#x6a4;" horiz-adv-x="535" arabic-form="medial" 
d="M-10 0q-4 0 -10 2t-11.5 9t-9.5 20t-4 35t4 35.5t9.5 20.5t11.5 9t10 2h133q-38 32 -53.5 68.5t-15.5 69.5q0 34 14.5 64.5t42.5 53.5t67.5 36.5t89.5 13.5q49 0 88.5 -13.5t67.5 -36.5t42.5 -53.5t14.5 -64.5q0 -33 -15 -69.5t-54 -68.5h123v-133h-94q-90 0 -173 34
q-85 -34 -174 -34h-104zM198 251q0 -20 17 -45t52 -45q35 20 52.5 45t17.5 45q0 24 -17.5 40t-52.5 16t-52 -16t-17 -40zM193 545q-28 0 -46 16t-18 45t18 45t46 16t46 -16t18 -45t-18 -45t-46 -16zM353 545q-28 0 -46 16t-18 45t18 45t46 16t46 -16t18 -45t-18 -45t-46 -16
zM273 682q-28 0 -46 16t-18 45t18 45t46 16t46 -16t18 -45t-18 -45t-46 -16z" />
    <glyph glyph-name="uniFB6C" unicode="&#x6a4;" horiz-adv-x="543" arabic-form="initial" 
d="M98 133q-11 23 -17 49.5t-6 48.5q0 37 13.5 71t39.5 59.5t65.5 40.5t91.5 15q98 0 154 -53t56 -153q0 -106 -60.5 -158.5t-169.5 -52.5h-275q-4 0 -10 2t-11.5 9t-9.5 20t-4 35t4 35.5t9.5 20.5t11.5 9t10 2h108zM351 209q0 30 -15 53t-51 23t-51 -23t-15 -53
q0 -44 26 -76h31q32 0 53.5 17t21.5 59zM201 528q-28 0 -46 16t-18 45t18 45t46 16t46 -16t18 -45t-18 -45t-46 -16zM361 528q-28 0 -46 16t-18 45t18 45t46 16t46 -16t18 -45t-18 -45t-46 -16zM281 665q-28 0 -46 16t-18 45t18 45t46 16t46 -16t18 -45t-18 -45t-46 -16z
" />
    <glyph glyph-name="uniFB6A" unicode="&#x6a4;" horiz-adv-x="1029" arabic-form="isolated" 
d="M837 209q0 30 -14.5 53t-47.5 23t-47 -23t-14 -53q0 -22 6 -41t17 -35h31q29 0 49 17t20 59zM592 133q-11 23 -16.5 49.5t-5.5 48.5q0 37 13 71t38.5 59.5t64 40.5t89.5 15q97 0 151.5 -53t54.5 -153q0 -106 -59.5 -158.5t-165.5 -52.5h-456q-125 0 -188.5 57t-63.5 158
v118q0 15 8.5 20.5t22.5 5.5h83q14 0 21 -5t7 -21v-71q0 -36 7 -60.5t22.5 -39.5t41.5 -22t64 -7h267zM690 528q-28 0 -46 16t-18 45t18 45t46 16t46 -16t18 -45t-18 -45t-46 -16zM850 528q-28 0 -46 16t-18 45t18 45t46 16t46 -16t18 -45t-18 -45t-46 -16zM770 665
q-28 0 -46 16t-18 45t18 45t46 16t46 -16t18 -45t-18 -45t-46 -16z" />
    <glyph glyph-name="uniFB8F" unicode="&#x6a9;" horiz-adv-x="1004" arabic-form="final" 
d="M614 434q142 -57 211 -122.5t69 -150.5q0 -9 -1 -14q15 -8 38 -11t60 -3h13v-133h-13q-52 0 -85.5 14.5t-51.5 40.5q-33 -33 -83 -44t-99 -11h-375q-123 0 -186 57t-63 158v118q0 15 8 20.5t22 5.5h83q14 0 21.5 -5t7.5 -21v-71q0 -71 29 -100t103 -29h359q32 0 50.5 8
t18.5 31q0 19 -15.5 41.5t-50 46.5t-89.5 47.5t-133 44.5q-14 4 -19.5 9.5t-5.5 18.5v52q0 9 3 15.5t12 14.5l293 248q27 22 44 2l44 -49q11 -13 11.5 -23t-12.5 -21l-218 -185v0z" />
    <glyph glyph-name="uniFB91" unicode="&#x6a9;" horiz-adv-x="542" arabic-form="medial" 
d="M-10 0q-4 0 -10 2t-11.5 9t-9.5 20t-4 35t4 35.5t9.5 20.5t11.5 9t10 2h229q32 0 50.5 8t18.5 31q0 19 -15.5 41.5t-50 46t-89.5 47.5t-133 45q-14 4 -19.5 9.5t-5.5 18.5v52q0 9 3 15.5t12 14.5l293 248q27 22 44 2l44 -49q11 -13 11.5 -23t-12.5 -21l-218 -185
q142 -57 211 -122.5t69 -150.5q0 -9 -1 -14q15 -8 38 -11t60 -3h13v-133h-13q-52 0 -85.5 14.5t-51.5 40.5q-33 -33 -83 -44t-99 -11h-220z" />
    <glyph glyph-name="uniFB90" unicode="&#x6a9;" horiz-adv-x="480" arabic-form="initial" 
d="M-10 0q-4 0 -10 2t-11.5 9t-9.5 20t-4 35t4 35.5t9.5 20.5t11.5 9t10 2h229q32 0 50.5 8t18.5 31q0 19 -15.5 41.5t-50 46t-89.5 47.5t-133 45q-14 4 -19.5 9.5t-5.5 18.5v52q0 9 3 15.5t12 14.5l293 248q27 22 44 2l44 -49q11 -13 11.5 -23t-12.5 -21l-218 -185
q142 -57 211 -122.5t69 -150.5q0 -50 -20.5 -81.5t-52.5 -49t-71.5 -24t-77.5 -6.5h-220z" />
    <glyph glyph-name="uniFB8E" unicode="&#x6a9;" horiz-adv-x="950" arabic-form="isolated" 
d="M614 434q142 -57 211 -122.5t69 -150.5q0 -50 -20.5 -81.5t-52.5 -49t-71.5 -24t-77.5 -6.5h-375q-123 0 -186 57t-63 158v118q0 15 8 20.5t22 5.5h83q14 0 21.5 -5t7.5 -21v-71q0 -71 29 -100t103 -29h359q32 0 50.5 8t18.5 31q0 19 -15.5 41.5t-50 46.5t-89.5 47.5
t-133 44.5q-14 4 -19.5 9.5t-5.5 18.5v52q0 9 3 15.5t12 14.5l293 248q27 22 44 2l44 -49q11 -13 11.5 -23t-12.5 -21l-218 -185v0z" />
    <glyph glyph-name="uniFB93" unicode="&#x6af;" horiz-adv-x="1004" arabic-form="final" 
d="M614 434q142 -57 211 -122.5t69 -150.5q0 -9 -1 -14q15 -8 38 -11t60 -3h13v-133h-13q-52 0 -85.5 14.5t-51.5 40.5q-33 -33 -83 -44t-99 -11h-375q-123 0 -186 57t-63 158v118q0 15 8 20.5t22 5.5h83q14 0 21.5 -5t7.5 -21v-71q0 -71 29 -100t103 -29h359q32 0 50.5 8
t18.5 31q0 19 -15.5 41.5t-50 46.5t-89.5 47.5t-133 44.5q-14 4 -19.5 9.5t-5.5 18.5v52q0 9 3 15.5t12 14.5l293 248q27 22 44 2l44 -49q11 -13 11.5 -23t-12.5 -21l-218 -185v0zM489 550q-10 -8 -18.5 -9.5t-15.5 6.5l-30 34q-18 19 1 34l213 179q10 8 18.5 9.5t15.5 -6.5
l30 -34q18 -19 -1 -34z" />
    <glyph glyph-name="uniFB95" unicode="&#x6af;" horiz-adv-x="542" arabic-form="medial" 
d="M-10 0q-4 0 -10 2t-11.5 9t-9.5 20t-4 35t4 35.5t9.5 20.5t11.5 9t10 2h229q32 0 50.5 8t18.5 31q0 19 -15.5 41.5t-50 46t-89.5 47.5t-133 45q-14 4 -19.5 9.5t-5.5 18.5v52q0 9 3 15.5t12 14.5l293 248q27 22 44 2l44 -49q11 -13 11.5 -23t-12.5 -21l-218 -185
q142 -57 211 -122.5t69 -150.5q0 -9 -1 -14q15 -8 38 -11t60 -3h13v-133h-13q-52 0 -85.5 14.5t-51.5 40.5q-33 -33 -83 -44t-99 -11h-220zM4 550q-10 -8 -18.5 -9.5t-15.5 6.5l-30 34q-18 19 1 34l213 179q10 8 18.5 9.5t15.5 -6.5l30 -34q18 -19 -1 -34z" />
    <glyph glyph-name="uniFB94" unicode="&#x6af;" horiz-adv-x="480" arabic-form="initial" 
d="M-10 0q-4 0 -10 2t-11.5 9t-9.5 20t-4 35t4 35.5t9.5 20.5t11.5 9t10 2h229q32 0 50.5 8t18.5 31q0 19 -15.5 41.5t-50 46t-89.5 47.5t-133 45q-14 4 -19.5 9.5t-5.5 18.5v52q0 9 3 15.5t12 14.5l293 248q27 22 44 2l44 -49q11 -13 11.5 -23t-12.5 -21l-218 -185
q142 -57 211 -122.5t69 -150.5q0 -50 -20.5 -81.5t-52.5 -49t-71.5 -24t-77.5 -6.5h-220zM4 550q-10 -8 -18.5 -9.5t-15.5 6.5l-30 34q-18 19 1 34l213 179q10 8 18.5 9.5t15.5 -6.5l30 -34q18 -19 -1 -34z" />
    <glyph glyph-name="uniFB92" unicode="&#x6af;" horiz-adv-x="950" arabic-form="isolated" 
d="M614 434q142 -57 211 -122.5t69 -150.5q0 -50 -20.5 -81.5t-52.5 -49t-71.5 -24t-77.5 -6.5h-375q-123 0 -186 57t-63 158v118q0 15 8 20.5t22 5.5h83q14 0 21.5 -5t7.5 -21v-71q0 -71 29 -100t103 -29h359q32 0 50.5 8t18.5 31q0 19 -15.5 41.5t-50 46.5t-89.5 47.5
t-133 44.5q-14 4 -19.5 9.5t-5.5 18.5v52q0 9 3 15.5t12 14.5l293 248q27 22 44 2l44 -49q11 -13 11.5 -23t-12.5 -21l-218 -185v0zM489 550q-10 -8 -18.5 -9.5t-15.5 6.5l-30 34q-18 19 1 34l213 179q10 8 18.5 9.5t15.5 -6.5l30 -34q18 -19 -1 -34z" />
    <glyph glyph-name="uniFB9F" unicode="&#x6ba;" horiz-adv-x="696" arabic-form="final" 
d="M613 133h83v-133h-86q-14 -106 -85 -163t-201 -57q-63 0 -115.5 14.5t-90.5 45t-59 78t-21 114.5q0 42 11.5 84.5t32.5 83.5q10 20 19.5 26t29.5 -3l56 -26q17 -8 21.5 -17.5t-3.5 -29.5q-14 -34 -18.5 -63.5t-4.5 -51.5q0 -66 38.5 -96t107.5 -30q78 0 110.5 37
t32.5 107v248q0 15 8 20.5t20 5.5h87q14 0 20.5 -5t6.5 -21v-168z" />
    <glyph glyph-name="uniFB9E" unicode="&#x6ba;" horiz-adv-x="671" arabic-form="isolated" 
d="M613 50q0 -129 -72 -199.5t-217 -70.5q-63 0 -115.5 14.5t-90.5 45t-59 78t-21 114.5q0 42 11.5 84.5t32.5 83.5q10 20 19.5 26t29.5 -3l56 -26q17 -8 21.5 -17.5t-3.5 -29.5q-14 -34 -18.5 -63.5t-4.5 -51.5q0 -66 38.5 -96t107.5 -30q78 0 110.5 37t32.5 107v248
q0 15 8 20.5t20 5.5h87q14 0 20.5 -5t6.5 -21v-251z" />
    <glyph glyph-name="uniFBAB" unicode="&#x6be;" horiz-adv-x="679" arabic-form="final" 
d="M425 -161q20 0 32 12t12 30q0 14 -9 30t-29 32.5t-52 31t-79 25.5q3 -22 12 -50t24.5 -52.5t37.5 -41.5t51 -17zM159 133q9 72 32.5 128.5t58.5 95t78 58.5t91 20q41 0 73 -13t54.5 -35t34.5 -50.5t12 -58.5q0 -38 -20.5 -77t-65.5 -68h172v-133h-129q28 -32 40.5 -63.5
t12.5 -61.5q0 -38 -15 -68t-40.5 -52t-59 -33.5t-70.5 -11.5q-41 0 -82.5 16t-77 51t-62.5 90t-37 133h-93q-16 0 -21 7.5t-5 21.5v73q0 14 5.5 22.5t20.5 8.5h93zM302 138q41 12 69 27t45.5 32t25.5 34.5t8 34.5q0 20 -11 30t-27 10q-27 0 -46.5 -16.5t-32.5 -41.5
t-20.5 -54.5t-10.5 -55.5z" />
    <glyph glyph-name="uniFBAD" unicode="&#x6be;" horiz-adv-x="635" arabic-form="medial" 
d="M115 133q9 72 32.5 128.5t58.5 95t78 58.5t91 20q41 0 73 -13t54.5 -35t34.5 -50.5t12 -58.5q0 -38 -20.5 -77t-65.5 -68h172v-133h-129q28 -32 40.5 -63.5t12.5 -61.5q0 -38 -15 -68t-40.5 -52t-59 -33.5t-70.5 -11.5q-41 0 -82.5 16t-77 51t-62.5 90t-37 133h-125
q-4 0 -10 2t-11.5 9t-9.5 20t-4 35t4 35.5t9.5 20.5t11.5 9t10 2h125zM381 -161q20 0 32 12t12 30q0 14 -9 30t-29 32.5t-52 31t-79 25.5q3 -22 12 -50t24.5 -52.5t37.5 -41.5t51 -17zM258 138q41 12 69 27t45.5 32t25.5 34.5t8 34.5q0 20 -11 30t-27 10q-27 0 -46.5 -16.5
t-32.5 -41.5t-20.5 -54.5t-10.5 -55.5z" />
    <glyph glyph-name="uniFBAC" unicode="&#x6be;" horiz-adv-x="738" arabic-form="initial" 
d="M57 133q72 0 126 9q-29 32 -46 68.5t-17 75.5q0 67 57 117l-28 14q-20 10 -21 18t4 17l30 56q7 12 13.5 16t22.5 -1q141 -40 235 -90.5t150.5 -103.5t80.5 -104t24 -92q0 -29 -10.5 -54.5t-31.5 -44t-52 -29t-72 -10.5q-49 0 -102 13.5t-104 38.5q-55 -22 -122.5 -34.5
t-148.5 -12.5h-55q-4 0 -10 2t-11.5 9t-9.5 20t-4 35t4 35.5t9.5 20.5t11.5 9t10 2h67zM252 286q0 -28 18 -53.5t47 -46.5q35 21 51.5 45.5t16.5 47.5q0 14 -7 25.5t-18.5 19.5t-25 12t-26.5 4q-23 0 -39.5 -13t-16.5 -41zM508 236q-15 -58 -70 -111q14 -3 27.5 -5.5
t30.5 -2.5q25 0 37.5 11.5t12.5 29.5q0 16 -10 36t-28 42z" />
    <glyph glyph-name="uniFBAA" unicode="&#x6be;" horiz-adv-x="815" arabic-form="isolated" 
d="M275 523q141 -40 235 -90.5t150.5 -103.5t80.5 -104t24 -92q0 -29 -10.5 -54.5t-31.5 -44t-52 -29t-72 -10.5q-49 0 -102 13.5t-104 38.5q-55 -22 -122.5 -34.5t-148.5 -12.5h-56q-16 0 -21 7.5t-5 21.5v73q0 14 5.5 22.5t20.5 8.5h68q72 0 126 9q-29 32 -46 68.5
t-17 75.5q0 67 57 117l-28 14q-20 10 -21 18t4 17l30 56q7 12 13.5 16t22.5 -1zM329 286q0 -28 18 -53.5t47 -46.5q35 21 51.5 45.5t16.5 47.5q0 14 -7 25.5t-18.5 19.5t-25 12t-26.5 4q-23 0 -39.5 -13t-16.5 -41zM585 236q-15 -58 -70 -111q14 -3 27.5 -5.5t30.5 -2.5
q25 0 37.5 11.5t12.5 29.5q0 16 -10 36t-28 42z" />
    <glyph glyph-name="uniFBA5" unicode="&#x6c0;" horiz-adv-x="545" arabic-form="final" 
d="M446 181q0 -26 11 -37t41 -11h47v-133h-50q-128 0 -170 66q-23 -8 -49.5 -12t-54.5 -4q-34 0 -66 7.5t-57 24t-40.5 43t-15.5 65.5q0 27 10.5 58.5t39.5 64t80 65t132 61.5v32q0 15 5.5 20t16.5 7l97 12q11 2 17 -5t6 -18v-306zM184 215q0 -21 15.5 -28.5t38.5 -7.5
q18 0 35 4t31 9v123q-55 -21 -87.5 -47t-32.5 -53zM288 689q-8 11 -12.5 26t-4.5 31q0 45 31.5 72.5t78.5 27.5q21 0 43 -6.5t42 -20.5q7 -5 10 -11.5t-1 -14.5l-14 -30q-3 -8 -7 -11t-14 2q-29 15 -50 15q-19 0 -29.5 -11.5t-10.5 -30.5q0 -18 14 -38h102q11 0 14.5 -4
t3.5 -13v-42q0 -9 -3.5 -13t-14.5 -4h-200q-11 0 -14.5 4.5t-3.5 13.5v42q0 9 3.5 12.5t14.5 3.5h22z" />
    <glyph glyph-name="uniFBA4" unicode="&#x6c0;" horiz-adv-x="532" arabic-form="isolated" 
d="M266 -13q-50 0 -90 14t-68.5 41t-44 66.5t-15.5 90.5q0 43 13.5 85t40.5 75.5t68 54.5t96 21q54 0 95 -21t68.5 -54.5t41 -75.5t13.5 -85q0 -51 -15.5 -90.5t-44 -66.5t-69 -41t-89.5 -14zM266 301q-20 0 -34 -9t-23 -24t-13 -33t-4 -36q0 -32 17 -55t57 -23t57 23t17 55
q0 18 -4 36t-13 33t-23 24t-34 9zM188 599q-8 11 -12.5 26t-4.5 31q0 45 31.5 72.5t78.5 27.5q21 0 43 -6.5t42 -20.5q7 -5 10 -11.5t-1 -14.5l-14 -30q-3 -8 -7 -11t-14 2q-29 15 -50 15q-19 0 -29.5 -11.5t-10.5 -30.5q0 -18 14 -38h102q11 0 14.5 -4t3.5 -13v-42
q0 -9 -3.5 -13t-14.5 -4h-200q-11 0 -14.5 4.5t-3.5 13.5v42q0 9 3.5 12.5t14.5 3.5h22z" />
    <glyph glyph-name="uniFBA7" unicode="&#x6c1;" horiz-adv-x="551" arabic-form="final" 
d="M551 133v-133h-53q-68 0 -112.5 18t-75.5 39.5t-53.5 39.5t-46.5 18q-11 0 -19.5 -7t-8.5 -24v-110q0 -28 -26 -28h-89q-11 0 -19 6.5t-8 20.5v116q0 37 12 65.5t32.5 48.5t48.5 30.5t61 10.5q35 0 60.5 -8t46.5 -20.5t40 -27t41 -27t49.5 -20.5t66.5 -8h53z" />
    <glyph glyph-name="uniFBA9" unicode="&#x6c1;" horiz-adv-x="597" arabic-form="medial" 
d="M15 133q43 0 67.5 4.5t39.5 17.5v181q0 15 8.5 20.5t22.5 5.5h82q14 0 21.5 -5t7.5 -21v-99q0 -46 2 -83t7.5 -69t14 -59.5t22.5 -54.5q5 76 59 119t158 43h70v-133h-69q-88 0 -88 -75q0 -26 7 -65t20 -82q7 -25 -12 -33l-63 -29q-12 -5 -18.5 -5.5t-16.5 7.5
q-88 75 -145 157t-78 161q-20 -17 -49 -26.5t-70 -9.5h-25q-4 0 -10 2t-11.5 9t-9.5 20t-4 35t4 35.5t9.5 20.5t11.5 9t10 2h25z" />
    <glyph glyph-name="uniFBA8" unicode="&#x6c1;" horiz-adv-x="326" arabic-form="initial" 
d="M177 -43q17 0 22 -7.5t-2 -20.5q-35 -67 -35 -93q0 -18 25 -18q15 0 23 -3t8 -14q0 -12 -6 -27t-18 -27.5t-29 -21t-39 -8.5q-37 0 -61 25t-24 66q0 27 12.5 60t40.5 70q8 11 18 15t27 4h38zM94 133q20 0 26 7t6 28v223q0 15 8.5 20.5t22.5 5.5h82q14 0 21.5 -5t7.5 -21
v-258q0 -66 -39 -99.5t-125 -33.5h-114q-4 0 -10 2t-11.5 9t-9.5 20t-4 35t4 35.5t9.5 20.5t11.5 9t10 2h104z" />
    <glyph glyph-name="uniFBA6" unicode="&#x6c1;" horiz-adv-x="532" arabic-form="isolated" 
d="M266 -13q-50 0 -90 14t-68.5 41t-44 66.5t-15.5 90.5q0 43 13.5 85t40.5 75.5t68 54.5t96 21q54 0 95 -21t68.5 -54.5t41 -75.5t13.5 -85q0 -51 -15.5 -90.5t-44 -66.5t-69 -41t-89.5 -14zM266 301q-20 0 -34 -9t-23 -24t-13 -33t-4 -36q0 -32 17 -55t57 -23t57 23t17 55
q0 18 -4 36t-13 33t-23 24t-34 9z" />
    <glyph glyph-name="uni06C2.fina" unicode="&#x6c2;" horiz-adv-x="551" 
d="M551 133v-133h-53q-68 0 -112.5 18t-75.5 39.5t-53.5 39.5t-46.5 18q-11 0 -19.5 -7t-8.5 -24v-110q0 -28 -26 -28h-89q-11 0 -19 6.5t-8 20.5v116q0 37 12 65.5t32.5 48.5t48.5 30.5t61 10.5q35 0 60.5 -8t46.5 -20.5t40 -27t41 -27t49.5 -20.5t66.5 -8h53zM152 427
q-8 11 -12.5 26t-4.5 31q0 45 31.5 72.5t78.5 27.5q21 0 43 -6.5t42 -20.5q7 -5 10 -11.5t-1 -14.5l-14 -30q-3 -8 -7 -11t-14 2q-29 15 -50 15q-19 0 -29.5 -11.5t-10.5 -30.5q0 -18 14 -38h102q11 0 14.5 -4t3.5 -13v-42q0 -9 -3.5 -13t-14.5 -4h-200q-11 0 -14.5 4.5
t-3.5 13.5v42q0 9 3.5 12.5t14.5 3.5h22z" />
    <glyph glyph-name="uni06C3.fina" unicode="&#x6c3;" horiz-adv-x="545" 
d="M446 181q0 -26 11 -37t41 -11h47v-133h-50q-128 0 -170 66q-23 -8 -49.5 -12t-54.5 -4q-34 0 -66 7.5t-57 24t-40.5 43t-15.5 65.5q0 27 10.5 58.5t39.5 64t80 65t132 61.5v32q0 15 5.5 20t16.5 7l97 12q11 2 17 -5t6 -18v-306zM184 215q0 -21 15.5 -28.5t38.5 -7.5
q18 0 35 4t31 9v123q-55 -21 -87.5 -47t-32.5 -53zM275 620q-28 0 -46 16t-18 45t18 45t46 16t46 -16t18 -45t-18 -45t-46 -16zM435 620q-28 0 -46 16t-18 45t18 45t46 16t46 -16t18 -45t-18 -45t-46 -16z" />
    <glyph glyph-name="uniFBFD" unicode="&#x6cc;" horiz-adv-x="792" arabic-form="final" 
d="M638 -26q0 6 -3 12t-11 13t-23 14.5t-40 16.5l-102 35q-17 5 -21.5 14.5t0.5 24.5l20 63q6 18 16 23.5t29 -0.5l47 -16q35 -12 63 -20t53.5 -12.5t51.5 -6.5t59 -2h15v-133h-13q2 -6 2.5 -13.5t0.5 -10.5q0 -39 -22.5 -74.5t-68.5 -62.5t-116 -43t-166 -16
q-100 0 -170.5 19.5t-115 53.5t-65 81t-20.5 102q0 44 12.5 90.5t37.5 93.5q11 20 21 26t30 -3l61 -26q17 -8 20.5 -17.5t-5.5 -29.5q-15 -33 -24 -66t-9 -59q0 -31 12 -56t39.5 -43t71.5 -27.5t109 -9.5q108 0 166 17.5t58 47.5z" />
    <glyph glyph-name="uniFBFF" unicode="&#x6cc;" horiz-adv-x="388" arabic-form="medial" 
d="M388 0h-3q-48 0 -80 13t-51 36q-37 -49 -140 -49h-124q-4 0 -10 2t-11.5 9t-9.5 20t-4 35t4 35.5t9.5 20.5t11.5 9t10 2h114q20 0 26 7t6 28v223q0 15 8.5 20.5t22.5 5.5h82q14 0 21.5 -5t7.5 -21v-236q15 -13 39.5 -17.5t67.5 -4.5h3v-133zM23 -242q-28 0 -46 16t-18 45
t18 45t46 16t46 -16t18 -45t-18 -45t-46 -16zM183 -242q-28 0 -46 16t-18 45t18 45t46 16t46 -16t18 -45t-18 -45t-46 -16z" />
    <glyph glyph-name="uniFBFE" unicode="&#x6cc;" horiz-adv-x="326" arabic-form="initial" 
d="M94 133q20 0 26 7t6 28v223q0 15 8.5 20.5t22.5 5.5h82q14 0 21.5 -5t7.5 -21v-258q0 -66 -39 -99.5t-125 -33.5h-114q-4 0 -10 2t-11.5 9t-9.5 20t-4 35t4 35.5t9.5 20.5t11.5 9t10 2h104zM13 -242q-28 0 -46 16t-18 45t18 45t46 16t46 -16t18 -45t-18 -45t-46 -16z
M173 -242q-28 0 -46 16t-18 45t18 45t46 16t46 -16t18 -45t-18 -45t-46 -16z" />
    <glyph glyph-name="uniFBFC" unicode="&#x6cc;" horiz-adv-x="873" arabic-form="isolated" 
d="M521 245q0 -12 5 -22.5t16.5 -20t30.5 -20.5t48 -25q41 -20 71.5 -37.5t50.5 -37t29.5 -42t9.5 -51.5q0 -46 -27 -84.5t-75.5 -66t-117.5 -43t-153 -15.5q-100 0 -170.5 19.5t-115 53.5t-65 81t-20.5 102q0 44 12.5 90.5t37.5 93.5q11 20 21 26t30 -3l61 -26
q17 -8 20.5 -17.5t-5.5 -29.5q-15 -33 -24 -66t-9 -59q0 -31 12 -56t39.5 -43t71.5 -27.5t109 -9.5q108 0 166 24t58 54q0 7 -4.5 14t-16 15t-30.5 18t-49 24q-83 39 -122 82.5t-39 107.5q0 38 14.5 73.5t43.5 63t73.5 44t103.5 16.5q51 0 101.5 -14t93.5 -41
q12 -8 15.5 -16t-1.5 -19l-29 -65q-7 -15 -15.5 -17t-24.5 6q-42 20 -76.5 28.5t-60.5 8.5q-48 0 -71 -19.5t-23 -51.5z" />
    <glyph glyph-name="uniFBAF" unicode="&#x6d2;" horiz-adv-x="640" arabic-form="final" 
d="M640 133v-133h-374q-42 0 -57 -15t-15 -43q0 -32 22.5 -45t67.5 -13h485q15 0 20.5 -8.5t5.5 -22.5v-73q0 -14 -5 -21.5t-21 -7.5h-464q-131 0 -193 46.5t-62 144.5q0 90 53.5 140.5t163.5 50.5h373z" />
    <glyph glyph-name="uniFBAE" unicode="&#x6d2;" horiz-adv-x="941" arabic-form="isolated" 
d="M232 201q-23 -16 -30.5 -26.5t-7.5 -19.5q0 -22 32 -22h649q15 0 20.5 -8.5t5.5 -22.5v-73q0 -14 -5 -21.5t-21 -7.5h-634q-92 0 -141.5 35.5t-49.5 104.5q0 28 9.5 52.5t25.5 45t36 37.5t41 32q40 28 70.5 52.5t53.5 47.5q15 14 25 17t21 -6l50 -41q14 -11 17.5 -20.5
t-7.5 -23.5q-8 -10 -18.5 -21t-28 -26t-44.5 -35.5t-69 -49.5z" />
    <glyph glyph-name="uniFBB1" unicode="&#x6d3;" horiz-adv-x="640" arabic-form="final" 
d="M640 133v-133h-374q-42 0 -57 -15t-15 -43q0 -32 22.5 -45t67.5 -13h485q15 0 20.5 -8.5t5.5 -22.5v-73q0 -14 -5 -21.5t-21 -7.5h-464q-131 0 -193 46.5t-62 144.5q0 90 53.5 140.5t163.5 50.5h373zM147 326q-8 11 -12.5 26t-4.5 31q0 45 31.5 72.5t78.5 27.5
q21 0 43 -6.5t42 -20.5q7 -5 10 -11.5t-1 -14.5l-14 -30q-3 -8 -7 -11t-14 2q-29 15 -50 15q-19 0 -29.5 -11.5t-10.5 -30.5q0 -18 14 -38h102q11 0 14.5 -4t3.5 -13v-42q0 -9 -3.5 -13t-14.5 -4h-200q-11 0 -14.5 4.5t-3.5 13.5v42q0 9 3.5 12.5t14.5 3.5h22z" />
    <glyph glyph-name="uniFBB0" unicode="&#x6d3;" horiz-adv-x="941" arabic-form="isolated" 
d="M232 201q-23 -16 -30.5 -26.5t-7.5 -19.5q0 -22 32 -22h649q15 0 20.5 -8.5t5.5 -22.5v-73q0 -14 -5 -21.5t-21 -7.5h-634q-92 0 -141.5 35.5t-49.5 104.5q0 28 9.5 52.5t25.5 45t36 37.5t41 32q40 28 70.5 52.5t53.5 47.5q15 14 25 17t21 -6l50 -41q14 -11 17.5 -20.5
t-7.5 -23.5q-8 -10 -18.5 -21t-28 -26t-44.5 -35.5t-69 -49.5zM112 599q-8 11 -12.5 26t-4.5 31q0 45 31.5 72.5t78.5 27.5q21 0 43 -6.5t42 -20.5q7 -5 10 -11.5t-1 -14.5l-14 -30q-3 -8 -7 -11t-14 2q-29 15 -50 15q-19 0 -29.5 -11.5t-10.5 -30.5q0 -18 14 -38h102
q11 0 14.5 -4t3.5 -13v-42q0 -9 -3.5 -13t-14.5 -4h-200q-11 0 -14.5 4.5t-3.5 13.5v42q0 9 3.5 12.5t14.5 3.5h22z" />
    <glyph glyph-name="uni06A1.init" unicode="&#x6a1;" horiz-adv-x="543" 
d="M98 133q-11 23 -17 49.5t-6 48.5q0 37 13.5 71t39.5 59.5t65.5 40.5t91.5 15q98 0 154 -53t56 -153q0 -106 -60.5 -158.5t-169.5 -52.5h-275q-4 0 -10 2t-11.5 9t-9.5 20t-4 35t4 35.5t9.5 20.5t11.5 9t10 2h108zM351 209q0 30 -15 53t-51 23t-51 -23t-15 -53
q0 -44 26 -76h31q32 0 53.5 17t21.5 59z" />
    <glyph glyph-name="uni06A1.medi" unicode="&#x6a1;" horiz-adv-x="535" 
d="M-10 0q-4 0 -10 2t-11.5 9t-9.5 20t-4 35t4 35.5t9.5 20.5t11.5 9t10 2h133q-38 32 -53.5 68.5t-15.5 69.5q0 34 14.5 64.5t42.5 53.5t67.5 36.5t89.5 13.5q49 0 88.5 -13.5t67.5 -36.5t42.5 -53.5t14.5 -64.5q0 -33 -15 -69.5t-54 -68.5h123v-133h-94q-90 0 -173 34
q-85 -34 -174 -34h-104zM198 251q0 -20 17 -45t52 -45q35 20 52.5 45t17.5 45q0 24 -17.5 40t-52.5 16t-52 -16t-17 -40z" />
    <glyph glyph-name="uni06A1.fina" unicode="&#x6a1;" horiz-adv-x="1035" 
d="M623 133q-38 32 -53.5 68.5t-15.5 69.5q0 34 14.5 64.5t42.5 53.5t67.5 36.5t89.5 13.5q49 0 88.5 -13.5t67.5 -36.5t42.5 -53.5t14.5 -64.5q0 -33 -15 -69.5t-54 -68.5h123v-133h-94q-90 0 -173 34q-85 -34 -174 -34h-294q-125 0 -188.5 57t-63.5 158v118q0 15 8.5 20.5
t22.5 5.5h83q14 0 21 -5t7 -21v-71q0 -36 7 -60.5t22.5 -39.5t41.5 -22t64 -7h298zM699 251q0 -20 17 -45t52 -45q35 20 52 45t17 45q0 24 -17 40t-52 16q-34 0 -51.5 -16t-17.5 -40z" />
    <glyph glyph-name="uni06D5.fina" unicode="&#x6d5;" horiz-adv-x="545" 
d="M446 181q0 -26 11 -37t41 -11h47v-133h-50q-128 0 -170 66q-23 -8 -49.5 -12t-54.5 -4q-34 0 -66 7.5t-57 24t-40.5 43t-15.5 65.5q0 27 10.5 58.5t39.5 64t80 65t132 61.5v32q0 15 5.5 20t16.5 7l97 12q11 2 17 -5t6 -18v-306zM184 215q0 -21 15.5 -28.5t38.5 -7.5
q18 0 35 4t31 9v123q-55 -21 -87.5 -47t-32.5 -53z" />
    <glyph glyph-name="uniFDFA" unicode="&#xfdfa;" horiz-adv-x="1522" arabic-form="isolated" 
d="M1402 275q-22 10 -36 10q-32 0 -32 -26q0 -18 16 -34h93q15 0 15 -15v-30q0 -8 -3 -12t-12 -4h-342q-38 0 -56 18q-17 -18 -55 -18h-424q-38 0 -56 18q-17 -18 -55 -18h-210q-51 0 -68 26q-20 -6 -41 -6q-29 0 -52.5 13.5t-23.5 45.5q0 11 4.5 23.5t16 26t32.5 27
t54 25.5v12q0 14 11 15l37 5q15 2 15 -12v-125q0 -15 16 -15h205q9 0 9 10v90q0 6 3.5 9t8.5 3h40q11 0 11 -12v-93q6 -5 16 -6t28 -1h419q9 0 9 10v200q0 14 11 15l37 5q15 2 15 -12v-211q6 -5 16 -6t28 -1h178q-11 20 -11 41q0 35 25.5 56.5t66.5 21.5q37 0 65 -19
q5 -4 6.5 -7t-0.5 -9l-13 -29q-4 -11 -17 -5zM965 -39q0 6 3.5 9t8.5 3h40q11 0 11 -12v-58q9 -8 22 -8q10 0 12.5 5.5t2.5 12.5v84q0 6 3.5 9t8.5 3h40q11 0 11 -12v-94q0 -27 -17 -47t-49 -20q-14 0 -27.5 4.5t-24.5 15.5q-18 -20 -48 -20q-28 0 -49 18q-17 -18 -56 -18
h-109q-20 0 -33.5 5t-22.5 13q-17 -18 -55 -18h-417q-17 0 -23 -4t-6 -15q0 -10 2.5 -29t8.5 -46q2 -10 -2 -13.5t-12 -4.5l-31 -4q-10 -2 -13.5 1.5t-5.5 13.5q-5 24 -8.5 45t-3.5 40q0 35 17 54t47 21q-9 18 -9 37q0 30 22.5 53.5t65.5 23.5q41 0 64 -21.5t23 -63.5
q0 -6 -0.5 -12.5t-3.5 -14.5h281q9 0 9 10v200q0 14 11 15l37 5q15 2 15 -12v-210q6 -5 16 -6.5t28 -1.5h104q6 0 8 1.5t2 8.5v54q0 6 3.5 9t8.5 3h40q11 0 11 -12v-57q12 -9 25 -9q9 0 11.5 5.5t2.5 12.5v48zM1101 492q-38 0 -56 18q-17 -18 -55 -18h-27v-6
q0 -16 -9.5 -30.5t-30 -26t-54 -18t-81.5 -6.5q-50 0 -83.5 8t-53.5 22.5t-29 33.5t-9 41q0 38 20 75q5 9 9.5 12t13.5 -1l29 -12q8 -4 9.5 -8.5t-3.5 -13.5q-13 -29 -13 -48q0 -12 5 -21.5t17.5 -16t34.5 -10t55 -3.5q58 0 83 6t25 17q0 3 -5.5 8t-21.5 10l-43 15
q-14 4 -9 18l9 28q4 16 20 10l20 -7q29 -11 48.5 -13t49.5 -2h20q9 0 9 10v200q0 14 11 15l37 5q15 2 15 -12v-211q6 -5 16 -6t28 -1h32v100q0 6 3.5 9t8.5 3h40q11 0 11 -12v-28q20 25 48 37t51 12q47 0 71.5 -28t24.5 -73t-21 -63t-77 -18h-193zM455 492q-40 0 -56 18
q-17 -18 -56 -18h-32q-51 0 -68 26q-20 -6 -41 -6q-29 0 -52.5 13.5t-23.5 45.5q0 11 4.5 23.5t16 26t32.5 27t54 25.5v12q0 14 11 15l37 5q15 2 15 -12v-125q0 -15 16 -15h27q9 0 9 10v141q0 14 11 15l37 5q15 2 15 -12v-152q6 -5 15 -6t25 -1q9 0 9 10v160q0 14 11 15
l37 5q15 2 15 -12v-182q0 -57 -68 -57zM1257 -218q-5 11 10 19q35 21 49 37q-10 -2 -20 -2q-32 0 -55 22.5t-23 65.5q0 38 23.5 61.5t64.5 23.5q38 0 62 -20t24 -62v-40q0 -26 -3.5 -45t-14 -35t-30.5 -30.5t-52 -30.5q-13 -6 -19 6zM823 -269q4 0 4 4v35q0 8 8 8h26
q7 0 7 -8v-35q7 -5 14 -5q5 0 6 3t1 6v31q0 8 8 8h26q7 0 7 -8v-36q5 -4 12 -4q5 0 6 3t1 6v53q0 8 8 8h26q7 0 7 -8v-59q0 -17 -11 -29t-30 -12q-18 0 -31 11q-5 -5 -12.5 -8t-16.5 -3q-15 0 -30 10q-12 -10 -34 -10h-155q-8 0 -8 8v24q0 7 8 7h153zM724 763q0 14 11 15
l37 5q15 2 15 -12v-267q0 -12 -11 -12h-40q-5 0 -8.5 3t-3.5 9v259zM416 835q0 9 9 9h19q8 0 8 -9v-35q0 -21 -9 -33.5t-27 -12.5q-19 0 -32 13q-13 -17 -35 -17q-21 0 -30 13t-9 33v29q0 9 9 9h19q8 0 8 -9v-28q0 -11 9 -11q8 0 8 11v33q0 9 9 9h19q8 0 8 -9v-29
q0 -11 8 -11q9 0 9 11v34zM1116 724q-6 -1 -9.5 1.5t-3.5 11.5v8q0 8 2 10t11 4l143 18q6 1 9.5 -1.5t3.5 -11.5v-8q0 -8 -2 -10t-11 -4zM692 287q-6 -1 -9.5 1.5t-3.5 11.5v8q0 8 2 10t11 4l143 18q6 1 9.5 -1.5t3.5 -11.5v-8q0 -8 -2 -10t-11 -4zM1260 389q-6 -1 -9.5 1.5
t-3.5 11.5v8q0 8 2 10t11 4l143 18q6 1 9.5 -1.5t3.5 -11.5v-8q0 -8 -2 -10t-11 -4zM810 32q-6 -1 -9.5 1.5t-3.5 11.5v8q0 8 2 10t11 4l143 18q6 1 9.5 -1.5t3.5 -11.5v-8q0 -8 -2 -10t-11 -4zM1327 573q0 20 -9 31t-25 11q-28 0 -53.5 -19.5t-42.5 -42.5h106q14 0 19 4
t5 16zM878 699q0 27 -16 56q-6 11 7 14l13 3q7 2 10 -0.5t8 -10.5q8 -14 12 -30.5t4 -31.5t-4 -31.5t-12 -30.5q-5 -8 -8 -10.5t-10 -0.5l-13 3q-13 3 -7 14q16 29 16 56zM399 867q0 -9 -8 -9h-19q-9 0 -9 9v71q0 8 6 9l21 3q9 2 9 -7v-76zM528 67q-14 0 -22.5 7.5
t-8.5 21.5t8.5 21.5t22.5 7.5t22.5 -7.5t8.5 -21.5t-8.5 -21.5t-22.5 -7.5zM452 67q-14 0 -22.5 7.5t-8.5 21.5t8.5 21.5t22.5 7.5t22.5 -7.5t8.5 -21.5t-8.5 -21.5t-22.5 -7.5zM1283 -75q0 -17 7 -23.5t18 -6.5q13 0 21 5v28q0 23 -22 23q-24 0 -24 -26zM291 -77
q0 11 -5 19.5t-17 8.5t-17.5 -8.5t-5.5 -19.5q0 -15 8 -26h11q11 0 18.5 6t7.5 20zM209 570q5 0 11 1t13 3v41q-20 -8 -31 -17t-11 -17q0 -11 18 -11zM143 242q5 0 11 1t13 3v41q-20 -8 -31 -17t-11 -17q0 -11 18 -11z" />
    <glyph glyph-name="uniFDF2" unicode="&#xfdf2;" horiz-adv-x="1351" arabic-form="isolated" 
d="M510 0q-128 0 -170 66q-24 -8 -52 -12t-56 -4q-35 0 -67.5 7.5t-58 24t-41 43t-15.5 65.5q0 27 11 58.5t41 64t82 65t134 61.5v32q0 15 6 20t17 7l96 12q11 2 17 -5t6 -18v-306q0 -26 11.5 -37t41.5 -11h67q20 0 26 7t6 28v357q0 15 6 20t17 7l96 12q11 2 17 -5t6 -18
v-386q15 -13 39.5 -17.5t67.5 -4.5q20 0 26 7t6 28v409q0 15 6 20t17 7l96 12q11 2 17 -5t6 -18v-460q0 -66 -39 -99.5t-125 -33.5h-10q-48 0 -80 13t-51 36q-37 -49 -140 -49h-80zM194 215q0 -21 16 -28.5t39 -7.5q19 0 37 4t32 9v123q-56 -21 -90 -47t-34 -53zM780 846
q0 17 15 17h41q17 0 17 -17v-87q0 -50 -20 -77t-68 -27q-21 0 -42 9t-35 28q-15 -24 -38.5 -35.5t-46.5 -11.5q-47 0 -68 28.5t-21 75.5v71q0 17 17 17h41q15 0 15 -17v-68q0 -36 31 -36q29 0 29 36v81q0 17 17 17h41q15 0 15 -17v-68q0 -39 29 -39q14 0 22.5 9t8.5 29v82z
M720 927q0 -17 -15 -17h-42q-17 0 -17 17v177q0 16 13 17l44 6q8 1 12.5 -1.5t4.5 -12.5v-186zM1149 677q0 15 6 20t17 7l96 12q11 2 17 -5t6 -18v-665q0 -28 -26 -28h-89q-11 0 -19 6.5t-8 20.5v650z" />
    <glyph glyph-name="uniFC5E" unicode="&#xfc5e;" arabic-form="isolated" 
d="M32 622q0 -11 6 -14t12 -3q17 0 17 19v105q0 12 13 12h40q13 0 13 -12v-122q0 -37 -14.5 -55t-52.5 -18q-11 0 -29 5t-32 27q-5 -13 -13 -21.5t-18 -13t-20 -6.5t-19 -2q-32 0 -50 18t-18 50v112q0 12 13 12h40q13 0 13 -12v-92q0 -11 5 -14t11 -3q8 0 13.5 4.5t5.5 14.5
v103q0 12 11 12h42q11 0 11 -12v-94zM-73 792q-26 -5 -26 18q0 14 4 32.5t4 33.5q0 14 -13 14q-3 0 -7 -0.5t-9 -1.5q-10 -3 -10 7v30q0 9 10 13q9 4 21 5.5t21 1.5q5 0 12 -1.5t13.5 -6t11 -11.5t4.5 -18q0 -12 -0.5 -21t-1.5 -18q9 3 22 9t23 12q-20 9 -31 26.5t-11 40.5
t7.5 39t20 26.5t28 15t31.5 4.5q35 0 57 -21t22 -64q0 -37 -23.5 -65.5t-56 -49t-67 -33t-56.5 -17.5zM27 960q0 -7 5 -15.5t20 -14.5q12 15 12 33q0 8 -4 14.5t-15 6.5q-8 0 -13 -5.5t-5 -18.5z" />
    <glyph glyph-name="uniFC5F" unicode="&#xfc5f;" arabic-form="isolated" 
d="M117 566q0 -16 -18 -17l-196 -24q-20 -3 -20 14v39q0 9 4.5 12.5t13.5 4.5l196 24q20 3 20 -14v-39zM117 678q0 -16 -18 -17l-196 -24q-20 -3 -20 14v39q0 9 4.5 12.5t13.5 4.5l196 24q20 3 20 -14v-39zM32 884q0 -11 6 -14t12 -3q17 0 17 19v105q0 12 13 12h40
q13 0 13 -12v-122q0 -37 -14.5 -55t-52.5 -18q-11 0 -29 5t-32 27q-5 -13 -13 -21.5t-18 -13t-20 -6.5t-19 -2q-32 0 -50 18t-18 50v112q0 12 13 12h40q13 0 13 -12v-92q0 -11 5 -14t11 -3q8 0 13.5 4.5t5.5 14.5v103q0 12 11 12h42q11 0 11 -12v-94z" />
    <glyph glyph-name="uniFC60" unicode="&#xfc60;" arabic-form="isolated" 
d="M32 622q0 -11 6 -14t12 -3q17 0 17 19v105q0 12 13 12h40q13 0 13 -12v-122q0 -37 -14.5 -55t-52.5 -18q-11 0 -29 5t-32 27q-5 -13 -13 -21.5t-18 -13t-20 -6.5t-19 -2q-32 0 -50 18t-18 50v112q0 12 13 12h40q13 0 13 -12v-92q0 -11 5 -14t11 -3q8 0 13.5 4.5t5.5 14.5
v103q0 12 11 12h42q11 0 11 -12v-94zM117 831q0 -16 -18 -17l-196 -24q-20 -3 -20 14v39q0 9 4.5 12.5t13.5 4.5l196 24q20 3 20 -14v-39z" />
    <glyph glyph-name="uniFC61" unicode="&#xfc61;" arabic-form="isolated" 
d="M32 622q0 -11 6 -14t12 -3q17 0 17 19v105q0 12 13 12h40q13 0 13 -12v-122q0 -37 -14.5 -55t-52.5 -18q-11 0 -29 5t-32 27q-5 -13 -13 -21.5t-18 -13t-20 -6.5t-19 -2q-32 0 -50 18t-18 50v112q0 12 13 12h40q13 0 13 -12v-92q0 -11 5 -14t11 -3q8 0 13.5 4.5t5.5 14.5
v103q0 12 11 12h42q11 0 11 -12v-94zM-106 843q17 3 43.5 11t52.5 21q-18 10 -29.5 27t-11.5 40t8 39t21 26.5t29 15t32 4.5q35 0 57 -21t22 -64q0 -36 -22.5 -64t-54 -48.5t-66.5 -33.5t-59 -19q-22 -6 -25 10l-8 37q-4 16 11 19zM16 945q0 -8 5 -16.5t20 -13.5
q11 13 11 29q0 11 -4 17.5t-13 6.5q-19 0 -19 -23z" />
    <glyph glyph-name="uniFC62" unicode="&#xfc62;" arabic-form="isolated" 
d="M117 566q0 -16 -18 -17l-196 -24q-20 -3 -20 14v39q0 9 4.5 12.5t13.5 4.5l196 24q20 3 20 -14v-39zM32 772q0 -11 6 -14t12 -3q17 0 17 19v105q0 12 13 12h40q13 0 13 -12v-122q0 -37 -14.5 -55t-52.5 -18q-11 0 -29 5t-32 27q-5 -13 -13 -21.5t-18 -13t-20 -6.5t-19 -2
q-32 0 -50 18t-18 50v112q0 12 13 12h40q13 0 13 -12v-92q0 -11 5 -14t11 -3q8 0 13.5 4.5t5.5 14.5v103q0 12 11 12h42q11 0 11 -12v-94z" />
    <glyph glyph-name="uniFC63" unicode="&#xfc63;" arabic-form="isolated" 
d="M32 622q0 -11 6 -14t12 -3q17 0 17 19v105q0 12 13 12h40q13 0 13 -12v-122q0 -37 -14.5 -55t-52.5 -18q-11 0 -29 5t-32 27q-5 -13 -13 -21.5t-18 -13t-20 -6.5t-19 -2q-32 0 -50 18t-18 50v112q0 12 13 12h40q13 0 13 -12v-92q0 -11 5 -14t11 -3q8 0 13.5 4.5t5.5 14.5
v103q0 12 11 12h42q11 0 11 -12v-94zM37 805q0 -17 -15 -17h-42q-17 0 -17 17v177q0 16 13 17l44 6q8 1 12.5 -1.5t4.5 -12.5v-186z" />
    <glyph glyph-name=".notdef" horiz-adv-x="535" 
d="M20 693h495v-693h-495v693zM436 644h-337l169 -253zM466 94v505l-169 -252zM436 50l-168 252l-169 -252h337zM70 94l168 253l-168 252v-505z" />
    <glyph glyph-name=".null" 
 />
    <glyph glyph-name=".null" 
 />
    <glyph glyph-name=".null" 
 />
    <glyph glyph-name="nonmarkingreturn" unicode="&#x9;" horiz-adv-x="246" 
 />
    <glyph glyph-name="nonmarkingreturn" unicode="&#xd;" horiz-adv-x="246" 
 />
    <glyph glyph-name="space" unicode=" " horiz-adv-x="246" 
 />
    <glyph glyph-name="exclam" unicode="!" horiz-adv-x="259" 
d="M187 193q0 -11 -4 -16t-16 -5h-70q-14 0 -18 6t-4 17l-13 480q0 10 3.5 14.5t15.5 4.5h99q9 0 14.5 -3.5t5.5 -15.5zM205 58q0 -17 -7 -30t-17.5 -22t-24 -14t-26.5 -5q-27 0 -51.5 18t-24.5 52q0 35 23.5 54t52.5 19t52 -19t23 -53z" />
    <glyph glyph-name="quotedbl" unicode="&#x22;" horiz-adv-x="356" 
d="M72 503q-11 0 -14 4t-4 16l-11 166q-1 8 3 14t15 6h85q11 0 15 -6t3 -14l-11 -166q-1 -12 -4 -16t-14 -4h-63zM221 503q-11 0 -14 4t-4 16l-11 166q-1 8 3 14t15 6h85q11 0 15 -6t3 -14l-11 -166q-1 -12 -4 -16t-14 -4h-63z" />
    <glyph glyph-name="numbersign" unicode="#" horiz-adv-x="570" 
d="M391 17q-2 -10 -5 -13.5t-13 -3.5h-88q-21 0 -18 17l24 168h-59l-25 -168q-2 -10 -5 -13.5t-13 -3.5h-88q-21 0 -18 17l24 168h-68q-20 0 -17 17l10 66q3 17 20 17h70l17 108h-77q-20 0 -17 18l10 66q3 17 20 17h79l27 185q2 9 5.5 12t13.5 3h88q11 0 15.5 -3t2.5 -14
l-28 -183h61l27 185q2 9 5.5 12t13.5 3h88q11 0 15.5 -3t2.5 -14l-28 -183h68q20 0 17 -17l-10 -66q-3 -17 -20 -17h-71l-16 -108h77q20 0 17 -18l-10 -66q-3 -17 -20 -17h-79zM247 285h59l16 108h-58z" />
    <glyph glyph-name="dollar" unicode="$" horiz-adv-x="570" 
d="M524 206q0 -47 -15.5 -84t-42 -64.5t-63 -44.5t-78.5 -23v-71q0 -12 -2.5 -16.5t-16.5 -4.5h-31q-14 0 -16 5t-2 16v67q-46 2 -96 11t-95 25q-13 5 -16.5 10t-3.5 11q0 8 4 21l22 74q2 8 6.5 13.5t14.5 5.5q8 0 17 -4q32 -12 71.5 -21.5t75.5 -11.5v177l-90 39
q-57 25 -89 69.5t-32 107.5q0 43 18 77.5t47.5 59t67.5 39t78 18.5v79q0 16 15 16h36q11 0 14 -3.5t3 -13.5v-77q42 -3 80.5 -12.5t78.5 -26.5q12 -5 16.5 -10.5t4.5 -12.5q0 -6 -3 -15l-28 -75q-2 -7 -6.5 -12t-12.5 -5q-9 0 -18 4q-23 11 -53 19.5t-59 13.5v-160l54 -24
q30 -13 56 -31t46 -41t31.5 -51.5t11.5 -62.5zM257 575q-23 -6 -40 -21t-17 -41q0 -23 14 -38t43 -29v129zM376 196q0 26 -15.5 43t-35.5 28v-137q21 9 36 26t15 40z" />
    <glyph glyph-name="percent" unicode="%" horiz-adv-x="832" 
d="M695 695q0 -8 -7 -18l-414 -670q-7 -11 -15 -15.5t-22 -4.5h-85q-7 0 -12.5 3t-5.5 10q0 5 4 12l422 673q8 14 16.5 19t25.5 5h72q21 0 21 -14zM804 177q0 -86 -42.5 -134t-114.5 -48t-114.5 48t-42.5 134t42.5 133.5t114.5 47.5t114.5 -47.5t42.5 -133.5zM689 177
q0 55 -12.5 76t-29.5 21t-29.5 -21t-12.5 -76t12.5 -76.5t29.5 -21.5t29.5 21.5t12.5 76.5zM342 518q0 -86 -42.5 -134t-114.5 -48t-114.5 48t-42.5 134t42.5 133.5t114.5 47.5t114.5 -47.5t42.5 -133.5zM227 518q0 55 -12.5 76t-29.5 21t-29.5 -21t-12.5 -76t12.5 -76.5
t29.5 -21.5t29.5 21.5t12.5 76.5z" />
    <glyph glyph-name="ampersand" unicode="&#x26;" horiz-adv-x="717" 
d="M707 89q0 -2 -2 -10l-21 -73q-6 -18 -23 -18h-6q-27 3 -53.5 11t-50 20t-43.5 26t-34 29q-49 -42 -103.5 -64.5t-116.5 -22.5q-48 0 -91 14t-76 41t-52 65.5t-19 87.5q0 36 13 66.5t34.5 56t48.5 46t55 37.5l-24 26q-27 29 -40.5 57.5t-13.5 63.5q0 37 16.5 66.5t44 50.5
t62.5 32.5t72 11.5t70.5 -11t58.5 -32t40 -50t15 -65q0 -28 -10.5 -51.5t-26.5 -43.5t-36.5 -36.5t-39.5 -29.5l129 -141q6 7 16 21.5t19.5 36.5t17.5 52.5t10 69.5q1 14 5.5 18t16.5 4h74q13 0 17.5 -3.5t4.5 -14.5v-2q-2 -51 -10.5 -91t-21.5 -72.5t-30 -57.5t-35 -46
q23 -21 56 -38t67 -25q16 -4 16 -12zM241 317q-31 -22 -53 -50.5t-22 -62.5q0 -44 29.5 -69t75.5 -25q33 0 66.5 13t52.5 33zM338 550q0 20 -14.5 34t-37.5 14q-22 0 -35.5 -13t-13.5 -32q0 -14 5.5 -25.5t19.5 -27.5l21 -24q7 5 16.5 13.5t18 18.5t14.5 21t6 21z" />
    <glyph glyph-name="quotesingle" unicode="'" horiz-adv-x="207" 
d="M72 503q-11 0 -14 4t-4 16l-11 166q-1 8 3 14t15 6h85q11 0 15 -6t3 -14l-11 -166q-1 -12 -4 -16t-14 -4h-63z" />
    <glyph glyph-name="parenleft" unicode="(" horiz-adv-x="344" 
d="M186 300q0 -103 32.5 -188.5t98.5 -168.5q7 -9 7 -15q0 -7 -13 -16l-57 -35q-12 -7 -19 -7q-11 0 -20 11q-81 94 -125 197.5t-44 221.5t44 221.5t125 197.5q9 11 20 11q7 0 19 -7l57 -35q13 -9 13 -16q0 -6 -7 -15q-66 -83 -98.5 -168.5t-32.5 -188.5z" />
    <glyph glyph-name="parenright" unicode=")" horiz-adv-x="344" 
d="M158 300q0 103 -32.5 188.5t-98.5 168.5q-7 9 -7 15q0 7 13 16l57 35q12 7 19 7q11 0 20 -11q81 -94 125 -197.5t44 -221.5t-44 -221.5t-125 -197.5q-9 -11 -20 -11q-7 0 -19 7l-57 35q-13 9 -13 16q0 6 7 15q66 83 98.5 168.5t32.5 188.5z" />
    <glyph glyph-name="asterisk" unicode="*" horiz-adv-x="395" 
d="M197 526l-33 -87q-6 -16 -14 -16q-5 0 -12 6l-46 38q-12 10 -12 18t10 17l65 57l-93 8q-11 1 -13 6t1 14l21 66q6 23 26 9l75 -50l-22 92q-5 22 17 22h60q22 0 17 -22l-21 -92l75 50q20 14 26 -9l21 -66q3 -9 1 -14t-13 -6l-93 -8l64 -57q10 -9 10 -17t-12 -18l-46 -38
q-8 -6 -12 -6q-8 0 -14 16z" />
    <glyph glyph-name="plus" unicode="+" horiz-adv-x="545" 
d="M505 230q0 -16 -6 -23.5t-23 -7.5h-130v-144q0 -15 -8.5 -20.5t-22.5 -5.5h-87q-14 0 -21.5 5t-7.5 21v144h-133q-15 0 -20.5 8.5t-5.5 22.5v71q0 14 5 21.5t21 7.5h133v141q0 29 29 29h87q16 0 23.5 -6t7.5 -23v-141h130q29 0 29 -29v-71z" />
    <glyph glyph-name="comma" unicode="," horiz-adv-x="230" 
d="M200 46q0 -64 -33.5 -115.5t-83.5 -86.5q-12 -9 -20 -9t-17 11l-13 15q-5 7 -5 12q0 6 8 14q16 16 31 37.5t15 39.5q0 12 -7 23.5t-16 23.5t-16 25.5t-7 28.5q0 35 23.5 56t56.5 21q19 0 34.5 -8.5t26.5 -22t17 -30.5t6 -35z" />
    <glyph glyph-name="hyphen" unicode="-" horiz-adv-x="325" 
d="M280 223q0 -16 -6 -23.5t-23 -7.5h-180q-15 0 -20.5 8.5t-5.5 22.5v85q0 14 5 21.5t21 7.5h180q29 0 29 -29v-85z" />
    <glyph glyph-name="period" unicode="." horiz-adv-x="231" 
d="M201 63q0 -18 -7 -32t-18.5 -24t-26 -15t-28.5 -5t-28.5 5t-26 14.5t-19 23.5t-7.5 32q0 37 25 57t56 20q30 0 55 -20t25 -56z" />
    <glyph glyph-name="slash" unicode="/" horiz-adv-x="331" 
d="M329 709q21 0 13 -25l-217 -677q-4 -12 -9 -16t-19 -4h-95q-21 0 -13 25l216 673q5 16 11 20t23 4h90z" />
    <glyph glyph-name="zero" unicode="0" horiz-adv-x="570" 
d="M541 348q0 -80 -15 -146.5t-46 -114t-79.5 -74t-114.5 -26.5t-115 25.5t-80.5 72t-47 112.5t-15.5 146q0 79 16.5 146.5t49.5 116t81.5 76t112.5 27.5q66 0 114 -26.5t79 -74.5t45.5 -114.5t14.5 -145.5zM377 349q0 67 -6.5 110.5t-18.5 68.5t-28 34.5t-35 9.5
q-22 0 -40 -11t-30.5 -37t-19.5 -69t-7 -106q0 -65 6 -108t18 -69t29.5 -36.5t40.5 -10.5q24 0 41 11t28 36.5t16.5 68.5t5.5 108z" />
    <glyph glyph-name="one" unicode="1" horiz-adv-x="570" 
d="M448 34q0 -21 -8.5 -27.5t-28.5 -6.5h-83q-24 0 -31.5 5t-7.5 28v486l-133 -71q-31 -16 -47 17l-27 55q-12 26 16 42l208 119q14 8 25 10.5t28 2.5h61q14 0 21 -5.5t7 -21.5v-633z" />
    <glyph glyph-name="two" unicode="2" horiz-adv-x="570" 
d="M528 507q0 -46 -21.5 -89.5t-54 -82.5t-70.5 -73.5t-71 -61.5l-83 -68q3 1 17 1.5t35 1t47 1t53 0.5h100q19 0 26.5 -8t7.5 -25v-68q0 -17 -7.5 -26t-26.5 -9h-404q-23 0 -30.5 8t-7.5 30v60q0 20 4 30t18 23q29 26 57.5 52t55 51t50.5 48t43 42q46 45 74.5 84.5
t28.5 71.5q0 41 -26 58t-64 17q-32 0 -64.5 -11t-79.5 -34q-11 -6 -22 -6t-19 16l-30 64q-12 25 14 40q48 29 103 47t118 18q51 0 93 -13.5t72 -39t47 -63t17 -86.5z" />
    <glyph glyph-name="three" unicode="3" horiz-adv-x="570" 
d="M197 314q-18 0 -24 8.5t-6 24.5v50q0 16 6 24.5t24 8.5h36q48 0 75 19t27 62q0 32 -22.5 51.5t-62.5 19.5q-31 0 -61.5 -8.5t-67.5 -27.5q-17 -9 -26 -5.5t-14 16.5l-22 58q-5 12 -3.5 21.5t14.5 17.5q45 27 94 41t109 14q42 0 80.5 -11t68.5 -33.5t48 -57t18 -80.5
q0 -55 -29 -96t-73 -55q24 -7 47.5 -21.5t42 -36t30 -49.5t11.5 -61q0 -52 -22 -93t-58.5 -69.5t-83.5 -43.5t-97 -15q-60 0 -108 11t-86 31q-17 9 -21.5 19t1.5 27l22 60q6 16 15 19.5t26 -4.5q32 -13 67 -23t75 -10q56 0 86.5 28t30.5 70q0 32 -14 51.5t-35 30t-46.5 14
t-48.5 3.5h-23z" />
    <glyph glyph-name="four" unicode="4" horiz-adv-x="570" 
d="M388 0q-16 0 -24.5 6t-8.5 24v111h-307q-21 0 -27 10.5t-6 27.5v47q0 16 2.5 27.5t11.5 29.5l188 380q8 17 17 24t27 7h84q24 0 28 -11t-4 -27l-182 -382h168v151q0 17 10.5 23.5t24.5 6.5h90q16 0 25 -6t9 -24v-395q0 -18 -8.5 -24t-24.5 -6h-93z" />
    <glyph glyph-name="five" unicode="5" horiz-adv-x="570" 
d="M541 225q0 -57 -21.5 -101.5t-58.5 -75t-87 -46t-107 -15.5q-55 0 -107 12.5t-98 37.5q-11 6 -16.5 16t1.5 26l30 66q6 14 16.5 15.5t23.5 -4.5q45 -22 81 -31t74 -9q49 0 81 28t32 73q0 24 -9 45.5t-26 35.5q-22 19 -50.5 26.5t-65.5 7.5h-98q-21 0 -29.5 11.5
t-8.5 33.5v275q0 25 10 33.5t30 8.5h340q34 0 34 -33v-66q0 -17 -7.5 -26t-26.5 -9h-222v-111h7q55 0 105.5 -12.5t88.5 -39.5t61 -69.5t23 -102.5z" />
    <glyph glyph-name="six" unicode="6" horiz-adv-x="570" 
d="M35 303q0 82 18.5 156t58.5 129.5t102.5 88t150.5 32.5q30 0 56.5 -4t49.5 -12q16 -5 20 -12t1 -23l-15 -70q-3 -15 -11 -19.5t-24 0.5q-20 5 -37.5 8t-37.5 3q-69 0 -110 -39t-47 -112q23 13 54 21t58 8q48 0 88 -13t69.5 -39t46 -67t16.5 -96q0 -51 -16.5 -97
t-48 -81.5t-77.5 -56.5t-104 -21q-75 0 -125.5 27.5t-80.5 72.5t-42.5 101.5t-12.5 114.5zM383 233q0 42 -20 69.5t-63 27.5q-26 0 -56 -11t-47 -28v-13q0 -79 24.5 -120t75.5 -41q22 0 38 10t26.5 26.5t16 37.5t5.5 42z" />
    <glyph glyph-name="seven" unicode="7" horiz-adv-x="570" 
d="M358 558h-266q-18 0 -24 10.5t-6 24.5v68q0 16 6 24.5t24 8.5h412q34 0 34 -33v-62q0 -14 -2.5 -24.5t-10.5 -26.5l-258 -517q-11 -21 -23 -26t-32 -5h-100q-23 0 -27.5 11.5t3.5 27.5z" />
    <glyph glyph-name="eight" unicode="8" horiz-adv-x="570" 
d="M545 210q0 -53 -21.5 -94.5t-57.5 -70t-83.5 -43.5t-98.5 -15t-97.5 13t-81.5 39.5t-56 66t-21 93.5q0 60 32.5 103t85.5 72q-36 20 -62 59t-26 86q0 46 18.5 81.5t50 59.5t73.5 36.5t89 12.5q46 0 86.5 -12t71 -35.5t48 -58.5t17.5 -82q0 -24 -8 -45.5t-20.5 -40.5
t-29 -34.5t-34.5 -25.5q24 -10 46.5 -26.5t40 -38t28 -47t10.5 -53.5zM359 514q0 30 -21 50.5t-55 20.5q-32 0 -52.5 -19t-20.5 -46q0 -29 19.5 -50.5t61.5 -44.5q25 16 46.5 36t21.5 53zM388 206q0 20 -9.5 37.5t-25.5 31t-36 24t-41 17.5q-43 -19 -67.5 -47t-24.5 -64
q0 -41 29 -67.5t74 -26.5t73 25t28 70z" />
    <glyph glyph-name="nine" unicode="9" horiz-adv-x="570" 
d="M539 393q0 -83 -18.5 -156.5t-58.5 -129t-102.5 -88t-150.5 -32.5q-30 0 -56.5 4t-49.5 12q-16 5 -20 12t-1 23l15 70q3 15 11 19.5t24 -0.5q20 -5 37.5 -8t37.5 -3q69 0 110 39t47 112q-23 -13 -54 -21t-58 -8q-48 0 -88 13t-69.5 39t-46 66.5t-16.5 96.5q0 51 16.5 97
t48 81.5t77 56.5t104.5 21q75 0 125.5 -27.5t80.5 -72.5t42.5 -101.5t12.5 -114.5zM191 463q0 -42 20 -69.5t63 -27.5q26 0 56 11t47 28v13q0 79 -24.5 120t-75.5 41q-22 0 -38 -10t-26.5 -26.5t-16 -37.5t-5.5 -42z" />
    <glyph glyph-name="colon" unicode=":" horiz-adv-x="230" 
d="M196 425q0 -18 -7 -32t-18.5 -24t-26 -15t-28.5 -5t-28.5 5t-26 14.5t-19 23.5t-7.5 32q0 37 25 57t56 20q30 0 55 -20t25 -56zM196 63q0 -18 -7 -32t-18.5 -24t-26 -15t-28.5 -5t-28.5 5t-26 14.5t-19 23.5t-7.5 32q0 37 25 57t56 20q30 0 55 -20t25 -56z" />
    <glyph glyph-name="semicolon" unicode=";" horiz-adv-x="230" 
d="M196 425q0 -18 -7 -32t-18.5 -24t-26 -15t-28.5 -5t-28.5 5t-26 14.5t-19 23.5t-7.5 32q0 37 25 57t56 20q30 0 55 -20t25 -56zM197 46q0 -64 -33.5 -115.5t-83.5 -86.5q-12 -9 -20 -9t-17 11l-13 15q-5 7 -5 12q0 6 8 14q16 16 31 37.5t15 39.5q0 12 -7 23.5t-16 23.5
t-16 25.5t-7 28.5q0 35 23.5 56t56.5 21q19 0 34.5 -8.5t26.5 -22t17 -30.5t6 -35z" />
    <glyph glyph-name="less" unicode="&#x3c;" horiz-adv-x="545" 
d="M475 419q0 -10 -11 -17l-207 -130l202 -129q15 -11 15 -20q0 -6 -5 -14l-48 -78q-9 -15 -19 -15q-8 0 -21 9l-294 196q-8 5 -12.5 11.5t-4.5 19.5v32q0 12 6.5 19t14.5 12l307 194q4 2 8 4.5t9 2.5q8 0 14 -11l42 -73q4 -7 4 -13z" />
    <glyph glyph-name="equal" unicode="=" horiz-adv-x="545" 
d="M505 336q0 -16 -6 -23.5t-23 -7.5h-410q-15 0 -20.5 8.5t-5.5 22.5v71q0 14 5 21.5t21 7.5h410q29 0 29 -29v-71zM505 117q0 -16 -6 -23.5t-23 -7.5h-410q-15 0 -20.5 8.5t-5.5 22.5v71q0 14 5 21.5t21 7.5h410q29 0 29 -29v-71z" />
    <glyph glyph-name="greater" unicode="&#x3e;" horiz-adv-x="545" 
d="M70 419q0 6 4 13l42 73q5 11 14 11q5 0 9 -2.5t8 -4.5l307 -194q8 -5 14.5 -12t6.5 -19v-32q0 -13 -4.5 -19.5t-12.5 -11.5l-294 -196q-14 -9 -21 -9q-10 0 -19 15l-48 78q-5 8 -5 14q0 9 15 20l202 129l-207 130q-11 7 -11 17z" />
    <glyph glyph-name="question" unicode="?" horiz-adv-x="455" 
d="M425 531q0 -43 -20 -79t-50 -66l-74 -74q-12 -12 -19.5 -21t-12.5 -18.5t-7 -21.5t-2 -28q0 -7 1 -17.5t1 -20.5q0 -13 -13 -13h-82q-20 0 -26 18q-3 9 -6 28t-3 38q0 38 12 63.5t40 51.5l74 70q18 17 31.5 36.5t13.5 41.5q0 37 -25 54t-60 17q-23 0 -54 -9t-55 -24
q-19 -12 -26 6l-25 67q-4 11 -2.5 18t12.5 13q40 23 86.5 35.5t92.5 12.5q39 0 75 -12t63.5 -35t43.5 -56t16 -75zM259 58q0 -17 -7 -30t-17.5 -22t-24 -14t-26.5 -5q-27 0 -51.5 18t-24.5 52q0 35 23.5 54t52.5 19t52 -19t23 -53z" />
    <glyph glyph-name="at" unicode="@" horiz-adv-x="834" 
d="M794 396q0 -43 -14.5 -86t-41.5 -78t-65 -57t-85 -22q-33 0 -61 13.5t-38 48.5h-2q-20 -26 -48 -43t-63 -17q-32 0 -54.5 12t-37 32t-21.5 46.5t-7 55.5q0 41 13.5 83.5t38.5 76.5t61.5 55.5t81.5 21.5q21 0 41.5 -10.5t31.5 -30.5q4 18 8 23.5t15 5.5h57q17 0 13 -16
l-51 -205q-3 -11 -5 -22.5t-2 -22.5q0 -17 7 -30t26 -13t35 10t29 25t22 33t14 33q6 18 8.5 36.5t2.5 37.5q0 56 -18 97.5t-50 69t-76.5 41t-97.5 13.5q-64 0 -117 -25t-91.5 -67t-59.5 -97.5t-21 -117.5q0 -59 18.5 -102.5t51.5 -71.5t79.5 -41.5t102.5 -13.5q90 0 176 27
q6 2 10 2q5 0 6.5 -2.5t3.5 -6.5l18 -51q2 -8 0 -13t-12 -9q-48 -19 -105 -28t-108 -9q-75 0 -143 18.5t-119.5 57.5t-82 98.5t-30.5 141.5q0 89 33.5 163.5t91 128.5t134.5 84t164 30q70 0 131 -21.5t106 -62t70.5 -98.5t25.5 -131zM500 423q-14 27 -43 27
q-19 0 -34.5 -14.5t-26 -36.5t-16 -47t-5.5 -46t9 -36.5t28 -15.5q17 0 32 11t26 28z" />
    <glyph glyph-name="A" unicode="A" horiz-adv-x="671" 
d="M246 669q5 11 12.5 18t21.5 7h106q14 0 21.5 -7t12.5 -18l242 -634q5 -14 1.5 -24.5t-19.5 -10.5h-112q-18 0 -26 7.5t-13 20.5l-40 116h-247l-40 -120q-3 -10 -9.5 -17t-20.5 -7h-107q-16 0 -19.5 10.5t1.5 24.5zM410 264l-63 197l-18 58h-2l-18 -59l-63 -196h164z" />
    <glyph glyph-name="B" unicode="B" horiz-adv-x="622" 
d="M584 205q0 -62 -24 -102t-64 -63t-91 -31.5t-105 -8.5h-200q-18 0 -24 8t-6 27v630q0 18 8 23.5t25 5.5h162q134 0 199.5 -40.5t65.5 -129.5q0 -51 -28 -92t-80 -52v-1q35 -4 65 -17.5t51.5 -36t33.5 -53t12 -67.5zM374 502q0 36 -26 54t-72 18h-49v-156h38q57 0 83 18
t26 66zM423 212q0 32 -13.5 52.5t-35.5 30.5t-45 12t-52 2h-50v-188h62q23 0 44 2t38 8q23 9 37.5 30t14.5 51z" />
    <glyph glyph-name="C" unicode="C" horiz-adv-x="604" 
d="M563 669q24 -11 16 -34l-29 -84q-7 -20 -28 -11q-40 18 -73 26t-68 8q-78 0 -124.5 -58t-46.5 -168q0 -59 13.5 -102t37 -70.5t55 -40.5t68.5 -13q35 0 67 7t68 21q11 4 19.5 3t13.5 -15l25 -74q4 -11 3 -20.5t-18 -17.5q-40 -18 -92 -28.5t-110 -10.5q-80 0 -139.5 25.5
t-100 72t-60.5 112t-20 146.5t23.5 148.5t67 115.5t105 75t136.5 27q54 0 100.5 -10t90.5 -30z" />
    <glyph glyph-name="D" unicode="D" horiz-adv-x="710" 
d="M670 345q0 -90 -28.5 -155t-77.5 -107.5t-115.5 -62.5t-142.5 -20h-204q-15 0 -23.5 5.5t-8.5 25.5v631q0 17 6.5 24.5t26.5 7.5h158q93 0 168.5 -17t129 -57.5t82.5 -107.5t29 -167zM500 346q0 112 -54.5 161.5t-160.5 49.5h-56v-422h71q37 0 73 9.5t64.5 33t45.5 64.5
t17 104z" />
    <glyph glyph-name="E" unicode="E" horiz-adv-x="561" 
d="M229 416h227q17 0 23.5 -7.5t6.5 -19.5v-73q0 -29 -29 -29h-228v-158h261q29 0 29 -27v-74q0 -28 -28 -28h-388q-17 0 -25 6t-8 25v635q0 28 26 28h398q15 0 20.5 -6.5t4.5 -16.5l-9 -81q-2 -16 -11.5 -20.5t-27.5 -4.5h-242v-149z" />
    <glyph glyph-name="F" unicode="F" horiz-adv-x="557" 
d="M229 416h227q17 0 23.5 -7.5t6.5 -19.5v-73q0 -29 -29 -29h-228v-259q0 -28 -28 -28h-98q-17 0 -25 6t-8 25v635q0 28 26 28h398q15 0 20.5 -6.5t4.5 -16.5l-9 -81q-2 -16 -11.5 -20.5t-27.5 -4.5h-242v-149z" />
    <glyph glyph-name="G" unicode="G" horiz-adv-x="697" 
d="M403 287q-11 0 -18 6.5t-7 19.5v78q0 25 27 25h206q14 0 21 -6t7 -21v-318q0 -15 -4 -22.5t-20 -15.5q-23 -11 -52.5 -19.5t-62.5 -14.5t-67 -9t-66 -3q-75 0 -136 25.5t-104 72.5t-66 112.5t-23 146.5q0 80 25.5 147t71 115.5t108 75.5t137.5 27q108 0 197 -43
q12 -6 14.5 -14.5t-2.5 -19.5l-30 -78q-5 -13 -14 -14.5t-20 3.5q-30 13 -64 22t-72 8q-33 -1 -67 -13.5t-57 -38.5q-26 -29 -41.5 -70.5t-15.5 -100.5q0 -60 13.5 -102.5t37 -70.5t54 -41t65.5 -13q29 0 57.5 2.5t44.5 7.5v154h-77z" />
    <glyph glyph-name="H" unicode="H" horiz-adv-x="711" 
d="M482 416v252q0 15 8.5 20.5t22.5 5.5h99q14 0 21.5 -5t7.5 -21v-639q0 -29 -29 -29h-99q-16 0 -23.5 6t-7.5 23v258h-253v-258q0 -29 -29 -29h-99q-16 0 -23.5 6t-7.5 23v639q0 15 8.5 20.5t22.5 5.5h99q14 0 21.5 -5t7.5 -21v-252h253z" />
    <glyph glyph-name="I" unicode="I" horiz-adv-x="427" 
d="M345 102q25 0 25 -26v-54q0 -22 -25 -22h-265q-25 0 -25 22v54q0 26 25 26h53v490h-53q-25 0 -25 26v54q0 22 25 22h265q25 0 25 -22v-54q0 -26 -25 -26h-53v-490h53z" />
    <glyph glyph-name="J" unicode="J" horiz-adv-x="446" 
d="M104 592q-25 0 -25 26v54q0 22 25 22h244q14 0 21 -7.5t7 -18.5v-439q0 -140 -80 -199q-56 -41 -158 -41q-16 0 -38 2t-42 6q-14 2 -17 9.5t-1 21.5l12 69q3 22 23 18l27 -4.5t31 -2.5q17 0 33.5 4.5t28.5 17.5q22 24 22 78v384h-113z" />
    <glyph glyph-name="K" unicode="K" horiz-adv-x="635" 
d="M359 358l253 -323q3 -4 5.5 -8.5t2.5 -9.5q0 -7 -4.5 -12t-18.5 -5h-121q-21 0 -33 7t-23 22l-188 259h-3v-259q0 -29 -29 -29h-99q-16 0 -23.5 6t-7.5 23v639q0 15 8.5 20.5t22.5 5.5h99q14 0 21.5 -5t7.5 -21v-278h3l178 283q8 13 18 17t25 4h95q14 0 18.5 -5t4.5 -11
q0 -5 -2.5 -9.5t-5.5 -9.5z" />
    <glyph glyph-name="L" unicode="L" horiz-adv-x="524" 
d="M512 29q0 -17 -8.5 -23t-21.5 -6h-380q-16 0 -24 6t-8 26v634q0 28 28 28h101q17 0 23.5 -6.5t6.5 -23.5v-530h254q29 0 29 -29v-76z" />
    <glyph glyph-name="M" unicode="M" horiz-adv-x="902" 
d="M661 384l-151 -362q-6 -15 -15 -18.5t-19 -3.5h-37q-14 0 -23 4t-17 19l-173 361h-2l-6 -353q0 -21 -9 -26t-25 -5h-82q-35 0 -34 32l27 630q1 18 9 25t22 7h72q17 0 25.5 -6.5t15.5 -20.5l221 -452h2l200 452q6 13 15 20t26 7h70q15 0 21 -5.5t7 -19.5l33 -638
q2 -31 -27 -31h-100q-20 0 -26 10t-7 31l-11 343h-2z" />
    <glyph glyph-name="N" unicode="N" horiz-adv-x="754" 
d="M684 31q0 -20 -7.5 -25.5t-21.5 -5.5h-85q-28 0 -44 22l-298 397h-2v-389q0 -17 -7.5 -23.5t-22.5 -6.5h-93q-17 0 -25 5.5t-8 23.5v634q0 20 8.5 25.5t24.5 5.5h84q15 0 24 -5t17 -16l298 -400h2v392q0 17 8 23t23 6h97q20 0 24 -9t4 -22v-632z" />
    <glyph glyph-name="O" unicode="O" horiz-adv-x="710" 
d="M672 351q0 -84 -23.5 -151.5t-66 -115t-101.5 -72.5t-129 -25q-75 0 -133.5 25.5t-98.5 72.5t-61 113t-21 147q0 80 22 147t63.5 115t100.5 75t134 27q78 0 137 -27.5t98.5 -75.5t59 -113.5t19.5 -141.5zM502 348q0 121 -38 173.5t-110 52.5q-66 0 -106 -56.5t-40 -168.5
q0 -119 38.5 -173t110.5 -54q66 0 105.5 54.5t39.5 171.5z" />
    <glyph glyph-name="P" unicode="P" horiz-adv-x="587" 
d="M557 470q0 -60 -21.5 -105t-58.5 -75t-86.5 -45t-105.5 -15h-56v-203q0 -13 -6.5 -20t-23.5 -7h-100q-14 0 -21.5 4.5t-7.5 21.5v637q0 19 6.5 25t23.5 6h156q88 0 148.5 -17t98.5 -59q27 -30 40.5 -69t13.5 -79zM397 463q0 57 -31 82.5t-88 25.5h-49v-219h42
q27 0 50 5.5t40 18.5t26.5 34.5t9.5 52.5z" />
    <glyph glyph-name="Q" unicode="Q" horiz-adv-x="704" 
d="M352 -12q-75 0 -133.5 25.5t-98.5 72.5t-61 112.5t-21 146.5q0 80 22 147t63.5 115t100.5 75t134 27q78 0 137 -27.5t98.5 -75.5t59 -113.5t19.5 -141.5q0 -109 -38.5 -188.5t-105.5 -124.5q25 -16 52 -27.5t72 -18.5q16 -2 19.5 -9t1.5 -19l-15 -70q-2 -12 -7.5 -17.5
t-17.5 -5.5q-29 0 -60.5 9t-60.5 24q-34 17 -56.5 37.5t-44.5 33.5q-14 8 -25 10.5t-34 2.5zM502 348q0 121 -38 173.5t-110 52.5q-66 0 -106 -56.5t-40 -168.5q0 -119 38.5 -174t110.5 -55q66 0 105.5 55.5t39.5 172.5z" />
    <glyph glyph-name="R" unicode="R" horiz-adv-x="623" 
d="M397 467q0 30 -9.5 50t-27 33t-41 18.5t-51.5 5.5h-39v-220h50q55 0 86.5 28.5t31.5 84.5zM598 35q3 -5 5.5 -9.5t2.5 -9.5q0 -6 -4.5 -11t-18.5 -5h-108q-15 0 -26 4.5t-19 17.5l-139 213h-62v-207q0 -12 -6 -20t-21 -8h-104q-28 0 -28 29v631q0 20 6.5 27t26.5 7h152
q32 0 66 -2t67 -10t62.5 -23t52.5 -40q27 -30 40.5 -69t13.5 -80q0 -67 -29 -120t-90 -84v-2z" />
    <glyph glyph-name="S" unicode="S" horiz-adv-x="567" 
d="M527 214q0 -54 -20 -96t-54.5 -71.5t-80.5 -44.5t-97 -15q-49 0 -105 9.5t-104 26.5q-14 5 -18 13t1 25l27 81q2 8 6.5 13.5t14.5 5.5q6 0 17 -4q37 -14 77.5 -22.5t78.5 -8.5q16 0 32.5 4t30.5 12.5t23 22t9 31.5q0 29 -19 44.5t-42 26.5l-134 62q-56 26 -89.5 71.5
t-33.5 108.5q0 48 22 85t57 62.5t78.5 39t87.5 13.5q54 0 102 -10t95 -30q15 -7 19 -15t-1 -23l-31 -78q-5 -14 -14 -16.5t-24 3.5q-77 32 -136 32q-15 0 -30 -3t-27.5 -10.5t-20 -19t-7.5 -29.5q0 -12 6.5 -22t16.5 -17.5t21.5 -13.5t20.5 -10l115 -52q59 -27 94.5 -70
t35.5 -111z" />
    <glyph glyph-name="T" unicode="T" horiz-adv-x="596" 
d="M221 565h-183q-28 0 -28 30v74q0 25 27 25h538q28 0 25 -25l-8 -79q-2 -15 -11 -20t-25 -5h-176v-537q0 -12 -6 -20t-21 -8h-104q-28 0 -28 29v536z" />
    <glyph glyph-name="U" unicode="U" horiz-adv-x="738" 
d="M672 312q0 -84 -21 -145.5t-60.5 -101.5t-96.5 -59t-129 -19q-155 0 -227 82t-72 242v357q0 15 8.5 20.5t22.5 5.5h99q14 0 21.5 -5t7.5 -21v-345q0 -59 10 -98t28.5 -62t46 -32.5t62.5 -9.5q33 0 59.5 9.5t44.5 33t28 62t10 96.5v346q0 15 8 20.5t22 5.5h99
q14 0 21.5 -5t7.5 -21v-356z" />
    <glyph glyph-name="V" unicode="V" horiz-adv-x="687" 
d="M649 694q14 0 19.5 -8.5t0.5 -19.5l-240 -642q-4 -11 -13 -17.5t-22 -6.5h-82q-17 0 -26 7.5t-14 20.5l-253 636q-5 11 0 20.5t19 9.5h114q31 0 39 -22l167 -458h4l154 454q5 14 14 20t29 6h90v0z" />
    <glyph glyph-name="W" unicode="W" horiz-adv-x="977" 
d="M941 694q16 0 19 -10.5t-1 -21.5l-183 -631q-9 -31 -38 -31h-82q-28 0 -37 30l-125 408h-2l-124 -403q-7 -21 -15.5 -28t-25.5 -7h-78q-14 0 -23 7t-16 29l-192 626q-4 11 -1 21.5t19 10.5h124q17 0 25.5 -8t11.5 -20l107 -407h1l120 411q7 24 33 24h85q14 0 21.5 -6
t10.5 -17l119 -412h2l103 410q7 25 33 25h109z" />
    <glyph glyph-name="X" unicode="X" horiz-adv-x="642" 
d="M34 661q-8 13 -5 23t17 10h124q15 0 25 -6.5t18 -18.5l109 -184h1l117 188q7 11 15 16t24 5h116q14 0 17.5 -9.5t-5.5 -23.5l-202 -295l217 -333q8 -12 2 -22.5t-20 -10.5h-124q-16 0 -25.5 6.5t-16.5 17.5l-124 208h-1l-126 -210q-7 -11 -17 -16.5t-27 -5.5h-107
q-14 0 -18 10.5t3 21.5l207 324z" />
    <glyph glyph-name="Y" unicode="Y" horiz-adv-x="627" 
d="M397 297v-270q0 -27 -27 -27h-105q-27 0 -27 29v261l-218 375q-6 11 -1 20t16 9h121q28 0 39 -21l129 -249h2l129 249q6 11 14.5 16t23.5 5h97q11 0 16 -9t-1 -20z" />
    <glyph glyph-name="Z" unicode="Z" horiz-adv-x="621" 
d="M589 29q0 -13 -6.5 -21t-19.5 -8h-508q-11 0 -17 7.5t-6 18.5v38q0 11 2 19t9 18l312 463l-1 1h-278q-29 0 -29 29v76q0 24 24 24h472q16 0 22 -8t6 -19v-30q0 -14 -2.5 -26.5t-11.5 -25.5l-308 -455l1 -1h312q27 0 27 -29v-71z" />
    <glyph glyph-name="bracketleft" unicode="[" horiz-adv-x="377" 
d="M342 -117q0 -15 -4.5 -20.5t-24.5 -5.5h-203q-20 0 -25 6t-5 27v784q0 24 6 29.5t24 5.5h200q22 0 27 -4.5t5 -22.5v-65q0 -14 -5 -19t-22 -5h-85v-621h83q20 0 24.5 -4.5t4.5 -19.5v-65z" />
    <glyph glyph-name="backslash" unicode="\" horiz-adv-x="331" 
d="M92 709q17 0 23 -4t11 -20l216 -673q8 -25 -13 -25h-95q-14 0 -19 4t-9 16l-217 677q-8 25 13 25h90z" />
    <glyph glyph-name="bracketright" unicode="]" horiz-adv-x="377" 
d="M297 -108q0 -24 -6 -29.5t-24 -5.5h-200q-22 0 -27 4.5t-5 22.5v65q0 14 5 19t22 5h85v621h-83q-20 0 -24.5 4.5t-4.5 19.5v65q0 15 4.5 20.5t24.5 5.5h203q20 0 25 -6t5 -27v-784z" />
    <glyph glyph-name="asciicircum" unicode="^" horiz-adv-x="545" 
d="M283 694q13 0 19.5 -4.5t11.5 -12.5l196 -284q8 -12 8 -20q0 -9 -14 -20l-69 -48q-10 -7 -17 -5.5t-17 15.5l-129 194l-129 -194q-10 -14 -17 -15.5t-17 5.5l-69 48q-14 11 -14 20q0 8 8 20l196 284q5 8 11.5 12.5t19.5 4.5h22z" />
    <glyph glyph-name="underscore" unicode="_" horiz-adv-x="500" 
d="M500 -121q0 -11 -3 -15t-14 -4h-463q-13 0 -16.5 3.5t-3.5 11.5v26q0 9 3.5 12t13.5 3h463q14 0 17 -3t3 -14v-20z" />
    <glyph glyph-name="grave" unicode="`" horiz-adv-x="360" 
d="M278 625q13 -10 14 -17t-5 -16l-28 -39q-9 -13 -16.5 -13t-23.5 9l-142 83q-10 6 -12 13t6 18l41 56q10 13 18.5 13.5t21.5 -9.5z" />
    <glyph glyph-name="a" unicode="a" horiz-adv-x="574" 
d="M554 23q0 -11 -6.5 -17t-17.5 -6h-53q-45 0 -65.5 12t-30.5 34h-2q-10 -12 -26.5 -22.5t-35.5 -18.5t-39.5 -13t-38.5 -5q-54 0 -93.5 20t-66 53.5t-39 78.5t-12.5 95q0 66 19 116t50 83.5t70.5 50.5t80.5 17q42 0 74 -16.5t48 -39.5l3 22q3 20 23 20h90q11 0 17.5 -6
t6.5 -18v-345q0 -17 15 -17h8q21 0 21 -20v-58zM360 343q-14 12 -36 23t-45 11q-18 0 -35.5 -7.5t-30.5 -24t-21 -41.5t-8 -60q0 -23 3.5 -47.5t14 -44t28 -32t46.5 -12.5q13 0 26.5 4.5t24.5 11t19.5 13.5t13.5 13v193z" />
    <glyph glyph-name="b" unicode="b" horiz-adv-x="568" 
d="M88 0q-16 0 -22 7.5t-6 22.5v643q0 14 5 21.5t19 9.5l98 13q28 4 28 -21v-237q24 20 56 31t66 11q42 0 73 -13t56 -36q40 -36 58.5 -91.5t18.5 -118.5q0 -52 -14.5 -98.5t-41.5 -81t-65.5 -55t-86.5 -20.5q-39 0 -74 13.5t-61 38.5q-2 -17 -5.5 -28t-23.5 -11h-78z
M210 147q16 -14 37.5 -25t43.5 -11q29 0 47 11.5t27.5 30.5t13 42t3.5 47q0 22 -3.5 45.5t-13 42.5t-26.5 31t-45 12q-23 0 -45 -9t-39 -23v-194z" />
    <glyph glyph-name="c" unicode="c" horiz-adv-x="458" 
d="M435 47q5 -15 1 -20.5t-14 -10.5q-34 -15 -73 -22t-79 -7q-54 0 -99.5 15.5t-78.5 47t-51 78t-18 108.5q0 61 17.5 110t50.5 83.5t80.5 53t107.5 18.5q35 0 69.5 -6t69.5 -21q11 -5 12 -11.5t-1 -17.5l-16 -72q-3 -12 -10 -13t-17 3q-21 8 -43 13.5t-45 5.5
q-59 0 -89.5 -36.5t-30.5 -101.5q0 -73 32 -106t93 -33q23 0 42.5 4t45.5 14q8 3 15 2.5t10 -11.5z" />
    <glyph glyph-name="d" unicode="d" horiz-adv-x="571" 
d="M361 673q0 14 5 21.5t19 9.5l98 13q28 4 28 -21v-668q0 -15 -8 -21.5t-19 -6.5h-84q-13 0 -19 6t-7 14l-2 21q-21 -23 -56.5 -38.5t-75.5 -15.5q-53 0 -92 19.5t-65.5 53.5t-39.5 79t-13 96q0 50 13.5 97.5t40.5 85t68 60.5t97 23q33 0 62.5 -10.5t49.5 -29.5v212z
M361 348q-14 13 -35.5 22.5t-43.5 9.5q-27 0 -45.5 -13t-30 -32.5t-16 -44t-4.5 -46.5q0 -23 4 -47t14 -43.5t28 -32t47 -12.5q22 0 46 11.5t36 24.5v203z" />
    <glyph glyph-name="e" unicode="e" horiz-adv-x="528" 
d="M504 233q0 -18 -8.5 -23.5t-27.5 -5.5h-280q9 -48 46 -73t83 -25q33 0 63.5 6.5t60.5 18.5q11 5 19 3t12 -16l16 -63q4 -14 -1 -21.5t-16 -12.5q-40 -19 -88.5 -26.5t-92.5 -7.5q-60 0 -108 18t-81.5 51t-52 81t-18.5 108q0 58 19 105.5t53 81t81.5 51.5t105.5 18
q48 0 87.5 -17t67.5 -47q38 -40 49 -89t11 -102v-13zM357 299q0 16 -4.5 31.5t-14.5 27.5t-24.5 19.5t-33.5 7.5q-38 0 -61.5 -25.5t-28.5 -60.5h167z" />
    <glyph glyph-name="f" unicode="f" horiz-adv-x="374" 
d="M345 487q11 0 17.5 -5t6.5 -16v-58q0 -11 -6.5 -17t-17.5 -6h-101v-353q0 -16 -6 -24t-23 -8h-93q-28 0 -28 30v355h-50q-18 0 -23 6.5t-5 26.5v43q0 11 6 18.5t17 7.5h55v33q0 48 9.5 87.5t31.5 67.5t58 43.5t88 15.5q26 0 59.5 -6.5t58.5 -17.5q11 -5 13.5 -14
t-1.5 -32l-8 -51q-2 -14 -10 -17t-20 1q-17 5 -33 8.5t-34 3.5q-20 0 -32.5 -6.5t-19 -17t-8.5 -25t-2 -29.5v-44h101z" />
    <glyph glyph-name="g" unicode="g" horiz-adv-x="572" 
d="M512 39q0 -126 -58 -192t-188 -66q-39 0 -76.5 7t-77.5 23q-17 6 -18 15.5t3 23.5l17 56q5 17 12.5 19t21.5 -3q57 -23 110 -23q34 0 54.5 8.5t31.5 23t14.5 34t3.5 42.5v36q-21 -17 -55.5 -31t-64.5 -14q-92 0 -148 56q-32 32 -48 78.5t-16 101.5q0 51 14.5 99.5
t43 85.5t70.5 59.5t97 22.5q35 0 68 -15q12 -5 26 -17t22 -24l2 22q2 20 26 20h85q16 0 22 -6.5t6 -21.5v-420zM362 348q-14 14 -35 23t-43 9q-20 0 -36 -7.5t-27 -18.5q-20 -20 -27.5 -52t-7.5 -59t7 -54.5t27 -46.5q12 -12 28.5 -17t31.5 -5q23 0 46.5 11.5t35.5 24.5v192
z" />
    <glyph glyph-name="h" unicode="h" horiz-adv-x="582" 
d="M210 29q0 -29 -29 -29h-90q-16 0 -23.5 6t-7.5 23v644q0 14 5 21.5t19 9.5l98 13q28 4 28 -21v-245q15 12 33.5 21.5t39 16t41 9.5t39.5 3q82 0 120 -48.5t38 -129.5v-294q0 -29 -29 -29h-90q-16 0 -23.5 6t-7.5 23v267q0 32 -11.5 51t-45.5 19q-25 0 -54 -10.5
t-50 -28.5v-298z" />
    <glyph glyph-name="i" unicode="i" horiz-adv-x="281" 
d="M221 621q0 -18 -7 -32t-18.5 -24t-26 -15t-28.5 -5t-28.5 5t-26 14.5t-19 23.5t-7.5 32q0 37 25 57t56 20q30 0 55 -20t25 -56zM217 29q0 -29 -29 -29h-90q-16 0 -23.5 6t-7.5 23v432q0 15 8.5 20.5t22.5 5.5h90q14 0 21.5 -5t7.5 -21v-432z" />
    <glyph glyph-name="j" unicode="j" horiz-adv-x="302" 
d="M242 620q0 -18 -7 -32t-18.5 -24t-26 -15t-28.5 -5t-28.5 5t-26 14.5t-19 23.5t-7.5 32q0 38 25 58t56 20q30 0 55 -20t25 -57zM235 22q0 -70 -18 -120t-58 -79q-29 -22 -69 -32t-79 -10q-19 0 -40 2t-46 7q-26 5 -20 31l14 71q2 12 9 14.5t18 0.5q17 -3 29 -4t24 -1
q16 0 34.5 5t29.5 16q22 24 22 78v461q0 13 8 19t20 6h95q27 0 27 -25v-440z" />
    <glyph glyph-name="k" unicode="k" horiz-adv-x="517" 
d="M496 32q6 -11 6 -18q0 -5 -3.5 -9.5t-13.5 -4.5h-116q-16 0 -27 5t-19 19l-111 199h-2v-195q0 -28 -26 -28h-97q-27 0 -27 27v646q0 14 5 21.5t19 9.5l98 13q28 4 28 -21v-404h2l111 179q7 11 13.5 13.5t19.5 2.5h108q17 0 17 -13q0 -6 -7 -16l-128 -178z" />
    <glyph glyph-name="l" unicode="l" horiz-adv-x="270" 
d="M210 28q0 -28 -26 -28h-97q-11 0 -19 6.5t-8 20.5v646q0 14 5 21.5t19 9.5l98 13q28 4 28 -21v-668z" />
    <glyph glyph-name="m" unicode="m" horiz-adv-x="868" 
d="M210 29q0 -29 -29 -29h-90q-16 0 -23.5 6t-7.5 23v432q0 26 28 26h82q13 0 20 -4.5t9 -16.5l2 -19q30 26 67.5 40t75.5 14q25 0 45 -5.5t35 -15t26 -21.5t19 -25q34 34 80 50.5t94 16.5q29 0 53 -7.5t42 -19.5t30.5 -27.5t19.5 -30.5q14 -30 17 -66t3 -90v-231
q0 -29 -29 -29h-90q-16 0 -23.5 6t-7.5 23v268q0 30 -10 51t-44 21q-26 0 -54.5 -12.5t-48.5 -29.5v-298q0 -29 -29 -29h-82q-16 0 -23.5 6t-7.5 23v268q0 30 -10 51t-44 21q-25 0 -49.5 -11.5t-45.5 -30.5v-298z" />
    <glyph glyph-name="n" unicode="n" horiz-adv-x="579" 
d="M210 29q0 -29 -28 -29h-94q-28 0 -28 27v431q0 14 6 21.5t23 7.5h82q11 0 18.5 -4t9.5 -17l2 -21q35 27 75 41.5t85 14.5q83 0 120.5 -48t37.5 -130v-293q0 -15 -6 -22.5t-23 -7.5h-92q-29 0 -29 30v266q0 32 -11 51t-46 19q-25 0 -53 -10.5t-49 -28.5v-298z" />
    <glyph glyph-name="o" unicode="o" horiz-adv-x="563" 
d="M533 243q0 -55 -17 -102t-49.5 -81t-80 -53.5t-108.5 -19.5q-63 0 -110 19.5t-77.5 54t-45.5 81.5t-15 103q0 55 17 102t49.5 81t80 53.5t108.5 19.5q63 0 110 -19.5t77.5 -54t45.5 -81.5t15 -103zM378 244q0 28 -4.5 53t-15.5 44t-29 30.5t-46 11.5t-46.5 -11t-30 -30
t-16.5 -44t-5 -52q0 -28 4.5 -53.5t15.5 -45t29 -31t46 -11.5t46.5 11.5t30 30.5t16.5 44.5t5 52.5z" />
    <glyph glyph-name="p" unicode="p" horiz-adv-x="571" 
d="M541 253q0 -59 -16 -109t-48 -87q-28 -33 -67 -51.5t-88 -18.5q-33 0 -62.5 10.5t-49.5 29.5v-213q0 -17 -8 -24t-23 -7h-91q-28 0 -28 30v646q0 28 29 28h77q14 0 21.5 -4.5t9.5 -16.5l2 -19q20 22 56.5 38t75.5 16q52 0 87 -17.5t59 -43.5q33 -35 48.5 -85t15.5 -102z
M385 244q0 34 -6 58.5t-17 40.5q-13 20 -31.5 28t-38.5 8q-22 0 -44 -10.5t-38 -25.5v-203q14 -13 35.5 -22.5t43.5 -9.5t39.5 9.5t27.5 23.5q15 20 22 44t7 59z" />
    <glyph glyph-name="q" unicode="q" horiz-adv-x="568" 
d="M508 -187q0 -30 -28 -30h-93q-13 0 -21 6.5t-8 20.5v219q-22 -17 -52.5 -29.5t-60.5 -12.5q-42 0 -73 11t-57 31q-45 35 -65 93t-20 124q0 60 18.5 112t54.5 87q59 56 144 56q31 0 67 -13.5t59 -37.5l2 21q1 8 6.5 12t19.5 4h79q17 0 22.5 -7t5.5 -21v-646zM358 341
q-17 14 -40.5 25t-43.5 11q-27 0 -44.5 -12t-27 -30.5t-13 -42t-3.5 -46.5q0 -32 6 -58.5t19 -43.5q10 -13 25 -21t38 -8t44.5 9.5t39.5 22.5v194z" />
    <glyph glyph-name="r" unicode="r" horiz-adv-x="370" 
d="M302 365q-25 0 -49 -9.5t-43 -28.5v-299q0 -28 -28 -28h-94q-28 0 -28 28v430q0 18 8 23.5t21 5.5h81q28 0 29 -20l2 -30q27 32 55.5 48t70.5 16q23 0 31.5 -5.5t6.5 -21.5l-15 -95q-3 -16 -16 -16q-8 0 -13.5 1t-18.5 1z" />
    <glyph glyph-name="s" unicode="s" horiz-adv-x="427" 
d="M405 148q0 -43 -16.5 -73.5t-44.5 -50t-64.5 -28.5t-75.5 -9q-40 0 -85.5 10.5t-81.5 26.5q-19 8 -12 30l20 65q3 11 10 15.5t21 -1.5q76 -31 131 -31q54 0 54 35q0 14 -9.5 23t-37.5 20l-75 28q-51 19 -82 55t-31 90q0 37 17.5 65t45 46.5t61.5 27.5t67 9q39 0 77 -7
t78 -25q18 -8 12 -28l-21 -68q-3 -10 -11.5 -11.5t-16.5 1.5q-32 11 -58.5 18.5t-57.5 7.5q-25 0 -36.5 -10t-11.5 -22q0 -9 6 -18.5t32 -19.5l85 -34q54 -21 82.5 -53.5t28.5 -83.5z" />
    <glyph glyph-name="t" unicode="t" horiz-adv-x="405" 
d="M235 487h108q11 0 17.5 -5t6.5 -16v-58q0 -11 -6.5 -17t-17.5 -6h-108v-195q0 -39 8.5 -61.5t41.5 -22.5q19 0 34 3.5t30 8.5q9 3 17.5 2t10.5 -13l12 -64q2 -11 -0.5 -18t-16.5 -13q-26 -11 -58.5 -18t-67.5 -7q-42 0 -75 10.5t-53 34.5q-12 14 -19 29.5t-10 34.5
t-4 42.5t-1 54.5v192h-40q-18 0 -23 6.5t-5 26.5v43q0 11 6 18.5t17 7.5h46v99q0 14 5 21.5t19 9.5l98 13q28 4 28 -21v-122z" />
    <glyph glyph-name="u" unicode="u" horiz-adv-x="577" 
d="M517 33q0 -19 -6.5 -26t-24.5 -7h-81q-11 0 -18.5 4.5t-8.5 15.5l-2 22q-70 -55 -160 -55q-82 0 -120 48.5t-38 129.5v296q0 15 8.5 20.5t22.5 5.5h90q14 0 21.5 -5t7.5 -21v-269q0 -31 11.5 -50.5t45.5 -19.5q25 0 53 10.5t49 28.5v300q0 15 8.5 20.5t22.5 5.5h90
q14 0 21.5 -5t7.5 -21v-428z" />
    <glyph glyph-name="v" unicode="v" horiz-adv-x="509" 
d="M477 487q15 0 20.5 -9t-0.5 -23l-180 -434q-5 -14 -12.5 -17.5t-21.5 -3.5h-59q-13 0 -21.5 3.5t-13.5 16.5l-176 436q-5 12 -0.5 21.5t18.5 9.5h113q14 0 21.5 -6.5t11.5 -18.5l63 -203q5 -16 10.5 -36t9.5 -36h1q4 14 9.5 33.5t10.5 36.5l67 205q5 15 12.5 20t24.5 5
h92v0z" />
    <glyph glyph-name="w" unicode="w" horiz-adv-x="741" 
d="M11 457q-4 13 0 21.5t18 8.5h109q16 0 23 -6.5t9 -17.5l53 -275h1l83 275q7 24 32 24h72q25 0 32 -24l78 -278h1l59 276q2 12 9.5 19t23.5 7h94q30 0 20 -32l-130 -427q-4 -14 -12 -21t-25 -7h-83q-16 0 -23.5 7.5t-12.5 22.5l-73 246h-2l-73 -249q-5 -14 -13 -20.5
t-25 -6.5h-81q-15 0 -23 8t-12 21z" />
    <glyph glyph-name="x" unicode="x" horiz-adv-x="535" 
d="M520 32q8 -11 5 -21.5t-20 -10.5h-123q-19 0 -28 5.5t-16 16.5l-80 133h-1l-82 -134q-8 -14 -18 -17.5t-27 -3.5h-106q-13 0 -15.5 10.5t5.5 19.5l173 222l-149 206q-6 9 -3 19t16 10h128q14 0 22.5 -4.5t15.5 -15.5l64 -104h1l66 104q8 11 15.5 15.5t19.5 4.5h111
q12 0 14.5 -9.5t-4.5 -18.5l-154 -190z" />
    <glyph glyph-name="y" unicode="y" horiz-adv-x="537" 
d="M366 458q9 29 37 29h103q13 0 16 -9t-1 -19l-198 -514q-17 -45 -38 -75.5t-48.5 -50t-64 -28t-85.5 -8.5q-17 0 -31 1.5t-29 4.5q-14 3 -16.5 11.5t-0.5 20.5l9 63q2 15 7.5 18.5t12.5 3.5q8 0 19 -1.5t30 -1.5q45 0 67 15t35 48l12 31l-185 460q-5 11 0 20.5t18 9.5h118
q23 0 30 -20l93 -296h3z" />
    <glyph glyph-name="z" unicode="z" horiz-adv-x="453" 
d="M42 454q0 20 5 26.5t23 6.5h327q17 0 21.5 -8t4.5 -17v-35q0 -11 -2 -20t-9 -18l-204 -286l1 -2h194q11 0 17.5 -4.5t6.5 -15.5v-61q0 -11 -6.5 -15.5t-17.5 -4.5h-350q-17 0 -23 7.5t-6 20.5v31q0 12 1.5 19t9.5 18l200 288l-1 1h-164q-18 0 -23 6.5t-5 26.5v36z" />
    <glyph glyph-name="braceleft" unicode="{" horiz-adv-x="403" 
d="M331 626q-35 0 -45.5 -16.5t-12.5 -47.5l-3 -133q-1 -34 -14.5 -59.5t-33 -43t-41 -27t-37.5 -10.5v-2q16 -1 37.5 -9t40.5 -25.5t33 -45t15 -67.5l3 -126q2 -31 12.5 -47.5t45.5 -16.5h17q11 0 14.5 -3.5t5.5 -14.5l10 -53q2 -11 -2.5 -15t-15.5 -4h-82q-32 0 -59 9.5
t-47.5 28.5t-32.5 46t-13 63l-3 137q-1 41 -19 66.5t-55 28.5q-11 1 -15 6t-4 16v51q0 11 4 16t15 6q37 3 55 28.5t19 66.5l3 140q1 36 13.5 63t33.5 46t48 28.5t57 9.5h82q11 0 15.5 -4t2.5 -15l-10 -56q-2 -8 -4.5 -11.5t-10.5 -3.5h-22z" />
    <glyph glyph-name="bar" unicode="|" horiz-adv-x="247" 
d="M191 2q0 -25 -23 -25h-89q-23 0 -23 25v692q0 25 23 25h89q23 0 23 -25v-692z" />
    <glyph glyph-name="braceright" unicode="}" horiz-adv-x="403" 
d="M50 626q-8 0 -10.5 3.5t-4.5 11.5l-10 56q-2 11 2.5 15t15.5 4h82q30 0 57 -9.5t48 -28.5t33.5 -46t13.5 -63l3 -140q1 -41 19 -66.5t55 -28.5q11 -1 15 -6t4 -16v-51q0 -11 -4 -16t-15 -6q-37 -3 -55 -28.5t-19 -66.5l-3 -137q-1 -36 -13 -63t-32.5 -46t-48 -28.5
t-58.5 -9.5h-82q-11 0 -15.5 4t-2.5 15l10 53q2 11 5.5 14.5t14.5 3.5h17q35 0 45.5 16.5t12.5 47.5l3 126q1 40 15 67.5t33 45t40.5 25.5t37.5 9v2q-16 1 -37.5 10.5t-41 27t-33 43t-14.5 59.5l-3 133q-2 31 -12.5 47.5t-45.5 16.5h-22z" />
    <glyph glyph-name="asciitilde" unicode="~" horiz-adv-x="545" 
d="M199 245q-18 0 -35.5 -7.5t-38.5 -19.5q-16 -10 -24.5 -8t-13.5 13l-27 51q-6 11 -6 19.5t11 16.5q28 23 63.5 41t70.5 18q24 0 44 -6.5t37.5 -14t33.5 -14t32 -6.5q18 0 35.5 7.5t38.5 19.5q16 9 24.5 7.5t13.5 -12.5l27 -52q6 -11 6 -19.5t-11 -16.5q-28 -22 -63.5 -40
t-70.5 -18q-24 0 -44 6.5t-37.5 14t-33.5 14t-32 6.5z" />
    <glyph glyph-name="Adieresis" unicode="&#xc4;" horiz-adv-x="671" 
d="M246 669q5 11 12.5 18t21.5 7h106q14 0 21.5 -7t12.5 -18l242 -634q5 -14 1.5 -24.5t-19.5 -10.5h-112q-18 0 -26 7.5t-13 20.5l-40 116h-247l-40 -120q-3 -10 -9.5 -17t-20.5 -7h-107q-16 0 -19.5 10.5t1.5 24.5zM410 264l-63 197l-18 58h-2l-18 -59l-63 -196h164z
M301 834q0 -32 -22.5 -49.5t-47.5 -17.5q-12 0 -25 4.5t-23 12.5t-16.5 20.5t-6.5 28.5q0 32 22 50t49 18q26 0 48 -17.5t22 -49.5zM510 834q0 -32 -22.5 -49.5t-47.5 -17.5q-12 0 -25 4.5t-23 12.5t-16.5 20.5t-6.5 28.5q0 32 22 50t49 18q26 0 48 -17.5t22 -49.5z" />
    <glyph glyph-name="Aring" unicode="&#xc5;" horiz-adv-x="671" 
d="M246 669q5 11 12.5 18t21.5 7h106q14 0 21.5 -7t12.5 -18l242 -634q5 -14 1.5 -24.5t-19.5 -10.5h-112q-18 0 -26 7.5t-13 20.5l-40 116h-247l-40 -120q-3 -10 -9.5 -17t-20.5 -7h-107q-16 0 -19.5 10.5t1.5 24.5zM410 264l-63 197l-18 58h-2l-18 -59l-63 -196h164z
M295 848q0 -18 11.5 -30.5t28.5 -12.5t28.5 12.5t11.5 30.5t-11.5 30.5t-28.5 12.5t-28.5 -12.5t-11.5 -30.5zM435 848q0 -21 -8 -39.5t-21.5 -31.5t-32 -20.5t-38.5 -7.5t-38.5 7.5t-32 20.5t-21.5 31.5t-8 39.5t8 39.5t21.5 31.5t32 20.5t38.5 7.5t38.5 -7.5t32 -20.5
t21.5 -31.5t8 -39.5z" />
    <glyph glyph-name="Ccedilla" unicode="&#xc7;" horiz-adv-x="604" 
d="M495 -128q0 -21 -8.5 -40.5t-25.5 -34.5t-42 -24t-58 -9q-19 0 -41 4t-40 12q-10 5 -12 10t2 16l12 34q5 15 23 7q23 -10 45 -10q17 0 27.5 8.5t10.5 22.5q0 30 -50 30h-22q-15 0 -20 6.5t-5 17.5v4t0.5 10t2 20t4.5 35q-64 9 -112.5 38t-80.5 75t-48.5 106.5
t-16.5 132.5q0 81 23.5 148.5t67 115.5t105 75t136.5 27q54 0 100.5 -10t90.5 -30q24 -11 16 -34l-29 -84q-7 -20 -28 -11q-40 18 -73 26t-68 8q-78 0 -124.5 -58t-46.5 -168q0 -59 13.5 -102t37 -70.5t55 -40.5t68.5 -13q35 0 67 7t68 21q11 4 19.5 3t13.5 -15l25 -74
q4 -11 3 -20.5t-18 -17.5q-36 -17 -82.5 -26.5t-98.5 -11.5l-2 -24q57 -1 86.5 -26.5t29.5 -65.5z" />
    <glyph glyph-name="Eacute" unicode="&#xc9;" horiz-adv-x="561" 
d="M229 416h227q17 0 23.5 -7.5t6.5 -19.5v-73q0 -29 -29 -29h-228v-158h261q29 0 29 -27v-74q0 -28 -28 -28h-388q-17 0 -25 6t-8 25v635q0 28 26 28h398q15 0 20.5 -6.5t4.5 -16.5l-9 -81q-2 -16 -11.5 -20.5t-27.5 -4.5h-242v-149zM327 923q13 10 21.5 9.5t18.5 -13.5
l41 -56q8 -11 6 -18t-12 -13l-142 -83q-16 -9 -23.5 -9t-16.5 13l-28 39q-6 9 -5 16t14 17z" />
    <glyph glyph-name="Ntilde" unicode="&#xd1;" horiz-adv-x="754" 
d="M684 31q0 -20 -7.5 -25.5t-21.5 -5.5h-85q-28 0 -44 22l-298 397h-2v-389q0 -17 -7.5 -23.5t-22.5 -6.5h-93q-17 0 -25 5.5t-8 23.5v634q0 20 8.5 25.5t24.5 5.5h84q15 0 24 -5t17 -16l298 -400h2v392q0 17 8 23t23 6h97q20 0 24 -9t4 -22v-632zM320 806q-14 0 -28 -6
t-31 -16q-13 -8 -19.5 -6.5t-11.5 10.5l-22 45q-5 9 -4.5 15.5t8.5 13.5q23 18 51.5 32.5t56.5 14.5q19 0 34 -5t28 -11.5t24.5 -11.5t24.5 -5q14 0 28 6t31 16q13 8 19.5 6.5t11.5 -10.5l22 -45q5 -9 4.5 -15.5t-8.5 -13.5q-23 -18 -51.5 -32.5t-56.5 -14.5q-20 0 -35 5
t-27.5 11.5t-24 11.5t-24.5 5z" />
    <glyph glyph-name="Odieresis" unicode="&#xd6;" horiz-adv-x="710" 
d="M672 351q0 -84 -23.5 -151.5t-66 -115t-101.5 -72.5t-129 -25q-75 0 -133.5 25.5t-98.5 72.5t-61 113t-21 147q0 80 22 147t63.5 115t100.5 75t134 27q78 0 137 -27.5t98.5 -75.5t59 -113.5t19.5 -141.5zM502 348q0 121 -38 173.5t-110 52.5q-66 0 -106 -56.5t-40 -168.5
q0 -119 38.5 -173t110.5 -54q66 0 105.5 54.5t39.5 171.5zM321 834q0 -32 -22.5 -49.5t-47.5 -17.5q-12 0 -25 4.5t-23 12.5t-16.5 20.5t-6.5 28.5q0 32 22 50t49 18q26 0 48 -17.5t22 -49.5zM530 834q0 -32 -22.5 -49.5t-47.5 -17.5q-12 0 -25 4.5t-23 12.5t-16.5 20.5
t-6.5 28.5q0 32 22 50t49 18q26 0 48 -17.5t22 -49.5z" />
    <glyph glyph-name="Udieresis" unicode="&#xdc;" horiz-adv-x="738" 
d="M672 312q0 -84 -21 -145.5t-60.5 -101.5t-96.5 -59t-129 -19q-155 0 -227 82t-72 242v357q0 15 8.5 20.5t22.5 5.5h99q14 0 21.5 -5t7.5 -21v-345q0 -59 10 -98t28.5 -62t46 -32.5t62.5 -9.5q33 0 59.5 9.5t44.5 33t28 62t10 96.5v346q0 15 8 20.5t22 5.5h99
q14 0 21.5 -5t7.5 -21v-356zM335 834q0 -32 -22.5 -49.5t-47.5 -17.5q-12 0 -25 4.5t-23 12.5t-16.5 20.5t-6.5 28.5q0 32 22 50t49 18q26 0 48 -17.5t22 -49.5zM544 834q0 -32 -22.5 -49.5t-47.5 -17.5q-12 0 -25 4.5t-23 12.5t-16.5 20.5t-6.5 28.5q0 32 22 50t49 18
q26 0 48 -17.5t22 -49.5z" />
    <glyph glyph-name="aacute" unicode="&#xe1;" horiz-adv-x="574" 
d="M554 23q0 -11 -6.5 -17t-17.5 -6h-53q-45 0 -65.5 12t-30.5 34h-2q-10 -12 -26.5 -22.5t-35.5 -18.5t-39.5 -13t-38.5 -5q-54 0 -93.5 20t-66 53.5t-39 78.5t-12.5 95q0 66 19 116t50 83.5t70.5 50.5t80.5 17q42 0 74 -16.5t48 -39.5l3 22q3 20 23 20h90q11 0 17.5 -6
t6.5 -18v-345q0 -17 15 -17h8q21 0 21 -20v-58zM360 343q-14 12 -36 23t-45 11q-18 0 -35.5 -7.5t-30.5 -24t-21 -41.5t-8 -60q0 -23 3.5 -47.5t14 -44t28 -32t46.5 -12.5q13 0 26.5 4.5t24.5 11t19.5 13.5t13.5 13v193zM325 723q13 10 21.5 9.5t18.5 -13.5l41 -56
q8 -11 6 -18t-12 -13l-142 -83q-16 -9 -23.5 -9t-16.5 13l-28 39q-6 9 -5 16t14 17z" />
    <glyph glyph-name="agrave" unicode="&#xe0;" horiz-adv-x="574" 
d="M554 23q0 -11 -6.5 -17t-17.5 -6h-53q-45 0 -65.5 12t-30.5 34h-2q-10 -12 -26.5 -22.5t-35.5 -18.5t-39.5 -13t-38.5 -5q-54 0 -93.5 20t-66 53.5t-39 78.5t-12.5 95q0 66 19 116t50 83.5t70.5 50.5t80.5 17q42 0 74 -16.5t48 -39.5l3 22q3 20 23 20h90q11 0 17.5 -6
t6.5 -18v-345q0 -17 15 -17h8q21 0 21 -20v-58zM360 343q-14 12 -36 23t-45 11q-18 0 -35.5 -7.5t-30.5 -24t-21 -41.5t-8 -60q0 -23 3.5 -47.5t14 -44t28 -32t46.5 -12.5q13 0 26.5 4.5t24.5 11t19.5 13.5t13.5 13v193zM375 625q13 -10 14 -17t-5 -16l-28 -39
q-9 -13 -16.5 -13t-23.5 9l-142 83q-10 6 -12 13t6 18l41 56q10 13 18.5 13.5t21.5 -9.5z" />
    <glyph glyph-name="acircumflex" unicode="&#xe2;" horiz-adv-x="574" 
d="M554 23q0 -11 -6.5 -17t-17.5 -6h-53q-45 0 -65.5 12t-30.5 34h-2q-10 -12 -26.5 -22.5t-35.5 -18.5t-39.5 -13t-38.5 -5q-54 0 -93.5 20t-66 53.5t-39 78.5t-12.5 95q0 66 19 116t50 83.5t70.5 50.5t80.5 17q42 0 74 -16.5t48 -39.5l3 22q3 20 23 20h90q11 0 17.5 -6
t6.5 -18v-345q0 -17 15 -17h8q21 0 21 -20v-58zM360 343q-14 12 -36 23t-45 11q-18 0 -35.5 -7.5t-30.5 -24t-21 -41.5t-8 -60q0 -23 3.5 -47.5t14 -44t28 -32t46.5 -12.5q13 0 26.5 4.5t24.5 11t19.5 13.5t13.5 13v193zM315 726q13 0 19.5 -3t17.5 -12l107 -88
q16 -13 2 -29l-32 -36q-8 -9 -16 -9t-20 8l-96 62l-96 -62q-12 -8 -20 -8t-16 9l-32 36q-14 16 2 29l107 88q11 9 17.5 12t19.5 3h36z" />
    <glyph glyph-name="adieresis" unicode="&#xe4;" horiz-adv-x="574" 
d="M554 23q0 -11 -6.5 -17t-17.5 -6h-53q-45 0 -65.5 12t-30.5 34h-2q-10 -12 -26.5 -22.5t-35.5 -18.5t-39.5 -13t-38.5 -5q-54 0 -93.5 20t-66 53.5t-39 78.5t-12.5 95q0 66 19 116t50 83.5t70.5 50.5t80.5 17q42 0 74 -16.5t48 -39.5l3 22q3 20 23 20h90q11 0 17.5 -6
t6.5 -18v-345q0 -17 15 -17h8q21 0 21 -20v-58zM360 343q-14 12 -36 23t-45 11q-18 0 -35.5 -7.5t-30.5 -24t-21 -41.5t-8 -60q0 -23 3.5 -47.5t14 -44t28 -32t46.5 -12.5q13 0 26.5 4.5t24.5 11t19.5 13.5t13.5 13v193zM253 634q0 -32 -22.5 -49.5t-47.5 -17.5
q-12 0 -25 4.5t-23 12.5t-16.5 20.5t-6.5 28.5q0 32 22 50t49 18q26 0 48 -17.5t22 -49.5zM462 634q0 -32 -22.5 -49.5t-47.5 -17.5q-12 0 -25 4.5t-23 12.5t-16.5 20.5t-6.5 28.5q0 32 22 50t49 18q26 0 48 -17.5t22 -49.5z" />
    <glyph glyph-name="atilde" unicode="&#xe3;" horiz-adv-x="574" 
d="M554 23q0 -11 -6.5 -17t-17.5 -6h-53q-45 0 -65.5 12t-30.5 34h-2q-10 -12 -26.5 -22.5t-35.5 -18.5t-39.5 -13t-38.5 -5q-54 0 -93.5 20t-66 53.5t-39 78.5t-12.5 95q0 66 19 116t50 83.5t70.5 50.5t80.5 17q42 0 74 -16.5t48 -39.5l3 22q3 20 23 20h90q11 0 17.5 -6
t6.5 -18v-345q0 -17 15 -17h8q21 0 21 -20v-58zM360 343q-14 12 -36 23t-45 11q-18 0 -35.5 -7.5t-30.5 -24t-21 -41.5t-8 -60q0 -23 3.5 -47.5t14 -44t28 -32t46.5 -12.5q13 0 26.5 4.5t24.5 11t19.5 13.5t13.5 13v193zM230 606q-14 0 -28 -6t-31 -16q-13 -8 -19.5 -6.5
t-11.5 10.5l-22 45q-5 9 -4.5 15.5t8.5 13.5q23 18 51.5 32.5t56.5 14.5q19 0 34 -5t28 -11.5t24.5 -11.5t24.5 -5q14 0 28 6t31 16q13 8 19.5 6.5t11.5 -10.5l22 -45q5 -9 4.5 -15.5t-8.5 -13.5q-23 -18 -51.5 -32.5t-56.5 -14.5q-20 0 -35 5t-27.5 11.5t-24 11.5t-24.5 5z
" />
    <glyph glyph-name="aring" unicode="&#xe5;" horiz-adv-x="574" 
d="M554 23q0 -11 -6.5 -17t-17.5 -6h-53q-45 0 -65.5 12t-30.5 34h-2q-10 -12 -26.5 -22.5t-35.5 -18.5t-39.5 -13t-38.5 -5q-54 0 -93.5 20t-66 53.5t-39 78.5t-12.5 95q0 66 19 116t50 83.5t70.5 50.5t80.5 17q42 0 74 -16.5t48 -39.5l3 22q3 20 23 20h90q11 0 17.5 -6
t6.5 -18v-345q0 -17 15 -17h8q21 0 21 -20v-58zM360 343q-14 12 -36 23t-45 11q-18 0 -35.5 -7.5t-30.5 -24t-21 -41.5t-8 -60q0 -23 3.5 -47.5t14 -44t28 -32t46.5 -12.5q13 0 26.5 4.5t24.5 11t19.5 13.5t13.5 13v193zM248 648q0 -18 11.5 -30.5t28.5 -12.5t28.5 12.5
t11.5 30.5t-11.5 30.5t-28.5 12.5t-28.5 -12.5t-11.5 -30.5zM388 648q0 -21 -8 -39.5t-21.5 -31.5t-32 -20.5t-38.5 -7.5t-38.5 7.5t-32 20.5t-21.5 31.5t-8 39.5t8 39.5t21.5 31.5t32 20.5t38.5 7.5t38.5 -7.5t32 -20.5t21.5 -31.5t8 -39.5z" />
    <glyph glyph-name="ccedilla" unicode="&#xe7;" horiz-adv-x="458" 
d="M400 -128q0 -21 -8.5 -40.5t-25.5 -34.5t-42 -24t-58 -9q-19 0 -41 4t-40 12q-10 5 -12 10t2 16l12 34q5 15 23 7q23 -10 45 -10q17 0 27.5 8.5t10.5 22.5q0 30 -50 30h-22q-15 0 -20 6.5t-5 17.5v4t1 10.5t2.5 21t4.5 36.5q-82 17 -131.5 77t-49.5 165q0 61 17.5 110
t50.5 83.5t80.5 53t107.5 18.5q35 0 69.5 -6t69.5 -21q11 -5 12 -11.5t-1 -17.5l-16 -72q-3 -12 -10 -13t-17 3q-21 8 -43 13.5t-45 5.5q-59 0 -89.5 -36.5t-30.5 -101.5q0 -73 32 -106t93 -33q23 0 42.5 4t45.5 14q8 3 15 2.5t10 -11.5l19 -67q5 -15 1 -20.5t-14 -10.5
q-31 -14 -65.5 -20.5t-70.5 -8.5l-2 -23q57 -1 86.5 -26.5t29.5 -65.5z" />
    <glyph glyph-name="eacute" unicode="&#xe9;" horiz-adv-x="528" 
d="M504 233q0 -18 -8.5 -23.5t-27.5 -5.5h-280q9 -48 46 -73t83 -25q33 0 63.5 6.5t60.5 18.5q11 5 19 3t12 -16l16 -63q4 -14 -1 -21.5t-16 -12.5q-40 -19 -88.5 -26.5t-92.5 -7.5q-60 0 -108 18t-81.5 51t-52 81t-18.5 108q0 58 19 105.5t53 81t81.5 51.5t105.5 18
q48 0 87.5 -17t67.5 -47q38 -40 49 -89t11 -102v-13zM357 299q0 16 -4.5 31.5t-14.5 27.5t-24.5 19.5t-33.5 7.5q-38 0 -61.5 -25.5t-28.5 -60.5h167zM316 723q13 10 21.5 9.5t18.5 -13.5l41 -56q8 -11 6 -18t-12 -13l-142 -83q-16 -9 -23.5 -9t-16.5 13l-28 39q-6 9 -5 16
t14 17z" />
    <glyph glyph-name="egrave" unicode="&#xe8;" horiz-adv-x="528" 
d="M504 233q0 -18 -8.5 -23.5t-27.5 -5.5h-280q9 -48 46 -73t83 -25q33 0 63.5 6.5t60.5 18.5q11 5 19 3t12 -16l16 -63q4 -14 -1 -21.5t-16 -12.5q-40 -19 -88.5 -26.5t-92.5 -7.5q-60 0 -108 18t-81.5 51t-52 81t-18.5 108q0 58 19 105.5t53 81t81.5 51.5t105.5 18
q48 0 87.5 -17t67.5 -47q38 -40 49 -89t11 -102v-13zM357 299q0 16 -4.5 31.5t-14.5 27.5t-24.5 19.5t-33.5 7.5q-38 0 -61.5 -25.5t-28.5 -60.5h167zM362 625q13 -10 14 -17t-5 -16l-28 -39q-9 -13 -16.5 -13t-23.5 9l-142 83q-10 6 -12 13t6 18l41 56q10 13 18.5 13.5
t21.5 -9.5z" />
    <glyph glyph-name="ecircumflex" unicode="&#xea;" horiz-adv-x="528" 
d="M504 233q0 -18 -8.5 -23.5t-27.5 -5.5h-280q9 -48 46 -73t83 -25q33 0 63.5 6.5t60.5 18.5q11 5 19 3t12 -16l16 -63q4 -14 -1 -21.5t-16 -12.5q-40 -19 -88.5 -26.5t-92.5 -7.5q-60 0 -108 18t-81.5 51t-52 81t-18.5 108q0 58 19 105.5t53 81t81.5 51.5t105.5 18
q48 0 87.5 -17t67.5 -47q38 -40 49 -89t11 -102v-13zM357 299q0 16 -4.5 31.5t-14.5 27.5t-24.5 19.5t-33.5 7.5q-38 0 -61.5 -25.5t-28.5 -60.5h167zM292 726q13 0 19.5 -3t17.5 -12l107 -88q16 -13 2 -29l-32 -36q-8 -9 -16 -9t-20 8l-96 62l-96 -62q-12 -8 -20 -8t-16 9
l-32 36q-14 16 2 29l107 88q11 9 17.5 12t19.5 3h36z" />
    <glyph glyph-name="edieresis" unicode="&#xeb;" horiz-adv-x="528" 
d="M504 233q0 -18 -8.5 -23.5t-27.5 -5.5h-280q9 -48 46 -73t83 -25q33 0 63.5 6.5t60.5 18.5q11 5 19 3t12 -16l16 -63q4 -14 -1 -21.5t-16 -12.5q-40 -19 -88.5 -26.5t-92.5 -7.5q-60 0 -108 18t-81.5 51t-52 81t-18.5 108q0 58 19 105.5t53 81t81.5 51.5t105.5 18
q48 0 87.5 -17t67.5 -47q38 -40 49 -89t11 -102v-13zM357 299q0 16 -4.5 31.5t-14.5 27.5t-24.5 19.5t-33.5 7.5q-38 0 -61.5 -25.5t-28.5 -60.5h167zM246 634q0 -32 -22.5 -49.5t-47.5 -17.5q-12 0 -25 4.5t-23 12.5t-16.5 20.5t-6.5 28.5q0 32 22 50t49 18q26 0 48 -17.5
t22 -49.5zM455 634q0 -32 -22.5 -49.5t-47.5 -17.5q-12 0 -25 4.5t-23 12.5t-16.5 20.5t-6.5 28.5q0 32 22 50t49 18q26 0 48 -17.5t22 -49.5z" />
    <glyph glyph-name="iacute" unicode="&#xed;" horiz-adv-x="281" 
d="M217 29q0 -29 -29 -29h-90q-16 0 -23.5 6t-7.5 23v432q0 15 8.5 20.5t22.5 5.5h90q14 0 21.5 -5t7.5 -21v-432zM168 723q13 10 21.5 9.5t18.5 -13.5l41 -56q8 -11 6 -18t-12 -13l-142 -83q-16 -9 -23.5 -9t-16.5 13l-28 39q-6 9 -5 16t14 17z" />
    <glyph glyph-name="igrave" unicode="&#xec;" horiz-adv-x="281" 
d="M217 29q0 -29 -29 -29h-90q-16 0 -23.5 6t-7.5 23v432q0 15 8.5 20.5t22.5 5.5h90q14 0 21.5 -5t7.5 -21v-432zM240 625q13 -10 14 -17t-5 -16l-28 -39q-9 -13 -16.5 -13t-23.5 9l-142 83q-10 6 -12 13t6 18l41 56q10 13 18.5 13.5t21.5 -9.5z" />
    <glyph glyph-name="icircumflex" unicode="&#xee;" horiz-adv-x="281" 
d="M217 29q0 -29 -29 -29h-90q-16 0 -23.5 6t-7.5 23v432q0 15 8.5 20.5t22.5 5.5h90q14 0 21.5 -5t7.5 -21v-432zM160 726q13 0 19.5 -3t17.5 -12l107 -88q16 -13 2 -29l-32 -36q-8 -9 -16 -9t-20 8l-96 62l-96 -62q-12 -8 -20 -8t-16 9l-32 36q-14 16 2 29l107 88
q11 9 17.5 12t19.5 3h36z" />
    <glyph glyph-name="idieresis" unicode="&#xef;" horiz-adv-x="281" 
d="M217 29q0 -29 -29 -29h-90q-16 0 -23.5 6t-7.5 23v432q0 15 8.5 20.5t22.5 5.5h90q14 0 21.5 -5t7.5 -21v-432zM113 634q0 -32 -22.5 -49.5t-47.5 -17.5q-12 0 -25 4.5t-23 12.5t-16.5 20.5t-6.5 28.5q0 32 22 50t49 18q26 0 48 -17.5t22 -49.5zM322 634
q0 -32 -22.5 -49.5t-47.5 -17.5q-12 0 -25 4.5t-23 12.5t-16.5 20.5t-6.5 28.5q0 32 22 50t49 18q26 0 48 -17.5t22 -49.5z" />
    <glyph glyph-name="ntilde" unicode="&#xf1;" horiz-adv-x="579" 
d="M210 29q0 -29 -28 -29h-94q-28 0 -28 27v431q0 14 6 21.5t23 7.5h82q11 0 18.5 -4t9.5 -17l2 -21q35 27 75 41.5t85 14.5q83 0 120.5 -48t37.5 -130v-293q0 -15 -6 -22.5t-23 -7.5h-92q-29 0 -29 30v266q0 32 -11 51t-46 19q-25 0 -53 -10.5t-49 -28.5v-298zM240 606
q-14 0 -28 -6t-31 -16q-13 -8 -19.5 -6.5t-11.5 10.5l-22 45q-5 9 -4.5 15.5t8.5 13.5q23 18 51.5 32.5t56.5 14.5q19 0 34 -5t28 -11.5t24.5 -11.5t24.5 -5q14 0 28 6t31 16q13 8 19.5 6.5t11.5 -10.5l22 -45q5 -9 4.5 -15.5t-8.5 -13.5q-23 -18 -51.5 -32.5t-56.5 -14.5
q-20 0 -35 5t-27.5 11.5t-24 11.5t-24.5 5z" />
    <glyph glyph-name="oacute" unicode="&#xf3;" horiz-adv-x="563" 
d="M533 243q0 -55 -17 -102t-49.5 -81t-80 -53.5t-108.5 -19.5q-63 0 -110 19.5t-77.5 54t-45.5 81.5t-15 103q0 55 17 102t49.5 81t80 53.5t108.5 19.5q63 0 110 -19.5t77.5 -54t45.5 -81.5t15 -103zM378 244q0 28 -4.5 53t-15.5 44t-29 30.5t-46 11.5t-46.5 -11t-30 -30
t-16.5 -44t-5 -52q0 -28 4.5 -53.5t15.5 -45t29 -31t46 -11.5t46.5 11.5t30 30.5t16.5 44.5t5 52.5zM308 723q13 10 21.5 9.5t18.5 -13.5l41 -56q8 -11 6 -18t-12 -13l-142 -83q-16 -9 -23.5 -9t-16.5 13l-28 39q-6 9 -5 16t14 17z" />
    <glyph glyph-name="ograve" unicode="&#xf2;" horiz-adv-x="563" 
d="M533 243q0 -55 -17 -102t-49.5 -81t-80 -53.5t-108.5 -19.5q-63 0 -110 19.5t-77.5 54t-45.5 81.5t-15 103q0 55 17 102t49.5 81t80 53.5t108.5 19.5q63 0 110 -19.5t77.5 -54t45.5 -81.5t15 -103zM378 244q0 28 -4.5 53t-15.5 44t-29 30.5t-46 11.5t-46.5 -11t-30 -30
t-16.5 -44t-5 -52q0 -28 4.5 -53.5t15.5 -45t29 -31t46 -11.5t46.5 11.5t30 30.5t16.5 44.5t5 52.5zM380 625q13 -10 14 -17t-5 -16l-28 -39q-9 -13 -16.5 -13t-23.5 9l-142 83q-10 6 -12 13t6 18l41 56q10 13 18.5 13.5t21.5 -9.5z" />
    <glyph glyph-name="ocircumflex" unicode="&#xf4;" horiz-adv-x="563" 
d="M533 243q0 -55 -17 -102t-49.5 -81t-80 -53.5t-108.5 -19.5q-63 0 -110 19.5t-77.5 54t-45.5 81.5t-15 103q0 55 17 102t49.5 81t80 53.5t108.5 19.5q63 0 110 -19.5t77.5 -54t45.5 -81.5t15 -103zM378 244q0 28 -4.5 53t-15.5 44t-29 30.5t-46 11.5t-46.5 -11t-30 -30
t-16.5 -44t-5 -52q0 -28 4.5 -53.5t15.5 -45t29 -31t46 -11.5t46.5 11.5t30 30.5t16.5 44.5t5 52.5zM301 726q13 0 19.5 -3t17.5 -12l107 -88q16 -13 2 -29l-32 -36q-8 -9 -16 -9t-20 8l-96 62l-96 -62q-12 -8 -20 -8t-16 9l-32 36q-14 16 2 29l107 88q11 9 17.5 12t19.5 3
h36z" />
    <glyph glyph-name="odieresis" unicode="&#xf6;" horiz-adv-x="563" 
d="M533 243q0 -55 -17 -102t-49.5 -81t-80 -53.5t-108.5 -19.5q-63 0 -110 19.5t-77.5 54t-45.5 81.5t-15 103q0 55 17 102t49.5 81t80 53.5t108.5 19.5q63 0 110 -19.5t77.5 -54t45.5 -81.5t15 -103zM378 244q0 28 -4.5 53t-15.5 44t-29 30.5t-46 11.5t-46.5 -11t-30 -30
t-16.5 -44t-5 -52q0 -28 4.5 -53.5t15.5 -45t29 -31t46 -11.5t46.5 11.5t30 30.5t16.5 44.5t5 52.5zM249 634q0 -32 -22.5 -49.5t-47.5 -17.5q-12 0 -25 4.5t-23 12.5t-16.5 20.5t-6.5 28.5q0 32 22 50t49 18q26 0 48 -17.5t22 -49.5zM458 634q0 -32 -22.5 -49.5
t-47.5 -17.5q-12 0 -25 4.5t-23 12.5t-16.5 20.5t-6.5 28.5q0 32 22 50t49 18q26 0 48 -17.5t22 -49.5z" />
    <glyph glyph-name="otilde" unicode="&#xf5;" horiz-adv-x="563" 
d="M533 243q0 -55 -17 -102t-49.5 -81t-80 -53.5t-108.5 -19.5q-63 0 -110 19.5t-77.5 54t-45.5 81.5t-15 103q0 55 17 102t49.5 81t80 53.5t108.5 19.5q63 0 110 -19.5t77.5 -54t45.5 -81.5t15 -103zM378 244q0 28 -4.5 53t-15.5 44t-29 30.5t-46 11.5t-46.5 -11t-30 -30
t-16.5 -44t-5 -52q0 -28 4.5 -53.5t15.5 -45t29 -31t46 -11.5t46.5 11.5t30 30.5t16.5 44.5t5 52.5zM224 606q-14 0 -28 -6t-31 -16q-13 -8 -19.5 -6.5t-11.5 10.5l-22 45q-5 9 -4.5 15.5t8.5 13.5q23 18 51.5 32.5t56.5 14.5q19 0 34 -5t28 -11.5t24.5 -11.5t24.5 -5
q14 0 28 6t31 16q13 8 19.5 6.5t11.5 -10.5l22 -45q5 -9 4.5 -15.5t-8.5 -13.5q-23 -18 -51.5 -32.5t-56.5 -14.5q-20 0 -35 5t-27.5 11.5t-24 11.5t-24.5 5z" />
    <glyph glyph-name="uacute" unicode="&#xfa;" horiz-adv-x="577" 
d="M517 33q0 -19 -6.5 -26t-24.5 -7h-81q-11 0 -18.5 4.5t-8.5 15.5l-2 22q-70 -55 -160 -55q-82 0 -120 48.5t-38 129.5v296q0 15 8.5 20.5t22.5 5.5h90q14 0 21.5 -5t7.5 -21v-269q0 -31 11.5 -50.5t45.5 -19.5q25 0 53 10.5t49 28.5v300q0 15 8.5 20.5t22.5 5.5h90
q14 0 21.5 -5t7.5 -21v-428zM315 723q13 10 21.5 9.5t18.5 -13.5l41 -56q8 -11 6 -18t-12 -13l-142 -83q-16 -9 -23.5 -9t-16.5 13l-28 39q-6 9 -5 16t14 17z" />
    <glyph glyph-name="ugrave" unicode="&#xf9;" horiz-adv-x="577" 
d="M517 33q0 -19 -6.5 -26t-24.5 -7h-81q-11 0 -18.5 4.5t-8.5 15.5l-2 22q-70 -55 -160 -55q-82 0 -120 48.5t-38 129.5v296q0 15 8.5 20.5t22.5 5.5h90q14 0 21.5 -5t7.5 -21v-269q0 -31 11.5 -50.5t45.5 -19.5q25 0 53 10.5t49 28.5v300q0 15 8.5 20.5t22.5 5.5h90
q14 0 21.5 -5t7.5 -21v-428zM386 625q13 -10 14 -17t-5 -16l-28 -39q-9 -13 -16.5 -13t-23.5 9l-142 83q-10 6 -12 13t6 18l41 56q10 13 18.5 13.5t21.5 -9.5z" />
    <glyph glyph-name="ucircumflex" unicode="&#xfb;" horiz-adv-x="577" 
d="M517 33q0 -19 -6.5 -26t-24.5 -7h-81q-11 0 -18.5 4.5t-8.5 15.5l-2 22q-70 -55 -160 -55q-82 0 -120 48.5t-38 129.5v296q0 15 8.5 20.5t22.5 5.5h90q14 0 21.5 -5t7.5 -21v-269q0 -31 11.5 -50.5t45.5 -19.5q25 0 53 10.5t49 28.5v300q0 15 8.5 20.5t22.5 5.5h90
q14 0 21.5 -5t7.5 -21v-428zM306 726q13 0 19.5 -3t17.5 -12l107 -88q16 -13 2 -29l-32 -36q-8 -9 -16 -9t-20 8l-96 62l-96 -62q-12 -8 -20 -8t-16 9l-32 36q-14 16 2 29l107 88q11 9 17.5 12t19.5 3h36z" />
    <glyph glyph-name="udieresis" unicode="&#xfc;" horiz-adv-x="577" 
d="M517 33q0 -19 -6.5 -26t-24.5 -7h-81q-11 0 -18.5 4.5t-8.5 15.5l-2 22q-70 -55 -160 -55q-82 0 -120 48.5t-38 129.5v296q0 15 8.5 20.5t22.5 5.5h90q14 0 21.5 -5t7.5 -21v-269q0 -31 11.5 -50.5t45.5 -19.5q25 0 53 10.5t49 28.5v300q0 15 8.5 20.5t22.5 5.5h90
q14 0 21.5 -5t7.5 -21v-428zM254 634q0 -32 -22.5 -49.5t-47.5 -17.5q-12 0 -25 4.5t-23 12.5t-16.5 20.5t-6.5 28.5q0 32 22 50t49 18q26 0 48 -17.5t22 -49.5zM463 634q0 -32 -22.5 -49.5t-47.5 -17.5q-12 0 -25 4.5t-23 12.5t-16.5 20.5t-6.5 28.5q0 32 22 50t49 18
q26 0 48 -17.5t22 -49.5z" />
    <glyph glyph-name="dagger" unicode="&#x2020;" horiz-adv-x="509" 
d="M209 0q-11 0 -15 4t-4 17l-4 332l-143 -1q-12 0 -15.5 3.5t-3.5 14.5v83q0 11 4 14.5t12 3.5l146 -1l-3 205q0 12 4.5 16t15.5 4h101q11 0 15.5 -4t4.5 -16l-2 -205l146 1q8 0 12 -3.5t4 -14.5v-83q0 -11 -3.5 -14.5t-15.5 -3.5l-143 1l-3 -332q0 -13 -4 -17t-15 -4h-91z
" />
    <glyph glyph-name="degree" unicode="&#xb0;" horiz-adv-x="278" 
d="M233 615q0 -20 -7.5 -37t-20 -29.5t-30 -20t-36.5 -7.5q-20 0 -37 7.5t-29.5 20t-20 29.5t-7.5 37q0 19 7.5 36.5t20 30t29.5 20t37 7.5q19 0 36.5 -7.5t30 -20t20 -30t7.5 -36.5zM170 615q0 13 -9 22t-22 9t-22 -9t-9 -22t9 -22t22 -9t22 9t9 22z" />
    <glyph glyph-name="cent" unicode="&#xa2;" horiz-adv-x="570" 
d="M315 8q-57 3 -101 23.5t-74 54.5t-45 81t-15 103t16 103t46.5 82t74 56.5t98.5 26.5v69q0 11 13 11h35q13 0 13 -11v-68q27 -2 51 -9.5t46 -18.5q20 -10 23 -18.5t-2 -20.5l-21 -52q-5 -14 -13 -16t-21 4q-17 7 -32 11.5t-31 6.5v-306q34 3 67 16q13 5 21.5 3.5
t13.5 -16.5l18 -48q5 -15 0.5 -23.5t-19.5 -15.5q-45 -21 -101 -27v-67q0 -11 -13 -11h-35q-13 0 -13 11v66zM231 277q0 -68 22.5 -105.5t61.5 -48.5v300q-40 -11 -62 -48t-22 -98z" />
    <glyph glyph-name="sterling" unicode="&#xa3;" horiz-adv-x="570" 
d="M277 244q0 -39 -9.5 -67.5t-35.5 -45.5v-2h277q29 0 29 -27v-74q0 -28 -28 -28h-442q-28 0 -28 29v55q0 27 19 32q38 11 53.5 37t15.5 68v79h-49q-13 0 -16.5 3.5t-3.5 15.5v72q0 13 3.5 16.5t17.5 3.5h48v65q0 50 14 92.5t42.5 74t71.5 49t100 17.5q43 0 85 -9.5
t69 -22.5q25 -11 17 -36l-22 -60q-4 -10 -11 -12.5t-21 2.5q-26 11 -50 18t-50 7q-47 0 -71 -31.5t-24 -81.5v-72h140q15 0 19 -3.5t4 -14.5v-74q0 -13 -4.5 -16t-18.5 -3h-141v-56z" />
    <glyph glyph-name="section" unicode="&#xa7;" horiz-adv-x="461" 
d="M420 354q0 -35 -12.5 -62t-32.5 -46q20 -17 31.5 -42t11.5 -58q0 -43 -17.5 -73.5t-46 -49.5t-64.5 -27.5t-73 -8.5q-40 0 -82.5 10t-84.5 27q-19 8 -12 30l20 63q4 11 10.5 15t20.5 -1q38 -14 71.5 -22.5t60.5 -8.5q24 0 39 9t15 26q0 14 -9.5 23t-37.5 20l-89 33
q-20 7 -38.5 20t-32.5 30.5t-22.5 40t-8.5 49.5q0 34 13 59.5t34 43.5q-20 19 -32.5 45.5t-12.5 59.5q0 40 17.5 68.5t45 46.5t61.5 26.5t67 8.5q39 0 77 -6.5t80 -25.5q17 -8 12 -28l-19 -65q-4 -13 -11 -16t-23 2q-27 10 -53.5 16.5t-49.5 6.5q-27 0 -39.5 -10.5
t-12.5 -21.5q0 -9 6 -18.5t32 -19.5l101 -40q38 -15 64 -46.5t26 -82.5zM287 340q0 14 -13.5 25t-43.5 21l-30 10q-21 -14 -21 -35q0 -14 10.5 -25t36.5 -21l34 -13q11 6 19 16.5t8 21.5z" />
    <glyph glyph-name="bullet" unicode="&#x2022;" horiz-adv-x="500" 
d="M419 269q0 -33 -13.5 -62t-36.5 -50.5t-53.5 -34t-65.5 -12.5t-65.5 12.5t-53.5 34t-36.5 50.5t-13.5 62t13.5 62t36.5 50.5t53.5 34t65.5 12.5t65.5 -12.5t53.5 -34t36.5 -50.5t13.5 -62z" />
    <glyph glyph-name="paragraph" unicode="&#xb6;" horiz-adv-x="556" 
d="M486 -118q0 -23 -20 -23h-41q-20 0 -20 24v685h-75v-679q0 -15 -5.5 -22.5t-20.5 -7.5h-99q-14 0 -19.5 5.5t-5.5 23.5v446q-33 6 -61 22t-49 39.5t-33 53t-12 63.5q0 39 15.5 72.5t41.5 57.5t61 38t73 14h240q17 0 23.5 -6t6.5 -23v-783z" />
    <glyph glyph-name="germandbls" unicode="&#xdf;" horiz-adv-x="628" 
d="M598 213q0 -62 -21.5 -104t-58.5 -67.5t-85.5 -36.5t-102.5 -11q-9 0 -19.5 0.5t-19.5 1.5q-16 2 -20 9t-4 27v55q0 17 4 22.5t15 5.5q6 0 15 -0.5t23 -0.5q57 0 90.5 26t33.5 74q0 58 -36.5 81.5t-98.5 23.5h-25q-14 0 -17.5 2.5t-3.5 13.5v75q0 11 3 14.5t13 3.5h12
q56 0 77.5 26t21.5 73q0 38 -22.5 63t-68.5 25q-17 0 -32 -5t-27 -16t-19 -30.5t-7 -47.5v-577q0 -16 -6 -24t-23 -8h-93q-28 0 -28 30v571q0 119 63.5 172.5t174.5 53.5q43 0 85.5 -8.5t76.5 -30t55 -57.5t21 -91q0 -26 -7 -51t-20.5 -46.5t-33.5 -37t-47 -22.5v-1
q35 -4 64.5 -17.5t51.5 -36t34 -53.5t12 -69z" />
    <glyph glyph-name="registered" unicode="&#xae;" horiz-adv-x="830" 
d="M780 348q0 -75 -29 -140.5t-79 -114.5t-116 -77.5t-141 -28.5q-79 0 -146 28.5t-115.5 77.5t-76 114.5t-27.5 140.5t28 140.5t77 114.5t116 77.5t144 28.5q75 0 141 -28.5t116 -77.5t79 -114.5t29 -140.5zM669 348q0 55 -19 103t-53 84t-80.5 56.5t-101.5 20.5
t-101.5 -20.5t-80.5 -56.5t-53 -84t-19 -103t19 -103t53 -84t80.5 -56.5t101.5 -20.5t101.5 20.5t80.5 56.5t53 84t19 103zM571 191q5 -8 3 -13t-10 -5h-59q-8 0 -13.5 2t-10.5 9l-69 106h-28v-101q0 -16 -15 -16h-52q-16 0 -16 16v316q0 11 3.5 15t14.5 4q19 1 38 1.5
t38 0.5q32 0 67.5 -7.5t58.5 -33.5q27 -32 27 -75q0 -34 -14.5 -60.5t-44.5 -42.5zM464 408q0 29 -18 41t-44 12h-18v-108h24q56 0 56 55z" />
    <glyph glyph-name="copyright" unicode="&#xa9;" horiz-adv-x="830" 
d="M780 348q0 -75 -29 -140.5t-79 -114.5t-116 -77.5t-141 -28.5q-79 0 -146 28.5t-115.5 77.5t-76 114.5t-27.5 140.5t28 140.5t77 114.5t116 77.5t144 28.5q75 0 141 -28.5t116 -77.5t79 -114.5t29 -140.5zM669 348q0 55 -19 103t-53 84t-80.5 56.5t-101.5 20.5
t-101.5 -20.5t-80.5 -56.5t-53 -84t-19 -103t19 -103t53 -84t80.5 -56.5t101.5 -20.5t101.5 20.5t80.5 56.5t53 84t19 103zM525 510q13 -6 9 -19l-14 -42q-4 -13 -17 -7q-20 10 -37.5 13.5t-34.5 3.5q-35 0 -58 -28.5t-23 -81.5q0 -59 24.5 -85.5t60.5 -26.5q35 0 67 14
q15 7 19 -7l12 -37q5 -17 -8 -22q-26 -10 -49.5 -14.5t-52.5 -4.5q-81 0 -121.5 50t-40.5 131q0 41 12 75t34 58t53 37.5t69 13.5q27 0 50.5 -5.5t45.5 -15.5z" />
    <glyph glyph-name="trademark" unicode="&#x2122;" horiz-adv-x="662" 
d="M615 417q1 -12 -3.5 -16.5t-14.5 -4.5h-45q-13 0 -17 6.5t-4 17.5l-3 109l-48 -119q-4 -9 -10 -11.5t-11 -2.5h-16q-19 0 -25 14l-57 122l-2 -116q0 -13 -6.5 -16.5t-14.5 -3.5h-38q-23 0 -21 21l15 257q1 20 20 20h31q10 0 14.5 -3t9.5 -12l82 -172l74 172q3 7 7.5 11
t15.5 4h31q17 0 19 -17zM260 694q20 0 17 -18l-4 -32q-2 -11 -7.5 -14t-13.5 -3h-56v-213q0 -18 -17 -18h-53q-17 0 -17 17v214h-63q-18 0 -18 19v31q0 17 18 17h214z" />
    <glyph glyph-name="acute" unicode="&#xb4;" horiz-adv-x="360" 
d="M206 723q13 10 21.5 9.5t18.5 -13.5l41 -56q8 -11 6 -18t-12 -13l-142 -83q-16 -9 -23.5 -9t-16.5 13l-28 39q-6 9 -5 16t14 17z" />
    <glyph glyph-name="dieresis" unicode="&#xa8;" horiz-adv-x="360" 
d="M146 634q0 -32 -22.5 -49.5t-47.5 -17.5q-12 0 -25 4.5t-23 12.5t-16.5 20.5t-6.5 28.5q0 32 22 50t49 18q26 0 48 -17.5t22 -49.5zM355 634q0 -32 -22.5 -49.5t-47.5 -17.5q-12 0 -25 4.5t-23 12.5t-16.5 20.5t-6.5 28.5q0 32 22 50t49 18q26 0 48 -17.5t22 -49.5z" />
    <glyph glyph-name="notequal" unicode="&#x2260;" horiz-adv-x="545" 
d="M505 117q0 -16 -6 -23.5t-23 -7.5h-264l-37 -59q-8 -13 -16 -14.5t-25 8.5l-24 14q-15 9 -17 16.5t6 21.5l8 13h-41q-15 0 -20.5 8.5t-5.5 22.5v71q0 14 5 21.5t21 7.5h124l56 88h-180q-15 0 -20.5 8.5t-5.5 22.5v71q0 14 5 21.5t21 7.5h263l35 55q9 14 17.5 16t22.5 -6
l24 -14q17 -10 18.5 -18.5t-6.5 -22.5l-7 -10h43q29 0 29 -29v-71q0 -16 -6 -23.5t-23 -7.5h-125l-56 -88h181q29 0 29 -29v-71z" />
    <glyph glyph-name="AE" unicode="&#xc6;" horiz-adv-x="960" 
d="M918 28q0 -28 -28 -28h-388q-17 0 -25 6t-8 25v113h-221l-70 -120q-7 -11 -12.5 -17.5t-19.5 -6.5h-114q-14 0 -18 8t4 20l383 641q8 13 16 19t22 6h454q28 0 25 -23l-9 -81q-2 -16 -11.5 -20.5t-27.5 -4.5h-242v-149h227q17 0 23.5 -7.5t6.5 -19.5v-73q0 -29 -29 -29
h-228v-158h261q29 0 29 -27v-74zM469 264v271l-156 -271h156z" />
    <glyph glyph-name="Oslash" unicode="&#xd8;" horiz-adv-x="716" 
d="M681 351q0 -84 -23.5 -151.5t-66 -115t-101.5 -72.5t-129 -25q-55 0 -100.5 13.5t-82.5 39.5l-51 -67q-14 -18 -22 -18q-7 0 -23 12l-33 25q-14 11 -14 20q0 8 11 22l61 81q-60 92 -60 230q0 80 22 147t63.5 115t100.5 75t134 27q47 0 86.5 -10t72.5 -29l55 73
q7 10 15 10q7 0 13 -5l45 -34q14 -10 14 -19q0 -8 -8 -17l-56 -74q38 -48 57.5 -113t19.5 -140zM439 554q-32 20 -76 20q-66 0 -106 -56.5t-40 -168.5q0 -44 6 -80zM511 348q0 71 -13 116l-229 -304q35 -38 97 -38q66 0 105.5 54.5t39.5 171.5z" />
    <glyph glyph-name="infinity" unicode="&#x221e;" horiz-adv-x="810" 
d="M40 328q0 79 48 126t134 47q54 0 97.5 -23t85.5 -62q42 39 85.5 62t97.5 23q86 0 134 -47t48 -126q0 -42 -14 -73.5t-38.5 -53.5t-57.5 -33t-72 -11q-57 0 -101 23.5t-82 59.5q-38 -36 -82.5 -59.5t-100.5 -23.5q-39 0 -72 11t-57.5 33t-38.5 53.5t-14 73.5zM235 287
q26 0 47.5 12t40.5 34q-18 18 -40 32t-50 14q-25 0 -38.5 -13.5t-13.5 -32.5q0 -22 16 -34t38 -12zM575 287q22 0 38 12t16 34q0 19 -13.5 32.5t-38.5 13.5q-28 0 -50 -14t-40 -32q19 -22 40.5 -34t47.5 -12z" />
    <glyph glyph-name="plusminus" unicode="&#xb1;" horiz-adv-x="545" 
d="M505 387q0 -16 -6 -23.5t-23 -7.5h-130v-144q0 -15 -8.5 -20.5t-22.5 -5.5h-87q-14 0 -21.5 5t-7.5 21v144h-133q-15 0 -20.5 8.5t-5.5 22.5v71q0 14 5 21.5t21 7.5h133v141q0 29 29 29h87q16 0 23.5 -6t7.5 -23v-141h130q29 0 29 -29v-71zM66 0q-15 0 -20.5 8.5
t-5.5 22.5v71q0 14 5 21.5t21 7.5h410q29 0 29 -29v-71q0 -16 -6 -23.5t-23 -7.5h-410z" />
    <glyph glyph-name="lessequal" unicode="&#x2264;" horiz-adv-x="545" 
d="M476 573q0 -10 -11 -17l-207 -130l202 -129q15 -11 15 -20q0 -6 -5 -14l-48 -78q-9 -15 -19 -15q-8 0 -21 9l-294 196q-8 5 -12.5 11.5t-4.5 19.5v32q0 12 6.5 19t14.5 12l307 194q4 2 8 4.5t9 2.5q8 0 14 -11l42 -73q4 -7 4 -13zM66 0q-15 0 -20.5 8.5t-5.5 22.5v71
q0 14 5 21.5t21 7.5h410q29 0 29 -29v-71q0 -16 -6 -23.5t-23 -7.5h-410z" />
    <glyph glyph-name="greaterequal" unicode="&#x2265;" horiz-adv-x="545" 
d="M69 573q0 6 4 13l42 73q5 11 14 11q5 0 9 -2.5t8 -4.5l307 -194q8 -5 14.5 -12t6.5 -19v-32q0 -13 -4.5 -19.5t-12.5 -11.5l-294 -196q-14 -9 -21 -9q-10 0 -19 15l-48 78q-5 8 -5 14q0 9 15 20l202 129l-207 130q-11 7 -11 17zM69 0q-17 0 -23 7.5t-6 23.5v71
q0 29 29 29h410q16 0 21 -7.5t5 -21.5v-71q0 -14 -5.5 -22.5t-20.5 -8.5h-410z" />
    <glyph glyph-name="yen" unicode="&#xa5;" horiz-adv-x="570" 
d="M566 694q32 0 17 -26l-197 -348h67q15 0 19 -3.5t4 -14.5v-27q0 -14 -4.5 -16.5t-18.5 -2.5h-80v-43h83q15 0 18.5 -3t3.5 -17v-21q0 -17 -4.5 -20t-18.5 -3h-82v-122q0 -27 -27 -27h-105q-27 0 -27 29v120h-87q-15 0 -18 5t-3 19v19q0 14 4 17.5t18 3.5h86v43h-90
q-13 0 -16.5 3.5t-3.5 15.5v25q0 14 3.5 17t17.5 3h72l-202 347q-7 12 -2.5 19.5t18.5 7.5h121q18 0 26 -5t13 -16l129 -249h2l129 249q6 11 13.5 16t24.5 5h97v0z" />
    <glyph glyph-name="mu" unicode="&#xb5;" horiz-adv-x="624" 
d="M371 461q0 15 8.5 20.5t22.5 5.5h90q14 0 21.5 -5t7.5 -21v-303q0 -23 5 -32t15 -9q9 0 15 2q23 8 30 -10l21 -57q9 -22 -11 -33q-44 -25 -96 -25q-42 0 -68 14t-40 36q-17 -20 -46.5 -38.5t-65.5 -18.5q-22 0 -39.5 4.5t-31.5 15.5v-156q0 -16 -7 -23t-30 -7h-74
q-21 0 -28.5 5t-7.5 23v612q0 15 8.5 20.5t22.5 5.5h90q14 0 21.5 -5t7.5 -21v-271q0 -32 18 -51t50 -19q23 0 46 11t45 34v296v0z" />
    <glyph glyph-name="partialdiff" unicode="&#x2202;" horiz-adv-x="570" 
d="M28 230q0 55 16.5 98t46 71.5t69.5 43.5t88 15q27 0 61 -7.5t57 -20.5v6q0 75 -36.5 118.5t-106.5 43.5q-29 0 -52 -8.5t-48 -24.5q-11 -7 -19.5 -3t-13.5 16l-30 67q-5 12 -3.5 22t15.5 18q42 25 79 35t78 10q92 0 151 -34t93.5 -87.5t48 -119t13.5 -129.5
q0 -75 -13.5 -142.5t-45 -119t-83 -81.5t-126.5 -30q-59 0 -103.5 19t-74.5 52t-45.5 77t-15.5 95zM187 228q0 -21 5 -40.5t15.5 -34.5t26.5 -23.5t38 -8.5q51 0 76 40.5t25 129.5q-17 17 -43 28t-52 11t-43.5 -8t-28 -22t-15 -32.5t-4.5 -39.5z" />
    <glyph glyph-name="summation" unicode="&#x2211;" horiz-adv-x="608" 
d="M55 -180q-25 0 -25 25v64q0 11 5.5 21t10.5 15l275 317l-280 304q-6 6 -8.5 12t-2.5 17v74q0 25 27 25h488q25 0 25 -21v-83q-2 -15 -11 -20t-25 -5h-280l189 -207q10 -11 15 -18.5t7.5 -13.5t3 -12.5t0.5 -15.5v-17q0 -19 -3 -33t-20 -35l-221 -264h325q28 0 28 -30v-74
q0 -25 -27 -25h-496z" />
    <glyph glyph-name="product" unicode="&#x220f;" horiz-adv-x="690" 
d="M405 565h-130v-719q0 -17 -4 -21.5t-19 -4.5h-113q-16 0 -19.5 4t-3.5 20v721h-58q-28 0 -28 30v74q0 25 27 25h578q27 0 25 -21l-8 -83q-2 -15 -11 -20t-25 -5h-52v-719q0 -17 -4 -21.5t-19 -4.5h-113q-16 0 -19.5 4t-3.5 20v721z" />
    <glyph glyph-name="pi" unicode="&#x3c0;" horiz-adv-x="687" 
d="M523 374v-172q0 -42 6 -63.5t30 -21.5q11 0 22.5 3t28.5 10q15 6 21 3t9 -11l23 -57q8 -20 -11 -33q-26 -17 -61 -27.5t-71 -10.5q-48 0 -77 14t-44.5 39.5t-20.5 61t-5 77.5v188h-118v-345q0 -29 -28 -29h-94q-28 0 -28 27v347h-62q-18 0 -23 6.5t-5 26.5v54q0 26 23 26
h574q24 0 24 -21v-69q0 -23 -24 -23h-89z" />
    <glyph glyph-name="integral" unicode="&#x222b;" horiz-adv-x="442" 
d="M105 -70q40 0 63.5 20.5t23.5 62.5v7.5t-1 8.5q-5 49 -18.5 105.5t-28.5 115.5t-27.5 117.5t-15.5 112.5q0 6 -0.5 11.5t-0.5 10.5q0 113 62 165.5t173 52.5q15 0 35 -2t41 -6q17 -3 19.5 -11t0.5 -20l-14 -71q-2 -12 -7 -14.5t-19 -0.5q-28 5 -54 5q-86 0 -86 -88v-11
q4 -60 16 -117t26.5 -112.5t28 -110.5t19.5 -111q2 -10 2 -19.5v-18.5q0 -52 -18 -90t-49.5 -63t-74.5 -37t-94 -12q-15 0 -35 2t-41 6q-17 3 -19.5 11t-0.5 20l14 71q2 12 7 14.5t19 0.5q28 -5 54 -5z" />
    <glyph glyph-name="ordfeminine" unicode="&#xaa;" horiz-adv-x="317" 
d="M179 451q-28 1 -39.5 -5.5t-11.5 -19.5q0 -9 6.5 -15t17.5 -6q15 0 27 12v34zM210 341q-22 0 -25 26q-27 -31 -76 -31q-45 0 -68.5 24.5t-23.5 59.5q0 42 34.5 62.5t97.5 20.5h16t14 -1v4q0 14 -8 23t-26 9q-17 0 -33.5 -6t-33.5 -14q-12 -5 -17 -1.5t-9 10.5l-17 34
q-8 17 8 26q26 15 56 22.5t62 7.5t58 -7.5t41 -23.5q14 -14 20.5 -33.5t6.5 -48.5v-142q0 -11 -4 -16t-18 -5h-55z" />
    <glyph glyph-name="ordmasculine" unicode="&#xba;" horiz-adv-x="330" 
d="M315 476q0 -64 -38 -102t-112 -38t-112 38t-38 102t38 102.5t112 38.5t112 -38.5t38 -102.5zM203 476q0 62 -38 62t-38 -62q0 -61 38 -61t38 61z" />
    <glyph glyph-name="Omega" unicode="&#x3a9;" horiz-adv-x="754" 
d="M377 576q-72 0 -113 -57t-41 -169q0 -44 8 -79t21.5 -63t30.5 -49.5t36 -39.5q16 -14 20.5 -22.5t4.5 -24.5v-41q0 -14 -5 -22.5t-20 -8.5h-253q-17 0 -22.5 7.5t-5.5 23.5v57q0 29 28 29h108q-24 17 -46 41.5t-38.5 55.5t-26 67.5t-9.5 78.5q0 79 23 143t65 110
t101.5 71t133.5 25q73 0 133 -25t102 -71t65 -110t23 -143q0 -42 -9.5 -78.5t-26 -67.5t-38.5 -55.5t-46 -41.5h108q28 0 28 -29v-57q0 -16 -5.5 -23.5t-22.5 -7.5h-253q-15 0 -20 8.5t-5 22.5v41q0 16 4.5 24.5t20.5 22.5q19 18 36 39.5t30.5 49.5t21.5 63t8 79
q0 112 -41 169t-113 57z" />
    <glyph glyph-name="ae" unicode="&#xe6;" horiz-adv-x="791" 
d="M767 254q0 -32 -9 -41t-27 -9h-280q9 -48 46 -73t83 -25q33 0 64.5 7t61.5 19q6 3 12 3q12 0 16 -14q1 -6 4.5 -17t6.5 -22.5t5.5 -22t2.5 -16.5q0 -10 -5.5 -14t-13.5 -8q-40 -18 -88.5 -26t-92.5 -8q-57 0 -101 16.5t-75 47.5q-42 -30 -90.5 -47t-107.5 -17
q-34 0 -63 10.5t-50.5 30t-33.5 47t-12 62.5q0 52 26 85.5t63 53.5q43 22 95.5 29.5t100.5 7.5v18q0 10 -4.5 22t-12.5 18q-22 16 -56 16q-31 0 -62 -6t-69 -25q-6 -3 -11 -3q-11 0 -16 14l-19 60q-2 8 -2 10q0 12 20 23q46 23 92.5 32t84.5 9q48 0 87 -15.5t57 -44.5h2
q24 27 66 44t90 17q75 0 123 -37.5t71 -94.5q11 -26 16 -59t5 -57zM620 299q0 16 -4.5 31.5t-14 28t-24 20t-34.5 7.5q-38 0 -61.5 -26t-28.5 -61h167zM321 134q-6 12 -10.5 32t-4.5 34v12q-29 0 -54.5 -3.5t-43.5 -10.5q-16 -6 -26.5 -19t-10.5 -30q0 -20 14 -32.5
t40 -12.5q10 0 23.5 2.5t27.5 7t26 10t19 10.5z" />
    <glyph glyph-name="oslash" unicode="&#xf8;" horiz-adv-x="574" 
d="M541 243q0 -55 -17 -102t-49.5 -81t-80 -53.5t-108.5 -19.5q-82 0 -139 34l-27 -31q-11 -12 -19 -12t-22 12l-26 22q-11 9 -12 17t12 22l28 32q-22 32 -32.5 73t-10.5 89q0 55 17 102t49.5 81t80 53.5t108.5 19.5q40 0 73 -8t59 -22l26 30q8 10 16.5 10t20.5 -11l27 -23
q14 -12 13 -19t-10 -18l-25 -28q24 -33 36 -76t12 -93zM339 375q-21 13 -48 13q-28 0 -47.5 -12t-32 -31.5t-18 -45.5t-5.5 -53q0 -20 3 -39zM391 244q0 12 -1 24.5t-3 23.5l-154 -174q23 -18 55 -18q28 0 47.5 12t32 32.5t18 46.5t5.5 53z" />
    <glyph glyph-name="questiondown" unicode="&#xbf;" horiz-adv-x="455" 
d="M30 -43q0 43 20 79t50 66l74 74q12 12 19.5 21t12.5 18.5t7 21t2 28.5q0 7 -1 17.5t-1 20.5q0 13 13 13h82q20 0 26 -18q3 -9 6 -28t3 -38q0 -38 -12 -63.5t-40 -51.5l-74 -70q-18 -17 -31.5 -36.5t-13.5 -41.5q0 -37 25 -54t60 -17q23 0 54 9t55 24q19 12 26 -6l25 -67
q4 -11 2.5 -18t-12.5 -13q-40 -23 -86.5 -35.5t-92.5 -12.5q-39 0 -75 12t-63.5 35t-43.5 56t-16 75zM196 430q0 17 7 30t17.5 22t24 14t26.5 5q27 0 51.5 -18t24.5 -52q0 -35 -23.5 -54t-52.5 -19t-52 19t-23 53z" />
    <glyph glyph-name="exclamdown" unicode="&#xa1;" horiz-adv-x="259" 
d="M200 -131q0 -12 -5.5 -15.5t-14.5 -3.5h-99q-12 0 -15.5 4.5t-3.5 14.5l13 480q0 11 4 17t18 6h70q12 0 16 -5t4 -16zM205 486q0 -34 -23 -53t-52 -19t-52.5 19t-23.5 54q0 34 24.5 52t51.5 18q13 0 26.5 -5t24 -14t17.5 -22t7 -30z" />
    <glyph glyph-name="logicalnot" unicode="&#xac;" horiz-adv-x="545" 
d="M505 112q0 -15 -8.5 -20.5t-22.5 -5.5h-71q-14 0 -21.5 5t-7.5 21v193h-308q-15 0 -20.5 8.5t-5.5 22.5v71q0 14 5 21.5t21 7.5h410q29 0 29 -29v-295z" />
    <glyph glyph-name="radical" unicode="&#x221a;" horiz-adv-x="655" 
d="M10 458q0 29 29 29h168q26 0 33 -25l83 -275l169 497q5 15 12.5 20t24.5 5h82q16 0 21 -8t0 -21l-252 -659q-5 -14 -12.5 -17.5t-21.5 -3.5h-59q-13 0 -21.5 3.5t-13.5 16.5l-141 349h-72q-17 0 -23 7.5t-6 23.5v58z" />
    <glyph glyph-name="florin" unicode="&#x192;" horiz-adv-x="570" 
d="M365 382h90q15 0 18.5 -3t3.5 -17v-32q0 -17 -4.5 -20t-18.5 -3h-103l-56 -289q-9 -48 -26.5 -87.5t-45 -67.5t-66.5 -43.5t-91 -15.5q-26 0 -58 6.5t-55 17.5q-11 6 -12 14t3 18l24 65q5 12 11 17t20 0q22 -8 37 -10.5t29 -2.5q64 0 83 104l52 274h-80q-15 0 -18 5
t-3 19v30q0 14 4 17.5t18 3.5h93l22 113q9 48 26.5 87.5t45 67.5t66.5 43.5t91 15.5q26 0 58 -6.5t55 -17.5q11 -6 12 -14t-3 -18l-24 -65q-5 -12 -11 -17t-20 0q-22 8 -37 10.5t-29 2.5q-33 0 -52 -25t-30 -79z" />
    <glyph glyph-name="approxequal" unicode="&#x2248;" horiz-adv-x="545" 
d="M504 382q-24 -49 -62.5 -75.5t-82.5 -26.5q-31 0 -54.5 12t-43 26t-37.5 26t-37 12q-23 0 -38.5 -12.5t-36.5 -38.5q-14 -19 -35 -1l-31 30q-11 9 -11.5 17.5t6.5 22.5q26 49 64 75.5t81 26.5q31 0 55 -12t43.5 -26.5t37 -26.5t36.5 -12q23 0 38.5 13t36.5 39q14 17 35 1
l31 -29q11 -11 11.5 -19.5t-6.5 -21.5zM504 159q-24 -49 -62.5 -75.5t-82.5 -26.5q-31 0 -54.5 12t-43 26.5t-37.5 26.5t-37 12q-23 0 -38.5 -12.5t-36.5 -38.5q-14 -19 -35 -2l-31 30q-11 10 -11.5 18.5t6.5 21.5q26 50 64 76.5t81 26.5q31 0 55 -12t43.5 -26.5t37 -26.5
t36.5 -12q23 0 38.5 12.5t36.5 38.5q14 19 35 1l31 -29q11 -10 11.5 -18.5t-6.5 -22.5z" />
    <glyph glyph-name="Delta" unicode="&#x2206;" horiz-adv-x="631" 
d="M232 669q8 25 34 25h103q28 0 36 -22l183 -508q8 -22 14 -43.5t6 -37.5v-57q0 -16 -7.5 -21t-21.5 -5h-525q-14 0 -21.5 5t-7.5 21v57q0 16 7 37.5t15 43.5zM438 126l-122 401h-3l-130 -401h255z" />
    <glyph glyph-name="guillemotleft" unicode="&#xab;" horiz-adv-x="459" 
d="M27 230q0 9 8 19l111 138q11 14 19 14q4 0 11 -4l49 -28q15 -8 15 -17q0 -6 -4 -11l-79 -111l79 -111q4 -5 4 -11q0 -10 -15 -17l-49 -28q-7 -4 -11 -4q-8 0 -19 14l-111 138q-8 10 -8 19zM216 230q0 9 8 19l111 138q11 14 19 14q4 0 11 -4l49 -28q15 -8 15 -17
q0 -6 -4 -11l-79 -111l79 -111q4 -5 4 -11q0 -10 -15 -17l-49 -28q-7 -4 -11 -4q-8 0 -19 14l-111 138q-8 10 -8 19z" />
    <glyph glyph-name="guillemotright" unicode="&#xbb;" horiz-adv-x="459" 
d="M432 230q0 -9 -8 -19l-111 -138q-11 -14 -19 -14q-4 0 -11 4l-49 28q-15 7 -15 17q0 6 4 11l79 111l-79 111q-4 5 -4 11q0 9 15 17l49 28q7 4 11 4q8 0 19 -14l111 -138q8 -10 8 -19zM243 230q0 -9 -8 -19l-111 -138q-11 -14 -19 -14q-4 0 -11 4l-49 28q-15 7 -15 17
q0 6 4 11l79 111l-79 111q-4 5 -4 11q0 9 15 17l49 28q7 4 11 4q8 0 19 -14l111 -138q8 -10 8 -19z" />
    <glyph glyph-name="ellipsis" unicode="&#x2026;" horiz-adv-x="693" 
d="M201 63q0 -18 -7 -32t-18.5 -24t-26 -15t-28.5 -5t-28.5 5t-26 14.5t-19 23.5t-7.5 32q0 37 25 57t56 20q30 0 55 -20t25 -56zM432 63q0 -18 -7 -32t-18.5 -24t-26 -15t-28.5 -5t-28.5 5t-26 14.5t-19 23.5t-7.5 32q0 37 25 57t56 20q30 0 55 -20t25 -56zM663 63
q0 -18 -7 -32t-18.5 -24t-26 -15t-28.5 -5t-28.5 5t-26 14.5t-19 23.5t-7.5 32q0 37 25 57t56 20q30 0 55 -20t25 -56z" />
    <glyph glyph-name="nonbreakingspace" unicode="&#xa0;" horiz-adv-x="246" 
 />
    <glyph glyph-name="Agrave" unicode="&#xc0;" horiz-adv-x="671" 
d="M246 669q5 11 12.5 18t21.5 7h106q14 0 21.5 -7t12.5 -18l242 -634q5 -14 1.5 -24.5t-19.5 -10.5h-112q-18 0 -26 7.5t-13 20.5l-40 116h-247l-40 -120q-3 -10 -9.5 -17t-20.5 -7h-107q-16 0 -19.5 10.5t1.5 24.5zM410 264l-63 197l-18 58h-2l-18 -59l-63 -196h164z
M435 825q13 -10 14 -17t-5 -16l-28 -39q-9 -13 -16.5 -13t-23.5 9l-142 83q-10 6 -12 13t6 18l41 56q10 13 18.5 13.5t21.5 -9.5z" />
    <glyph glyph-name="Atilde" unicode="&#xc3;" horiz-adv-x="671" 
d="M246 669q5 11 12.5 18t21.5 7h106q14 0 21.5 -7t12.5 -18l242 -634q5 -14 1.5 -24.5t-19.5 -10.5h-112q-18 0 -26 7.5t-13 20.5l-40 116h-247l-40 -120q-3 -10 -9.5 -17t-20.5 -7h-107q-16 0 -19.5 10.5t1.5 24.5zM410 264l-63 197l-18 58h-2l-18 -59l-63 -196h164z
M276 806q-14 0 -28 -6t-31 -16q-13 -8 -19.5 -6.5t-11.5 10.5l-22 45q-5 9 -4.5 15.5t8.5 13.5q23 18 51.5 32.5t56.5 14.5q19 0 34 -5t28 -11.5t24.5 -11.5t24.5 -5q14 0 28 6t31 16q13 8 19.5 6.5t11.5 -10.5l22 -45q5 -9 4.5 -15.5t-8.5 -13.5q-23 -18 -51.5 -32.5
t-56.5 -14.5q-20 0 -35 5t-27.5 11.5t-24 11.5t-24.5 5z" />
    <glyph glyph-name="Otilde" unicode="&#xd5;" horiz-adv-x="710" 
d="M672 351q0 -84 -23.5 -151.5t-66 -115t-101.5 -72.5t-129 -25q-75 0 -133.5 25.5t-98.5 72.5t-61 113t-21 147q0 80 22 147t63.5 115t100.5 75t134 27q78 0 137 -27.5t98.5 -75.5t59 -113.5t19.5 -141.5zM502 348q0 121 -38 173.5t-110 52.5q-66 0 -106 -56.5t-40 -168.5
q0 -119 38.5 -173t110.5 -54q66 0 105.5 54.5t39.5 171.5zM296 806q-14 0 -28 -6t-31 -16q-13 -8 -19.5 -6.5t-11.5 10.5l-22 45q-5 9 -4.5 15.5t8.5 13.5q23 18 51.5 32.5t56.5 14.5q19 0 34 -5t28 -11.5t24.5 -11.5t24.5 -5q14 0 28 6t31 16q13 8 19.5 6.5t11.5 -10.5
l22 -45q5 -9 4.5 -15.5t-8.5 -13.5q-23 -18 -51.5 -32.5t-56.5 -14.5q-20 0 -35 5t-27.5 11.5t-24 11.5t-24.5 5z" />
    <glyph glyph-name="OE" unicode="&#x152;" horiz-adv-x="996" 
d="M954 28q0 -28 -28 -28h-388q-32 0 -33 31q-12 -9 -29.5 -17t-38.5 -14t-43.5 -9.5t-44.5 -3.5q-75 0 -133 25.5t-97 72.5t-59 113t-20 147q0 80 22 147t63.5 115t100.5 75t134 27q44 0 80.5 -10.5t65.5 -27.5q2 9 8 16t17 7h398q28 0 25 -23l-9 -81q-2 -16 -11.5 -20.5
t-27.5 -4.5h-242v-149h227q17 0 23.5 -7.5t6.5 -19.5v-73q0 -29 -29 -29h-228v-158h261q29 0 29 -27v-74zM504 545q-24 12 -59 20.5t-77 8.5q-34 0 -63 -14t-50 -41.5t-33 -70t-12 -99.5q0 -119 39.5 -173.5t111.5 -54.5q37 0 76.5 9.5t66.5 24.5v390z" />
    <glyph glyph-name="oe" unicode="&#x153;" horiz-adv-x="859" 
d="M835 233q0 -18 -8.5 -23.5t-27.5 -5.5h-279q9 -48 46 -73t83 -25q33 0 64 7t61 19q6 3 13 3q12 0 16 -14q1 -6 4 -17t6 -22.5t5.5 -22t2.5 -16.5q0 -10 -5.5 -14t-13.5 -8q-40 -18 -88.5 -26t-92.5 -8q-57 0 -100 18t-73 49q-29 -30 -71 -48.5t-99 -18.5q-63 0 -110 19.5
t-77.5 54t-45.5 81.5t-15 103q0 55 17 102t49.5 81t80 53.5t108.5 19.5q58 0 99 -17.5t68 -46.5q30 29 72 47t96 18q48 0 88 -17t68 -47q19 -20 30.5 -42.5t18 -47t8.5 -50.5t2 -52v-13zM688 299q0 16 -4.5 31.5t-14.5 28t-24.5 20t-33.5 7.5q-38 0 -61.5 -26t-28.5 -61h167
zM378 244q0 28 -4.5 53t-15.5 44t-29 30.5t-46 11.5t-46.5 -11t-30 -30t-16.5 -44t-5 -52q0 -28 4.5 -53.5t15.5 -45t29 -31t46 -11.5t46.5 11.5t30 30.5t16.5 44.5t5 52.5z" />
    <glyph glyph-name="endash" unicode="&#x2013;" horiz-adv-x="500" 
d="M500 223q0 -16 -6 -23.5t-23 -7.5h-445q-15 0 -20.5 8.5t-5.5 22.5v85q0 14 5 21.5t21 7.5h445q29 0 29 -29v-85z" />
    <glyph glyph-name="emdash" unicode="&#x2014;" horiz-adv-x="1000" 
d="M1000 223q0 -16 -6 -23.5t-23 -7.5h-945q-15 0 -20.5 8.5t-5.5 22.5v85q0 14 5 21.5t21 7.5h945q29 0 29 -29v-85z" />
    <glyph glyph-name="quotedblleft" unicode="&#x201c;" horiz-adv-x="435" 
d="M28 498q0 64 33.5 115.5t83.5 86.5q12 9 20 9t17 -11l13 -15q5 -7 5 -12q0 -6 -8 -14q-16 -16 -31 -37.5t-15 -39.5q0 -12 7 -24t16 -24t16 -25t7 -28q0 -35 -23.5 -56t-56.5 -21q-19 0 -34.5 8t-26.5 21.5t-17 31t-6 35.5zM231 498q0 64 33.5 115.5t83.5 86.5q12 9 20 9
t17 -11l13 -15q5 -7 5 -12q0 -6 -8 -14q-16 -16 -31 -37.5t-15 -39.5q0 -12 7 -24t16 -24t16 -25t7 -28q0 -35 -23.5 -56t-56.5 -21q-19 0 -34.5 8t-26.5 21.5t-17 31t-6 35.5z" />
    <glyph glyph-name="quotedblright" unicode="&#x201d;" horiz-adv-x="435" 
d="M407 613q0 -64 -33.5 -115.5t-83.5 -86.5q-12 -9 -20 -9t-17 11l-13 15q-5 7 -5 12q0 6 8 14q16 16 31 37.5t15 39.5q0 12 -7 23.5t-16 23.5t-16 25.5t-7 28.5q0 35 23.5 56t56.5 21q19 0 34.5 -8.5t26.5 -22t17 -30.5t6 -35zM204 613q0 -64 -33.5 -115.5t-83.5 -86.5
q-12 -9 -20 -9t-17 11l-13 15q-5 7 -5 12q0 6 8 14q16 16 31 37.5t15 39.5q0 12 -7 23.5t-16 23.5t-16 25.5t-7 28.5q0 35 23.5 56t56.5 21q19 0 34.5 -8.5t26.5 -22t17 -30.5t6 -35z" />
    <glyph glyph-name="quoteleft" unicode="&#x2018;" horiz-adv-x="232" 
d="M28 498q0 64 33.5 115.5t83.5 86.5q12 9 20 9t17 -11l13 -15q5 -7 5 -12q0 -6 -8 -14q-16 -16 -31 -37.5t-15 -39.5q0 -12 7 -24t16 -24t16 -25t7 -28q0 -35 -23.5 -56t-56.5 -21q-19 0 -34.5 8t-26.5 21.5t-17 31t-6 35.5z" />
    <glyph glyph-name="quoteright" unicode="&#x2019;" horiz-adv-x="232" 
d="M204 613q0 -64 -33.5 -115.5t-83.5 -86.5q-12 -9 -20 -9t-17 11l-13 15q-5 7 -5 12q0 6 8 14q16 16 31 37.5t15 39.5q0 12 -7 23.5t-16 23.5t-16 25.5t-7 28.5q0 35 23.5 56t56.5 21q19 0 34.5 -8.5t26.5 -22t17 -30.5t6 -35z" />
    <glyph glyph-name="divide" unicode="&#xf7;" horiz-adv-x="545" 
d="M354 437q0 -18 -7 -32t-18.5 -24t-26 -15t-28.5 -5t-28.5 5t-26 14.5t-19 23.5t-7.5 32q0 37 25 57t56 20q30 0 55 -20t25 -56zM505 230q0 -16 -6 -23.5t-23 -7.5h-410q-15 0 -20.5 8.5t-5.5 22.5v71q0 14 5 21.5t21 7.5h410q29 0 29 -29v-71zM354 93q0 -18 -7 -32
t-18.5 -24t-26 -15t-28.5 -5t-28.5 5t-26 14.5t-19 23.5t-7.5 32q0 37 25 57t56 20q30 0 55 -20t25 -56z" />
    <glyph glyph-name="lozenge" unicode="&#x25ca;" horiz-adv-x="570" 
d="M197 346l91 -176l91 176l-89 176zM73 273q-7 14 -11 27t-4 27v24q0 15 4 29.5t12 29.5l154 278q7 13 14 17t21 4h58q14 0 21.5 -4t13.5 -16l140 -263q16 -31 16 -59v-24q0 -14 -3 -25.5t-12 -28.5l-154 -281q-6 -11 -13 -16t-21 -5h-59q-13 0 -21 4t-14 16z" />
    <glyph glyph-name="ydieresis" unicode="&#xff;" horiz-adv-x="537" 
d="M366 458q9 29 37 29h103q13 0 16 -9t-1 -19l-198 -514q-17 -45 -38 -75.5t-48.5 -50t-64 -28t-85.5 -8.5q-17 0 -31 1.5t-29 4.5q-14 3 -16.5 11.5t-0.5 20.5l9 63q2 15 7.5 18.5t12.5 3.5q8 0 19 -1.5t30 -1.5q45 0 67 15t35 48l12 31l-185 460q-5 11 0 20.5t18 9.5h118
q23 0 30 -20l93 -296h3zM234 634q0 -32 -22.5 -49.5t-47.5 -17.5q-12 0 -25 4.5t-23 12.5t-16.5 20.5t-6.5 28.5q0 32 22 50t49 18q26 0 48 -17.5t22 -49.5zM443 634q0 -32 -22.5 -49.5t-47.5 -17.5q-12 0 -25 4.5t-23 12.5t-16.5 20.5t-6.5 28.5q0 32 22 50t49 18
q26 0 48 -17.5t22 -49.5z" />
    <glyph glyph-name="Ydieresis" unicode="&#x178;" horiz-adv-x="627" 
d="M397 297v-270q0 -27 -27 -27h-105q-27 0 -27 29v261l-218 375q-6 11 -1 20t16 9h121q28 0 39 -21l129 -249h2l129 249q6 11 14.5 16t23.5 5h97q11 0 16 -9t-1 -20zM287 834q0 -32 -22.5 -49.5t-47.5 -17.5q-12 0 -25 4.5t-23 12.5t-16.5 20.5t-6.5 28.5q0 32 22 50t49 18
q26 0 48 -17.5t22 -49.5zM496 834q0 -32 -22.5 -49.5t-47.5 -17.5q-12 0 -25 4.5t-23 12.5t-16.5 20.5t-6.5 28.5q0 32 22 50t49 18q26 0 48 -17.5t22 -49.5z" />
    <glyph glyph-name="fraction" unicode="&#x2044;" horiz-adv-x="167" 
d="M364 695q0 -8 -7 -18l-414 -670q-7 -11 -15 -15.5t-22 -4.5h-85q-7 0 -12.5 3t-5.5 10q0 5 4 12l422 673q8 14 16.5 19t25.5 5h72q21 0 21 -14z" />
    <glyph glyph-name="Euro" unicode="&#x20ac;" horiz-adv-x="570" 
d="M272 240q14 -63 45.5 -90t85.5 -27q52 0 106 27q24 12 32 -12l24 -73q5 -14 3 -21.5t-17 -15.5q-39 -20 -82 -30.5t-90 -10.5q-65 0 -113.5 17.5t-83 50.5t-55 80t-29.5 105h-53q-15 0 -18 5t-3 19v23q0 14 4 17.5t18 3.5h43v39h-35q-13 0 -16.5 3.5t-3.5 15.5v29
q0 14 3.5 17t17.5 3h38q8 68 31 122.5t60.5 92.5t89.5 58.5t118 20.5q48 0 89.5 -10.5t75.5 -29.5q14 -8 17.5 -15t-1.5 -19l-35 -75q-7 -16 -15 -17.5t-20 4.5q-23 12 -48 19.5t-51 7.5q-66 0 -98.5 -41.5t-42.5 -117.5h197q14 0 17.5 -4.5t-0.5 -15.5l-11 -28
q-5 -11 -10 -15.5t-19 -4.5h-177v-20t1 -19h167q14 0 17.5 -4.5t-0.5 -15.5l-11 -28q-5 -11 -10 -15.5t-19 -4.5h-133z" />
    <glyph glyph-name="guilsinglleft" unicode="&#x2039;" horiz-adv-x="270" 
d="M27 230q0 9 8 19l111 138q11 14 19 14q4 0 11 -4l49 -28q15 -8 15 -17q0 -6 -4 -11l-79 -111l79 -111q4 -5 4 -11q0 -10 -15 -17l-49 -28q-7 -4 -11 -4q-8 0 -19 14l-111 138q-8 10 -8 19z" />
    <glyph glyph-name="guilsinglright" unicode="&#x203a;" horiz-adv-x="270" 
d="M243 230q0 -9 -8 -19l-111 -138q-11 -14 -19 -14q-4 0 -11 4l-49 28q-15 7 -15 17q0 6 4 11l79 111l-79 111q-4 5 -4 11q0 9 15 17l49 28q7 4 11 4q8 0 19 -14l111 -138q8 -10 8 -19z" />
    <glyph glyph-name="daggerdbl" unicode="&#x2021;" horiz-adv-x="510" 
d="M188 219l-134 -1q-13 0 -16.5 3.5t-3.5 14.5v84q0 11 4 14t12 3l137 -1l-1 83l-142 -1q-13 0 -16.5 3.5t-3.5 14.5v84q0 11 4 14t12 3l146 -1l-3 138q0 11 3.5 16t15.5 5h103q12 0 15.5 -5t3.5 -16l-2 -138l143 1q12 0 16.5 -4.5t4.5 -12.5v-83q0 -13 -5.5 -16t-15.5 -3
l-144 1v-83l135 1q12 0 16 -4.5t4 -12.5v-83q0 -12 -5 -15.5t-15 -3.5l-136 1l-2 -198q0 -13 -3.5 -17t-16.5 -4h-88q-13 0 -16.5 4t-3.5 17z" />
    <glyph glyph-name="periodcentered" unicode="&#xb7;" horiz-adv-x="231" 
d="M201 271q0 -18 -7 -32t-18.5 -24t-26 -15t-28.5 -5t-28.5 5t-26 14.5t-19 23.5t-7.5 32q0 37 25 57t56 20q30 0 55 -20t25 -56z" />
    <glyph glyph-name="quotesinglbase" unicode="&#x201a;" horiz-adv-x="232" 
d="M204 46q0 -64 -33.5 -115.5t-83.5 -86.5q-12 -9 -20 -9t-17 11l-13 15q-5 7 -5 12q0 6 8 14q16 16 31 37.5t15 39.5q0 12 -7 23.5t-16 23.5t-16 25.5t-7 28.5q0 35 23.5 56t56.5 21q19 0 34.5 -8.5t26.5 -22t17 -30.5t6 -35z" />
    <glyph glyph-name="quotedblbase" unicode="&#x201e;" horiz-adv-x="435" 
d="M204 46q0 -64 -33.5 -115.5t-83.5 -86.5q-12 -9 -20 -9t-17 11l-13 15q-5 7 -5 12q0 6 8 14q16 16 31 37.5t15 39.5q0 12 -7 23.5t-16 23.5t-16 25.5t-7 28.5q0 35 23.5 56t56.5 21q19 0 34.5 -8.5t26.5 -22t17 -30.5t6 -35zM407 46q0 -64 -33.5 -115.5t-83.5 -86.5
q-12 -9 -20 -9t-17 11l-13 15q-5 7 -5 12q0 6 8 14q16 16 31 37.5t15 39.5q0 12 -7 23.5t-16 23.5t-16 25.5t-7 28.5q0 35 23.5 56t56.5 21q19 0 34.5 -8.5t26.5 -22t17 -30.5t6 -35z" />
    <glyph glyph-name="perthousand" unicode="&#x2030;" horiz-adv-x="1174" 
d="M695 695q0 -8 -7 -18l-414 -670q-7 -11 -15 -15.5t-22 -4.5h-85q-7 0 -12.5 3t-5.5 10q0 5 4 12l422 673q8 14 16.5 19t25.5 5h72q21 0 21 -14zM804 177q0 -86 -42.5 -134t-114.5 -48t-114.5 48t-42.5 134t42.5 133.5t114.5 47.5t114.5 -47.5t42.5 -133.5zM689 177
q0 55 -12.5 76t-29.5 21t-29.5 -21t-12.5 -76t12.5 -76.5t29.5 -21.5t29.5 21.5t12.5 76.5zM342 518q0 -86 -42.5 -134t-114.5 -48t-114.5 48t-42.5 134t42.5 133.5t114.5 47.5t114.5 -47.5t42.5 -133.5zM227 518q0 55 -12.5 76t-29.5 21t-29.5 -21t-12.5 -76t12.5 -76.5
t29.5 -21.5t29.5 21.5t12.5 76.5zM1146 177q0 -86 -42.5 -134t-114.5 -48t-114.5 48t-42.5 134t42.5 133.5t114.5 47.5t114.5 -47.5t42.5 -133.5zM1031 177q0 55 -12.5 76t-29.5 21t-29.5 -21t-12.5 -76t12.5 -76.5t29.5 -21.5t29.5 21.5t12.5 76.5z" />
    <glyph glyph-name="Acircumflex" unicode="&#xc2;" horiz-adv-x="671" 
d="M246 669q5 11 12.5 18t21.5 7h106q14 0 21.5 -7t12.5 -18l242 -634q5 -14 1.5 -24.5t-19.5 -10.5h-112q-18 0 -26 7.5t-13 20.5l-40 116h-247l-40 -120q-3 -10 -9.5 -17t-20.5 -7h-107q-16 0 -19.5 10.5t1.5 24.5zM410 264l-63 197l-18 58h-2l-18 -59l-63 -196h164z
M353 926q13 0 19.5 -3t17.5 -12l107 -88q16 -13 2 -29l-32 -36q-8 -9 -16 -9t-20 8l-96 62l-96 -62q-12 -8 -20 -8t-16 9l-32 36q-14 16 2 29l107 88q11 9 17.5 12t19.5 3h36z" />
    <glyph glyph-name="Ecircumflex" unicode="&#xca;" horiz-adv-x="561" 
d="M229 416h227q17 0 23.5 -7.5t6.5 -19.5v-73q0 -29 -29 -29h-228v-158h261q29 0 29 -27v-74q0 -28 -28 -28h-388q-17 0 -25 6t-8 25v635q0 28 26 28h398q15 0 20.5 -6.5t4.5 -16.5l-9 -81q-2 -16 -11.5 -20.5t-27.5 -4.5h-242v-149zM315 926q13 0 19.5 -3t17.5 -12
l107 -88q16 -13 2 -29l-32 -36q-8 -9 -16 -9t-20 8l-96 62l-96 -62q-12 -8 -20 -8t-16 9l-32 36q-14 16 2 29l107 88q11 9 17.5 12t19.5 3h36z" />
    <glyph glyph-name="Aacute" unicode="&#xc1;" horiz-adv-x="671" 
d="M246 669q5 11 12.5 18t21.5 7h106q14 0 21.5 -7t12.5 -18l242 -634q5 -14 1.5 -24.5t-19.5 -10.5h-112q-18 0 -26 7.5t-13 20.5l-40 116h-247l-40 -120q-3 -10 -9.5 -17t-20.5 -7h-107q-16 0 -19.5 10.5t1.5 24.5zM410 264l-63 197l-18 58h-2l-18 -59l-63 -196h164z
M359 923q13 10 21.5 9.5t18.5 -13.5l41 -56q8 -11 6 -18t-12 -13l-142 -83q-16 -9 -23.5 -9t-16.5 13l-28 39q-6 9 -5 16t14 17z" />
    <glyph glyph-name="Edieresis" unicode="&#xcb;" horiz-adv-x="561" 
d="M229 416h227q17 0 23.5 -7.5t6.5 -19.5v-73q0 -29 -29 -29h-228v-158h261q29 0 29 -27v-74q0 -28 -28 -28h-388q-17 0 -25 6t-8 25v635q0 28 26 28h398q15 0 20.5 -6.5t4.5 -16.5l-9 -81q-2 -16 -11.5 -20.5t-27.5 -4.5h-242v-149zM256 834q0 -32 -22.5 -49.5
t-47.5 -17.5q-12 0 -25 4.5t-23 12.5t-16.5 20.5t-6.5 28.5q0 32 22 50t49 18q26 0 48 -17.5t22 -49.5zM465 834q0 -32 -22.5 -49.5t-47.5 -17.5q-12 0 -25 4.5t-23 12.5t-16.5 20.5t-6.5 28.5q0 32 22 50t49 18q26 0 48 -17.5t22 -49.5z" />
    <glyph glyph-name="Egrave" unicode="&#xc8;" horiz-adv-x="561" 
d="M229 416h227q17 0 23.5 -7.5t6.5 -19.5v-73q0 -29 -29 -29h-228v-158h261q29 0 29 -27v-74q0 -28 -28 -28h-388q-17 0 -25 6t-8 25v635q0 28 26 28h398q15 0 20.5 -6.5t4.5 -16.5l-9 -81q-2 -16 -11.5 -20.5t-27.5 -4.5h-242v-149zM378 825q13 -10 14 -17t-5 -16l-28 -39
q-9 -13 -16.5 -13t-23.5 9l-142 83q-10 6 -12 13t6 18l41 56q10 13 18.5 13.5t21.5 -9.5z" />
    <glyph glyph-name="Iacute" unicode="&#xcd;" horiz-adv-x="427" 
d="M345 102q25 0 25 -26v-54q0 -22 -25 -22h-265q-25 0 -25 22v54q0 26 25 26h53v490h-53q-25 0 -25 26v54q0 22 25 22h265q25 0 25 -22v-54q0 -26 -25 -26h-53v-490h53zM240 923q13 10 21.5 9.5t18.5 -13.5l41 -56q8 -11 6 -18t-12 -13l-142 -83q-16 -9 -23.5 -9t-16.5 13
l-28 39q-6 9 -5 16t14 17z" />
    <glyph glyph-name="Icircumflex" unicode="&#xce;" horiz-adv-x="427" 
d="M345 102q25 0 25 -26v-54q0 -22 -25 -22h-265q-25 0 -25 22v54q0 26 25 26h53v490h-53q-25 0 -25 26v54q0 22 25 22h265q25 0 25 -22v-54q0 -26 -25 -26h-53v-490h53zM231 926q13 0 19.5 -3t17.5 -12l107 -88q16 -13 2 -29l-32 -36q-8 -9 -16 -9t-20 8l-96 62l-96 -62
q-12 -8 -20 -8t-16 9l-32 36q-14 16 2 29l107 88q11 9 17.5 12t19.5 3h36z" />
    <glyph glyph-name="Idieresis" unicode="&#xcf;" horiz-adv-x="427" 
d="M345 102q25 0 25 -26v-54q0 -22 -25 -22h-265q-25 0 -25 22v54q0 26 25 26h53v490h-53q-25 0 -25 26v54q0 22 25 22h265q25 0 25 -22v-54q0 -26 -25 -26h-53v-490h53zM179 834q0 -32 -22.5 -49.5t-47.5 -17.5q-12 0 -25 4.5t-23 12.5t-16.5 20.5t-6.5 28.5q0 32 22 50
t49 18q26 0 48 -17.5t22 -49.5zM388 834q0 -32 -22.5 -49.5t-47.5 -17.5q-12 0 -25 4.5t-23 12.5t-16.5 20.5t-6.5 28.5q0 32 22 50t49 18q26 0 48 -17.5t22 -49.5z" />
    <glyph glyph-name="Igrave" unicode="&#xcc;" horiz-adv-x="427" 
d="M345 102q25 0 25 -26v-54q0 -22 -25 -22h-265q-25 0 -25 22v54q0 26 25 26h53v490h-53q-25 0 -25 26v54q0 22 25 22h265q25 0 25 -22v-54q0 -26 -25 -26h-53v-490h53zM312 825q13 -10 14 -17t-5 -16l-28 -39q-9 -13 -16.5 -13t-23.5 9l-142 83q-10 6 -12 13t6 18l41 56
q10 13 18.5 13.5t21.5 -9.5z" />
    <glyph glyph-name="Oacute" unicode="&#xd3;" horiz-adv-x="710" 
d="M672 351q0 -84 -23.5 -151.5t-66 -115t-101.5 -72.5t-129 -25q-75 0 -133.5 25.5t-98.5 72.5t-61 113t-21 147q0 80 22 147t63.5 115t100.5 75t134 27q78 0 137 -27.5t98.5 -75.5t59 -113.5t19.5 -141.5zM502 348q0 121 -38 173.5t-110 52.5q-66 0 -106 -56.5t-40 -168.5
q0 -119 38.5 -173t110.5 -54q66 0 105.5 54.5t39.5 171.5zM381 923q13 10 21.5 9.5t18.5 -13.5l41 -56q8 -11 6 -18t-12 -13l-142 -83q-16 -9 -23.5 -9t-16.5 13l-28 39q-6 9 -5 16t14 17z" />
    <glyph glyph-name="Ocircumflex" unicode="&#xd4;" horiz-adv-x="710" 
d="M672 351q0 -84 -23.5 -151.5t-66 -115t-101.5 -72.5t-129 -25q-75 0 -133.5 25.5t-98.5 72.5t-61 113t-21 147q0 80 22 147t63.5 115t100.5 75t134 27q78 0 137 -27.5t98.5 -75.5t59 -113.5t19.5 -141.5zM502 348q0 121 -38 173.5t-110 52.5q-66 0 -106 -56.5t-40 -168.5
q0 -119 38.5 -173t110.5 -54q66 0 105.5 54.5t39.5 171.5zM372 926q13 0 19.5 -3t17.5 -12l107 -88q16 -13 2 -29l-32 -36q-8 -9 -16 -9t-20 8l-96 62l-96 -62q-12 -8 -20 -8t-16 9l-32 36q-14 16 2 29l107 88q11 9 17.5 12t19.5 3h36z" />
    <glyph glyph-name="apple" horiz-adv-x="591" 
d="M230 202v65h196v66h-196v195h261v-65h-196v-65h196v-196h-261zM165 594v-529h73v-65h-138v659h391v-65h-326z" />
    <glyph glyph-name="Ograve" unicode="&#xd2;" horiz-adv-x="710" 
d="M672 351q0 -84 -23.5 -151.5t-66 -115t-101.5 -72.5t-129 -25q-75 0 -133.5 25.5t-98.5 72.5t-61 113t-21 147q0 80 22 147t63.5 115t100.5 75t134 27q78 0 137 -27.5t98.5 -75.5t59 -113.5t19.5 -141.5zM502 348q0 121 -38 173.5t-110 52.5q-66 0 -106 -56.5t-40 -168.5
q0 -119 38.5 -173t110.5 -54q66 0 105.5 54.5t39.5 171.5zM456 825q13 -10 14 -17t-5 -16l-28 -39q-9 -13 -16.5 -13t-23.5 9l-142 83q-10 6 -12 13t6 18l41 56q10 13 18.5 13.5t21.5 -9.5z" />
    <glyph glyph-name="Uacute" unicode="&#xda;" horiz-adv-x="738" 
d="M672 312q0 -84 -21 -145.5t-60.5 -101.5t-96.5 -59t-129 -19q-155 0 -227 82t-72 242v357q0 15 8.5 20.5t22.5 5.5h99q14 0 21.5 -5t7.5 -21v-345q0 -59 10 -98t28.5 -62t46 -32.5t62.5 -9.5q33 0 59.5 9.5t44.5 33t28 62t10 96.5v346q0 15 8 20.5t22 5.5h99
q14 0 21.5 -5t7.5 -21v-356zM395 923q13 10 21.5 9.5t18.5 -13.5l41 -56q8 -11 6 -18t-12 -13l-142 -83q-16 -9 -23.5 -9t-16.5 13l-28 39q-6 9 -5 16t14 17z" />
    <glyph glyph-name="Ucircumflex" unicode="&#xdb;" horiz-adv-x="738" 
d="M672 312q0 -84 -21 -145.5t-60.5 -101.5t-96.5 -59t-129 -19q-155 0 -227 82t-72 242v357q0 15 8.5 20.5t22.5 5.5h99q14 0 21.5 -5t7.5 -21v-345q0 -59 10 -98t28.5 -62t46 -32.5t62.5 -9.5q33 0 59.5 9.5t44.5 33t28 62t10 96.5v346q0 15 8 20.5t22 5.5h99
q14 0 21.5 -5t7.5 -21v-356zM387 926q13 0 19.5 -3t17.5 -12l107 -88q16 -13 2 -29l-32 -36q-8 -9 -16 -9t-20 8l-96 62l-96 -62q-12 -8 -20 -8t-16 9l-32 36q-14 16 2 29l107 88q11 9 17.5 12t19.5 3h36z" />
    <glyph glyph-name="Ugrave" unicode="&#xd9;" horiz-adv-x="738" 
d="M672 312q0 -84 -21 -145.5t-60.5 -101.5t-96.5 -59t-129 -19q-155 0 -227 82t-72 242v357q0 15 8.5 20.5t22.5 5.5h99q14 0 21.5 -5t7.5 -21v-345q0 -59 10 -98t28.5 -62t46 -32.5t62.5 -9.5q33 0 59.5 9.5t44.5 33t28 62t10 96.5v346q0 15 8 20.5t22 5.5h99
q14 0 21.5 -5t7.5 -21v-356zM467 825q13 -10 14 -17t-5 -16l-28 -39q-9 -13 -16.5 -13t-23.5 9l-142 83q-10 6 -12 13t6 18l41 56q10 13 18.5 13.5t21.5 -9.5z" />
    <glyph glyph-name="dotlessi" unicode="&#x131;" horiz-adv-x="281" 
d="M217 29q0 -29 -29 -29h-90q-16 0 -23.5 6t-7.5 23v432q0 15 8.5 20.5t22.5 5.5h90q14 0 21.5 -5t7.5 -21v-432z" />
    <glyph glyph-name="circumflex" unicode="&#x2c6;" horiz-adv-x="360" 
d="M198 726q13 0 19.5 -3t17.5 -12l107 -88q16 -13 2 -29l-32 -36q-8 -9 -16 -9t-20 8l-96 62l-96 -62q-12 -8 -20 -8t-16 9l-32 36q-14 16 2 29l107 88q11 9 17.5 12t19.5 3h36z" />
    <glyph glyph-name="tilde" unicode="&#x2dc;" horiz-adv-x="360" 
d="M122 606q-14 0 -28 -6t-31 -16q-13 -8 -19.5 -6.5t-11.5 10.5l-22 45q-5 9 -4.5 15.5t8.5 13.5q23 18 51.5 32.5t56.5 14.5q19 0 34 -5t28 -11.5t24.5 -11.5t24.5 -5q14 0 28 6t31 16q13 8 19.5 6.5t11.5 -10.5l22 -45q5 -9 4.5 -15.5t-8.5 -13.5q-23 -18 -51.5 -32.5
t-56.5 -14.5q-20 0 -35 5t-27.5 11.5t-24 11.5t-24.5 5z" />
    <glyph glyph-name="macron" unicode="&#xaf;" horiz-adv-x="360" 
d="M336 617q0 -16 -6 -23.5t-23 -7.5h-250q-15 0 -20.5 8.5t-5.5 22.5v39q0 14 5 21.5t21 7.5h250q29 0 29 -29v-39z" />
    <glyph glyph-name="breve" unicode="&#x2d8;" horiz-adv-x="360" 
d="M180 563q-75 0 -113.5 35t-47.5 92q-4 24 19 24h65q14 0 20 -3.5t8 -17.5q4 -20 15 -31t34 -11t34 11t15 31q2 14 8 17.5t20 3.5h65q23 0 19 -24q-9 -57 -47.5 -92t-113.5 -35z" />
    <glyph glyph-name="dotaccent" unicode="&#x2d9;" horiz-adv-x="360" 
d="M254 638q0 -16 -6.5 -29t-17 -22t-24 -14t-26.5 -5t-26.5 4.5t-24 13.5t-17.5 21.5t-7 29.5q0 33 23 52t52 19q28 0 51 -18.5t23 -51.5z" />
    <glyph glyph-name="ring" unicode="&#x2da;" horiz-adv-x="360" 
d="M140 648q0 -18 11.5 -30.5t28.5 -12.5t28.5 12.5t11.5 30.5t-11.5 30.5t-28.5 12.5t-28.5 -12.5t-11.5 -30.5zM280 648q0 -21 -8 -39.5t-21.5 -31.5t-32 -20.5t-38.5 -7.5t-38.5 7.5t-32 20.5t-21.5 31.5t-8 39.5t8 39.5t21.5 31.5t32 20.5t38.5 7.5t38.5 -7.5t32 -20.5
t21.5 -31.5t8 -39.5z" />
    </font>
</defs>
</svg>
