<?xml version="1.0" encoding="UTF-8"?>
<svg width="24px" height="24px" viewBox="0 0 24 24" version="1.1" xmlns="http://www.w3.org/2000/svg" xmlns:xlink="http://www.w3.org/1999/xlink">
    <title>icon/password-hide</title>
    <g id="icon/password-hide" stroke="none" stroke-width="1" fill="none" fill-rule="evenodd">
        <path d="M12,5 C5.70574498,5 0,10.3622469 0,12.4482759 C0,14.5343048 5.70574498,19.8965517 12,19.8965517 C18.294255,19.8965517 24,14.5343048 24,12.4482759 C24,10.3622469 18.294255,5 12,5 Z M12,18.7835654 C6.0078468,18.7835654 1.12097151,13.6885242 1.12097151,12.4477196 C1.12097151,11.2069151 6.0077347,6.1118739 12,6.1118739 C17.9922653,6.1118739 22.8790285,11.2069151 22.8790285,12.4477196 C22.8790285,13.6885242 17.9922653,18.7835654 12,18.7835654 Z M12,7.80276768 C9.42086875,7.80276768 7.31904717,9.88857416 7.31904717,12.4480534 C7.31904717,15.0075326 9.42086875,17.0933391 12,17.0933391 C14.5791312,17.0933391 16.6809528,15.0075326 16.6809528,12.4480534 C16.6809528,9.88857416 14.5791312,7.80276768 12,7.80276768 Z M12,15.9807977 C10.0382999,15.9807977 8.44001868,14.3946948 8.44001868,12.4479421 C8.44001868,10.5011894 10.0382999,8.91508656 12,8.91508656 C13.9617001,8.91508656 15.5599813,10.5011894 15.5599813,12.4479421 C15.5599813,14.3946948 13.9617001,15.9807977 12,15.9807977 Z" id="Shape-Copy" stroke="#5F6062" stroke-width="0.25" fill="#5F6062"></path>
        <line x1="4.5" y1="19.5" x2="19.5" y2="4.5" id="Line" stroke="#FFFFFF" stroke-width="3.5" stroke-linecap="round"></line>
        <line x1="4.5" y1="19.5" x2="19.5" y2="4.5" id="Line" stroke="#5F6062" stroke-width="1.5" stroke-linecap="round"></line>
    </g>
</svg>