<?xml version="1.0" encoding="UTF-8"?>
<svg width="32px" height="32px" viewBox="0 0 32 32" version="1.1" xmlns="http://www.w3.org/2000/svg" xmlns:xlink="http://www.w3.org/1999/xlink">
    <title>icon/account/orders</title>
    <g id="icon/account/orders" stroke="none" stroke-width="1" fill="none" fill-rule="evenodd">
        <path d="M16.0171951,6.00302756 C15.9936953,6.0050685 15.9703263,6.00840692 15.9471951,6.01302756 L6.11719507,7.99302756 C5.96568186,8.02446361 5.83068656,8.1097238 5.73719507,8.23302756 L2.12719507,12.9730276 C2.00429909,13.1376238 1.96786818,13.351203 2.02925108,13.5472322 C2.09063398,13.7432615 2.24237144,13.8979193 2.43719507,13.9630276 L5.51719507,14.9530276 L5.51719507,22.6430276 C5.52061761,22.9164897 5.69740736,23.1575666 5.95719507,23.2430276 L15.8771951,26.4430276 C16.0071046,26.4857599 16.1472856,26.4857599 16.2771951,26.4430276 L26.1971951,23.2430276 C26.4569828,23.1575666 26.6337725,22.9164897 26.6371951,22.6430276 L26.6371951,14.9530276 L29.7171951,13.9630276 C29.9120187,13.8979193 30.0637562,13.7432615 30.1251391,13.5472322 C30.186522,13.351203 30.150091,13.1376238 30.0271951,12.9730276 L26.4171951,8.23302756 C26.3237036,8.1097238 26.1887083,8.02446361 26.0371951,7.99302756 L16.2071951,6.01302756 C16.1447136,6.00004362 16.0806729,5.9968766 16.0171951,6.00302756 Z M16.0771951,7.29302756 L23.3871951,8.76302756 L16.0771951,10.4630276 L8.76719507,8.76302756 L16.0771951,7.29302756 Z M6.36719507,9.51302756 L15.2071951,11.5730276 L12.2971951,15.8030276 L3.68719507,13.0330276 L6.36719507,9.51302756 Z M25.7871951,9.51302756 L28.4671951,13.0330276 L19.8571951,15.8030276 L16.9471951,11.5730276 L25.7871951,9.51302756 Z M15.4371951,13.5030276 L15.4371951,24.9630276 L6.79719507,22.1730276 L6.79719507,15.3730276 L12.3571951,17.1630276 C12.6268243,17.2542451 12.9242956,17.1564463 13.0871951,16.9230276 L15.4371951,13.5030276 Z M16.7171951,13.5030276 L19.0671951,16.9230276 C19.2300945,17.1564463 19.5275659,17.2542451 19.7971951,17.1630276 L25.3571951,15.3730276 L25.3571951,22.1730276 L16.7171951,24.9630276 L16.7171951,13.5030276 Z" id="Shape" fill="#5F6062"></path>
    </g>
</svg>