<?xml version="1.0" encoding="UTF-8"?>
<svg width="32px" height="32px" viewBox="0 0 32 32" version="1.1" xmlns="http://www.w3.org/2000/svg" xmlns:xlink="http://www.w3.org/1999/xlink">
    <title>icon/account/dashboard</title>
    <g id="icon/account/dashboard" stroke="none" stroke-width="1" fill="none" fill-rule="evenodd">
        <path d="M13.7082825,14.2332825 C14.5200506,14.2332825 15.1885645,14.8566981 15.2603384,15.6500437 L15.2667175,15.7917175 L15.2667175,24.5417175 C15.2667175,25.3533654 14.6432794,26.0218501 13.8499525,26.0936211 L13.7082825,26.1 L7.45828246,26.1 C6.64665841,26.1 5.97815253,25.4765843 5.90637911,24.6833673 L5.9,24.5417175 L5.9,15.7917175 C5.9,14.9799732 6.52339314,14.3114381 7.31662892,14.2396618 L7.45828246,14.2332825 L13.7082825,14.2332825 Z M24.5417175,19.2332825 C25.3533654,19.2332825 26.0218501,19.8567206 26.0936211,20.6500475 L26.1,20.7917175 L26.1,24.5417175 C26.1,25.3533416 25.4765843,26.0218475 24.6833673,26.0936209 L24.5417175,26.1 L18.2917175,26.1 C17.4799732,26.1 16.8114381,25.4766069 16.7396618,24.6833711 L16.7332825,24.5417175 L16.7332825,20.7917175 C16.7332825,19.9799494 17.3566981,19.3114355 18.1500437,19.2396616 L18.2917175,19.2332825 L24.5417175,19.2332825 Z M13.7082825,15.6832825 L7.45828246,15.6832825 C7.4135206,15.6832825 7.37499265,15.7106338 7.35852629,15.749542 L7.35,15.7917175 L7.35,24.5417175 C7.35,24.5864702 7.3773444,24.6250027 7.41618996,24.641472 L7.45828246,24.65 L13.7082825,24.65 C13.7531403,24.65 13.7917061,24.6226625 13.8081854,24.5838152 L13.8167175,24.5417175 L13.8167175,15.7917175 C13.8167175,15.7318947 13.7681053,15.6832825 13.7082825,15.6832825 Z M24.5417175,20.6832825 L18.2917175,20.6832825 C18.2468504,20.6832825 18.2082893,20.7106269 18.1918129,20.7495368 L18.1832825,20.7917175 L18.1832825,24.5417175 C18.1832825,24.5864794 18.2106338,24.6250074 18.249542,24.6414737 L18.2917175,24.65 L24.5417175,24.65 C24.5864702,24.65 24.6250027,24.6226556 24.641472,24.58381 L24.65,24.5417175 L24.65,20.7917175 C24.65,20.731907 24.6014,20.6832825 24.5417175,20.6832825 Z M24.5417175,5.9 C25.3533416,5.9 26.0218475,6.52341566 26.0936209,7.31663267 L26.1,7.45828246 L26.1,16.2082825 C26.1,17.0200268 25.4766069,17.6885619 24.6833711,17.7603382 L24.5417175,17.7667175 L18.2917175,17.7667175 C17.4799494,17.7667175 16.8114355,17.1433019 16.7396616,16.3499563 L16.7332825,16.2082825 L16.7332825,7.45828246 C16.7332825,6.64663457 17.3567206,5.97814988 18.1500475,5.90637889 L18.2917175,5.9 L24.5417175,5.9 Z M24.5417175,7.35 L18.2917175,7.35 C18.2468597,7.35 18.2082939,7.37733749 18.1918146,7.41618478 L18.1832825,7.45828246 L18.1832825,16.2082825 C18.1832825,16.2531496 18.2106269,16.2917107 18.2495368,16.3081871 L18.2917175,16.3167175 L24.5417175,16.3167175 C24.5864794,16.3167175 24.6250074,16.2893662 24.6414737,16.250458 L24.65,16.2082825 L24.65,7.45828246 C24.65,7.39861226 24.6013877,7.35 24.5417175,7.35 Z M13.7082825,5.9 C14.5200268,5.9 15.1885619,6.52339314 15.2603382,7.31662892 L15.2667175,7.45828246 L15.2667175,11.2082825 C15.2667175,12.0200506 14.6433019,12.6885645 13.8499563,12.7603384 L13.7082825,12.7667175 L7.45828246,12.7667175 C6.64663457,12.7667175 5.97814988,12.1432794 5.90637889,11.3499525 L5.9,11.2082825 L5.9,7.45828246 C5.9,6.64665841 6.52341566,5.97815253 7.31663267,5.90637911 L7.45828246,5.9 L13.7082825,5.9 Z M13.7082825,7.35 L7.45828246,7.35 C7.41352981,7.35 7.37499725,7.3773444 7.35852801,7.41618996 L7.35,7.45828246 L7.35,11.2082825 C7.35,11.2531403 7.37733749,11.2917061 7.41618478,11.3081854 L7.45828246,11.3167175 L13.7082825,11.3167175 C13.7531496,11.3167175 13.7917107,11.2893731 13.8081871,11.2504632 L13.8167175,11.2082825 L13.8167175,7.45828246 C13.8167175,7.39859998 13.768093,7.35 13.7082825,7.35 Z" id="Combined-Shape" fill="#FFFFFF"></path>
    </g>
</svg>
