<?xml version="1.0" encoding="UTF-8"?>
<svg width="32px" height="32px" viewBox="0 0 32 32" version="1.1" xmlns="http://www.w3.org/2000/svg" xmlns:xlink="http://www.w3.org/1999/xlink">
    <title>icon/account/payments</title>
    <g id="icon/account/payments" stroke="none" stroke-width="1" fill="none" fill-rule="evenodd">
        <path d="M26.1142458,8.04036313 C27.2206704,8.04036313 28.122905,8.94259777 28.1181751,10.0490223 L28.1181751,10.0490223 L28.1181751,22.9462291 C28.1181751,24.0526536 27.2159218,24.9548883 26.1094972,24.9548883 L26.1094972,24.9548883 L6.00865922,24.9548883 C4.90223464,24.9548883 4,24.0526536 4,22.9462291 L4,22.9462291 L4,10.0490223 C4,8.94259777 4.90223464,8.04036313 6.00865922,8.04036313 L6.00865922,8.04036313 Z M26.7837989,13.9761173 L5.33910615,13.9761173 L5.33910615,22.9462291 C5.33910615,23.3166201 5.63826816,23.6157821 6.00865922,23.6157821 L6.00865922,23.6157821 L26.1142458,23.6157821 C26.4846369,23.6157821 26.7837989,23.3166201 26.7837989,22.9462291 L26.7837989,22.9462291 L26.7837989,13.9761173 Z M22.9089385,16.5403631 C24.2195531,16.5403631 25.2879888,17.6087989 25.2879888,18.9194134 C25.2879888,20.2300279 24.2195531,21.2984637 22.9089385,21.2984637 C22.3960894,21.2984637 21.9069832,21.1322626 21.503352,20.8378492 C21.0997207,21.1322626 20.6106145,21.2984637 20.0977654,21.2984637 C18.7824022,21.2984637 17.7187151,20.2347765 17.7187151,18.9194134 C17.7187151,17.6087989 18.7871508,16.5403631 20.0977654,16.5403631 C20.6106145,16.5403631 21.0997207,16.7065642 21.503352,17.0009777 C21.9069832,16.7065642 22.3960894,16.5403631 22.9089385,16.5403631 Z M12.2863128,19.9593575 C12.6567039,19.9593575 12.9558659,20.2585196 12.9558659,20.6289106 C12.9558659,20.9993017 12.6567039,21.2984637 12.2863128,21.2984637 L12.2863128,21.2984637 L8.01256983,21.2984637 C7.64217877,21.2984637 7.34301676,20.9993017 7.34301676,20.6289106 C7.34301676,20.2585196 7.64217877,19.9593575 8.01256983,19.9593575 L8.01256983,19.9593575 Z M22.9089385,17.8842179 C22.5670391,17.8842179 22.2488827,18.0551676 22.0541899,18.3353352 C21.9307263,18.5157821 21.7217877,18.625 21.503352,18.625 C21.2849162,18.625 21.0759777,18.5157821 20.952514,18.3353352 C20.7578212,18.050419 20.4396648,17.8842179 20.0977654,17.8842179 C19.5231844,17.8842179 19.0578212,18.349581 19.0578212,18.924162 C19.0578212,19.498743 19.5231844,19.9641061 20.0977654,19.9641061 C20.4396648,19.9641061 20.7578212,19.7931564 20.952514,19.5129888 C21.0759777,19.3325419 21.2849162,19.223324 21.503352,19.223324 C21.7217877,19.223324 21.9307263,19.3325419 22.0541899,19.5129888 C22.2488827,19.797905 22.5670391,19.9641061 22.9089385,19.9641061 C23.4835196,19.9641061 23.9488827,19.498743 23.9488827,18.924162 C23.9488827,18.349581 23.4835196,17.8842179 22.9089385,17.8842179 Z M12.2863128,16.5451117 C12.6567039,16.5451117 12.9558659,16.8442737 12.9558659,17.2146648 C12.9558659,17.5850559 12.6567039,17.8842179 12.2863128,17.8842179 L12.2863128,17.8842179 L8.01256983,17.8842179 C7.64217877,17.8842179 7.34301676,17.5850559 7.34301676,17.2146648 C7.34301676,16.8442737 7.64217877,16.5451117 8.01256983,16.5451117 L8.01256983,16.5451117 Z M26.1094972,9.37946927 L6.00865922,9.37946927 C5.63826816,9.37946927 5.33910615,9.67863128 5.33910615,10.0490223 L5.33910615,10.0490223 L5.33910615,12.6370112 L26.7790503,12.6370112 L26.7790503,10.0490223 C26.7790503,9.67863128 26.4798883,9.37946927 26.1094972,9.37946927 L26.1094972,9.37946927 Z" id="Combined-Shape" fill="#FFFFFF"></path>
    </g>
</svg>
