<?xml version="1.0" encoding="UTF-8"?>
<svg width="32px" height="32px" viewBox="0 0 32 32" version="1.1" xmlns="http://www.w3.org/2000/svg" xmlns:xlink="http://www.w3.org/1999/xlink">
    <title>icon/account/lists</title>
    <g id="icon/account/lists" stroke="none" stroke-width="1" fill="none" fill-rule="evenodd">
        <path d="M23,5 C24.1045695,5 25,5.8954305 25,7 L25,25 C25,26.1045695 24.1045695,27 23,27 L10,27 C8.8954305,27 8,26.1045695 8,25 L8,7 C8,5.8954305 8.8954305,5 10,5 L23,5 Z M23,6.35 L10,6.35 C9.67364992,6.35 9.40347354,6.59050819 9.35704767,6.90394776 L9.35,7 L9.35,25 C9.35,25.3263501 9.59050819,25.5965265 9.90394776,25.6429523 L10,25.65 L23,25.65 C23.3263501,25.65 23.5965265,25.4094918 23.6429523,25.0960522 L23.65,25 L23.65,7 C23.65,6.67364992 23.4094918,6.40347354 23.0960522,6.35704767 L23,6.35 Z M12.4,20 C12.8970563,20 13.3,20.4029437 13.3,20.9 C13.3,21.3970563 12.8970563,21.8 12.4,21.8 C11.9029437,21.8 11.5,21.3970563 11.5,20.9 C11.5,20.4029437 11.9029437,20 12.4,20 Z M21.175,20.24 C21.5477922,20.24 21.85,20.5422078 21.85,20.915 C21.85,21.253902 21.6002415,21.5344698 21.2747466,21.5826813 L21.175,21.59 L15.175,21.59 C14.8022078,21.59 14.5,21.2877922 14.5,20.915 C14.5,20.576098 14.7497585,20.2955302 15.0752534,20.2473187 L15.175,20.24 L21.175,20.24 Z M12.4,15 C12.8970563,15 13.3,15.4029437 13.3,15.9 C13.3,16.3970563 12.8970563,16.8 12.4,16.8 C11.9029437,16.8 11.5,16.3970563 11.5,15.9 C11.5,15.4029437 11.9029437,15 12.4,15 Z M21.175,15.24 C21.5477922,15.24 21.85,15.5422078 21.85,15.915 C21.85,16.253902 21.6002415,16.5344698 21.2747466,16.5826813 L21.175,16.59 L15.175,16.59 C14.8022078,16.59 14.5,16.2877922 14.5,15.915 C14.5,15.576098 14.7497585,15.2955302 15.0752534,15.2473187 L15.175,15.24 L21.175,15.24 Z M12.4,10 C12.8970563,10 13.3,10.4029437 13.3,10.9 C13.3,11.3970563 12.8970563,11.8 12.4,11.8 C11.9029437,11.8 11.5,11.3970563 11.5,10.9 C11.5,10.4029437 11.9029437,10 12.4,10 Z M21.175,10.24 C21.5477922,10.24 21.85,10.5422078 21.85,10.915 C21.85,11.253902 21.6002415,11.5344698 21.2747466,11.5826813 L21.175,11.59 L15.175,11.59 C14.8022078,11.59 14.5,11.2877922 14.5,10.915 C14.5,10.576098 14.7497585,10.2955302 15.0752534,10.2473187 L15.175,10.24 L21.175,10.24 Z" id="Combined-Shape" fill="#FFFFFF"></path>
    </g>
</svg>
