<?xml version="1.0" encoding="UTF-8"?>
<svg width="29px" height="20px" viewBox="0 0 29 20" version="1.1" xmlns="http://www.w3.org/2000/svg" xmlns:xlink="http://www.w3.org/1999/xlink">
    <title>A4E62C6F-DE82-4EBA-A957-9A80CA7A5596</title>
    <g id="Page-1" stroke="none" stroke-width="1" fill="none" fill-rule="evenodd">
        <g id="My-Account---Grants" transform="translate(-137.000000, -522.000000)" fill="#5F6062" fill-rule="nonzero">
            <g id="navigation/account/left-column-grants" transform="translate(135.000000, 192.000000)">
                <g id="Nav-Items" transform="translate(0.000000, 89.000000)">
                    <g id="846008" transform="translate(2.000000, 241.000000)">
                        <path d="M28.4659091,10.8977273 C28.3181818,10.1988636 27.5625,9.63636364 26.1931818,9.22159091 C25.0454545,8.875 23.6022727,8.67045455 22.0113636,8.63636364 L21.8579545,2.17045455 C21.6477273,1.53409091 20.8920455,1.01704545 19.6136364,0.630681818 C18.3352273,0.244318182 16.6704545,0.0340909091 14.9147727,0.0340909091 C13.1647727,0.0340909091 11.5113636,0.244318182 10.2613636,0.630681818 C9.23295455,0.948863636 8,1.53977273 8,2.55681818 C8,2.61931818 8.00568182,2.68181818 8.01704545,2.74431818 L8.07954545,5.33522727 C7.65909091,5.25568182 7.23295455,5.21590909 6.80113636,5.21590909 C3.05113636,5.21590909 0,8.26704545 0,12.0170455 C0,15.7727273 3.03977273,18.8181818 6.79545455,18.8181818 C8.35795455,18.8181818 9.875,18.2784091 11.0852273,17.2954545 C12.1534091,17.5454545 13.4090909,17.6818182 14.7386364,17.6931818 C15.0284091,19.2670455 18.4431818,19.9886364 21.625,19.9886364 C23.375,19.9886364 25.0227273,19.7727273 26.2840909,19.3863636 C27.3238636,19.0681818 28.5454545,18.4715909 28.5454545,17.4545455 L28.4659091,10.8977273 Z M10.5795455,1.72159091 C11.7272727,1.36931818 13.2670455,1.17045455 14.9034091,1.17045455 C16.5227273,1.17045455 18.1193182,1.36931818 19.2784091,1.72159091 C20.5170455,2.09659091 20.7840909,2.48295455 20.7840909,2.5625 C20.7840909,2.64204545 20.5170455,3.02840909 19.2784091,3.40340909 C18.125,3.75 16.5284091,3.95454545 14.9090909,3.95454545 C13.3409091,3.95454545 11.8522727,3.77272727 10.7215909,3.44318182 C9.5,3.09090909 9.15340909,2.69886364 9.125,2.57386364 C9.125,2.56818182 9.11931818,2.5625 9.11363636,2.55681818 C9.11363636,2.4375 9.49431818,2.05681818 10.5795455,1.72159091 Z M20.875,3.96590909 L20.875,5.38636364 C20.8125,5.48295455 20.7840909,5.59090909 20.7840909,5.70454545 C20.7840909,5.77840909 20.5170455,6.17045455 19.2840909,6.54545455 C18.1306818,6.89772727 16.5340909,7.09659091 14.9147727,7.09659091 C13.5113636,7.09659091 12.1363636,6.94886364 11.0454545,6.67045455 C11.0284091,6.66477273 11.0113636,6.66477273 11,6.65909091 C10.4659091,6.23295455 9.86363636,5.89204545 9.22727273,5.65340909 L9.1875,4.05113636 C9.57954545,4.25 9.98863636,4.40909091 10.4147727,4.52272727 C11.6477273,4.88068182 13.2443182,5.07386364 14.9204545,5.07386364 C16.6761364,5.07386364 18.3409091,4.86363636 19.6136364,4.47727273 C20.0454545,4.36363636 20.4715909,4.1875 20.875,3.96590909 Z M10.6079545,16.2045455 C8.29545455,18.3125 4.71022727,18.1420455 2.60795455,15.8295455 C0.505681818,13.5170455 0.670454545,9.93181818 2.98295455,7.82954545 C4.02840909,6.88068182 5.38636364,6.35227273 6.79545455,6.35227273 C7.36363636,6.35227273 7.92613636,6.4375 8.47159091,6.60227273 C9.21022727,6.82954545 9.89772727,7.21022727 10.4829545,7.72159091 C11.4375,8.53409091 12.0909091,9.64772727 12.3465909,10.875 C12.4204545,11.25 12.4602628,11.6363636 12.4602628,12.0170455 C12.4659091,13.6136364 11.7897727,15.1363636 10.6079545,16.2045455 Z M12.0511364,16.3295455 C12.5113636,15.7670455 12.8806818,15.1363636 13.1420455,14.4602273 C13.6306818,14.5 14.1420455,14.5284091 14.6704545,14.5340909 C14.6590909,14.6022727 14.6590909,14.6647727 14.6704545,14.7329545 L14.6931818,16.5625 C13.8125,16.5511364 12.9318182,16.4772727 12.0511364,16.3295455 Z M13.5681818,11.3409091 C13.9034091,11.3636364 14.25,11.375 14.6079545,11.3806818 C14.6136364,11.4204545 14.625,11.4602273 14.6363636,11.5 L14.6590909,13.3920455 C14.25,13.3863636 13.8465909,13.3693182 13.4659091,13.3409091 C13.5511364,12.9034091 13.5965909,12.4545455 13.5965909,12.0113636 C13.5965909,11.7897727 13.5852273,11.5681818 13.5681818,11.3409091 Z M14.9545455,10.25 C14.9375,10.25 14.9261364,10.25 14.9090909,10.25 C14.3579545,10.25 13.8352273,10.2272727 13.3465909,10.1875 C13.1363636,9.43181818 12.7897727,8.71590909 12.3352273,8.07386364 C13.1875,8.18181818 14.0511364,8.23863636 14.9090909,8.23863636 C16.6647727,8.23863636 18.3295455,8.02840909 19.6022727,7.64204545 C20.0454545,7.51704545 20.4659091,7.34090909 20.8693182,7.11931818 L20.8693182,8.63636364 C19.4488636,8.67613636 18.1136364,8.85795455 17.0511364,9.15909091 C16.0511364,9.44318182 15.3522727,9.80681818 14.9545455,10.25 Z M15.7386364,11.0965909 C15.8352273,10.9204545 16.2613636,10.5738636 17.3693182,10.2670455 C18.4829545,9.95454545 19.9318182,9.78409091 21.4545455,9.78409091 L21.5,9.78409091 C23.125,9.78409091 24.7159091,9.97159091 25.8693182,10.3238636 C27.0625,10.6875 27.3522727,11.0511364 27.3693182,11.1477273 L27.3693182,11.1534091 C27.3636364,11.2386364 27.0852273,11.6306818 25.8238636,12.0056818 C24.6590909,12.3522727 23.1193182,12.5397727 21.5,12.5397727 C19.9943182,12.5397727 18.5454545,12.3693182 17.4318182,12.0681818 C16.3636364,11.7784091 15.9034091,11.4431818 15.7670455,11.25 C15.7670455,11.1988636 15.7556818,11.1477273 15.7386364,11.0965909 Z M27.4090909,17.4488636 C27.4090909,17.5284091 27.1590909,17.9204545 25.9488636,18.2954545 C24.7897727,18.6534091 23.2556818,18.8522727 21.6193182,18.8522727 C19.9772727,18.8522727 18.4488636,18.6590909 17.3068182,18.3125 C16.2215909,17.9772727 15.8579545,17.6022727 15.8579545,17.4772727 C15.8579545,17.4715909 15.8579545,17.4715909 15.8579545,17.4659091 L15.8522727,17.1193182 L15.8352273,15.8352273 C16.2897727,16.0568182 16.7613636,16.2272727 17.25,16.3465909 C18.4431818,16.6590909 19.9488636,16.8295455 21.5,16.8295455 C23.2556818,16.8295455 24.9034091,16.6193182 26.1761364,16.2329545 C26.5909091,16.1079545 27.0681818,15.9375 27.4090909,15.7159091 L27.4090909,17.4488636 Z M27.3352273,14.3011364 C27.3352273,14.3806818 27.0738636,14.7670455 25.8522727,15.1420455 C24.6875,15.4943182 23.1420455,15.6875 21.4943182,15.6875 C18.4034091,15.6875 16.3011364,15 15.8125,14.4545455 L15.7897727,12.6590909 C17.1306818,13.3579545 19.3863636,13.6761364 21.5,13.6761364 C23.2272727,13.6761364 24.8693182,13.4715909 26.1363636,13.0965909 C26.5795455,12.9715909 27.0056818,12.8011364 27.4147727,12.5795455 L27.4147727,14 L27.4147727,14 C27.4090909,14.0852273 27.3352273,14.1875 27.3352273,14.3011364 Z" id="Shape"></path>
                        <path d="M6.80113636,8.26136364 C4.72727273,8.26136364 3.05113636,9.94318182 3.05113636,12.0113636 C3.05113636,14.0795455 4.73295455,15.7613636 6.80113636,15.7613636 C8.86931818,15.7613636 10.5511364,14.0795455 10.5511364,12.0113636 C10.5454545,9.94318182 8.86931818,8.26704545 6.80113636,8.26136364 Z M6.80113636,14.6306818 C5.35795455,14.6306818 4.1875,13.4602273 4.1875,12.0170455 C4.1875,10.5738636 5.35795455,9.40340909 6.80113636,9.40340909 C8.24431818,9.40340909 9.41477273,10.5738636 9.41477273,12.0170455 C9.41477273,13.4602273 8.24431818,14.6306818 6.80113636,14.6306818 Z" id="Shape"></path>
                    </g>
                </g>
            </g>
        </g>
    </g>
</svg>