<?xml version="1.0" encoding="UTF-8"?>
<svg width="32px" height="32px" viewBox="0 0 32 32" version="1.1" xmlns="http://www.w3.org/2000/svg" xmlns:xlink="http://www.w3.org/1999/xlink">
    <title>icon/account/settings</title>
    <g id="icon/account/settings" stroke="none" stroke-width="1" fill="none" fill-rule="evenodd">
        <path d="M17.3849688,5 C17.7749102,5 18.1081328,5.28153125 18.1728438,5.66588672 L18.1728438,5.66588672 L18.4314727,7.19789453 C19.148707,7.39499219 19.8457461,7.68021875 20.4884297,8.03952344 L20.4884297,8.03952344 L21.7663633,7.12115234 C22.0838594,6.89290234 22.5209375,6.92809375 22.7976563,7.20507031 L22.7976563,7.20507031 L24.768332,9.17600391 C25.0429453,9.45061719 25.0805,9.88288281 24.8570195,10.2006367 L24.8570195,10.2006367 L23.9546328,11.4841562 C24.3232188,12.1489258 24.6066406,12.8379727 24.8015898,13.5421875 L24.8015898,13.5421875 L26.3338555,13.8008164 C26.7184688,13.8655273 26.999957,14.1984492 26.999957,14.5884766 L26.999957,14.5884766 L26.999957,17.358457 C26.999957,17.7491719 26.7173516,18.0823516 26.3322227,18.1465469 L26.3322227,18.1465469 L24.7749063,18.40625 C24.5775078,19.124043 24.2917227,19.8218555 23.9316445,20.4653555 L23.9316445,20.4653555 L24.8556016,21.7709609 C25.0804141,22.0884141 25.043375,22.5220547 24.7682461,22.7974414 L24.7682461,22.7974414 L22.7975703,24.7681172 C22.5232148,25.0429883 22.0909492,25.0799844 21.7729375,24.8568047 L21.7729375,24.8568047 L20.4896758,23.954418 C19.8246055,24.3230039 19.1358594,24.6064258 18.4316445,24.801375 L18.4316445,24.801375 L18.1727578,26.3336406 C18.1080469,26.7185117 17.7748672,27.000043 17.3849258,27.000043 L17.3849258,27.000043 L14.6149453,27.000043 C14.2250469,27.000043 13.892082,26.7185117 13.8271133,26.3341992 L13.8271133,26.3341992 L13.5684844,24.8021914 C12.8491016,24.6045352 12.1504727,24.3182344 11.506457,23.9575977 L11.506457,23.9575977 L10.2271914,24.8570195 C9.9094375,25.0801992 9.47717188,25.0429453 9.20255859,24.768332 L9.20255859,24.768332 L7.231625,22.7976562 C6.95701172,22.5233008 6.91945703,22.0910352 7.1429375,21.7730234 L7.1429375,21.7730234 L8.04532422,20.4897617 C7.67673828,19.8246914 7.39305859,19.1356875 7.19836719,18.4317305 L7.19836719,18.4317305 L5.66584375,18.1728437 C5.28153125,18.1081328 5,17.7749531 5,17.3850117 L5,17.3850117 L5,14.6150312 C5,14.2250898 5.28153125,13.892168 5.66584375,13.8271992 L5.66584375,13.8271992 L7.19785156,13.5685703 C7.39550781,12.8494453 7.68155078,12.1505586 8.04244531,11.506543 L8.04244531,11.506543 L7.14302344,10.2272773 C6.91954297,9.90952344 6.95709766,9.47725781 7.23171094,9.20264453 L7.23171094,9.20264453 L9.20260156,7.231625 C9.47695703,6.95701172 9.90973828,6.92001562 10.2272344,7.1429375 L10.2272344,7.1429375 L11.5104961,8.04532422 C12.1755664,7.67673828 12.8643125,7.39305859 13.5685273,7.19836719 L13.5685273,7.19836719 L13.8271563,5.66584375 C13.892125,5.28153125 14.2250469,5 14.6149883,5 L14.6149883,5 Z M16.7095859,6.59805078 L15.2905,6.59805078 L15.0566641,7.98301953 C15.0020508,8.30691797 14.7548945,8.56421484 14.4334023,8.63184766 C13.5608359,8.815625 12.7069609,9.16560547 11.895668,9.67272266 C11.6234609,9.84292187 11.2753711,9.83359766 11.0127461,9.64874609 L11.0127461,9.64874609 L9.857875,8.83667969 L8.83698047,9.85757422 L9.64904688,11.0124453 C9.83626172,11.2788086 9.84317969,11.6317109 9.66687891,11.90525 C9.17866797,12.6616289 8.82099609,13.536043 8.63214844,14.4331016 C8.56447266,14.7545937 8.30717578,15.00175 7.98332031,15.0563633 L7.98332031,15.0563633 L6.59805078,15.290457 L6.59805078,16.709543 L7.98301953,16.9433789 C8.30691797,16.9979922 8.56421484,17.2454492 8.63184766,17.5666406 C8.815625,18.439207 9.16560547,19.293082 9.67272266,20.104375 C9.84292188,20.376582 9.83359766,20.7246719 9.64874609,20.9872969 L9.64874609,20.9872969 L8.83667969,22.1424258 L9.85753125,23.1630625 L11.0124023,22.3509961 C11.2787656,22.1640391 11.6319258,22.1568203 11.905207,22.3334219 C12.6616289,22.821375 13.5357852,23.1793477 14.4333594,23.3684531 C14.7545508,23.4361289 15.001707,23.6936836 15.0563203,24.0172812 L15.0563203,24.0172812 L15.2904141,25.4019922 L16.7095,25.4019922 L16.9433359,24.0175391 C16.9979492,23.6936406 17.2451055,23.4360859 17.5665977,23.3684531 C18.4391641,23.1846758 19.2930391,22.8341797 20.104332,22.3273203 C20.3765391,22.1566055 20.7243711,22.1664453 20.9872539,22.3512969 L20.9872539,22.3512969 L22.1423828,23.1633633 L23.1616875,22.1443164 L22.3256445,20.9628047 C22.1373555,20.6966992 22.1298789,20.3424648 22.3064805,20.0684102 C22.7946914,19.3114297 23.1526641,18.4373164 23.3415117,17.5402578 C23.4091875,17.21825 23.6675156,16.970793 23.9919297,16.9167383 L23.9919297,16.9167383 L25.4016914,16.6818281 L25.4016914,15.2640312 L24.0172383,15.0301953 C23.6933398,14.975625 23.4357852,14.7284258 23.3681523,14.4072344 C23.184375,13.5341523 22.8338789,12.6805352 22.3270195,11.8695 C22.1565625,11.5970352 22.1661445,11.2492031 22.3509961,10.9863203 L22.3509961,10.9863203 L23.1633633,9.83119141 L22.1475391,8.81536719 L20.9942578,9.64423437 C20.7273789,9.83548828 20.3704805,9.84507031 20.0945352,9.66687891 C19.3384141,9.17866797 18.4642578,8.82099609 17.5666836,8.63214844 C17.2454492,8.56447266 16.9980352,8.30717578 16.9434219,7.98332031 L16.9434219,7.98332031 L16.7095859,6.59805078 Z M16,11.5786875 C18.4231797,11.5786875 20.3946719,13.5501797 20.3946719,15.9733594 C20.3946719,18.3965391 18.4229219,20.3680312 16,20.3680312 C13.5768203,20.3680312 11.6053281,18.3965391 11.6053281,15.9733594 C11.6053281,13.5501797 13.5768203,11.5786875 16,11.5786875 Z M16,13.1767383 C14.4578516,13.1767383 13.2033789,14.4312109 13.2033789,15.9733594 C13.2033789,17.5155078 14.4578516,18.7699805 16,18.7699805 C17.5421484,18.7699805 18.7966211,17.5155078 18.7966211,15.9733594 C18.7966211,14.4314687 17.5421484,13.1767383 16,13.1767383 Z" id="Combined-Shape" fill="#FFFFFF"></path>
    </g>
</svg>
