<?xml version="1.0" encoding="UTF-8"?>
<svg width="32px" height="32px" viewBox="0 0 32 32" version="1.1" xmlns="http://www.w3.org/2000/svg" xmlns:xlink="http://www.w3.org/1999/xlink">
    <title>icon/account/certifications</title>
    <g id="icon/account/certifications" stroke="none" stroke-width="1" fill="none" fill-rule="evenodd">
        <path d="M24.6308594,5 C26.4886035,5 28,6.51139648 28,8.36914062 L28,8.36914062 L28,9.71679688 C28,10.0889297 27.6983047,10.390625 27.3261719,10.390625 L27.3261719,10.390625 L25.3046875,10.390625 L25.3046875,25.3046875 C25.3046875,26.7908828 24.0955703,28 22.609375,28 L22.609375,28 L7.6953125,28 C6.20911719,28 5,26.7908828 5,25.3046875 L5,25.3046875 L5,24.6308594 C5,24.2587266 5.30169531,23.9570312 5.67382812,23.9570312 L5.67382812,23.9570312 L6.34765625,23.9570312 L6.34765625,7.02148438 C6.34765625,5.90683789 7.25449414,5 8.36914062,5 L8.36914062,5 Z M19.9140625,25.3046875 L6.34765625,25.3046875 C6.34765625,26.0477852 6.95221484,26.6523438 7.6953125,26.6523438 L7.6953125,26.6523438 L20.2757734,26.6523438 C20.0458633,26.2556836 19.9140625,25.7952344 19.9140625,25.3046875 L19.9140625,25.3046875 Z M23.9570312,6.34765625 L8.36914062,6.34765625 C7.9975918,6.34765625 7.6953125,6.64993555 7.6953125,7.02148438 L7.6953125,7.02148438 L7.6953125,23.9570312 L20.5878906,23.9570312 C20.9600234,23.9570312 21.2617188,24.2587266 21.2617188,24.6308594 L21.2617188,24.6308594 L21.2617188,25.3046875 C21.2617188,26.0477852 21.8662773,26.6523438 22.609375,26.6523438 C23.3524727,26.6523438 23.9570312,26.0477852 23.9570312,25.3046875 L23.9570312,25.3046875 L23.9570312,6.34765625 Z M18.5664062,8.74076705 C20.7956992,8.74076705 22.609375,10.5544428 22.609375,12.7837358 C22.609375,13.9784331 22.0883262,15.0535932 21.2617188,15.7943999 L21.2617188,15.7943999 L21.2617188,20.2856889 C21.2617188,20.5341967 21.1249316,20.7625346 20.9058477,20.8797807 C20.8062109,20.933103 20.6969609,20.959517 20.5879355,20.959517 C20.4572129,20.959517 20.3268945,20.9215131 20.2141406,20.8463588 L20.2141406,20.8463588 L18.5664062,19.7478842 L16.9186719,20.8463588 C16.7119414,20.9841792 16.4460488,20.9970268 16.2269648,20.8797807 C16.0078809,20.7625346 15.8710938,20.5341967 15.8710938,20.2856889 L15.8710938,20.2856889 L15.8710938,15.7943999 C15.0444863,15.0535932 14.5234375,13.9784331 14.5234375,12.7837358 C14.5234375,10.5544428 16.3371133,8.74076705 18.5664062,8.74076705 Z M13.8496094,18.2642045 C14.2217422,18.2642045 14.5234375,18.5658999 14.5234375,18.9380327 C14.5234375,19.3101655 14.2217422,19.6118608 13.8496094,19.6118608 L13.8496094,19.6118608 L9.71679688,19.6118608 C9.34466406,19.6118608 9.04296875,19.3101655 9.04296875,18.9380327 C9.04296875,18.5658999 9.34466406,18.2642045 9.71679688,18.2642045 L9.71679688,18.2642045 Z M19.9140625,16.5954467 C19.4923359,16.7449917 19.0387598,16.8267045 18.5664062,16.8267045 C18.0940527,16.8267045 17.6404766,16.7449917 17.21875,16.5954467 L17.21875,16.5954467 L17.21875,19.0266186 L18.1926113,18.3773627 C18.4189727,18.2265151 18.7137949,18.2265151 18.9401563,18.3773627 L18.9401563,18.3773627 L19.9140625,19.0266186 Z M12.4121094,14.131392 C12.7842422,14.131392 13.0859375,14.4330874 13.0859375,14.8052202 C13.0859375,15.177353 12.7842422,15.4790483 12.4121094,15.4790483 L12.4121094,15.4790483 L9.71679688,15.4790483 C9.34466406,15.4790483 9.04296875,15.177353 9.04296875,14.8052202 C9.04296875,14.4330874 9.34466406,14.131392 9.71679688,14.131392 L9.71679688,14.131392 Z M18.5664062,10.0884233 C17.0802109,10.0884233 15.8710938,11.2975405 15.8710938,12.7837358 C15.8710938,14.2699311 17.0802109,15.4790483 18.5664062,15.4790483 C20.0526016,15.4790483 21.2617188,14.2699311 21.2617188,12.7837358 C21.2617188,11.2975405 20.0526016,10.0884233 18.5664062,10.0884233 Z M12.4121094,10.0884233 C12.7842422,10.0884233 13.0859375,10.3901186 13.0859375,10.7622514 C13.0859375,11.1343842 12.7842422,11.4360795 12.4121094,11.4360795 L12.4121094,11.4360795 L9.71679688,11.4360795 C9.34466406,11.4360795 9.04296875,11.1343842 9.04296875,10.7622514 C9.04296875,10.3901186 9.34466406,10.0884233 9.71679688,10.0884233 L9.71679688,10.0884233 Z M25.3046875,6.46310547 L25.3046875,9.04296875 L26.6523438,9.04296875 L26.6523438,8.36914062 C26.6523438,7.49064844 26.0890684,6.7412168 25.3046875,6.46310547 L25.3046875,6.46310547 Z" id="Combined-Shape" fill="#5F6062"></path>
    </g>
</svg>