<?xml version="1.0" encoding="UTF-8"?>
<svg width="23px" height="22px" viewBox="0 0 23 22" version="1.1" xmlns="http://www.w3.org/2000/svg" xmlns:xlink="http://www.w3.org/1999/xlink">
    <title>86F7F773-48C7-4885-AB04-2B5874A30C2B</title>
    <g id="Desktop" stroke="none" stroke-width="1" fill="none" fill-rule="evenodd">
        <g id="Smart-Cart---PDP" transform="translate(-1021.000000, -594.000000)" fill="#FFFFFF" fill-rule="nonzero" stroke="#FFFFFF" stroke-width="0.4">
            <g id="PDP/header-content" transform="translate(135.000000, 192.000000)">
                <g id="PDP/atc-box/size" transform="translate(740.000000, 125.000000)">
                    <g id="Group-7" transform="translate(32.000000, 24.000000)">
                        <g id="button/01-primary/blue/large/01-enabled" transform="translate(0.000000, 231.000000)">
                            <g id="Group" transform="translate(115.000000, 23.000000)">
                                <g id="Group" transform="translate(0.500000, 0.000000)">
                                    <path d="M19.6208,0.32 C19.3848671,0.174013547 19.0901406,0.160692575 18.842,0.2848 L17.3792,1.0168 C17.2658464,1.07328254 17.1325536,1.07328254 17.0192,1.0168 L15.16,0.0836 C14.9343745,-0.0279792331 14.6696255,-0.0279792331 14.444,0.0836 L12.5812,1.0156 C12.468438,1.07160629 12.335962,1.07160629 12.2232,1.0156 L10.3596,0.0836 C10.1341131,-0.0279706915 9.86948692,-0.0279706915 9.644,0.0836 L7.7812,1.0156 C7.66843797,1.07160629 7.53596203,1.07160629 7.4232,1.0156 L5.9596,0.2836 C5.7113195,0.15866402 5.41598585,0.171548169 5.17952875,0.317631185 C4.94307165,0.463714201 4.79938271,0.722057873 4.8,1 L4.8,14.352 L1.2,14.352 C0.5372583,14.352 -3.55271368e-15,14.8892583 -3.55271368e-15,15.552 L-3.55271368e-15,15.952 C0.00242494818,18.1601338 1.79186623,19.9495751 4,19.952 L16,19.952 C18.2081338,19.9495751 19.9975751,18.1601338 20,15.952 L20,1 C20.0007988,0.722723891 19.8571096,0.465053352 19.6208,0.32 L19.6208,0.32 Z M4,19.152 C2.23351123,19.150016 0.801983954,17.7184888 0.8,15.952 L0.8,15.552 C0.8,15.3310861 0.9790861,15.152 1.2,15.152 L11.6,15.152 C11.8209139,15.152 12,15.3310861 12,15.552 L12,15.952 C11.9999357,17.2116008 12.5937749,18.3975004 13.6024,19.152 L4,19.152 Z M19.2,15.952 C19.2,17.7193112 17.7673112,19.152 16,19.152 C14.2326888,19.152 12.8,17.7193112 12.8,15.952 L12.8,15.552 C12.8,14.8892583 12.2627417,14.352 11.6,14.352 L5.6,14.352 L5.6,1 L7.0636,1.7316 C7.40152051,1.89997705 7.79887949,1.89997705 8.1368,1.7316 L10,0.8 L11.8636,1.7316 C12.2015205,1.89997705 12.5988795,1.89997705 12.9368,1.7316 L14.8,0.8 L16.6636,1.7316 C17.0016085,1.89960269 17.3987915,1.89960269 17.7368,1.7316 L19.2,1 L19.2,15.952 Z" id="Shape"></path>
                                    <path d="M16.3,8.352 L15.1,8.352 C14.8790861,8.352 14.7,8.5310861 14.7,8.752 C14.7,8.9729139 14.8790861,9.152 15.1,9.152 L16.3,9.152 C16.5209139,9.152 16.7,8.9729139 16.7,8.752 C16.7,8.5310861 16.5209139,8.352 16.3,8.352 Z" id="Path"></path>
                                    <path d="M12.8,8.352 L8.4,8.352 C8.1790861,8.352 8,8.5310861 8,8.752 C8,8.9729139 8.1790861,9.152 8.4,9.152 L12.8,9.152 C13.0209139,9.152 13.2,8.9729139 13.2,8.752 C13.2,8.5310861 13.0209139,8.352 12.8,8.352 Z" id="Path"></path>
                                    <path d="M16.3,10.8476 L15.1,10.8476 C14.8790861,10.8476 14.7,11.0266861 14.7,11.2476 C14.7,11.4685139 14.8790861,11.6476 15.1,11.6476 L16.3,11.6476 C16.5209139,11.6476 16.7,11.4685139 16.7,11.2476 C16.7,11.0266861 16.5209139,10.8476 16.3,10.8476 Z" id="Path"></path>
                                    <path d="M12.8,10.8476 L8.4,10.8476 C8.1790861,10.8476 8,11.0266861 8,11.2476 C8,11.4685139 8.1790861,11.6476 8.4,11.6476 L12.8,11.6476 C13.0209139,11.6476 13.2,11.4685139 13.2,11.2476 C13.2,11.0266861 13.0209139,10.8476 12.8,10.8476 Z" id="Path"></path>
                                    <path d="M16.3,6.6568 L15.1,6.6568 C14.8790861,6.6568 14.7,6.4777139 14.7,6.2568 C14.7,6.0358861 14.8790861,5.8568 15.1,5.8568 L16.3,5.8568 C16.5209139,5.8568 16.7,6.0358861 16.7,6.2568 C16.7,6.4777139 16.5209139,6.6568 16.3,6.6568 Z" id="Path"></path>
                                    <path d="M12.8,6.6568 L8.4,6.6568 C8.1790861,6.6568 8,6.4777139 8,6.2568 C8,6.0358861 8.1790861,5.8568 8.4,5.8568 L12.8,5.8568 C13.0209139,5.8568 13.2,6.0358861 13.2,6.2568 C13.2,6.4777139 13.0209139,6.6568 12.8,6.6568 Z" id="Path"></path>
                                </g>
                            </g>
                        </g>
                    </g>
                </g>
            </g>
        </g>
    </g>
</svg>