<?xml version="1.0" encoding="UTF-8"?>
<svg width="73px" height="101px" viewBox="0 0 73 101" version="1.1" xmlns="http://www.w3.org/2000/svg" xmlns:xlink="http://www.w3.org/1999/xlink">
    <title>59E0B5E2-42C8-44DE-9142-C0026F020631</title>
    <g id="Web" stroke="none" stroke-width="1" fill="none" fill-rule="evenodd">
        <g id="Product-information-page---Instruments-L4" transform="translate(-396.000000, -2980.000000)" fill="#9E9E9E" fill-rule="nonzero">
            <g id="Group-23" transform="translate(135.000000, 2770.000000)">
                <g id="Group-22" transform="translate(0.000000, 210.000000)">
                    <g id="Group-20" transform="translate(257.000000, 0.000000)">
                        <g id="1974502" transform="translate(4.000000, 0.000000)">
                            <path d="M66.9767442,60.5976926 L63.0418605,60.5976926 C64.2133097,58.1285771 63.5347194,55.1733267 61.4052666,53.4703505 C59.2758139,51.7673744 56.2590698,51.7673744 54.1296171,53.4703505 C52.0001643,55.1733267 51.321574,58.1285771 52.4930233,60.5976926 L48.5581395,60.5976926 C45.783872,60.3931515 43.3699578,62.4884293 43.1665116,65.2776265 C42.9630654,68.0668237 45.0471279,70.4937284 47.8213953,70.6982694 C43.156362,75.8468727 36.0124674,77.9284731 29.332034,76.0857314 C22.6516007,74.2429898 17.5645301,68.78758 16.1660103,61.9663963 C14.7674905,55.1452126 17.2940614,48.1119625 22.7051163,43.7633978 C22.9504861,43.7778953 23.1964907,43.7778953 23.4418605,43.7633978 C25.2533321,43.7633978 27.015939,43.1727002 28.4651163,42.0799683 L30.5246512,44.1337523 C30.2193388,45.2871644 30.5442342,46.5168821 31.3786047,47.3659369 L33.7395349,49.7564067 C34.3676704,50.3886256 35.2200248,50.7438615 36.1088372,50.7438615 C36.9976496,50.7438615 37.850004,50.3886256 38.4781395,49.7564067 L39.6669767,48.5611718 L43.1330233,52.1805452 C43.7611588,52.812764 44.6135132,53.168 45.5023256,53.168 C46.391138,53.168 47.2434924,52.812764 47.8716279,52.1805452 L52.5934884,47.4164398 C53.2223231,46.7849239 53.5756576,45.9279826 53.5756576,45.0343871 C53.5756576,44.1407915 53.2223231,43.2838502 52.5934884,42.6523343 L49.0437209,39.0834639 L50.2325581,37.9050632 C50.8613929,37.2735474 51.2147274,36.416606 51.2147274,35.5230105 C51.2147274,34.629415 50.8613929,33.7724736 50.2325581,33.1409578 L47.8716279,30.7504879 C47.0236377,29.9056388 45.7924176,29.5785397 44.64,29.8919389 L20.6288372,5.71789163 C20.0007017,5.0856728 19.1483473,4.73043683 18.2595349,4.73043683 C17.3707225,4.73043683 16.5183681,5.0856728 15.8902326,5.71789163 L11.1683721,0.9874548 C10.5402365,0.355235975 9.68788214,0 8.79906977,0 C7.9102574,0 7.05790299,0.355235975 6.42976744,0.9874548 L1.6744186,5.73472592 C1.04558385,6.36624178 0.692249341,7.22318312 0.692249341,8.11677863 C0.692249341,9.01037414 1.04558385,9.86731548 1.6744186,10.4988313 L6.42976744,15.2629368 C5.80093269,15.8944526 5.44759818,16.751394 5.44759818,17.6449895 C5.44759818,18.538585 5.80093269,19.3955263 6.42976744,20.0270422 L16.744186,30.3801335 C15.8026723,31.6090977 15.2225959,33.0787568 15.0697674,34.6223757 C7.67104913,41.2791636 4.00792519,51.172425 5.27608294,61.0728814 C6.54424069,70.9733379 12.5809713,79.6107282 21.415814,84.1657052 L13.3953488,84.1657052 C7.84681367,84.1657052 3.34883721,88.6878875 3.34883721,94.2662821 L3.34883721,97.633141 L1.6744186,97.633141 C0.749662744,97.633141 0,98.3868382 0,99.3165705 C0,100.246303 0.749662744,101 1.6744186,101 L68.6511628,101 C69.5759186,101 70.3255814,100.246303 70.3255814,99.3165705 C70.3255814,98.3868382 69.5759186,97.633141 68.6511628,97.633141 L66.9767442,97.633141 L66.9767442,94.2662821 C66.9767442,88.6878875 62.4787677,84.1657052 56.9302326,84.1657052 L48.9097674,84.1657052 C54.641191,81.2185022 59.2785693,76.497151 62.1376744,70.6982694 L66.9767442,70.6982694 C69.7510117,70.6982694 72,68.4371782 72,65.647981 C72,62.8587838 69.7510117,60.5976926 66.9767442,60.5976926 Z M55.255814,58.0725483 C55.255814,56.6779497 56.3803081,55.5474041 57.7674419,55.5474041 C59.1545756,55.5474041 60.2790698,56.6779497 60.2790698,58.0725483 C60.2790698,59.4671469 59.1545756,60.5976926 57.7674419,60.5976926 C56.3803081,60.5976926 55.255814,59.4671469 55.255814,58.0725483 Z M23.4418605,30.295962 C26.216128,30.295962 28.4651163,32.5570532 28.4651163,35.3462504 C28.4651163,38.1354476 26.216128,40.3965388 23.4418605,40.3965388 C20.667593,40.3965388 18.4186047,38.1354476 18.4186047,35.3462504 C18.4186047,32.5570532 20.667593,30.295962 23.4418605,30.295962 Z M50.2325581,45.0259699 L45.4939535,49.7900753 L41.944186,46.2212048 L46.6827907,41.4570994 L50.2325581,45.0259699 Z M47.8716279,35.4977591 L36.0167442,47.3996055 L33.655814,45.0259699 L45.4939535,33.1241235 L47.8716279,35.4977591 Z M4.05209302,8.12519578 L8.79069767,3.36109036 L13.5293023,8.12519578 L8.79069767,12.8893012 L4.05209302,8.12519578 Z M18.267907,8.12519578 L41.944186,31.9793915 L32.4669767,41.5076023 L30.6251163,39.6558299 C32.4933025,36.3610761 31.9391747,32.2171402 29.2718143,29.5354256 C26.6044541,26.8537108 22.4826994,26.296601 19.2055814,28.1748408 L8.79069767,17.6534066 C24.3125581,2.06484967 15.0697674,11.2900432 18.267907,8.12519578 Z M56.9302326,87.5325642 C60.629256,87.5325642 63.627907,90.5473524 63.627907,94.2662821 L63.627907,97.633141 L6.69767442,97.633141 L6.69767442,94.2662821 C6.69767442,90.5473524 9.6963254,87.5325642 13.3953488,87.5325642 L56.9302326,87.5325642 Z M35.1627907,84.1657052 C24.4690245,84.1462687 14.8110196,77.7349957 10.5928223,67.8554242 C6.37462495,57.9758528 8.40428531,46.5205422 15.7562791,38.7131094 C16.4532697,40.3040219 17.6231157,41.6389425 19.1051163,42.5344943 C13.3198801,48.3771156 11.2913991,56.9926465 13.8574634,64.822757 C16.4235276,72.6528672 23.1486565,78.3687281 31.2552812,79.6096119 C39.361906,80.8504956 47.4742711,77.4058149 52.2418605,70.6982694 L58.3367442,70.6982694 C53.5559574,79.0234083 44.7243691,84.1558451 35.1627907,84.1657052 Z M66.9767442,67.3314105 L48.5581395,67.3314105 C47.6333838,67.3314105 46.8837209,66.5777133 46.8837209,65.647981 C46.8837209,64.7182486 47.6333838,63.9645515 48.5581395,63.9645515 L66.9767442,63.9645515 C67.9015,63.9645515 68.6511628,64.7182486 68.6511628,65.647981 C68.6511628,66.5777133 67.9015,67.3314105 66.9767442,67.3314105 Z" id="Shape"></path>
                        </g>
                    </g>
                </g>
            </g>
        </g>
    </g>
</svg>