<?xml version="1.0" encoding="UTF-8"?>
<svg width="46px" height="64px" viewBox="0 0 46 64" version="1.1" xmlns="http://www.w3.org/2000/svg" xmlns:xlink="http://www.w3.org/1999/xlink">
    <title>2AFC8597-94AD-441D-A317-2E2909E09713</title>
    <g id="Mobile" stroke="none" stroke-width="1" fill="none" fill-rule="evenodd">
        <g id="Product-information-page---Instruments-L4-M_1" transform="translate(-157.000000, -2438.000000)" fill="#9E9E9E" fill-rule="nonzero">
            <g id="Group-2" transform="translate(21.000000, 2082.000000)">
                <g id="1974502-copy" transform="translate(136.000000, 356.000000)">
                    <path d="M42.2045237,38.3985379 L39.725008,38.3985379 C40.4631814,36.8339498 40.0355766,34.961316 38.6937297,33.8822023 C37.3518827,32.8030887 35.4509207,32.8030887 34.1090738,33.8822023 C32.7672268,34.961316 32.339622,36.8339498 33.0777955,38.3985379 L30.5982797,38.3985379 C28.8501111,38.2689277 27.3290145,39.5966285 27.2008155,41.3640406 C27.0726166,43.1314526 28.3858614,44.6692932 30.1340299,44.7989034 C27.1944199,48.0613847 22.6927877,49.3804186 18.4831995,48.2127407 C14.2736114,47.0450628 11.0680601,43.5881695 10.186801,39.2658353 C9.30554195,34.9435011 10.8976278,30.4867881 14.3073335,27.731262 C14.4619501,27.7404485 14.6169667,27.7404485 14.7715833,27.731262 C15.9130586,27.731262 17.0237424,27.3569586 17.9369226,26.6645344 L19.2347117,27.965942 C19.0423231,28.6968171 19.2470517,29.4760441 19.7728194,30.014059 L21.2605288,31.5288122 C21.6563403,31.9294261 22.1934403,32.1545261 22.7535139,32.1545261 C23.3135874,32.1545261 23.8506875,31.9294261 24.2464989,31.5288122 L24.9956292,30.7714356 L27.1797133,33.0648999 C27.5755247,33.4655138 28.1126248,33.6906138 28.6726983,33.6906138 C29.2327719,33.6906138 29.7698719,33.4655138 30.1656833,33.0648999 L33.1411023,30.0460608 C33.5373543,29.6458924 33.7600034,29.10288 33.7600034,28.5366413 C33.7600034,27.9704026 33.5373543,27.4273902 33.1411023,27.0272218 L30.9042625,24.7657593 L31.6533928,24.01905 C32.0496448,23.6188815 32.272294,23.0758692 32.272294,22.5096304 C32.272294,21.9433917 32.0496448,21.4003793 31.6533928,21.0002109 L30.1656833,19.4854577 C29.6313333,18.9501078 28.855496,18.7428371 28.1293151,18.9414266 L12.9989933,3.62321846 C12.6031819,3.22260455 12.0660818,2.99750453 11.5060083,2.99750453 C10.9459347,2.99750453 10.4088347,3.22260455 10.0130233,3.62321846 L7.03760433,0.625713933 C6.64179289,0.225100024 6.10469286,0 5.54461931,0 C4.98454576,0 4.44744572,0.225100024 4.05163428,0.625713933 L1.05511309,3.63388573 C0.658861056,4.0340542 0.436211914,4.57706653 0.436211914,5.14330527 C0.436211914,5.70954401 0.658861056,6.25255635 1.05511309,6.65272481 L4.05163428,9.67156389 C3.65538224,10.0717323 3.4327331,10.6147447 3.4327331,11.1809834 C3.4327331,11.7472222 3.65538224,12.2902345 4.05163428,12.690403 L10.5511309,19.2507776 C9.95784828,20.0295273 9.59232071,20.9607964 9.49601784,21.9389312 C4.83381178,26.1570938 2.5255419,32.4260911 3.32465501,38.6996476 C4.12376811,44.9732042 7.92773534,50.446402 13.4948965,53.3327241 L8.44090475,53.3327241 C4.94456752,53.3327241 2.11022619,56.1982654 2.11022619,59.7330896 L2.11022619,61.8665448 L1.05511309,61.8665448 C0.472390222,61.8665448 0,62.3441351 0,62.9332724 C0,63.5224097 0.472390222,64 1.05511309,64 L43.2596368,64 C43.8423596,64 44.3147499,63.5224097 44.3147499,62.9332724 C44.3147499,62.3441351 43.8423596,61.8665448 43.2596368,61.8665448 L42.2045237,61.8665448 L42.2045237,59.7330896 C42.2045237,56.1982654 39.3701824,53.3327241 35.8738452,53.3327241 L30.8198535,53.3327241 C34.4314354,51.4651895 37.353619,48.4734422 39.1552469,44.7989034 L42.2045237,44.7989034 C43.9526923,44.7989034 45.369863,43.3661327 45.369863,41.5987206 C45.369863,39.8313085 43.9526923,38.3985379 42.2045237,38.3985379 Z M34.8187321,36.7984465 C34.8187321,35.9147404 35.5273174,35.1983551 36.4014017,35.1983551 C37.275486,35.1983551 37.9840714,35.9147404 37.9840714,36.7984465 C37.9840714,37.6821525 37.275486,38.3985379 36.4014017,38.3985379 C35.5273174,38.3985379 34.8187321,37.6821525 34.8187321,36.7984465 Z M14.7715833,19.1974413 C16.5197519,19.1974413 17.9369226,20.6302119 17.9369226,22.397624 C17.9369226,24.1650361 16.5197519,25.5978068 14.7715833,25.5978068 C13.0234147,25.5978068 11.606244,24.1650361 11.606244,22.397624 C11.606244,20.6302119 13.0234147,19.1974413 14.7715833,19.1974413 Z M31.6533928,28.5313077 L28.6674227,31.5501467 L26.430583,29.2886843 L29.416553,26.2698452 L31.6533928,28.5313077 Z M30.1656833,22.4936295 L22.6954826,30.0353936 L21.2077732,28.5313077 L28.6674227,20.9895436 L30.1656833,22.4936295 Z M2.55337369,5.14863891 L5.53934374,2.12979983 L8.52531379,5.14863891 L5.53934374,8.16747799 L2.55337369,5.14863891 Z M11.5112838,5.14863891 L26.430583,20.2641688 L20.4586429,26.301847 L19.2980185,25.1284467 C20.4752317,23.0406819 20.1260553,20.4148215 18.4452529,18.7155172 C16.7644505,17.0162128 14.1671804,16.6631927 12.1021472,17.8533645 L5.53934374,11.1863171 C15.3202421,1.30841959 9.49601784,7.15408678 11.5112838,5.14863891 Z M35.8738452,55.4661793 C38.2047367,55.4661793 40.0942975,57.3765401 40.0942975,59.7330896 L40.0942975,61.8665448 L4.22045237,61.8665448 L4.22045237,59.7330896 C4.22045237,57.3765401 6.11001326,55.4661793 8.44090475,55.4661793 L35.8738452,55.4661793 Z M22.157375,53.3327241 C15.4188374,53.3204079 9.33297127,49.2578191 6.67492912,42.9974965 C4.01688696,36.7371741 5.29585102,29.4783634 9.92861421,24.5310792 C10.3678138,25.5391822 11.104977,26.3850724 12.0388404,26.9525508 C8.39334912,30.6548059 7.11512823,36.1141523 8.73210021,41.0758064 C10.3490722,46.0374604 14.5868247,49.6593921 19.6951087,50.4456947 C24.8033929,51.2319972 29.9152941,49.0492292 32.9195285,44.7989034 L36.7601402,44.7989034 C33.7475896,50.0742389 28.1824792,53.3264761 22.157375,53.3327241 Z M42.2045237,42.6654482 L30.5982797,42.6654482 C30.0155569,42.6654482 29.5431666,42.187858 29.5431666,41.5987206 C29.5431666,41.0095833 30.0155569,40.531993 30.5982797,40.531993 L42.2045237,40.531993 C42.7872466,40.531993 43.2596368,41.0095833 43.2596368,41.5987206 C43.2596368,42.187858 42.7872466,42.6654482 42.2045237,42.6654482 Z" id="Shape"></path>
                </g>
            </g>
        </g>
    </g>
</svg>