<?xml version="1.0" encoding="UTF-8"?>
<svg width="74px" height="101px" viewBox="0 0 74 90" version="1.1" xmlns="http://www.w3.org/2000/svg" xmlns:xlink="http://www.w3.org/1999/xlink">
    <title>BD916906-BA73-4EA1-9325-B0A104867E52</title>
    <g id="Web" stroke="none" stroke-width="1" fill="none" fill-rule="evenodd">
        <g id="Product-information-page---Instruments-L4" transform="translate(-636.000000, -2991.000000)" fill="#A3A3A3" fill-rule="nonzero">
            <g id="Group-23" transform="translate(135.000000, 2770.000000)">
                <g id="Group-22" transform="translate(0.000000, 210.000000)">
                    <g id="1691455" transform="translate(501.000000, 11.000000)">
                        <path d="M66,41.7777778 C66,40.7958332 65.2041668,40 64.2222222,40 C63.2402777,40 62.4444444,40.7958332 62.4444444,41.7777778 C62.4444444,47.6597223 57.6597223,52.4444444 51.7777778,52.4444444 C50.7958332,52.4444444 50,53.2402777 50,54.2222222 C50,55.2041668 50.7958332,56 51.7777778,56 C59.6201388,56 66,49.6201388 66,41.7777778 Z" id="Path"></path>
                        <path d="M29.0412108,60.7623845 C28.1163085,62.12136 20,74.1876776 20,79.2613636 C20,85.0821201 24.8083984,90 30.5,90 C36.1916016,90 41,85.0821201 41,79.2613636 C41,74.1876776 32.8836915,62.12136 31.9587892,60.7623845 C31.6340821,60.2863105 31.0865234,60 30.5,60 C29.9134766,60 29.3659179,60.2863105 29.0412108,60.7623845 L29.0412108,60.7623845 Z M37.5,79.2613636 C37.5,83.1658381 34.2290039,86.5909091 30.5,86.5909091 C26.7709961,86.5909091 23.5,83.1658381 23.5,79.2613636 C23.5,76.6346325 27.3438477,69.7791637 30.5,64.8572887 C33.6561523,69.7791637 37.5,76.6346325 37.5,79.2613636 Z" id="Shape"></path>
                        <path d="M12.5,29 C11.913365,29 11.3643973,29.2823242 11.0309711,29.7553711 C9.90164625,31.3570312 0,45.5833008 0,51.75 C0,58.5045898 5.60756143,64 12.5,64 C19.3924386,64 25,58.5045898 25,51.75 C25,45.5833008 15.0983538,31.3570312 13.9690289,29.7553711 C13.6356027,29.2823242 13.086635,29 12.5,29 Z M12.5,60.5 C7.57673,60.5 3.57142857,56.5748046 3.57142857,51.75 C3.57142857,48.3655273 8.56515071,39.7734375 12.5,33.8876954 C16.4348493,39.772754 21.4285714,48.3634767 21.4285714,51.75 C21.4285714,56.5748046 17.42327,60.5 12.5,60.5 Z" id="Shape"></path>
                        <path d="M52,0 C50.9675224,0 50.0013393,0.51624992 49.4145091,1.38124992 C47.4268974,4.31 30,30.3237501 30,41.6 C30,53.9512499 39.8693081,64 52,64 C64.1306919,64 74,53.9512499 74,41.6 C74,30.3237501 56.5731026,4.31 54.5854909,1.38124992 C53.9986607,0.51624992 53.0324776,0 52,0 Z M52,60 C42.0746877,60 34,51.887747 34,41.9162599 C34,34.9215256 44.0673438,17.1641406 52,5 C59.9326562,17.1627279 70,34.9172875 70,41.9162599 C70,51.887747 61.9253123,60 52,60 Z" id="Shape"></path>
                    </g>
                </g>
            </g>
        </g>
    </g>
</svg>
