<?xml version="1.0" encoding="UTF-8"?>
<svg width="14px" height="10px" viewBox="0 0 14 10" version="1.1" xmlns="http://www.w3.org/2000/svg" xmlns:xlink="http://www.w3.org/1999/xlink">
    <title>0C4BFCB9-872F-438C-B63D-1C335C258285</title>
    <g id="PDP---Single-Format-Antibody---D" stroke="none" stroke-width="1" fill="none" fill-rule="evenodd">
        <g id="PDP-SFA-Show-more-state" transform="translate(-213.000000, -915.000000)" fill="#004593">
            <g id="PDP/header-content" transform="translate(0.000000, 192.000000)">
                <g id="PDP/annotation" transform="translate(135.000000, 543.593023)">
                    <g id="BTN" transform="translate(0.000000, 172.406977)">
                        <g id="icon/arrow-(1)" transform="translate(85.000000, 12.000000) scale(1, -1) translate(-85.000000, -12.000000) translate(78.000000, 8.000000)">
                            <path d="M6.29289322,0.292893219 C6.65337718,-0.0675907428 7.22060824,-0.0953202783 7.61289944,0.209704612 L7.70710678,0.292893219 L13.7071068,6.29289322 C14.0976311,6.68341751 14.0976311,7.31658249 13.7071068,7.70710678 C13.3466228,8.06759074 12.7793918,8.09532028 12.3871006,7.79029539 L12.2928932,7.70710678 L7,2.415 L1.70710678,7.70710678 C1.34662282,8.06759074 0.779391764,8.09532028 0.387100557,7.79029539 L0.292893219,7.70710678 C-0.0675907428,7.34662282 -0.0953202783,6.77939176 0.209704612,6.38710056 L0.292893219,6.29289322 L6.29289322,0.292893219 Z" id="Path-2-Copy" transform="translate(7.000000, 4.000000) scale(1, -1) translate(-7.000000, -4.000000) "></path>
                        </g>
                    </g>
                </g>
            </g>
        </g>
    </g>
</svg>