<?xml version="1.0" encoding="UTF-8"?>
<svg width="27px" height="24px" viewBox="0 0 27 24" version="1.1" xmlns="http://www.w3.org/2000/svg" xmlns:xlink="http://www.w3.org/1999/xlink">
    <title>icon/Calendar</title>
    <g id="icon/Calendar" stroke="none" stroke-width="1" fill="none" fill-rule="evenodd">
        <g id="icon" transform="translate(2.000000, 1.000000)" fill="#424242" fill-rule="nonzero">
            <path d="M18.9440521,1.83369544 L17.1102662,1.83369544 L17.1102662,0 L15.8881043,0 L15.8881043,1.83369544 L6.11080934,1.83369544 L6.11080934,0 L4.88864747,0 L4.88864747,1.83369544 L3.05594785,1.83369544 C1.37099402,1.83369544 0,3.20462177 0,4.8894924 L0,18.944203 C0,20.6290737 1.37099402,22 3.05594785,22 L18.9440521,22 C20.629006,22 22,20.6290737 22,18.944203 L22,7.94420304 L22,6.72210152 L22,4.88840608 C21.9989136,3.20353545 20.6279196,1.83369544 18.9440521,1.83369544 Z M20.7767518,18.9431167 C20.7767518,19.9533873 19.9543726,20.7757259 18.9440521,20.7757259 L3.05594785,20.7757259 C2.04454101,20.7757259 1.22216187,19.9533873 1.22216187,18.9431167 L1.22216187,7.94420304 L20.7767518,7.94420304 L20.7767518,18.9431167 Z M20.7767518,6.72210152 L1.22216187,6.72210152 L1.22216187,4.88840608 C1.22216187,3.87704918 2.04454101,3.05471065 3.05594785,3.05471065 L4.88973384,3.05471065 L4.88973384,4.27681217 L6.11080934,4.27681217 L6.11080934,3.05579696 L15.8881043,3.05579696 L15.8881043,4.27789848 L17.1102662,4.27789848 L17.1102662,3.05579696 L18.9440521,3.05579696 C19.9543726,3.05579696 20.7767518,3.87704918 20.7767518,4.88840608 L20.7767518,6.72210152 Z" id="Shape"></path>
        </g>
    </g>
</svg>