<?xml version="1.0" encoding="UTF-8"?>
<svg width="94px" height="97px" viewBox="0 0 94 97" version="1.1" xmlns="http://www.w3.org/2000/svg" xmlns:xlink="http://www.w3.org/1999/xlink">
    <title>461B7AF7-CEDE-4301-9588-EEE049772A96</title>
    <g id="Page-1" stroke="none" stroke-width="1" fill="none" fill-rule="evenodd">
        <g id="ICM-intro" transform="translate(-1177.000000, -267.000000)">
            <g id="Title" transform="translate(135.000000, 228.000000)">
                <g id="Group-9" transform="translate(1008.000000, 32.000000)">
                    <g id="Cell-Map" transform="translate(35.000000, 8.000000)">
                        <path d="M92.5236468,86.7817634 C92.5236468,91.6384641 88.5864322,95.5755448 83.7297315,95.5755448 L83.7297315,41.0587072 C88.5864376,41.0587072 92.5236468,31.2833523 92.5236468,26.4266461 L92.5236468,86.7817634 Z" id="Path" stroke="#424242" stroke-width="0.5" fill="#CCCCCC" fill-rule="nonzero"></path>
                        <path d="M8.83911676,17.6328312 L83.7297315,17.6328312 C88.586406,17.6328312 92.5236133,21.5699046 92.5236133,26.4265792 L92.5236133,86.7817634 C92.5236133,84.4494871 91.5971156,82.2127357 89.9479409,80.5635736 C88.2987662,78.9144114 86.0620078,77.9879307 83.7297315,77.9879485 L8.83911676,77.9879485 C3.98244762,77.98793 0.0453018462,74.0508362 0.0453018462,69.194167 L0.0453018462,8.83904979 C0.0453018462,13.6957189 3.98244762,17.6328127 8.83911676,17.6328312 Z" id="Path" stroke="#424242" stroke-width="0.5" fill="#E6E7E9" fill-rule="nonzero"></path>
                        <path d="M8.83911676,17.6327977 L11.1058832,17.6327977 L11.1058832,66.2384643 C6.20568327,66.2384643 2.06704322,68.7776445 0.615810462,72.287349 C0.240460927,71.2991416 0.0471946021,70.2511224 0.0453688112,69.1940331 L0.0453688112,8.83901631 C0.0453688112,13.6956516 3.98248143,17.6327238 8.83911676,17.6327977 Z" id="Path" fill="#CCCCCC" fill-rule="nonzero"></path>
                        <path d="M45.8607363,63.3707202 C46.3067527,63.3997815 46.7545424,63.3570499 47.1870123,63.2441563 C48.0283549,62.9092939 48.6472083,62.176805 48.8368634,61.2913554 C49.0332754,60.3329466 49.0227618,59.3436447 48.806026,58.3896265 C48.7492284,57.8952339 48.5822845,57.4198713 48.3174826,56.9985284 C48.0415376,56.6774863 47.641969,56.4890988 47.2187203,56.4804869 C47.0652634,56.4698543 46.9277471,56.3819102 46.8537255,56.2470663 C46.7797039,56.1122224 46.7793388,55.9489901 46.8527564,55.8138164 C47.0644662,55.4023387 47.0426739,54.9095608 46.7954678,54.5183778 C46.5215079,54.0207865 46.0145216,53.6954651 45.4480308,53.6537588 C44.9109316,53.6854425 44.3849201,53.8200144 43.8985938,54.0501583 C43.1366992,54.348655 42.3448041,54.6586361 41.4929419,54.4015573 C40.8756075,54.1631687 40.3316374,53.7669559 39.9153796,53.2525043 L39.7372192,53.0677813 C39.253966,52.5739476 38.8377783,52.3323378 38.4691358,52.3323378 C38.4393956,52.3323378 38.4096787,52.3340087 38.3801058,52.3371592 C38.0643656,52.3715793 37.9048214,52.5444495 37.626113,52.872009 C37.4614661,53.080027 37.2729384,53.2679704 37.0644102,53.4319706 C36.6036028,53.7460191 36.1111945,54.0109807 35.5952309,54.2225263 C35.3386208,54.3385432 35.0862966,54.4527186 34.8571422,54.5743606 C34.395954,54.818783 33.9698555,55.068663 33.8218963,55.4346269 C33.6508006,55.8570089 33.8536377,56.3812782 34.0687964,56.9364183 L34.17286,57.2088655 C34.2939226,57.5182292 34.3739565,57.842113 34.4109207,58.172258 C34.4290294,58.4713222 34.4192999,58.7714223 34.3818579,59.0686855 L34.3589224,59.3107306 C34.2363429,60.8350222 34.7142723,62.2151046 35.6375528,63.0030152 C36.5511567,63.7834257 38.1931394,63.9275679 39.0256152,62.9549343 C39.097904,62.8697883 39.164936,62.7781466 39.231968,62.6864045 C39.3994754,62.42985 39.6097341,62.2039175 39.8536044,62.0184283 C40.4444369,61.6070621 41.2901718,61.6163032 42.1146788,62.0413638 C42.3878027,62.1884056 42.6516899,62.3519933 42.9048662,62.531213 C43.1596127,62.7145368 43.4285451,62.8772957 43.7091163,63.0179484 C44.3945829,63.2816956 45.126936,63.4017696 45.8607363,63.3707202 L45.8607363,63.3707202 Z" id="Path"></path>
                        <path d="M81.1448811,50.1594563 C81.4164913,49.4923506 81.4200404,48.8526002 81.154591,48.44783 C80.9017762,48.1352009 80.5779751,47.8874485 80.2101162,47.7251768 L79.6792844,47.4354861 C77.1730844,46.0655489 74.332729,44.5130985 71.5963703,44.0139746 C71.0718954,43.8792279 70.5203524,43.8923351 70.0028703,44.0518433 C69.450844,44.2802945 69.059333,44.830111 68.6439488,45.4125394 C68.1536978,46.100806 67.6457345,46.8129122 66.797388,47.1114088 C66.6074736,47.1777864 66.3965428,47.1107825 66.2797483,46.9469762 C65.9995645,46.4941462 65.5817528,46.1429229 65.0875028,45.944744 C64.6783763,45.793533 64.2183766,45.9191599 63.9429029,46.2573368 C63.8442894,46.4414008 63.7749635,46.6397088 63.7374207,46.8451223 C63.6928143,47.0448657 63.6329734,47.2408989 63.5584232,47.4315017 C63.2480068,48.1696238 62.6201761,48.5884901 62.0125688,48.9936955 C61.5563623,49.2470272 61.1606813,49.5965069 60.8529353,50.0179257 C60.70365,50.3043757 60.5916234,50.608747 60.5195834,50.9236278 C60.4132529,51.5101215 60.1366299,52.0523398 59.7242062,52.4826743 C59.0344663,53.095103 58.0892883,53.0316201 57.2550379,52.9231368 C56.6914133,52.9030252 56.1515635,52.6910072 55.7248869,52.3221926 C55.1817,51.7596863 55.2284081,51.0060283 55.2690224,50.3411324 C55.2995531,50.0379691 55.2971843,49.7323919 55.2619576,49.4297383 C52.6675647,49.7225429 50.935648,47.5915481 49.5211791,45.866261 L49.4585668,45.7899543 C48.4740104,44.6538273 48.1297238,43.0973654 48.5432552,41.6519839 C48.995604,40.2780288 50.8334594,37.7921862 52.1657957,37.0359836 C53.0043989,36.5588912 53.9409383,36.4658768 54.8457364,36.376378 C55.3565679,36.3392444 55.8638716,36.2636385 56.3633315,36.1502036 C56.4955875,36.1162188 56.6296515,36.0761403 56.7628114,36.036363 C57.7090266,35.590652 58.8279987,35.7354014 59.6296516,36.4072154 C60.3497732,36.9354077 61.1476973,37.3483315 61.9947896,37.6311688 C62.7702416,37.8907902 63.6204616,37.7981712 64.3218246,37.3776727 C64.6137252,37.1774807 64.8456251,36.994934 65.045047,36.8370974 C65.8924895,36.1686859 66.3642582,35.8697205 67.8006582,36.3817352 L68.1366217,36.5016361 C69.6190267,37.0298563 71.1507514,37.5757218 72.6587371,38.0144767 C74.2539781,38.4778747 76.512307,38.7896304 78.1939664,37.6361242 C80.3218808,36.178061 80.5943281,32.9686613 79.7645643,30.5523619 C79.6285234,30.0684371 79.3798016,29.6236132 79.0387638,29.2543117 C77.8086161,28.0920331 74.5652316,28.4050611 73.2557303,29.2097799 C71.7407134,30.1436074 70.4955321,30.2265101 69.7539278,29.4421151 C69.550253,29.206784 69.3869592,28.9393456 69.2706746,28.6506554 C69.1987403,28.4769321 69.1079498,28.3116319 68.999935,28.1577258 C68.4593932,27.4632649 67.2574713,27.7220847 66.1560304,28.0660171 C64.788303,28.4941581 62.9955486,28.50206 62.435587,27.1215758 C62.4034272,27.0427672 62.3765811,26.9618934 62.3552289,26.8794972 C62.3155131,26.7145752 62.2854948,26.5474677 62.2653284,26.379034 C62.2494577,26.2618452 62.2335869,26.1446564 62.2080063,26.0298448 C61.9872122,25.2897005 61.4313126,24.6964119 60.7070855,24.4279742 C59.9109008,24.1386637 59.0740194,23.9769149 58.2273702,23.9487055 C57.8028065,23.8784499 57.3680531,23.9011717 56.9531261,24.0153022 C56.3274851,24.2921363 55.7825047,24.7235004 55.369403,25.2688542 C54.6709912,26.0523451 53.8827792,26.9403684 52.0484395,26.6713698 C50.7443795,26.4404893 49.4163074,26.3758886 48.0959957,26.4791132 C47.8147426,26.5095488 47.534293,26.5523395 47.2539104,26.5950967 C46.8738169,26.652854 46.4928528,26.7106114 46.1092436,26.741047 C44.6309054,26.838854 43.1497412,26.5980168 41.7785478,26.0368761 C41.705355,26.0144429 41.3429403,25.9641521 41.0519772,25.9235713 C39.5299624,25.7115265 38.6868726,25.5519154 38.4038114,25.1726924 C38.1893289,25.0548895 37.9421046,25.0107544 37.7001093,25.047066 C37.4627142,25.1693287 37.2634914,25.3544901 37.12421,25.5823175 C37.0519213,25.6740596 36.979599,25.7657347 36.9055357,25.8517178 C35.9504804,26.9535605 34.6347848,27.2229943 33.3623152,27.48312 C32.4478742,27.6706221 31.5836235,27.8473093 30.8790509,28.3173034 C30.6197866,28.4983801 30.3840073,28.7109458 30.1771234,28.950123 C29.723837,29.4377289 29.255584,29.9434823 28.0325011,29.4650841 C27.5023021,29.233398 27.0062375,28.9303701 26.558065,28.5644044 C26.0982622,28.1684642 25.5648556,27.8671372 24.9884046,27.6776869 C24.0935734,27.4630626 23.1506662,27.7093852 22.4751399,28.3342456 C22.4151727,28.3906636 22.3569801,28.4506308 22.299658,28.5101962 C22.130373,28.6965821 21.9387457,28.8613771 21.7291159,29.000849 C21.433421,29.1697262 21.1074592,29.2789338 20.7697078,29.3222812 C20.0826712,29.4171177 19.3888052,29.4532644 18.6956333,29.4303293 C18.5879758,29.4299052 18.4812559,29.429615 18.3754735,29.4294587 C17.7966078,29.4155214 17.2176985,29.4553693 16.6462019,29.5484891 C15.4592801,29.7715831 14.2555501,30.6710909 14.2934523,31.7896749 C14.3384969,32.3054068 14.4591417,32.8117109 14.6515144,33.2923368 C14.8975104,34.0176016 15.1515088,34.7671747 15.0218645,35.6168606 C14.8721953,36.3634238 14.6118179,37.0834342 14.2493559,37.7530452 C13.922071,38.3545744 13.6840826,39.000538 13.5428747,39.6706224 C13.2836196,41.3231856 13.9750001,43.1759072 15.3453726,44.5052636 C16.526167,45.6490264 18.1619554,46.4413232 20.2078377,46.8601895 C20.3678613,46.8930147 20.4976878,47.0096921 20.5473504,47.1653157 C21.5451949,50.3346622 21.6359179,53.7200528 20.8092507,56.9382933 L20.7580894,57.1309852 C20.5738188,57.6520196 20.5034406,58.2065155 20.5517032,58.7570637 C20.6802914,59.2796812 20.9520826,59.7560811 21.3365334,60.1327264 C22.6048396,61.5577103 24.3105791,62.5210061 26.1858064,62.871295 C26.353219,62.9016971 26.5244151,62.928617 26.6954773,62.9555035 C27.5376295,63.0877594 28.4917808,63.2380959 29.1963535,63.8889626 C29.5807057,64.2831872 29.8907965,64.7435084 30.111732,65.2478171 C30.1753488,65.3730752 30.2386642,65.4982998 30.3048257,65.6204105 C31.315462,67.4758108 33.2483742,68.9162622 35.7493174,69.6764157 C38.0270661,70.3700061 40.4680086,70.4511008 42.82866,70.5300525 C43.9751014,70.5648743 44.6585131,70.4471498 45.2414102,69.68261 C45.4254878,69.4164256 45.57934,69.1305636 45.7001207,68.8303125 C45.9203717,68.1822189 46.3402137,67.6205269 46.899431,67.2257968 C47.9805815,66.5639814 49.4823059,66.5159674 50.9338065,66.4690919 C51.7547694,66.4741452 52.5742039,66.3976302 53.3800392,66.2406742 C53.6502831,66.15209 53.9387379,66.1343361 54.2178053,66.1891111 C54.5242338,66.2667718 54.780766,66.475715 54.9188288,66.7600885 C55.1403956,67.3035749 55.1359485,67.9130038 54.9064737,68.4531989 L54.8659599,68.5564255 C54.6772189,69.0317099 54.4628973,69.5705105 54.6754443,69.8488507 C54.8021168,69.9735256 54.9531132,70.0707706 55.1190207,70.1345236 C55.649886,70.3897943 56.2424596,70.6200201 56.6216826,70.3792473 C56.9000458,70.1232826 57.1059699,69.7984237 57.2186759,69.437451 C57.4743819,68.8470538 57.7936042,68.112079 58.6057897,68.026933 C59.2301382,67.9612068 59.7107127,68.3761557 60.0890652,68.7108134 C60.1745795,68.7866513 60.2601274,68.862054 60.3456752,68.9303918 C61.0653567,69.4724293 62.0199856,69.5881419 62.848326,69.2337434 C63.6917044,68.8432154 64.3104219,68.0887384 64.5282443,67.185216 C64.5989982,66.8686175 64.6484954,66.5476407 64.6764044,66.2244352 C64.7070247,65.886275 64.7573338,65.5501877 64.8270758,65.2178837 C65.0440425,64.280909 65.5660684,63.607609 66.2609311,63.3699501 C66.5877224,63.2765586 66.9276763,63.2376886 67.2671142,63.2549042 C67.5437408,63.2851549 67.8234935,63.2435346 68.0793331,63.1340658 C68.264219,62.9975804 68.4054416,62.8102919 68.4858109,62.5949972 C68.9828564,61.4901745 68.8866115,60.2088069 68.2301049,59.1906288 C68.1640457,59.0907228 68.1404013,58.9686583 68.164378,58.851312 C68.1883546,58.7339658 68.2579864,58.6309598 68.3579412,58.5649745 C68.4518849,58.5010772 68.5670112,58.4762555 68.6789381,58.4957661 C69.1172242,58.226801 70.349113,56.9187395 70.895012,56.3396929 C71.1679142,56.0199048 71.4654095,55.7219506 71.7847764,55.4485557 C72.7926002,54.7783361 74.0458173,54.430888 75.2583532,54.0949579 C75.9182696,53.9255294 76.5687427,53.721245 77.2070357,53.4829645 C79.2523488,52.6705112 80.5777208,51.552329 81.1448811,50.1594563 Z M49.710054,61.5214808 C49.4418137,62.7039723 48.5987722,63.6733179 47.4649172,64.1029829 C46.9382247,64.2497915 46.390693,64.3075074 45.8449661,64.2737437 C44.9854326,64.3043133 44.1289454,64.1556455 43.3299937,63.8371986 C43.0047105,63.6769973 42.6932423,63.4901523 42.398778,63.2785763 C42.1750217,63.1200362 41.9420906,62.9748595 41.7012032,62.8438058 C41.296433,62.6348414 40.7347303,62.5038578 40.368599,62.7600995 C40.2094389,62.8905362 40.0719417,63.0453576 39.9612172,63.21881 C39.8808592,63.3290345 39.799798,63.4392589 39.7116385,63.5420168 C39.1185927,64.1988912 38.2682263,64.5639769 37.3835321,64.5415369 C36.5297194,64.5426984 35.7031983,64.2408315 35.0511065,63.6896747 C33.9082477,62.7143959 33.3129955,61.0503483 33.4593811,59.239078 L33.4823166,58.9812626 C33.514362,58.7398672 33.5241131,58.4960339 33.5114464,58.2528504 C33.482144,58.0025127 33.4198739,57.7571475 33.3262546,57.5231324 L33.2266106,57.2630068 C32.9699671,56.6006891 32.6789705,55.8502454 32.9840967,55.0963196 C33.268062,54.3948274 33.9699895,54.0226692 34.4338897,53.7766396 C34.6799528,53.6465935 34.9489178,53.5244493 35.2231396,53.400497 C35.6796674,53.2134509 36.1162968,52.9811151 36.5264801,52.7069737 C36.6789404,52.5829744 36.8170749,52.4423355 36.9383151,52.2876721 C37.2486495,51.8306191 37.7352507,51.5233922 38.2813323,51.4397273 C38.9727128,51.3630189 39.6525754,51.6908462 40.3827956,52.4366693 L40.5679874,52.6289259 C40.8807491,53.02568 41.2878934,53.3377894 41.752264,53.5367709 C42.3069354,53.7038821 42.9208039,53.4640469 43.5696951,53.2096467 C44.1665841,52.9245274 44.8169171,52.7685616 45.4781986,52.7519407 C46.3589983,52.8004491 47.1528898,53.2986852 47.5795949,54.0707501 C47.8686033,54.5530447 47.9679435,55.125576 47.8583033,55.6770404 C48.3295764,55.7979067 48.7466202,56.073507 49.04258,56.4596607 C49.3947457,56.9908377 49.6181769,57.5968271 49.6951208,58.2294796 C49.9374346,59.3129018 49.9424831,60.4359237 49.70992,61.5214808 L49.710054,61.5214808 Z" id="Shape"></path>
                        <path d="M81.909287,47.9522553 C81.5795593,47.5109788 81.143675,47.1601729 80.6421076,46.9324113 L80.1121129,46.6431558 C77.5460127,45.2402383 74.6377213,43.6506223 71.7584926,43.1259848 C71.06443,42.9532394 70.3352027,42.9850789 69.6588374,43.2176599 C68.8660384,43.5448176 68.3792695,44.227794 67.9084049,44.8884375 C67.61706,45.3683146 67.2355603,45.7872446 66.784966,46.1221009 C66.4206157,45.6473851 65.9274779,45.2874166 65.3643028,45.0850803 C64.5665875,44.8040311 63.6790644,45.082119 63.1843565,45.7681237 C63.028153,46.0348423 62.9184195,46.3261705 62.8598439,46.6296623 C62.8274989,46.7837079 62.7827086,46.9348751 62.7259139,47.0816763 C62.5213357,47.5697845 62.0310177,47.8965069 61.5116369,48.2426157 C60.9398173,48.5657864 60.4491464,49.0149945 60.0768775,49.5561348 C59.8846221,49.9104435 59.7410594,50.2890765 59.6500759,50.6817836 C59.5825441,51.0984622 59.4005482,51.488177 59.1244004,51.8074323 C58.7178556,52.1681395 58.0370556,52.1148018 57.3712892,52.0278812 C57.0122522,52.0256874 56.6632337,51.9092619 56.3747825,51.6954668 C56.1076255,51.4181311 56.1366884,50.9445544 56.1702378,50.396546 C56.2507418,49.8338109 56.1860834,49.259838 55.9824009,48.7291166 C55.8925291,48.54279 55.6878664,48.4409961 55.4850516,48.4817478 C53.2115887,48.9447106 51.6226088,47.0055036 50.2196244,45.2942121 L50.1570121,45.217939 C49.3752339,44.3171479 49.0916977,43.0869896 49.4003072,41.9348777 C49.7838829,40.7712597 51.5087348,38.4472382 52.6119503,37.8210817 C53.2849489,37.4388117 54.0863864,37.3590229 54.9346995,37.2753166 C55.4910855,37.2339057 56.0435264,37.1503277 56.5872626,37.0253027 C56.7318736,36.988271 56.8765181,36.945112 57.0211291,36.9018526 C57.709203,36.5326357 58.5552356,36.6368507 59.1331393,37.1620118 C59.9308475,37.7419027 60.8141931,38.1937088 61.7512713,38.5011116 C62.7836463,38.8345944 63.9105056,38.6963582 64.8316629,38.1232279 C65.1438539,37.9097768 65.391658,37.7149086 65.605109,37.546458 C66.2999717,36.9971104 66.4657771,36.8648544 67.4975074,37.2329947 L67.8344085,37.3525273 C69.3281976,37.8851337 70.8731814,38.4358542 72.4067142,38.8815734 C74.1906292,39.4001172 76.7303451,39.7338709 78.7056462,38.3816125 C81.2038773,36.6681781 81.5592942,32.9984272 80.6183685,30.2590216 C80.4361748,29.6362042 80.1068013,29.0663665 79.6580564,28.5976191 C78.0522014,27.0822003 74.3802407,27.458276 72.7832251,28.4411218 C72.1377826,28.8387937 70.9693097,29.415463 70.4102186,28.8216171 C70.276279,28.6557817 70.1683467,28.4705355 70.0901257,28.272236 C69.9906178,28.0351794 69.8639557,27.8104618 69.7126773,27.6025856 C68.7126884,26.3226494 66.8052564,26.9178681 65.8863957,27.2049138 C65.0804045,27.4562001 63.6236137,27.6502312 63.2726164,26.7834023 C63.2554012,26.7402648 63.240974,26.6960662 63.229424,26.6510794 C63.1984065,26.521224 63.1754385,26.3895768 63.1606509,26.2568898 C63.1403605,26.1136181 63.1201036,25.9703129 63.0883621,25.8301216 C62.8046532,24.8077753 62.0536747,23.9801106 61.0636408,23.5986457 C60.1795804,23.2699089 59.2486738,23.0845346 58.3061211,23.0495324 C57.7449713,22.9622028 57.1712847,23.004279 56.6288814,23.1725472 C55.8684607,23.4994291 55.2033914,24.0138725 54.6959022,24.6677425 C54.0177472,25.4274274 53.521302,25.976909 52.1808963,25.7784246 C50.800991,25.5357748 49.395818,25.4696965 47.9992312,25.5817818 C47.7045851,25.6134562 47.4110104,25.6580549 47.1182727,25.7025867 C46.7593736,25.7571967 46.4004745,25.8123424 46.0388968,25.8410369 C44.6964192,25.9280063 43.3518092,25.7072467 42.107614,25.1955944 C41.8027791,25.1124711 41.4911401,25.0566916 41.1763982,25.0289184 C40.4906094,24.9585261 39.81281,24.8247955 39.1516769,24.6294385 C39.1050608,24.5343468 39.0263579,24.4587745 38.9294534,24.4160544 C38.5229657,24.1343238 38.0154464,24.0397584 37.5347705,24.1561851 C37.0540947,24.2726117 36.646097,24.5889287 36.4135771,25.0254363 C36.3499603,25.1052586 36.2883524,25.1850474 36.223095,25.26045 C35.4691692,26.1303928 34.3581188,26.3579065 33.1816436,26.5986458 C32.221365,26.7948534 31.229278,26.9981592 30.3783198,27.5662906 C30.0597821,27.7859826 29.7697878,28.0444176 29.5150066,28.3356519 C29.1066873,28.7742728 29.0079473,28.8766959 28.3606633,28.6236015 C27.9070645,28.419945 27.4826768,28.1566577 27.0987407,27.8407133 C26.5462231,27.3708832 25.9042875,27.0178021 25.2116325,26.8027552 C24.0169803,26.5055065 22.7531135,26.8347624 21.855345,27.6771177 C21.7865719,27.7423417 21.7195734,27.8106795 21.6534119,27.8790508 C21.534311,28.0120236 21.4002773,28.1308225 21.2539655,28.2330949 C21.0585063,28.3383346 20.8448433,28.4055069 20.6243267,28.4310436 C19.9867985,28.5173385 19.3431081,28.5494961 18.7001534,28.5271719 C17.9571274,28.5013055 17.2133252,28.5461507 16.4787893,28.6611019 C14.9399663,28.9503574 13.3341782,30.1557615 13.3905963,31.8198091 C13.4371773,32.4243519 13.5739029,33.0185298 13.796237,33.5826302 C14.0167193,34.2334299 14.2256837,34.8484703 14.1295554,35.4807541 C13.9915686,36.1384783 13.7577553,36.7723777 13.4355968,37.3621703 C13.0683391,38.0422684 12.8038582,38.7730209 12.6507665,39.530632 C12.3474149,41.4684662 13.13931,43.6227649 14.7177428,45.153619 C15.97173,46.3683648 17.6692602,47.2206623 19.7644957,47.6884465 C20.6382132,50.6245322 20.6976646,53.7428549 19.9364954,56.71011 L19.8862716,56.8979134 C19.664015,57.5460944 19.587843,58.235404 19.6632111,58.9164739 C19.825759,59.6011041 20.1710592,60.2287869 20.6622959,60.7325992 C22.0646265,62.307812 23.9506144,63.3724123 26.0238514,63.7590839 C26.1984293,63.7912271 26.3765898,63.8193524 26.5556208,63.8472769 C27.340451,63.9706934 28.0811512,64.0870787 28.5838578,64.551816 C28.8866379,64.8759886 29.1312917,65.2499126 29.3070801,65.6571743 C29.3749492,65.789966 29.4419812,65.9226572 29.5125623,66.0522681 C30.6368718,68.1166662 32.758592,69.7105679 35.4869819,70.5403986 C37.8785042,71.268342 40.3803179,71.35168 42.7991619,71.4319376 C42.9279357,71.4363573 43.0566759,71.4394377 43.1853827,71.4394377 C44.171309,71.4394377 45.1668781,71.2697148 45.9597107,70.2295135 C46.1873128,69.9093491 46.3767031,69.5636729 46.524025,69.1995243 C46.7517061,68.6929672 46.947311,68.2555516 47.3714675,67.9953925 C48.2489104,67.4588351 49.6289593,67.4142699 50.9632376,67.3715127 C51.8497221,67.3765344 52.7343943,67.2908417 53.6034346,67.1157733 C53.7284713,67.0721694 53.8610762,67.0544774 53.9931711,67.0637749 C54.0485377,67.0771577 54.0939434,67.1166192 54.1149135,67.1695797 C54.2160456,67.4821814 54.1990947,67.8210092 54.0672679,68.1219564 L54.0267206,68.2229397 C53.7771419,68.8516744 53.434984,69.7129117 53.9597555,70.397964 C54.168274,70.6404684 54.431991,70.8293396 54.728715,70.9486844 C55.2242563,71.1864103 56.2543124,71.6823869 57.1061412,71.1413429 C57.5475636,70.7977809 57.8753949,70.3293439 58.0469999,69.7969528 C58.2957081,69.2246696 58.4412231,68.9517536 58.6995407,68.9244319 C58.9420546,68.9009941 59.208475,69.1364767 59.4914357,69.3869259 C59.588535,69.472909 59.6854669,69.5584234 59.7833363,69.6360693 C60.7615589,70.3894297 62.0714186,70.5529763 63.2048478,70.0632728 C64.3058944,69.5592582 65.1162466,68.57971 65.4050175,67.4037229 C65.485933,67.0474862 65.5425152,66.6861566 65.5743721,66.3222376 C65.6005762,66.0192707 65.6450437,65.7181618 65.7075321,65.4205534 C65.8494644,64.8041403 66.1662425,64.3566129 66.5531665,64.2243235 C66.7856941,64.1664128 67.0256376,64.1439717 67.2648709,64.1577603 C67.7074064,64.1964625 68.1518719,64.1093428 68.5470504,63.9064405 C68.8879787,63.6790157 69.1525515,63.3542294 69.3063335,62.9743542 C69.8483188,61.7656412 69.8321845,60.3798994 69.2622035,59.1841332 C69.706617,58.8697993 70.3759995,58.2079839 71.5524077,56.9584163 C71.8618866,56.6302876 72.2120133,56.2586317 72.2851726,56.2004726 C73.1731959,55.6096735 74.355698,55.2816118 75.4994943,54.9645659 C76.1908226,54.7865693 76.8722511,54.5721266 77.5409234,54.3221368 C79.8239958,53.4151959 81.3177514,52.1294337 81.9810065,50.5002749 C82.3703413,49.5440811 82.3448945,48.61541 81.909287,47.9522553 Z" id="Path" stroke="#D15421" stroke-width="0.5" fill="#FFFFFF" fill-rule="nonzero"></path>
                        <path d="M48.8034143,60.434136 C48.6141046,60.1872043 48.3473735,60.0109792 48.0459728,59.9337063 C48.1161147,59.5809918 48.052576,59.214797 47.8677119,58.9063287 C47.5947922,58.4125484 47.087053,58.0938896 46.5237237,58.0628371 C46.100808,58.0735011 45.6848975,58.1732516 45.303152,58.3555748 C44.9485634,58.5493593 44.5406446,58.622784 44.1407394,58.564807 C43.8437347,58.4375391 43.5833325,58.2379151 43.3832979,57.9841532 L43.2648368,57.8612054 C42.7978226,57.3840796 42.3629851,57.1745125 41.920815,57.2235978 C41.57152,57.2771025 41.2602787,57.4736376 41.061821,57.7660146 C40.984267,57.8649316 40.8959181,57.9548864 40.7984141,58.0342096 C40.5360338,58.2095535 40.2567316,58.3581445 39.9646994,58.4777525 C39.789318,58.5570391 39.6173183,58.6351203 39.459917,58.7183579 C39.0614126,58.8822399 38.7332026,59.1809983 38.5326856,59.5623852 C38.337516,60.0445334 38.5236788,60.5245723 38.6878101,60.9481596 L38.7514269,61.1145342 C38.8112967,61.2642068 38.8511175,61.4211371 38.8698545,61.581247 C38.8779746,61.7367811 38.8717428,61.8927326 38.8512383,62.0471228 L38.8365729,62.2120912 C38.7050464,63.268729 39.0828491,64.3250757 39.8546423,65.0586409 C40.2717064,65.4111553 40.8003379,65.6042219 41.3464224,65.6034684 C41.9122551,65.617825 42.4561325,65.3843189 42.8354235,64.9641867 C42.8918415,64.8984605 42.9437059,64.8279798 42.9950681,64.7574656 C43.0658911,64.6465626 43.1538345,64.5475783 43.2556291,64.4641923 C43.5298044,64.3332658 43.8522054,64.3535331 44.1078261,64.5177643 C44.2618873,64.6015937 44.4108647,64.694446 44.5539806,64.7958366 C44.7423241,64.9311437 44.9415316,65.050648 45.1495677,65.1531285 C45.6605772,65.3567952 46.2083812,65.4518815 46.7581348,65.4323392 C47.1071652,65.4539386 47.4573512,65.417046 47.7942178,65.3231862 C48.5194389,65.0483747 49.0586449,64.4283639 49.2301825,63.6720294 C49.378911,62.9776499 49.3756442,62.2593119 49.2206065,61.5663138 C49.1714772,61.1616136 49.0286288,60.7739512 48.8034143,60.434136 Z" id="Path" stroke="#D15421" stroke-width="0.5"></path>
                        <path d="M74.4383329,41.3586101 C74.4722731,41.2632824 74.457776,41.1574071 74.3994597,41.0747118 C74.6603889,40.1986752 72.8898334,40.7888381 72.6688823,40.9156698 C71.840056,41.3915234 71.0388194,41.9827912 70.2510427,42.5279535 C69.5412133,41.8917857 68.55368,40.6379993 67.5985577,40.4897722 C67.5339612,40.4688315 67.4636855,40.4744699 67.4032542,40.505442 C66.87115,40.5870389 66.4749848,41.4186442 66.5614367,41.9108372 C66.3522044,42.3418912 68.4089685,43.7744407 68.7370972,44.0632609 C68.1960867,44.8959376 67.5013914,45.7696639 67.2108301,46.7351658 C67.1151136,47.0560999 67.065631,47.389039 67.0638754,47.723938 C67.0888868,47.8877679 67.0853042,48.3054623 67.275284,48.3979411 C67.2695206,48.4597156 67.2890743,48.5211843 67.3294689,48.5682756 C67.3698635,48.6153669 67.42764,48.6440483 67.4895721,48.6477541 C68.0118994,49.6392384 68.9078915,47.3342684 68.9646444,47.1120115 C69.1021033,46.894749 69.2222416,46.6670002 69.3239453,46.4308766 C69.5587582,46.1183173 69.7847317,45.7956798 70.0339756,45.4942367 C70.2633978,45.7478333 70.489003,46.0094992 70.693782,46.2517117 C70.8774671,46.6269168 71.5601087,47.5318153 72.0418552,47.4836005 C72.6983134,47.7157683 73.0616322,46.7852556 73.1708857,46.3076275 C73.1708857,45.4239904 72.0606389,44.6791718 71.5962698,44.014075 C71.7268516,43.9164065 72.0081048,43.7751773 72.0588978,43.5993271 C72.3353629,43.4365686 72.9172221,43.2415329 73.0751591,42.9461502 C73.3044474,42.8626448 73.8173326,42.7904564 73.9643543,42.5749964 C74.0617295,42.5372918 74.1305511,42.4491817 74.1435528,42.3455742 C74.212677,42.2710313 74.2745733,42.1900987 74.3284098,42.1038639 C74.4946468,41.8925291 74.5364754,41.6089403 74.4383329,41.3586101 L74.4383329,41.3586101 Z" id="Path" fill="#CF2026" fill-rule="nonzero"></path>
                        <path d="M65.3325279,67.0157945 C64.9237348,67.0135881 64.5169908,66.9578569 64.1226706,66.8500225 L64.3554745,65.9778699 C65.1301133,66.2058578 65.9608325,66.1484411 66.6967396,65.8160489 L67.061699,66.6423639 C66.5183625,66.8882084 65.9288952,67.0155094 65.3325279,67.0157945 Z M63.2073255,66.5233001 C62.7009105,66.294074 62.2157568,66.0205168 61.7575325,65.7058244 C61.3916743,65.4701782 61.0770593,65.1632157 60.8324775,64.8032697 L61.5873409,64.3077284 C61.7671514,64.5674517 61.9971147,64.7885694 62.2636877,64.9580594 C62.6773547,65.2426119 63.115253,65.4902209 63.5723184,65.698023 L63.2073255,66.5233001 Z M67.9154362,66.1657068 L67.4127967,65.4161337 C68.1180645,64.9115879 68.7602205,64.3242104 69.3254855,63.6666052 L69.9939305,64.274179 C69.3799611,64.9862467 68.6820535,65.6213755 67.9154362,66.1657068 Z M60.4383548,63.7988611 C60.4052317,63.6030577 60.3887107,63.4048058 60.3889651,63.2062206 C60.4098621,62.6272362 60.482462,62.0512777 60.6059013,61.4852192 L60.700255,60.9628919 L61.59089,61.1163423 L61.4937907,61.6498527 C61.3816132,62.161106 61.3140373,62.6811338 61.2918242,63.2040777 C61.2914935,63.3516288 61.3032968,63.4989573 61.3271147,63.6445737 L60.4383548,63.7988611 Z M70.6006337,63.5898633 L69.9180926,62.9981602 L70.5336017,62.2825384 C70.9057599,61.8469308 71.2911102,61.3967584 71.6958803,60.9434721 L72.3696155,61.544885 C71.9692316,61.9933164 71.5882675,62.4386339 71.2196919,62.8694199 L70.6006337,63.5898633 Z M72.971899,60.887054 L72.3140345,60.2688663 C72.9411493,59.5935436 73.6090723,58.9572986 74.3140458,58.363711 L74.8925232,59.0577032 C74.2154476,59.6276048 73.5739994,60.2385376 72.9717986,60.887054 L72.971899,60.887054 Z M61.7223089,60.1925931 L60.8245756,60.0991099 C60.8527599,59.8357942 60.8668983,59.5711641 60.866931,59.3063444 C60.8706226,58.726482 60.7885971,58.1492576 60.6235131,57.5933788 L61.4886009,57.3341236 C61.67848,57.9737517 61.7732453,58.6378305 61.7698541,59.3050385 C61.7698348,59.601526 61.7539637,59.8978004 61.7223089,60.1925931 L61.7223089,60.1925931 Z M22.7433683,59.1149918 C22.6549475,58.6192517 22.6130239,58.1163364 22.6181437,57.6127986 C22.6180874,57.1609967 22.6493232,56.7097333 22.7116269,56.2622478 L23.605811,56.3874724 C23.5490962,56.7934903 23.5208016,57.2029729 23.5211337,57.6129326 C23.5166086,58.0555736 23.5523251,58.4977098 23.6278425,58.9338848 L22.7433683,59.1149918 Z M75.5821291,58.5126748 L75.0406834,57.7894524 C75.7849921,57.2306601 76.5790374,56.741391 77.4128193,56.3278066 L77.8112612,57.1373469 C77.0272608,57.5258251 76.2810152,57.986243 75.5821291,58.5126748 L75.5821291,58.5126748 Z M78.6059353,56.7776777 L78.2602618,55.9434608 C79.120696,55.5884436 80.0130421,55.3163369 80.9251688,55.1308401 L81.106845,56.0153142 C80.2508234,56.1891759 79.413379,56.4444578 78.6059353,56.7776777 L78.6059353,56.7776777 Z M60.3387108,56.7168399 C60.2712469,56.463413 60.2354049,56.2026112 60.232002,55.9403804 C60.232002,54.833214 60.989477,54.287382 61.5600526,53.9725458 L61.9956602,54.7635703 C61.3766019,55.105092 61.1349921,55.4350622 61.1349921,55.9403804 C61.1383648,56.1273448 61.1647238,56.3131844 61.2134751,56.4937124 L60.3387108,56.7168399 Z M81.9684171,55.865413 L81.8414514,54.9712289 C82.0980614,54.9346325 82.3617363,54.9028911 82.6307013,54.8774778 C83.1763849,54.8532021 83.6956076,54.6354716 84.095394,54.2632745 L84.730323,54.9043643 C84.1830286,55.4232201 83.4699787,55.7319708 82.7171197,55.7760817 C82.4622284,55.8006578 82.2127056,55.8304907 81.968551,55.8655804 L81.9684171,55.865413 Z M23.7707459,55.5484005 L22.8950776,55.3279516 C23.1239436,54.3932865 23.527216,53.5102336 24.083707,52.7251881 L24.8173759,53.2508637 C24.3272134,53.944134 23.9721261,54.7235881 23.7707124,55.5484005 L23.7707459,55.5484005 Z M62.7673317,54.4055418 L62.4251739,53.5704543 C62.650009,53.4778417 62.8890072,53.3856978 63.1385524,53.2892011 C63.6791277,53.0806385 64.2920251,52.8443189 64.902244,52.5475634 L65.2973377,53.3597488 C64.6526988,53.6732456 64.021319,53.91663 63.4640025,54.1317887 C63.2205511,54.2256402 62.9868431,54.3156077 62.7672983,54.4055418 L62.7673317,54.4055418 Z M85.3345485,54.0501583 L84.5250417,53.6506784 C84.8489685,52.8759818 85.0023545,52.0406383 84.9747789,51.2013988 L85.8777689,51.2163655 C85.9053597,52.1892821 85.7198881,53.1564657 85.3343476,54.0501583 L85.3345485,54.0501583 Z M66.1256283,52.9174448 L65.6688597,52.1387753 C66.4129637,51.7092149 67.0878513,51.1696299 67.6706455,50.538311 L68.3355079,51.1494339 C67.6922375,51.8469576 66.9470521,52.4430517 66.1252934,52.9174448 L66.1256283,52.9174448 Z M25.3512881,52.6004323 L24.6934571,51.9822446 C24.8062932,51.8614396 24.9259262,51.7423981 25.0523562,51.62512 C25.6385297,51.0765014 26.3259288,50.6472807 27.0761735,50.3614229 L27.400686,51.2044792 C26.7580985,51.4491042 26.1692485,51.8164247 25.6669613,52.2859645 C25.5572056,52.3887893 25.4514678,52.4938909 25.3509533,52.6004323 L25.3512881,52.6004323 Z M28.2058067,50.9540299 L27.990648,50.0774911 C28.8316221,49.8919208 29.6847528,49.7665236 30.543556,49.7022525 L30.7313595,49.6833014 L30.821327,50.5819052 L30.6334901,50.6008563 C29.8168981,50.6617531 29.0055737,50.7797663 28.2054718,50.9540299 L28.2058067,50.9540299 Z M31.7296072,50.4840023 L31.6202868,49.5871731 C32.4906832,49.4933466 33.3503895,49.3182733 34.1881615,49.0642432 L34.4597717,49.9258153 C33.5689529,50.19642 32.6548223,50.3832928 31.7292724,50.4840023 L31.7296072,50.4840023 Z M84.9643323,50.3230519 C84.9308498,49.4641583 84.8399783,48.5325073 84.7473991,47.6533234 L85.6450989,47.5580656 C85.7394526,48.4527185 85.8320318,49.4024501 85.8673223,50.2877948 L84.9643323,50.3230519 Z M35.3416008,49.6061242 L34.9994764,48.7701662 C35.5346659,48.5504017 36.0508185,48.2868716 36.5426857,47.9822556 C36.7781148,47.8378946 37.002163,47.6757462 37.2128717,47.4972279 L37.8001886,48.1832846 C37.5540273,48.3920207 37.2922311,48.5815845 37.0170994,48.7503111 C36.4829141,49.0810764 35.9224108,49.3673137 35.341266,49.6061242 L35.3416008,49.6061242 Z M38.4889574,47.4751964 L37.7817397,46.9134602 C38.2850287,46.2653504 38.5754975,45.4774144 38.6133115,44.6577095 L39.5127524,44.7309023 C39.4595965,45.7287907 39.102178,46.6864794 38.4885556,47.4751964 L38.4889574,47.4751964 Z M84.6504672,46.7553222 C84.601047,46.2914889 84.5516938,45.8263163 84.5084679,45.3637888 C84.466146,44.9039064 84.4158887,44.4788794 84.3568255,44.0833504 L85.2492351,43.9484493 C85.3118139,44.3606861 85.3638792,44.8024879 85.4079757,45.2800156 C85.4511681,45.7381234 85.4987803,46.1997803 85.548167,46.6592274 L84.6504672,46.7553222 Z M38.6314255,43.8058473 C38.5964419,43.0762057 38.5246197,42.3487973 38.4162334,41.6264032 L38.3553957,41.1559404 L39.2513543,41.0420998 L39.3121921,41.5086117 C39.410095,42.2586201 39.5123506,43.034611 39.5344156,43.7793291 L38.6314255,43.8058473 Z M84.2029399,43.220305 C84.0411748,42.3768293 83.7528005,41.5626623 83.3475955,40.8054119 L84.139457,40.3706749 C84.5878069,41.2059511 84.9071311,42.1042852 85.086577,43.0351467 L84.2029399,43.220305 Z M38.2539771,40.244111 C38.2134298,39.814229 38.1870121,39.3856527 38.1860746,38.9597216 C38.1816819,38.4413193 38.2289471,37.9237688 38.3271699,37.4147378 L39.2125481,37.5911237 C39.1264173,38.0418499 39.085055,38.4999867 39.0890646,38.9588511 C39.0899686,39.3556859 39.1146452,39.7569069 39.1534515,40.1585966 L38.2539771,40.244111 Z M82.8962177,40.0836293 C82.3801742,39.3776901 81.7988316,38.721889 81.1598813,38.124902 L81.7893526,37.477618 C82.4688593,38.1138111 83.0868379,38.8126846 83.6350764,39.5649516 L82.8962177,40.0836293 Z M80.5135013,37.5099956 C80.1801493,37.1995792 79.8212502,36.8719862 79.4341254,36.5201184 C79.1438577,36.2564383 78.8362454,36.0125073 78.5133561,35.7899652 L79.0248016,35.0456823 C79.3811833,35.2911924 79.7205858,35.5604794 80.0406947,35.8517069 C80.4313352,36.2061863 80.7937834,36.5364244 81.1288765,36.849486 L80.5135013,37.5099956 Z M39.4401957,36.7901215 L38.5918492,36.479705 L38.6465596,36.3399155 C38.9897179,35.5032507 39.4557918,34.7224697 40.0293876,34.0233606 L40.729574,34.5929987 C40.2123811,35.2233305 39.792115,35.9272912 39.4826516,36.6816381 L39.4401957,36.7901215 Z M77.7832364,35.3389222 C77.0238656,34.9253306 76.2131981,34.6138394 75.3722607,34.4125279 L75.5892274,33.5359891 C76.5064751,33.7561097 77.3906516,34.0963517 78.2188439,34.5478977 L77.7832364,35.3389222 Z M74.5195615,34.2322245 C73.6496422,34.0843924 72.7702498,33.9990726 71.8881369,33.9769203 L71.9182712,33.0748009 C72.8429739,33.098013 73.7648072,33.1877436 74.6766279,33.3432972 L74.5195615,34.2322245 Z M65.4807215,34.1510629 C65.1791444,34.1510629 64.9048222,34.1413865 64.6500202,34.1224354 L64.7169853,33.222057 C65.1852246,33.2527752 65.6548404,33.2566097 66.1235189,33.2335415 L67.3668921,33.1748801 L67.4109886,34.0769996 L66.1623251,34.1356275 C65.9216193,34.1462079 65.6949761,34.1510629 65.480688,34.1510629 L65.4807215,34.1510629 Z M68.311434,34.0342424 L68.2708531,33.1321229 C69.1641332,33.0915421 70.050382,33.0598007 70.9226685,33.0593654 L70.9994105,33.5108772 L70.9994105,33.9623554 C70.0644781,33.9627907 69.1905844,33.9945321 68.3114005,34.0342424 L68.311434,34.0342424 Z M63.7047083,33.9972107 C62.8441233,33.8054557 62.0195687,33.4778672 61.2620247,33.0267535 L61.0935742,32.9367859 L61.5151191,32.1387301 L61.6861813,32.2291329 C62.366166,32.637681 63.106729,32.9356263 63.8801902,33.1118325 L63.7047083,33.9972107 Z M41.3025269,33.9500004 L40.6570174,33.3186206 C41.3177152,32.6477043 42.0594689,32.061763 42.8651225,31.5743488 L43.3342795,32.3459534 C42.5929927,32.7941274 41.9104678,33.3329646 41.3024934,33.9500004 L41.3025269,33.9500004 Z M60.3034537,32.5360002 C59.512201,32.1551696 58.6918478,31.8380231 57.8501897,31.5875744 L58.1129605,30.7233906 C58.9994412,30.9873359 59.8634527,31.3215806 60.6967729,31.7229442 L60.3034537,32.5360002 Z M44.094567,31.9226674 L43.6836026,31.1184509 C44.5173162,30.6964224 45.3919388,30.3606151 46.2938662,30.1162521 L46.5319604,30.9875007 C45.6896352,31.2151592 44.8728505,31.5285174 44.0943996,31.9226674 L44.094567,31.9226674 Z M57.000236,31.3477057 C56.2189214,31.1434623 55.3415121,30.9557593 54.3908764,30.7890833 L54.5478425,29.8992854 C55.5213801,30.0703811 56.4234996,30.2639435 57.2277497,30.4738119 L57.000236,31.3477057 Z M47.3829185,30.7828891 L47.1977602,29.8992854 C48.1068099,29.7122165 49.0296202,29.5997095 49.9569875,29.5628866 L49.9940527,30.465006 C49.1164273,30.4998374 48.2431016,30.6061505 47.3827511,30.7828891 L47.3829185,30.7828891 Z M53.5151077,30.6498965 C52.6402871,30.526309 51.7583402,30.4598839 50.8748773,30.4510438 L50.8819421,29.5480538 C51.804943,29.5571562 52.7263655,29.6265008 53.6403323,29.7556454 L53.5151077,30.6498965 Z" id="Shape" fill="#00B8B0" fill-rule="nonzero"></path>
                        <path d="M8.83904979,5.15530322 L8.83904979,60.4002852 C6.50677619,60.4002941 4.27002997,61.3267947 2.62086977,62.9759674 C0.971709566,64.6251402 0.0452348811,66.8618934 0.0452348811,69.194167 L0.0452348811,8.83904979 C0.0452348811,6.50678235 0.971711703,4.27003595 2.62087383,2.62087383 C4.27003595,0.971711703 6.50678235,0.0452348811 8.83904979,0.0452348811 L8.83904979,5.15530322 Z" id="Path" stroke="#424242" stroke-width="0.5" fill="#E6E7E9" fill-rule="nonzero"></path>
                        <circle id="Oval" fill="#D15527" fill-rule="nonzero" cx="25.4411887" cy="55.4833105" r="4.27916618"></circle>
                        <circle id="Oval" fill="#FAB579" fill-rule="nonzero" cx="25.4411887" cy="55.4833105" r="2.70803253"></circle>
                        <circle id="Oval" fill="#008FB5" fill-rule="nonzero" cx="25.4411887" cy="55.4833105" r="1.65694934"></circle>
                        <circle id="Oval" fill="#19488F" fill-rule="nonzero" cx="25.4411887" cy="55.4833105" r="1"></circle>
                        <circle id="Oval" fill="#EF7822" fill-rule="nonzero" cx="45.429582" cy="29.1031381" r="4.79429471"></circle>
                        <circle id="Oval" fill="#FAB579" fill-rule="nonzero" cx="45.106844" cy="29.3250603" r="3.71284288"></circle>
                        <path d="M68.2373706,54.3774834 C68.5408542,53.4031233 68.5805174,52.3657091 68.3523161,51.3710212 C68.1173358,50.3778293 67.7090165,49.2649709 67.0297567,48.9652019 C66.479438,48.7223197 66.1154161,48.5533669 65.8188279,48.4024277 C64.4509695,47.695381 62.8615839,47.5486207 61.3873833,47.9932379 C60.6075754,48.2267115 59.7524654,48.3782868 59.6529889,48.9544205 C59.4939804,49.8764956 58.4596385,50.2799264 58.3779411,51.3130964 C58.2962438,52.3462665 57.4467588,53.2774488 57.91086,53.9822558 C58.3749612,54.6870628 57.6749087,55.9491528 58.926954,56.5209337 C60.1789992,57.0927147 59.5351974,58.0289194 61.674295,57.9323893 C63.8133926,57.8358592 64.183073,58.4678417 65.5302421,57.6597076 C65.93361,57.4149044 66.3168354,57.1383569 66.6762817,56.8326895 C67.4191375,56.1791428 67.9605427,55.3275833 68.2371697,54.3776173 L68.2373706,54.3774834 Z" id="Path" stroke="#008FB5" stroke-width="0.631575" fill="#ADDFEA" fill-rule="nonzero"></path>
                        <path d="M59.8033923,56.0974803 C60.571046,57.0019771 61.5980553,57.6519062 62.6653105,56.2996478 C63.7136816,54.9712959 62.2356963,54.622542 62.7672983,54.4055418 C62.978573,54.3192908 63.0568551,54.4663795 63.2321695,54.4716697 C63.5450795,54.5453859 63.86805,54.3969604 64.0158948,54.1114983 C64.3567803,53.5310454 63.6829447,52.9461058 63.9483271,52.9338847 C64.3292007,52.9438216 64.7020857,53.0452973 65.035471,53.2297362 C66.3434655,53.8564954 67.4424622,52.1773472 67.3524612,51.1457173 C67.1222354,48.5049177 63.5372288,48.1979835 62.628078,48.488009 C60.9287063,49.030158 60.2921032,49.6272517 59.3159873,50.9891531 C58.3108422,52.3915014 59.0357052,55.1925818 59.8033923,56.0974803 Z" id="Path" fill="#008FB5" fill-rule="nonzero"></path>
                    </g>
                </g>
            </g>
        </g>
    </g>
</svg>