<?xml version="1.0" encoding="UTF-8"?>
<svg width="180px" height="180px" viewBox="0 0 180 180" version="1.1" xmlns="http://www.w3.org/2000/svg" xmlns:xlink="http://www.w3.org/1999/xlink">
    <title>icon/circle/account-dashboard</title>
    <g id="icon/circle/account-dashboard" stroke="none" stroke-width="1" fill="none" fill-rule="evenodd">
        <g id="Group-5">
            <circle id="Oval" fill="#E7EBF1" cx="90" cy="90" r="90"></circle>
            <g id="Group" transform="translate(40.000000, 46.000000)">
                <rect id="Rectangle" stroke="#999A9C" stroke-width="2" fill="#E6E7E9" x="5.8575355" y="5.8575355" width="93.9917545" height="81.1424645" rx="6"></rect>
                <rect id="Rectangle" stroke="#999A9C" stroke-width="2" fill="#FFFFFF" x="1" y="1" width="93.9917545" height="81.1424645" rx="6"></rect>
                <rect id="Rectangle" stroke="#999A9C" stroke-width="2" fill="#E6E7E9" x="37.3353184" y="23.0293175" width="49.0810811" height="9.35135135" rx="2"></rect>
                <rect id="Rectangle-Copy" stroke="#999A9C" stroke-width="2" fill="#E6E7E9" x="37.3353184" y="38.4347229" width="49.0810811" height="18.2702703" rx="2"></rect>
                <circle id="Oval" fill="#979797" cx="21.548328" cy="7.55840586" r="2.26752176"></circle>
                <circle id="Oval-Copy" fill="#979797" cx="14.7457627" cy="7.55840586" r="2.26752176"></circle>
                <circle id="Oval-Copy-2" fill="#979797" cx="7.94319743" cy="7.55840586" r="2.26752176"></circle>
                <line x1="28.7219423" y1="15.8726523" x2="28.7219423" y2="80.8749427" id="Line-2" stroke="#979797" stroke-width="2" stroke-linecap="square"></line>
                <line x1="2.26752176" y1="14.3609711" x2="94.4800733" y2="14.3609711" id="Line" stroke="#999A9C" stroke-width="2" stroke-linecap="square"></line>
                <g id="Group-2" transform="translate(5.802565, 21.297297)" fill="#999A9C" fill-rule="nonzero">
                    <path d="M13.0934494,0.377920293 C13.6457341,0.377920293 14.0934494,0.825635543 14.0934494,1.37792029 C14.0934494,1.89075613 13.7074092,2.31342745 13.2100705,2.37119256 L13.0934494,2.37792029 L1,2.37792029 C0.44771525,2.37792029 0,1.93020504 0,1.37792029 C0,0.865084454 0.38604019,0.442413132 0.883378875,0.384648024 L1,0.377920293 L13.0934494,0.377920293 Z" id="Line-4"></path>
                    <path d="M9.31424645,6.42464498 C9.8665312,6.42464498 10.3142464,6.87236023 10.3142464,7.42464498 C10.3142464,7.93748082 9.92820626,8.36015214 9.43086758,8.41791725 L9.31424645,8.42464498 L1,8.42464498 C0.44771525,8.42464498 0,7.97692973 0,7.42464498 C0,6.91180914 0.38604019,6.48913782 0.883378875,6.43137272 L1,6.42464498 L9.31424645,6.42464498 Z" id="Line-4-Copy"></path>
                    <path d="M16.8726523,12.4713697 C17.4249371,12.4713697 17.8726523,12.9190849 17.8726523,13.4713697 C17.8726523,13.9842055 17.4866121,14.4068768 16.9892734,14.4646419 L16.8726523,14.4713697 L1,14.4713697 C0.44771525,14.4713697 0,14.0236544 0,13.4713697 C0,12.9585338 0.38604019,12.5358625 0.883378875,12.4780974 L1,12.4713697 L16.8726523,12.4713697 Z" id="Line-4-Copy"></path>
                    <path d="M12.3376088,18.5180944 C12.8898935,18.5180944 13.3376088,18.9658096 13.3376088,19.5180944 C13.3376088,20.0309302 12.9515686,20.4536015 12.4542299,20.5113666 L12.3376088,20.5180944 L1,20.5180944 C0.44771525,20.5180944 0,20.0703791 0,19.5180944 C0,19.0052585 0.38604019,18.5825872 0.883378875,18.5248221 L1,18.5180944 L12.3376088,18.5180944 Z" id="Line-4-Copy"></path>
                    <path d="M14.6051306,24.5648191 C15.1574153,24.5648191 15.6051306,25.0125343 15.6051306,25.5648191 C15.6051306,26.0776549 15.2190904,26.5003262 14.7217517,26.5580913 L14.6051306,26.5648191 L1,26.5648191 C0.44771525,26.5648191 0,26.1171038 0,25.5648191 C0,25.0519832 0.38604019,24.6293119 0.883378875,24.5715468 L1,24.5648191 L14.6051306,24.5648191 Z" id="Line-4-Copy"></path>
                    <path d="M8.55840586,30.6115437 C9.11069061,30.6115437 9.55840586,31.059259 9.55840586,31.6115437 C9.55840586,32.1243796 9.17236567,32.5470509 8.67502699,32.604816 L8.55840586,32.6115437 L1,32.6115437 C0.44771525,32.6115437 0,32.1638285 0,31.6115437 C0,31.0987079 0.38604019,30.6760366 0.883378875,30.6182715 L1,30.6115437 L8.55840586,30.6115437 Z" id="Line-4-Copy"></path>
                </g>
            </g>
        </g>
    </g>
</svg>
