<?xml version="1.0" encoding="UTF-8"?>
<svg width="22px" height="22px" viewBox="0 0 22 22" version="1.1" xmlns="http://www.w3.org/2000/svg" xmlns:xlink="http://www.w3.org/1999/xlink">
    <title>0AFE43AC-C71F-4E56-A502-24B1736B03B4</title>
    <g id="Navigation-M" stroke="none" stroke-width="1" fill="none" fill-rule="evenodd">
        <g id="NavBar-Open-Account" transform="translate(-25.000000, -543.000000)" fill="#FFFFFF">
            <g id="Secondary" transform="translate(0.000000, 474.000000)">
                <g id="L3" transform="translate(0.000000, 69.000000)">
                    <g id="header/mobile/nav-item/L3" transform="translate(25.000000, 0.000000)">
                        <g id="icon/account/dashboard">
                            <path d="M8.70828246,9.23328246 C9.52005065,9.23328246 10.1885645,9.85669812 10.2603384,10.6500437 L10.2667175,10.7917175 L10.2667175,19.5417175 C10.2667175,20.3533654 9.64327936,21.0218501 8.84995254,21.0936211 L8.70828246,21.1 L2.45828246,21.1 C1.64665841,21.1 0.978152532,20.4765843 0.906379113,19.6833673 L0.9,19.5417175 L0.9,10.7917175 C0.9,9.9799732 1.52339314,9.31143811 2.31662892,9.23966182 L2.45828246,9.23328246 L8.70828246,9.23328246 Z M19.5417175,14.2332825 C20.3533654,14.2332825 21.0218501,14.8567206 21.0936211,15.6500475 L21.1,15.7917175 L21.1,19.5417175 C21.1,20.3533416 20.4765843,21.0218475 19.6833673,21.0936209 L19.5417175,21.1 L13.2917175,21.1 C12.4799732,21.1 11.8114381,20.4766069 11.7396618,19.6833711 L11.7332825,19.5417175 L11.7332825,15.7917175 C11.7332825,14.9799494 12.3566981,14.3114355 13.1500437,14.2396616 L13.2917175,14.2332825 L19.5417175,14.2332825 Z M8.70828246,10.6832825 L2.45828246,10.6832825 C2.4135206,10.6832825 2.37499265,10.7106338 2.35852629,10.749542 L2.35,10.7917175 L2.35,19.5417175 C2.35,19.5864702 2.3773444,19.6250027 2.41618996,19.641472 L2.45828246,19.65 L8.70828246,19.65 C8.75314034,19.65 8.79170613,19.6226625 8.80818541,19.5838152 L8.81671754,19.5417175 L8.81671754,10.7917175 C8.81671754,10.7318947 8.76810528,10.6832825 8.70828246,10.6832825 Z M19.5417175,15.6832825 L13.2917175,15.6832825 C13.2468504,15.6832825 13.2082893,15.7106269 13.1918129,15.7495368 L13.1832825,15.7917175 L13.1832825,19.5417175 C13.1832825,19.5864794 13.2106338,19.6250074 13.249542,19.6414737 L13.2917175,19.65 L19.5417175,19.65 C19.5864702,19.65 19.6250027,19.6226556 19.641472,19.58381 L19.65,19.5417175 L19.65,15.7917175 C19.65,15.731907 19.6014,15.6832825 19.5417175,15.6832825 Z M19.5417175,0.9 C20.3533416,0.9 21.0218475,1.52341566 21.0936209,2.31663267 L21.1,2.45828246 L21.1,11.2082825 C21.1,12.0200268 20.4766069,12.6885619 19.6833711,12.7603382 L19.5417175,12.7667175 L13.2917175,12.7667175 C12.4799494,12.7667175 11.8114355,12.1433019 11.7396616,11.3499563 L11.7332825,11.2082825 L11.7332825,2.45828246 C11.7332825,1.64663457 12.3567206,0.978149883 13.1500475,0.906378893 L13.2917175,0.9 L19.5417175,0.9 Z M19.5417175,2.35 L13.2917175,2.35 C13.2468597,2.35 13.2082939,2.37733749 13.1918146,2.41618478 L13.1832825,2.45828246 L13.1832825,11.2082825 C13.1832825,11.2531496 13.2106269,11.2917107 13.2495368,11.3081871 L13.2917175,11.3167175 L19.5417175,11.3167175 C19.5864794,11.3167175 19.6250074,11.2893662 19.6414737,11.250458 L19.65,11.2082825 L19.65,2.45828246 C19.65,2.39861226 19.6013877,2.35 19.5417175,2.35 Z M8.70828246,0.9 C9.5200268,0.9 10.1885619,1.52339314 10.2603382,2.31662892 L10.2667175,2.45828246 L10.2667175,6.20828246 C10.2667175,7.02005065 9.64330188,7.68856454 8.8499563,7.7603384 L8.70828246,7.76671754 L2.45828246,7.76671754 C1.64663457,7.76671754 0.978149883,7.14327936 0.906378893,6.34995254 L0.9,6.20828246 L0.9,2.45828246 C0.9,1.64665841 1.52341566,0.978152532 2.31663267,0.906379113 L2.45828246,0.9 L8.70828246,0.9 Z M8.70828246,2.35 L2.45828246,2.35 C2.41352981,2.35 2.37499725,2.3773444 2.35852801,2.41618996 L2.35,2.45828246 L2.35,6.20828246 C2.35,6.25314034 2.37733749,6.29170613 2.41618478,6.30818541 L2.45828246,6.31671754 L8.70828246,6.31671754 C8.75314957,6.31671754 8.79171075,6.28937314 8.80818714,6.25046319 L8.81671754,6.20828246 L8.81671754,2.45828246 C8.81671754,2.39859998 8.76809297,2.35 8.70828246,2.35 Z" id="Combined-Shape"></path>
                        </g>
                    </g>
                </g>
            </g>
        </g>
    </g>
</svg>