<?xml version="1.0" encoding="UTF-8"?>
<svg width="19px" height="19px" viewBox="0 0 19 19" version="1.1" xmlns="http://www.w3.org/2000/svg" xmlns:xlink="http://www.w3.org/1999/xlink">
    <title>2225B16B-7D8E-4201-86DD-7EF019A2A85A</title>
    <g id="PDP---Single-Format-Antibody---D" stroke="none" stroke-width="1" fill="none" fill-rule="evenodd">
        <g id="PDP-SAF-product" transform="translate(-947.000000, -1140.000000)" fill="#004593">
            <g id="Tab-Content" transform="translate(135.000000, 1065.000000)">
                <g id="Group-19" transform="translate(785.000000, 8.000000)">
                    <g id="Group-5" transform="translate(23.000000, 65.000000)">
                        <g id="icon/download" transform="translate(4.000000, 2.000000)">
                            <path d="M9.48829576,2.8248576e-05 C9.48660036,2.8248576e-05 9.48405704,0.000910396811 9.48151371,0.000910396811 C9.10764378,0.00854014746 8.81008003,0.31711664 8.81687293,0.690986576 L8.81687293,12.6256563 L5.87769575,9.86292087 C5.74714185,9.73491051 5.5707999,9.66454648 5.38769543,9.66793642 C5.11048868,9.67556617 4.86548853,9.85105174 4.76967174,10.1113196 C4.67387449,10.3715767 4.74593565,10.664062 4.95193849,10.8497057 L9.02615936,14.689973 C9.28726281,14.936666 9.69587854,14.936666 9.9570037,14.689973 L14.0381694,10.8497057 C14.3111441,10.5928343 14.3238618,10.1630151 14.0661462,9.89088678 C13.8092747,9.61791203 13.3794556,9.60604073 13.1073272,9.86291002 L10.1731416,12.62239 L10.1731416,0.690975724 C10.1765326,0.507860407 10.1061697,0.330669887 9.97731078,0.200975411 C9.84760328,0.070421514 9.67126133,-0.00163748328 9.48815687,2.8248576e-05 L9.48829576,2.8248576e-05 Z M0.670764211,11.5752995 C0.647874525,11.5761855 0.624138439,11.5778812 0.601248753,11.5812722 C0.254507013,11.6202695 -0.00575004054,11.916989 9.65825633e-05,12.2662483 L9.65825633e-05,18.3251679 L9.65825633e-05,18.3243202 C0.00189186354,18.6973437 0.303685005,18.9991395 0.675862141,18.999993 L18.309189,18.999993 C18.6839054,19.0016813 18.9882403,18.6990365 18.9899331,18.3243202 L18.9899331,12.2654006 L18.9899331,12.2662483 C18.9899331,11.8906855 18.6864446,11.587197 18.3108818,11.587197 C17.9361655,11.587197 17.6318306,11.8906855 17.6318306,12.2662483 L17.6318306,17.6443587 L1.35664963,17.643511 L1.35664963,12.2654006 C1.36004065,12.0822852 1.28882914,11.9059628 1.15912164,11.7754003 C1.03026271,11.6456928 0.853940296,11.5736338 0.670814127,11.5752995 L0.670764211,11.5752995 Z" id="Shape"></path>
                        </g>
                    </g>
                </g>
            </g>
        </g>
    </g>
</svg>
