<?xml version="1.0" encoding="UTF-8"?>
<svg width="32px" height="24px" viewBox="0 0 32 24" version="1.1" xmlns="http://www.w3.org/2000/svg" xmlns:xlink="http://www.w3.org/1999/xlink">
    <title>1B7C01B6-39BA-40EC-9FCF-933E1F7DB6D2</title>
    <g id="Desktop" stroke="none" stroke-width="1" fill="none" fill-rule="evenodd">
        <g id="My-Cart---price-confirmation-pdf" transform="translate(-1104.000000, -19.000000)" fill="#FFFFFF" fill-rule="nonzero">
            <g id="561127" transform="translate(1104.000000, 19.000000)">
                <path d="M28.7384615,0 L2.76923077,0 C1.24418462,0 0,1.24283077 0,2.76923077 L0,21.2307692 C0,22.752 1.23864615,24 2.76923077,24 L28.7384615,24 C30.2596923,24 31.5076923,22.7613538 31.5076923,21.2307692 L31.5076923,2.76923077 C31.5076923,1.248 30.2690462,0 28.7384615,0 Z M28.3560615,1.84615385 L15.8125538,14.3897231 L3.16055385,1.84615385 L28.3560615,1.84615385 Z M1.84615385,20.8484923 L1.84615385,3.14270769 L10.7371692,11.9574769 L1.84615385,20.8484923 Z M3.15156923,22.1538462 L12.0481846,13.2572308 L15.1655385,16.3478154 C15.5264,16.7056 16.1087385,16.7044308 16.4681231,16.3449846 L19.5076923,13.3054154 L28.3561231,22.1538462 L3.15156923,22.1538462 Z M29.6615385,20.8484308 L20.8131077,12 L29.6615385,3.15150769 L29.6615385,20.8484308 Z" id="Shape"></path>
            </g>
        </g>
    </g>
</svg>