<?xml version="1.0" encoding="UTF-8"?>
<svg width="27px" height="24px" viewBox="0 0 27 24" version="1.1" xmlns="http://www.w3.org/2000/svg" xmlns:xlink="http://www.w3.org/1999/xlink">
    <title>icon/Favorite - filled</title>
    <g id="icon/Favorite---filled" stroke="none" stroke-width="1" fill="none" fill-rule="evenodd">
        <path d="M8.94308155,5.06345824 C9.98961503,5.06102873 10.993647,5.47727887 11.7314777,6.21946757 L12.8684319,7.3564218 C13.0272822,7.51544892 13.2428356,7.6048043 13.4676089,7.6048043 C13.6923822,7.6048043 13.9079356,7.51544892 14.0667859,7.3564218 L15.2037402,6.21946757 C16.1920626,5.18518755 17.6629166,4.76709818 19.0475005,5.12688103 C20.4320845,5.48666388 21.5133361,6.56791555 21.873119,7.95249947 C22.2329018,9.3370834 21.8148125,10.8079374 20.7805324,11.7962598 L13.4676089,19.1091834 L6.15468541,11.7962598 C5.02720037,10.6681931 4.69001519,8.97214251 5.30028438,7.4985996 C5.91055357,6.02505669 7.34816561,5.06404009 8.94308155,5.06345824 Z" id="Shape-Copy" fill="#F27707" fill-rule="nonzero"></path>
    </g>
</svg>