<?xml version="1.0" encoding="UTF-8"?><svg xmlns="http://www.w3.org/2000/svg" width="30" height="18" xmlns:xlink="http://www.w3.org/1999/xlink" viewBox="0 0 30 18"><defs><style>.g{fill:none;}.h{fill:#fff;}.i{clip-path:url(#f);}.j{clip-path:url(#e);}.k{clip-path:url(#d);}</style><clipPath id="d"><path class="g" d="M28.5,8c.5523,0,1,.4477,1,1,0,.5128-.386,.9355-.8834,.9933l-.1166,.0067H1c-.5523,0-1-.4477-1-1,0-.5128,.386-.9355,.8834-.9933l.1166-.0067H28.5Z"/></clipPath><clipPath id="e"><path class="g" d="M28.8,16c.6627,0,1.2,.4477,1.2,1,0,.5128-.4632,.9355-1.06,.9933l-.14,.0067H1.2c-.6627,0-1.2-.4477-1.2-1,0-.5128,.4632-.9355,1.0601-.9933l.1399-.0067H28.8Z"/></clipPath><clipPath id="f"><path class="g" d="M28.6364,0c.7531,0,1.3636,.4477,1.3636,1,0,.5128-.5264,.9355-1.2046,.9933l-.159,.0067H1.3636c-.7531,0-1.3636-.4477-1.3636-1C0,.4872,.5264,.0645,1.2046,.0067l.159-.0067H28.6364Z"/></clipPath></defs><g id="a"/><g id="b"><g id="c"><g><g class="k"><rect class="h" x="-5" y="3" width="39.5" height="12"/></g><g class="j"><rect class="h" x="-5" y="11" width="40" height="12"/></g><g class="i"><rect class="h" x="-5" y="-5" width="40" height="12"/></g></g></g></g></svg>