<?xml version="1.0" encoding="UTF-8"?>
<svg width="296px" height="235px" viewBox="0 0 296 235" version="1.1" xmlns="http://www.w3.org/2000/svg" xmlns:xlink="http://www.w3.org/1999/xlink">
    <title>350C5FE9-5935-467E-9FF4-4591D388768E</title>
    <g id="Page-1" stroke="none" stroke-width="1" fill="none" fill-rule="evenodd">
        <g id="ICM-intro" transform="translate(-572.000000, -471.000000)">
            <g id="Group-2" transform="translate(573.000000, 420.000000)">
                <g id="Step-2" transform="translate(0.000000, 52.000000)">
                    <g id="Layer_1-2-2">
                        <g id="desktop_white" fill="#F3F3F3" fill-rule="nonzero" stroke="#434343" stroke-width="0.5">
                            <rect id="Rectangle" x="0.0929725552" y="0.0929725552" width="294.149737" height="233.600318" rx="3.8844"></rect>
                        </g>
                        <path d="M7.74901703,10.240305 C7.74901703,11.2040971 6.96774974,11.9854505 6.00395773,11.9854505 C5.04016571,11.9854505 4.2588,11.2041955 4.2588,10.2404035 C4.2588,9.27661145 5.04004269,8.49527421 6.0038347,8.49523344 L6.0038347,8.49523344 C6.96763749,8.49523344 7.74897627,9.27650226 7.74901703,10.240305 L7.74901703,10.240305 Z" id="Path" fill="#EE3C43" fill-rule="nonzero"></path>
                        <path d="M14.7675407,10.240305 C14.7675407,11.2041019 13.9862659,11.9854505 13.0224691,11.9854505 C12.0586723,11.9854505 11.2773237,11.2041757 11.2773237,10.2403789 C11.2773237,9.27658204 12.0585984,8.49523344 13.0223953,8.49523344 L13.0223953,8.49523344 C13.4852298,8.49523344 13.9291146,8.67906045 14.256395,9.00632698 C14.5836753,9.33359351 14.7675407,9.77747049 14.7675407,10.240305 Z" id="Path" fill="#F9A124" fill-rule="nonzero"></path>
                        <path d="M21.7860274,10.240305 C21.7860274,11.2041019 21.0047527,11.9854505 20.0409558,11.9854505 C19.077159,11.9854505 18.2958104,11.2041757 18.2958104,10.2403789 C18.2958104,9.27658204 19.0770852,8.49523344 20.040882,8.49523344 L20.040882,8.49523344 C20.5037136,8.49523344 20.9475926,8.67907338 21.2748709,9.00633779 C21.6021491,9.3336022 21.7860274,9.77747349 21.7860274,10.240305 Z" id="Path" fill="#4CB748" fill-rule="nonzero"></path>
                        <rect id="Rectangle" fill="#CCCCCC" fill-rule="nonzero" x="0.376983596" y="16.6901423" width="294.149737" height="1"></rect>
                        <path d="M46.1862114,8.04605678 L46.1862114,12.377788 C46.1862114,12.4735929 46.1085462,12.551258 46.0127413,12.551258 L45.9951729,12.551258 C45.899368,12.551258 45.8217028,12.4735929 45.8217028,12.377788 L45.8217028,12.377788 L45.8217028,8.04605678 C45.8217028,7.95025193 45.899368,7.87258675 45.9951729,7.87258675 L46.0127044,7.87258675 C46.1085093,7.87258675 46.1861744,7.95025193 46.1861744,8.04605678 L46.1862114,8.04605678 Z" id="Path" fill="#CCCCCC" fill-rule="nonzero"></path>
                        <rect id="Rectangle" fill="#CCCCCC" fill-rule="nonzero" x="31.2263035" y="6.4969694" width="7.64630063" height="7.64630063" rx="0.904812303"></rect>
                        <rect id="Rectangle" fill="#F3F3F3" fill-rule="nonzero" x="31.3344454" y="6.4969694" width="7.43001672" height="7.43001672" rx="0.796707256"></rect>
                        <path d="M37.4248306,9.95053628 L34.0164397,9.95053628 L35.0230088,8.94393028 C35.1672767,8.79966244 35.1672767,8.56575806 35.0230088,8.42149022 C34.878741,8.27722238 34.6448366,8.27722238 34.5005688,8.42149022 L32.9715227,9.95053628 L32.9715227,9.95053628 L32.7858729,10.1361861 C32.7371201,10.184924 32.7097298,10.2510357 32.7097298,10.3199721 C32.7097298,10.3889084 32.7371201,10.4550201 32.7858729,10.503758 L32.7858729,10.503758 L34.5005319,12.2184539 C34.6456575,12.3570304 34.874866,12.3544176 35.0167949,12.2125688 C35.1587239,12.0707201 35.1614663,11.8415131 35.0229719,11.6963091 L34.0164028,10.6896662 L37.4247937,10.6896662 C37.6288173,10.6896662 37.794211,10.5242725 37.794211,10.3202489 C37.794211,10.1162253 37.6288173,9.95083155 37.4247937,9.95083155 L37.4248306,9.95053628 Z" id="Path" fill="#4E4E4E" fill-rule="nonzero"></path>
                        <path d="M53.5046905,9.95053628 L56.9129338,9.95053628 L55.9063647,8.94393028 C55.7620968,8.79965225 55.7621051,8.56573961 55.9063831,8.42147177 C56.0506612,8.27720393 56.2845738,8.27721219 56.4288416,8.42149022 L57.9578877,9.95053628 L57.9578877,9.95053628 L58.1435375,10.1361861 C58.1922813,10.1849288 58.2196653,10.2510387 58.2196653,10.3199721 C58.2196653,10.3889054 58.1922813,10.4550153 58.1435375,10.503758 L58.1435375,10.503758 L56.4288416,12.2184539 C56.2843025,12.3611935 56.0516382,12.3604647 55.9079961,12.2168226 C55.7643539,12.0731804 55.7636251,11.8405161 55.9063647,11.695977 L56.9129338,10.6895555 L53.5045798,10.6895555 C53.3019866,10.6875305 53.1388182,10.5227231 53.1388182,10.3201197 C53.1388182,10.1175164 53.3019866,9.95270891 53.5045798,9.95068391 L53.5045798,9.95068391 L53.5046905,9.95053628 Z" id="Path" fill="#B4B4B4" fill-rule="nonzero"></path>
                        <path d="M285.40478,8.91864795 L280.71917,8.91864795 C280.506078,8.91860719 280.333329,8.74586139 280.333329,8.5327694 L280.333329,8.5327694 C280.333329,8.31966898 280.50607,8.14691123 280.71917,8.14689085 L285.40478,8.14689085 C285.507118,8.14689085 285.605264,8.18754697 285.677625,8.2599143 C285.749985,8.33228163 285.790622,8.43043144 285.790622,8.5327694 L285.790622,8.5327694 C285.790622,8.74585541 285.617903,8.91860719 285.404817,8.91864795 L285.40478,8.91864795 Z" id="Path" fill="#B4B4B4" fill-rule="nonzero"></path>
                        <path d="M285.40478,10.7059798 L280.71917,10.7059798 C280.506078,10.7059391 280.333329,10.5331932 280.333329,10.3201013 L280.333329,10.3201013 C280.333329,10.1070153 280.506084,9.93428 280.71917,9.93425962 L285.40478,9.93425962 C285.617846,9.93425962 285.790622,10.1069618 285.790622,10.3200274 L285.790622,10.3200274 L285.790622,10.3200274 C285.790622,10.5331075 285.617934,10.7058652 285.404854,10.705906 L285.40478,10.7059798 Z" id="Path" fill="#B4B4B4" fill-rule="nonzero"></path>
                        <path d="M285.40478,12.4935331 L280.71917,12.4935331 C280.50607,12.4935127 280.333329,12.320755 280.333329,12.1076546 L280.333329,12.1076546 C280.333329,11.894577 280.506093,11.7218537 280.71917,11.7218129 L285.40478,11.7218129 C285.617866,11.7218333 285.790622,11.8945686 285.790622,12.1076546 L285.790622,12.1076546 C285.790622,12.2099861 285.74999,12.3081304 285.677638,12.3804966 C285.605285,12.4528629 285.507149,12.4935233 285.404817,12.4935331 L285.40478,12.4935331 Z" id="Path" fill="#B4B4B4" fill-rule="nonzero"></path>
                        <path d="M69.5990555,6.69778864 L268.954064,6.69778864 C270.02488,6.69778864 270.89309,7.56577668 270.89309,8.63659306 L270.89309,12.003388 C270.89309,13.0742476 270.02496,13.9423401 268.954101,13.9423401 L69.5990555,13.9423401 C68.5281611,13.9423401 67.6600297,13.0742086 67.6600297,12.0033142 L67.6600297,12.0033142 L67.6600297,8.63659306 C67.6600297,7.56577668 68.5282391,6.69778864 69.5990555,6.69778864 Z" id="Path" stroke="#434343" stroke-width="0.5" fill="#FFFFFF" fill-rule="nonzero"></path>
                        <polygon id="Path" fill="#F9A124" fill-rule="nonzero" points="265.195817 8.00176656 265.771221 9.77300631 267.633256 9.77300631 266.12665 10.8673438 266.702054 12.6382145 265.195817 11.543877 263.689211 12.6382145 264.264615 10.8673438 262.758379 9.77300631 264.620413 9.77300631"></polygon>
                        <path d="M30.3498738,85.6801703 L30.3498738,85.6801703 C33.4870978,84.2835151 32.6895785,79.624147 29.2666088,79.3500644 L29.2666088,79.3500644 C32.6524486,78.7774287 33.0389177,74.0661303 29.7916325,72.9493893 L29.7916325,72.9493893 C33.2135319,73.2367959 34.7595189,68.7696104 31.8919855,66.880411 L31.8919855,66.880411 C35.1348785,68.0098117 37.7432404,64.0673546 35.4356091,61.5243946 L35.4356091,61.5243946 C38.2957609,63.4247404 41.8026237,60.2547416 40.1999082,57.2179088 L40.1999082,57.2179088 C42.497611,59.7698744 46.682594,57.5717139 45.8854808,54.2315669 L45.8854808,54.2315669 C47.4762379,57.2747479 52.0765155,56.1864265 52.1351262,52.7530117 L52.1351262,52.7530117 C52.9192107,56.0962221 57.6455678,56.1860943 58.5561009,52.875105 L58.5561009,52.875105 C58.4841293,56.3082615 63.0396,57.5707174 64.7450319,54.5902069 L64.7450319,54.5902069 C63.8215069,57.8976161 67.9199025,60.2533022 70.312977,57.7905445 L70.312977,57.7905445 C68.5959927,60.7643744 71.9797656,64.0652508 74.9101174,62.2749293 L74.9101174,62.2749293 C72.5073729,64.7283123 74.9640776,68.7671375 78.24757,67.7617864 L78.24757,67.7617864 C75.3102795,69.540777 76.6853063,74.0633252 80.1156577,73.9062426 L80.1156577,73.9062426 C76.8282161,74.8987126 77.0353467,79.621305 80.3969744,80.3222347 L80.3969744,80.3222347 C76.9660325,80.4659934 75.9921644,85.0917009 79.073841,86.606611 L79.073841,86.606611 C75.7151659,85.8925789 73.6213088,90.1307839 76.2294492,92.3643397 L76.2294492,92.3643397 C73.153641,90.8374713 70.0717429,94.421842 72.0424732,97.2339757 L72.0424732,97.2339757 C69.4430432,94.9901224 65.5665416,97.6953322 66.7759968,100.909363 L66.7759968,100.909363 C64.8161546,98.0895521 60.3887565,99.7458587 60.760942,103.159601 L60.760942,103.159601 C59.5640356,99.940994 54.863736,100.444205 54.3752886,103.843221 L54.3752886,103.843221 C54.0163902,100.428076 49.3386416,99.7463754 48.0201956,102.917297 L48.0201956,102.917297 C48.5218931,99.5202 44.1605981,97.6967716 42.0950498,100.440071 L42.0950498,100.440071 C43.4258233,97.2744644 39.6549909,94.4237243 36.9721476,96.5671126 L36.9721476,96.5671126 C39.0483625,93.8318962 36.1047975,90.1329615 32.9733312,91.5417965 L32.9733312,91.5417965 C35.6645158,89.4088533 33.7336467,85.0941369 30.3498738,85.679912 L30.3498738,85.6801703 Z" id="Path" stroke="#8D2E8E" stroke-width="0.5" fill="#F2C8DE" fill-rule="nonzero"></path>
                        <path d="M40.5629404,88.8014868 C43.5400183,92.1236224 46.4237546,93.4231713 50.3738886,88.2263044 C53.9399896,83.5076612 51.4416151,73.8203934 61.0214054,78.1262148 C66.1110899,80.4137678 70.4282423,74.1995915 70.0966192,70.3958735 C69.2477233,60.6590744 60.518859,62.7798748 56.9677798,63.8667568 C50.3300782,65.8980539 46.1498934,68.3418407 42.3176451,73.3832858 C38.3713864,78.5749486 37.5857886,85.4783546 40.5629404,88.8014868 Z" id="Path" stroke="#8D308D" stroke-width="0.5" fill="#8D2E8E" fill-rule="nonzero"></path>
                        <line x1="98.1052013" y1="63.6413565" x2="240.759869" y2="63.6413565" id="Path" stroke="#434343" stroke-width="2.02066751" stroke-linecap="round" stroke-linejoin="round"></line>
                        <line x1="98.1052013" y1="76.0116151" x2="240.759869" y2="76.0116151" id="Path" stroke="#434343" stroke-width="2.02066751" stroke-linecap="round" stroke-linejoin="round"></line>
                        <line x1="98.1052013" y1="88.3818369" x2="210.65898" y2="88.3818369" id="Path" stroke="#434343" stroke-width="2.02066751" stroke-linecap="round" stroke-linejoin="round"></line>
                        <line x1="98.1052013" y1="133.133894" x2="240.759869" y2="133.133894" id="Path" stroke="#434343" stroke-width="2.02066751" stroke-linecap="round" stroke-linejoin="round"></line>
                        <line x1="98.1052013" y1="145.504153" x2="240.759869" y2="145.504153" id="Path" stroke="#434343" stroke-width="2.02066751" stroke-linecap="round" stroke-linejoin="round"></line>
                        <line x1="98.1052013" y1="157.874374" x2="210.65898" y2="157.874374" id="Path" stroke="#434343" stroke-width="2.02066751" stroke-linecap="round" stroke-linejoin="round"></line>
                        <path d="M97.8673628,175.828006 L149.516404,175.828006 C150.045883,175.775347 150.520787,176.154452 150.586751,176.682438 L150.586751,189.148179 C150.520787,189.676166 150.045883,190.05527 149.516404,190.002611 L97.8673628,190.002611 C97.3378836,190.05527 96.8629799,189.676166 96.7970158,189.148179 L96.7970158,176.682438 C96.8629799,176.154452 97.3378836,175.775347 97.8673628,175.828006 Z" id="Path" fill="#004593" fill-rule="nonzero"></path>
                    </g>
                    <line x1="109.297562" y1="182.915327" x2="138.086205" y2="182.915327" id="Path" stroke="#FFFFFF" stroke-width="1.84542587" stroke-linecap="round" stroke-linejoin="round"></line>
                </g>
            </g>
        </g>
    </g>
</svg>