<?xml version="1.0" encoding="UTF-8"?>
<svg width="60px" height="54px" viewBox="0 0 60 54" version="1.1" xmlns="http://www.w3.org/2000/svg" xmlns:xlink="http://www.w3.org/1999/xlink">
    <title>C64AFB3C-AAF2-4241-BC96-FA24FAD83C46</title>
    <g id="PDP---Single-Format-Antibody---D" stroke="none" stroke-width="1" fill="none" fill-rule="evenodd">
        <g id="PDP-SFA-antibody" transform="translate(-1203.000000, -268.000000)">
            <g id="PDP/header-content" transform="translate(0.000000, 256.000000)">
                <g id="PDP/tools" transform="translate(893.000000, 13.000000)">
                    <g id="PDP/Tool-Copy-2" transform="translate(286.000000, 0.000000)">
                        <g id="PDP/tools/icon-spectrum" transform="translate(25.000000, 0.000000)">
                            <g id="Group-4">
                                <g id="Group-18" stroke="#00B8B0">
                                    <rect id="Rectangle" stroke-width="2" x="0" y="0" width="58" height="52" rx="2"></rect>
                                    <g id="Group" transform="translate(7.000000, 50.000000)" stroke-linecap="round" stroke-width="1.5">
                                        <line x1="0.5" y1="0" x2="0.5" y2="2" id="Line"></line>
                                        <line x1="9.5" y1="0" x2="9.5" y2="2" id="Line-Copy"></line>
                                        <line x1="17.5" y1="0" x2="17.5" y2="2" id="Line-Copy-2"></line>
                                        <line x1="26.5" y1="0" x2="26.5" y2="2" id="Line-Copy-3"></line>
                                        <line x1="34.5" y1="0" x2="34.5" y2="2" id="Line-Copy-4"></line>
                                        <line x1="43.5" y1="0" x2="43.5" y2="2" id="Line-Copy-5"></line>
                                    </g>
                                    <g id="Group-2" transform="translate(0.000000, 6.000000)" stroke-linecap="round" stroke-width="1.5">
                                        <line x1="0" y1="39.5" x2="2" y2="39.5" id="Line-11"></line>
                                        <line x1="0" y1="31.5" x2="2" y2="31.5" id="Line-11-Copy"></line>
                                        <line x1="0" y1="23.5" x2="2" y2="23.5" id="Line-11-Copy-2"></line>
                                        <line x1="0" y1="16.5" x2="2" y2="16.5" id="Line-11-Copy-3"></line>
                                        <line x1="0" y1="8.5" x2="2" y2="8.5" id="Line-11-Copy-4"></line>
                                        <line x1="0" y1="0.5" x2="2" y2="0.5" id="Line-11-Copy-5"></line>
                                    </g>
                                </g>
                                <g id="Group-3" transform="translate(10.000000, 5.000000)" fill="#00B8B0">
                                    <circle id="Oval" cx="41.5" cy="1.5" r="1.5"></circle>
                                    <circle id="Oval-Copy" cx="34.5" cy="9.5" r="1.5"></circle>
                                    <circle id="Oval-Copy-2" cx="28.5" cy="1.5" r="1.5"></circle>
                                    <circle id="Oval-Copy-4" cx="27.5" cy="9.5" r="1.5"></circle>
                                    <circle id="Oval-Copy-5" cx="22.5" cy="12.5" r="1.5"></circle>
                                    <circle id="Oval-Copy-6" cx="1.5" cy="22.5" r="1.5"></circle>
                                    <circle id="Oval-Copy-15" cx="4.5" cy="33.5" r="1.5"></circle>
                                    <circle id="Oval-Copy-8" cx="17.5" cy="12.5" r="1.5"></circle>
                                    <circle id="Oval-Copy-9" cx="17.5" cy="17.5" r="1.5"></circle>
                                    <circle id="Oval-Copy-10" cx="28.5" cy="18.5" r="1.5"></circle>
                                    <circle id="Oval-Copy-11" cx="8.5" cy="25.5" r="1.5"></circle>
                                    <circle id="Oval-Copy-12" cx="11.5" cy="29.5" r="1.5"></circle>
                                    <circle id="Oval-Copy-13" cx="21.5" cy="19.5" r="1.5"></circle>
                                    <circle id="Oval-Copy-16" cx="19.5" cy="26.5" r="1.5"></circle>
                                    <circle id="Oval-Copy-14" cx="13.5" cy="22.5" r="1.5"></circle>
                                </g>
                            </g>
                        </g>
                    </g>
                </g>
            </g>
        </g>
    </g>
</svg>