<?xml version="1.0" encoding="UTF-8"?>
<svg width="12px" height="12px" viewBox="0 0 12 12" version="1.1" xmlns="http://www.w3.org/2000/svg" xmlns:xlink="http://www.w3.org/1999/xlink">
    <title>1D4EA3AF-50EF-4A00-8A65-5347585E0DCA</title>
    <g id="Search-Results--D" stroke="none" stroke-width="1" fill="none" fill-rule="evenodd">
        <g id="Search-results-filter-applied" transform="translate(-628.000000, -229.000000)" fill="#004593">
            <g id="Applied-Filter" transform="translate(535.000000, 215.000000)">
                <g id="icon/close-dark" transform="translate(93.000000, 14.000000)">
                    <g id="Close-BTN" transform="translate(0.666667, 0.666667)">
                        <path d="M10.4714045,0.195262146 C10.7117272,0.435584787 10.7302135,0.813738824 10.5268636,1.0752663 L10.4714045,1.13807119 L6.276,5.333 L10.4714045,9.52859548 L10.5268636,9.59140037 C10.7302135,9.85292784 10.7117272,10.2310819 10.4714045,10.4714045 C10.211055,10.731754 9.78894501,10.731754 9.52859548,10.4714045 L9.52859548,10.4714045 L5.333,6.276 L1.13807119,10.4714045 C0.87772166,10.731754 0.455611674,10.731754 0.195262146,10.4714045 C-0.0450604952,10.2310819 -0.0635468522,9.85292784 0.139803075,9.59140037 L0.195262146,9.52859548 L4.39,5.333 L0.195262146,1.13807119 L0.139803075,1.0752663 C-0.0635468522,0.813738824 -0.0450604952,0.435584787 0.195262146,0.195262146 C0.455611674,-0.065087382 0.87772166,-0.065087382 1.13807119,0.195262146 L1.13807119,0.195262146 L5.333,4.39 L9.52859548,0.195262146 C9.78894501,-0.065087382 10.211055,-0.065087382 10.4714045,0.195262146 Z" id="Combined-Shape"></path>
                    </g>
                </g>
            </g>
        </g>
    </g>
</svg>