<?xml version="1.0" encoding="UTF-8"?>
<svg width="18px" height="19px" viewBox="0 0 18 19" version="1.1" xmlns="http://www.w3.org/2000/svg" xmlns:xlink="http://www.w3.org/1999/xlink">
    <title>FA5D7696-3F1B-4B88-BCDD-F7A715171C3B</title>
    <g id="Page-1" stroke="none" stroke-width="1" fill="none" fill-rule="evenodd">
        <g id="Iconography" transform="translate(-1022.000000, -841.000000)" fill="#FFFFFF">
            <g id="Group-10" transform="translate(1007.000000, 316.000000)">
                <g id="Group-6" transform="translate(0.000000, 512.600000)">
                    <g id="icon/Social/instagram" transform="translate(15.000000, 13.000000)">
                        <path d="M11.411865,0.0176303528 C11.7718751,0.0176303528 12.2038799,0.0296328629 12.7078916,0.0536338075 C13.5479124,0.0896331867 14.2739236,0.227635562 14.8859375,0.467640932 C15.4979514,0.707646303 16.0349588,1.05564981 16.4969719,1.51166368 C16.9589809,1.96767348 17.3069844,2.50168125 17.5409906,3.11369515 C17.7749967,3.72570905 17.9099995,4.45172031 17.9459989,5.29174114 C17.9699998,5.80775126 17.9820023,6.23975604 17.9820023,6.5877677 C17.992001,6.96777586 17.9978336,7.59361642 17.9995001,8.46530353 L17.9995001,9.56932985 C17.9978336,10.4376816 17.992001,11.0518565 17.9820023,11.4118638 C17.9820023,11.7718739 17.9699998,12.2038787 17.9459989,12.7078904 C17.9099995,13.5479112 17.7749967,14.2739225 17.5409906,14.8859364 C17.3069844,15.4979503 16.9589809,16.0349577 16.4969719,16.4969695 C16.0349588,16.958981 15.4979514,17.3069849 14.8859375,17.5409906 C14.2739236,17.7749968 13.5479124,17.9099983 12.7078916,17.9459989 C12.1918814,17.9699999 11.7598767,17.982 11.411865,17.982 C10.9558552,17.994 10.1458468,18 8.98181521,18 C7.81778773,18 7.01977772,17.994 6.58776887,17.982 C6.22775878,17.982 5.795754,17.9699999 5.29174231,17.9459989 C4.45172148,17.9099983 3.72571022,17.7749968 3.11369633,17.5409906 C2.50168243,17.3069849 1.96467504,16.958981 1.50266318,16.4969695 C1.04065172,16.0349577 0.692647803,15.4979503 0.458642057,14.8859364 C0.224635903,14.2739225 0.0896343594,13.5479112 0.0536337576,12.7078904 C0.029632813,12.1918803 0.0176327482,11.7598755 0.0176327482,11.4118638 C0.00863269965,11.0698565 0.00300766929,10.5287249 0.00075765715,9.78845875 L0.00075765715,8.17742145 C0.00300766929,7.44165663 0.00863269965,6.91177434 0.0176327482,6.5877677 C0.0176327482,6.2277576 0.029632813,5.79575283 0.0536337576,5.29174114 C0.0896343594,4.45172031 0.224635903,3.72570905 0.458642057,3.11369515 C0.692647803,2.50168125 1.04065172,1.96467387 1.50266318,1.50266078 C1.96467504,1.04065177 2.50168243,0.69264826 3.11369633,0.458642106 C3.72571022,0.224635953 4.45172148,0.0896331867 5.29174231,0.0536338075 C5.80775243,0.0296328629 6.23975721,0.0176303528 6.58776887,0.0176303528 C6.92977622,0.00863152689 7.46753325,0.0030072607 8.20104855,0.000757554221 L9.81208585,0.000757554221 C10.5546015,0.0030072607 11.0878584,0.00863152689 11.411865,0.0176303528 Z M8.99981694,4.49972219 C8.18379705,4.49972219 7.43078931,4.7007245 6.74076929,5.10273727 C6.05075334,5.50474596 5.50474713,6.05075217 5.10273844,6.74076812 C4.70072567,7.43078814 4.49972337,8.18379587 4.49972337,8.99981576 C4.49972337,9.81583565 4.70072567,10.5688434 5.10273844,11.2588634 C5.50474713,11.9488794 6.05075334,12.4948856 6.74076929,12.8968943 C7.43078931,13.298907 8.18379705,13.4999093 8.99981694,13.4999093 C9.81583683,13.4999093 10.5688446,13.298907 11.2588646,12.8968943 C11.9488805,12.4948856 12.4948867,11.9488794 12.8968954,11.2588634 C13.2989082,10.5688434 13.4999105,9.81583565 13.4999105,8.99981576 C13.4999105,8.18379587 13.2989082,7.43078814 12.8968954,6.74076812 C12.4948867,6.05075217 11.9488805,5.50474596 11.2588646,5.10273727 C10.5688446,4.7007245 9.81583683,4.49972219 8.99981694,4.49972219 Z M8.99981694,6.29976044 C9.49183019,6.29976044 9.94483223,6.41976109 10.3588434,6.65976646 C10.7728546,6.8997759 11.0998568,7.22677807 11.3398662,7.64078927 C11.5798716,8.05480048 11.6998723,8.50780251 11.6998723,8.99981576 C11.6998723,9.49182902 11.5798716,9.94483105 11.3398662,10.3588423 C11.0998568,10.7728535 10.7728546,11.0998556 10.3588434,11.3398651 C9.94483223,11.5798704 9.49183019,11.6998711 8.99981694,11.6998711 C8.50780369,11.6998711 8.05480165,11.5798704 7.64079045,11.3398651 C7.22677925,11.0998556 6.89977708,10.7728535 6.65976763,10.3588423 C6.41976226,9.94483105 6.29976161,9.49182902 6.29976161,8.99981576 C6.29976161,8.50780251 6.41976226,8.05480048 6.65976763,7.64078927 C6.89977708,7.22677807 7.22677925,6.8997759 7.64079045,6.65976646 C8.05480165,6.41976109 8.50780369,6.29976044 8.99981694,6.29976044 Z M13.7249138,3.14969453 C13.4189048,3.14969453 13.1549025,3.26069635 12.9328989,3.48270407 C12.7108912,3.70470772 12.5998893,3.96870996 12.5998893,4.27471894 C12.5998893,4.58072793 12.7108912,4.84473017 12.9328989,5.06673381 C13.1549025,5.28874153 13.4189048,5.39974335 13.7249138,5.39974335 C14.0309227,5.39974335 14.294925,5.28874153 14.5169286,5.06673381 C14.7389363,4.84473017 14.8499382,4.57772832 14.8499382,4.26572012 C14.8499382,3.96571035 14.7389363,3.70470772 14.5169286,3.48270407 C14.294925,3.26069635 14.0309227,3.14969453 13.7249138,3.14969453 Z" id="Combined-Shape"></path>
                    </g>
                </g>
            </g>
        </g>
    </g>
</svg>