<?xml version="1.0" encoding="UTF-8"?>
<svg width="19px" height="19px" viewBox="0 0 19 19" version="1.1" xmlns="http://www.w3.org/2000/svg" xmlns:xlink="http://www.w3.org/1999/xlink">
    <title>EF4C5329-E9E3-4B12-909B-BC565DD72E6D</title>
    <g id="Page-1" stroke="none" stroke-width="1" fill="none" fill-rule="evenodd">
        <g id="View-Report-" transform="translate(-899.000000, -568.000000)" fill="#004593" fill-rule="nonzero">
            <g id="Group-13" transform="translate(167.000000, 505.000000)">
                <g id="text-input/04-active-copy-9" transform="translate(732.000000, 38.000000)">
                    <g id="Group-2" transform="translate(0.000000, 25.000000)">
                        <path d="M10.306,8.856 C10.4849608,8.85584245 10.6565344,8.78462324 10.783,8.658 L17.137,2.304 L17.137,5.589 C17.137,5.96179221 17.4392078,6.264 17.812,6.264 C18.1847922,6.264 18.487,5.96179221 18.487,5.589 L18.487,0.675 C18.487,0.302207794 18.1847922,-2.66453526e-15 17.812,-2.66453526e-15 L12.898,-2.66453526e-15 C12.5252078,-2.66453526e-15 12.223,0.302207794 12.223,0.675 C12.223,1.04779221 12.5252078,1.35 12.898,1.35 L16.183,1.35 L9.784,7.704 C9.59120173,7.89703814 9.53356762,8.18715787 9.63794172,8.43923116 C9.74231582,8.69130445 9.98817251,8.85576003 10.261,8.856 L10.306,8.856 Z" id="Path"></path>
                        <path d="M16.884,10.504 C16.5112078,10.504 16.209,10.8062078 16.209,11.179 L16.209,16.759 C16.209,17.0025576 16.0115576,17.2 15.768,17.2 L1.8,17.2 C1.55644243,17.2 1.359,17.0025576 1.359,16.759 L1.359,2.791 C1.359,2.54744243 1.55644243,2.35 1.8,2.35 L7.083,2.35 C7.4557922,2.34999999 7.75799999,2.0477922 7.75799999,1.675 C7.75799999,1.3022078 7.4557922,1 7.083,1 L1.8,1 C0.80588745,1 1.59872116e-14,1.80588745 1.59872116e-14,2.8 L1.59872116e-14,16.759 C1.59872116e-14,17.7531125 0.80588745,18.559 1.8,18.559 L15.768,18.559 C16.7621125,18.559 17.568,17.7531125 17.568,16.759 L17.568,11.179 C17.568,10.9984086 17.4956661,10.8253415 17.3671258,10.6984925 C17.2385855,10.5716436 17.0645754,10.5015921 16.884,10.504 Z" id="Path"></path>
                    </g>
                </g>
            </g>
        </g>
    </g>
</svg>