<?xml version="1.0" encoding="UTF-8"?>
<svg width="27px" height="11px" viewBox="0 0 27 11" version="1.1" xmlns="http://www.w3.org/2000/svg" xmlns:xlink="http://www.w3.org/1999/xlink">
    <title>1C0B6560-BADD-4B0F-BE45-B1AFE04A6090</title>
    <g id="Navigation-D" stroke="none" stroke-width="1" fill="none" fill-rule="evenodd">
        <g id="NavBar-MegaMenu-2-Reagents-Copy" transform="translate(-1150.000000, -439.000000)" fill="#004593" fill-rule="nonzero">
            <g id="Group-3" transform="translate(105.000000, 112.000000)">
                <g id="Featured" transform="translate(960.000000, 33.000000)">
                    <g id="Group-3" transform="translate(0.000000, 186.000000)">
                        <g id="Group" transform="translate(0.000000, 102.000000)">
                            <path d="M105.271072,6.14995977 L110.271061,9.80888951 C110.806881,10.2008057 111.113054,10.7703384 111.113054,11.3673835 C111.113054,11.9644444 110.803808,12.5309044 110.264947,12.9228206 L105.271072,16.5419316 C105.130225,16.6429755 104.967948,16.691965 104.808736,16.691965 C104.566869,16.691965 104.328043,16.5785836 104.171888,16.3673173 C103.917754,16.0182689 103.994303,15.5253245 104.346416,15.274263 L108.686,12.129 L85,12.1299662 L85,10.5623014 L108.641,10.562 L104.343359,7.41753437 C103.994311,7.16340022 103.917762,6.67044801 104.174961,6.32142311 C104.429095,5.97237469 104.91899,5.89582562 105.271072,6.14995977 Z" id="Combined-Shape"></path>
                        </g>
                    </g>
                </g>
            </g>
        </g>
    </g>
</svg>