<?xml version="1.0" encoding="UTF-8"?>
<svg width="22px" height="16px" viewBox="0 0 22 16" version="1.1" xmlns="http://www.w3.org/2000/svg" xmlns:xlink="http://www.w3.org/1999/xlink">
    <title>215B0D66-61C0-4AFE-853C-BF98D7E1B755</title>
    <g id="Navigation-M" stroke="none" stroke-width="1" fill="none" fill-rule="evenodd">
        <g id="NavBar-Open-Account" transform="translate(-25.000000, -932.000000)" fill="#FFFFFF">
            <g id="Secondary" transform="translate(0.000000, 474.000000)">
                <g id="L3" transform="translate(0.000000, 69.000000)">
                    <g id="header/mobile/nav-item/L3-Copy-8" transform="translate(25.000000, 388.000000)">
                        <g id="icon/account/dashboard" transform="translate(0.000000, 1.000000)">
                            <path d="M19.283103,0 L1.99481907,0 C0.894808182,0 0,0.894808182 0,1.99481907 L0,13.9636447 C0,15.0636556 0.894808182,15.9584638 1.99481907,15.9584638 L19.283103,15.9584638 C20.3831139,15.9584638 21.2779221,15.0636556 21.2779221,13.9636447 L21.2779221,1.99481907 C21.2779221,0.894808182 20.3831139,0 19.283103,0 Z M19.283103,1.32986458 C19.3734455,1.32986458 19.4593908,1.3486082 19.537963,1.38134292 L10.638961,9.09416661 L1.73991467,1.38134292 C1.81848688,1.34865262 1.90443217,1.32986458 1.99477466,1.32986458 L19.283103,1.32986458 Z M19.283103,14.6285548 L1.99481907,14.6285548 C1.6279415,14.6285548 1.32986458,14.3305223 1.32986458,13.9636003 L1.32986458,2.78635966 L10.2032384,10.4766199 C10.3285808,10.5850398 10.4837709,10.638961 10.638961,10.638961 C10.7941511,10.638961 10.9493412,10.5850842 11.0746837,10.4766199 L19.9480575,2.78635966 L19.9480575,13.9636447 C19.9480575,14.3305223 19.6499806,14.6285548 19.283103,14.6285548 L19.283103,14.6285548 Z" id="Shape"></path>
                        </g>
                    </g>
                </g>
            </g>
        </g>
    </g>
</svg>