<?xml version="1.0" encoding="UTF-8"?>
<svg width="166px" height="166px" viewBox="0 0 166 166" version="1.1" xmlns="http://www.w3.org/2000/svg" xmlns:xlink="http://www.w3.org/1999/xlink">
    <title>Group 4</title>
    <g id="Page-1" stroke="none" stroke-width="1" fill="none" fill-rule="evenodd">
        <g id="PDP-kits-citations-Copy" transform="translate(-664, -1076)">
            <g id="Group-4" transform="translate(664, 1076)">
                <circle id="Oval" fill="#E7EBF1" cx="83" cy="83" r="83"></circle>
                <rect id="Rectangle" stroke="#999A9C" stroke-width="2" fill="#EEEEEE" x="36" y="43" width="96" height="82" rx="4"></rect>
                <rect id="Rectangle" stroke="#999A9C" stroke-width="2" fill="#FFFFFF" x="43" y="50" width="82" height="68" rx="4"></rect>
                <path d="M60.0761241,95.1343408 C60.693663,94.2376154 61.4972654,94.2376154 62.1148041,95.1343408 L64.4494214,98.5281275 C65.3781356,99.8799326 66.721483,100.654072 68.1338022,100.654072 C69.5469235,100.654072 70.8902709,99.8799326 71.8189849,98.5281275 L74.1536023,95.1343408 C74.7703391,94.2376154 75.5731395,94.2359362 76.1914804,95.1360202 L78.8156193,98.9479429 C79.7435314,100.298069 81.0868788,101.073887 82.4991981,101.073887 C82.5,101.073887 82.5,101.073887 82.5,101.073887 C83.9131214,101.073887 85.2564687,100.299748 86.1851828,98.9479429 L88.8085196,95.134341 C89.1172891,94.6859783 89.4789903,94.4391269 89.8278597,94.4391269 C90.1759271,94.4391269 90.5376283,94.6859783 90.8463977,95.134341 L93.1810151,98.5281276 C94.1097293,99.8799328 95.4530766,100.654072 96.8661978,100.654072 C98.2793189,100.654072 99.6226664,99.8799328 100.55138,98.5281276 L102.885998,95.134341 C103.503537,94.2376155 104.307139,94.2376155 104.923876,95.134341 L110.334157,103 L113,100.991604 L107.589719,93.1259447 C106.660202,91.7741395 105.316855,91 103.903734,91 C102.491415,91 101.148067,91.7758188 100.220155,93.1259447 L97.8855378,96.5197313 C97.267999,97.4164567 96.4643966,97.4164567 95.8468579,96.5197313 L93.5122405,93.1259447 C92.5843283,91.7758187 91.240981,91 89.8286617,91 C89.8278597,91 89.8278597,91 89.8278597,91 C88.4147384,91 87.071391,91.7741395 86.142677,93.1259447 L83.5193401,96.9395465 C83.2105705,97.3879091 82.8488692,97.6347605 82.5,97.6347605 C82.1519325,97.6347605 81.7902313,97.3879091 81.4814619,96.9378672 L78.857323,93.1259445 C77.9286088,91.7741393 76.5852614,91 75.1729422,91 C73.7598209,91 72.4164735,91.7741393 71.4877595,93.1259445 L69.1531421,96.5197311 C68.5364053,97.4147773 67.7336049,97.4181357 67.1152641,96.5197311 L64.7806467,93.1259445 C63.8519325,91.7741393 62.5085851,91 61.095464,91 C59.6823429,91 58.3389954,91.7741393 57.4102813,93.1259445 L52,100.991603 L54.6658428,103 L60.0761241,95.1343408 Z" id="Path" stroke="#FFFFFF" fill="#999A9C" fill-rule="nonzero"></path>
                <path d="M60.194899,75.6229797 L64,71.8179476 L67.805101,75.6229797 C68.055872,75.8737461 68.3850089,76 68.7141458,76 C69.0432827,76 69.3724195,75.8746168 69.6231905,75.6229797 C70.1256032,75.1205761 70.1256032,74.3073267 69.6231905,73.8049232 L65.8180895,69.9998912 L69.6231905,66.1948591 C70.1256032,65.6924556 70.1256032,64.8792062 69.6231905,64.3768027 C69.1207779,63.8743991 68.306643,63.8743991 67.805101,64.3768027 L64,68.1818347 L60.194899,64.3768027 C59.6924863,63.8743991 58.8783514,63.8743991 58.3768095,64.3768027 C57.8743968,64.8792062 57.8743968,65.6924556 58.3768095,66.1948591 L62.1819105,69.9998912 L58.3768095,73.8049232 C57.8743968,74.3073267 57.8743968,75.1205761 58.3768095,75.6229797 C58.6275805,75.8737461 58.9567173,76 59.2858542,76 C59.6149911,76 59.944128,75.8737461 60.194899,75.6229797 Z" id="Path" fill="#999A9C" fill-rule="nonzero"></path>
                <path d="M98.194899,75.6229797 L102,71.8179476 L105.805101,75.6229797 C106.055872,75.8737461 106.385009,76 106.714146,76 C107.043283,76 107.37242,75.8746168 107.623191,75.6229797 C108.125603,75.1205761 108.125603,74.3073267 107.623191,73.8049232 L103.818089,69.9998912 L107.623191,66.1948591 C108.125603,65.6924556 108.125603,64.8792062 107.623191,64.3768027 C107.120778,63.8743991 106.306643,63.8743991 105.805101,64.3768027 L102,68.1818347 L98.194899,64.3768027 C97.6924863,63.8743991 96.8783514,63.8743991 96.3768095,64.3768027 C95.8743968,64.8792062 95.8743968,65.6924556 96.3768095,66.1948591 L100.181911,69.9998912 L96.3768095,73.8049232 C95.8743968,74.3073267 95.8743968,75.1205761 96.3768095,75.6229797 C96.6275805,75.8737461 96.9567173,76 97.2858542,76 C97.6149911,76 97.944128,75.8737461 98.194899,75.6229797 Z" id="Path-Copy" fill="#999A9C" fill-rule="nonzero"></path>
            </g>
        </g>
    </g>
</svg>