<?xml version="1.0" encoding="UTF-8"?>
<svg width="20px" height="29px" viewBox="0 0 20 29" version="1.1" xmlns="http://www.w3.org/2000/svg" xmlns:xlink="http://www.w3.org/1999/xlink">
    <title>CEDD5D3A-B074-4160-A75A-F9D2F515DE2E</title>
    <g id="Events-D" stroke="none" stroke-width="1" fill="none" fill-rule="evenodd">
        <g id="Events-Detail" transform="translate(-937.000000, -774.000000)" fill="#424242" fill-rule="nonzero">
            <g id="Group-3" transform="translate(905.000000, 569.000000)">
                <g id="Group" transform="translate(32.000000, 205.000000)">
                    <path d="M10,0.126156988 C4.46789655,0.126156988 0,4.85245819 0,10.6080812 C0,12.6837824 0.617,14.3355386 1.57327586,15.9036349 L9.11637931,28.2745108 C9.3041396,28.5869036 9.63901942,28.7775473 10,28.7775473 C10.3609806,28.7775473 10.6958604,28.5869036 10.8836207,28.2745108 L18.4267241,15.9036349 C19.383,14.3355036 20,12.6837824 20,10.6080812 C20,4.85245819 15.5321034,0.126156988 10,0.126156988 Z M10,2.22254253 C14.370931,2.22254253 17.9310345,5.94348711 17.9310345,10.6080812 C17.9310345,12.2879149 17.4965172,13.4282089 16.6594828,14.8008663 L10,25.719541 L3.34051724,14.8008663 C2.50348276,13.4282089 2.06896552,12.28788 2.06896552,10.6080812 C2.06896552,5.94348711 5.62906897,2.22254253 10,2.22254253 Z M10,5.01772325 C7.15562069,5.01772325 4.82758621,7.3766112 4.82758621,10.2586836 C4.82758621,13.1407246 7.15558621,15.4996614 10,15.4996614 C12.8444138,15.4996614 15.1724138,13.1407246 15.1724138,10.2586836 C15.1724138,7.3766112 12.8443793,5.01772325 10,5.01772325 Z M10,7.1141088 C11.7262414,7.1141088 13.1034483,8.50956783 13.1034483,10.2586836 C13.1034483,12.007733 11.7262069,13.4032619 10,13.4032619 C8.2737931,13.4032619 6.89655172,12.007733 6.89655172,10.2586836 C6.89655172,8.50956783 8.27375862,7.1141088 10,7.1141088 Z" id="Shape"></path>
                </g>
            </g>
        </g>
    </g>
</svg>