<?xml version="1.0" encoding="UTF-8"?>
<svg width="18px" height="24px" viewBox="0 0 18 24" version="1.1" xmlns="http://www.w3.org/2000/svg" xmlns:xlink="http://www.w3.org/1999/xlink">
    <title>A276DC78-225E-4D3D-9B63-32EE3D075400</title>
    <g id="Navigation-D-Copy" stroke="none" stroke-width="1" fill="none" fill-rule="evenodd">
        <g id="Heaader-with-account-notification-badge--orders-for-approval" transform="translate(-1089.000000, -143.000000)" fill="#5F6062" fill-rule="nonzero" stroke="#5F6062" stroke-width="0.4">
            <g id="navigation/country-selector" transform="translate(1069.000000, 46.000000)">
                <g id="Nav-Items" transform="translate(16.000000, 33.000000)">
                    <g id="navigation/account/item-copy-10" transform="translate(5.000000, 65.000000)">
                        <g id="icon/account/dashboard">
                            <g id="noun_Approve_1252425" transform="translate(0.250000, 0.500000)">
                                <g id="Group" transform="translate(0.225548, 0.127875)">
                                    <g transform="translate(0.000395, 0.072218)">
                                        <path d="M6.81972512,0 C6.00277889,0 5.32080632,0.504375513 5.00823559,1.20055582 L3.60877112,1.20055582 C3.39565473,1.20055582 3.210954,1.39236059 3.210954,1.605477 L3.210954,2.00329432 L0.397817297,2.00329432 C0.177597009,2.00329432 0,2.21641071 0,2.4082155 L0,18.4487778 C0,18.6547903 0.19180477,18.8465951 0.397817297,18.8465951 L13.2345291,18.8465951 C13.4405416,18.8465951 13.6323464,18.6547903 13.6323464,18.4487778 L13.6323464,2.4082155 C13.6323464,2.19509911 13.4405416,2.00329432 13.2345291,2.00329432 L10.4284964,2.00329432 L10.4284964,1.605477 C10.4284964,1.39236059 10.2366916,1.20055582 10.0235753,1.20055582 L8.62411078,1.20055582 C8.31154006,0.504375513 7.62956749,0 6.81972512,0 Z M6.81972512,0.802738501 C7.38093176,0.802738501 7.84978775,1.17924416 7.98476161,1.69782744 C8.02028094,1.86832058 8.19077413,2.00329432 8.36837099,2.00329432 L9.62575794,2.00329432 L9.62575794,3.210954 L4.00658844,3.210954 L4.00658844,2.00329432 L5.26397538,2.00329432 C5.44157244,2.00329432 5.61206544,1.86832058 5.65468884,1.69782744 C5.78255863,1.17924416 6.25141461,0.802738501 6.81972512,0.802738501 L6.81972512,0.802738501 Z M0.80273848,2.80603282 L3.210954,2.80603282 L3.210954,3.60877132 C3.210954,3.82188771 3.39565473,4.0136925 3.60877112,4.0136925 L10.0235753,4.0136925 C10.2366916,4.0136925 10.4284964,3.82188771 10.4284964,3.60877132 L10.4284964,2.80603282 L12.8296079,2.80603282 L12.8296079,18.0438566 L0.80273848,18.0438566 L0.80273848,2.80603282 Z" id="Shape"></path>
                                        <path d="M8.98640857,5.82303197 C8.88695424,5.83013523 8.78749991,5.8798631 8.72356511,5.95800563 L6.15906435,8.89190844 L4.85195033,7.90446902 C4.68145714,7.77659902 4.41150962,7.81922242 4.28363982,7.98971561 C4.1628739,8.16020861 4.19839323,8.43015613 4.37599029,8.55092206 L5.97436342,9.75858174 C6.13775255,9.8722438 6.38638847,9.84382834 6.51425827,9.70175081 L9.32029109,6.49079681 C9.43395315,6.37003068 9.45526475,6.17822609 9.38422588,6.03614836 C9.31318722,5.88696697 9.14269403,5.80172037 8.98640857,5.82303197 Z" id="Path"></path>
                                        <path d="M2.80603282,11.8378687 C2.58581236,11.8378687 2.4082155,12.0225697 2.4082155,12.2427899 C2.4082155,12.4630102 2.58581236,12.6406072 2.80603282,12.6406072 L10.8263136,12.6406072 C11.046534,12.6406072 11.2241309,12.4630102 11.2241309,12.2427899 C11.2241309,12.0225697 11.046534,11.8378687 10.8263136,11.8378687 L2.80603282,11.8378687 Z" id="Path"></path>
                                        <path d="M2.80603282,14.6510054 C2.58581236,14.6510054 2.4082155,14.8286025 2.4082155,15.0488227 C2.4082155,15.269043 2.58581236,15.4466401 2.80603282,15.4466401 L10.8263136,15.4466401 C11.046534,15.4466401 11.2241309,15.269043 11.2241309,15.0488227 C11.2241309,14.8286025 11.046534,14.6510054 10.8263136,14.6510054 L2.80603282,14.6510054 Z" id="Path"></path>
                                    </g>
                                </g>
                            </g>
                        </g>
                    </g>
                </g>
            </g>
        </g>
    </g>
</svg>