<?xml version="1.0" encoding="UTF-8"?>
<svg width="23px" height="26px" viewBox="0 0 23 26" version="1.1" xmlns="http://www.w3.org/2000/svg" xmlns:xlink="http://www.w3.org/1999/xlink">
    <title>9D637636-7B4C-4008-9FF6-0553506DCD6B</title>
    <g id="Page-1" stroke="none" stroke-width="1" fill="none" fill-rule="evenodd">
        <g id="Order-Details-view-shipped-anchor" transform="translate(-1017.000000, -2463.000000)" fill="#004593" fill-rule="nonzero" stroke="#004593" stroke-width="0.2">
            <g id="Tracking-Orders" transform="translate(506.000000, 1237.000000)">
                <g id="Personal-Information-Copy-6" transform="translate(0.000000, 1115.000000)">
                    <g id="Order-details" transform="translate(32.000000, 86.000000)">
                        <g id="Group" transform="translate(452.000000, 0.000000)">
                            <g id="1092000" transform="translate(28.000000, 26.000000)">
                                <path d="M16.3568115,10.3894043 L16.3568115,5.84747316 C16.3568115,5.71746825 16.2967529,5.59735106 16.211792,5.50231931 L11.1196289,0.155090344 C11.0245972,0.0551147344 10.8894653,0 10.7545166,0 L2.68103025,0 C1.19055178,0 0,1.21545412 0,2.70611573 L0,17.9725342 C0,19.4631958 1.19055178,20.6586914 2.68103025,20.6586914 L9.05383303,20.6586914 C10.2592163,22.6594849 12.4502564,24 14.946167,24 C18.7377319,24 21.8340537,20.9187012 21.8340537,17.1221924 C21.8391724,13.8057862 19.4580689,11.034668 16.3568115,10.3894043 Z M11.2547607,1.75579833 L14.6711426,5.35217287 L12.4552002,5.35217287 C11.7949219,5.35217287 11.2547607,4.80706786 11.2547607,4.14678956 L11.2547607,1.75579833 Z M2.68103025,19.6582031 C1.74572756,19.6582031 1.00048828,18.9078369 1.00048828,17.9725342 L1.00048828,2.70611573 C1.00048828,1.76568605 1.74572756,1.00048828 2.68103025,1.00048828 L10.2542724,1.00048828 L10.2542724,4.14678956 C10.2542724,5.36224364 11.2397461,6.35266116 12.4552002,6.35266116 L15.3563232,6.35266116 L15.3563232,10.2592163 C15.2063599,10.2542724 15.0862427,10.2392578 14.9562378,10.2392578 C13.2105103,10.2392578 11.6048584,10.9096069 10.3943482,11.960083 L4.041687,11.960083 C3.76647947,11.960083 3.54144286,12.1851196 3.54144286,12.460144 C3.54144286,12.7353516 3.76647947,12.9603882 4.041687,12.9603882 L9.46398928,12.9603882 C9.10876463,13.4606323 8.81359866,13.9608765 8.58361819,14.5111084 L4.041687,14.5111084 C3.76647947,14.5111084 3.54144286,14.736145 3.54144286,15.0113526 C3.54144286,15.286377 3.76647947,15.5115967 4.041687,15.5115967 L8.25842288,15.5115967 C8.13336183,16.0118408 8.06835938,16.5670166 8.06835938,17.1221924 C8.06835938,18.022522 8.2434082,18.9129638 8.5585327,19.6633301 L2.68103025,19.6633301 L2.68103025,19.6582031 Z M14.951294,23.0046387 C11.7099609,23.0046387 9.07379152,20.3684693 9.07379152,17.1271362 C9.07379152,13.8858032 11.704834,11.2496338 14.951294,11.2496338 C18.1975708,11.2496338 20.8286133,13.8858032 20.8286133,17.1271362 C20.8286133,20.3684693 18.192627,23.0046387 14.951294,23.0046387 Z" id="Shape"></path>
                                <path d="M4.041687,10.4544068 L9.10876462,10.4544068 C9.38397216,10.4544068 9.60900881,10.229187 9.60900881,9.95416261 C9.60900881,9.67895508 9.38397216,9.45391847 9.10876462,9.45391847 L4.041687,9.45391847 C3.76647947,9.45391847 3.54144286,9.67895508 3.54144286,9.95416261 C3.54144286,10.229187 3.76647947,10.4544068 4.041687,10.4544068 Z" id="Path"></path>
                                <path d="M17.512207,17.0220337 L15.4564819,19.2379761 L15.4564819,13.7757568 C15.4564819,13.5005493 15.2312622,13.2755127 14.9562378,13.2755127 C14.6810303,13.2755127 14.4559936,13.5005493 14.4559936,13.7757568 L14.4559936,19.2379761 L12.3850708,17.0220337 C12.1950073,16.8220825 11.874939,16.8070679 11.6748047,16.9971314 C11.4746704,17.1871948 11.4596558,17.5023193 11.6499023,17.7024536 L14.5761108,20.8487549 C14.6711426,20.9487305 14.8011474,21.0087891 14.9412232,21.0087891 C15.0812988,21.0087891 15.2113037,20.9487305 15.3063354,20.8487549 L18.2376709,17.7024536 C18.4277344,17.5023193 18.4176636,17.182251 18.2175293,16.9971314 C18.0124512,16.8070679 17.7024536,16.8220825 17.512207,17.0220337 Z" id="Path"></path>
                            </g>
                        </g>
                    </g>
                </g>
            </g>
        </g>
    </g>
</svg>