<?xml version="1.0" encoding="UTF-8"?>
<svg width="22px" height="22px" viewBox="0 0 22 22" version="1.1" xmlns="http://www.w3.org/2000/svg" xmlns:xlink="http://www.w3.org/1999/xlink">
    <title>DFCB7DCB-8262-4161-B58E-2A4B5C934376</title>
    <g id="Desktop" stroke="none" stroke-width="1" fill="none" fill-rule="evenodd">
        <g id="Smart-Cart---Dashboard---buying-enabled" transform="translate(-774.000000, -452.000000)" fill="#424242" fill-rule="nonzero">
            <g id="Group" transform="translate(505.000000, 284.000000)">
                <g id="Content" transform="translate(32.000000, 68.000000)">
                    <g id="Group-34" transform="translate(32.000000, 24.000000)">
                        <g id="Group-2" transform="translate(204.000000, 21.000000)">
                            <g id="1000972" transform="translate(1.000000, 55.000000)">
                                <circle id="Oval" cx="14.5234375" cy="14.8672305" r="1"></circle>
                                <path d="M10.2265625,20.281293 L3.4375,20.281293 C2.48978125,20.281293 1.71875,19.5102617 1.71875,18.562543 L1.71875,11.515668 C1.71875,10.5679492 2.48978125,9.79691797 3.4375,9.79691797 L15.8125,9.79691797 C16.7602187,9.79691797 17.53125,10.5679492 17.53125,11.515668 L17.53125,13.234418 C17.53125,13.7090508 17.9159922,14.093793 18.390625,14.093793 C18.8652578,14.093793 19.25,13.7090508 19.25,13.234418 L19.25,11.515668 C19.25,9.62023047 17.7079375,8.07816797 15.8125,8.07816797 L14.7796602,8.07816797 L14.7796602,5.04741016 C14.7796602,2.26428125 12.4665664,4.296875e-05 9.62341016,4.296875e-05 C6.78025391,4.296875e-05 4.46716016,2.26428125 4.46716016,5.04741016 L4.46716016,8.07816797 L3.4375,8.07816797 C1.5420625,8.07816797 0,9.62023047 0,11.515668 L0,18.562543 C0,20.4579805 1.5420625,22.000043 3.4375,22.000043 L10.2265625,22.000043 C10.7011953,22.000043 11.0859375,21.6153008 11.0859375,21.140668 C11.0859375,20.6660352 10.7011953,20.281293 10.2265625,20.281293 Z M6.18591016,5.04741016 C6.18591016,3.212 7.72797266,1.71879297 9.62341016,1.71879297 C11.5188477,1.71879297 13.0609102,3.212 13.0609102,5.04741016 L13.0609102,8.07816797 L6.18591016,8.07816797 L6.18591016,5.04741016 Z" id="Shape"></path>
                                <path d="M21.6409102,13.9965977 C21.2549648,13.7202656 20.7180703,13.809168 20.4419102,14.1951133 L16.2060078,20.1119102 C16.0903359,20.2460586 15.9453594,20.2750195 15.8676719,20.2801758 C15.7880078,20.2854609 15.6346094,20.2753633 15.4995586,20.1486484 L12.7621055,17.4772383 C12.4223945,17.1456914 11.8783242,17.1524375 11.5468633,17.4920625 C11.2153594,17.8317305 11.2219766,18.3758008 11.5616875,18.7073047 L14.3039531,21.3834414 C14.3065313,21.3859336 14.3090664,21.3884258 14.3116875,21.390875 C14.7227695,21.7822773 15.2715234,22 15.8361328,22 C15.8846445,22 15.9332852,21.9984102 15.9819258,21.9951445 C16.5969805,21.9541523 17.1712578,21.6550469 17.557418,21.1745703 C17.5673867,21.1621094 17.5770117,21.1494336 17.5863359,21.136457 L21.8394258,15.1955977 C22.1156719,14.8096953 22.0268125,14.2728437 21.6409102,13.9965977 Z" id="Path"></path>
                                <circle id="Oval" cx="11.2578125" cy="14.8672305" r="1"></circle>
                                <circle id="Oval" cx="4.8125" cy="14.8672305" r="1"></circle>
                                <circle id="Oval" cx="8.03515625" cy="14.8672305" r="1"></circle>
                            </g>
                        </g>
                    </g>
                </g>
            </g>
        </g>
    </g>
</svg>