<?xml version="1.0" encoding="UTF-8"?>
<svg width="32px" height="36px" viewBox="0 0 32 36" version="1.1" xmlns="http://www.w3.org/2000/svg" xmlns:xlink="http://www.w3.org/1999/xlink">
    <title>51E7AD47-22F1-4033-B5A4-E3DF6590F1E7</title>
    <g id="Page-1" stroke="none" stroke-width="1" fill="none" fill-rule="evenodd">
        <g id="Scientific-Resources" transform="translate(-537.000000, -487.000000)" fill-rule="nonzero">
            <g id="Results" transform="translate(535.000000, 449.000000)">
                <g id="search-results/item/product" transform="translate(2.000000, 0.000000)">
                    <g id="337946" transform="translate(0.000000, 38.000000)">
                        <path d="M6.75,0 C5.5125,0 4.5,1.0125 4.5,2.25 L4.5,33.75 C4.5,34.9875 5.5125,36 6.75,36 L29.25,36 C30.4875,36 31.5,34.9875 31.5,33.75 L31.5,9 L22.5,0 L6.75,0 Z" id="Path" fill="#E2E5E7"></path>
                        <path d="M24.75,9 L31.5,9 L22.5,0 L22.5,6.75 C22.5,7.9875 23.5125,9 24.75,9 Z" id="Path" fill="#B0B7BD"></path>
                        <path d="M27,29.25 C27,29.86875 26.49375,30.375 25.875,30.375 L1.125,30.375 C0.50625,30.375 0,29.86875 0,29.25 L0,18 C0,17.38125 0.50625,16.875 1.125,16.875 L25.875,16.875 C26.49375,16.875 27,17.38125 27,18 L27,29.25 Z" id="Path" fill="#DB6453"></path>
                        <g id="Group" transform="translate(4.851562, 20.671875)" fill="#FFFFFF">
                            <path d="M0.0523125,0.6435 C0.0523125,0.3465 0.2863125,0.0225 0.6631875,0.0225 L2.7410625,0.0225 C3.9110625,0.0225 4.9640625,0.8055 4.9640625,2.30625 C4.9640625,3.72825 3.9110625,4.52025 2.7410625,4.52025 L1.2391875,4.52025 L1.2391875,5.70825 C1.2391875,6.10425 0.9871875,6.328125 0.6631875,6.328125 C0.3661875,6.328125 0.0523125,6.10425 0.0523125,5.70825 L0.0523125,0.6435 L0.0523125,0.6435 Z M1.2391875,1.155375 L1.2391875,3.396375 L2.7410625,3.396375 C3.3440625,3.396375 3.8210625,2.86425 3.8210625,2.30625 C3.8210625,1.677375 3.3440625,1.155375 2.7410625,1.155375 L1.2391875,1.155375 Z" id="Shape"></path>
                            <path d="M6.7258125,6.328125 C6.4288125,6.328125 6.1048125,6.166125 6.1048125,5.77125 L6.1048125,0.6615 C6.1048125,0.338625 6.4288125,0.1035 6.7258125,0.1035 L8.7856875,0.1035 C12.8964375,0.1035 12.8064375,6.328125 8.8666875,6.328125 L6.7258125,6.328125 L6.7258125,6.328125 Z M7.2928125,1.2015 L7.2928125,5.23125 L8.7856875,5.23125 C11.2145625,5.23125 11.3225625,1.2015 8.7856875,1.2015 L7.2928125,1.2015 L7.2928125,1.2015 Z" id="Shape"></path>
                            <path d="M14.2644375,1.2735 L14.2644375,2.703375 L16.5583125,2.703375 C16.8823125,2.703375 17.2063125,3.027375 17.2063125,3.34125 C17.2063125,3.63825 16.8823125,3.88125 16.5583125,3.88125 L14.2644375,3.88125 L14.2644375,5.770125 C14.2644375,6.085125 14.0405625,6.327 13.7255625,6.327 C13.3295625,6.327 13.0876875,6.085125 13.0876875,5.770125 L13.0876875,0.660375 C13.0876875,0.3375 13.3306875,0.102375 13.7255625,0.102375 L16.8834375,0.102375 C17.2794375,0.102375 17.5134375,0.3375 17.5134375,0.660375 C17.5134375,0.948375 17.2794375,1.272375 16.8834375,1.272375 L14.2644375,1.272375 L14.2644375,1.2735 Z" id="Path"></path>
                        </g>
                    </g>
                </g>
            </g>
        </g>
    </g>
</svg>