<?xml version="1.0" encoding="UTF-8"?>
<svg width="31px" height="32px" viewBox="0 0 31 32" version="1.1" xmlns="http://www.w3.org/2000/svg" xmlns:xlink="http://www.w3.org/1999/xlink">
    <title>D968F079-3FA2-41B9-8B25-6DEB513C2611</title>
    <g id="Desktop" stroke="none" stroke-width="1" fill="none" fill-rule="evenodd">
        <g id="My-Cart---price-confirmation-pdf" transform="translate(-1192.000000, -14.000000)" fill="#FFFFFF" fill-rule="nonzero">
            <g id="126489" transform="translate(1192.000000, 14.000000)">
                <path d="M25.7225673,6.55238095 L24.9010352,6.55238095 L24.9010352,4.72380952 C24.9010352,2.12008282 22.7809524,0 20.1772257,0 L10.2592133,0 C7.65548654,0 5.53540373,2.12008282 5.53540373,4.72380952 L5.53540373,6.55238095 L4.78674948,6.55238095 C2.18302277,6.55238095 0.0629399586,8.67246377 0.0629399586,11.2761905 L0.0629399586,18.8952381 C0.0629399586,21.4989648 2.18302277,23.6190476 4.78674948,23.6190476 L5.52877847,23.6190476 L5.52877847,29.6082816 C5.52877847,30.9068323 6.58881988,31.9668737 7.8873706,31.9668737 L22.5358178,31.9668737 C23.8343685,31.9668737 24.8944099,30.9068323 24.8944099,29.6082816 L24.8944099,23.6190476 L25.7225673,23.6190476 C28.326294,23.6190476 30.4463768,21.4989648 30.4463768,18.8952381 L30.4463768,11.2761905 C30.4463768,8.67246377 28.326294,6.55238095 25.7225673,6.55238095 Z M7.31759834,4.72380952 C7.31759834,3.10724638 8.63602484,1.78881988 10.252588,1.78881988 L20.1639752,1.78881988 C21.7805383,1.78881988 23.0989648,3.10724638 23.0989648,4.72380952 L23.0989648,6.55238095 L7.31759834,6.55238095 L7.31759834,4.72380952 Z M23.1055901,29.6215321 C23.1055901,29.9329193 22.847205,30.1913043 22.5358178,30.1913043 L7.8873706,30.1913043 C7.57598344,30.1913043 7.31759834,29.9329193 7.31759834,29.6215321 L7.31759834,19.7432712 L23.1055901,19.7432712 L23.1055901,29.6215321 Z M28.6575569,18.9018634 C28.6575569,20.5184265 27.3391304,21.836853 25.7225673,21.836853 L24.9010352,21.836853 L24.9010352,19.7432712 L26.0803313,19.7432712 C26.5772257,19.7432712 26.9747412,19.3457557 26.9747412,18.8488613 C26.9747412,18.3519669 26.5772257,17.9544513 26.0803313,17.9544513 L4.21697723,17.9544513 C3.72008282,17.9544513 3.32256729,18.3519669 3.32256729,18.8488613 C3.32256729,19.3457557 3.72008282,19.7432712 4.21697723,19.7432712 L5.53540373,19.7432712 L5.53540373,21.836853 L4.78674948,21.836853 C3.17018634,21.836853 1.85175983,20.5184265 1.85175983,18.9018634 L1.85175983,11.2828157 C1.85175983,9.66625259 3.17018634,8.34782609 4.78674948,8.34782609 L25.7225673,8.34782609 C27.3391304,8.34782609 28.6575569,9.66625259 28.6575569,11.2828157 L28.6575569,18.9018634 Z" id="Shape"></path>
                <path d="M9.48405797,24.1424431 L20.8728778,24.1424431 C21.3697723,24.1424431 21.7672878,23.7449275 21.7672878,23.2480331 C21.7672878,22.7511387 21.3697723,22.3536232 20.8728778,22.3536232 L9.48405797,22.3536232 C8.98716356,22.3536232 8.58964803,22.7511387 8.58964803,23.2480331 C8.58964803,23.7449275 8.99378882,24.1424431 9.48405797,24.1424431 Z" id="Path"></path>
                <path d="M20.9457557,26.010766 L9.55031056,26.010766 C9.05341615,26.010766 8.65590062,26.4082816 8.65590062,26.905176 C8.65590062,27.4020704 9.05341615,27.7995859 9.55031056,27.7995859 L20.9391304,27.7995859 C21.4360248,27.7995859 21.8335404,27.4020704 21.8335404,26.905176 C21.8335404,26.4082816 21.4360248,26.010766 20.9457557,26.010766 Z" id="Path"></path>
                <path d="M25.7026915,10.0637681 L23.8873706,10.0637681 C23.3904762,10.0637681 22.9929607,10.4612836 22.9929607,10.9581781 C22.9929607,11.4550725 23.3904762,11.852588 23.8873706,11.852588 L25.7026915,11.852588 C26.1995859,11.852588 26.5971014,11.4550725 26.5971014,10.9581781 C26.5971014,10.4612836 26.1995859,10.0637681 25.7026915,10.0637681 Z" id="Path"></path>
            </g>
        </g>
    </g>
</svg>