<?xml version="1.0" encoding="UTF-8"?><svg xmlns="http://www.w3.org/2000/svg" width="14" height="14" xmlns:xlink="http://www.w3.org/1999/xlink" viewBox="0 0 14 14"><defs><style>.f,.g{fill:none;}.h{fill:#00b0a9;}.g{clip-rule:evenodd;}.i{clip-path:url(#e);}.j{clip-path:url(#d);}</style><clipPath id="d"><path class="g" d="M7.4665,7.1556h4.6667v5.9111H7.4665V7.1556Zm-5.6,0H6.5332v5.9111H1.8665V7.1556Zm5.6-2.8h5.6v1.8667H7.4665v-1.8667ZM.9332,4.3556H6.5332v1.8667H.9332v-1.8667ZM5.4443,1.2444c.607,0,1.0889,.4819,1.0889,1.0889v1.0889h-1.0889c-.607,0-1.0889-.4819-1.0889-1.0889s.4819-1.0889,1.0889-1.0889Zm3.2667-.3111c.6927,0,1.2444,.5517,1.2444,1.2444s-.5517,1.2444-1.2444,1.2444h-1.2444v-1.2444c0-.6927,.5517-1.2444,1.2444-1.2444Zm0-.9333c-.7444,0-1.4055,.378-1.7985,.9528-.3694-.3913-.8914-.6417-1.4681-.6417-1.1114,0-2.0222,.9109-2.0222,2.0222,0,.4004,.1179,.7735,.3208,1.0889H.4667c-.2443,0-.4667,.2224-.4667,.4667v2.8c0,.2443,.2224,.4667,.4667,.4667h.4667v6.3778c0,.2443,.2224,.4667,.4667,.4667H12.6c.2443,0,.4667-.2224,.4667-.4667V7.1556h.4667c.2443,0,.4667-.2224,.4667-.4667V3.8889c0-.2443-.2224-.4667-.4667-.4667h-3.0382c.2473-.353,.3937-.7833,.3937-1.2444,0-1.1971-.9807-2.1778-2.1778-2.1778h-.0002Z"/></clipPath><clipPath id="e"><rect class="f" x="-297.3034" y="-1042.1667" width="1008" height="2136.4"/></clipPath></defs><g id="a"/><g id="b"><g id="c"><g class="j"><g class="i"><rect class="h" x="-3.5" y="-3.5" width="21" height="21"/></g></g></g></g></svg>