<?xml version="1.0" encoding="UTF-8"?>
<svg width="5px" height="9px" viewBox="0 0 5 9" version="1.1" xmlns="http://www.w3.org/2000/svg" xmlns:xlink="http://www.w3.org/1999/xlink">
    <title>286C7921-7B58-4168-8CCE-2F2A2B3A029A</title>
    <g id="Search-Results--D" stroke="none" stroke-width="1" fill="none" fill-rule="evenodd">
        <g id="Search-results-with-product-info" transform="translate(-718.000000, -426.000000)" fill="#004593">
            <g id="Results" transform="translate(535.000000, 202.000000)">
                <g id="message-box-D" transform="translate(0.000000, 182.000000)">
                    <g id="Text" transform="translate(52.000000, 17.000000)">
                        <g id="Link" transform="translate(0.000000, 22.000000)">
                            <path d="M129.21967,5.20920944 C129.490033,4.9517209 129.915456,4.93191409 130.209675,5.14978901 L130.28033,5.20920944 L133.5,8.275 L136.71967,5.20920944 C136.990033,4.9517209 137.415456,4.93191409 137.709675,5.14978901 L137.78033,5.20920944 C138.050693,5.46669799 138.07149,5.87186303 137.842722,6.15207103 L137.78033,6.21936199 L134.03033,9.79079056 C133.759967,10.0482791 133.334544,10.0680859 133.040325,9.85021099 L132.96967,9.79079056 L129.21967,6.21936199 C128.926777,5.94041606 128.926777,5.48815536 129.21967,5.20920944 Z" id="Line-Copy" transform="translate(133.500000, 7.500000) scale(-1, 1) rotate(-270.000000) translate(-133.500000, -7.500000) "></path>
                        </g>
                    </g>
                </g>
            </g>
        </g>
    </g>
</svg>