<?xml version="1.0" encoding="UTF-8"?>
<svg width="30px" height="28px" viewBox="0 0 31 32" version="1.1" xmlns="http://www.w3.org/2000/svg" xmlns:xlink="http://www.w3.org/1999/xlink">
    <title>AD8E7115-DE14-4AD0-99B5-2FEB52B73CFA</title>
    <g id="Instrument-Overview---D" stroke="none" stroke-width="1" fill="none" fill-rule="evenodd">
        <g id="Instrument-Overview---training-&amp;-resources-expanded-state" transform="translate(-1131.000000, -3539.000000)">
            <g id="Group-23" transform="translate(0.000000, 2843.000000)">
                <g id="Applications" transform="translate(135.000000, 88.000000)">
                    <g id="Card" transform="translate(0.000000, 210.000000)">
                        <g id="image-thmbnail-copy-3" transform="translate(884.000000, 304.000000)">
                            <g id="Search-icon" transform="translate(112.000000, 94.000000)">
                                <g transform="translate(0.067754, 0.608332)" fill="#004593" fill-rule="nonzero">
                                    <path d="M12.4584146,25.0328608 C19.3111953,25.0328608 24.8664717,19.4404123 24.8664717,12.5417776 C24.8664717,5.64314278 19.3111953,0.0506943313 12.4584146,0.0506943313 C5.6056338,0.0506943313 0.0503573749,5.64314278 0.0503573749,12.5417776 C0.0503573749,19.4404123 5.6056338,25.0328608 12.4584146,25.0328608 Z M12.4584146,22.3562001 C7.07408682,22.3562001 2.70922677,17.9621335 2.70922677,12.5417776 C2.70922677,7.12142167 7.07408682,2.72735502 12.4584146,2.72735502 C17.8427423,2.72735502 22.2076023,7.12142167 22.2076023,12.5417776 C22.2076023,17.9621335 17.8427423,22.3562001 12.4584146,22.3562001 Z" id="Oval"></path>
                                    <path d="M19.1206066,22.3006885 L26.8421207,30.4129639 C27.3500991,30.9466495 28.1916588,30.9647338 28.7217971,30.4533564 C29.2519353,29.941979 29.2698994,29.0947881 28.761921,28.5611025 L21.040407,20.4488271 C20.5324286,19.9151416 19.6908689,19.8970573 19.1607306,20.4084347 C18.6305924,20.9198121 18.6126283,21.767003 19.1206066,22.3006885 Z" id="Path-3"></path>
                                </g>
                                <g id="Group" transform="translate(8.000000, 8.500000)" stroke="#004593" stroke-linecap="round" stroke-width="2">
                                    <line x1="0" y1="4.5" x2="9" y2="4.5" id="Line"></line>
                                    <line x1="4.5" y1="0" x2="4.5" y2="9" id="Line-13"></line>
                                </g>
                            </g>
                        </g>
                    </g>
                </g>
            </g>
        </g>
    </g>
</svg>
