<?xml version="1.0" encoding="UTF-8"?>
<svg width="36px" height="36px" viewBox="0 0 36 36" version="1.1" xmlns="http://www.w3.org/2000/svg" xmlns:xlink="http://www.w3.org/1999/xlink">
    <title>F4C0034D-DAFC-467C-B0B0-F5CBB8326BBD</title>
    <defs>
        <filter id="filter-1">
            <feColorMatrix in="SourceGraphic" type="matrix" values="0 0 0 0 1.000000 0 0 0 0 1.000000 0 0 0 0 1.000000 0 0 0 1.000000 0"></feColorMatrix>
        </filter>
    </defs>
    <g id="Page-1" stroke="none" stroke-width="1" fill="none" fill-rule="evenodd">
        <g id="Integrated-Solution-Template" transform="translate(-620.000000, -1849.000000)">
            <g id="Group-12" transform="translate(368.000000, 1436.000000)">
                <g id="Group-21" transform="translate(50.000000, 161.000000)">
                    <g id="Group-15" transform="translate(0.000000, 238.000000)">
                        <g id="Group-10" transform="translate(165.000000, 0.000000)">
                            <g id="secure" transform="translate(23.000000, 0.000000)" filter="url(#filter-1)">
                                <g transform="translate(14.000000, 14.000000)">
                                    <path d="M26.9003382,3.89189715 L18.0558529,0.0488631074 C17.9054669,-0.0162877025 17.7345331,-0.0162877025 17.5841471,0.0488631074 L8.73966176,3.89189715 C8.524885,3.98494355 8.38588235,4.19540953 8.38588235,4.42802557 L8.38588235,13.6171262 C8.38907887,15.6822287 9.38879256,17.6208056 11.0746059,18.8309165 L17.1873245,23.2071525 C17.5648495,23.4784002 18.0751505,23.4784002 18.4526755,23.2071525 L24.5653941,18.8315018 C26.2512074,17.6213909 27.2509211,15.682814 27.2541176,13.6177115 L27.2541176,4.42802557 C27.2541176,4.19540953 27.115115,3.98494355 26.9003382,3.89189715 Z M26.0748529,13.6177115 C26.0721522,15.3068138 25.2544107,16.8923948 23.8755243,17.8821565 L17.82,22.217422 L11.7644757,17.8821565 C10.3855893,16.8923948 9.56784781,15.3068138 9.56514706,13.6177115 L9.56514706,4.81080721 L17.82,1.22413151 L26.0748529,4.81080721 L26.0748529,13.6177115 Z" id="Shape" fill="#A3A3A3" fill-rule="nonzero"></path>
                                    <path d="M17.5870588,2.84439102 L11.1811765,5.67664893 C10.9690513,5.77014051 10.8317647,5.98161349 10.8317647,6.2153425 L10.8317647,13.9105449 C10.8335618,15.2300226 11.4615657,16.4686696 12.5205882,17.241506 L17.4793235,20.8535758 C17.6827433,21.0017492 17.9572567,21.0017492 18.1606765,20.8535758 L23.1194118,17.241506 C24.1784343,16.4686696 24.8064382,15.2300226 24.8082353,13.9105449 L24.8082353,6.2153425 C24.8082353,5.98161349 24.6709487,5.77014051 24.4588235,5.67664893 L18.0529412,2.84439102 C17.9044118,2.77892848 17.7355882,2.77892848 17.5870588,2.84439102 Z M23.6435294,6.5993675 L23.6435294,13.9105449 C23.6417464,14.852107 23.1935723,15.7358638 22.4380588,16.2876185 L17.82,19.6515129 L13.2019412,16.2876185 C12.4464277,15.7358638 11.9982536,14.852107 11.9964706,13.9105449 L11.9964706,6.5993675 L17.82,4.0252826 L23.6435294,6.5993675 Z" id="Shape" fill="#A3A3A3" fill-rule="nonzero"></path>
                                    <path d="M4.81775183,19.477585 L3.5573085,16.4955358 C3.28926504,15.8807374 2.71765411,15.457433 2.05779601,15.3850775 C1.39793791,15.3127221 0.750080797,15.6023078 0.358266176,16.1447507 C-0.0335484438,16.6871937 -0.109794602,17.4000837 0.158248891,18.0148822 L2.44196475,23.1015949 C2.75006063,23.7902052 3.17866613,24.4166887 3.70706992,24.9507722 L7.29843017,28.587763 C7.09617039,28.804827 6.98322447,29.0917881 6.98259093,29.3902139 L6.98259093,34.1105134 C6.98259093,34.7622507 7.50438446,35.2905882 8.14804939,35.2905882 L14.5580709,35.2905882 C15.2017359,35.2905882 15.7235294,34.7622507 15.7235294,34.1105134 L15.7235294,29.3902139 C15.7235294,28.7384765 15.2017359,28.210139 14.5580709,28.210139 L14.5580709,27.1120793 C14.5759257,25.7146776 14.125669,24.3523747 13.2807285,23.2473341 C12.7853497,22.5876227 12.1102204,22.0890261 11.3384919,21.8129531 C10.1111699,21.2908255 8.98244359,20.5573847 8.00236709,19.6451556 C7.09263719,18.8865058 5.80024461,18.8185017 4.81775183,19.477585 Z M14.5580709,34.1105134 L8.14804939,34.1105134 L8.14804939,29.3902139 L14.5580709,29.3902139 L14.5580709,34.1105134 Z M12.3710881,23.9842909 C13.0503246,24.8803487 13.4103331,25.9826527 13.3926125,27.1120793 L13.3926125,28.210139 L8.57402446,28.210139 L4.53104905,24.1164593 C4.10165526,23.6822961 3.75322505,23.1731847 3.50253195,22.6136339 L1.21881609,17.5269212 C1.12135654,17.309815 1.13949492,17.0574464 1.26697117,16.8569149 C1.39444743,16.6563835 1.61380191,16.535068 1.84932912,16.535068 C2.12650227,16.5348415 2.37699706,16.7023065 2.48566944,16.9604853 L3.78923474,20.0387106 C4.13538853,20.8599853 4.63433447,21.6061719 5.25887786,22.2366 L7.92078499,24.9324811 C8.06709344,25.0858652 8.28375415,25.1473801 8.48749343,25.0933826 C8.69123276,25.039385 8.850344,24.8782783 8.90367276,24.6719838 C8.95700146,24.4656894 8.89624844,24.2463115 8.74476413,24.0981681 L6.08285699,21.4022871 C5.81518806,21.1319155 5.57452037,20.8354606 5.36435185,20.5172309 C5.92396783,20.0812056 6.70686146,20.0944215 7.25181183,20.5490929 C8.34113235,21.5613346 9.60014677,22.3685774 10.9696243,22.9328442 C11.5275989,23.1382924 12.0145246,23.5036079 12.3710881,23.9842909 Z" id="Shape" fill="#A3A3A3" fill-rule="nonzero"></path>
                                    <path d="M12.9282353,31.4470588 L12.2294118,31.4470588 C11.8434622,31.4470588 11.5305882,31.6817143 11.5305882,31.9711765 C11.5305882,32.2606386 11.8434622,32.4952941 12.2294118,32.4952941 L12.9282353,32.4952941 C13.3141848,32.4952941 13.6270588,32.2606386 13.6270588,31.9711765 C13.6270588,31.6817143 13.3141848,31.4470588 12.9282353,31.4470588 Z" id="Shape" fill="#A3A3A3" fill-rule="nonzero"></path>
                                    <path d="M32.7837122,23.1185037 L35.1163469,18.0388473 C35.4031581,17.4228255 35.3322026,16.7015829 34.9307118,16.1519193 C34.5292209,15.6022556 33.8595654,15.30956 33.1787468,15.3861634 C32.4979282,15.4627668 31.9117101,15.8967693 31.6450723,16.5216086 L30.3606054,19.4883259 C29.3535813,18.8333954 28.0328498,18.905088 27.1042022,19.6650915 C26.1031317,20.5760552 24.9502273,21.3084785 23.6966151,21.8298819 C22.9083557,22.1055719 22.2187647,22.6034768 21.7127745,23.2622731 C20.8493515,24.366257 20.3894282,25.7273577 20.4080705,27.1234247 L20.4080705,28.2199611 C19.7506178,28.2199611 19.2176471,28.7475657 19.2176471,29.398399 L19.2176471,34.1121504 C19.2176471,34.7629836 19.7506178,35.2905882 20.4080705,35.2905882 L26.9553992,35.2905882 C27.6128519,35.2905882 28.1458226,34.7629836 28.1458226,34.1121504 L28.1458226,29.398399 C28.1451755,29.1003872 28.0298102,28.8138242 27.8232179,28.5970612 L31.4915076,24.9651158 C32.0312302,24.4317731 32.4690167,23.8061587 32.7837122,23.1185037 Z M26.9553992,34.1121504 L20.4080705,34.1121504 L20.4080705,29.398399 L26.9553992,29.398399 L26.9553992,34.1121504 Z M26.5202995,28.2199611 L21.5984939,28.2199611 L21.5984939,27.1234247 C21.5805285,25.9957659 21.9482415,24.8952201 22.6419,24.0005644 C23.0052925,23.5208602 23.5015425,23.1558997 24.0704081,22.949987 C25.4694844,22.3866664 26.7556912,21.5805297 27.868454,20.5695426 C28.4244697,20.1120495 29.2263814,20.0966375 29.799916,20.5324218 C29.5846182,20.8525528 29.3375705,21.1506045 29.0624487,21.4221424 L26.3435216,24.1142836 C26.1179529,24.3454807 26.1211788,24.71298 26.3507721,24.9402617 C26.5803654,25.1675434 26.9516024,25.1707368 27.1851509,24.9474392 L29.904078,22.2552979 C30.5419996,21.6257444 31.0516333,20.8805929 31.4052019,20.0604574 L32.7366905,16.9859131 C32.8479995,16.7284276 33.1037414,16.5615043 33.3866617,16.5616753 C33.6272341,16.5616753 33.8512873,16.6828223 33.9814942,16.8830756 C34.111701,17.0833289 34.130228,17.3353474 34.0306808,17.5521525 L31.6980461,22.6318088 C31.441983,23.1905834 31.0860891,23.6989885 30.6474974,24.1325494 L26.5202995,28.2199611 Z" id="Shape" fill="#A3A3A3" fill-rule="nonzero"></path>
                                    <path d="M23.0611765,31.4470588 L22.3623529,31.4470588 C21.9764034,31.4470588 21.6635294,31.6817143 21.6635294,31.9711765 C21.6635294,32.2606386 21.9764034,32.4952941 22.3623529,32.4952941 L23.0611765,32.4952941 C23.447126,32.4952941 23.76,32.2606386 23.76,31.9711765 C23.76,31.6817143 23.447126,31.4470588 23.0611765,31.4470588 Z" id="Shape" fill="#A3A3A3" fill-rule="nonzero"></path>
                                    <path d="M14.5854679,12.4989849 C14.3208203,12.3004984 13.9453765,12.3541334 13.7468908,12.6187821 C13.5484051,12.8834307 13.6020399,13.2588759 13.8666875,13.4573625 L16.2626221,15.2543204 C16.3663039,15.3320821 16.4924101,15.3741176 16.6220123,15.3741176 C16.6559238,15.3740049 16.6897728,15.3712008 16.7232405,15.3657318 C16.8854634,15.3378956 17.0290838,15.2445312 17.1203667,15.1075689 L21.9122359,7.91973694 C22.0310038,7.74169134 22.0457641,7.51380826 21.9509567,7.32192909 C21.8561492,7.13004985 21.6661776,7.0033255 21.4526023,6.98949186 C21.2390269,6.97565822 21.034295,7.07681689 20.9155271,7.25486248 L16.4746623,13.9161857 L14.5854679,12.4989849 Z" id="Shape" fill="#A3A3A3" fill-rule="nonzero"></path>
                                </g>
                            </g>
                        </g>
                    </g>
                </g>
            </g>
        </g>
    </g>
</svg>