<?xml version="1.0" encoding="UTF-8"?>
<svg width="17px" height="22px" viewBox="0 0 17 22" version="1.1" xmlns="http://www.w3.org/2000/svg" xmlns:xlink="http://www.w3.org/1999/xlink">
    <title>C7B83D71-0F14-4F82-BC19-FCED6E8A4F17</title>
    <g id="Navigation-M" stroke="none" stroke-width="1" fill="none" fill-rule="evenodd">
        <g id="NavBar-Open-Account" transform="translate(-28.000000, -640.000000)" fill="#FFFFFF">
            <g id="Secondary" transform="translate(0.000000, 474.000000)">
                <g id="L3" transform="translate(0.000000, 69.000000)">
                    <g id="header/mobile/nav-item/L3-Copy-2" transform="translate(28.000000, 97.000000)">
                        <g id="icon/account/dashboard">
                            <path d="M15,0 C16.1045695,0 17,0.8954305 17,2 L17,20 C17,21.1045695 16.1045695,22 15,22 L2,22 C0.8954305,22 0,21.1045695 0,20 L0,2 C0,0.8954305 0.8954305,0 2,0 L15,0 Z M15,1.35 L2,1.35 C1.67364992,1.35 1.40347354,1.59050819 1.35704767,1.90394776 L1.35,2 L1.35,20 C1.35,20.3263501 1.59050819,20.5965265 1.90394776,20.6429523 L2,20.65 L15,20.65 C15.3263501,20.65 15.5965265,20.4094918 15.6429523,20.0960522 L15.65,20 L15.65,2 C15.65,1.67364992 15.4094918,1.40347354 15.0960522,1.35704767 L15,1.35 Z M4.4,15 C4.89705627,15 5.3,15.4029437 5.3,15.9 C5.3,16.3970563 4.89705627,16.8 4.4,16.8 C3.90294373,16.8 3.5,16.3970563 3.5,15.9 C3.5,15.4029437 3.90294373,15 4.4,15 Z M13.175,15.24 C13.5477922,15.24 13.85,15.5422078 13.85,15.915 C13.85,16.253902 13.6002415,16.5344698 13.2747466,16.5826813 L13.175,16.59 L7.175,16.59 C6.80220779,16.59 6.5,16.2877922 6.5,15.915 C6.5,15.576098 6.74975851,15.2955302 7.07525345,15.2473187 L7.175,15.24 L13.175,15.24 Z M4.4,10 C4.89705627,10 5.3,10.4029437 5.3,10.9 C5.3,11.3970563 4.89705627,11.8 4.4,11.8 C3.90294373,11.8 3.5,11.3970563 3.5,10.9 C3.5,10.4029437 3.90294373,10 4.4,10 Z M13.175,10.24 C13.5477922,10.24 13.85,10.5422078 13.85,10.915 C13.85,11.253902 13.6002415,11.5344698 13.2747466,11.5826813 L13.175,11.59 L7.175,11.59 C6.80220779,11.59 6.5,11.2877922 6.5,10.915 C6.5,10.576098 6.74975851,10.2955302 7.07525345,10.2473187 L7.175,10.24 L13.175,10.24 Z M4.4,5 C4.89705627,5 5.3,5.40294373 5.3,5.9 C5.3,6.39705627 4.89705627,6.8 4.4,6.8 C3.90294373,6.8 3.5,6.39705627 3.5,5.9 C3.5,5.40294373 3.90294373,5 4.4,5 Z M13.175,5.24 C13.5477922,5.24 13.85,5.54220779 13.85,5.915 C13.85,6.25390201 13.6002415,6.53446979 13.2747466,6.58268127 L13.175,6.59 L7.175,6.59 C6.80220779,6.59 6.5,6.28779221 6.5,5.915 C6.5,5.57609799 6.74975851,5.29553021 7.07525345,5.24731873 L7.175,5.24 L13.175,5.24 Z" id="Combined-Shape"></path>
                        </g>
                    </g>
                </g>
            </g>
        </g>
    </g>
</svg>