<?xml version="1.0" encoding="UTF-8"?>
<svg width="7px" height="10px" viewBox="0 0 7 10" version="1.1" xmlns="http://www.w3.org/2000/svg" xmlns:xlink="http://www.w3.org/1999/xlink">
    <title>C85E21FD-E688-4A33-8BA9-58BD8B58D43A</title>
    <g id="Page-1" stroke="none" stroke-width="1" fill="none" fill-rule="evenodd">
        <g id="FACSelect-Buffer-Compatibility-Resource-" transform="translate(-202.000000, -1021.000000)" fill="#004593" fill-rule="nonzero">
            <g id="Group-5" transform="translate(115.000000, 790.000000)">
                <g id="Group-10" transform="translate(72.000000, 201.000000)">
                    <g id="Group-9" transform="translate(15.000000, 30.000000)">
                        <path d="M3.5,-1.687539e-14 C3.9478072,-1.687539e-14 4.3108266,0.279809592 4.3108266,0.624972193 L4.31035432,7.87673288 L5.61583237,6.87080272 C5.93247985,6.62673587 6.44586688,6.62673587 6.76251436,6.87080272 C7.07916188,7.11486952 7.07916188,7.51058004 6.76251436,7.75464685 L4.08692305,9.81694988 C3.92543833,9.94141972 3.7127851,10.0024121 3.50115352,10 L3.5,9.99955509 C3.313813,10.002055 3.12772704,9.95567017 2.97593257,9.86064986 L2.91307697,9.81694988 L0.237485604,7.75464685 C-0.079161868,7.51058004 -0.079161868,7.11486952 0.237485604,6.87080272 C0.534342636,6.64199006 1.00411526,6.62768928 1.32258676,6.82790033 L1.38416764,6.87080272 L2.68870108,7.87631623 L2.68917336,0.624972193 C2.68917336,0.279809592 3.05219282,-1.687539e-14 3.5,-1.687539e-14 Z" id="Shape"></path>
                    </g>
                </g>
            </g>
        </g>
    </g>
</svg>