<?xml version="1.0" encoding="UTF-8"?>
<svg width="7px" height="10px" viewBox="0 0 7 10" version="1.1" xmlns="http://www.w3.org/2000/svg" xmlns:xlink="http://www.w3.org/1999/xlink">
    <title>4720BDCF-8592-444F-8B69-96B16CFEB0EC</title>
    <g id="Page-1" stroke="none" stroke-width="1" fill="none" fill-rule="evenodd">
        <g id="FACSelect-Buffer-Compatibility-Resource-" transform="translate(-365.000000, -1021.000000)" fill="#004593" fill-rule="nonzero">
            <g id="Group-5" transform="translate(115.000000, 790.000000)">
                <g id="Group-16" transform="translate(228.000000, 201.000000)">
                    <g id="Group-9" transform="translate(12.000000, 30.000000)">
                        <path d="M13.5,-1.687539e-14 C13.9478072,-1.687539e-14 14.3108266,0.279809592 14.3108266,0.624972193 L14.3103543,7.87673288 L15.6158324,6.87080272 C15.9324798,6.62673587 16.4458669,6.62673587 16.7625144,6.87080272 C17.0791619,7.11486952 17.0791619,7.51058004 16.7625144,7.75464685 L14.086923,9.81694988 C13.9254383,9.94141972 13.7127851,10.0024121 13.5011535,10 L13.5,9.99955509 C13.313813,10.002055 13.127727,9.95567017 12.9759326,9.86064986 L12.913077,9.81694988 L10.2374856,7.75464685 C9.92083813,7.51058004 9.92083813,7.11486952 10.2374856,6.87080272 C10.5343426,6.64199006 11.0041153,6.62768928 11.3225868,6.82790033 L11.3841676,6.87080272 L12.6887011,7.87631623 L12.6891734,0.624972193 C12.6891734,0.279809592 13.0521928,-1.687539e-14 13.5,-1.687539e-14 Z" id="Shape-Copy-3" transform="translate(13.500000, 5.000034) scale(1, -1) translate(-13.500000, -5.000034) "></path>
                    </g>
                </g>
            </g>
        </g>
    </g>
</svg>