<?xml version="1.0" encoding="UTF-8"?>
<svg width="28px" height="20px" viewBox="0 0 28 20" version="1.1" xmlns="http://www.w3.org/2000/svg" xmlns:xlink="http://www.w3.org/1999/xlink">
    <title>37F4BC71-89D5-48DC-AF93-A7026821D46A</title>
    <g id="Page-1" stroke="none" stroke-width="1" fill="none" fill-rule="evenodd" stroke-linejoin="round">
        <g id="Miscellaneous-M" transform="translate(-18.000000, -8534.000000)" fill="#979797" fill-rule="nonzero" stroke="#979797">
            <g id="Bullet-Points-Content" transform="translate(0.000000, 8329.000000)">
                <g id="Prep-&amp;-Storage-Copy" transform="translate(18.000000, 48.000000)">
                    <g id="Group-9" transform="translate(0.000000, 66.000000)">
                        <g id="Group-17-Copy-2" transform="translate(0.000000, 88.000000)">
                            <g id="icon/support-light-grey" transform="translate(0.000000, 4.000000)">
                                <g id="Shipping-icon" transform="translate(13.066667, 8.600000) scale(-1, 1) translate(-13.066667, -8.600000) translate(0.066667, 0.100000)">
                                    <path d="M9.30673778,0.19264 L9.30673778,3.00443867 L2.92664889,3.00443867 L0.235548444,7.673952 L0.235548444,14.390552 L2.452224,14.390552 C2.66777884,15.886608 3.93890133,16.9951767 5.43889067,16.9951767 C6.93777067,16.9951767 8.21000533,15.8865793 8.42555733,14.390552 L16.870144,14.390552 C17.0856988,15.886608 18.3579307,16.9951767 19.8568107,16.9951767 C21.3568,16.9951767 22.6290347,15.8865793 22.8434773,14.390552 L25.3579093,14.390552 L25.3579093,0.192812 L9.30673778,0.19264 Z M3.41333333,3.86455333 L9.30673778,3.86455333 L9.30673778,7.39313333 L1.3824,7.39313333 L3.41333333,3.86455333 Z M1.08888178,8.25313333 L9.30676622,8.25313333 L9.30676622,13.5306667 L8.43121778,13.5306667 C8.21566293,12.0357573 6.94343111,10.926042 5.44455111,10.926042 C3.94456178,10.926042 2.67343644,12.0357573 2.45788444,13.5306667 L1.08899556,13.5306667 L1.08888178,8.25313333 Z M5.44116622,16.1453533 C4.56339911,16.1453533 3.77227378,15.6123253 3.43560533,14.7948953 C3.10004622,13.9763187 3.28671573,13.035708 3.90784,12.4108607 C4.52895289,11.7848953 5.46340978,11.5990207 6.27450311,11.9383193 C7.08451556,12.277618 7.61338311,13.076042 7.61227552,13.9606667 C7.61227552,14.540708 7.38338418,15.0972427 6.97560178,15.50709 C6.56893156,15.9180553 6.01671111,16.147618 5.44116622,16.147618 L5.44116622,16.1453533 Z M19.8599396,16.1453533 C18.9821724,16.1453533 18.1899378,15.6123253 17.8543787,14.7948953 C17.5188196,13.9763187 17.7043797,13.035708 18.3266133,12.4108607 C18.9477262,11.7848953 19.8810453,11.5990207 20.6921671,11.9383193 C21.5032889,12.277618 22.0310471,13.076042 22.0299395,13.9606667 C22.0299395,14.540708 21.8010482,15.0972427 21.3943751,15.50709 C20.9877049,15.9180553 20.4354844,16.147618 19.8599396,16.147618 L19.8599396,16.1453533 Z M22.8488818,13.530638 C22.6344363,12.0357287 21.3622044,10.9260133 19.8622151,10.9260133 C18.3633351,10.9260133 17.0911004,12.0357287 16.8755484,13.530638 L10.1600996,13.530638 L10.1600996,1.052898 L24.5111751,1.052898 L24.5111751,13.530638 L22.8488818,13.530638 Z" id="Shape" stroke-width="0.5"></path>
                                    <polygon id="Path" stroke-width="0.533333333" points="12.4788622 6.59333333 21.3899378 6.59333333 21.3899378 7.45333333 12.4788622 7.45333333"></polygon>
                                    <polygon id="Path" stroke-width="0.533333333" points="12.4788622 9.46 15.4166044 9.46 15.4166044 10.32 12.4788622 10.32"></polygon>
                                    <polygon id="Path" stroke-width="0.533333333" points="12.4788622 3.72666667 18.5454933 3.72666667 18.5454933 4.58666667 12.4788622 4.58666667"></polygon>
                                </g>
                            </g>
                        </g>
                    </g>
                </g>
            </g>
        </g>
    </g>
</svg>