<?xml version="1.0" encoding="UTF-8"?>
<svg width="32px" height="32px" viewBox="0 0 32 32" version="1.1" xmlns="http://www.w3.org/2000/svg" xmlns:xlink="http://www.w3.org/1999/xlink">
    <title>icon/track-order</title>
    <g id="icon/track-order" stroke="none" stroke-width="1" fill="none" fill-rule="evenodd">
        <g id="np_delivery_1922113_000000" transform="translate(1.000000, 5.000000)" fill="#404041" fill-rule="nonzero">
            <path d="M0.909007353,0 C0.413560294,0.0515267647 -0.00263823529,0.516586765 -1.24742297e-05,1.01470588 L-1.24742297e-05,18.6029412 C-1.24742297e-05,19.1340721 0.483575,19.6176471 1.01470588,19.6176471 L2.82216765,19.6176471 C3.28196471,21.5519471 5.03392206,23 7.10287353,23 C9.171825,23 10.9239176,21.5519471 11.3835794,19.6176471 L19.0574618,19.6176471 C19.5172588,21.5519471 21.2692162,23 23.3381676,23 C25.4071191,23 27.1592118,21.5519471 27.6188735,19.6176471 L29.4263353,19.6176471 C29.9574662,19.6176471 30.4410843,19.1340721 30.4410843,18.6029412 L30.4410843,11.1617647 C30.4423623,11.0203925 30.4132954,10.8790203 30.3564824,10.7495235 L27.9888353,5.33775882 C27.8302875,4.98102206 27.4497559,4.73394118 27.0586882,4.73529412 L21.6469235,4.73529412 L21.6469235,1.01470588 C21.6469235,0.483575 21.1633485,0 20.6322176,0 L0.909041176,0 L0.909007353,0 Z M2.02941176,2.02941176 L19.6176471,2.02941176 L19.6176471,16.2775735 C19.3666122,16.6765897 19.1816279,17.1178853 19.0680147,17.5882353 L11.3731618,17.5882353 C10.9080882,15.6592456 9.16803676,14.2058824 7.10294118,14.2058824 C5.03784559,14.2058824 3.29779412,15.6592456 2.83272059,17.5882353 L2.02941176,17.5882353 L2.02941176,2.02941176 Z M3.953125,6.76470588 C3.42199412,6.79245166 2.96351618,7.30111324 2.99125147,7.83224412 C3.01898676,8.363375 3.52765882,8.82185294 4.05878971,8.79411765 L12.1764368,8.79411765 C12.7128441,8.80204521 13.2056868,8.31581912 13.2056868,7.77941176 C13.2056868,7.24300441 12.7128779,6.75679118 12.1764368,6.76470588 L3.95326029,6.76470588 L3.953125,6.76470588 Z M21.6468897,6.76470588 L26.3926691,6.76470588 L27.8724485,10.1470588 L21.6468897,10.1470588 L21.6468897,6.76470588 Z M6.65900735,10.1470588 C6.12787647,10.1748046 5.66939853,10.6834662 5.69713382,11.2145971 C5.72486912,11.7457279 6.23354118,12.2042059 6.76467206,12.1764706 L14.8823191,12.1764706 C15.4187265,12.1843981 15.9115691,11.6981721 15.9115691,11.1617647 C15.9115691,10.6253574 15.4187603,10.1391441 14.8823191,10.1470588 L6.65914265,10.1470588 L6.65900735,10.1470588 Z M21.6468897,12.1764706 L28.4115956,12.1764706 L28.4115956,17.5882353 L27.6082868,17.5882353 C27.1432132,15.6592456 25.4031618,14.2058824 23.3380662,14.2058824 C22.7369206,14.2058824 22.1701059,14.3340431 21.6468897,14.5546706 L21.6468897,12.1764706 Z M7.10277206,16.2352941 C8.42266765,16.2352941 9.47041912,17.2830456 9.47041912,18.6029412 C9.47041912,19.9228368 8.42266765,20.9705882 7.10277206,20.9705882 C5.78287647,20.9705882 4.735125,19.9228368 4.735125,18.6029412 C4.735125,17.2830456 5.78287647,16.2352941 7.10277206,16.2352941 Z M23.3380662,16.2352941 C24.6579618,16.2352941 25.7057132,17.2830456 25.7057132,18.6029412 C25.7057132,19.9228368 24.6579618,20.9705882 23.3380662,20.9705882 C22.0181706,20.9705882 20.9704191,19.9228368 20.9704191,18.6029412 C20.9704191,17.2830456 22.0181706,16.2352941 23.3380662,16.2352941 Z" id="Shape"></path>
        </g>
    </g>
</svg>
