<?xml version="1.0" encoding="UTF-8"?>
<svg width="20px" height="16px" viewBox="0 0 20 16" version="1.1" xmlns="http://www.w3.org/2000/svg" xmlns:xlink="http://www.w3.org/1999/xlink">
    <title>72AF8088-464E-4551-9A75-1F8F0F206B01</title>
    <g id="Page-1" stroke="none" stroke-width="1" fill="none" fill-rule="evenodd">
        <g id="Iconography" transform="translate(-1021.000000, -1056.000000)" fill="#FFFFFF">
            <g id="Group-10" transform="translate(1007.000000, 316.000000)">
                <g id="Group-7" transform="translate(0.000000, 726.000000)">
                    <g id="icon/Social/twitter" transform="translate(14.000000, 14.000000)">
                        <path d="M17.6656869,3.98827043 C17.6656869,4.0821115 17.6656869,4.17204536 17.6656869,4.25806294 C17.6656869,4.34408506 17.6656869,4.43401892 17.6656869,4.52785999 C17.6656869,5.85729102 17.4154441,7.20234183 16.9149538,8.56304869 C16.4144636,9.92376008 15.6793775,11.1554202 14.7096773,12.2580648 C13.7399727,13.3607093 12.5435047,14.2561063 11.1202326,14.9442814 C9.69696049,15.6480974 8.05474856,16 6.19354692,16 C5.05180257,16 3.95699416,15.8396888 2.90909087,15.5190617 C1.86118713,15.1984346 0.891500143,14.7487812 0,14.1700882 C0.172043867,14.2013686 0.336265106,14.2170088 0.492668567,14.2170088 C0.649072165,14.2170088 0.813293358,14.2170088 0.985337134,14.2170088 C1.92375827,14.2170088 2.81915474,14.0684278 3.67155421,13.7712612 C4.52395323,13.4740946 5.294231,13.0518112 5.98240338,12.504399 C5.10654432,12.4887589 4.32453903,12.2189668 3.63636347,11.6950147 C2.94818791,11.1710626 2.47116451,10.5102679 2.20527831,9.712612 C2.33040109,9.72824992 2.45943245,9.74389236 2.5923751,9.75953027 C2.7253182,9.77517272 2.85434911,9.78299167 2.9794719,9.78299167 C3.16715631,9.78299167 3.34701768,9.76734923 3.51906145,9.73606887 C3.69110523,9.70478852 3.86314674,9.67350816 4.03519051,9.6422278 C3.11240956,9.45454566 2.34213406,8.99315926 1.72433999,8.25806408 C1.10654636,7.52296889 0.797654087,6.66276134 0.797654087,5.67741877 L0.797654087,5.6305005 C1.07918002,5.77126437 1.37243257,5.88856231 1.67741945,5.98240338 C1.98240633,6.07624899 2.29911847,6.13098621 2.62756584,6.14662866 C2.0801537,5.78689775 1.64223007,5.30987798 1.31378315,4.71554213 C0.985335775,4.12121082 0.821114128,3.47996577 0.821114128,2.79178885 C0.821114128,2.41642003 0.871944594,2.0566982 0.973606887,1.71260974 C1.07526918,1.36852128 1.2121204,1.04789875 1.38416418,0.750733098 C1.88465533,1.36070686 2.43987962,1.91592979 3.04985338,2.41642457 C3.65982669,2.91691481 4.31671191,3.34701632 5.02052674,3.70674722 C5.72434157,4.06647359 6.47507014,4.35581576 7.27272604,4.57478279 C8.05474402,4.79374529 8.86020981,4.92668567 9.6891506,4.97360847 C9.65787025,4.81720216 9.63440885,4.6608049 9.6187664,4.50439859 C9.60312849,4.3479968 9.59530953,4.19159502 9.59530953,4.03519323 C9.59530953,2.9247247 9.98631173,1.97458783 10.7683297,1.18475088 C11.5503432,0.394913939 12.5043918,0 13.6304982,0 C14.2091916,0 14.7526839,0.117302471 15.2609976,0.351907414 C15.7693068,0.586512357 16.2033201,0.899315926 16.563051,1.29032265 C17.0322608,1.19648158 17.481912,1.06744841 17.9120226,0.903227671 C18.3421332,0.739002398 18.744866,0.539589556 19.1202349,0.304984613 C18.979471,0.774194499 18.7565967,1.20038879 18.4516121,1.58357657 C18.146623,1.96676887 17.7829939,2.28347965 17.3607023,2.53372704 C17.7673515,2.48680424 18.1661772,2.40860561 18.5571839,2.2991221 C18.9481906,2.18963858 19.3235549,2.0566982 19.6832813,1.90029188 C19.4017581,2.30694105 19.0928663,2.68621708 18.7565967,3.03812449 C18.4203318,3.39003191 18.0566982,3.70674269 17.6656869,3.98827043 Z" id="Fill-1"></path>
                    </g>
                </g>
            </g>
        </g>
    </g>
</svg>