<?xml version="1.0" encoding="UTF-8"?>
<svg width="27px" height="24px" viewBox="0 0 27 24" version="1.1" xmlns="http://www.w3.org/2000/svg" xmlns:xlink="http://www.w3.org/1999/xlink">
    <title>icon/upload-dsiabled</title>
    <g id="icon/upload" stroke="none" stroke-width="1" fill="none" fill-rule="evenodd">
        <g id="upload" fill="#757575" fill-rule="nonzero">
            <path d="M21.3415323,6.65342741 C20.4489919,2.1752016 16.0951613,-0.731451613 11.6169355,0.161088723 C8.34153228,0.813911277 5.78044356,3.3733871 5.12560485,6.6483871 C1.9504032,7.01431453 -0.327217755,9.88487902 0.0385080774,13.0602823 C0.3752016,15.9826613 2.8504032,18.1875 5.79213708,18.1854853 L9.92600805,18.1854853 C10.3826613,18.1854853 10.7528226,17.8153226 10.7528226,17.3586694 C10.7528226,16.9020161 10.3826613,16.5318549 9.92600805,16.5318549 L5.79213708,16.5318549 C3.50887097,16.5183468 1.66915324,14.6566532 1.68245966,12.3735887 C1.69596774,10.0905242 3.55766132,8.25060485 5.84092743,8.26391128 C6.26229837,8.26411293 6.61633063,7.94697579 6.66270163,7.52822581 C7.08245966,3.89939515 10.3645161,1.2979839 13.9933468,1.71774194 C17.0441532,2.07076614 19.4508065,4.47721775 19.803629,7.52822581 C19.8729838,7.95443551 20.2423387,8.26673388 20.6741935,8.26391128 C22.9574597,8.26391128 24.8082661,10.1147177 24.8082661,12.3979839 C24.8082661,14.6810484 22.9574597,16.5318549 20.6741935,16.5318549 L16.5403226,16.5318549 C16.0836694,16.5318549 15.7135081,16.9020161 15.7135081,17.3586694 C15.7135081,17.8153226 16.0836694,18.1854853 16.5403226,18.1854853 L20.6743951,18.1854853 C23.8705645,18.1655242 26.4455645,15.5584677 26.4259194,12.3620968 C26.4076613,9.4514113 24.2306452,7.00705646 21.3415323,6.65342741 L21.3415323,6.65342741 Z" id="Path"></path>
            <path d="M16.1558468,14.8368952 C16.4731855,15.1655242 16.9965726,15.1745967 17.325,14.8572581 C17.6534274,14.540121 17.6625,14.0167339 17.3453629,13.6883065 C17.3387097,13.68125 17.3318549,13.6745967 17.325,13.6679435 L13.8185484,10.1606855 C13.4961693,9.83729837 12.9725806,9.83669357 12.6491935,10.1590726 C12.6487903,10.1596774 12.6481855,10.1600806 12.6477822,10.1606855 L9.14133063,13.6679435 C8.81290323,13.9850807 8.80383066,14.5084677 9.12096774,14.8368952 C9.43830648,15.1653226 9.96169352,15.1743951 10.290121,14.8572581 C10.2969758,14.8506049 10.3038307,14.84375 10.3104839,14.8368952 L12.4064516,12.740121 L12.4064516,23.1461693 C12.4064516,23.6028226 12.7766129,23.9729838 13.2332661,23.9729838 C13.6897177,23.9729838 14.059879,23.6028226 14.059879,23.1461693 L14.059879,12.740121 L16.1558468,14.8368952 Z" id="Path"></path>
        </g>
    </g>
</svg>