<?xml version="1.0" encoding="UTF-8"?><svg id="Layer_2" xmlns="http://www.w3.org/2000/svg" width="35.2419" height="31" viewBox="0 0 35.2419 31"><defs><style>.cls-1{fill:#85be59;}.cls-1,.cls-2{stroke-width:0px;}.cls-2{fill:#fff;}</style></defs><g id="Layer_1-2"><rect class="cls-1" x="0" y="0" width="35.2419" height="31" rx="2" ry="2"/><rect class="cls-2" x="3.3573" y="3.5456" width="3.8683" height="2.8082"/><rect class="cls-2" x="11.4883" y="3.5456" width="3.8683" height="2.8082"/><rect class="cls-2" x="19.9057" y="3.5456" width="3.8683" height="2.8082"/><rect class="cls-2" x="27.7502" y="3.5456" width="3.8683" height="2.8082"/><rect class="cls-2" x="3.3573" y="24.6462" width="3.8683" height="2.8082"/><rect class="cls-2" x="11.4883" y="24.6462" width="3.8683" height="2.8082"/><rect class="cls-2" x="19.9057" y="24.6462" width="3.8683" height="2.8082"/><rect class="cls-2" x="27.7502" y="24.6462" width="3.8683" height="2.8082"/><path class="cls-2" d="M12.9135,10.5703v9.8595c0,.5748.6214.9348,1.12.6489l8.5992-4.9297c.5013-.2874.5013-1.0105,0-1.2979l-8.5992-4.9297c-.4987-.2859-1.12.0741-1.12.6489Z"/></g></svg>