<?xml version="1.0" encoding="UTF-8"?>
<svg width="40px" height="27px" viewBox="0 0 40 27" version="1.1" xmlns="http://www.w3.org/2000/svg" xmlns:xlink="http://www.w3.org/1999/xlink">
    <title>5717A6B2-AED8-48E4-A5D8-8BCF6B9E60C6</title>
    <g id="Page-1" stroke="none" stroke-width="1" fill="none" fill-rule="evenodd">
        <g id="Iconography" transform="translate(-661.000000, -829.000000)" fill-rule="nonzero">
            <g id="Group-9" transform="translate(662.000000, 412.000000)">
                <g id="Asset-1" transform="translate(0.000000, 418.400000)">
                    <rect id="Rectangle" stroke="#E0E0E0" stroke-width="0.6" fill="#F9F9F9" x="0" y="0" width="38.1053165" height="23.8146835" rx="1.26987342"></rect>
                    <polygon id="Path" fill="#0066B2" points="17.5351899 15.484557 15.6729114 15.484557 16.8364557 8.33620253 18.6987342 8.33620253"></polygon>
                    <path d="M14.1083544,8.33620253 L12.3341772,13.2516456 L12.124557,12.1944304 L12.124557,12.1944304 L11.4956962,8.98025316 C11.419973,8.56547486 11.0328832,8.28249886 10.6146835,8.33620253 L7.68,8.33620253 L7.64658228,8.45772152 C8.33363657,8.62903396 8.99037534,8.90463885 9.59392405,9.27493671 L11.2101266,15.4936709 L13.1513924,15.4936709 L16.1012658,8.33620253 L14.1083544,8.33620253 Z" id="Path" fill="#0066B2"></path>
                    <path d="M28.7483544,15.4936709 L30.4587342,15.4936709 L28.9701266,8.34531646 L27.4724051,8.34531646 C27.1006671,8.31656567 26.7530188,8.53154251 26.6126582,8.87696203 L23.8359494,15.4936709 L25.7772152,15.4936709 L26.1660759,14.4334177 L28.5326582,14.4334177 L28.7483544,15.4936709 Z M26.7007595,12.9660759 L27.6789873,10.2896203 L28.2288608,12.9660759 L26.7007595,12.9660759 Z" id="Shape" fill="#0066B2"></path>
                    <path d="M23.9817722,10.0556962 L24.2491139,8.50632911 C23.7106767,8.31732683 23.1457039,8.21479093 22.5751899,8.20253165 C21.6486076,8.20253165 19.443038,8.61265823 19.443038,10.5751899 C19.443038,12.4222785 22.0192405,12.4435443 22.0192405,13.4156962 C22.0192405,14.3878481 19.7103797,14.2116456 18.9478481,13.5979747 L18.6713924,15.2050633 C19.3355864,15.4837388 20.0504493,15.6213318 20.7706329,15.6091139 C22.0405063,15.6091139 23.9574684,14.9498734 23.9574684,13.1605063 C23.9574684,11.3012658 21.36,11.1281013 21.36,10.32 C21.36,9.51189873 23.1858228,9.61518987 23.9817722,10.0556962 Z" id="Path" fill="#0066B2"></path>
                    <path d="M12.124557,12.1944304 L11.4956962,8.98025316 C11.419973,8.56547486 11.0328832,8.28249886 10.6146835,8.33620253 L7.68,8.33620253 L7.64658228,8.45772152 C8.65638292,8.71450565 9.59852139,9.18712957 10.4081013,9.84303797 C11.1780012,10.461372 11.7702613,11.272716 12.124557,12.1944304 L12.124557,12.1944304 Z" id="Path" fill="#F9A533"></path>
                </g>
            </g>
        </g>
    </g>
</svg>