<?xml version="1.0" encoding="UTF-8"?>
<svg width="22px" height="20px" viewBox="0 0 22 20" version="1.1" xmlns="http://www.w3.org/2000/svg" xmlns:xlink="http://www.w3.org/1999/xlink">
    <title>4A8282D7-F489-4DBD-8066-8C923392BAED</title>
    <g id="Page-1" stroke="none" stroke-width="1" fill="none" fill-rule="evenodd">
        <g id="My-Cart-without-any-grants" transform="translate(-952.000000, -397.000000)" fill="#FFAB00" fill-rule="nonzero">
            <g id="Top-section" transform="translate(135.000000, 232.000000)">
                <g id="Address-Copy" transform="translate(800.000000, 147.000000)">
                    <g id="550096" transform="translate(17.000000, 18.000000)">
                        <path d="M21.4704119,15.7405824 L13.1309233,1.29617898 C12.6672017,0.492997159 11.8366193,0.0134232955 10.9090909,0.0134232955 C9.98160511,0.0134232955 9.15098011,0.492997159 8.68725852,1.29617898 L0.3478125,15.7405398 C-0.115951705,16.5438068 -0.115951705,17.5028693 0.3478125,18.3060938 C0.811576705,19.1093182 1.64211648,19.5888494 2.56964489,19.5888494 L19.2485369,19.5888494 C20.1760227,19.5888494 21.0066051,19.1092756 21.4704119,18.3061364 C21.9341761,17.5028693 21.9341761,16.5438068 21.4704119,15.7405824 Z M20.3633949,17.667017 C20.1306818,18.0700568 19.7139205,18.3106534 19.2485369,18.3106534 L2.56964489,18.3106534 C2.10421875,18.3106534 1.68745739,18.0700568 1.45478693,17.667017 C1.22211648,17.2639773 1.22211648,16.7827841 1.45478693,16.3797443 L9.79431818,1.93534091 C10.0269886,1.53230114 10.44375,1.29170455 10.9091335,1.29170455 C11.3744744,1.29170455 11.7912784,1.53230114 12.0239489,1.93534091 L20.3634375,16.3797443 C20.5960653,16.7827841 20.5960653,17.2639773 20.3633949,17.667017 Z" id="Shape"></path>
                        <rect id="Rectangle" x="10.269929" y="6.39247159" width="1.27823864" height="6.39127841"></rect>
                        <path d="M10.9090909,14.0620739 C10.4391903,14.0620739 10.0569034,14.4443608 10.0569034,14.9142614 C10.0569034,15.3841619 10.4391903,15.7664489 10.9090909,15.7664489 C11.3789489,15.7664489 11.7612784,15.3841619 11.7612784,14.9142614 C11.7612784,14.4443608 11.3789915,14.0620739 10.9090909,14.0620739 Z" id="Path"></path>
                    </g>
                </g>
            </g>
        </g>
    </g>
</svg>