<?xml version="1.0" encoding="UTF-8"?>
<svg width="20px" height="15px" viewBox="0 0 20 15" version="1.1" xmlns="http://www.w3.org/2000/svg" xmlns:xlink="http://www.w3.org/1999/xlink">
    <title>E67E55F8-EABF-4586-9183-4F805DE648E5</title>
    <g id="Page-1" stroke="none" stroke-width="1" fill="none" fill-rule="evenodd">
        <g id="Iconography" transform="translate(-1021.000000, -950.000000)" fill="#FFFFFF">
            <g id="Group-10" transform="translate(1007.000000, 316.000000)">
                <g id="Group-8" transform="translate(0.000000, 619.300000)">
                    <g id="icon/Social/youtube" transform="translate(14.000000, 15.000000)">
                        <path d="M10.0595049,0.000812859671 C10.1853455,0.00373918747 10.4999479,0.011055325 11.0033179,0.0227631807 C11.6744778,0.0227631807 12.4470809,0.0383691314 13.3211544,0.0695855564 C14.1952233,0.100801981 15.0692787,0.139821382 15.9433476,0.186648281 C16.8018106,0.249081131 17.4261346,0.33492743 17.8163467,0.444187179 C18.2533812,0.553442405 18.6279737,0.768058153 18.9401425,1.0880299 C19.2523113,1.40800165 19.4630188,1.778695 19.5722785,2.200119 C19.790798,2.98053867 19.9156637,3.97945974 19.9468801,5.19691389 C19.9780966,6.41436803 19.9937025,7.02308605 19.9937025,7.02308605 C19.9911876,7.10155368 19.9717541,7.70789496 19.9351734,8.84925822 C19.8961495,10.0667128 19.7751875,11.0656343 19.5722785,11.8460536 C19.4474128,12.2674803 19.2288978,12.6381736 18.9167291,12.9581454 C18.6045603,13.2781176 18.2299677,13.4927297 17.7929333,13.6019882 C17.4027212,13.7112469 16.7783972,13.7892876 15.9199342,13.8361128 C15.0614757,13.8985463 14.1913196,13.9414687 13.3094476,13.9648813 C12.4275712,13.9882939 11.6510689,14 10.9799044,14 L10.9799044,14 L8.98984714,14 C8.31868722,14 7.54218034,13.9843919 6.66030842,13.9531751 C5.77843198,13.9219583 4.90828035,13.8751338 4.04981826,13.8127003 C3.19135708,13.7502668 2.55922696,13.672226 2.15340891,13.5785757 C1.7319822,13.4537085 1.36128885,13.2351944 1.0413171,12.923027 C0.721344902,12.6108591 0.506732772,12.2362634 0.397474289,11.7992289 C0.194565311,11.0344179 0.0775041695,10.0433003 0.0462873827,8.82584477 C0.018972718,7.7605724 0.00360839571,7.16136361 0.00019410678,7.0282063 L0.00019410678,6.97132189 C0.00360839571,6.83901846 0.018972718,6.24365193 0.0462873827,5.18520716 C0.0775041695,3.97556052 0.202369372,2.97273569 0.420886744,2.17670555 C0.530145317,1.75528155 0.744757446,1.3845882 1.06472919,1.06461645 C1.3847014,0.744644704 1.75539475,0.530033479 2.17682146,0.42077373 C2.56703084,0.31151398 3.19135708,0.225667681 4.04981826,0.163234831 C4.9238863,0.116412455 5.7979462,0.0812922811 6.67201515,0.0578788316 C7.54608409,0.034465382 8.31868722,0.0227631807 8.98984714,0.0227631807 C9.49321708,0.011055325 9.80782202,0.00373918747 9.93366387,0.000812859671 Z M8.00652297,4.00287772 L7.98310952,9.9964693 L13.2040916,6.9996726 L8.00652297,4.00287772 Z" id="Combined-Shape"></path>
                    </g>
                </g>
            </g>
        </g>
    </g>
</svg>