<?xml version="1.0" encoding="UTF-8"?>
<svg width="32px" height="28px" viewBox="0 0 32 28" version="1.1" xmlns="http://www.w3.org/2000/svg" xmlns:xlink="http://www.w3.org/1999/xlink">
    <title>1784283B-2784-440C-A75C-F0A151C43F0D</title>
    <g id="Home" stroke="none" stroke-width="1" fill="none" fill-rule="evenodd">
        <g id="Home-2" transform="translate(-1266.000000, -11.000000)">
            <g id="navigation/header-bar/main/bar-transparent-copy">
                <g id="Utility" transform="translate(955.000000, 8.000000)">
                    <g id="Header-/-ShoppingCart" transform="translate(311.000000, 3.000000)">
                        <g id="Group-2">
                            <g id="icon/shopping-cart" transform="translate(0.000000, 8.000000)" fill="#FFFFFF">
                                <path d="M0.733589707,0 C0.328599283,0 0,0.33599916 0,0.750048125 C0,1.16409709 0.328599283,1.50004625 0.733589707,1.50004625 L3.0719069,1.50004625 L5.59349925,13.6640158 C5.69283952,14.1220147 5.98704568,14.5028887 6.3576552,14.5000344 L18.5841503,14.5000344 C18.9719503,14.5058232 19.3282548,14.1464396 19.3282548,13.7499656 C19.3282548,13.3534916 18.9719747,12.9941175 18.5841503,12.9999675 L6.9538191,12.9999675 L6.64052739,11.4999713 L19.5624655,11.4999713 C19.8910648,11.4970415 20.2014955,11.2421719 20.2731184,10.9140227 L21.9848277,3.41404146 C22.0803459,2.97849255 21.7106852,2.50291874 21.2741749,2.5 L4.78356731,2.5 L4.38620622,0.593748516 C4.31647607,0.260749348 4.00126725,0 3.66789963,0 L0.733589707,0 Z M5.08915633,4.00004 L20.3492894,4.00004 L18.981438,10.000025 L6.33459603,10.000025 L5.08915633,4.00004 Z M8.80307649,15.0000125 C7.46102302,15.0000125 6.35777746,16.1279347 6.35777746,17.5000125 C6.35777746,18.8720778 7.46102302,20 8.80307649,20 C10.1451299,20 11.2483755,18.8720778 11.2483755,17.5000125 C11.2483755,16.1279347 10.1451299,15.0000125 8.80307649,15.0000125 Z M16.1389736,15.0000125 C14.7969201,15.0000125 13.6936745,16.1279347 13.6936745,17.5000125 C13.6936745,18.8720778 14.7969201,20 16.1389736,20 C17.481027,20 18.5842726,18.8720778 18.5842726,17.5000125 C18.5842726,16.1279347 17.481027,15.0000125 16.1389736,15.0000125 Z M8.80307649,16.5000087 C9.3523151,16.5000087 9.7811961,16.9384827 9.7811961,17.5000087 C9.7811961,18.0615298 9.3523151,18.5000087 8.80307649,18.5000087 C8.25383787,18.5000087 7.82495688,18.0615298 7.82495688,17.5000087 C7.82495688,16.9384827 8.25383787,16.5000087 8.80307649,16.5000087 Z M16.1389736,16.5000087 C16.6882122,16.5000087 17.1170932,16.9384827 17.1170932,17.5000087 C17.1170932,18.0615298 16.6882122,18.5000087 16.1389736,18.5000087 C15.5897349,18.5000087 15.1608539,18.0615298 15.1608539,17.5000087 C15.1608539,16.9384827 15.5897349,16.5000087 16.1389736,16.5000087 Z" id="Shape"></path>
                            </g>
                            <g id="Group" transform="translate(14.000000, 0.000000)">
                                <circle id="Oval" fill="#F27707" cx="9" cy="9" r="9"></circle>
                                <text id="3" font-family="FSAlbertPro-Bold, FS Albert Pro" font-size="12" font-weight="bold" fill="#FFFFFF">
                                    <tspan x="6" y="13">3</tspan>
                                </text>
                            </g>
                        </g>
                    </g>
                </g>
            </g>
        </g>
    </g>
</svg>