<?xml version="1.0" encoding="UTF-8"?>
<svg width="52px" height="57px" viewBox="0 0 52 57" version="1.1" xmlns="http://www.w3.org/2000/svg" xmlns:xlink="http://www.w3.org/1999/xlink">
    <title>114C5499-B9B6-4536-B0A1-231812D714B4</title>
    <g id="Web" stroke="none" stroke-width="1" fill="none" fill-rule="evenodd">
        <g id="Contact-Us" transform="translate(-172.000000, -495.000000)" stroke="#919191" stroke-width="1.8">
            <g id="Group-4" transform="translate(135.000000, 464.000000)">
                <g id="Group-33" transform="translate(37.000000, 32.000000)">
                    <path d="M31.8384286,32.8447681 C39.1679959,32.8447681 42.2366734,28.1400259 43.1764253,22.416967 C43.4479139,20.76361 43.33237,15.6704736 43.1764253,14.083174 C42.5812748,8.0253695 37.0854749,4.15804713 31.8384286,4.15804713 C26.3579644,4.15804713 20.9136241,8.43544168 20.2998181,14.7831102 C20.1715305,16.1097948 20.1117246,21.0344599 20.2998181,22.416967 C21.0160541,27.6813786 24.5088614,32.8447681 31.8384286,32.8447681 Z" id="Oval"></path>
                    <path d="M19.7433061,14.8329626 C16.4193848,14.7984442 14.7574242,16.0376412 14.7574242,18.5505535 C14.7574242,21.0634658 16.4193848,22.30354 19.7433061,22.2707761" id="Path-9"></path>
                    <path d="M48.8243105,14.8329626 C45.5003892,14.7984442 43.8384286,16.0376412 43.8384286,18.5505535 C43.8384286,21.0634658 45.5003892,22.30354 48.8243105,22.2707761" id="Path-9-Copy" transform="translate(46.331370, 18.551835) scale(-1, 1) translate(-46.331370, -18.551835) "></path>
                    <path d="M16.8010041,14.832261 C17.9468343,4.94408699 22.9593091,0 31.8384286,0 C40.7175482,0 45.7468337,5.04676947 46.9262852,15.1403084" id="Path-10"></path>
                    <path d="M20.4275633,15.9006429 C25.3600065,15.5106184 28.1318119,13.3147634 28.7429794,9.31307806 C28.732734,9.10981092 28.1771385,16.5983201 43.3395419,16.8911314" id="Path-11" stroke-linecap="round" stroke-linejoin="round"></path>
                    <path d="M46.9262852,22.2714086 L46.9262852,24.5259458 C46.9262852,26.7350848 45.1354242,28.5259458 42.9262852,28.5259458 L32.5874988,28.5259458 L32.5874988,28.5259458" id="Path-12" stroke-linecap="round"></path>
                    <polyline id="Path-13" points="28.2247373 32.4628796 28.2247373 34.7562006 32.2879506 38.9145501 36.4748812 34.7562006 36.4748812 32.0623805"></polyline>
                    <path d="M28.2247373,35.0423498 L21.6789899,35.9868447 C20.4073156,36.1703363 19.1986717,36.6578893 18.1556183,37.4081319 C17.1254757,38.1490882 16.3657899,39.2064852 15.9923069,40.4192178 L14.2661385,46.02424 L14.2661385,46.02424 L50.6938019,46.02424 L48.7142693,40.2868206 C48.3104452,39.1163886 47.5538601,38.0998461 46.548602,37.3770451 C45.5331152,36.6468894 44.3587684,36.1682915 43.1221904,35.9806322 L36.9393966,35.0423498 L36.9393966,35.0423498" id="Path-14"></path>
                    <path d="M7.73335371,26.2687138 L3.57970759,30.616603 C1.58626272,32.7032703 1.61416873,35.9970421 3.64268287,38.0496339 L17.7902316,52.3651085 C19.7213891,54.3191881 22.8210091,54.4865522 24.9513466,52.7517732 L30.2975143,48.3982755 L30.2975143,48.3982755 L24.2204918,42.135415 L20.7664481,45.1804249 C19.7219885,46.1011977 18.1449251,46.0634106 17.145763,45.0936717 L10.8526665,38.9858931 C9.79582376,37.9601722 9.77059462,36.2719207 10.7963156,35.215078 C10.8285023,35.1819147 10.8615456,35.1495938 10.8954121,35.1181479 L13.8428063,32.3814218 L13.8428063,32.3814218 L7.73335371,26.2687138 Z" id="Path-15" fill="#FFFFFF"></path>
                    <line x1="5.83842864" y1="29.8247138" x2="11.171762" y2="35.1580471" id="Line-5" stroke-linecap="square"></line>
                    <line x1="21.8384286" y1="45.8247138" x2="26.8956194" y2="50.8819045" id="Line-5-Copy" stroke-linecap="square"></line>
                </g>
            </g>
        </g>
    </g>
</svg>
