<?xml version="1.0" encoding="UTF-8"?><svg xmlns="http://www.w3.org/2000/svg" width="59" height="59" viewBox="0 0 59 59"><defs><style>.e{fill:#fff;}.f{fill:#424242;}.g{fill:none;stroke:#424242;stroke-width:3px;}</style></defs><g id="a"/><g id="b"><g id="c"><g><path class="e" d="M12.8393,17.5c.7566,1.0182,1.103,1.5981,1.5565,2.0766,3.7621,3.97,7.525,7.9395,11.3264,11.8717,2.5308,2.6178,4.9253,2.6607,7.4473,.0728,3.8866-3.9882,7.7096-8.0386,11.5324-12.0883,.4269-.4522,.6773-1.071,1.206-1.9327H12.8393Zm.2635,24H45.8933c-3.4827-3.7413-6.4137-6.89-9.3154-10.0071q-6.6178,4.9462-14.2821,.0804l-9.193,9.9267ZM47.5733,20.5159l-.6401-.4183c-2.8102,2.9766-5.6363,5.9387-8.4021,8.9559-.2335,.2547-.267,1.0613-.0497,1.3044,2.7876,3.1193,5.6378,6.1826,8.4722,9.26l.6198-.4106V20.5159Zm-35.453-.3239l-.6936,.3702v19.6218l9.7916-10.475-9.098-9.517Z"/><path class="f" d="M12.8393,17.5H45.9078c-.5287,.8618-.7791,1.4805-1.206,1.9327-3.8228,4.0497-7.6457,8.1001-11.5324,12.0883-2.5221,2.5879-4.9166,2.5451-7.4473-.0728-3.8014-3.9322-7.5643-7.9017-11.3264-11.8717-.4534-.4785-.7998-1.0584-1.5565-2.0766Z"/><path class="f" d="M13.1028,41.5l9.193-9.9267q7.6643,4.8658,14.2821-.0804c2.9016,3.1171,5.8327,6.2659,9.3154,10.0071H13.1028Z"/><path class="f" d="M47.5733,20.5159v18.6914l-.6198,.4106c-2.8344-3.0775-5.6846-6.1408-8.4722-9.26-.2173-.2431-.1837-1.0497,.0497-1.3044,2.7658-3.0173,5.5919-5.9794,8.4021-8.9559l.6401,.4183Z"/><path class="f" d="M12.1203,20.192l9.098,9.517-9.7916,10.475V20.5622l.6936-.3702Z"/></g><path id="d" class="g" d="M29.5,57.5c15.464,0,28-12.536,28-28S44.964,1.5,29.5,1.5,1.5,14.036,1.5,29.5s12.536,28,28,28Z"/></g></g></svg>
