<?xml version="1.0" encoding="UTF-8"?>
<svg width="56px" height="56px" viewBox="0 0 56 56" version="1.1" xmlns="http://www.w3.org/2000/svg" xmlns:xlink="http://www.w3.org/1999/xlink">
    <title>2E2F669E-EEFD-4987-AA25-F284263D584A</title>
    <g id="Blog-D" stroke="none" stroke-width="1" fill="none" fill-rule="evenodd">
        <g id="Blog-Detail-Page" transform="translate(-233.000000, -2390.000000)" fill-rule="nonzero">
            <g id="Group" transform="translate(235.000000, 2392.000000)">
                <path d="M26,52 C40.3594042,52 52,40.3594042 52,26 C52,11.6405958 40.3594042,0 26,0 C11.6405958,0 0,11.6405958 0,26 C0,40.3594042 11.6405958,52 26,52 Z" id="Oval-1-path" stroke="#424242" stroke-width="3"></path>
                <path d="M28.1444324,37.375 L28.1444324,24.3734778 L31.9903349,24.3734778 L32.5,19.8930812 L28.1444324,19.8930812 L28.1509665,17.6505996 C28.1509665,16.4820431 28.2699429,15.8559039 30.0684727,15.8559039 L32.4727743,15.8559039 L32.4727743,11.375 L28.6263272,11.375 C24.0061258,11.375 22.3799347,13.5484744 22.3799347,17.2035747 L22.3799347,19.8935887 L19.5,19.8935887 L19.5,24.3739852 L22.3799347,24.3739852 L22.3799347,37.375 L28.1444324,37.375 Z" id="Oval-1-path" fill="#424242"></path>
            </g>
        </g>
    </g>
</svg>