<?xml version="1.0" encoding="UTF-8"?>
<svg width="56px" height="56px" viewBox="0 0 56 56" version="1.1" xmlns="http://www.w3.org/2000/svg" xmlns:xlink="http://www.w3.org/1999/xlink">
    <title>7E1E57AC-C48B-4C56-AD99-919C62CD8B4C</title>
    <g id="Blog-D" stroke="none" stroke-width="1" fill="none" fill-rule="evenodd">
        <g id="Blog-Detail-Page" transform="translate(-373.000000, -2392.000000)" fill-rule="nonzero">
            <g id="Group-2" transform="translate(375.000000, 2394.000000)">
                <path d="M26,52 C40.3594042,52 52,40.3594042 52,26 C52,11.6405958 40.3594042,0 26,0 C11.6405958,0 0,11.6405958 0,26 C0,40.3594042 11.6405958,52 26,52 Z" id="Oval-1-path" stroke="#424242" stroke-width="3"></path>
                <polygon id="Oval-1-path" fill="#424242" points="15.3636364 19.0486021 15.3636364 36.2323986 20.9301006 36.2323986 20.9301006 19.0486021"></polygon>
                <path d="M18.5128228,10.6363636 C16.6085705,10.6363636 15.3636364,11.919654 15.3636364,13.6045144 C15.3636364,15.2544755 16.5717749,16.574718 18.4405657,16.574718 L18.4761384,16.574718 C20.4170752,16.574718 21.6258808,15.2544755 21.6258808,13.6045144 C21.5897522,11.919654 20.4170752,10.6363636 18.5128228,10.6363636 Z" id="Oval-1-path" fill="#424242"></path>
                <path d="M34.9545434,19.0486021 C31.9991171,19.0486021 30.6759228,20.716469 29.9371219,21.8865077 L29.9371219,19.452567 L24.3699907,19.452567 C24.4433596,21.0650057 24.3699907,36.6363636 24.3699907,36.6363636 L29.9371219,36.6363636 L29.9371219,27.0395139 C29.9371219,26.5259469 29.9732505,26.0136344 30.1204326,25.6459372 C30.5227378,24.6199436 31.4387354,23.5576821 32.9765887,23.5576821 C34.9916723,23.5576821 35.7971722,25.1333966 35.7971722,27.4425666 L35.7971722,36.6359075 L41.3634141,36.6359075 L41.3636364,26.7832436 C41.3636364,21.5051246 38.6175333,19.0486021 34.9545434,19.0486021 Z" id="Oval-1-path" fill="#424242"></path>
            </g>
        </g>
    </g>
</svg>