<?xml version="1.0" encoding="UTF-8"?>
<svg width="135px" height="70px" viewBox="0 0 135 70" version="1.1" xmlns="http://www.w3.org/2000/svg" xmlns:xlink="http://www.w3.org/1999/xlink">
    <title>08E96231-343A-4739-BCDF-D78DC4265584</title>
    <defs>
        <polygon id="path-1" points="0 0 100 0 100 40 0 40"></polygon>
    </defs>
    <g id="Home" stroke="none" stroke-width="1" fill="none" fill-rule="evenodd">
        <g id="Home-M" transform="translate(-20.000000, -9840.000000)">
            <g id="footer-m" transform="translate(-1.000000, 9522.000000)">
                <g id="Footer" transform="translate(1.000000, 254.000000)">
                    <g id="Logo" transform="translate(20.000000, 64.000000)">
                        <g id="Group-64" transform="translate(50.000000, 44.000000)" fill="#FFFFFF">
                            <path d="M4.35519737,1.71911842 L2.73230263,6.05359211 L5.89335526,6.05359211 L4.35519737,1.71911842 Z M8.17296053,9.91372368 L7.51532895,9.91372368 C7.30532895,9.91372368 7.26296053,9.89990789 7.19388158,9.70372368 L6.14480263,6.78122368 L2.46703947,6.78122368 L1.37651316,9.71846053 C1.30559211,9.89990789 1.26414474,9.91372368 1.08177632,9.91372368 L0.480328947,9.91372368 C0.425065789,9.91372368 0.383618421,9.88609211 0.383618421,9.81609211 C0.383618421,9.78846053 0.383618421,9.73135526 0.41125,9.67609211 L3.97756579,0.446223684 C4.00519737,0.361486842 4.07427632,0.306223684 4.15901316,0.306223684 L4.66190789,0.306223684 C4.74664474,0.306223684 4.78809211,0.333855263 4.83046053,0.432407895 L8.31296053,9.68990789 C8.32677632,9.74609211 8.34059211,9.77372368 8.34059211,9.80135526 C8.34059211,9.89990789 8.24296053,9.91372368 8.17296053,9.91372368 L8.17296053,9.91372368 Z" id="Fill-11"></path>
                            <path d="M13.9767895,4.87897368 C13.6700789,4.24989474 12.9148158,3.73318421 12.1457368,3.73318421 C10.8166579,3.73318421 9.94994737,4.76752632 9.94994737,6.5295 C9.94994737,8.22147368 10.7328421,9.34055263 12.0048158,9.34055263 C12.7462632,9.34055263 13.5853421,8.86436842 13.9767895,8.27765789 L13.9767895,4.87897368 Z M14.7044211,9.91436842 L14.2991579,9.91436842 C14.1029737,9.91436842 14.0338947,9.85726316 14.0338947,9.662 L14.0191579,9.07528947 C13.5300789,9.662 12.7048158,10.0396316 11.8657368,10.0396316 C9.85139474,10.0396316 9.02705263,8.37528947 9.02705263,6.55713158 C9.02705263,4.43226316 10.2990263,3.03318421 12.0757368,3.03318421 C12.7324474,3.03318421 13.5577105,3.34081579 13.9767895,3.88607895 L13.9767895,3.34081579 L13.9767895,0.320684211 C13.9767895,0.152131579 14.0053421,0.0830526316 14.1591579,0.0683157895 L14.6620526,-0.00168421053 L14.6767895,-0.00168421053 L14.7191579,-0.00168421053 C14.8306053,-0.00168421053 14.8729737,0.0830526316 14.8729737,0.222131579 L14.8729737,3.31318421 L14.8729737,9.662 C14.8729737,9.81581579 14.8020526,9.91436842 14.7044211,9.91436842 L14.7044211,9.91436842 Z" id="Fill-13"></path>
                            <path d="M21.6140658,3.38318421 L19.3620921,9.71818421 C19.3059079,9.85726316 19.2220921,9.91436842 19.0968289,9.91436842 L18.5515658,9.91436842 C18.3830132,9.91436842 18.2991974,9.84436842 18.2568289,9.71818421 L16.0334079,3.397 C16.0195921,3.36844737 16.0195921,3.35555263 16.0195921,3.327 C16.0195921,3.24318421 16.0895921,3.17226316 16.2157763,3.17226316 L16.7048553,3.17226316 C16.9010395,3.17226316 16.9563026,3.21463158 16.9986711,3.327 L18.8720921,8.86436842 L18.9006447,8.86436842 L20.7326184,3.36844737 C20.7749868,3.22936842 20.8726184,3.17226316 21.0264342,3.17226316 L21.4455132,3.17226316 C21.5440658,3.17226316 21.6278816,3.21463158 21.6278816,3.31318421 C21.6278816,3.34081579 21.6278816,3.35555263 21.6140658,3.38318421" id="Fill-15"></path>
                            <path d="M27.1782368,4.90688158 C26.8144211,4.15253947 26.0600789,3.73346053 25.3186316,3.73346053 C24.1166579,3.73346053 23.2352105,4.81017105 23.2352105,6.59977632 C23.2352105,8.37556579 24.1166579,9.28464474 25.1086316,9.28464474 C26.1291579,9.28464474 26.8991579,8.44556579 27.1782368,7.59267105 L27.1782368,4.90688158 Z M28.5073158,9.91464474 L27.9758684,9.91464474 C27.4296842,9.91464474 27.1929737,9.45227632 27.1929737,8.90701316 L27.1929737,8.72556579 C26.9129737,9.41082895 25.9624474,10.0389868 25.0395526,10.0389868 C23.1366579,10.0389868 22.3123158,8.38938158 22.3123158,6.65503947 C22.3123158,4.36161842 23.6404737,3.03346053 25.2624474,3.03346053 C25.9338947,3.03346053 26.7167895,3.31346053 27.1782368,3.91490789 L27.1929737,3.39635526 C27.1929737,3.22964474 27.2906053,3.17253947 27.4444211,3.17253947 L27.8635,3.17253947 C28.0173158,3.17253947 28.0744211,3.25727632 28.0744211,3.42490789 L28.0744211,8.33411842 C28.0744211,8.72556579 28.0744211,8.99082895 28.1296842,9.10319737 C28.1858684,9.22846053 28.2835,9.26990789 28.4235,9.26990789 L28.5211316,9.26990789 C28.6325789,9.26990789 28.6749474,9.29846053 28.6749474,9.42372368 L28.6749474,9.77372368 C28.6749474,9.88609211 28.6325789,9.91464474 28.5073158,9.91464474 L28.5073158,9.91464474 Z" id="Fill-17"></path>
                            <path d="M35.2068684,9.91418421 L34.7601579,9.91418421 C34.6054211,9.91418421 34.5354211,9.82944737 34.5354211,9.66273684 L34.5354211,5.6755 C34.5354211,4.55826316 34.2692368,3.733 32.9834474,3.733 C32.2843684,3.733 31.4176579,4.13826316 30.8862105,4.62826316 L30.8862105,9.66273684 C30.8862105,9.82944737 30.8152895,9.91418421 30.6614737,9.91418421 L30.2147632,9.91418421 C30.0600263,9.91418421 29.9909474,9.82944737 29.9909474,9.66273684 L29.9909474,3.42444737 C29.9909474,3.25681579 30.0600263,3.173 30.2147632,3.173 L30.6476579,3.173 C30.8014737,3.173 30.8714737,3.25681579 30.8714737,3.42444737 L30.8862105,3.90063158 C31.5291053,3.32773684 32.4243684,3.033 33.2210789,3.033 C34.8568684,3.033 35.4306842,4.02589474 35.4306842,5.55115789 L35.4306842,9.66273684 C35.4306842,9.82944737 35.3606842,9.91418421 35.2068684,9.91418421" id="Fill-19"></path>
                            <path d="M41.9483289,9.64790789 C41.38925,9.91409211 40.7316184,10.0393553 40.1449079,10.0393553 C37.9353026,10.0393553 36.9414868,8.55646053 36.9414868,6.51540789 C36.9414868,4.52961842 38.1443816,3.03290789 40.2010921,3.03290789 C40.7878026,3.03290789 41.5145132,3.21527632 41.9483289,3.45198684 C42.0321447,3.49435526 42.0745132,3.55053947 42.0745132,3.60580263 C42.0745132,3.63435526 42.0597763,3.67672368 42.0459605,3.71909211 L41.9630658,3.97053947 C41.9345132,4.03961842 41.9059605,4.12435526 41.8221447,4.12435526 C41.7945132,4.12435526 41.7668816,4.10961842 41.7245132,4.09580263 C41.2768816,3.88580263 40.7739868,3.71909211 40.1863553,3.71909211 C38.7872763,3.71909211 37.8643816,4.79488158 37.8643816,6.48685526 C37.8643816,7.95593421 38.46675,9.36790789 40.1449079,9.36790789 C40.7454342,9.36790789 41.3478026,9.21409211 41.7668816,9.03264474 C41.80925,9.01790789 41.8368816,9.00501316 41.8645132,9.00501316 C41.9345132,9.00501316 41.9906974,9.06027632 42.0045132,9.13027632 L42.0745132,9.38264474 C42.0874079,9.42409211 42.0874079,9.46646053 42.0874079,9.49409211 C42.0874079,9.56409211 42.0459605,9.60646053 41.9483289,9.64790789" id="Fill-21"></path>
                            <path d="M44.0188553,9.91418421 L43.5721447,9.91418421 C43.4183289,9.91418421 43.3474079,9.82944737 43.3474079,9.66273684 L43.3474079,3.42444737 C43.3474079,3.25681579 43.4183289,3.173 43.5721447,3.173 L44.0188553,3.173 C44.1726711,3.173 44.2426711,3.25681579 44.2426711,3.42444737 L44.2426711,9.66273684 C44.2426711,9.82944737 44.1726711,9.91418421 44.0188553,9.91418421 M43.7950395,2.15247368 C43.4735921,2.15247368 43.2221447,1.92865789 43.2221447,1.60628947 C43.2221447,1.28576316 43.4735921,1.06194737 43.7950395,1.06194737 C44.1164868,1.06194737 44.3826711,1.28576316 44.3826711,1.60628947 C44.3826711,1.92865789 44.1164868,2.15247368 43.7950395,2.15247368" id="Fill-23"></path>
                            <path d="M51.5006579,9.91418421 L51.0539474,9.91418421 C50.9001316,9.91418421 50.8292105,9.82944737 50.8292105,9.66273684 L50.8292105,5.6755 C50.8292105,4.55826316 50.5639474,3.733 49.2772368,3.733 C48.5781579,3.733 47.7114474,4.13826316 47.18,4.62826316 L47.18,9.66273684 C47.18,9.82944737 47.11,9.91418421 46.9552632,9.91418421 L46.5085526,9.91418421 C46.3547368,9.91418421 46.2847368,9.82944737 46.2847368,9.66273684 L46.2847368,3.42444737 C46.2847368,3.25681579 46.3547368,3.173 46.5085526,3.173 L46.9423684,3.173 C47.0961842,3.173 47.1661842,3.25681579 47.1661842,3.42444737 L47.18,3.90063158 C47.8228947,3.32773684 48.7181579,3.033 49.5157895,3.033 C51.1515789,3.033 51.7244737,4.02589474 51.7244737,5.55115789 L51.7244737,9.66273684 C51.7244737,9.82944737 51.6553947,9.91418421 51.5006579,9.91418421" id="Fill-25"></path>
                            <path d="M58.2007632,4.87897368 C57.8783947,4.23607895 57.0964211,3.73318421 56.3273421,3.73318421 C54.9282632,3.73318421 54.173,4.86515789 54.173,6.4595 C54.173,7.74621053 54.6491842,9.18673684 56.1864211,9.18673684 C56.9278684,9.18673684 57.8093158,8.76765789 58.2007632,8.17910526 L58.2007632,4.87897368 Z M58.1731316,12.3192368 C57.6969474,12.7245 56.9840526,12.9906842 56.0464211,12.9906842 C55.4320789,12.9906842 54.6491842,12.7659474 54.103,12.5006842 C53.9915526,12.4454211 53.963,12.3892368 53.963,12.3330526 C53.963,12.3054211 53.963,12.2768684 53.9768158,12.2492368 L54.1168158,11.8854211 C54.1453684,11.8154211 54.1877368,11.7601579 54.2568158,11.7601579 C54.2853684,11.7601579 54.3415526,11.7601579 54.3820789,11.7877895 C54.9144474,12.0254211 55.4882632,12.2345 56.0464211,12.2345 C56.7187895,12.2345 57.2502368,12.1101579 57.6269474,11.7177895 C58.0045789,11.3263421 58.2007632,10.6834474 58.2007632,9.70344737 L58.2007632,9.01818421 C57.7245789,9.592 56.8440526,9.91436842 56.1035263,9.91436842 C54.0891842,9.91436842 53.2501053,8.33384211 53.2501053,6.51476316 C53.2501053,4.64134211 54.2991842,3.03318421 56.2849737,3.03318421 C56.9978684,3.03318421 57.7531316,3.31318421 58.2007632,3.88607895 L58.2145789,3.397 C58.2145789,3.21463158 58.3122105,3.17226316 58.4660263,3.17226316 L58.8860263,3.17226316 C59.0398421,3.17226316 59.0960263,3.257 59.0960263,3.42463158 L59.0960263,8.16528947 L59.0960263,9.60673684 C59.0960263,10.8372632 58.8307632,11.7454211 58.1731316,12.3192368 L58.1731316,12.3192368 Z" id="Fill-27"></path>
                            <path d="M67.3195526,9.82963158 C67.0542895,9.92726316 66.5928421,10.0396316 66.1728421,10.0396316 C65.6275789,10.0396316 65.0399474,9.88673684 64.7323158,9.56436842 C64.3408684,9.15818421 64.3123158,8.58436842 64.3123158,7.81621053 L64.3123158,3.82989474 L63.4879737,3.82989474 C63.3617895,3.82989474 63.3341579,3.80226316 63.3341579,3.69081579 L63.3341579,3.31318421 C63.3341579,3.187 63.3617895,3.17226316 63.4603421,3.17226316 L64.3123158,3.17226316 L64.3123158,1.53647368 C64.3123158,1.36884211 64.3408684,1.31357895 64.4956053,1.28594737 L64.9846842,1.21502632 L64.9975789,1.21502632 L65.0399474,1.21502632 C65.1513947,1.21502632 65.2075789,1.29884211 65.2075789,1.43976316 L65.2075789,3.17226316 L66.9004737,3.17226316 C67.0119211,3.17226316 67.0542895,3.20173684 67.0542895,3.327 L67.0542895,3.69081579 C67.0542895,3.80226316 67.0119211,3.82989474 66.8857368,3.82989474 L65.2075789,3.82989474 L65.2075789,7.95621053 C65.2075789,8.44528947 65.2499474,8.83673684 65.4875789,9.07528947 C65.6552105,9.242 65.9204737,9.34055263 66.3128421,9.34055263 C66.6342895,9.34055263 66.9842895,9.242 67.1804737,9.18673684 C67.2219211,9.17292105 67.2633684,9.17292105 67.2919211,9.17292105 C67.3757368,9.17292105 67.3757368,9.21436842 67.3895526,9.27055263 L67.4595526,9.61963158 L67.4595526,9.67581579 C67.4595526,9.74581579 67.4171842,9.78818421 67.3195526,9.82963158" id="Fill-29"></path>
                            <path d="M73.8226447,9.91418421 L73.3759342,9.91418421 C73.2221184,9.91418421 73.1511974,9.82944737 73.1511974,9.66273684 L73.1511974,5.6755 C73.1511974,4.57115789 72.8721184,3.733 71.6139605,3.733 C70.9139605,3.733 70.0334342,4.13826316 69.5019868,4.62826316 L69.5019868,9.66273684 C69.5019868,9.82944737 69.4319868,9.91418421 69.27725,9.91418421 L68.8305395,9.91418421 C68.6767237,9.91418421 68.6067237,9.82944737 68.6067237,9.66273684 L68.6067237,0.3205 C68.6067237,0.151947368 68.6343553,0.0966842105 68.7881711,0.0690526316 L69.27725,-0.00186842105 L69.2919868,-0.00186842105 L69.3343553,-0.00186842105 C69.4458026,-0.00186842105 69.5019868,0.0828684211 69.5019868,0.222868421 L69.5019868,3.90063158 C70.1448816,3.32773684 71.0401447,3.033 71.8377763,3.033 C73.4735658,3.033 74.0464605,4.02589474 74.0464605,5.55115789 L74.0464605,9.66273684 C74.0464605,9.82944737 73.9773816,9.91418421 73.8226447,9.91418421" id="Fill-31"></path>
                            <path d="M78.6770526,3.71863158 C77.3617895,3.71863158 76.6350789,4.78060526 76.5088947,5.94205263 L80.3966579,5.94205263 C80.4104737,5.84442105 80.4104737,5.76060526 80.4104737,5.66205263 C80.4104737,4.59915789 79.8513947,3.71863158 78.6770526,3.71863158 M80.9142895,6.57113158 L79.6837632,6.57113158 L76.4812632,6.57113158 C76.4812632,8.05402632 77.2227105,9.28455263 78.8308684,9.28455263 C79.4313947,9.28455263 80.1590263,9.14455263 80.5781053,8.96218421 C80.6204737,8.94928947 80.6490263,8.93455263 80.6766579,8.93455263 C80.7466579,8.93455263 80.8028421,8.99073684 80.8157368,9.06073684 L80.8857368,9.38218421 C80.9004737,9.42363158 80.9004737,9.466 80.9004737,9.49455263 C80.9004737,9.56455263 80.8581053,9.60692105 80.7604737,9.64744737 C80.2004737,9.91455263 79.3346842,10.0388947 78.7461316,10.0388947 C76.6074474,10.0388947 75.5574474,8.59928947 75.5574474,6.52968421 C75.5574474,4.58534211 76.7465263,3.03336842 78.7046842,3.03336842 C80.3542895,3.03336842 81.3057368,4.29152632 81.3057368,5.92731579 L81.3057368,6.19442105 C81.3057368,6.50113158 81.2642895,6.57113158 80.9142895,6.57113158" id="Fill-33"></path>
                            <path d="M9.41739474,18.7226711 L7.52923684,25.0576711 C7.48686842,25.2124079 7.37542105,25.2538553 7.24923684,25.2538553 L6.67542105,25.2538553 C6.50871053,25.2538553 6.42489474,25.1847763 6.39726316,25.0576711 L4.95581579,19.9393816 L3.52910526,25.0576711 C3.48765789,25.2124079 3.37528947,25.2538553 3.25002632,25.2538553 L2.69002632,25.2538553 C2.52331579,25.2538553 2.43857895,25.1847763 2.39713158,25.0576711 L0.508973684,18.7374079 C0.508973684,18.7088553 0.494236842,18.6812237 0.494236842,18.6664868 C0.494236842,18.5697763 0.565157895,18.5126711 0.690421053,18.5126711 L1.18042105,18.5126711 C1.37660526,18.5126711 1.44660526,18.5550395 1.47423684,18.6664868 L3.01239474,24.1909605 L3.04002632,24.1909605 L4.59292105,18.6812237 C4.63436842,18.5550395 4.69055263,18.5126711 4.81673684,18.5126711 L5.26344737,18.5126711 C5.34726316,18.5126711 5.40436842,18.5421447 5.432,18.6535921 L7.04015789,24.1909605 L7.06778947,24.1909605 L8.55068421,18.7088553 C8.59213158,18.5697763 8.68976316,18.5126711 8.84357895,18.5126711 L9.26357895,18.5126711 C9.36121053,18.5126711 9.43121053,18.5550395 9.43121053,18.6388553 C9.43121053,18.6664868 9.43121053,18.6950395 9.41739474,18.7226711" id="Fill-35"></path>
                            <path d="M13.3479868,19.0590395 C11.6836447,19.0590395 11.1669342,20.5410132 11.1669342,21.8415395 C11.1669342,23.2120658 11.6412763,24.7087763 13.2779868,24.7087763 C14.9008816,24.7087763 15.4737763,23.2968026 15.4737763,21.8977237 C15.4737763,20.5124605 14.9414079,19.0590395 13.3479868,19.0590395 M13.2641711,25.3793026 C11.1669342,25.3793026 10.2431184,23.8411447 10.2431184,21.8700921 C10.2431184,19.92575 11.3336447,18.3737763 13.3479868,18.3737763 C15.4452237,18.3737763 16.3966711,19.85575 16.3966711,21.8700921 C16.3966711,23.8273289 15.2914079,25.3793026 13.2641711,25.3793026" id="Fill-37"></path>
                            <path d="M20.81625,19.0311316 C20.8024342,19.1002105 20.7600658,19.1425789 20.7048026,19.1425789 L20.6771711,19.1425789 C20.5371711,19.1149474 20.3824342,19.0873158 20.2286184,19.0873158 C19.7257237,19.0873158 19.1666447,19.4649474 18.8028289,20.0231053 L18.8028289,25.0013947 C18.8028289,25.1699474 18.7328289,25.2537632 18.5790132,25.2537632 L18.1313816,25.2537632 C17.9775658,25.2537632 17.9084868,25.1699474 17.9084868,25.0013947 L17.9084868,18.7649474 C17.9084868,18.5973158 17.9775658,18.5135 18.1313816,18.5135 L18.5651974,18.5135 C18.7190132,18.5135 18.7890132,18.5973158 18.7890132,18.7649474 L18.8028289,19.2540263 C19.0828289,18.8349474 19.6704605,18.3735 20.3695395,18.3735 C20.4671711,18.3735 20.6348026,18.3873158 20.7748026,18.4149474 C20.8586184,18.4296842 20.88625,18.4849474 20.88625,18.5420526 L20.88625,18.5696842 L20.81625,19.0311316 Z" id="Fill-39"></path>
                            <path d="M22.6772368,25.2536711 L22.2296053,25.2536711 C22.0757895,25.2536711 22.0057895,25.1698553 22.0057895,25.0022237 L22.0057895,15.6609079 C22.0057895,15.4923553 22.0343421,15.4370921 22.1881579,15.4094605 L22.6772368,15.3385395 L22.6910526,15.3385395 L22.7334211,15.3385395 C22.8457895,15.3385395 22.9010526,15.4223553 22.9010526,15.5632763 L22.9010526,25.0022237 C22.9010526,25.1698553 22.8310526,25.2536711 22.6772368,25.2536711" id="Fill-41"></path>
                            <path d="M29.3765132,20.2193816 C29.0688816,19.5893816 28.3136184,19.0726711 27.5445395,19.0726711 C26.2154605,19.0726711 25.34875,20.1079342 25.34875,21.8699079 C25.34875,23.5618816 26.1325658,24.6809605 27.4036184,24.6809605 C28.1450658,24.6809605 28.9841447,24.2047763 29.3765132,23.6171447 L29.3765132,20.2193816 Z M30.1032237,25.2538553 L29.6979605,25.2538553 C29.5026974,25.2538553 29.4326974,25.1976711 29.4326974,25.0014868 L29.4179605,24.4147763 C28.9288816,25.0014868 28.1036184,25.3800395 27.2645395,25.3800395 C25.2511184,25.3800395 24.4258553,23.7156974 24.4258553,21.8975395 C24.4258553,19.7726711 25.69875,18.3735921 27.4745395,18.3735921 C28.13125,18.3735921 28.9565132,18.6812237 29.3765132,19.2264868 L29.3765132,18.6812237 L29.3765132,15.6610921 C29.3765132,15.4925395 29.4041447,15.4225395 29.5579605,15.4087237 L30.0608553,15.3387237 L30.0755921,15.3387237 L30.1179605,15.3387237 C30.2294079,15.3387237 30.2717763,15.4225395 30.2717763,15.5625395 L30.2717763,18.6535921 L30.2717763,25.0014868 C30.2717763,25.1562237 30.2017763,25.2538553 30.1032237,25.2538553 L30.1032237,25.2538553 Z" id="Fill-43"></path>
                            <path d="M37.9636711,19.0590395 C36.2993289,19.0590395 35.7826184,20.5410132 35.7826184,21.8415395 C35.7826184,23.2120658 36.2569605,24.7087763 37.8936711,24.7087763 C39.5165658,24.7087763 40.0903816,23.2968026 40.0903816,21.8977237 C40.0903816,20.5124605 39.5580132,19.0590395 37.9636711,19.0590395 M37.8798553,25.3793026 C35.7826184,25.3793026 34.8597237,23.8411447 34.8597237,21.8700921 C34.8597237,19.92575 35.9493289,18.3737763 37.9636711,18.3737763 C40.0609079,18.3737763 41.0132763,19.85575 41.0132763,21.8700921 C41.0132763,23.8273289 39.9070921,25.3793026 37.8798553,25.3793026" id="Fill-46"></path>
                            <path d="M46.2711974,15.6609079 L46.1744868,16.0376184 C46.15975,16.0799868 46.1321184,16.1223553 46.0759342,16.1223553 C46.0483026,16.1223553 46.0206711,16.1076184 45.9644868,16.0947237 C45.7683026,16.0099868 45.3759342,15.9261711 45.0554079,15.9261711 C44.0339605,15.9261711 43.7263289,16.5690658 43.7263289,17.8419605 L43.7263289,18.5134079 L45.5444868,18.5134079 C45.6706711,18.5134079 45.7130395,18.5419605 45.7130395,18.6534079 L45.7130395,19.0172237 C45.7130395,19.1424868 45.6706711,19.1710395 45.5592237,19.1710395 L43.7263289,19.1710395 L43.7263289,25.0022237 C43.7263289,25.1698553 43.6563289,25.2536711 43.5025132,25.2536711 L43.0558026,25.2536711 C42.9010658,25.2536711 42.8319868,25.1698553 42.8319868,25.0022237 L42.8319868,19.1710395 L41.9781711,19.1710395 C41.8805395,19.1710395 41.8529079,19.1563026 41.8529079,19.0310395 L41.8529079,18.6534079 C41.8529079,18.5419605 41.8805395,18.5134079 42.0058026,18.5134079 L42.8319868,18.5134079 L42.8319868,18.3181447 C42.8319868,17.7719605 42.8448816,17.4366974 42.8734342,17.2128816 C42.9986974,15.9676184 43.7548816,15.2270921 44.9854079,15.2270921 C45.3759342,15.2270921 45.8244868,15.3247237 46.1321184,15.4370921 C46.22975,15.4785395 46.2859342,15.5338026 46.2859342,15.6047237 C46.2859342,15.6185395 46.2711974,15.6332763 46.2711974,15.6609079" id="Fill-48"></path>
                            <path d="M55.5859868,25.2536711 L55.1392763,25.2536711 C54.9854605,25.2536711 54.9145395,25.1698553 54.9145395,25.0022237 L54.9145395,21.0159079 C54.9145395,19.9115658 54.6354605,19.0724868 53.3773026,19.0724868 C52.6773026,19.0724868 51.7967763,19.47775 51.2653289,19.96775 L51.2653289,25.0022237 C51.2653289,25.1698553 51.1944079,25.2536711 51.0405921,25.2536711 L50.5938816,25.2536711 C50.4400658,25.2536711 50.3700658,25.1698553 50.3700658,25.0022237 L50.3700658,15.6609079 C50.3700658,15.4923553 50.3976974,15.4370921 50.5515132,15.4094605 L51.0405921,15.3385395 L51.0553289,15.3385395 L51.0967763,15.3385395 C51.2082237,15.3385395 51.2653289,15.4223553 51.2653289,15.5632763 L51.2653289,19.2410395 C51.9082237,18.6672237 52.8034868,18.3734079 53.6001974,18.3734079 C55.2359868,18.3734079 55.8098026,19.3663026 55.8098026,20.8906447 L55.8098026,25.0022237 C55.8098026,25.1698553 55.7398026,25.2536711 55.5859868,25.2536711" id="Fill-50"></path>
                            <path d="M60.4395658,19.0590395 C59.1252237,19.0590395 58.3975921,20.1210132 58.2714079,21.2824605 L62.1600921,21.2824605 C62.1739079,21.1848289 62.1739079,21.1010132 62.1739079,21.0024605 C62.1739079,19.9395658 61.6139079,19.0590395 60.4395658,19.0590395 M62.6777237,21.9115395 L61.4471974,21.9115395 L58.2437763,21.9115395 C58.2437763,23.3935132 58.9852237,24.6249605 60.5933816,24.6249605 C61.1948289,24.6249605 61.9215395,24.4849605 62.3415395,24.3025921 C62.3839079,24.2896974 62.4115395,24.2749605 62.4400921,24.2749605 C62.5091711,24.2749605 62.5662763,24.3311447 62.5791711,24.4011447 L62.6491711,24.7225921 C62.6629868,24.7640395 62.6629868,24.8064079 62.6629868,24.8349605 C62.6629868,24.9049605 62.6215395,24.9464079 62.5239079,24.9878553 C61.9639079,25.2540395 61.0971974,25.3793026 60.5095658,25.3793026 C58.3699605,25.3793026 57.3208816,23.9396974 57.3208816,21.8700921 C57.3208816,19.92575 58.5099605,18.3737763 60.4671974,18.3737763 C62.1177237,18.3737763 63.06825,19.6319342 63.06825,21.2677237 L63.06825,21.5348289 C63.06825,21.8415395 63.0277237,21.9115395 62.6777237,21.9115395" id="Fill-52"></path>
                            <path d="M68.9430921,20.2472895 C68.5792763,19.4929474 67.8249342,19.0729474 67.0834868,19.0729474 C65.8805921,19.0729474 65.0000658,20.1505789 65.0000658,21.9401842 C65.0000658,23.7159737 65.8805921,24.6250526 66.8734868,24.6250526 C67.8940132,24.6250526 68.6630921,23.7859737 68.9430921,22.9321579 L68.9430921,20.2472895 Z M70.27125,25.2541316 L69.7398026,25.2541316 C69.1945395,25.2541316 68.9578289,24.7926842 68.9578289,24.2474211 L68.9578289,24.0659737 C68.6778289,24.7512368 67.7273026,25.3793947 66.8034868,25.3793947 C64.9015132,25.3793947 64.0771711,23.7297895 64.0771711,21.9954474 C64.0771711,19.7020263 65.4053289,18.3738684 67.0273026,18.3738684 C67.6978289,18.3738684 68.4816447,18.6538684 68.9430921,19.2543947 L68.9578289,18.7367632 C68.9578289,18.5700526 69.0554605,18.5129474 69.2092763,18.5129474 L69.6283553,18.5129474 C69.7821711,18.5129474 69.8383553,18.5976842 69.8383553,18.7653158 L69.8383553,23.6736053 C69.8383553,24.0659737 69.8383553,24.3312368 69.8945395,24.4436053 C69.9507237,24.5679474 70.0483553,24.6103158 70.1883553,24.6103158 L70.2859868,24.6103158 C70.3974342,24.6103158 70.4398026,24.6388684 70.4398026,24.7641316 L70.4398026,25.1141316 C70.4398026,25.2255789 70.3974342,25.2541316 70.27125,25.2541316 L70.27125,25.2541316 Z" id="Fill-54"></path>
                            <path d="M72.4266974,25.2536711 L71.9790658,25.2536711 C71.82525,25.2536711 71.75525,25.1698553 71.75525,25.0022237 L71.75525,15.6609079 C71.75525,15.4923553 71.7828816,15.4370921 71.9376184,15.4094605 L72.4266974,15.3385395 L72.4405132,15.3385395 L72.4828816,15.3385395 C72.5943289,15.3385395 72.6495921,15.4223553 72.6495921,15.5632763 L72.6495921,25.0022237 C72.6495921,25.1698553 72.5805132,25.2536711 72.4266974,25.2536711" id="Fill-56"></path>
                            <path d="M77.8244342,25.1700395 C77.5591711,25.2676711 77.0977237,25.3800395 76.6777237,25.3800395 C76.1324605,25.3800395 75.5448289,25.2262237 75.2371974,24.9047763 C74.8466711,24.4985921 74.8171974,23.9247763 74.8171974,23.1556974 L74.8171974,19.1703026 L73.9928553,19.1703026 C73.8666711,19.1703026 73.8390395,19.1426711 73.8390395,19.0312237 L73.8390395,18.6535921 C73.8390395,18.5274079 73.8666711,18.5126711 73.9652237,18.5126711 L74.8171974,18.5126711 L74.8171974,16.8768816 C74.8171974,16.70925 74.8466711,16.6530658 75.0004868,16.6254342 L75.4895658,16.5554342 L75.5024605,16.5554342 L75.5448289,16.5554342 C75.6571974,16.5554342 75.7133816,16.63925 75.7133816,16.77925 L75.7133816,18.5126711 L77.4053553,18.5126711 C77.5168026,18.5126711 77.5591711,18.5421447 77.5591711,18.6664868 L77.5591711,19.0312237 C77.5591711,19.1426711 77.5168026,19.1703026 77.3906184,19.1703026 L75.7133816,19.1703026 L75.7133816,23.2966184 C75.7133816,23.7856974 75.7548289,24.1771447 75.9924605,24.4147763 C76.1600921,24.5824079 76.4253553,24.6809605 76.8177237,24.6809605 C77.1391711,24.6809605 77.4891711,24.5824079 77.6853553,24.5271447 C77.7277237,24.5124079 77.76825,24.5124079 77.7968026,24.5124079 C77.8806184,24.5124079 77.8806184,24.5547763 77.8944342,24.6109605 L77.9644342,24.9600395 L77.9644342,25.0162237 C77.9644342,25.0862237 77.9220658,25.1285921 77.8244342,25.1700395" id="Fill-58"></path>
                            <path d="M84.3284474,25.2536711 L83.8808158,25.2536711 C83.727,25.2536711 83.657,25.1698553 83.657,25.0022237 L83.657,21.0159079 C83.657,19.9115658 83.3779211,19.0724868 82.1188421,19.0724868 C81.4197632,19.0724868 80.5383158,19.47775 80.0077895,19.96775 L80.0077895,25.0022237 C80.0077895,25.1698553 79.9368684,25.2536711 79.7830526,25.2536711 L79.3354211,25.2536711 C79.1816053,25.2536711 79.1125263,25.1698553 79.1125263,25.0022237 L79.1125263,15.6609079 C79.1125263,15.4923553 79.1401579,15.4370921 79.2939737,15.4094605 L79.7830526,15.3385395 L79.7968684,15.3385395 L79.8392368,15.3385395 C79.9506842,15.3385395 80.0077895,15.4223553 80.0077895,15.5632763 L80.0077895,19.2410395 C80.6506842,18.6672237 81.5459474,18.3734079 82.3426579,18.3734079 C83.9784474,18.3734079 84.5522632,19.3663026 84.5522632,20.8906447 L84.5522632,25.0022237 C84.5522632,25.1698553 84.4822632,25.2536711 84.3284474,25.2536711" id="Fill-61"></path>
                        </g>
                        <g id="Logo-/-White">
                            <g id="Group-3">
                                <mask id="mask-2" fill="white">
                                    <use xlink:href="#path-1"></use>
                                </mask>
                                <g id="Clip-2"></g>
                                <path d="M27.8830506,18.9910814 C27.8196111,18.9687848 27.7603089,18.9381271 27.7603089,18.8628763 C27.7603089,18.8196767 27.7851331,18.7848384 27.841677,18.7430323 C27.8982209,18.7012263 37.1466005,12.111204 37.1466005,12.111204 C38.220935,14.5178372 38.8180941,17.1878484 38.8180941,20 C38.8180941,20.9141583 38.7532754,21.8157748 38.6319128,22.6964883 C38.6319128,22.6964883 27.9464901,19.0133779 27.8830506,18.9910814 M19.793132,39.222408 C10.2592746,39.222408 2.36519101,32.1348941 0.983312647,22.8915831 L8.07336919,23.8921405 C8.1836988,23.9060758 8.22783064,23.9646042 8.25403393,24.0426421 C9.66073645,28.1814381 13.203696,31.330825 17.5961936,32.1376812 C15.9233209,31.3141026 14.7703765,29.5791527 14.7703765,27.5724638 C14.7703765,24.7686734 17.0197214,22.4958194 19.793132,22.4958194 C22.5679217,22.4958194 24.8158875,24.7686734 24.8158875,27.5724638 C24.8158875,29.5791527 23.6643222,31.3141026 21.9914495,32.1376812 C26.383947,31.330825 29.9255275,28.1814381 31.33223,24.0426421 C31.3584333,23.9646042 31.4039443,23.9060758 31.5128948,23.8921405 L38.6029513,22.8915831 C37.2224521,32.1348941 29.3269894,39.222408 19.793132,39.222408 M0.769549028,20 C0.769549028,17.1878484 1.36670804,14.5178372 2.43966349,12.111204 C2.43966349,12.111204 11.688043,18.7012263 11.744587,18.7430323 C11.8011309,18.7848384 11.825955,18.8196767 11.825955,18.8628763 C11.825955,18.9381271 11.768032,18.9687848 11.7032133,18.9910814 C11.6397738,19.0133779 0.954351124,22.6964883 0.954351124,22.6964883 C0.832988553,21.8157748 0.769549028,20.9141583 0.769549028,20 M9.43042339,3.87541806 C9.43042339,3.87541806 13.6919046,14.4927536 13.7125914,14.5457079 C13.7305199,14.590301 13.7346573,14.6181717 13.7346573,14.6404682 C13.7346573,14.7017837 13.6877672,14.7477703 13.6312233,14.7477703 C13.5981244,14.7477703 13.5677838,14.7421962 13.5346849,14.733835 C13.4546959,14.712932 2.50034478,11.9760312 2.50034478,11.9760312 C4.00910219,8.65942029 6.42807889,5.85005574 9.43042339,3.87541806 M19.724176,0.776198439 C19.724176,0.776198439 17.7120397,11.5872352 17.6127431,12.1167781 C17.5961936,12.2073579 17.5437871,12.2366221 17.4955179,12.2366221 C17.4486278,12.2366221 17.4113915,12.2045708 17.3603641,12.150223 C17.1052269,11.8798774 9.54902772,3.79877369 9.54902772,3.79877369 C12.4879327,1.89659978 15.9784857,0.790133779 19.724176,0.776198439 M30.0372362,3.79877369 C30.0372362,3.79877369 22.4810371,11.8798774 22.227279,12.150223 C22.1748724,12.2045708 22.1376362,12.2366221 22.0907461,12.2366221 C22.043856,12.2366221 21.9914495,12.2073579 21.9749,12.1167781 C21.8756034,11.5872352 19.862088,0.776198439 19.862088,0.776198439 C23.6077782,0.790133779 27.0983313,1.89659978 30.0372362,3.79877369 M37.0859192,11.9760312 C37.0859192,11.9760312 26.1315681,14.712932 26.0529582,14.733835 C26.0184802,14.7421962 25.9881396,14.7477703 25.9564198,14.7477703 C25.8998759,14.7477703 25.8516067,14.7017837 25.8516067,14.6404682 C25.8516067,14.6181717 25.855744,14.590301 25.8736726,14.5457079 C25.8957385,14.4927536 30.1558406,3.87541806 30.1558406,3.87541806 C33.1595642,5.85005574 35.5771618,8.65942029 37.0859192,11.9760312 M19.7945111,0 C8.8622259,0 0,8.95345596 0,20 C0,31.0451505 8.8622259,40 19.7945111,40 C30.7254172,40 39.5848848,31.0451505 39.5848848,20 C39.5848848,8.95345596 30.7254172,0 19.7945111,0 M85.0434423,9.97909699 L80.6647359,9.97909699 L80.6647359,30.1560758 L85.0434423,30.1560758 C91.7252793,30.1560758 95.453041,26.1649944 95.453041,20.0668896 C95.453041,13.9255853 91.7900979,9.97909699 85.0434423,9.97909699 M85.3371949,34.3673356 L78.3685009,34.3673356 C77.0941939,34.3673356 76.0750241,33.3946488 76.0750241,32.0498885 L76.0750241,8.04626533 C76.0750241,6.75724638 77.0941939,5.7706243 78.3685009,5.7706243 L85.3371949,5.7706243 C94.7827886,5.7706243 100,12.1669454 100,20.0668896 C100,27.969621 94.7262447,34.3673356 85.3371949,34.3673356 M62.813405,21.3559086 L54.4449042,21.3559086 L54.4449042,30.1170569 L62.813405,30.1170569 C66.1646669,30.1170569 67.703765,27.9264214 67.703765,25.735786 C67.703765,23.546544 66.1853537,21.3559086 62.813405,21.3559086 M61.7735485,9.97909699 L54.4449042,9.97909699 L54.4449042,17.192029 L61.7735485,17.192029 C64.6793546,17.192029 66.0474417,15.5588071 66.0474417,13.5841695 C66.0474417,11.5663322 64.76486,9.97909699 61.7735485,9.97909699 M62.6479106,34.3673356 L52.1500483,34.3673356 C50.8757413,34.3673356 49.8979451,33.3361204 49.8979451,32.0498885 L49.8979451,8.04626533 C49.8979451,6.75724638 50.8757413,5.7706243 52.1500483,5.7706243 L61.9680044,5.7706243 C67.3631223,5.7706243 70.5930217,8.94230769 70.5930217,13.0643813 C70.5930217,17.2324415 68.0719901,18.7165552 67.1934906,19.0384615 C68.5574404,19.3854515 72.250724,20.9657191 72.250724,26.1775362 C72.250724,30.6438127 68.6856985,34.3673356 62.6479106,34.3673356" id="Fill-1" fill="#FFFFFF" mask="url(#mask-2)"></path>
                            </g>
                        </g>
                    </g>
                </g>
            </g>
        </g>
    </g>
</svg>