<?xml version="1.0" encoding="UTF-8"?>
<svg width="32px" height="32px" viewBox="0 0 32 32" version="1.1" xmlns="http://www.w3.org/2000/svg" xmlns:xlink="http://www.w3.org/1999/xlink">
    <title>7B4D96E8-F14C-4458-9435-78A1F666397B</title>
    <g id="Web" stroke="none" stroke-width="1" fill="none" fill-rule="evenodd">
        <g id="Contact-Us" transform="translate(-143.000000, -378.000000)" fill="#5F6062" fill-rule="nonzero" stroke="#404041" stroke-width="0.1">
            <g id="Group-2" transform="translate(135.000000, 369.000000)">
                <g id="icon/account/addresses" transform="translate(8.000000, 9.000000)">
                    <g id="Icon" transform="translate(7.000000, 4.000000)">
                        <path d="M8.71875,0 C3.92601562,0 0.026859375,3.89915625 0.026859375,8.69184375 C0.026859375,14.6397188 7.80525,23.3715469 8.13642187,23.7403594 C8.44748437,24.0868125 8.99057812,24.0862031 9.30107812,23.7403594 C9.63225,23.3715469 17.4106406,14.6397188 17.4106406,8.69184375 C17.4106406,3.89915625 13.5114375,0 8.71875,0 Z M8.71875,22.0185469 C6.10092187,18.9089531 1.59210937,12.774 1.59210937,8.6919375 C1.59210937,4.76221875 4.78907812,1.56525 8.71875,1.56525 C12.6484219,1.56525 15.8453906,4.76221875 15.8453906,8.69189062 C15.8453906,12.7741406 11.3372344,18.9079688 8.71875,22.0185469 Z" id="Shape"></path>
                        <path d="M8.71875,4.31878125 C6.30740625,4.31878125 4.3456875,6.28054688 4.3456875,8.69189063 C4.3456875,11.1032344 6.30745313,13.065 8.71875,13.065 C11.1300469,13.065 13.0917656,11.1032344 13.0917656,8.69189063 C13.0917656,6.28054688 11.1300469,4.31878125 8.71875,4.31878125 Z M8.71875,11.49975 C7.17046875,11.49975 5.9109375,10.2401719 5.9109375,8.69189063 C5.9109375,7.14360938 7.17051563,5.88403125 8.71875,5.88403125 C10.2669844,5.88403125 11.5265625,7.14360938 11.5265625,8.69189063 C11.5265625,10.2401719 10.2669844,11.49975 8.71875,11.49975 Z" id="Shape"></path>
                    </g>
                </g>
            </g>
        </g>
    </g>
</svg>
