<?xml version="1.0" encoding="UTF-8"?>
<svg width="24px" height="24px" viewBox="0 0 24 24" version="1.1" xmlns="http://www.w3.org/2000/svg" xmlns:xlink="http://www.w3.org/1999/xlink">
    <title>0D323656-A4D5-4DAC-88CC-C73B4185A436</title>
    <g id="Events-D" stroke="none" stroke-width="1" fill="none" fill-rule="evenodd">
        <g id="Events-Detail" transform="translate(-935.000000, -731.000000)" fill="#424242" fill-rule="nonzero">
            <g id="Group-3" transform="translate(905.000000, 569.000000)">
                <g id="noun_Calendar_3325660" transform="translate(30.000000, 162.000000)">
                    <path d="M20.4814286,2.27571429 L17.91,2.27571429 L17.91,1.22571429 C17.91,0.752327357 17.5262441,0.368571429 17.0528571,0.368571429 C16.5794702,0.368571429 16.1957143,0.752327357 16.1957143,1.22571429 L16.1957143,2.27571429 L7.82142857,2.27571429 L7.82142857,1.22571429 C7.82142857,0.752327357 7.43767264,0.368571429 6.96428571,0.368571429 C6.49089879,0.368571429 6.10714286,0.752327357 6.10714286,1.22571429 L6.10714286,2.27571429 L3.53571429,2.27571429 C1.64216657,2.27571429 0.107142857,3.810738 0.107142857,5.70428571 L0.107142857,20.2028571 C0.107142857,22.0964049 1.64216657,23.6314286 3.53571429,23.6314286 L20.4814286,23.6314286 C22.3749763,23.6314286 23.91,22.0964049 23.91,20.2028571 L23.91,5.70428571 C23.91,3.810738 22.3749763,2.27571429 20.4814286,2.27571429 Z M3.51857143,3.99 L6.09,3.99 L6.09,5.04428571 C6.09,5.51767264 6.47375593,5.90142857 6.94714286,5.90142857 C7.42052979,5.90142857 7.80428571,5.51767264 7.80428571,5.04428571 L7.80428571,3.99 L16.1614286,3.99 L16.1614286,5.04428571 C16.1614286,5.51767264 16.5451845,5.90142857 17.0185714,5.90142857 C17.4919584,5.90142857 17.8757143,5.51767264 17.8757143,5.04428571 L17.8757143,3.99 L20.4471429,3.99 C21.3939167,3.99 22.1614286,4.75751186 22.1614286,5.70428571 L22.1614286,8.22428571 L1.80428571,8.22428571 L1.80428571,5.70428571 C1.80428571,4.75751186 2.57179757,3.99 3.51857143,3.99 Z M20.4814286,21.9171429 L3.51857143,21.9171429 C2.57179757,21.9171429 1.80428571,21.149631 1.80428571,20.2028571 L1.80428571,9.93857143 L22.1957143,9.93857143 L22.1957143,20.2242857 C22.1839834,21.1626806 21.4198968,21.9171429 20.4814286,21.9171429 Z" id="Shape"></path>
                </g>
            </g>
        </g>
    </g>
</svg>