<?xml version="1.0" encoding="UTF-8"?><svg xmlns="http://www.w3.org/2000/svg" width="59" height="59" viewBox="0 0 59 59"><defs><style>.e,.f{stroke-linecap:round;stroke-linejoin:round;}.e,.f,.g,.h,.i{fill:none;}.e,.i{stroke:#fff;}.f,.g,.h{stroke:#424242;}.j{fill:#424242;}.g{stroke-width:3px;}</style></defs><g id="a"/><g id="b"><g id="c"><g><path id="d" class="g" d="M29.5,57.5c15.464,0,28-12.536,28-28S44.964,1.5,29.5,1.5,1.5,14.036,1.5,29.5s12.536,28,28,28Z"/><g><path class="j" d="M40.6526,22.0107l5.3529-.0627c.6447,0,1.1722,.5275,1.1722,1.1722v13.3532c0,.6447-.5275,1.1722-1.1722,1.1722h-1.9668v5.7303c0,.6447-.5275,1.1722-1.1722,1.1722h-2.573v1.4454c0,.6447-.5275,1.1722-1.1722,1.1722H20.4237c-.6447,0-1.1722-.5275-1.1722-1.1722v-1.4454h-2.573c-.6447,0-1.1722-.5275-1.1722-1.1722v-5.7303h-1.9668c-.6447,0-1.1722-.5275-1.1722-1.1722v-13.3532c0-.6447,.5275-1.1722,1.1722-1.1722l27.9479,.0627h-.8347Z"/><path class="h" d="M19.2425,22.948V14.4977c0-.5596,.4578-1.0174,1.0174-1.0174h15.7312l4.2934,3.802v5.6657"/><g><path class="e" d="M16.6784,34.4521h26.188"/><path class="e" d="M22.1442,39.5376h15.2565"/><path class="e" d="M22.1442,42.5344h15.2565"/><path class="i" d="M19.2515,34.4521h21.042v10.9919c0,.9504-.7716,1.722-1.722,1.722H20.3937c-.6304,0-1.1423-.5118-1.1423-1.1423v-11.5716h0Z"/><rect class="i" x="40.3071" y="25.891" width="2.629" height="2.629" rx="1.3145" ry="1.3145"/><rect class="i" x="35.6311" y="25.891" width="2.629" height="2.629" rx="1.3145" ry="1.3145"/></g><polygon class="f" points="40.2844 17.2823 35.991 13.4803 35.991 17.123 40.2844 17.2823"/></g></g></g></g></svg>
