<?xml version="1.0" encoding="UTF-8"?>
<svg width="20px" height="20px" viewBox="0 0 20 20" version="1.1" xmlns="http://www.w3.org/2000/svg" xmlns:xlink="http://www.w3.org/1999/xlink">
    <title>A43495CA-81DA-4D0F-9614-65FE5EDD0C82</title>
    <defs>
        <path d="M10,1 C5.02943725,1 1,5.02943725 1,10 C1,14.9705627 5.02943725,19 10,19 C14.9705627,19 19,14.9705627 19,10 C19,5.02943725 14.9705627,1 10,1 Z" id="path-1"></path>
        <path d="M10,3.3 C7.68040405,3.3 5.8,5.18040405 5.8,7.5 C5.8,9.81959595 7.68040405,11.7 10,11.7 C12.3195959,11.7 14.2,9.81959595 14.2,7.5 C14.2,5.18040405 12.3195959,3.3 10,3.3 Z M10,4.7 C11.5463973,4.7 12.8,5.9536027 12.8,7.5 C12.8,9.0463973 11.5463973,10.3 10,10.3 C8.4536027,10.3 7.2,9.0463973 7.2,7.5 C7.2,5.9536027 8.4536027,4.7 10,4.7 Z" id="path-3"></path>
    </defs>
    <g id="Home" stroke="none" stroke-width="1" fill="none" fill-rule="evenodd">
        <g id="Home-2" transform="translate(-1102.000000, -18.000000)">
            <g id="navigation/header-bar/main/bar-transparent-copy">
                <g id="Utility" transform="translate(955.000000, 8.000000)">
                    <g id="navigation/header-bar/secondary/signin-register" transform="translate(147.000000, 0.000000)">
                        <g id="icon/profile" transform="translate(0.000000, 10.000000)">
                            <g id="Group-22-Copy-2">
                                <path d="M10,0 C15.5228475,0 20,4.4771525 20,10 C20,15.5228475 15.5228475,20 10,20 C4.4771525,20 0,15.5228475 0,10 C0,4.4771525 4.4771525,0 10,0 Z M10,1.4 C5.25035115,1.4 1.4,5.25035115 1.4,10 C1.4,14.7496488 5.25035115,18.6 10,18.6 C14.7496488,18.6 18.6,14.7496488 18.6,10 C18.6,5.25035115 14.7496488,1.4 10,1.4 Z" id="Oval" fill="#FFFFFF" fill-rule="nonzero"></path>
                                <mask id="mask-2" fill="white">
                                    <use xlink:href="#path-1"></use>
                                </mask>
                                <g id="Path" fill-rule="nonzero"></g>
                                <path d="M10,11.05 C5.74740743,11.05 2.3,14.4974074 2.3,18.75 C2.3,23.0025926 5.74740743,26.45 10,26.45 C14.2525926,26.45 17.7,23.0025926 17.7,18.75 C17.7,14.4974074 14.2525926,11.05 10,11.05 Z M10,12.45 C13.4793939,12.45 16.3,15.2706061 16.3,18.75 C16.3,22.2293939 13.4793939,25.05 10,25.05 C6.52060608,25.05 3.7,22.2293939 3.7,18.75 C3.7,15.2706061 6.52060608,12.45 10,12.45 Z" id="Oval-Copy-17" fill="#FFFFFF" fill-rule="nonzero" mask="url(#mask-2)"></path>
                                <mask id="mask-4" fill="white">
                                    <use xlink:href="#path-3"></use>
                                </mask>
                                <use id="Oval-Copy-7" fill="#FFFFFF" fill-rule="nonzero" xlink:href="#path-3"></use>
                            </g>
                        </g>
                    </g>
                </g>
            </g>
        </g>
    </g>
</svg>