<?xml version="1.0" encoding="UTF-8"?>
<svg width="43px" height="52px" viewBox="0 0 43 52" version="1.1" xmlns="http://www.w3.org/2000/svg" xmlns:xlink="http://www.w3.org/1999/xlink">
    <title>72782AEF-D28F-4B81-8102-3D222503DDFA</title>
    <g id="Web" stroke="none" stroke-width="1" fill="none" fill-rule="evenodd">
        <g id="Contact-Us" transform="translate(-172.000000, -917.000000)" fill="#919191" stroke="#919191" stroke-width="0.7">
            <g id="Group-6-Copy" transform="translate(135.000000, 886.000000)">
                <g id="Group-3" transform="translate(38.000000, 32.000000)">
                    <path d="M24.8252031,23.4060097 C25.0614935,24.5999746 25.9542471,25.3630676 27.1342485,25.4045952 C28.3171515,25.4461229 29.4485529,24.5733171 29.7218374,23.4087299 C29.972998,22.3389852 29.3816372,21.0938815 28.3851552,20.593011 C27.2693493,20.0322973 26.1020419,20.2896235 25.2620593,21.356648 C25.8077216,21.5314631 26.3049652,21.7507072 26.8246953,21.842467 C27.5138002,21.9643298 28.0215617,22.2704374 27.9142064,23.0019766 C27.8005041,23.7770383 27.1685224,23.9861272 26.4672675,23.8580988 C25.9152582,23.7572719 25.3804766,23.5625091 24.8252031,23.4060097 M22.0733171,9.38236254 L31.7935043,9.38236254 C31.4948317,7.10106267 30.8414515,5.11190701 29.4625163,3.44209705 C27.9696975,1.63482881 26.1809263,1.58495938 24.5977985,3.28759249 C22.9923654,5.01398158 22.3903054,7.17668287 22.0733171,9.38236254 M23.8334361,19.7127702 C26.4128645,17.6744705 29.036178,17.8451146 30.8541455,20.1053786 C31.9908059,21.518769 32.0691462,23.7942659 31.0360329,25.3804766 C29.9922204,26.9830081 27.8570833,27.7587952 25.9381075,27.2330807 C24.143896,26.7416401 22.7049362,25.0546025 22.7350392,23.2056253 C22.7537175,22.0617112 22.4147867,21.1631546 21.8364827,20.2020347 C20.3170064,17.6766466 19.8625598,14.8368091 19.8453322,11.9398484 C19.8306434,9.44764616 20.1753772,6.97321558 21.3018823,4.7265523 C21.9135536,3.50701799 22.690066,2.26753591 23.6889054,1.36553387 C25.8701037,-0.603855361 28.4814486,-0.414714203 30.6178551,1.75034455 C32.2905665,3.44554258 33.0868454,5.57777818 33.5813688,7.85019222 C33.6831024,8.31787683 33.7625308,8.79027637 33.8611816,9.30837444 C34.912792,9.30837444 35.9319418,9.32143116 36.950729,9.30583563 C39.5189141,9.26666546 40.8343791,10.544411 40.8097042,13.1022595 C40.7649246,17.6048346 40.7295626,22.107591 40.6443312,26.6092594 C40.6060677,28.6250725 39.8116024,30.3824713 38.3976679,31.8011207 C32.7448317,37.4737233 27.040494,43.0953685 21.4092376,48.789007 C19.7434172,50.4733244 17.5656644,50.3034056 16.0791927,48.790095 C11.1664188,43.7884629 6.17748078,38.8617257 1.2248114,33.8992637 C-0.381347019,32.2898411 -0.420154505,30.3960721 1.18110765,28.7881002 C5.82966415,24.1199587 10.5070543,19.480288 15.1693929,14.8259285 C15.6715327,14.324514 16.2068584,14.0078884 16.8005767,14.6289896 C17.3897614,15.2451944 17.0437582,15.7700022 16.5481467,16.2647069 C12.0143805,20.7914007 7.48532932,25.3228094 2.95573408,29.853674 C1.70392064,31.1056688 1.69902437,31.5398049 2.92708182,32.7680437 C7.73449514,37.5767264 12.5426338,42.3845024 17.3520419,47.1911903 C18.5108262,48.3494306 19.0009974,48.3545082 20.1369324,47.2173038 C25.6902111,41.6584035 31.2313398,36.0880785 36.8009394,30.5456804 C38.0545662,29.2982192 38.6433882,27.8480161 38.6553569,26.0922494 C38.6841905,21.8315864 38.7579972,17.5711047 38.8124003,13.3106231 C38.8339801,11.6355542 38.476371,11.2830226 36.8147215,11.3026077 C32.5239555,11.3532025 28.2328268,11.386207 23.9420608,11.4513093 C21.9197193,11.4819563 21.8937872,11.5093392 21.9773865,13.4756456 C22.0713224,15.68332 22.7294175,17.7339511 23.8334361,19.7127702" id="Fill-1"></path>
                </g>
            </g>
        </g>
    </g>
</svg>
