<?xml version="1.0" encoding="UTF-8"?>
<svg width="53px" height="52px" viewBox="0 0 53 52" version="1.1" xmlns="http://www.w3.org/2000/svg" xmlns:xlink="http://www.w3.org/1999/xlink">
    <title>4572958D-1C45-4029-97AF-54403A8B9688</title>
    <g id="Web" stroke="none" stroke-width="1" fill="none" fill-rule="evenodd">
        <g id="Contact-Us" transform="translate(-173.000000, -706.000000)" fill="#919191" stroke="#919191" stroke-width="0.8">
            <g id="Group-6" transform="translate(135.000000, 675.000000)">
                <g id="Group-22" transform="translate(39.000000, 32.000000)">
                    <path d="M29.7830234,25.5311064 C28.5689702,24.313617 27.3742681,23.1152979 26.1737787,21.9111915 C25.0335128,22.8521596 25.015066,23.1483936 26.1021617,24.2593617 C26.5213745,24.6877979 26.9402255,25.1167766 27.3612468,25.5434043 C28.4038532,26.5995745 28.7878,26.5874574 29.7830234,25.5311064 M25.114534,25.1518617 C21.1736085,29.0944149 17.2663213,32.9009681 13.4834596,36.8270638 C11.2891936,39.1045213 8.99961915,41.1660426 5.98700213,42.2907553 C5.71283191,42.3929362 5.4383,42.6618617 5.29741702,42.9248191 C4.75992766,43.9281809 4.26331064,44.9543298 3.78532128,45.9877128 C3.68928936,46.1955106 3.63792766,46.5346064 3.74191702,46.7064149 C4.51650213,47.9852128 5.11837447,48.1336915 6.47095957,47.450617 C6.68562979,47.3424681 6.89469362,47.2149681 7.12021489,47.1375638 C8.62778936,46.6187021 9.53548085,45.5760957 10.1869064,44.1177128 C10.7399489,42.8797872 11.4512362,41.6230532 12.3865979,40.660383 C16.7959277,36.1226489 21.3068957,31.6836596 25.7804277,27.2079574 C26.0048638,26.9833404 26.2184489,26.7475106 26.3993,26.5567128 C25.9493426,26.064617 25.5655766,25.6450426 25.114534,25.1518617 M27.0266723,18.53 C26.5723745,20.0263617 27.2427894,21.0740319 28.3713,21.9432021 C28.6557787,22.1622128 28.9353745,22.4145 29.1402787,22.7053085 C30.3713319,24.4510638 32.0425766,25.1227447 34.1154915,24.7123936 C34.7255021,24.5915851 35.4416723,24.4098298 35.8581723,24.0005638 C40.1152255,19.8187447 44.3247149,15.5882766 48.5378213,11.3616064 C49.9305553,9.96453191 49.9294702,8.58753191 48.5519277,7.18864894 C47.261917,5.87874468 45.9547255,4.58565957 44.6535021,3.28696809 C43.0419383,1.67902128 41.6775979,1.67884043 40.0663957,3.29384043 C36.170683,7.19841489 32.3049915,11.133734 28.3655128,14.9932766 C27.3248957,16.0129149 26.5801511,17.0155532 27.0266723,18.53 M33.2282362,26.0159681 C32.8967362,26.0159681 32.5598106,26.0546702 32.2348213,26.0083723 C31.4065234,25.8904574 30.7905447,26.1821702 30.2843426,26.8388404 C29.6846404,27.6172234 28.8686404,27.7588298 27.9321936,27.5815957 C27.6735766,27.5325851 27.2823957,27.6320532 27.1004596,27.8129043 C22.2903638,32.5915319 17.4582043,37.3497234 12.7428745,42.2209468 C11.8599596,43.1329787 11.3958957,44.4830319 10.8549702,45.6835213 C10.3956085,46.7024362 9.74924681,47.4092021 8.70465106,47.8387234 C7.70544894,48.2494362 6.74856596,48.7719149 5.80162979,49.2969255 C5.18510851,49.6389149 4.70350213,49.6418085 4.21538511,49.0775532 C3.52941702,48.2845213 2.3609383,47.6081383 2.2079383,46.7396915 C2.05747021,45.8839043 2.96877872,44.8696915 3.31999149,43.8912872 C3.94953404,42.1366702 5.11204468,40.9815745 6.86485319,40.3496809 C8.48111915,39.7673404 9.74128936,38.6818723 10.9423213,37.4591383 C15.1235979,33.2028085 19.362566,29.0029043 23.5908638,24.7926915 C23.988917,24.3964468 24.2686936,24.0788723 24.0912787,23.4207553 C23.8530979,22.5365745 24.2370447,21.7538511 24.9454383,21.1836277 C25.4916085,20.7437979 25.6263426,20.2104681 25.6239915,19.5290213 C25.6097043,15.3142872 25.3235979,16.1990106 28.1748957,13.332883 C31.8517787,9.63664894 35.5572362,5.96917021 39.2435234,2.28234043 C40.5065872,1.01909574 41.9367574,0.334755319 43.7148851,1.04441489 C44.2568957,1.26089362 44.7781085,1.61735106 45.2043745,2.02028723 C46.6274915,3.3656383 48.0068426,4.75764894 49.3961404,6.13862766 C51.3750128,8.10592553 51.3757362,10.4253404 49.3870979,12.4110851 C45.4420128,16.350383 41.4877043,20.2804574 37.5402681,24.2172234 C35.4114702,26.3404149 35.9437149,25.9828723 33.2282362,26.0159681" id="Fill-1"></path>
                    <path d="M10.492183,1.67184149 C11.6874277,2.92206489 12.8678426,4.04297979 13.9153319,5.27656489 C16.0245979,7.7600117 15.8256617,11.4066926 13.5326511,13.7280968 C11.2651404,16.0240011 7.55371489,16.2630862 5.09124681,14.1916181 C3.83017234,13.1305649 2.68267234,11.9345968 1.39012979,10.7109585 C1.07906596,12.7099053 1.29934255,14.5545862 2.07338511,16.3016074 C3.82040638,20.244884 6.88962979,22.5185436 11.1691085,22.8460649 C12.7007362,22.9632564 14.3023532,22.4615755 15.8381404,22.0987883 C16.5092787,21.9403628 16.9487468,21.9398202 17.4278213,22.4606713 C18.2837894,23.3915117 19.1963638,24.270267 20.088683,25.16765 C20.4058957,25.4866713 20.682417,25.8098521 20.2615766,26.2377457 C19.8535766,26.6524372 19.5164702,26.4352351 19.1894915,26.1055436 C18.4467362,25.3568202 17.6793851,24.6314266 16.9610447,23.8604585 C16.6091085,23.4830223 16.2951511,23.3991074 15.7884064,23.5600649 C8.56195957,25.85615 1.39410851,21.6191713 0.110789362,14.175884 C-0.157593617,12.6194798 0.126704255,10.950767 0.281874468,9.34589468 C0.362895745,8.50783085 0.998948936,8.37454362 1.63409787,8.9925117 C2.95105532,10.2742032 4.22912979,11.5962245 5.55711915,12.8661606 C7.06650213,14.309533 8.8638,14.6829904 10.8104809,13.9858096 C12.7027255,13.3079798 13.7822255,11.8729266 14.0491617,9.89586277 C14.2679915,8.27507553 13.7026511,6.87456489 12.5640128,5.71295851 C11.3407362,4.46508617 10.0892468,3.24434149 8.88423617,1.9792883 C8.64370426,1.72700106 8.40986383,1.30833085 8.45055532,1.00377766 C8.47786383,0.798692553 8.97484255,0.576969149 9.29422553,0.50227766 C16.9686404,-1.2921266 24.2233,4.65805426 23.9167574,12.5230862 C23.8728106,13.648884 23.6147362,14.7766713 23.3528638,15.8791394 C23.2226511,16.4269372 23.1371085,16.8479585 23.6588638,17.2114691 C23.8521936,17.3462032 24.0985128,17.5371819 24.1332362,17.7352138 C24.1815234,18.0104691 24.1386617,18.3904372 23.9710128,18.5841287 C23.8550872,18.7179585 23.3725766,18.72465 23.2114383,18.5937138 C22.7238638,18.1985543 22.2173,17.76415 21.9091298,17.2340755 C21.7297255,16.9255436 21.8149064,16.3672564 21.9541617,15.9843947 C23.2571936,12.4015543 22.7611191,9.06322447 20.6305128,5.95041596 C18.4074915,2.70305426 14.1224064,0.885862766 10.492183,1.67184149" id="Fill-4"></path>
                    <path d="M45.0677596,50.0888904 C43.741217,50.14405 42.6646106,49.5640606 41.7675894,48.6715606 C36.3655681,43.2968479 30.9821745,37.9033266 25.5915468,32.5172202 C25.254983,32.1808372 24.9233021,31.8328798 25.3768766,31.3727947 C25.8881426,30.853933 26.2344723,31.2906883 26.5757383,31.6314117 C31.8600255,36.9111777 37.1482915,42.1866032 42.421366,47.4774011 C43.5480681,48.6079011 44.7995574,49.2097734 46.3977383,48.6498585 C48.5594511,47.8924543 49.3703872,45.2824117 47.9557702,43.4869223 C47.2884298,42.6399968 46.484366,41.8979649 45.7200894,41.130433 C41.6391851,37.0330713 37.550866,32.9427628 33.4661638,28.8491989 C33.2965255,28.6790181 33.0366426,28.5186032 32.9973979,28.3185819 C32.9487489,28.0702734 33.0102383,27.7185181 33.1686638,27.538933 C33.2831426,27.4090819 33.6495468,27.4280713 33.8730787,27.4904649 C34.0542915,27.5409223 34.195717,27.7489011 34.3445574,27.8973798 C39.0125043,32.5579117 43.6869617,37.2121138 48.3426106,41.8849436 C50.4866,44.0368904 50.3889404,47.1524117 48.1592277,49.052433 C47.3663766,49.7279117 46.2807277,50.0921457 45.0677596,50.0888904" id="Fill-7"></path>
                    <path d="M45.2669851,44.6522181 C44.7188255,44.6353989 44.5540702,45.197484 44.5687191,45.4418138 C44.5835489,45.6877713 44.8868362,46.0934202 45.2170702,46.0934202 C45.6138574,46.0934202 45.8688574,45.7262926 45.9037617,45.4772606 C45.9368574,45.2407074 45.814783,44.6688564 45.2669851,44.6522181 M47.2210809,45.4535691 C47.2331979,46.5431968 46.3273149,47.4845266 45.2487191,47.5029734 C44.1585489,47.5214202 43.2589957,46.6198777 43.2486872,45.4982394 C43.2383787,44.3617713 44.0733681,43.5038138 45.2129106,43.480484 C46.3273149,43.4573351 47.2086021,44.32325 47.2210809,45.4535691" id="Fill-12"></path>
                    <path d="M45.4239096,6.99616915 C45.2228032,7.25243511 45.0795691,7.47922234 44.8945585,7.66423298 C40.4506862,12.1128074 36.0026543,16.5568606 31.5551649,21.0016372 C31.2267394,21.3300628 30.8892713,21.6995415 30.4309947,21.204733 C30.0096117,20.7500734 30.2917394,20.4003074 30.639516,20.0530734 C35.0900798,15.6113713 39.5319628,11.1609883 43.9944628,6.73158404 C44.2120266,6.51582872 44.5999521,6.38561596 44.9093883,6.38416809 C45.0694415,6.38344574 45.2311223,6.75346702 45.4239096,6.99616915" id="Fill-20"></path>
                </g>
            </g>
        </g>
    </g>
</svg>
