<?xml version="1.0" encoding="utf-8"?>
<!-- Generator: Adobe Illustrator 27.0.0, SVG Export Plug-In . SVG Version: 6.00 Build 0)  -->
<svg version="1.1" id="Layer_1" xmlns="http://www.w3.org/2000/svg" width="59" height="59" xmlns:xlink="http://www.w3.org/1999/xlink" x="0px" y="0px"
	 viewBox="0 0 59 59" style="enable-background:new 0 0 59 59;" xml:space="preserve">
<style type="text/css">
	.st0{fill:none;stroke:#424242;stroke-width:3;}
	.st1{fill:#424242;}
</style>
<g id="a">
</g>
<g id="b">
	<g id="c">
		<g>
			<path id="d" class="st0" d="M29.5,57.5c15.5,0,28-12.5,28-28s-12.5-28-28-28s-28,12.5-28,28S14,57.5,29.5,57.5z"/>
			<g id="e" transform="translate(-206.000000, -1437.000000)">
				<g id="f" transform="translate(135.000000, 1397.000000)">
					<g>
						<path class="st1" d="M88.2,77.7l0,0.2c0.2,0.1,0.4,0.2,0.6,0.3c1.7,0.9,3.5,1.6,5.5,1.8c3.7,0.3,7.2-0.4,10.1-2.8
							c3.9-3.1,5.7-7.3,6-12.2c0-0.5,0.2-0.9,0.5-1.3c0.5-0.5,1-1.1,1.5-1.7c0.1-0.1,0.2-0.3,0.4-0.6l-2.2,0.7l-0.1-0.2
							c0.5-0.9,1.4-1.5,1.6-2.6c-0.8,0.3-1.6,0.6-2.3,0.9c-0.6,0.3-1,0.2-1.5-0.2c-1.2-1-2.6-1.3-4.1-1.1c-2.4,0.4-4.2,2.7-4.1,5.3
							c0,0.4,0,0.8,0,1.2c-4.3-0.3-7.7-2.4-10.4-5.7c-1.1,2.7-0.7,5,1.3,7.1L90.8,67l-1.9-0.5c0.2,2.6,1.5,4.3,3.8,5.3l-0.1,0.2
							h-1.9c0.3,0.5,0.4,1,0.7,1.3c0.9,1.3,2.3,2,3.9,2.5C93.1,77.3,90.7,77.8,88.2,77.7L88.2,77.7z"/>
						<path class="st1" d="M88.2,77.7c2.5,0,4.9-0.4,7-2.1c-1.6-0.5-2.9-1.1-3.9-2.5c-0.3-0.4-0.4-0.8-0.7-1.3h1.9l0.1-0.2
							c-2.3-1-3.6-2.7-3.8-5.3l1.9,0.5l0.2-0.1c-2-2-2.4-4.4-1.3-7.1c2.8,3.2,6.1,5.3,10.4,5.7c0-0.4,0-0.8,0-1.2
							c0-2.6,1.7-4.8,4.1-5.3c1.5-0.3,2.9,0,4.1,1.1c0.5,0.4,0.9,0.5,1.5,0.2c0.7-0.3,1.5-0.6,2.3-0.9c-0.3,1.1-1.1,1.7-1.6,2.6
							l0.1,0.2l2.2-0.7c-0.2,0.3-0.3,0.5-0.4,0.6c-0.5,0.6-1,1.1-1.5,1.7c-0.3,0.4-0.5,0.8-0.5,1.3c-0.3,4.9-2.1,9.1-6,12.2
							c-2.9,2.4-6.4,3.1-10.1,2.8c-2-0.2-3.7-0.9-5.5-1.8c-0.2-0.1-0.4-0.2-0.6-0.3L88.2,77.7L88.2,77.7z"/>
					</g>
				</g>
			</g>
		</g>
	</g>
</g>
</svg>
