<?xml version="1.0" encoding="UTF-8"?>
<svg width="107px" height="48px" viewBox="0 0 107 48" version="1.1" xmlns="http://www.w3.org/2000/svg" xmlns:xlink="http://www.w3.org/1999/xlink">
    <title>Logo Unit</title>
    <g id="Page-1" stroke="none" stroke-width="1" fill="none" fill-rule="evenodd">
        <g id="On-scroll-logo-half-capheight" transform="translate(-155.000000, -16.000000)" fill="#FFFFFF">
            <g id="Logo-Unit" transform="translate(155.000000, 16.000000)">
                <path d="M41.1782222,46.8 C43.1693333,46.8 44.876,46.2168889 44.876,43.984 C44.876,42.5191111 43.8093333,41.6088889 42.4155556,41.552 L42.4155556,41.5377778 C43.5248889,41.3102222 44.1222222,40.4284444 44.1222222,39.3902222 C44.1222222,37.6551111 42.7853333,37.0008889 40.7942222,37.0008889 L38.7888889,37.0008889 C38.604,37.0008889 38.4902222,37.0862222 38.4902222,37.328 L38.4902222,46.4728889 C38.4902222,46.7146667 38.604,46.8 38.7888889,46.8 L41.1782222,46.8 Z M40.78,41.1822222 L39.8128889,41.1822222 L39.8128889,38.0106667 L40.7231111,38.0106667 C41.8608889,38.0106667 42.828,38.2666667 42.828,39.4755556 C42.828,40.9262222 41.7755556,41.1822222 40.78,41.1822222 Z M41.0502222,45.7902222 L39.8128889,45.7902222 L39.8128889,42.1493333 L41.0075556,42.1493333 C42.2448889,42.1493333 43.5391111,42.4906667 43.5391111,43.984 C43.5106667,45.5342222 42.3302222,45.7902222 41.0502222,45.7902222 Z M47.1942222,38.9351111 C47.6066667,38.9351111 47.9195556,38.6648889 47.9195556,38.2524444 C47.9195556,37.84 47.5924444,37.5697778 47.18,37.5697778 C46.7675556,37.5697778 46.4546667,37.84 46.4546667,38.2524444 C46.4546667,38.6648889 46.7817778,38.9351111 47.1942222,38.9351111 Z M47.5071111,46.8 C47.692,46.8 47.7915556,46.7004444 47.7915556,46.5013333 L47.7915556,40.2151111 C47.7915556,40.016 47.7062222,39.9306667 47.5213333,39.9306667 L46.8671111,39.9306667 C46.6822222,39.9306667 46.5826667,40.016 46.5826667,40.2151111 L46.5826667,46.5013333 C46.5826667,46.7004444 46.6822222,46.8 46.8671111,46.8 L47.5071111,46.8 Z M52.6128889,46.9422222 C54.732,46.9422222 55.8982222,45.3635556 55.8982222,43.3582222 C55.8982222,41.296 54.9026667,39.7742222 52.6982222,39.7742222 C50.5791111,39.7742222 49.4271111,41.3386667 49.4271111,43.344 C49.4271111,45.3777778 50.4084444,46.9422222 52.6128889,46.9422222 Z M52.6271111,46.0035556 C51.1195556,46.0035556 50.6786667,44.624 50.6786667,43.3155556 C50.6786667,42.064 51.148,40.7128889 52.684,40.7128889 C54.1631111,40.7128889 54.6466667,42.0497778 54.6466667,43.3724444 C54.6466667,44.6951111 54.1204444,46.0035556 52.6271111,46.0035556 Z M59.084,46.9422222 C60.5915556,46.9422222 61.6866667,46.1315556 61.6866667,44.8231111 C61.6866667,43.9128889 61.0324444,43.344 60.2502222,43.0168889 L59.1551111,42.5475556 C58.5577778,42.2915556 58.2306667,42.064 58.2306667,41.5804444 C58.2306667,41.0968889 58.6004444,40.6702222 59.4395556,40.6702222 C59.8946667,40.6702222 60.492,40.8266667 60.9186667,41.0115556 C61.0608889,41.0684444 61.1604444,41.04 61.2031111,40.8977778 L61.3737778,40.4284444 C61.4164444,40.3004444 61.3737778,40.2151111 61.2457778,40.1582222 C60.6342222,39.8737778 60.0226667,39.7742222 59.4111111,39.7742222 C58.1595556,39.7742222 57.0502222,40.4142222 57.0502222,41.6657778 C57.0502222,42.5617778 57.6617778,43.1448889 58.4724444,43.4577778 L59.4253333,43.8275556 C60.0937778,44.0835556 60.492,44.3822222 60.492,44.9368889 C60.492,45.6053333 59.9373333,46.0177778 59.1124444,46.0177778 C58.6288889,46.0177778 57.9746667,45.8186667 57.4626667,45.5911111 C57.3204444,45.5342222 57.2351111,45.5911111 57.1924444,45.7191111 L57.0075556,46.2026667 C56.9506667,46.3306667 57.0075556,46.416 57.1355556,46.4871111 C57.6048889,46.7288889 58.3586667,46.9422222 59.084,46.9422222 Z M66.0528889,46.9422222 C66.7071111,46.9422222 67.3613333,46.8284444 67.9728889,46.544 C68.1577778,46.4586667 68.1862222,46.3733333 68.1293333,46.2026667 L68.0013333,45.8044444 C67.9444444,45.648 67.8164444,45.648 67.7168889,45.6906667 C67.2048889,45.9182222 66.7497778,46.0177778 66.1382222,46.0177778 C64.6164444,46.0177778 63.9906667,44.7662222 63.9906667,43.3155556 C63.9906667,41.7226667 64.844,40.7128889 66.1951111,40.7128889 C66.7355556,40.7128889 67.1764444,40.8266667 67.6457778,41.04 C67.8164444,41.1111111 67.9017778,41.0542222 67.9444444,40.9262222 L68.1008889,40.4853333 C68.1577778,40.3431111 68.1008889,40.2577778 67.9728889,40.1866667 C67.4751111,39.9306667 66.7924444,39.7742222 66.1382222,39.7742222 C64.0048889,39.7742222 62.7391111,41.2817778 62.7391111,43.3724444 C62.7391111,45.4915556 63.82,46.9422222 66.0528889,46.9422222 Z M70.1062222,38.9351111 C70.5186667,38.9351111 70.8315556,38.6648889 70.8315556,38.2524444 C70.8315556,37.84 70.5044444,37.5697778 70.092,37.5697778 C69.6795556,37.5697778 69.3666667,37.84 69.3666667,38.2524444 C69.3666667,38.6648889 69.6937778,38.9351111 70.1062222,38.9351111 Z M70.4191111,46.8 C70.604,46.8 70.7035556,46.7004444 70.7035556,46.5013333 L70.7035556,40.2151111 C70.7035556,40.016 70.6182222,39.9306667 70.4333333,39.9306667 L69.7791111,39.9306667 C69.5942222,39.9306667 69.4946667,40.016 69.4946667,40.2151111 L69.4946667,46.5013333 C69.4946667,46.7004444 69.5942222,46.8 69.7791111,46.8 L70.4191111,46.8 Z M75.6386667,46.9422222 C76.3071111,46.9422222 77.2742222,46.8426667 77.8857778,46.5297778 C78.0422222,46.4444444 78.0848889,46.3733333 78.028,46.2168889 L77.8573333,45.7475556 C77.8004444,45.5911111 77.6724444,45.5911111 77.5444444,45.648 C77.0608889,45.8613333 76.4066667,45.9466667 75.7951111,45.9466667 C74.3871111,45.9466667 73.6475556,44.88 73.6048889,43.5431111 L77.9711111,43.5431111 C78.3408889,43.5431111 78.3977778,43.472 78.3977778,43.1448889 L78.3977778,42.7893333 C78.3977778,41.1395556 77.4591111,39.7742222 75.6102222,39.7742222 C73.5622222,39.7742222 72.3391111,41.2817778 72.3391111,43.3582222 C72.3391111,45.4915556 73.4768889,46.9422222 75.6386667,46.9422222 Z M77.2031111,42.7182222 L73.6333333,42.7182222 C73.7328889,41.6373333 74.3728889,40.7128889 75.5533333,40.7128889 C76.6626667,40.7128889 77.2031111,41.4951111 77.2031111,42.4622222 L77.2031111,42.7182222 Z M80.7444444,46.8 C80.9293333,46.8 81.0288889,46.7004444 81.0288889,46.5013333 L81.0288889,41.6088889 C81.5266667,41.1537778 82.3373333,40.784 82.9915556,40.784 C84.1293333,40.784 84.3853333,41.5093333 84.3853333,42.5191111 L84.3853333,46.5013333 C84.3853333,46.7004444 84.4848889,46.8 84.6697778,46.8 L85.3097778,46.8 C85.4946667,46.8 85.5942222,46.7004444 85.5942222,46.5013333 L85.5942222,42.32 C85.5942222,40.7697778 84.9684444,39.7742222 83.3328889,39.7742222 C82.508,39.7742222 81.6546667,40.0728889 81.0004444,40.6275556 L80.9862222,40.1866667 C80.9862222,40.0017778 80.8866667,39.9306667 80.716,39.9306667 L80.0902222,39.9306667 C79.8911111,39.9306667 79.82,40.016 79.82,40.2151111 L79.82,46.5013333 C79.82,46.7004444 79.9195556,46.8 80.1044444,46.8 L80.7444444,46.8 Z M90.4013333,46.9422222 C91.0555556,46.9422222 91.7097778,46.8284444 92.3213333,46.544 C92.5062222,46.4586667 92.5346667,46.3733333 92.4777778,46.2026667 L92.3497778,45.8044444 C92.2928889,45.648 92.1648889,45.648 92.0653333,45.6906667 C91.5533333,45.9182222 91.0982222,46.0177778 90.4866667,46.0177778 C88.9648889,46.0177778 88.3391111,44.7662222 88.3391111,43.3155556 C88.3391111,41.7226667 89.1924444,40.7128889 90.5435556,40.7128889 C91.084,40.7128889 91.5248889,40.8266667 91.9942222,41.04 C92.1648889,41.1111111 92.2502222,41.0542222 92.2928889,40.9262222 L92.4493333,40.4853333 C92.5062222,40.3431111 92.4493333,40.2577778 92.3213333,40.1866667 C91.8235556,39.9306667 91.1408889,39.7742222 90.4866667,39.7742222 C88.3533333,39.7742222 87.0875556,41.2817778 87.0875556,43.3724444 C87.0875556,45.4915556 88.1684444,46.9422222 90.4013333,46.9422222 Z M96.6448889,46.9422222 C97.3133333,46.9422222 98.2804444,46.8426667 98.892,46.5297778 C99.0484444,46.4444444 99.0911111,46.3733333 99.0342222,46.2168889 L98.8635556,45.7475556 C98.8066667,45.5911111 98.6786667,45.5911111 98.5506667,45.648 C98.0671111,45.8613333 97.4128889,45.9466667 96.8013333,45.9466667 C95.3933333,45.9466667 94.6537778,44.88 94.6111111,43.5431111 L98.9773333,43.5431111 C99.3471111,43.5431111 99.404,43.472 99.404,43.1448889 L99.404,42.7893333 C99.404,41.1395556 98.4653333,39.7742222 96.6164444,39.7742222 C94.5684444,39.7742222 93.3453333,41.2817778 93.3453333,43.3582222 C93.3453333,45.4915556 94.4831111,46.9422222 96.6448889,46.9422222 Z M98.2093333,42.7182222 L94.6395556,42.7182222 C94.7391111,41.6373333 95.3791111,40.7128889 96.5595556,40.7128889 C97.6688889,40.7128889 98.2093333,41.4951111 98.2093333,42.4622222 L98.2093333,42.7182222 Z M102.490222,46.9422222 C103.997778,46.9422222 105.092889,46.1315556 105.092889,44.8231111 C105.092889,43.9128889 104.438667,43.344 103.656444,43.0168889 L102.561333,42.5475556 C101.964,42.2915556 101.636889,42.064 101.636889,41.5804444 C101.636889,41.0968889 102.006667,40.6702222 102.845778,40.6702222 C103.300889,40.6702222 103.898222,40.8266667 104.324889,41.0115556 C104.467111,41.0684444 104.566667,41.04 104.609333,40.8977778 L104.78,40.4284444 C104.822667,40.3004444 104.78,40.2151111 104.652,40.1582222 C104.040444,39.8737778 103.428889,39.7742222 102.817333,39.7742222 C101.565778,39.7742222 100.456444,40.4142222 100.456444,41.6657778 C100.456444,42.5617778 101.068,43.1448889 101.878667,43.4577778 L102.831556,43.8275556 C103.5,44.0835556 103.898222,44.3822222 103.898222,44.9368889 C103.898222,45.6053333 103.343556,46.0177778 102.518667,46.0177778 C102.035111,46.0177778 101.380889,45.8186667 100.868889,45.5911111 C100.726667,45.5342222 100.641333,45.5911111 100.598667,45.7191111 L100.413778,46.2026667 C100.356889,46.3306667 100.413778,46.416 100.541778,46.4871111 C101.011111,46.7288889 101.764889,46.9422222 102.490222,46.9422222 Z" id="Biosciences" fill-rule="nonzero"></path>
                <g id="bd-logo/white" transform="translate(0.900000, 0.000000)">
                    <path d="M19.8279471,13.504769 C19.7828346,13.4889137 19.7406641,13.4671126 19.7406641,13.4136009 C19.7406641,13.3828812 19.7583169,13.3581073 19.7985259,13.3283785 C19.8387349,13.2986498 26.4153603,8.61241174 26.4153603,8.61241174 C27.1793316,10.3237954 27.603978,12.22247 27.603978,14.2222222 C27.603978,14.8722904 27.5578847,15.5134399 27.4715825,16.139725 C27.4715825,16.139725 19.8730597,13.5206243 19.8279471,13.504769 M14.0751161,27.8914902 C7.29548415,27.8914902 1.68191361,22.8514802 0.699244549,16.2784591 L5.74106254,16.9899666 C5.81951915,16.9998761 5.85090179,17.0414963 5.86953524,17.09699 C6.86985703,20.0401338 9.38929496,22.2796978 12.5128488,22.8534622 C11.3232504,22.2678063 10.5033788,21.0340642 10.5033788,19.6070853 C10.5033788,17.6132788 12.102913,15.9970271 14.0751161,15.9970271 C16.0482999,15.9970271 17.6468533,17.6132788 17.6468533,19.6070853 C17.6468533,21.0340642 16.8279624,22.2678063 15.6383641,22.8534622 C18.7619179,22.2796978 21.2803751,20.0401338 22.2806969,17.09699 C22.2993304,17.0414963 22.3316937,16.9998761 22.4091696,16.9899666 L27.4509876,16.2784591 C26.4692993,22.8514802 20.854748,27.8914902 14.0751161,27.8914902 M0.547234864,14.2222222 C0.547234864,12.22247 0.971881273,10.3237954 1.73487182,8.61241174 C1.73487182,8.61241174 8.31149726,13.2986498 8.35170628,13.3283785 C8.39191529,13.3581073 8.40956803,13.3828812 8.40956803,13.4136009 C8.40956803,13.4671126 8.36837831,13.4889137 8.32228505,13.504769 C8.2771725,13.5206243 0.678649688,16.139725 0.678649688,16.139725 C0.592347416,15.5134399 0.547234864,14.8722904 0.547234864,14.2222222 M6.70607886,2.75585284 C6.70607886,2.75585284 9.73646547,10.3059581 9.75117608,10.3436145 C9.76392528,10.3753252 9.76686741,10.3951443 9.76686741,10.4109996 C9.76686741,10.4546018 9.73352335,10.4873034 9.69331433,10.4873034 C9.66977735,10.4873034 9.64820178,10.4833395 9.6246648,10.4773938 C9.56778375,10.4625294 1.77802295,8.51628886 1.77802295,8.51628886 C2.85091711,6.15780998 4.57107832,4.16003964 6.70607886,2.75585284 M14.0260807,0.551963335 C14.0260807,0.551963335 12.5952282,8.23981172 12.5246173,8.61637557 C12.5128488,8.68078781 12.4755819,8.70159792 12.4412571,8.70159792 C12.4079131,8.70159792 12.381434,8.6788059 12.3451478,8.64015855 C12.1637169,8.4479128 6.79041971,2.70135018 6.79041971,2.70135018 C8.8803077,1.34869317 11.3624787,0.56187291 14.0260807,0.551963335 M21.3598124,2.70135018 C21.3598124,2.70135018 15.9865153,8.4479128 15.8060651,8.64015855 C15.7687982,8.6788059 15.7423191,8.70159792 15.708975,8.70159792 C15.6756309,8.70159792 15.6383641,8.68078781 15.6265956,8.61637557 C15.5559846,8.23981172 14.1241515,0.551963335 14.1241515,0.551963335 C16.7877534,0.56187291 19.2699245,1.34869317 21.3598124,2.70135018 M26.3722092,8.51628886 C26.3722092,8.51628886 18.5824484,10.4625294 18.5265481,10.4773938 C18.5020304,10.4833395 18.4804548,10.4873034 18.4578985,10.4873034 C18.4176895,10.4873034 18.3833647,10.4546018 18.3833647,10.4109996 C18.3833647,10.3951443 18.3863069,10.3753252 18.3990561,10.3436145 C18.4147474,10.3059581 21.4441533,2.75585284 21.4441533,2.75585284 C23.5801345,4.16003964 25.299315,6.15780998 26.3722092,8.51628886 M14.0760968,0 C6.30202731,0 0,6.36690202 0,14.2222222 C0,22.0765515 6.30202731,28.4444444 14.0760968,28.4444444 C21.8491856,28.4444444 28.1492514,22.0765515 28.1492514,14.2222222 C28.1492514,6.36690202 21.8491856,0 14.0760968,0" id="Mark"></path>
                    <path d="M60.4753367,7.09624675 L57.36159,7.09624675 L57.36159,21.4443206 L60.4753367,21.4443206 C65.2268653,21.4443206 67.877718,18.6062183 67.877718,14.2697882 C67.877718,9.90263842 65.2729585,7.09624675 60.4753367,7.09624675 M60.6842275,24.4389942 L55.7287117,24.4389942 C54.8225379,24.4389942 54.0977949,23.7473058 54.0977949,22.7910318 L54.0977949,5.72178868 C54.0977949,4.80515298 54.8225379,4.10355506 55.7287117,4.10355506 L60.6842275,4.10355506 C67.4010941,4.10355506 71.1111111,8.65205004 71.1111111,14.2697882 C71.1111111,19.8895082 67.3608851,24.4389942 60.6842275,24.4389942 M44.6673103,15.1864239 L38.7163763,15.1864239 L38.7163763,21.4165738 L44.6673103,21.4165738 C47.0504298,21.4165738 48.1448996,19.8587886 48.1448996,18.3010033 C48.1448996,16.7442091 47.0651404,15.1864239 44.6673103,15.1864239 M43.9278567,7.09624675 L38.7163763,7.09624675 L38.7163763,12.2254428 L43.9278567,12.2254428 C45.9942077,12.2254428 46.9670697,11.0640406 46.9670697,9.65985383 C46.9670697,8.22494736 46.0550116,7.09624675 43.9278567,7.09624675 M44.5496253,24.4389942 L37.0844788,24.4389942 C36.1783049,24.4389942 35.4829832,23.7056856 35.4829832,22.7910318 L35.4829832,5.72178868 C35.4829832,4.80515298 36.1783049,4.10355506 37.0844788,4.10355506 L44.0661365,4.10355506 C47.9026648,4.10355506 50.1994821,6.35897436 50.1994821,9.29022668 C50.1994821,12.2541806 48.4067485,13.3095504 47.7820377,13.5384615 C48.7519576,13.78521 51.3782926,14.9089558 51.3782926,18.6151369 C51.3782926,21.7911557 48.8431634,24.4389942 44.5496253,24.4389942" id="BD"></path>
                </g>
            </g>
        </g>
    </g>
</svg>