<?xml version="1.0" encoding="UTF-8"?>
<svg width="146px" height="68px" viewBox="0 0 146 68" version="1.1" xmlns="http://www.w3.org/2000/svg" xmlns:xlink="http://www.w3.org/1999/xlink">
    <title>Logo Unit</title>
    <g id="Page-1" stroke="none" stroke-width="1" fill="none" fill-rule="evenodd">
        <g id="on-stopping-logo-half-capheight-copy" transform="translate(-135.000000, -21.000000)" fill="#FFFFFF">
            <g id="Logo-Unit" transform="translate(135.000000, 21.000000)">
                <path d="M55.36,66 C58.16,66 60.56,65.18 60.56,62.04 C60.56,59.98 59.06,58.7 57.1,58.62 L57.1,58.6 C58.66,58.28 59.5,57.04 59.5,55.58 C59.5,53.14 57.62,52.22 54.82,52.22 L52,52.22 C51.74,52.22 51.58,52.34 51.58,52.68 L51.58,65.54 C51.58,65.88 51.74,66 52,66 L55.36,66 Z M54.8,58.1 L53.44,58.1 L53.44,53.64 L54.72,53.64 C56.32,53.64 57.68,54 57.68,55.7 C57.68,57.74 56.2,58.1 54.8,58.1 Z M55.18,64.58 L53.44,64.58 L53.44,59.46 L55.12,59.46 C56.86,59.46 58.68,59.94 58.68,62.04 C58.64,64.22 56.98,64.58 55.18,64.58 Z M63.82,54.94 C64.4,54.94 64.84,54.56 64.84,53.98 C64.84,53.4 64.38,53.02 63.8,53.02 C63.22,53.02 62.78,53.4 62.78,53.98 C62.78,54.56 63.24,54.94 63.82,54.94 Z M64.26,66 C64.52,66 64.66,65.86 64.66,65.58 L64.66,56.74 C64.66,56.46 64.54,56.34 64.28,56.34 L63.36,56.34 C63.1,56.34 62.96,56.46 62.96,56.74 L62.96,65.58 C62.96,65.86 63.1,66 63.36,66 L64.26,66 Z M71.44,66.2 C74.42,66.2 76.06,63.98 76.06,61.16 C76.06,58.26 74.66,56.12 71.56,56.12 C68.58,56.12 66.96,58.32 66.96,61.14 C66.96,64 68.34,66.2 71.44,66.2 Z M71.46,64.88 C69.34,64.88 68.72,62.94 68.72,61.1 C68.72,59.34 69.38,57.44 71.54,57.44 C73.62,57.44 74.3,59.32 74.3,61.18 C74.3,63.04 73.56,64.88 71.46,64.88 Z M80.54,66.2 C82.66,66.2 84.2,65.06 84.2,63.22 C84.2,61.94 83.28,61.14 82.18,60.68 L80.64,60.02 C79.8,59.66 79.34,59.34 79.34,58.66 C79.34,57.98 79.86,57.38 81.04,57.38 C81.68,57.38 82.52,57.6 83.12,57.86 C83.32,57.94 83.46,57.9 83.52,57.7 L83.76,57.04 C83.82,56.86 83.76,56.74 83.58,56.66 C82.72,56.26 81.86,56.12 81,56.12 C79.24,56.12 77.68,57.02 77.68,58.78 C77.68,60.04 78.54,60.86 79.68,61.3 L81.02,61.82 C81.96,62.18 82.52,62.6 82.52,63.38 C82.52,64.32 81.74,64.9 80.58,64.9 C79.9,64.9 78.98,64.62 78.26,64.3 C78.06,64.22 77.94,64.3 77.88,64.48 L77.62,65.16 C77.54,65.34 77.62,65.46 77.8,65.56 C78.46,65.9 79.52,66.2 80.54,66.2 Z M90.34,66.2 C91.26,66.2 92.18,66.04 93.04,65.64 C93.3,65.52 93.34,65.4 93.26,65.16 L93.08,64.6 C93,64.38 92.82,64.38 92.68,64.44 C91.96,64.76 91.32,64.9 90.46,64.9 C88.32,64.9 87.44,63.14 87.44,61.1 C87.44,58.86 88.64,57.44 90.54,57.44 C91.3,57.44 91.92,57.6 92.58,57.9 C92.82,58 92.94,57.92 93,57.74 L93.22,57.12 C93.3,56.92 93.22,56.8 93.04,56.7 C92.34,56.34 91.38,56.12 90.46,56.12 C87.46,56.12 85.68,58.24 85.68,61.18 C85.68,64.16 87.2,66.2 90.34,66.2 Z M96.04,54.94 C96.62,54.94 97.06,54.56 97.06,53.98 C97.06,53.4 96.6,53.02 96.02,53.02 C95.44,53.02 95,53.4 95,53.98 C95,54.56 95.46,54.94 96.04,54.94 Z M96.48,66 C96.74,66 96.88,65.86 96.88,65.58 L96.88,56.74 C96.88,56.46 96.76,56.34 96.5,56.34 L95.58,56.34 C95.32,56.34 95.18,56.46 95.18,56.74 L95.18,65.58 C95.18,65.86 95.32,66 95.58,66 L96.48,66 Z M103.82,66.2 C104.76,66.2 106.12,66.06 106.98,65.62 C107.2,65.5 107.26,65.4 107.18,65.18 L106.94,64.52 C106.86,64.3 106.68,64.3 106.5,64.38 C105.82,64.68 104.9,64.8 104.04,64.8 C102.06,64.8 101.02,63.3 100.96,61.42 L107.1,61.42 C107.62,61.42 107.7,61.32 107.7,60.86 L107.7,60.36 C107.7,58.04 106.38,56.12 103.78,56.12 C100.9,56.12 99.18,58.24 99.18,61.16 C99.18,64.16 100.78,66.2 103.82,66.2 Z M106.02,60.26 L101,60.26 C101.14,58.74 102.04,57.44 103.7,57.44 C105.26,57.44 106.02,58.54 106.02,59.9 L106.02,60.26 Z M111,66 C111.26,66 111.4,65.86 111.4,65.58 L111.4,58.7 C112.1,58.06 113.24,57.54 114.16,57.54 C115.76,57.54 116.12,58.56 116.12,59.98 L116.12,65.58 C116.12,65.86 116.26,66 116.52,66 L117.42,66 C117.68,66 117.82,65.86 117.82,65.58 L117.82,59.7 C117.82,57.52 116.94,56.12 114.64,56.12 C113.48,56.12 112.28,56.54 111.36,57.32 L111.34,56.7 C111.34,56.44 111.2,56.34 110.96,56.34 L110.08,56.34 C109.8,56.34 109.7,56.46 109.7,56.74 L109.7,65.58 C109.7,65.86 109.84,66 110.1,66 L111,66 Z M124.58,66.2 C125.5,66.2 126.42,66.04 127.28,65.64 C127.54,65.52 127.58,65.4 127.5,65.16 L127.32,64.6 C127.24,64.38 127.06,64.38 126.92,64.44 C126.2,64.76 125.56,64.9 124.7,64.9 C122.56,64.9 121.68,63.14 121.68,61.1 C121.68,58.86 122.88,57.44 124.78,57.44 C125.54,57.44 126.16,57.6 126.82,57.9 C127.06,58 127.18,57.92 127.24,57.74 L127.46,57.12 C127.54,56.92 127.46,56.8 127.28,56.7 C126.58,56.34 125.62,56.12 124.7,56.12 C121.7,56.12 119.92,58.24 119.92,61.18 C119.92,64.16 121.44,66.2 124.58,66.2 Z M133.36,66.2 C134.3,66.2 135.66,66.06 136.52,65.62 C136.74,65.5 136.8,65.4 136.72,65.18 L136.48,64.52 C136.4,64.3 136.22,64.3 136.04,64.38 C135.36,64.68 134.44,64.8 133.58,64.8 C131.6,64.8 130.56,63.3 130.5,61.42 L136.64,61.42 C137.16,61.42 137.24,61.32 137.24,60.86 L137.24,60.36 C137.24,58.04 135.92,56.12 133.32,56.12 C130.44,56.12 128.72,58.24 128.72,61.16 C128.72,64.16 130.32,66.2 133.36,66.2 Z M135.56,60.26 L130.54,60.26 C130.68,58.74 131.58,57.44 133.24,57.44 C134.8,57.44 135.56,58.54 135.56,59.9 L135.56,60.26 Z M141.58,66.2 C143.7,66.2 145.24,65.06 145.24,63.22 C145.24,61.94 144.32,61.14 143.22,60.68 L141.68,60.02 C140.84,59.66 140.38,59.34 140.38,58.66 C140.38,57.98 140.9,57.38 142.08,57.38 C142.72,57.38 143.56,57.6 144.16,57.86 C144.36,57.94 144.5,57.9 144.56,57.7 L144.8,57.04 C144.86,56.86 144.8,56.74 144.62,56.66 C143.76,56.26 142.9,56.12 142.04,56.12 C140.28,56.12 138.72,57.02 138.72,58.78 C138.72,60.04 139.58,60.86 140.72,61.3 L142.06,61.82 C143,62.18 143.56,62.6 143.56,63.38 C143.56,64.32 142.78,64.9 141.62,64.9 C140.94,64.9 140.02,64.62 139.3,64.3 C139.1,64.22 138.98,64.3 138.92,64.48 L138.66,65.16 C138.58,65.34 138.66,65.46 138.84,65.56 C139.5,65.9 140.56,66.2 141.58,66.2 Z" id="Biosciences" fill-rule="nonzero"></path>
                <g id="bd-logo/white">
                    <path d="M27.8830506,18.9910814 C27.8196111,18.9687848 27.7603089,18.9381271 27.7603089,18.8628763 C27.7603089,18.8196767 27.7851331,18.7848384 27.841677,18.7430323 C27.8982209,18.7012263 37.1466005,12.111204 37.1466005,12.111204 C38.220935,14.5178372 38.8180941,17.1878484 38.8180941,20 C38.8180941,20.9141583 38.7532754,21.8157748 38.6319128,22.6964883 C38.6319128,22.6964883 27.9464901,19.0133779 27.8830506,18.9910814 M19.793132,39.222408 C10.2592746,39.222408 2.36519101,32.1348941 0.983312647,22.8915831 L8.07336919,23.8921405 C8.1836988,23.9060758 8.22783064,23.9646042 8.25403393,24.0426421 C9.66073645,28.1814381 13.203696,31.330825 17.5961936,32.1376812 C15.9233209,31.3141026 14.7703765,29.5791527 14.7703765,27.5724638 C14.7703765,24.7686734 17.0197214,22.4958194 19.793132,22.4958194 C22.5679217,22.4958194 24.8158875,24.7686734 24.8158875,27.5724638 C24.8158875,29.5791527 23.6643222,31.3141026 21.9914495,32.1376812 C26.383947,31.330825 29.9255275,28.1814381 31.33223,24.0426421 C31.3584333,23.9646042 31.4039443,23.9060758 31.5128948,23.8921405 L38.6029513,22.8915831 C37.2224521,32.1348941 29.3269894,39.222408 19.793132,39.222408 M0.769549028,20 C0.769549028,17.1878484 1.36670804,14.5178372 2.43966349,12.111204 C2.43966349,12.111204 11.688043,18.7012263 11.744587,18.7430323 C11.8011309,18.7848384 11.825955,18.8196767 11.825955,18.8628763 C11.825955,18.9381271 11.768032,18.9687848 11.7032133,18.9910814 C11.6397738,19.0133779 0.954351124,22.6964883 0.954351124,22.6964883 C0.832988553,21.8157748 0.769549028,20.9141583 0.769549028,20 M9.43042339,3.87541806 C9.43042339,3.87541806 13.6919046,14.4927536 13.7125914,14.5457079 C13.7305199,14.590301 13.7346573,14.6181717 13.7346573,14.6404682 C13.7346573,14.7017837 13.6877672,14.7477703 13.6312233,14.7477703 C13.5981244,14.7477703 13.5677838,14.7421962 13.5346849,14.733835 C13.4546959,14.712932 2.50034478,11.9760312 2.50034478,11.9760312 C4.00910219,8.65942029 6.42807889,5.85005574 9.43042339,3.87541806 M19.724176,0.776198439 C19.724176,0.776198439 17.7120397,11.5872352 17.6127431,12.1167781 C17.5961936,12.2073579 17.5437871,12.2366221 17.4955179,12.2366221 C17.4486278,12.2366221 17.4113915,12.2045708 17.3603641,12.150223 C17.1052269,11.8798774 9.54902772,3.79877369 9.54902772,3.79877369 C12.4879327,1.89659978 15.9784857,0.790133779 19.724176,0.776198439 M30.0372362,3.79877369 C30.0372362,3.79877369 22.4810371,11.8798774 22.227279,12.150223 C22.1748724,12.2045708 22.1376362,12.2366221 22.0907461,12.2366221 C22.043856,12.2366221 21.9914495,12.2073579 21.9749,12.1167781 C21.8756034,11.5872352 19.862088,0.776198439 19.862088,0.776198439 C23.6077782,0.790133779 27.0983313,1.89659978 30.0372362,3.79877369 M37.0859192,11.9760312 C37.0859192,11.9760312 26.1315681,14.712932 26.0529582,14.733835 C26.0184802,14.7421962 25.9881396,14.7477703 25.9564198,14.7477703 C25.8998759,14.7477703 25.8516067,14.7017837 25.8516067,14.6404682 C25.8516067,14.6181717 25.855744,14.590301 25.8736726,14.5457079 C25.8957385,14.4927536 30.1558406,3.87541806 30.1558406,3.87541806 C33.1595642,5.85005574 35.5771618,8.65942029 37.0859192,11.9760312 M19.7945111,0 C8.8622259,0 0,8.95345596 0,20 C0,31.0451505 8.8622259,40 19.7945111,40 C30.7254172,40 39.5848848,31.0451505 39.5848848,20 C39.5848848,8.95345596 30.7254172,0 19.7945111,0" id="Mark"></path>
                    <path d="M85.0434423,9.97909699 L80.6647359,9.97909699 L80.6647359,30.1560758 L85.0434423,30.1560758 C91.7252793,30.1560758 95.453041,26.1649944 95.453041,20.0668896 C95.453041,13.9255853 91.7900979,9.97909699 85.0434423,9.97909699 M85.3371949,34.3673356 L78.3685009,34.3673356 C77.0941939,34.3673356 76.0750241,33.3946488 76.0750241,32.0498885 L76.0750241,8.04626533 C76.0750241,6.75724638 77.0941939,5.7706243 78.3685009,5.7706243 L85.3371949,5.7706243 C94.7827886,5.7706243 100,12.1669454 100,20.0668896 C100,27.969621 94.7262447,34.3673356 85.3371949,34.3673356 M62.813405,21.3559086 L54.4449042,21.3559086 L54.4449042,30.1170569 L62.813405,30.1170569 C66.1646669,30.1170569 67.703765,27.9264214 67.703765,25.735786 C67.703765,23.546544 66.1853537,21.3559086 62.813405,21.3559086 M61.7735485,9.97909699 L54.4449042,9.97909699 L54.4449042,17.192029 L61.7735485,17.192029 C64.6793546,17.192029 66.0474417,15.5588071 66.0474417,13.5841695 C66.0474417,11.5663322 64.76486,9.97909699 61.7735485,9.97909699 M62.6479106,34.3673356 L52.1500483,34.3673356 C50.8757413,34.3673356 49.8979451,33.3361204 49.8979451,32.0498885 L49.8979451,8.04626533 C49.8979451,6.75724638 50.8757413,5.7706243 52.1500483,5.7706243 L61.9680044,5.7706243 C67.3631223,5.7706243 70.5930217,8.94230769 70.5930217,13.0643813 C70.5930217,17.2324415 68.0719901,18.7165552 67.1934906,19.0384615 C68.5574404,19.3854515 72.250724,20.9657191 72.250724,26.1775362 C72.250724,30.6438127 68.6856985,34.3673356 62.6479106,34.3673356" id="BD"></path>
                </g>
            </g>
        </g>
    </g>
</svg>