<?xml version="1.0" encoding="UTF-8"?>
<svg width="200px" height="200px" viewBox="0 0 200 200" version="1.1" xmlns="http://www.w3.org/2000/svg" xmlns:xlink="http://www.w3.org/1999/xlink">
    <title>302E9485-F365-46FD-9ED3-32E4E0A0F427</title>
    <g id="Search-Results--D" stroke="none" stroke-width="1" fill="none" fill-rule="evenodd">
        <g id="No-Search-results---empty-state" transform="translate(-620.000000, -248.000000)">
            <g id="Group-6" transform="translate(304.000000, 248.000000)">
                <g id="Shopping-list---empty-state-part-2-Copy" transform="translate(316.000000, 0.000000)">
                    <circle id="Oval" fill="#E7EBF1" cx="99.8741424" cy="99.8741424" r="99.8741424"></circle>
                    <g id="Group-3" transform="translate(54.000000, 46.000000)">
                        <g id="Group" transform="translate(39.671956, 52.500000) scale(-1, 1) translate(-39.671956, -52.500000) translate(0.171956, 0.000000)">
                            <rect id="Rectangle-Copy-2" stroke="#D8D8D8" stroke-width="3" fill="#FFFFFF" x="0" y="0" width="69.9717027" height="94" rx="4.30595093"></rect>
                            <g id="Group-9" transform="translate(9.000000, 11.000000)">
                                <rect id="Rectangle" stroke="#D8D8D8" stroke-width="3" fill="#FFFFFF" x="0" y="0" width="69.9717027" height="94" rx="4.30595093"></rect>
                                <g id="Group-16" transform="translate(15.171956, 31.000000)" fill="#999A9C" fill-rule="nonzero">
                                    <path d="M5.12370484,19.580604 C5.51548768,19.0425687 6.0253141,19.0425687 6.41709683,19.580604 L7.89823929,21.6168759 C8.48743992,22.427959 9.3396947,22.8924426 10.2357071,22.8924426 C11.1322282,22.8924426 11.984483,22.427959 12.5736835,21.6168759 L14.054826,19.580604 C14.4461,19.0425687 14.9554176,19.0415612 15.3477093,19.5816116 L17.0125318,21.8687651 C17.6012236,22.6788407 18.4534784,23.1443318 19.3494907,23.1443318 C19.3499995,23.1443318 19.3499995,23.1443318 19.3499995,23.1443318 C20.2465207,23.1443318 21.0987755,22.6798482 21.687976,21.8687651 L23.3522897,19.5806041 C23.5481811,19.3115865 23.7776539,19.1634756 23.9989858,19.1634756 C24.2198088,19.1634756 24.4492816,19.3115865 24.645173,19.5806041 L26.1263154,21.616876 C26.7155161,22.4279591 27.5677708,22.8924427 28.4642919,22.8924427 C29.360813,22.8924427 30.2130679,22.4279591 30.8022684,21.616876 L32.2834109,19.5806041 C32.6751937,19.0425688 33.1850201,19.0425688 33.5762941,19.5806041 L37.0087184,24.2999994 L38.699999,23.0949616 L35.2675747,18.3755663 C34.6778652,17.5644832 33.8256104,17.0999995 32.9290894,17.0999995 C32.033077,17.0999995 31.1808222,17.5654908 30.5921304,18.3755663 L29.110988,20.4118382 C28.7192051,20.9498735 28.2093787,20.9498735 27.817596,20.4118382 L26.3364535,18.3755663 C25.7477617,17.5654907 24.8955069,17.0999995 23.9994946,17.0999995 C23.9989858,17.0999995 23.9989858,17.0999995 23.9989858,17.0999995 C23.1024646,17.0999995 22.2502098,17.5644832 21.6610093,18.3755663 L19.9966956,20.6637274 C19.8008041,20.9327449 19.5713312,21.0808557 19.3499994,21.0808557 C19.1291764,21.0808557 18.8997036,20.9327449 18.7038122,20.6627198 L17.0389897,18.3755662 C16.4497891,17.5644831 15.5975343,17.0999995 14.7015219,17.0999995 C13.8050008,17.0999995 12.952746,17.5644831 12.3635455,18.3755662 L10.882403,20.4118381 C10.491129,20.9488658 9.98181139,20.9508809 9.58951973,20.4118381 L8.10837727,18.3755662 C7.51917664,17.5644831 6.66692186,17.0999995 5.77040078,17.0999995 C4.87387971,17.0999995 4.02162482,17.5644831 3.4324243,18.3755662 L0,23.0949615 L1.69128055,24.2999994 L5.12370484,19.580604 Z" id="Path" stroke="#FFFFFF" stroke-width="0.629999973"></path>
                                    <path d="M4.91693924,6.97378761 L7.19999981,4.69076846 L9.48306037,6.97378761 C9.63352295,7.12424746 9.83100507,7.19999981 10.0284872,7.19999981 C10.2259693,7.19999981 10.4234515,7.12476989 10.573914,6.97378761 C10.8753616,6.6723455 10.8753616,6.18439587 10.573914,5.88295375 L8.29085346,3.5999346 L10.573914,1.31691545 C10.8753616,1.01547333 10.8753616,0.527523704 10.573914,0.226081587 C10.2724664,-0.0753605291 9.78398552,-0.0753605291 9.48306037,0.226081587 L7.19999981,2.50910074 L4.91693924,0.226081587 C4.61549166,-0.0753605291 4.12701074,-0.0753605291 3.82608559,0.226081587 C3.52463801,0.527523704 3.52463801,1.01547333 3.82608559,1.31691545 L6.10914616,3.5999346 L3.82608559,5.88295375 C3.52463801,6.18439587 3.52463801,6.6723455 3.82608559,6.97378761 C3.97654817,7.12424746 4.17403029,7.19999981 4.37151242,7.19999981 C4.56899455,7.19999981 4.76647667,7.12424746 4.91693924,6.97378761 Z" id="Path"></path>
                                    <path d="M29.2169386,6.97378761 L31.4999992,4.69076846 L33.7830597,6.97378761 C33.9335223,7.12424746 34.1310044,7.19999981 34.3284866,7.19999981 C34.5259687,7.19999981 34.7234508,7.12476989 34.8739134,6.97378761 C35.175361,6.6723455 35.175361,6.18439587 34.8739134,5.88295375 L32.5908528,3.5999346 L34.8739134,1.31691545 C35.175361,1.01547333 35.175361,0.527523704 34.8739134,0.226081587 C34.5724658,-0.0753605291 34.0839849,-0.0753605291 33.7830597,0.226081587 L31.4999992,2.50910074 L29.2169386,0.226081587 C28.915491,-0.0753605291 28.4270101,-0.0753605291 28.1260849,0.226081587 C27.8246374,0.527523704 27.8246374,1.01547333 28.1260849,1.31691545 L30.4091455,3.5999346 L28.1260849,5.88295375 C27.8246374,6.18439587 27.8246374,6.6723455 28.1260849,6.97378761 C28.2765475,7.12424746 28.4740296,7.19999981 28.6715118,7.19999981 C28.8689939,7.19999981 29.066476,7.12424746 29.2169386,6.97378761 Z" id="Path-Copy"></path>
                                </g>
                            </g>
                        </g>
                        <g id="Group-5" transform="translate(34.907183, 32.548294)">
                            <circle id="Oval" fill-opacity="0.5" fill="#EEEEEE" cx="21.45" cy="21.9124684" r="21.45"></circle>
                            <rect id="Rectangle" fill="#D8D8D8" transform="translate(41.289429, 40.451898) rotate(-45.000000) translate(-41.289429, -40.451898) " x="38.0394291" y="35.5768975" width="6.5" height="9.75"></rect>
                            <path d="M53.1606755,37.9673827 L66.1606755,37.9673827 L66.1606755,74.3673827 C66.1606755,77.9572336 63.2505264,80.8673827 59.6606755,80.8673827 C56.0708246,80.8673827 53.1606755,77.9572336 53.1606755,74.3673827 L53.1606755,37.9673827 L53.1606755,37.9673827 Z" id="Rectangle-Copy" fill="#999A9C" transform="translate(59.660675, 59.417383) rotate(-45.000000) translate(-59.660675, -59.417383) "></path>
                            <circle id="Oval" stroke="#999A9C" stroke-width="4" cx="21.45" cy="21.9124684" r="21.45"></circle>
                        </g>
                    </g>
                </g>
            </g>
        </g>
    </g>
</svg>