<?xml version="1.0" encoding="utf-8"?>
<!-- Generator: Adobe Illustrator 18.1.1, SVG Export Plug-In . SVG Version: 6.00 Build 0)  -->
<svg version="1.1" id="Layer_1" xmlns="http://www.w3.org/2000/svg" xmlns:xlink="http://www.w3.org/1999/xlink" x="0px" y="0px"
	 width="169px" height="80.3px" viewBox="-336 258 169 80.3" enable-background="new -336 258 169 80.3" xml:space="preserve">
<g>
	<path opacity="0.4" fill="#FFFFFF" enable-background="new    " d="M-317.5,303.2c6.9,0,12.5,5.6,12.5,12.5s-5.6,12.5-12.5,12.5
		s-12.5-5.6-12.5-12.5S-324.4,303.2-317.5,303.2"/>
	<g>
		<path fill="#D4D4D4" d="M-317.5,303.2c6.9,0,12.5,5.6,12.5,12.5s-5.6,12.5-12.5,12.5s-12.5-5.6-12.5-12.5
			S-324.4,303.2-317.5,303.2 M-317.5,302.2c-7.4,0-13.5,6.1-13.5,13.5s6.1,13.5,13.5,13.5s13.5-6.1,13.5-13.5
			C-304.1,308-310.1,302.2-317.5,302.2L-317.5,302.2z"/>
	</g>
</g>
<g>
	<path opacity="0.4" fill="#FFFFFF" enable-background="new    " d="M-274.8,303.2c6.9,0,12.5,5.6,12.5,12.5s-5.6,12.5-12.5,12.5
		s-12.5-5.6-12.5-12.5S-281.6,303.2-274.8,303.2"/>
	<circle fill="#D4D4D4" cx="-274.8" cy="315.7" r="3.8"/>
	<g>
		<path fill="#D4D4D4" d="M-274.8,303.2c6.9,0,12.5,5.6,12.5,12.5s-5.6,12.5-12.5,12.5s-12.5-5.6-12.5-12.5
			S-281.6,303.2-274.8,303.2 M-274.8,302.2c-7.4,0-13.5,6.1-13.5,13.5s6.1,13.5,13.5,13.5s13.5-6.1,13.5-13.5
			C-261.4,308-267.3,302.2-274.8,302.2L-274.8,302.2z"/>
	</g>
</g>
<g>
	<path fill="#FFFFFF" d="M-229,303.2c6.9,0,12.5,5.6,12.5,12.5s-5.6,12.5-12.5,12.5s-12.5-5.6-12.5-12.5S-235.8,303.2-229,303.2"/>
	<g>
		<path fill="#939393" d="M-229,303.2c6.9,0,12.5,5.6,12.5,12.5s-5.6,12.5-12.5,12.5s-12.5-5.6-12.5-12.5S-235.8,303.2-229,303.2
			 M-229,302.2c-7.4,0-13.5,6.1-13.5,13.5s6.1,13.5,13.5,13.5s13.5-6.1,13.5-13.5C-215.6,308-221.5,302.2-229,302.2L-229,302.2z"/>
	</g>
</g>
<g>
	<path fill="#FFFFFF" d="M-185,303.2c6.9,0,12.5,5.6,12.5,12.5s-5.6,12.5-12.5,12.5s-12.5-5.6-12.5-12.5S-191.8,303.2-185,303.2"/>
	<circle fill="#2D6AB2" cx="-185" cy="315.7" r="3.8"/>
	<g>
		<path fill="#939393" d="M-185,303.2c6.9,0,12.5,5.6,12.5,12.5s-5.6,12.5-12.5,12.5s-12.5-5.6-12.5-12.5S-191.8,303.2-185,303.2
			 M-185,302.2c-7.4,0-13.5,6.1-13.5,13.5s6.1,13.5,13.5,13.5s13.5-6.1,13.5-13.5C-171.6,308-177.5,302.2-185,302.2L-185,302.2z"/>
	</g>
</g>
<g>
	<rect x="-242" y="265.4" fill="#FFFFFF" width="26.1" height="26"/>
	<rect x="-242" y="265.4" fill="none" stroke="#939393" stroke-width="0.8897" stroke-miterlimit="10" width="26.1" height="26"/>
</g>
<g>
	<rect x="-330.5" y="265.4" opacity="0.4" fill="#FFFFFF" width="26.1" height="26"/>
	<rect x="-330.5" y="265.4" fill="none" stroke="#D4D4D4" stroke-width="0.8897" stroke-miterlimit="10" width="26.1" height="26"/>
</g>
<g>
	<g>
		<rect x="-287.9" y="265.4" opacity="0.4" fill="#FFFFFF" width="26.1" height="26"/>
		
			<rect x="-287.9" y="265.4" fill="none" stroke="#D4D4D4" stroke-width="0.8897" stroke-miterlimit="10" width="26.1" height="26"/>
	</g>
	<g>
		<g>
			<path fill="#D4D4D4" d="M-282.7,276.7c0.2-0.2,0.4-0.2,0.6,0l5.9,5.8c0.2,0.2,0.2,0.4,0,0.6c-0.2,0.2-0.4,0.2-0.6,0l-5.9-5.8
				C-282.9,277.2-282.9,276.9-282.7,276.7"/>
			<path fill="#D4D4D4" d="M-276.8,283.1c-0.2-0.2-0.2-0.4,0-0.6l9-9c0.2-0.2,0.4-0.2,0.6,0c0.2,0.2,0.2,0.4,0,0.6l-9,9
				C-276.3,283.3-276.6,283.3-276.8,283.1"/>
		</g>
	</g>
</g>
<g>
	<g>
		<rect x="-198" y="265.4" fill="#FFFFFF" width="26.1" height="26"/>
		<rect x="-198" y="265.4" fill="none" stroke="#939393" stroke-width="0.8897" stroke-miterlimit="10" width="26.1" height="26"/>
	</g>
	<g>
		<path fill="#2D6AB2" d="M-193.4,276.6c0.2-0.2,0.4-0.2,0.6,0l6.4,6.4c0.2,0.2,0.2,0.4,0,0.6c-0.2,0.2-0.4,0.2-0.6,0l-6.4-6.4
			C-193.6,277.1-193.6,276.8-193.4,276.6"/>
		<path fill="#2D6AB2" d="M-186.9,283.6c-0.2-0.2-0.2-0.4,0-0.6l9.8-9.7c0.2-0.2,0.4-0.2,0.6,0s0.2,0.4,0,0.6l-9.8,9.7
			C-186.4,283.8-186.7,283.8-186.9,283.6"/>
	</g>
</g>
</svg>
