<?xml version="1.0" encoding="UTF-8"?>
<svg width="20px" height="20px" viewBox="0 0 20 20" version="1.1" xmlns="http://www.w3.org/2000/svg" xmlns:xlink="http://www.w3.org/1999/xlink">
    <title>B6DB7FC7-0179-4534-AF91-EB30554DC9B3</title>
    <g id="Home" stroke="none" stroke-width="1" fill="none" fill-rule="evenodd">
        <g id="Home-2" transform="translate(-955.000000, -18.000000)">
            <g id="navigation/header-bar/main/bar-transparent-copy">
                <g id="Utility" transform="translate(955.000000, 8.000000)">
                    <g id="navigation/header-bar/secondary/signin-register-copy">
                        <g id="icon/profile" transform="translate(0.000000, 10.000000)">
                            <path d="" id="Path-13-Copy" stroke="#FFFFFF"></path>
                            <circle id="Oval-Copy-18" stroke="#FFFFFF" stroke-width="1.4" cx="10" cy="10" r="9.3"></circle>
                            <path d="M10,0 C12.0427255,0 13.8470283,1.70134861 14.9306086,4.30021297 L17.7,4.3 L17.7,5.7 L15.4182756,5.69914033 C15.7342677,6.80296925 15.9324045,8.01851687 15.9855517,9.30055957 L19.7,9.3 L19.7,10.7 L15.9855102,10.7004422 C15.9323013,11.9821163 15.7341854,13.1973183 15.4182756,14.3008597 L17.7,14.3 L17.7,15.7 L14.9301947,15.7007794 C13.8465689,18.2990845 12.0424655,20 10,20 C7.95753451,20 6.15343107,18.2990845 5.06980527,15.7007794 L2.3,15.7 L2.3,14.3 L4.5817244,14.3008597 C4.26581457,13.1973183 4.06769873,11.9821163 4.01448985,10.7004422 L1.3,10.7 L1.3,9.3 L4.01444829,9.30055957 C4.0675955,8.01851687 4.26573226,6.80296925 4.5817244,5.69914033 L2.3,5.7 L2.3,4.3 L5.06939144,4.30021297 C6.15297173,1.70134861 7.95727448,0 10,0 Z M9.3,15.7 L6.60124546,15.7007079 C7.31370663,17.1623379 8.2759836,18.1693123 9.30031319,18.4902197 L9.3,15.7 Z M13.3987545,15.7007079 L10.7,15.7 L10.7006888,18.4899056 C11.7246439,18.1686556 12.6865257,17.1618613 13.3987545,15.7007079 Z M9.3,10.7 L5.41577805,10.7008955 C5.47516202,12.0143242 5.69947883,13.2332109 6.0429001,14.3010738 L9.3,14.3 L9.3,10.7 Z M14.5842219,10.7008955 L10.7,10.7 L10.7,14.3 L13.9570999,14.3010738 C14.3005212,13.2332109 14.524838,12.0143242 14.5842219,10.7008955 Z M9.3,5.699 L6.0429001,5.69892624 C5.69939136,6.7670611 5.47504777,7.9862967 5.41573271,9.30010802 L9.3,9.3 L9.3,5.699 Z M13.9570999,5.69892624 L10.7,5.699 L10.7,9.3 L14.5842673,9.30010802 C14.5249522,7.9862967 14.3006086,6.7670611 13.9570999,5.69892624 Z M6.60076301,4.30028198 L9.3,4.3 L9.30031319,1.50978032 C8.27575237,1.83076012 7.31327218,2.83811679 6.60076301,4.30028198 Z M10.7006888,1.51009445 L10.7,4.3 L13.399237,4.30028198 C12.6869601,2.83859345 11.7248751,1.83141695 10.7006888,1.51009445 Z" id="Combined-Shape" fill="#FFFFFF" fill-rule="nonzero"></path>
                        </g>
                    </g>
                </g>
            </g>
        </g>
    </g>
</svg>