<?xml version="1.0" encoding="UTF-8"?><svg xmlns="http://www.w3.org/2000/svg" width="59" height="59" viewBox="0 0 59 59"><defs><style>.e{fill:#424242;}.f{fill:none;stroke:#424242;stroke-width:3px;}</style></defs><g id="a"/><g id="b"><g id="c"><g><path id="d" class="f" d="M29.5,57.5c15.464,0,28-12.536,28-28S44.964,1.5,29.5,1.5,1.5,14.036,1.5,29.5s12.536,28,28,28Z"/><g><path class="e" d="M32.3668,34.8582l-5.6388,5.6388c-2.6292,2.6292-6.8785,2.6509-9.5341,.0647-2.5863-2.6557-2.5648-6.9051,.0645-9.5343l5.3057-5.3057c.369-.369,.77-.6867,1.194-.9529,1.6788-1.0544,3.7186-1.3034,5.5679-.7468,.4483,.1348,.8855,.317,1.3034,.5466,.5249,.2881,1.0198,.6511,1.469,1.0886,.0312,.0321,.0621,.0644,.0925,.0969,.6369,.6798,.6163,1.7429-.0499,2.394l-.1153,.1127c-.6868,.6712-1.7898,.6434-2.4456-.058l-.0132-.014c.0222,.0209,.0441,.0423,.0658,.0639l-.1298-.1298c.0217,.0217,.0431,.0437,.064,.0659-.4656-.4405-1.0409-.726-1.6631-.8309-.1767-.0298-.3571-.0449-.5399-.0449-.0707,0-.1412,.0022-.2111,.0068-.2448,.0158-.4845,.059-.7151,.1283-.5018,.1505-.9615,.4237-1.3425,.8047l-5.3057,5.3057c-.5559,.5559-.8827,1.2799-.933,2.0576-.0046,.0699-.0068,.1404-.0068,.2111,0,.8263,.3103,1.605,.8759,2.2029-.0222-.0209-.0441-.0423-.0659-.064l.1298,.1298c-.0216-.0216-.043-.0436-.0639-.0658,.5978,.5655,1.3764,.8756,2.2027,.8757,.0708,0,.1412-.0022,.2112-.0068,.7777-.0502,1.5017-.377,2.0576-.933l3.5035-3.5035,.0147,.0058c.9654,.3806,1.9831,.5705,3.0248,.5639,.551-.0034,1.0947-.0617,1.6268-.174Z"/><path class="e" d="M40.7947,26.4303l-5.3057,5.3057c-.3691,.3691-.7701,.6868-1.1941,.953-1.6787,1.0543-3.7185,1.3033-5.5677,.7468-.4484-.1349-.8855-.317-1.3035-.5467-.5249-.2881-1.0197-.651-1.4688-1.0885-.0312-.0321-.0621-.0644-.0925-.0969-.637-.6799-.6164-1.7432,.05-2.3943l.1152-.1125c.6869-.6712,1.79-.6434,2.4459,.0581l.0132,.014c-.0222-.0209-.0441-.0423-.0659-.064l.1298,.1298c-.0216-.0216-.043-.0436-.0639-.0658,.4656,.4405,1.0409,.726,1.6631,.8307,.1765,.0298,.3569,.045,.5396,.045,.0708,0,.1412-.0022,.2112-.0068,.2449-.0159,.4846-.0591,.7152-.1284,.5018-.1505,.9615-.4237,1.3424-.8046l5.3057-5.3057c.556-.556,.8828-1.28,.933-2.0576,.0045-.07,.0068-.1404,.0068-.2112,0-.8264-.3102-1.605-.8756-2.2028,.0222,.0209,.0441,.0423,.0658,.0639l-.1298-.1298c.0217,.0217,.0431,.0437,.064,.0659-.5979-.5656-1.3766-.8758-2.203-.8758-.0707,0-.1412,.0022-.2111,.0068-.7776,.0501-1.5016,.3769-2.0576,.933l-3.5035,3.5035-.0147-.0058c-.9654-.3808-1.9832-.5705-3.0248-.5641-.5512,.0034-1.0948,.0618-1.627,.1742l5.6389-5.6389c2.6292-2.6292,6.8786-2.6508,9.5343-.0645,2.5862,2.6556,2.5646,6.9049-.0647,9.5341Z"/></g></g></g></g></svg>
