<?xml version="1.0" encoding="UTF-8"?>
<svg width="166px" height="166px" viewBox="0 0 166 166" version="1.1" xmlns="http://www.w3.org/2000/svg" xmlns:xlink="http://www.w3.org/1999/xlink">
    <title>061F3AF2-FB9F-4EDD-B487-56745F75E0AA</title>
    <g id="Web" stroke="none" stroke-width="1" fill="none" fill-rule="evenodd">
        <g id="Error-404" transform="translate(-637.000000, -284.000000)">
            <g id="Group-9" transform="translate(637.000000, 284.000000)">
                <circle id="Oval" fill="#E7EBF1" cx="83" cy="83" r="83"></circle>
                <g id="Group-7" transform="translate(50.000000, 40.000000)" stroke-width="2">
                    <g id="Group-8" stroke="#999A9C">
                        <path d="M33,0 C51.2253967,0 66,14.7746033 66,33 C66,44.1511456 60.4690361,54.0104654 52.0008103,59.9842575 L52,70 L17,70 L17.0004716,61.868894 C6.86141059,56.2376711 0,45.4201197 0,33 C0,14.7746033 14.7746033,0 33,0 Z" id="Combined-Shape" fill="#FFFFFF"></path>
                        <rect id="Rectangle" fill="#EEEEEE" x="20" y="70" width="28" height="8"></rect>
                        <rect id="Rectangle-Copy-2" fill="#EEEEEE" x="22" y="78" width="23" height="8"></rect>
                    </g>
                    <polyline id="Path-2" stroke="#979797" stroke-linecap="round" points="1.33927531 24.7354555 12.6202009 20.7302512 22 31.5439601 26.6049823 27.6527737 39.2249767 37.4171739 49.9006638 27.6527737"></polyline>
                </g>
                <line x1="95" y1="73" x2="100" y2="79" id="Path-3" stroke="#979797" stroke-width="2"></line>
            </g>
        </g>
    </g>
</svg>